<svg width="339" height="474" viewBox="0 0 339 474" fill="none" xmlns="http://www.w3.org/2000/svg">
<path d="M22.8653 473.641C10.3659 473.641 0.199219 463.467 0.199219 450.974V23.4352C0.199219 10.9379 10.3659 0.768518 22.8653 0.768518H315.687C328.184 0.768518 338.353 10.9379 338.353 23.4352V450.974C338.353 463.467 328.184 473.641 315.687 473.641H22.8653Z" fill="#849393"/>
<path d="M315.688 3.43578H271.515L267.481 14.5278L263.113 3.43578H22.8666C11.82 3.43578 2.86719 12.3918 2.86719 23.4358V450.975C2.86719 462.014 11.82 470.975 22.8666 470.975H67.1026L71.0707 460.054L75.368 470.975H315.688C326.732 470.975 335.688 462.014 335.688 450.975V23.4358C335.688 12.3918 326.732 3.43578 315.688 3.43578Z" fill="white"/>
<path d="M35.367 19.6698H64.615C64.8844 19.7138 65.019 19.8258 65.019 20.0058C62.6417 21.3058 61.4564 22.6285 61.4564 23.9725C59.4377 28.6338 58.003 32.5791 57.1524 35.8058C56.927 35.9405 55.9857 38.4271 54.3284 43.2685C53.7004 44.2551 52.871 46.5191 51.8404 50.0605L49.823 55.1018L47.0004 63.3725V64.1125C47.583 65.0085 48.3217 65.4564 49.219 65.4564V65.6591C48.9937 65.6591 48.8817 65.7711 48.8817 65.9951L47.0004 65.7924H34.6284V65.6591C34.6284 65.5244 35.435 65.0765 37.0484 64.3125C37.6764 63.2378 40.6804 55.5964 46.059 41.3858C46.059 40.8058 47.9417 35.4244 51.7057 25.2511C51.303 25.1591 51.1004 25.0471 51.1004 24.9151C47.9177 25.0471 45.6097 25.1151 44.1764 25.1151H41.1497C37.071 25.1151 34.2684 27.0418 32.747 30.8965L32.343 31.0991L32.207 30.6951V29.7524C32.431 29.5764 32.8577 27.8938 33.4857 24.7111C34.3364 21.3498 34.9657 19.6698 35.367 19.6698Z" fill="#E11D25"/>
<path d="M303.183 454.92H273.935C273.666 454.867 273.531 454.76 273.531 454.574C275.907 453.28 277.094 451.96 277.094 450.613C279.113 445.947 280.547 442 281.398 438.774C281.623 438.64 282.563 436.16 284.222 431.307C284.85 430.334 285.679 428.067 286.709 424.52L288.727 419.48L291.55 411.214V410.467C290.969 409.574 290.229 409.12 289.331 409.12V408.92C289.557 408.92 289.667 408.813 289.667 408.587L291.55 408.787H303.922V408.92C303.922 409.053 303.115 409.507 301.501 410.267C300.873 411.347 297.87 418.987 292.491 433.2C292.491 433.774 290.609 439.16 286.845 449.334C287.249 449.427 287.449 449.534 287.449 449.667C290.633 449.534 292.941 449.467 294.374 449.467H297.399C301.479 449.467 304.282 447.534 305.803 443.68L306.207 443.48L306.342 443.893V444.827C306.118 445.013 305.693 446.693 305.065 449.867C304.214 453.227 303.585 454.92 303.183 454.92Z" fill="#E11D25"/>
<path d="M289.121 386.947L284.178 389.56L293.046 396.24L301.916 389.56L296.97 386.947L323.856 370.16L311.154 356.64C305.657 354.96 303.121 355.773 301.916 357.653C299.577 361.28 303.668 363.493 305.773 362.093C305.773 362.093 302.384 366.187 298.876 361.627C296.604 358.667 298.257 352.573 303.58 348.587L293.046 337.387L282.513 348.587C287.837 352.573 289.49 358.667 287.218 361.627C283.71 366.187 280.318 362.093 280.318 362.093C282.424 363.493 286.517 361.28 284.178 357.653C282.97 355.773 280.438 354.96 274.94 356.64L262.238 370.16L289.121 386.947Z" fill="#E11D25"/>
<path d="M49.4247 87.6402L54.3687 85.0189L45.5007 78.3415L36.6327 85.0189L41.5767 87.6402L14.6914 104.427L27.3927 117.94C32.8901 119.623 35.4261 118.803 36.6327 116.932C38.9687 113.31 34.8781 111.086 32.7741 112.49C32.7741 112.49 36.1634 108.399 39.6714 112.959C41.9434 115.912 40.2901 122.006 34.9674 125.998L45.5007 137.2L56.0341 125.998C50.7101 122.006 49.0567 115.912 51.3287 112.959C54.8367 108.399 58.2274 112.49 58.2274 112.49C56.1234 111.086 52.0287 113.31 54.3687 116.932C55.5767 118.803 58.1087 119.623 63.6074 117.94L76.3087 104.427L49.4247 87.6402Z" fill="#E11D25"/>
<path d="M180.786 178.245L195.291 170.547L169.278 150.964L143.263 170.547L157.766 178.245L78.9102 227.481L116.162 267.12C132.287 272.053 139.727 269.653 143.263 264.16C150.121 253.533 138.121 247.016 131.949 251.128C131.949 251.128 141.889 239.133 152.18 252.507C158.845 261.173 153.993 279.04 138.379 290.747L169.278 323.613L200.173 290.747C184.56 279.04 179.709 261.173 186.369 252.507C196.658 239.133 206.605 251.128 206.605 251.128C200.432 247.016 188.423 253.533 195.291 264.16C198.827 269.653 206.261 272.053 222.386 267.12L259.646 227.481L180.786 178.245Z" fill="#E11D25"/>
</svg>
