<svg width="339" height="474" viewBox="0 0 339 474" fill="none" xmlns="http://www.w3.org/2000/svg">
<path d="M23.3737 473.379C10.8737 473.379 0.707031 463.21 0.707031 450.712V23.1816C0.707031 10.6829 10.8737 0.514884 23.3737 0.514884H316.194C328.692 0.514884 338.86 10.6829 338.86 23.1816V450.712C338.86 463.21 328.692 473.379 316.194 473.379H23.3737Z" fill="#849393"/>
<path d="M316.195 3.1822H272.024L267.99 14.2715L263.623 3.1822H23.375C12.3283 3.1822 3.375 12.1369 3.375 23.1822V450.713C3.375 461.757 12.3283 470.713 23.375 470.713H67.6124L71.579 459.802L75.8777 470.713H316.195C327.24 470.713 336.195 461.757 336.195 450.713V23.1822C336.195 12.1369 327.24 3.1822 316.195 3.1822Z" fill="white"/>
<path d="M38.2762 50.8122H45.4015C45.8042 50.8122 46.0081 50.6109 46.0081 50.2083V34.9456C42.8228 40.3242 40.2482 45.6136 38.2762 50.8122ZM46.3441 19.4149H56.2949V19.6829C55.2629 20.8936 54.7482 21.9242 54.7482 22.7762V50.2083C54.7922 50.6109 54.9921 50.8122 55.3521 50.8122H58.1775C58.1775 51.6642 57.0335 54.0389 54.7482 57.9402V62.3096C54.7482 63.2069 55.2629 64.2602 56.2949 65.4709V65.7402H44.4615V65.4709C45.4922 64.2602 46.0081 63.2069 46.0081 62.3096V57.9402C46.0081 57.5362 45.8042 57.3349 45.4015 57.3349H27.9868L27.3828 57.0656C39.4841 31.9656 45.8041 19.4149 46.3441 19.4149Z" fill="#E11D25"/>
<path d="M301.295 423.26H294.167C293.763 423.26 293.563 423.461 293.563 423.864V439.128C296.745 433.748 299.32 428.458 301.295 423.26ZM293.224 454.658H283.273V454.39C284.304 453.18 284.82 452.148 284.82 451.297V423.864C284.776 423.461 284.576 423.26 284.216 423.26H281.391C281.391 422.409 282.533 420.033 284.82 416.133V411.762C284.82 410.864 284.304 409.812 283.273 408.601V408.333H295.107V408.601C294.079 409.812 293.563 410.864 293.563 411.762V416.133C293.563 416.536 293.763 416.737 294.167 416.737H311.581L312.185 417.007C300.083 442.106 293.763 454.658 293.224 454.658Z" fill="#E11D25"/>
<path d="M289.629 386.688L284.686 389.309L293.555 395.986L302.422 389.309L297.479 386.688L324.362 369.898L311.662 356.388C306.165 354.705 303.629 355.526 302.422 357.396C300.083 361.018 304.175 363.24 306.282 361.838C306.282 361.838 302.891 365.929 299.383 361.369C297.113 358.417 298.766 352.32 304.086 348.33L293.555 337.125L283.022 348.33C288.345 352.32 289.998 358.417 287.727 361.369C284.219 365.929 280.826 361.838 280.826 361.838C282.933 363.24 287.025 361.018 284.686 357.396C283.479 355.526 280.946 354.705 275.449 356.388L262.746 369.898L289.629 386.688Z" fill="#E11D25"/>
<path d="M49.9378 87.3859L54.8805 84.7633L46.0138 78.0859L37.1432 84.7633L42.0885 87.3859L15.2031 104.174L27.9045 117.687C33.4018 119.366 35.9378 118.549 37.1432 116.678C39.4818 113.054 35.3912 110.833 33.2872 112.235C33.2872 112.235 36.6751 108.145 40.1831 112.702C42.4565 115.655 40.8032 121.751 35.4792 125.743L46.0138 136.947L56.5471 125.743C51.2218 121.751 49.5685 115.655 51.8418 112.702C55.3498 108.145 58.7405 112.235 58.7405 112.235C56.6365 110.833 52.5418 113.054 54.8805 116.678C56.0885 118.549 58.6205 119.366 64.1205 117.687L76.8205 104.174L49.9378 87.3859Z" fill="#E11D25"/>
<path d="M181.297 177.988L195.802 170.293L169.789 150.707L143.773 170.293L158.275 177.988L79.418 227.228L116.671 266.865C132.797 271.796 140.237 269.392 143.773 263.905C150.63 253.28 138.63 246.759 132.458 250.873C132.458 250.873 142.398 238.876 152.69 252.249C159.354 260.911 154.502 278.788 138.89 290.496L169.789 323.361L200.682 290.496C185.07 278.788 180.218 260.911 186.879 252.249C197.169 238.876 207.114 250.873 207.114 250.873C200.942 246.759 188.934 253.28 195.802 263.905C199.338 269.392 206.77 271.796 222.895 266.865L260.155 227.228L181.297 177.988Z" fill="#E11D25"/>
</svg>
