<svg width="339" height="474" viewBox="0 0 339 474" fill="none" xmlns="http://www.w3.org/2000/svg">
<path d="M22.8932 473.381C10.3866 473.381 0.226562 463.212 0.226562 450.714V23.1822C0.226562 10.6835 10.3866 0.515523 22.8932 0.515523H315.706C328.2 0.515523 338.373 10.6835 338.373 23.1822V450.714C338.373 463.212 328.2 473.381 315.706 473.381H22.8932Z" fill="#849393"/>
<path d="M315.704 3.18186H271.531L267.504 14.2712L263.131 3.18186H22.8906C11.8373 3.18186 2.89062 12.1365 2.89062 23.1819V450.714C2.89062 461.758 11.8373 470.714 22.8906 470.714H67.1173L71.0906 459.803L75.384 470.714H315.704C326.744 470.714 335.704 461.758 335.704 450.714V23.1819C335.704 12.1365 326.744 3.18186 315.704 3.18186Z" fill="white"/>
<path d="M39.5049 44.1563V55.2509C39.5049 59.0162 40.1983 60.899 41.5716 60.899H41.9049C44.3183 60.763 46.3183 60.6949 47.9316 60.6949H49.5316C50.3316 60.2936 50.7316 59.6883 50.7316 58.8803V45.7709C50.7316 44.1562 49.5317 43.3496 47.1184 43.3496H40.9049C40.1983 43.3496 39.7316 43.6189 39.5049 44.1563ZM54.7716 19.4149C57.2249 19.4149 58.7716 20.4016 59.4116 22.3723C59.5449 22.5963 59.6116 22.9562 59.6116 23.4482V32.1216L59.8116 34.0709C59.5449 34.2056 59.3316 34.2736 59.1983 34.2736C54.0516 32.2549 51.225 31.0683 50.7316 30.7083V28.2216C50.7316 25.667 50.1983 24.3896 49.1316 24.3896C46.905 24.2549 45.1584 24.1883 43.9184 24.1883H42.9184C40.6384 24.1883 39.5049 24.9509 39.5049 26.4736V26.6083C39.5049 26.7429 39.5716 26.8096 39.7049 26.8096C39.5716 28.1536 39.5049 29.1629 39.5049 29.8363V35.2816C39.5049 37.4322 39.7316 38.5083 40.1716 38.5083H49.7583C54.5317 38.5083 57.3583 38.9123 58.1983 39.7189C59.2783 40.2563 59.8116 43.0816 59.8116 48.191V49.6016C59.8116 50.8589 59.7449 53.8162 59.6116 58.4762C59.7449 59.9562 59.8116 61.2349 59.8116 62.3096C59.0916 64.5962 57.4783 65.7402 54.9716 65.7402H35.8783C33.0516 65.7402 31.345 64.7309 30.7583 62.7136V27.6842C30.7583 26.5642 30.7183 25.2629 30.625 23.7842C30.625 21.5882 31.905 20.1322 34.465 19.4149H54.7716Z" fill="#E11D25"/>
<path d="M299.08 429.918V418.823C299.08 415.058 298.4 413.175 297.013 413.175H296.68C294.28 413.307 292.267 413.375 290.667 413.375H289.054C288.254 413.779 287.854 414.386 287.854 415.191V428.303C287.854 429.918 289.053 430.722 291.467 430.722H297.68C298.4 430.722 298.867 430.454 299.08 429.918ZM283.827 454.659C281.36 454.659 279.814 453.673 279.187 451.701C279.054 451.474 278.987 451.118 278.987 450.626V441.951L278.773 440.001C279.053 439.867 279.254 439.801 279.387 439.801C284.547 441.815 287.36 443.003 287.854 443.362V445.853C287.854 448.407 288.387 449.683 289.467 449.683C291.693 449.818 293.427 449.886 294.667 449.886H295.68C297.947 449.886 299.08 449.123 299.08 447.599V447.465C299.08 447.331 299.013 447.263 298.88 447.263C299.013 445.918 299.08 444.91 299.08 444.238V438.793C299.08 436.639 298.867 435.563 298.413 435.563H288.827C284.053 435.563 281.24 435.159 280.387 434.355C279.32 433.815 278.773 430.993 278.773 425.881V424.47C278.773 423.214 278.854 420.255 278.987 415.594C278.854 414.115 278.773 412.839 278.773 411.763C279.493 409.477 281.107 408.334 283.627 408.334H302.72C305.547 408.334 307.24 409.342 307.827 411.361V446.389C307.827 447.509 307.867 448.81 307.96 450.29C307.96 452.485 306.68 453.941 304.133 454.659H283.827Z" fill="#E11D25"/>
<path d="M289.147 386.686L284.201 389.31L293.067 395.987L301.934 389.31L296.987 386.686L323.88 369.899L311.174 356.386C305.68 354.706 303.147 355.525 301.934 357.397C299.601 361.019 303.694 363.241 305.801 361.839C305.801 361.839 302.401 365.927 298.894 361.37C296.627 358.418 298.281 352.321 303.601 348.331L293.067 337.126L282.534 348.331C287.854 352.321 289.507 358.418 287.24 361.37C283.734 365.927 280.334 361.839 280.334 361.839C282.441 363.241 286.534 361.019 284.201 357.397C282.987 355.525 280.454 354.706 274.961 356.386L262.254 369.899L289.147 386.686Z" fill="#E11D25"/>
<path d="M49.4521 87.3856L54.3854 84.763L45.5188 78.0856L36.6521 84.763L41.5987 87.3856L14.7188 104.175L27.412 117.686C32.9053 119.367 35.4521 118.547 36.6521 116.678C38.9854 113.055 34.9054 110.834 32.7987 112.235C32.7987 112.235 36.1854 108.143 39.6921 112.703C41.9587 115.656 40.3054 121.752 34.9854 125.743L45.5188 136.948L56.0521 125.743C50.7321 121.752 49.0786 115.656 51.3453 112.703C54.852 108.143 58.2521 112.235 58.2521 112.235C56.1454 110.834 52.0521 113.055 54.3854 116.678C55.5988 118.547 58.1321 119.367 63.6254 117.686L76.332 104.175L49.4521 87.3856Z" fill="#E11D25"/>
<path d="M180.814 177.99L195.307 170.295L169.294 150.708L143.28 170.295L157.787 177.99L78.9336 227.23L116.187 266.864C132.307 271.795 139.747 269.394 143.28 263.904C150.147 253.279 138.147 246.76 131.974 250.872C131.974 250.872 141.907 238.878 152.2 252.248C158.867 260.912 154.014 278.79 138.4 290.495L169.294 323.36L200.2 290.495C184.587 278.79 179.734 260.912 186.387 252.248C196.68 238.878 206.627 250.872 206.627 250.872C200.454 246.76 188.44 253.279 195.307 263.904C198.854 269.394 206.28 271.795 222.414 266.864L259.667 227.23L180.814 177.99Z" fill="#E11D25"/>
</svg>
