<svg width="340" height="474" viewBox="0 0 340 474" fill="none" xmlns="http://www.w3.org/2000/svg">
<path d="M23.6198 473.641C11.1198 473.641 0.953125 463.467 0.953125 450.974V23.4365C0.953125 10.9365 11.1198 0.769852 23.6198 0.769852H316.44C328.937 0.769852 339.106 10.9365 339.106 23.4365V450.974C339.106 463.467 328.937 473.641 316.44 473.641H23.6198Z" fill="#849393"/>
<path d="M316.441 3.43712H272.268L268.236 14.5264L263.866 3.43712H23.6211C12.5744 3.43712 3.62109 12.3905 3.62109 23.4371V450.975C3.62109 462.014 12.5744 470.975 23.6211 470.975H67.8571L71.8238 460.054L76.1225 470.975H316.441C327.485 470.975 336.441 462.014 336.441 450.975V23.4371C336.441 12.3905 327.485 3.43712 316.441 3.43712Z" fill="white"/>
<path d="M40.8104 47.5728V58.8008C40.8104 60.1901 41.393 60.8848 42.5597 60.8848H49.3504C50.5157 60.8848 51.0984 60.1901 51.0984 58.8008V47.5728C51.0984 46.8088 50.5157 46.2941 49.3504 46.0261C49.1264 46.0261 47.9824 46.0928 45.921 46.2275C45.7424 46.2275 44.621 46.1595 42.5597 46.0261C41.393 46.2941 40.8104 46.8088 40.8104 47.5728ZM40.8104 26.4608V39.9728C41.2584 40.7368 41.8424 41.1168 42.5597 41.1168H49.3504C50.0677 41.1168 50.649 40.7368 51.0984 39.9728V26.4608C51.0984 25.2048 50.089 24.5782 48.073 24.5782H44.4424C42.1557 24.5782 41.013 25.0261 41.013 25.9208C40.8784 25.9208 40.8104 26.1008 40.8104 26.4608ZM36.037 19.6688H55.8037C57.0597 19.6688 58.269 20.3635 59.4357 21.7528C59.7943 22.2475 60.041 23.5021 60.1757 25.5181L59.973 25.9208C59.973 26.2368 60.041 27.1768 60.1757 28.7462C60.041 30.9422 59.973 32.2208 59.973 32.5782L60.1757 33.8568C60.1757 33.9901 60.1077 34.1928 59.973 34.4608C60.1077 35.3595 60.1757 36.1195 60.1757 36.7475C60.1757 39.4368 59.6144 41.2755 58.4944 42.2595V42.3955C59.6144 43.4715 60.1757 45.0621 60.1757 47.1688C60.1757 48.2888 60.1077 49.5675 59.973 51.0008C60.1077 53.3328 60.1757 55.4168 60.1757 57.2528C60.1757 61.9608 59.749 64.3128 58.8984 64.3128C58.181 65.4342 56.7011 65.9941 54.4611 65.9941H37.3824C34.5584 65.9941 32.7197 64.8515 31.869 62.5648C31.7784 59.3381 31.7344 57.4328 31.7344 56.8515C31.7344 55.2821 31.7784 53.3328 31.869 51.0008C31.7784 49.5221 31.7344 48.1328 31.7344 46.8328C31.7344 45.0395 32.2957 43.5608 33.4157 42.3955V42.2595C32.2957 41.3635 31.7344 39.3248 31.7344 36.1408C31.7344 35.8288 31.7784 35.3355 31.869 34.6621L31.7344 33.8568C31.7344 33.7661 31.7784 33.2728 31.869 32.3768C31.7784 30.4942 31.7344 29.2155 31.7344 28.5435L31.869 25.9208C31.869 25.7875 31.8237 25.7208 31.7344 25.7208C31.7344 22.5835 32.6757 20.6782 34.5584 20.0048C35.4544 19.7808 35.9477 19.6688 36.037 19.6688Z" fill="#E11D25"/>
<path d="M299.248 427.014V415.788C299.248 414.388 298.664 413.695 297.497 413.695H290.708C289.541 413.695 288.96 414.388 288.96 415.788V427.014C288.96 427.775 289.541 428.295 290.708 428.561C290.932 428.561 292.076 428.495 294.136 428.361C294.316 428.361 295.437 428.428 297.497 428.561C298.664 428.295 299.248 427.775 299.248 427.014ZM299.248 448.121V434.614C298.8 433.842 298.216 433.468 297.497 433.468H290.708C289.991 433.468 289.409 433.842 288.96 434.614V448.121C288.96 449.375 289.969 450.001 291.984 450.001H295.616C297.901 450.001 299.044 449.561 299.044 448.668C299.18 448.668 299.248 448.481 299.248 448.121ZM304.021 454.908H284.252C282.999 454.908 281.789 454.215 280.623 452.828C280.264 452.335 280.017 451.082 279.883 449.068L280.084 448.668C280.084 448.348 280.017 447.401 279.883 445.842C280.017 443.642 280.084 442.361 280.084 442.001L279.883 440.721C279.883 440.588 279.951 440.388 280.084 440.121C279.951 439.228 279.883 438.468 279.883 437.842C279.883 435.148 280.443 433.308 281.564 432.321V432.188C280.443 431.108 279.883 429.521 279.883 427.415C279.883 426.295 279.951 425.014 280.084 423.588C279.951 421.254 279.883 419.161 279.883 417.335C279.883 412.628 280.309 410.268 281.16 410.268C281.877 409.148 283.357 408.588 285.597 408.588H302.676C305.5 408.588 307.339 409.735 308.189 412.014C308.279 415.242 308.323 417.148 308.323 417.735C308.323 419.295 308.279 421.254 308.189 423.588C308.279 425.054 308.323 426.454 308.323 427.748C308.323 429.548 307.763 431.028 306.643 432.188V432.321C307.763 433.215 308.323 435.254 308.323 438.442C308.323 438.748 308.279 439.242 308.189 439.921L308.323 440.721C308.323 440.814 308.279 441.308 308.189 442.201C308.279 444.095 308.323 445.361 308.323 446.042L308.189 448.668C308.189 448.801 308.235 448.868 308.323 448.868C308.323 452.001 307.383 453.908 305.5 454.575C304.604 454.801 304.111 454.908 304.021 454.908Z" fill="#E11D25"/>
<path d="M289.875 386.947L284.932 389.56L293.801 396.24L302.67 389.56L297.726 386.947L324.61 370.147L311.91 356.64C306.412 354.96 303.875 355.773 302.67 357.653C300.331 361.267 304.422 363.493 306.527 362.093C306.527 362.093 303.138 366.187 299.631 361.627C297.359 358.667 299.012 352.573 304.334 348.587L293.801 337.373L283.267 348.587C288.591 352.573 290.246 358.667 287.972 361.627C284.466 366.187 281.074 362.093 281.074 362.093C283.179 363.493 287.271 361.267 284.932 357.653C283.725 355.773 281.192 354.96 275.694 356.64L262.992 370.147L289.875 386.947Z" fill="#E11D25"/>
<path d="M50.1826 87.6408L55.1266 85.0181L46.2572 78.3408L37.3893 85.0181L42.3332 87.6408L15.4492 104.429L28.1492 117.941C33.6466 119.622 36.1839 118.803 37.3893 116.931C39.7266 113.309 35.6359 111.087 33.5306 112.489C33.5306 112.489 36.9199 108.399 40.4279 112.958C42.6999 115.911 41.0466 122.007 35.7239 125.997L46.2572 137.202L56.7919 125.997C51.4679 122.007 49.8132 115.911 52.0852 112.958C55.5932 108.399 58.9839 112.489 58.9839 112.489C56.8799 111.087 52.7866 113.309 55.1266 116.931C56.3332 118.803 58.8653 119.622 64.3639 117.941L77.0665 104.429L50.1826 87.6408Z" fill="#E11D25"/>
<path d="M181.54 178.244L196.045 170.548L170.032 150.963L144.019 170.548L158.521 178.244L79.6641 227.483L116.916 267.12C133.041 272.053 140.481 269.653 144.019 264.16C150.875 253.533 138.875 247.015 132.703 251.128C132.703 251.128 142.643 239.132 152.933 252.507C159.599 261.16 154.748 279.04 139.135 290.747L170.032 323.613L200.927 290.747C185.313 279.04 180.464 261.16 187.124 252.507C197.413 239.132 207.359 251.128 207.359 251.128C201.187 247.015 189.179 253.533 196.045 264.16C199.581 269.653 207.016 272.053 223.14 267.12L260.401 227.483L181.54 178.244Z" fill="#E11D25"/>
</svg>
