<svg width="339" height="473" viewBox="0 0 339 473" fill="none" xmlns="http://www.w3.org/2000/svg">
<path d="M23.3737 472.914C10.8737 472.914 0.707031 462.745 0.707031 450.247V22.7208C0.707031 10.2141 10.8737 0.0541297 23.3737 0.0541297H316.194C328.692 0.0541297 338.86 10.2141 338.86 22.7208V450.247C338.86 462.745 328.692 472.914 316.194 472.914H23.3737Z" fill="#849393"/>
<path d="M316.195 2.72047H272.024L267.99 13.8004L263.623 2.72047H23.375C12.3283 2.72047 3.375 11.6671 3.375 22.7205V450.247C3.375 461.291 12.3283 470.247 23.375 470.247H67.6124L71.579 459.335L75.8777 470.247H316.195C327.24 470.247 336.195 461.291 336.195 450.247V22.7205C336.195 11.6671 327.24 2.72047 316.195 2.72047Z" fill="white"/>
<path d="M225.434 418.675C225.434 375.933 252.744 339.585 290.86 326.083V48.0542H113.903C114.04 50.1742 114.135 52.3075 114.135 54.4675C114.135 97.2008 86.8244 133.548 48.707 147.054V424.914H225.65C225.523 422.849 225.434 420.773 225.434 418.675Z" fill="#F1EAD7"/>
<path d="M39.7257 18.9475H51.559V19.2142C50.527 20.4275 50.0123 21.4542 50.0123 22.3075V45.7742C50.0123 47.7076 50.1243 50.3876 50.3483 53.8409C50.3483 56.8409 48.2697 60.0543 44.1163 63.4543C41.6363 64.6676 39.1416 65.2676 36.6323 65.2676L35.1523 65.0009V64.6676C39.231 62.0276 41.2697 58.6143 41.2697 54.4543V22.3075C41.2697 21.4542 40.7537 20.4275 39.7257 19.2142V18.9475Z" fill="#E11D25"/>
<path d="M299.845 454.192H288.012V453.922C289.042 452.712 289.556 451.682 289.556 450.83V427.363C289.556 425.436 289.446 422.747 289.22 419.296C289.22 416.294 291.298 413.087 295.452 409.682C297.93 408.471 300.425 407.866 302.936 407.866L304.416 408.135V408.471C300.337 411.116 298.298 414.523 298.298 418.692V450.83C298.298 451.682 298.813 452.712 299.845 453.922V454.192Z" fill="#E11D25"/>
<path d="M289.629 386.219L284.686 388.843L293.555 395.521L302.422 388.843L297.479 386.219L324.362 369.431L311.662 355.919C306.165 354.239 303.629 355.058 302.422 356.928C300.083 360.551 304.175 362.772 306.282 361.371C306.282 361.371 302.891 365.462 299.383 360.903C297.113 357.95 298.766 351.854 304.086 347.863L293.555 336.658L283.022 347.863C288.345 351.854 289.998 357.95 287.727 360.903C284.219 365.462 280.826 361.371 280.826 361.371C282.933 362.772 287.025 360.551 284.686 356.928C283.479 355.058 280.946 354.239 275.449 355.919L262.746 369.431L289.629 386.219Z" fill="#E11D25"/>
<path d="M49.9378 86.9206L54.8805 84.2939L46.0138 77.6138L37.1432 84.2939L42.0885 86.9206L15.2031 103.707L27.9045 117.214C33.4018 118.894 35.9378 118.08 37.1432 116.214C39.4818 112.587 35.3912 110.36 33.2872 111.774C33.2872 111.774 36.6751 107.68 40.1831 112.24C42.4565 115.187 40.8032 121.28 35.4792 125.28L46.0138 136.48L56.5471 125.28C51.2218 121.28 49.5685 115.187 51.8418 112.24C55.3498 107.68 58.7405 111.774 58.7405 111.774C56.6365 110.36 52.5418 112.587 54.8805 116.214C56.0885 118.08 58.6205 118.894 64.1205 117.214L76.8205 103.707L49.9378 86.9206Z" fill="#E11D25"/>
<path d="M150.86 102.454H150.812L150.771 102.48C149.375 103.2 148.128 104.6 146.919 105.947C145.344 107.707 143.855 109.374 142.232 109.374C142.232 109.374 142.123 109.374 142.071 109.374L141.703 109.347L141.896 109.654C143.339 112 145.967 113.187 148.508 114.32C149.26 114.667 150.039 115.014 150.771 115.387L151.083 115.547L151.044 115.2C150.86 113.507 150.698 111.867 150.768 110.387C150.883 107.854 151.703 105.947 153.511 104.027L153.636 103.894L153.506 103.774C152.755 103.014 152.211 102.467 150.86 102.454Z" fill="#E1F5F9"/>
<path d="M169.188 114.467C168.456 112.641 167.694 110.747 166.122 110.747C165.648 110.747 165.145 110.934 164.585 111.294L164.44 111.387L164.521 111.534C165.737 113.827 164.434 115.361 162.74 116.987L162.434 117.281C161.492 118.187 160.518 119.107 160.112 120.187L159.953 120.601L160.361 120.427C160.398 120.401 160.434 120.387 160.489 120.374C164.133 118.934 167.278 117.947 170.385 117.294L170.716 117.214L170.481 116.974C169.989 116.454 169.598 115.494 169.188 114.467Z" fill="#E1F5F9"/>
<path d="M198.813 110.774L198.774 110.614L198.607 110.628C196.375 110.881 195.85 112.801 195.345 114.668C195.045 115.761 194.741 116.881 194.086 117.614L193.746 117.988L194.25 117.921C194.75 117.854 195.238 117.828 195.701 117.828C197.881 117.828 199.339 118.494 200.881 119.214C201.91 119.681 202.969 120.174 204.247 120.428L204.914 120.574L204.413 120.108C201.787 117.708 199.397 113.348 198.813 110.774Z" fill="#97C6C6"/>
<path d="M222.076 109.534L222.055 109.36L221.875 109.374C221.847 109.374 221.82 109.374 221.795 109.374C220.867 109.374 219.669 108.04 218.401 106.627C216.797 104.84 215.136 102.987 213.412 102.987C212.552 102.987 211.758 103.467 211.052 104.414L210.938 104.574L211.091 104.68C214.154 106.907 213.937 109.68 213.667 113.187C213.615 113.84 213.565 114.507 213.528 115.214L213.514 115.547L213.807 115.387C214.473 115.014 215.328 114.64 216.232 114.24C219.096 112.96 222.342 111.507 222.076 109.534Z" fill="#97C6C6"/>
<path d="M216.209 81.4542C214.919 81.3075 214.136 80.6542 213.378 80.0275C212.87 79.6008 212.389 79.1875 211.758 78.9341L211.571 78.8542L211.662 78.6675C215.118 71.8008 223.623 66.8942 236.93 64.1209L237.081 64.4542C234.993 65.9609 232.686 67.2942 230.454 68.5875C224.881 71.8142 219.118 75.1474 216.405 81.3474L216.347 81.4807L216.209 81.4542ZM148.167 81.3474C145.454 75.1474 139.686 71.8142 134.11 68.5875C131.878 67.2942 129.572 65.9609 127.485 64.4542L127.634 64.1209C140.946 66.8942 149.451 71.8008 152.91 78.6675L153.001 78.8542L152.813 78.9341C152.183 79.1875 151.701 79.6008 151.189 80.0275C150.433 80.6542 149.649 81.3075 148.362 81.4542L148.225 81.4807L148.167 81.3474ZM192.452 120.094C195.136 121.281 197.971 121.894 200.875 121.894C208.279 121.894 216.301 118.054 225.386 110.174C224.519 109.227 223.279 108.241 221.971 107.201C218.954 104.801 215.84 102.307 216.561 99.7741C212.457 100.894 209.022 102.787 205.701 104.601C202.064 106.601 198.301 108.667 193.641 109.747L193.571 109.761L193.509 109.721C192.449 109.134 191.675 108.267 190.925 107.414C189.949 106.307 189.022 105.268 187.509 104.788C187.698 109.374 190.657 111.134 193.678 112.534L193.807 112.588L193.785 112.734C193.602 113.841 193.045 114.747 192.506 115.627C191.561 117.174 190.816 118.387 192.452 120.094ZM139.157 110.761C144.993 115.001 152.941 120.721 161.115 121.734C161.967 121.841 162.818 121.894 163.643 121.894C166.842 121.894 169.897 121.081 172.719 119.481C173.643 117.814 172.979 116.907 172.138 115.774C171.438 114.827 170.644 113.748 170.785 112.054L170.798 111.907L170.954 111.894C174.49 111.521 176.42 109.374 176.993 105.147C174.902 107.587 172.553 108.788 169.826 108.788C166.084 108.788 162.209 106.587 158.105 104.267C154.798 102.401 151.381 100.467 148.006 99.7474C148.738 102.147 146.201 104.214 143.522 106.388C142.514 107.201 141.472 108.054 140.618 108.921C139.968 109.574 139.488 110.174 139.157 110.761ZM162.31 143.041C167.495 145.547 175.077 147.027 182.801 147.027C190.711 147.027 197.665 145.441 202.094 142.641C201.829 142.707 201.553 142.774 201.277 142.827C197.785 143.627 193.438 144.614 188.522 144.614C186.61 144.614 184.711 144.467 182.881 144.161L182.746 144.134L182.725 144.001C182.681 143.694 182.66 143.401 182.66 143.081C182.66 139.787 185.282 138.028 187.816 136.321C189.78 135.014 191.81 133.654 192.761 131.561C192.646 131.347 192.522 131.147 192.378 130.974C190.818 129.001 186.659 127.681 182.025 127.681C178.178 127.681 173.553 128.654 172.102 131.414C171.974 131.654 171.875 131.894 171.805 132.147C172.951 133.707 174.706 134.801 176.407 135.854C179.146 137.561 181.977 139.321 181.93 143.054C181.925 143.441 181.894 143.801 181.839 144.161L181.818 144.307L181.67 144.321C180.498 144.428 179.269 144.481 178.025 144.481C174.345 144.481 170.995 144.027 168.042 143.627C165.837 143.321 163.925 143.054 162.31 143.041ZM183.022 169.641C180.225 169.641 177.029 169.094 174.678 168.201C162.574 163.601 141.353 153.361 131.949 144.974C128.971 145.867 127.039 147.907 125.173 149.867C123.858 151.254 122.498 152.681 120.785 153.721L120.469 153.921L120.498 153.547C121.001 147.201 123.089 138.254 126.629 132.374C124.324 132.427 122.922 133.348 121.443 134.321C120.321 135.054 119.159 135.814 117.581 136.147L117.263 136.214L117.362 135.894C120.334 126.841 125.201 119.787 130.353 112.334C132.501 109.214 134.722 106.001 136.865 102.547C148.241 84.2007 156.503 72.9474 181.93 72.9474C185.305 72.9474 189.026 73.1474 192.988 73.5474C210.84 75.3341 218.141 87.1208 227.386 102.041L227.698 102.547C229.899 106.094 232.115 109.294 234.258 112.388C239.25 119.588 243.968 126.387 247.206 135.894L247.315 136.214L246.987 136.147C245.427 135.801 244.258 135.041 243.126 134.321C241.755 133.441 240.46 132.614 238.501 132.401C238.758 133.147 239.069 134.014 239.405 134.947C241.277 140.134 244.105 147.987 244.074 153.561L244.071 153.907L243.782 153.721C242.094 152.601 240.683 151.174 239.315 149.801C237.529 148.001 235.684 146.134 233.212 144.974C232.056 145.707 230.743 146.561 229.305 147.481C217.982 154.801 199.032 167.041 185.46 169.467C184.788 169.587 183.943 169.641 183.022 169.641ZM270.914 228.547C267.123 228.467 264.54 228.087 262.261 227.755C260.85 227.549 259.634 227.37 258.331 227.29L258.146 227.279L258.154 227.093C258.651 217.228 255.613 215.387 251.41 212.827C250.047 212.001 248.634 211.148 247.17 209.921C243.597 206.934 242.131 204.681 242.419 202.627C242.701 200.641 244.684 198.854 248.48 197.174C249.965 196.521 251.526 196.188 253.131 196.188C257.375 196.188 261.79 198.574 265.238 202.721C270.689 209.281 272.881 218.881 271.102 228.394L271.074 228.551L270.914 228.547ZM233.017 269.273C232.641 267.91 232.198 266.85 231.774 265.825C231.574 265.342 231.381 264.879 231.209 264.417C230.837 263.418 230.46 262.163 230.496 260.418L230.498 260.25L230.665 260.233C239.995 259.345 246.602 255.127 252.086 246.558C252.238 246.326 252.381 246.095 252.525 245.863L252.597 245.75L252.73 245.778C257.943 247.049 262.274 248.491 265.968 250.191L266.165 250.282L266.047 250.466C261.531 257.438 255.894 262.371 248.807 265.546C244.233 267.597 238.985 268.897 233.214 269.41L233.058 269.423L233.017 269.273ZM85.4568 306.494C83.1648 306.194 81.2528 305.484 79.4048 304.798C77.9462 304.256 76.4381 303.696 74.7608 303.349L74.5555 303.306L74.6208 303.107C81.7555 280.962 105.011 274.561 130.261 269.471L130.417 269.439L130.474 269.589C131.014 271.009 130.539 272.622 130.081 274.185C129.553 275.99 129.094 277.55 130.23 278.501L130.498 278.725L130.165 278.827C128.25 279.417 126.302 279.981 124.243 280.583C108.525 285.158 90.7088 290.343 85.6622 306.363L85.6128 306.516L85.4568 306.494ZM166.605 291.83C178.086 323.097 181.802 349.235 177.935 371.589C181.477 360.533 182.878 348.761 184.233 337.35C186.083 321.789 187.834 307.058 194.514 293.918C187.519 302.623 185.417 313.677 183.383 324.381C182.529 328.869 181.725 333.107 180.579 337.158L180.211 337.138C179.738 334.346 179.318 331.703 178.917 329.19C176.471 313.83 174.831 303.522 166.605 291.83ZM149.471 410.826C121.457 410.826 94.5635 392.031 79.2902 361.777C73.2715 349.857 69.4795 336.768 68.3262 323.926L68.3008 323.657L68.5635 323.727C71.4435 324.506 74.3288 324.623 77.1182 324.737C78.5168 324.793 79.8341 324.845 81.0995 324.979L81.2328 324.994L81.2635 325.122C86.9075 348.063 97.2875 379.829 122.157 390.771C128.36 393.501 133.971 394.885 138.839 394.885C145.621 394.885 151.034 392.228 154.933 386.988C163.894 374.94 164.321 349.063 156.077 320.819C156.138 326.413 156.873 332.485 157.646 338.885C159.118 351.085 160.641 363.697 157.954 375.489L157.589 375.497C151.435 352.994 145.131 327.562 139.355 301.947C138.659 298.854 137.339 295.291 135.941 291.519C133.881 285.969 131.753 280.229 131.807 276.137C131.867 272.055 132.829 267.906 134.925 262.678C135.747 260.629 136.675 258.573 137.574 256.586C140.017 251.174 142.542 245.577 143.124 239.655L143.498 239.643C145.933 253.777 149.649 264.018 154.55 270.088C155.845 265.825 156.714 261.05 157.558 256.432C157.962 254.209 158.381 251.911 158.845 249.695L158.965 249.118L159.201 249.658C166.097 265.354 173.241 276.489 181.67 284.686C193.717 275.685 200.323 261.25 204.738 249.667L204.917 249.195L205.091 249.67C207.175 255.383 208.274 262.207 209.337 268.806L209.452 269.509C215.569 264.614 219.91 250.306 220.443 239.666L220.815 239.639C221.831 244.993 224.186 250.142 226.462 255.123C227.042 256.394 227.623 257.666 228.186 258.945L228.241 259.057C229.173 261.183 229.889 262.969 230.49 264.678C231.873 268.589 232.615 272.131 232.758 275.501C232.914 279.277 230.883 284.269 228.914 289.098C227.746 291.972 226.534 294.94 225.837 297.554C223.605 305.924 221.698 314.797 219.856 323.377C215.597 343.206 211.193 363.709 202.438 379.614C192.599 397.485 178.203 407.491 158.425 410.21C155.451 410.619 152.438 410.826 149.471 410.826Z" fill="#ED1D24"/>
<path d="M144.837 76.3074C146.178 77.7607 147.321 79.414 148.167 81.3474L148.225 81.4807L148.362 81.4541C149.649 81.3075 150.433 80.6541 151.189 80.0275C151.701 79.6008 152.183 79.1874 152.813 78.9341L153.001 78.8541L152.91 78.6674C151.389 75.6541 148.891 73.0141 145.441 70.7608C145.913 72.8675 145.807 74.9074 144.837 76.3074ZM85.4568 306.494L85.6128 306.515L85.6622 306.363C90.7088 290.343 108.525 285.158 124.243 280.583C126.302 279.981 128.25 279.417 130.165 278.827L130.498 278.725L130.23 278.501C129.094 277.55 129.553 275.99 130.081 274.185C130.081 274.185 128.577 274.327 106.414 281.243C90.0088 286.362 82.7408 298.883 80.0688 305.043C81.7141 305.647 83.4382 306.23 85.4568 306.494ZM149.058 342.806C151.889 354.143 154.753 365.134 157.589 375.497L157.954 375.489C159.798 367.399 159.659 358.919 158.914 350.455C156.613 354.33 152.214 348.33 149.058 342.806ZM167.867 105.614C164.074 105.587 160.419 104.801 157.302 103.814C157.571 103.974 157.839 104.121 158.105 104.267C162.209 106.587 166.083 108.787 169.826 108.787C172.553 108.787 174.902 107.587 176.993 105.147C176.419 109.374 174.49 111.521 170.954 111.894L170.798 111.907L170.785 112.054C170.643 113.747 171.438 114.827 172.138 115.774C172.979 116.907 173.643 117.814 172.719 119.481C177.574 112.534 178.477 104.041 178.477 103.561C178.477 103.094 178.083 105.694 167.867 105.614ZM268.193 228.43C269.029 228.485 269.93 228.527 270.914 228.547L271.074 228.551L271.102 228.394C272.641 220.174 271.203 211.894 267.263 205.547C270.151 213.374 269.35 221.798 268.193 228.43ZM266.047 250.466L266.165 250.282L265.968 250.191C263.064 248.857 259.758 247.679 255.946 246.619L261.222 249.897C257.856 254.474 252.813 258.645 245.665 261.439C238.85 264.103 234.149 264.499 231.141 264.229C231.165 264.291 231.189 264.357 231.209 264.417C231.381 264.879 231.574 265.342 231.774 265.825C232.198 266.85 232.641 267.91 233.017 269.273L233.058 269.423L233.214 269.41C238.985 268.897 244.233 267.597 248.807 265.546C255.894 262.371 261.531 257.438 266.047 250.466ZM179.342 315.191C177.858 314.139 176.35 311.919 175.066 309.617C176.727 315.439 177.727 321.717 178.917 329.19C179.318 331.703 179.738 334.346 180.211 337.138L180.579 337.158C181.725 333.107 182.529 328.869 183.383 324.381C184.146 320.362 184.919 316.294 185.959 312.318C184.241 314.747 181.793 316.926 179.342 315.191ZM176.407 135.854C175.793 135.481 175.173 135.094 174.579 134.681C175.607 136.134 177.05 137.867 178.867 139.321C179.793 140.054 180.659 140.494 181.509 140.694C180.626 138.494 178.49 137.161 176.407 135.854ZM161.115 121.734C152.941 120.721 144.993 115.001 139.157 110.761C139.157 110.761 143.034 117.787 153.25 122.347C163.467 126.907 167.867 126.441 172.719 119.481C169.897 121.081 166.842 121.894 163.643 121.894C162.818 121.894 161.967 121.841 161.115 121.734ZM232.758 275.501C232.615 272.131 231.873 268.589 230.49 264.678C229.889 262.969 229.173 261.183 228.241 259.057L228.186 258.945C227.623 257.666 227.042 256.394 226.462 255.123C224.186 250.142 221.831 244.993 220.815 239.639L220.443 239.666C219.91 250.306 215.569 264.614 209.451 269.509L209.337 268.806C208.274 262.207 207.175 255.383 205.091 249.67L204.917 249.195L204.738 249.667C200.323 261.25 193.717 275.685 181.67 284.686C173.241 276.489 166.097 265.354 159.201 249.658L158.965 249.118L158.845 249.695C158.381 251.911 157.962 254.209 157.558 256.432C156.758 260.806 155.93 265.311 154.747 269.401C155.779 271.258 156.813 272.862 157.807 274.013C163.782 280.927 162.996 264.583 162.996 264.583C162.996 264.583 173.367 277.155 179.498 285.801C185.629 294.445 183.427 289.415 183.427 289.415C183.427 289.415 197.258 275.428 200.086 269.298C201.798 265.588 202.818 263.67 203.358 262.727C205.714 277.526 208.094 303.183 202.129 327.763C193.014 365.326 179.969 394.559 160.323 400.846C162.365 398.645 165.196 394.087 165.196 394.087C165.196 394.087 151.522 404.303 134.235 401.789C116.946 399.274 98.5582 382.929 88.8128 367.369C79.0688 351.809 74.3555 329.649 74.3555 329.649C74.3555 329.649 78.3048 327.901 81.6128 326.521C81.4955 326.051 81.3781 325.583 81.2635 325.122L81.2328 324.994L81.0995 324.979C79.8341 324.845 78.5168 324.793 77.1182 324.737C74.3288 324.623 71.4435 324.506 68.5635 323.727L68.3008 323.657L68.3262 323.926C69.4795 336.768 73.2715 349.857 79.2902 361.777C94.5635 392.031 121.457 410.826 149.471 410.826C152.438 410.826 155.451 410.619 158.425 410.21C178.203 407.491 192.599 397.485 202.438 379.614C211.193 363.709 215.597 343.206 219.856 323.377C221.698 314.797 223.605 305.923 225.837 297.554C226.534 294.939 227.746 291.972 228.914 289.098C230.883 284.269 232.914 279.277 232.758 275.501ZM190.925 107.414C189.949 106.307 189.022 105.267 187.509 104.787C187.698 109.374 190.657 111.134 193.678 112.534L193.807 112.587L193.785 112.734C193.602 113.841 193.045 114.747 192.506 115.627C191.561 117.174 190.815 118.387 192.451 120.094C195.135 121.281 197.971 121.894 200.875 121.894C208.279 121.894 216.301 118.054 225.386 110.174C224.519 109.227 223.279 108.241 221.971 107.201C218.954 104.801 215.84 102.307 216.561 99.7741C212.457 100.894 209.022 102.787 205.701 104.601C202.064 106.601 198.301 108.667 193.641 109.747L193.571 109.761L193.509 109.721C192.449 109.134 191.675 108.267 190.925 107.414ZM187.985 84.4674C185.141 77.6674 182.823 74.414 181.413 72.9474C181.586 72.9474 181.753 72.9474 181.93 72.9474C185.305 72.9474 189.026 73.1474 192.987 73.5474C210.839 75.334 218.141 87.1207 227.386 102.041L227.698 102.547C229.899 106.094 232.115 109.294 234.258 112.387C239.25 119.587 243.968 126.387 247.206 135.894L247.315 136.214L246.987 136.147C245.427 135.801 244.258 135.041 243.126 134.321C241.755 133.441 240.46 132.614 238.501 132.401C238.758 133.147 239.069 134.014 239.405 134.947C241.277 140.134 244.105 147.987 244.074 153.561L244.071 153.907L243.782 153.721C242.094 152.601 240.683 151.174 239.315 149.801C237.529 148.001 235.684 146.134 233.212 144.974C232.056 145.707 230.743 146.561 229.305 147.481C217.982 154.801 199.031 167.041 185.459 169.467C184.787 169.587 183.943 169.641 183.022 169.641C181.446 169.641 179.747 169.467 178.141 169.147C188.11 167.921 194.977 161.641 191.755 157.401C188.99 153.747 186.326 148.801 185.37 146.961C192.206 146.654 198.149 145.134 202.094 142.641C201.829 142.707 201.553 142.774 201.277 142.827C199.829 143.161 198.228 143.521 196.506 143.827C199.102 142.214 200.987 139.654 198.985 136.814C197.913 135.281 196.165 134.307 194.342 133.681C193.318 134.547 191.925 135.654 190.186 136.961C187.485 138.987 185.318 140.587 183.141 140.814C184.011 138.881 185.935 137.587 187.815 136.321C189.779 135.014 191.81 133.654 192.761 131.561C192.646 131.347 192.522 131.147 192.378 130.974C192.279 130.854 192.167 130.721 192.047 130.601C192.894 129.921 190.883 126.854 188.301 121.401C185.469 115.427 182.17 104.747 182.17 104.747C182.17 104.747 183.583 100.974 187.67 100.814C191.755 100.654 192.386 95.0008 187.985 84.4674ZM213.378 80.0275C214.136 80.6541 214.919 81.3075 216.209 81.4541L216.347 81.4807L216.405 81.3474C217.35 79.1874 218.673 77.3874 220.222 75.8008C219.077 74.7208 218.045 73.3475 217.331 72.0541C214.802 74.0008 212.902 76.2008 211.662 78.6674L211.571 78.8541L211.758 78.9341C212.389 79.1874 212.87 79.6008 213.378 80.0275ZM260.282 222.621C260.522 224.539 260.509 226.183 260.375 227.493C259.691 227.405 259.022 227.334 258.331 227.29L258.146 227.279L258.154 227.093C258.651 217.227 255.613 215.387 251.41 212.827C250.047 212.001 248.634 211.147 247.17 209.921C243.597 206.934 242.131 204.681 242.419 202.627C242.553 201.694 243.066 200.801 243.959 199.947C244.599 202.094 246.105 204.534 249.435 206.427C257.138 210.827 259.651 217.587 260.282 222.621Z" fill="#601814"/>
<path d="M180.77 203.68C181.744 210.48 178.942 213.667 175.983 217.027C174.1 219.16 172.155 221.373 171.155 224.641C169.418 230.307 169.418 240.032 174.856 243.921C176.999 245.456 179.179 246.235 181.338 246.235C188.067 246.235 193.398 238.492 193.671 231.569C193.871 226.495 191.254 223.251 186.668 222.888C186.348 222.863 186.038 222.852 185.736 222.852C182.682 222.852 180.262 224.128 178.926 226.445C177.748 228.484 177.606 231.084 178.58 232.771C178.97 233.446 179.71 234.251 181.02 234.251C182.08 234.251 183.275 233.727 184.578 232.695C184.296 231.904 183.775 231.738 183.08 231.738C182.898 231.738 182.707 231.748 182.523 231.759C182.332 231.771 182.144 231.782 181.963 231.782C181.1 231.782 180.218 231.525 180.21 229.617C181.04 226.545 184.228 225.904 187.311 225.284C187.72 225.2 188.13 225.119 188.53 225.031L188.63 225.011L188.702 225.082C191.734 228.044 192.575 231.941 191.015 235.772C189.267 240.057 184.871 243.288 180.788 243.288C178.84 243.288 176.072 242.571 173.958 239.145C169.518 231.967 173.338 225.472 177.035 219.187C180.184 213.84 183.168 208.76 180.77 203.68ZM182.78 281.295C172.234 271.033 164.846 259.584 160.204 246.301C159.306 247.195 158.551 248.332 157.9 249.767C156.882 251.989 156.244 254.655 155.624 257.233C155.046 259.639 154.45 262.125 153.546 264.267L153.39 264.631L153.204 264.282C151.415 260.918 142.744 243.705 146.838 233.491C146.294 233.276 145.756 233.172 145.196 233.172C143.414 233.172 141.767 234.281 140.174 235.356C138.97 236.165 137.728 237.003 136.444 237.343L136.152 237.42L136.212 237.123C138.59 225.577 145.674 217.867 152.523 210.4C162.58 199.44 172.08 189.093 167.018 167.747L166.918 167.333L167.294 167.547C171.619 169.947 177.072 171.28 182.647 171.28C187.915 171.28 193.002 170.067 196.966 167.854L197.27 167.68L197.244 168.027C197.147 169.36 197.04 170.667 196.936 171.92C196.832 173.16 196.734 174.36 196.647 175.533C196.067 183.373 195.92 190.347 200.04 196.2C203.22 200.707 206.966 204.787 210.59 208.72C217.458 216.174 224.556 223.894 227.884 234.843C228.048 235.378 228.207 235.927 228.351 236.484L228.4 236.672L228.212 236.715C228.01 236.763 227.802 236.787 227.592 236.787C226.382 236.787 225.207 235.991 223.963 235.149C222.4 234.092 220.627 232.895 218.348 232.895C218.152 232.895 217.958 232.904 217.759 232.92C220.95 240.742 216.95 251.201 213.728 259.624C213.095 261.277 212.499 262.838 212.01 264.254L211.887 264.611L211.674 264.299C210.027 261.855 209.187 258.563 208.374 255.38C207.543 252.124 206.684 248.76 204.966 246.345C204.496 247.508 204.002 248.668 203.491 249.799C198.244 261.411 191.135 270.924 183.062 281.276L182.931 281.441L182.78 281.295Z" fill="#FACB0C"/>
<path d="M228.351 236.484L228.4 236.672L228.212 236.715C228.01 236.763 227.802 236.787 227.592 236.787C226.382 236.787 225.207 235.991 223.963 235.149C222.4 234.092 220.627 232.895 218.348 232.895C218.152 232.895 217.958 232.904 217.759 232.92C220.95 240.742 216.95 251.201 213.728 259.624C213.095 261.277 212.499 262.838 212.01 264.254L211.887 264.611L211.674 264.299C210.027 261.855 209.187 258.563 208.374 255.38C207.543 252.124 206.684 248.76 204.966 246.345C204.496 247.508 204.002 248.668 203.491 249.799C198.244 261.411 191.135 270.924 183.062 281.276L182.931 281.441L182.78 281.295C172.234 271.033 164.846 259.584 160.204 246.301C159.306 247.195 158.551 248.332 157.9 249.767C156.882 251.989 156.244 254.655 155.624 257.233C155.046 259.639 154.45 262.125 153.546 264.267L153.39 264.631L153.204 264.282C151.415 260.918 142.744 243.705 146.838 233.491C146.294 233.276 145.756 233.172 145.196 233.172C143.414 233.172 141.767 234.281 140.174 235.356C138.97 236.165 137.728 237.003 136.444 237.343L136.152 237.42L136.212 237.123C136.324 236.573 136.458 236.041 136.592 235.511C140.16 232.444 144.136 230.636 144.136 230.636C144.136 230.636 149.794 226.861 148.851 232.205C147.908 237.549 153.567 250.438 153.567 250.438C153.567 250.438 155.452 237.549 155.767 236.293C156.08 235.035 158.595 239.751 163.624 247.923C168.655 256.095 183.742 267.412 183.742 267.412C187.83 261.753 191.915 256.724 197.259 242.893C202.603 229.063 195.687 213.347 195.687 213.347C195.687 213.347 203.546 217.427 204.802 219C201.346 207.373 192.228 193.854 192.228 193.854C192.228 193.854 185.63 186 176.512 178.454C173.423 175.907 170.135 172.32 167.212 168.627C167.147 168.333 167.087 168.04 167.018 167.747L166.918 167.333L167.294 167.547C171.619 169.947 177.072 171.28 182.647 171.28C187.915 171.28 193.002 170.067 196.966 167.854L197.27 167.68L197.244 168.027C197.147 169.36 197.04 170.667 196.936 171.92C196.832 173.16 196.734 174.36 196.647 175.533C196.067 183.373 195.92 190.347 200.04 196.2C203.22 200.707 206.966 204.787 210.59 208.72C217.458 216.174 224.556 223.894 227.884 234.843C228.048 235.378 228.207 235.927 228.351 236.484Z" fill="#F25C19"/>
<path d="M157.744 115.014C155.525 114.468 156.108 111.428 156.537 109.214C156.587 108.961 156.635 108.708 156.676 108.481C156.747 108.468 156.813 108.468 156.879 108.468C158.119 108.468 158.589 109.628 158.761 110.321C159.204 112.108 158.692 114.441 157.744 115.014ZM156.805 105.654C156.061 105.654 155.299 105.854 154.54 106.254C153.095 107.014 152.247 108.508 152.152 110.468C152.012 113.548 153.871 117.468 156.483 117.921C156.968 118.001 157.433 118.041 157.865 118.041C159.319 118.041 160.468 117.601 161.272 116.721C162.96 114.894 162.725 111.814 161.747 109.574C160.673 107.121 158.827 105.654 156.805 105.654Z" fill="#98D320"/>
<path d="M242.19 66.1604L242.163 65.9604L241.96 66.0003C231.58 68.3203 221.928 75.4403 217.95 83.707L217.914 83.7736L217.944 83.8537C219.152 86.8137 221.546 88.627 223.658 90.227L223.999 90.4803L223.96 90.0537C223.647 86.787 224.843 84.7204 225.9 83.5604C227.338 81.9737 229.452 81.027 231.559 81.027C233.652 81.027 236.114 82.0803 236.155 85.0403C236.171 86.0403 235.616 87.2403 234.712 88.1469C233.944 88.9336 233.062 89.3736 232.294 89.3736C231.379 89.3736 230.676 88.7469 230.254 87.5469C230.428 86.9603 231.122 86.5604 231.794 86.187C232.475 85.8004 233.119 85.4403 233.212 84.8403C233.272 84.4803 233.108 84.0937 232.712 83.6537L232.674 83.6136L232.622 83.6003C232.166 83.4803 231.715 83.4136 231.286 83.4136C228.488 83.4136 226.343 86.1336 225.819 90.3469C225.27 94.7603 226.772 99.9603 230.639 100.947L230.744 100.974L230.822 100.894C239.583 92.0804 243.832 79.0937 242.19 66.1604ZM146.63 83.707L146.666 83.7736L146.635 83.8537C145.426 86.8004 143.03 88.6137 140.916 90.227L140.532 90.507L140.614 90.0403C141.023 87.667 140.559 85.6003 139.275 84.067C137.934 82.4803 135.747 81.5337 133.423 81.5337C131.254 81.5337 129.53 82.3737 128.923 83.7204C128.466 84.747 128.426 86.5469 130.843 89.2803C131.15 89.3336 131.436 89.3736 131.695 89.3736C132.575 89.3736 133.064 88.987 133.583 88.587C133.816 88.4137 134.059 88.2137 134.338 88.067C134.423 87.0137 133.54 86.547 132.687 86.0937C132.054 85.7604 131.46 85.4404 131.356 84.8937C131.288 84.5337 131.452 84.1337 131.856 83.667L131.895 83.6136L131.955 83.6003C132.403 83.4937 132.846 83.427 133.267 83.427C135.819 83.427 137.788 85.5603 138.532 89.107C139.463 93.5603 138.22 99.347 134.59 100.934L134.483 100.974L134.395 100.907C125.518 93.6936 120.804 80.0536 122.39 66.1736L122.414 65.9604L122.616 66.0003C132.999 68.3337 142.65 75.4403 146.63 83.707Z" fill="#431B24"/>
<path d="M206.479 105.32C206.164 105.213 201.766 108.68 201.766 108.68C201.136 109.933 200.82 115.373 204.071 117.587C207.318 119.787 212.766 118.213 212.872 116.64C212.976 115.067 214.547 111.613 213.186 109.093C211.823 106.573 206.795 105.427 206.479 105.32Z" fill="#98D320"/>
<path d="M225.897 83.5604C226.339 83.067 226.855 82.6537 227.407 82.2937C227.743 81.4804 228.167 80.667 228.691 79.867C230.698 76.7737 237.668 72.3603 242.468 69.5469C242.413 68.4269 242.329 67.2937 242.186 66.1604L242.159 65.9604L241.957 66.0003C231.577 68.3203 221.925 75.4403 217.946 83.707L217.91 83.7736L217.941 83.8537C219.149 86.8137 221.542 88.627 223.654 90.227L223.996 90.4803L223.957 90.0537C223.643 86.787 224.839 84.7204 225.897 83.5604ZM225.815 90.3469C225.266 94.7603 226.769 99.9603 230.635 100.947L230.741 100.974L230.818 100.894C231.235 100.467 231.634 100.027 232.031 99.587C228.831 96.4004 226.532 92.2004 226.394 87.787C226.132 88.5604 225.93 89.4136 225.815 90.3469ZM136.883 85.307C137.79 90.7336 137.581 96.6803 132.129 98.8403C132.85 99.5736 133.602 100.267 134.391 100.907L134.479 100.974L134.586 100.934C138.217 99.347 139.46 93.5603 138.529 89.107C138.198 87.547 137.634 86.2536 136.883 85.307ZM146.626 83.707L146.662 83.7736L146.631 83.8537C145.422 86.8004 143.026 88.6137 140.913 90.227L140.529 90.507L140.61 90.0403C141.019 87.667 140.555 85.6003 139.271 84.067C138.493 83.147 137.422 82.4536 136.209 82.0136C136.162 81.8269 136.115 81.627 136.066 81.427C134.287 74.2004 122.41 65.9604 122.41 65.9604L122.613 66.0003C132.995 68.3337 142.646 75.4403 146.626 83.707Z" fill="#2A1415"/>
<path d="M270.888 248.662C264.7 247.607 260.432 246.241 255.915 244.794C254.088 244.209 252.203 243.605 250.12 242.999L249.937 242.947L249.992 242.763C250.585 240.806 251.393 239.029 252.175 237.31C253.323 234.786 254.511 232.175 255.016 228.959L255.041 228.803L255.197 228.801C255.393 228.795 255.585 228.793 255.779 228.793C258.912 228.793 261.869 229.365 264.729 229.918C267.412 230.435 269.943 230.925 272.456 230.925C273.464 230.925 274.388 230.847 275.287 230.689L275.503 230.65L275.508 230.869C275.544 232.282 275.369 233.731 274.964 235.431C274.547 237.143 273.959 238.822 273.333 240.599C272.453 243.106 271.541 245.701 271.107 248.506L271.076 248.695L270.888 248.662ZM78.4733 322.575C76.7266 322.575 75.0959 322.494 73.3693 322.41C71.8853 322.338 70.352 322.262 68.5493 322.225C67.7653 322.206 66.9319 322.195 66.0386 322.195C65.4293 322.195 64.7947 322.199 64.1253 322.213L63.8906 322.217L63.9293 321.986C65.24 315.357 67.148 309.207 69.6013 303.715L69.6613 303.582L69.804 303.606C73.6506 304.273 76.8253 305.681 79.896 307.039C82.2546 308.085 84.6946 309.166 87.4159 309.897L87.5853 309.942L87.5546 310.113C87.276 311.611 86.8666 313.002 86.4733 314.349C85.7973 316.658 85.0933 319.049 85.0439 322.027L85.0413 322.194L84.8746 322.211C82.5959 322.459 80.5626 322.575 78.4733 322.575Z" fill="#FACB0C"/>
<path d="M87.5546 310.113L87.5853 309.942L87.4159 309.897C85.8799 309.485 84.4346 308.954 83.0413 308.387C83.2759 310.15 81.4666 313.391 79.3853 316.973C76.7653 321.477 74.3573 319.695 70.268 319.486C67.916 319.365 66.088 318.546 65.0186 317.135C64.62 318.721 64.2546 320.339 63.9293 321.986L63.8906 322.217L64.1253 322.213C64.7947 322.199 65.4293 322.195 66.0386 322.195C66.9319 322.195 67.7653 322.206 68.5493 322.225C70.352 322.262 71.8853 322.338 73.3693 322.41C75.0959 322.494 76.7266 322.575 78.4733 322.575C80.5626 322.575 82.5959 322.459 84.8746 322.211L85.0413 322.194L85.0439 322.027C85.0933 319.049 85.7973 316.658 86.4733 314.349C86.8666 313.002 87.276 311.611 87.5546 310.113ZM274.964 235.431C274.547 237.143 273.959 238.822 273.333 240.599C272.453 243.106 271.541 245.701 271.107 248.506L271.076 248.695L270.888 248.662C264.7 247.607 260.432 246.241 255.915 244.794C255.357 244.615 254.789 244.435 254.216 244.253C253.976 244.057 253.839 243.942 253.839 243.942C253.839 243.942 258.867 244.781 260.755 244.885C262.64 244.989 264.003 243.418 265.364 236.189C266.036 232.615 265.815 230.886 265.416 230.05C267.847 230.517 270.159 230.925 272.456 230.925C273.464 230.925 274.388 230.847 275.287 230.689L275.503 230.65L275.508 230.869C275.544 232.282 275.369 233.731 274.964 235.431Z" fill="#F25C19"/>
<path d="M182.376 135.681C179.324 135.681 176.084 134.347 172.744 131.707L172.48 131.494L172.794 131.387C175.639 130.307 178.42 129.801 181.548 129.801C184.111 129.801 186.682 130.121 189.658 130.481C190.332 130.574 191.023 130.654 191.736 130.747L192.116 130.787L191.848 131.054C188.859 134.134 185.671 135.681 182.376 135.681Z" fill="#1F1C1F"/>
<path d="M183.037 128.08C184.529 128.64 184.845 135.387 179.263 135.547C179.263 135.547 178.243 136.254 181.151 136.654C184.058 137.041 186.886 135.307 188.853 134.054C190.815 132.801 192.381 130.974 192.381 130.974C192.381 130.974 189.717 129.574 189.479 129.574C189.246 129.574 183.037 128.08 183.037 128.08Z" fill="#151413"/>
<path d="M191.995 110.321C192.309 110.481 195.924 110.321 198.987 108.988C202.052 107.654 215.648 99.8677 215.648 99.8677C215.648 99.8677 200.716 105.214 195.924 106.241C191.131 107.254 188.221 105.454 188.221 105.454C188.221 105.454 191.68 110.161 191.995 110.321ZM189.716 134.294C189.716 134.294 192.7 131.548 192.049 130.601C191.399 129.668 188.38 129.654 188.38 129.654C188.38 129.654 188.065 130.921 186.336 132.881C184.607 134.841 180.049 136.094 180.049 136.094L184.607 137.668L189.716 134.294ZM87.0333 305.238L89.0266 301.466C89.0266 301.466 91.7493 297.589 94.3693 295.389C96.9866 293.189 104.323 288.789 114.8 284.596C125.276 280.405 129.469 281.033 129.469 281.033L130.5 278.725L130.516 276.634C130.516 276.634 116.265 279.777 107.151 283.338C98.036 286.901 92.6933 291.304 89.2346 295.076C85.776 298.846 82.3173 306.6 82.3173 306.6L86.8253 308.066L87.0333 305.238ZM85.9867 323.258L88.396 308.8L85.776 308.485L83.576 319.173C83.576 319.173 83.0519 320.221 77.7079 320.64C72.3639 321.058 63.8906 322.217 63.8906 322.217L79.1746 323.784L85.9867 323.258ZM242 201.188C242 201.188 241.476 205.068 241.789 205.801C242.104 206.534 243.151 207.801 243.361 208.214C243.571 208.628 245.875 211.361 249.125 212.921C252.372 214.494 256.459 217.428 257.297 219.841C258.136 222.253 257.297 227.597 257.297 227.597L259.393 228.75C259.393 228.75 259.812 227.074 259.497 222.149C259.183 217.228 255.412 212.721 250.695 209.894C247.024 207.694 241.893 201.614 242 201.188ZM274.479 230.321C274.479 230.321 270.185 245.094 270.081 245.409C269.973 245.724 267.249 246.037 264.527 246.037C261.803 246.037 253.735 244.781 253.419 244.781L259.812 246.876L271.443 249.809L276.576 230.741L274.479 230.321ZM272.304 220.494C271.992 215.308 269.869 208.428 269.869 208.428C272.071 227.178 268.927 229.142 268.927 229.142L271.677 229.378C271.677 229.378 272.62 225.686 272.304 220.494ZM258.317 256.568C253.995 261.362 249.437 263.09 243.388 265.212C238.049 267.085 233.024 267.425 231.912 267.481C231.076 264.872 230.2 262.929 229.951 262.382C229.32 261.022 226.177 250.334 226.177 250.334L220.521 234.826L219.719 238.588C219.62 236.072 219.159 234.304 219.159 234.304C219.159 234.304 225.969 236.19 227.539 238.286C229.112 240.381 229.112 240.381 229.112 240.381C229.112 240.381 227.539 230.845 224.919 226.028C221.085 218.974 216.981 215.321 211.929 208.948C206.875 202.574 198.516 192.814 197.573 188.094C196.631 183.374 198.099 169.028 198.099 169.028L198.617 166.014C201.945 164.454 205.117 162.948 205.117 162.948C205.117 162.948 230.683 148.281 230.997 148.281C231.312 148.281 233.825 146.601 233.825 146.601C237.391 147.961 245.563 157.294 245.563 157.294C245.563 157.294 245.143 147.961 244.304 145.241C243.467 142.521 239.588 133.921 239.588 133.921L248.915 139.268L248.809 137.908C248.809 137.908 246.085 129.734 243.361 124.708C240.637 119.681 233.197 109.094 233.197 109.094L229.74 103.548C229.74 103.548 232.883 100.294 233.513 99.6677C234.14 99.0411 238.855 90.3344 240.637 87.3077C242.416 84.2677 243.255 72.6277 242.839 74.4143C242.416 76.201 242.419 79.0277 236.969 87.9344C231.521 96.8411 226.807 99.881 226.807 99.881C226.807 99.881 223.976 95.8944 223.872 95.5744C223.768 95.2677 217.377 84.5744 217.377 84.5744L211.823 80.0677L195.164 73.0544C195.164 73.0544 207.107 79.3344 213.081 85.3077C219.052 91.281 226.177 105.641 230.683 111.921C235.191 118.214 241.685 130.054 241.685 130.054C238.227 128.268 235.399 128.894 235.399 128.894C237.807 132.881 240.743 148.068 240.743 148.068C238.541 143.881 231.625 141.254 231.625 141.254L228.481 143.988C228.481 143.988 213.945 154.121 199.565 162.321C185.336 170.441 171.191 168.308 167.765 167.628L181.752 170.708C181.752 170.708 190.763 169.441 191.079 169.441C191.237 169.441 194.919 167.748 198.469 166.081L195.268 167.974C193.828 174.228 189.464 189.961 201.136 202.348C206.271 207.801 216.852 218.481 220.101 223.721C223.349 228.96 224.081 231.684 224.081 231.684C224.081 231.684 217.167 230.008 214.128 230.426C214.651 230.426 216.016 235.036 216.016 235.036L213.604 234.617C213.604 234.617 215.071 239.752 214.861 245.2C214.489 254.878 212.033 257.984 212.033 257.984C212.033 257.982 208.688 240.933 203.443 241.324C202.812 247.086 198.831 253.268 194.745 259.658C190.659 266.05 183.325 276.214 183.325 276.214C183.325 276.214 174.628 267.413 169.912 259.764C165.197 252.116 159.959 243.418 159.959 243.418C159.959 243.418 155.453 247.714 154.825 251.486C154.195 255.258 153.568 258.402 153.568 258.402C153.568 258.402 147.593 247.609 147.385 241.218C147.177 234.828 149.271 230.113 149.271 230.113C149.271 230.113 137.432 233.676 135.336 238.914L137.013 238.809L143.3 234.618L144.661 234.094C144.661 234.094 146.339 250.648 148.224 256.934C150.109 263.221 153.252 266.05 153.357 266.365C153.464 266.68 153.252 266.05 153.252 266.05L155.453 260.917L157.445 252.534C157.445 252.534 158.492 248.658 159.224 248.344C159.959 248.029 159.959 248.029 159.959 248.029C159.959 248.029 164.044 259.973 168.76 266.156C173.473 272.337 182.487 283.445 182.487 283.445C182.487 283.445 190.24 276.005 192.021 272.546C193.803 269.089 195.792 266.365 197.156 263.746C198.516 261.128 201.347 254.63 201.347 254.63L204.909 248.344C204.909 248.344 207.737 257.25 208.891 262.174C210.041 267.098 210.041 267.098 210.041 267.098C210.041 267.098 211.927 265.317 213.604 262.174C215.145 259.282 217.929 250.01 219.099 244.79C220.213 247.454 223.104 254.373 225.156 259.474C227.749 265.918 229.872 273.149 229.243 277.156C228.615 281.164 226.648 287.294 224.057 294.052C221.464 300.809 218.792 313.933 217.456 319.59C216.12 325.25 212.899 339.865 210.697 348.588C208.497 357.31 204.175 371.77 197.573 382.458C190.973 393.144 184.372 397.128 178.295 400.898C172.216 404.67 158.073 408.545 149.167 408.442C140.26 408.337 124.964 404.357 115.637 398.697C106.312 393.04 95.1013 382.353 87.2426 370.513C79.3853 358.673 71.9453 336.88 71.1066 330.174C70.268 323.468 70.268 323.468 70.268 323.468L66.812 323.153C66.812 323.153 71.9453 354.693 82.8439 370.094C93.7399 385.496 100.969 393.144 106 396.812C111.028 400.478 132.297 410.957 143.3 411.901C154.3 412.844 171.904 409.489 179.133 404.985C186.361 400.478 198.831 388.533 204.385 378.474C209.937 368.417 216.852 344.634 219.683 333.212C222.511 321.792 223.976 313.2 225.339 308.38C226.703 303.561 226.703 304.504 226.703 303.561C226.703 302.617 231.312 288.682 233.197 281.244C234.079 277.774 233.568 273.737 232.708 270.277C233.469 270.176 235.341 269.926 235.528 269.926C235.765 269.926 245.745 267.648 249.281 266.077C252.817 264.505 258.003 260.654 261.776 257.118C265.547 253.582 267.748 249.181 267.748 249.181L263.899 248.317C263.899 248.317 262.64 251.774 258.317 256.568ZM166.979 167.454L167.765 167.628C167.255 167.521 166.979 167.454 166.979 167.454Z" fill="#F9EB34"/>
<path d="M157.774 115.214C154.965 114.6 156.126 110.6 156.517 108.307C159.873 107.8 159.61 114.254 157.774 115.214ZM160.42 120.2C160.376 120.214 160.332 120.227 160.288 120.254C160.722 119.107 161.821 118.134 162.873 117.121C164.501 115.561 165.996 113.907 164.689 111.44C168.266 109.147 168.698 115.387 170.348 117.107C166.769 117.867 163.532 118.96 160.42 120.2ZM156.517 117.734C154.102 117.32 152.198 113.64 152.342 110.467C152.422 108.774 153.103 107.214 154.632 106.414C160.408 103.414 164.425 113.041 161.137 116.587C160.22 117.587 158.717 118.107 156.517 117.734ZM142.056 109.56C145.132 109.774 147.621 104.32 150.858 102.64C152.11 102.654 152.6 103.12 153.373 103.907C151.386 106.014 150.689 108.001 150.582 110.387C150.514 111.814 150.657 113.387 150.858 115.214C147.665 113.587 143.892 112.547 142.056 109.56ZM172.863 119.614C174.731 116.307 170.681 115.654 170.974 112.08C175.149 111.64 176.842 108.72 177.256 104.534C168.774 115.307 158.201 101.48 147.714 99.5071C149.124 102.8 143.649 105.587 140.485 108.787C139.84 109.441 139.285 110.12 138.913 110.814C145.086 115.294 152.928 120.907 161.094 121.921C164.99 122.401 168.96 121.84 172.863 119.614ZM180.4 337.106C184.462 322.752 184.454 304.904 195.488 292.475C182.386 316.586 186.78 347.396 177.256 374.196C183.324 344.259 174.246 312.87 165.946 290.59C176.358 304.76 176.993 317.026 180.4 337.106ZM170.974 224.586C173.629 215.92 182.733 214.734 180.4 202.587C187.454 214.107 165.714 225.462 174.118 239.046C181.212 250.52 198.569 234.991 188.572 225.216C185.126 225.964 181.298 226.322 180.4 229.616C180.417 233.49 183.952 229.943 184.801 232.76C175.936 239.939 174.238 221.727 186.686 222.7C202.132 223.92 190.113 255.079 174.749 244.076C169.472 240.304 169.097 230.716 170.974 224.586ZM172.863 131.56C179.395 129.08 184.462 130.067 191.714 130.934C185.761 137.027 179.483 136.787 172.863 131.56ZM203.032 142.24C198.04 143.32 191.105 145.32 182.916 143.974C182.87 143.667 182.853 143.374 182.853 143.08C182.853 137.374 190.79 136.52 192.972 131.56C192.853 131.307 192.709 131.081 192.528 130.854C189.069 126.481 174.692 126.094 171.938 131.321C171.793 131.601 171.681 131.881 171.605 132.187C174.624 136.414 181.821 137.147 181.746 143.054C181.738 143.401 181.715 143.747 181.657 144.134C173.233 144.894 166.017 142.654 161.545 142.88C172.032 148.334 193.363 149.187 203.032 142.24ZM206.176 108.307C209.715 107.974 208.96 113.934 207.431 115.214C204.308 114.907 205.905 110.48 206.176 108.307ZM198.632 110.814C199.228 113.427 201.624 117.814 204.288 120.254C200.805 119.534 199.028 117.134 194.231 117.734C196.023 115.747 195.231 111.187 198.632 110.814ZM208.689 106.414C213.548 106.787 213.032 116.88 208.061 117.734C201.485 118.854 198.694 105.654 208.689 106.414ZM221.892 109.56C222.217 111.987 216.433 113.734 213.72 115.214C213.944 110.654 214.92 107.227 211.204 104.534C214.887 99.6005 219.149 109.8 221.892 109.56ZM193.602 112.707C193.105 115.734 189.597 117.427 192.345 120.254C204.856 125.841 217.246 117.521 225.657 110.187C222.796 106.947 215.308 103.147 216.862 99.5071C208.048 101.8 202.61 107.467 193.602 109.56C191.176 108.214 190.296 105.32 187.313 104.534C187.402 109.267 190.308 111.174 193.602 112.707ZM270.92 248.476C262.259 246.999 257.428 244.931 250.176 242.819C251.635 237.991 254.351 234.419 255.204 228.987C262.567 228.818 269.004 231.992 275.321 230.874C275.361 232.402 275.138 233.891 274.782 235.388C273.769 239.548 271.663 243.698 270.92 248.476ZM248.736 265.374C244.272 267.374 239.137 268.695 233.201 269.223C232.641 267.192 231.917 265.778 231.389 264.351C230.952 263.175 230.655 261.986 230.687 260.421C241.436 259.397 247.654 253.839 252.25 246.659C252.4 246.426 252.545 246.195 252.689 245.963C257.41 247.111 261.873 248.514 265.892 250.363C261.681 256.868 256.141 262.056 248.736 265.374ZM225.657 297.506C213.121 344.524 211.876 402.675 158.402 410.024C124.474 414.688 94.8838 392.239 79.4625 361.694C73.5278 349.935 69.6918 336.979 68.5171 323.91C72.8651 325.084 77.2985 324.764 81.0838 325.166C87.7905 352.432 98.9131 380.747 122.084 390.944C164.525 409.62 168.422 361.258 155.886 319.508C155.756 335.892 161.985 356.958 157.774 375.447C151.902 353.979 145.509 328.374 139.542 301.906C137.79 294.111 131.911 282.884 131.999 276.139C132.069 271.435 133.381 267.04 135.105 262.747C138.173 255.102 142.517 247.798 143.313 239.676C145.064 249.822 148.332 262.892 154.632 270.48C156.616 264.082 157.587 256.674 159.029 249.735C164.916 263.124 171.863 275.454 181.657 284.931C192.848 276.635 199.542 263.842 204.917 249.735C207.1 255.719 208.181 262.81 209.318 269.852C215.66 265.08 220.1 250.324 220.634 239.676C221.917 246.434 225.249 252.708 228.064 259.132H228.072C228.881 260.98 229.649 262.848 230.316 264.74C231.54 268.203 232.416 271.762 232.572 275.51C232.824 281.494 227.525 290.522 225.657 297.506ZM64.1212 322.023H64.1158C65.4305 315.378 67.3158 309.301 69.7745 303.793C76.5585 304.969 81.0944 308.394 87.3704 310.079C86.6158 314.139 84.9358 317.283 84.8558 322.023C78.0891 322.759 74.8211 322.168 68.5531 322.035C67.2331 322.004 65.7745 321.992 64.1212 322.023ZM130.301 269.656C131.433 272.63 127.842 276.747 130.113 278.644C113.345 283.802 91.2172 288.114 85.4852 306.306C81.4052 305.772 78.6131 303.956 74.8038 303.163C82.0504 280.664 105.816 274.591 130.301 269.656ZM87.3704 305.678C95.8451 292.148 110.361 284.67 130.113 282.418C138.28 305.847 144.17 332.71 150.23 357.852C153.832 372.788 159.528 388.918 140.17 391.793C133.816 392.735 125.02 390.127 121.318 388.02C110.121 381.664 98.0198 366.036 91.7718 351.566C88.5771 344.164 84.8611 331.518 83.6051 325.827C84.3211 325.626 85.5171 324.972 86.5038 323.607C88.9411 320.232 87.3758 316.504 90.0745 308.776C89.7198 307.256 88.4331 307.03 87.3704 305.678ZM136.4 237.16C142.189 209.04 175.804 203.974 167.204 167.707C175.816 172.507 188.441 172.827 197.059 168.027C196.863 170.64 196.638 173.134 196.462 175.507C195.853 183.747 195.834 190.547 199.889 196.307C209.124 209.427 222.644 218.241 227.706 234.898C227.87 235.431 228.028 235.979 228.173 236.531C225.16 237.23 222.532 232.131 217.49 232.76C221.496 242.09 214.788 255.675 211.832 264.194C208.457 259.183 208.545 250.714 204.917 245.963C204.408 247.239 203.873 248.495 203.321 249.722C197.938 261.627 190.482 271.454 182.916 281.16C173.144 271.655 165.244 260.283 160.288 245.963C159.201 246.974 158.384 248.251 157.73 249.691C155.756 254.002 155.241 259.774 153.373 264.194C149.438 256.795 143.397 242.208 147.086 233.388C142.982 231.603 139.889 236.238 136.4 237.16ZM131.999 144.76C126.805 146.28 124.858 151.027 120.689 153.56C121.222 146.827 123.444 137.867 126.97 132.187C122.512 132.134 121.181 135.2 117.545 135.96C121.75 123.134 129.78 114.334 137.028 102.64C149.594 82.3738 158.108 70.2271 192.972 73.7338C210.928 75.5338 217.993 87.2404 227.543 102.64C234.917 114.534 242.423 122.44 247.032 135.96C243.605 135.2 242.141 132.467 238.231 132.187C239.871 137.014 243.925 146.894 243.889 153.56C239.977 150.974 237.652 146.814 233.201 144.76C223.053 151.187 200.744 166.547 185.428 169.28C182.92 169.72 178.249 169.347 174.749 168.027C161.993 163.174 141.179 153 131.999 144.76ZM122.577 66.1872C133.564 68.6539 142.761 76.1072 146.457 83.7872C145.301 86.6139 143.064 88.3604 140.801 90.0804C142.913 77.7604 121.714 79.3338 130.741 89.4404C132.917 89.9471 133.4 88.7472 134.514 88.1872C134.861 85.5872 130.043 86.0672 131.999 83.7872C139.827 81.8272 140.826 97.9872 134.514 100.761C126.17 93.9738 120.897 80.9072 122.577 66.1872ZM152.744 78.7605C151.116 79.4405 150.408 81.0271 148.345 81.2671C144.514 72.5338 134.91 69.5605 127.597 64.3071C136.694 66.2005 148.394 70.1072 152.744 78.7605ZM236.972 64.3071C229.668 69.5605 220.061 72.5338 216.233 81.2671C214.165 81.0271 213.463 79.4405 211.832 78.7605C216.184 70.1072 227.881 66.2005 236.972 64.3071ZM230.687 100.761C223.395 98.9205 224.746 81.6672 232.572 83.7872C234.353 85.7472 230.46 85.8538 230.059 87.5605C231.575 92.0138 236.389 88.0938 236.345 85.0404C236.244 78.0671 222.79 79.8138 223.772 90.0804C221.509 88.3604 219.277 86.6139 218.118 83.7872C221.816 76.1072 231.006 68.6539 242.001 66.1872C243.87 80.8939 238.124 93.2805 230.687 100.761ZM247.296 209.774C241.586 205.014 240.004 201.134 248.559 197.347C260.207 192.2 274.687 208.214 270.92 228.36C264.816 228.227 261.78 227.315 258.348 227.102C259.009 213.96 253.31 214.8 247.296 209.774ZM273.436 228.36C275.04 211.827 267.238 191.014 249.545 194.414C246.365 195.027 241.31 198.36 240.116 201.96C236.358 213.294 258.868 212.014 256.462 225.216C255.884 226.058 255.014 227.258 254.061 228.662C250.522 233.886 245.837 242.022 250.804 245.963C245.428 251.903 240.23 258.02 229.428 258.535C226.712 251.407 224.769 243.497 221.892 236.531C226.08 237.79 227.441 241.876 231.316 243.448C230.876 240.316 230.277 237.394 229.49 234.615C227.485 227.516 224.267 221.387 219.376 215.16C209.933 203.16 197.004 195.547 198.343 175.64C198.535 172.747 199.032 169.6 199.889 166.134C211.198 160.467 223.638 155.947 232.572 147.907C239.061 150.427 241.097 157.4 246.402 161.107C247.572 153.387 245.108 144 242.632 137.84C244.277 135.547 247.02 142.547 250.804 142.24C249.509 126.96 238.532 115.987 231.316 104.534C241.542 94.7605 246.001 81.7738 244.517 64.3071C229.48 58.5338 216.592 69.4138 208.061 76.2404C196.316 69.1738 168.258 69.1738 156.517 76.2404C147.798 69.3738 136.436 59.4271 120.689 63.6804C117.985 80.1738 122.564 94.9604 133.256 103.907C126.58 115.88 115.288 126.56 113.774 141.614C116.772 143.854 120.482 135.094 121.946 137.84C119.137 144.054 118.025 151.947 117.545 160.48C122.982 159.574 125.378 150.334 131.37 147.907C141.02 155.44 153.04 160.6 164.689 166.134C174.321 204.974 134.684 210.76 132.627 243.448C137.111 242.484 138.228 238.154 142.056 236.531C140.134 244.031 136.99 254.21 133.821 262.238C132.998 264.319 132.176 266.255 131.37 267.966C103.522 270.706 82.9332 280.701 72.2878 300.649C72.8652 303.114 68.9705 301.102 68.5171 302.534C65.6678 308.494 62.5198 314.139 62.2305 322.651C63.0038 322.978 63.6265 323.345 64.1411 323.765C68.3158 327.197 65.1651 334.447 75.0225 356.599C75.9105 358.592 76.8478 360.567 77.8318 362.51C89.7585 386.028 109.04 405.906 134.514 411.28C197.698 424.608 216.064 363.867 225.028 317.623C226.405 310.526 227.053 303.403 228.801 296.876C231.592 286.484 236.105 279.042 234.46 271.738C239.848 270.524 244.92 268.99 249.477 266.952C257.077 263.544 263.258 258.73 267.149 251.621C268.657 249.841 270.946 252.487 272.178 250.991C273.597 245.855 275.103 241.486 276.597 235.86C277.012 234.306 277.42 232.659 277.829 230.874C277.829 230.246 277.829 229.617 277.829 228.987C276.358 228.794 275.472 227.995 273.436 228.36Z" fill="#231F20"/>
<path d="M157.235 110.347C157.235 111.16 156.579 111.813 155.769 111.813C154.959 111.813 154.301 111.16 154.301 110.347C154.301 109.547 154.959 108.88 155.769 108.88C156.579 108.88 157.235 109.547 157.235 110.347Z" fill="white"/>
<path d="M207.002 110.347C207.002 111.16 206.346 111.813 205.536 111.813C204.726 111.813 204.07 111.16 204.07 110.347C204.07 109.547 204.726 108.88 205.536 108.88C206.346 108.88 207.002 109.547 207.002 110.347Z" fill="white"/>
</svg>
