<svg width="339" height="474" viewBox="0 0 339 474" fill="none" xmlns="http://www.w3.org/2000/svg">
<path d="M22.8653 473.381C10.3659 473.381 0.199219 463.212 0.199219 450.714V23.1822C0.199219 10.6835 10.3659 0.515523 22.8653 0.515523H315.687C328.184 0.515523 338.353 10.6835 338.353 23.1822V450.714C338.353 463.212 328.184 473.381 315.687 473.381H22.8653Z" fill="#849393"/>
<path d="M315.688 3.18186H271.515L267.481 14.2712L263.113 3.18186H22.8666C11.82 3.18186 2.86719 12.1365 2.86719 23.1819V450.714C2.86719 461.758 11.82 470.714 22.8666 470.714H67.1026L71.0707 459.803L75.368 470.714H315.688C326.732 470.714 335.688 461.758 335.688 450.714V23.1819C335.688 12.1365 326.732 3.18186 315.688 3.18186Z" fill="white"/>
<path d="M35.1164 19.4149H54.7497C57.7977 19.4149 59.3204 21.7669 59.3204 26.4736V31.3816C59.3204 36.1336 57.9977 39.2949 55.355 40.8616C46.7484 48.5723 41.3244 53.7949 39.0844 56.5283V60.227C39.127 60.6296 39.3284 60.8309 39.6884 60.8309H45.5377C53.1124 60.8309 58.3124 57.6709 61.1364 51.3509H61.8084C60.0604 60.9429 58.9177 65.7402 58.379 65.7402H30.8124C30.4097 65.7402 30.207 65.5362 30.207 65.1349V56.5283C30.207 53.8829 34.399 49.2896 42.7817 42.7456C47.891 38.1722 50.4457 35.3056 50.4457 34.1389C50.6697 33.3763 50.7817 32.4589 50.7817 31.3816V27.0789C50.7817 25.4202 49.9524 24.591 48.295 24.591H42.1764C40.6964 24.591 39.7777 25.1069 39.419 26.1389V30.1042C39.419 30.8669 36.5497 32.2109 30.8124 34.1389L30.4764 33.5336V24.927C30.4764 21.2523 32.0244 19.4149 35.1164 19.4149Z" fill="#E11D25"/>
<path d="M303.434 454.659H283.802C280.753 454.659 279.23 452.306 279.23 447.599V442.691C279.23 437.938 280.553 434.779 283.196 433.211C291.804 425.501 297.226 420.279 299.468 417.545V413.847C299.422 413.443 299.222 413.243 298.862 413.243H293.013C285.438 413.243 280.238 416.402 277.415 422.722H276.742C278.49 413.129 279.634 408.334 280.17 408.334H307.738C308.141 408.334 308.342 408.534 308.342 408.938V417.545C308.342 420.189 304.152 424.785 295.769 431.329C290.66 435.899 288.105 438.768 288.105 439.935C287.881 440.695 287.769 441.615 287.769 442.691V446.993C287.769 448.651 288.598 449.482 290.256 449.482H296.374C297.854 449.482 298.773 448.967 299.132 447.935V443.97C299.132 443.206 302.001 441.86 307.738 439.935L308.074 440.539V449.146C308.074 452.821 306.526 454.659 303.434 454.659Z" fill="#E11D25"/>
<path d="M289.121 386.686L284.178 389.31L293.046 395.987L301.916 389.31L296.97 386.686L323.856 369.899L311.154 356.386C305.657 354.706 303.121 355.525 301.916 357.397C299.577 361.019 303.668 363.241 305.773 361.839C305.773 361.839 302.384 365.927 298.876 361.37C296.604 358.418 298.257 352.321 303.58 348.331L293.046 337.126L282.513 348.331C287.837 352.321 289.49 358.418 287.218 361.37C283.71 365.927 280.318 361.839 280.318 361.839C282.424 363.241 286.517 361.019 284.178 357.397C282.97 355.525 280.438 354.706 274.94 356.386L262.238 369.899L289.121 386.686Z" fill="#E11D25"/>
<path d="M49.4247 87.3856L54.3687 84.763L45.5007 78.0856L36.6327 84.763L41.5767 87.3856L14.6914 104.172L27.3927 117.686C32.8901 119.367 35.4261 118.547 36.6327 116.678C38.9687 113.055 34.8781 110.831 32.7741 112.235C32.7741 112.235 36.1634 108.143 39.6714 112.703C41.9434 115.656 40.2901 121.752 34.9674 125.743L45.5007 136.948L56.0341 125.743C50.7101 121.752 49.0567 115.656 51.3287 112.703C54.8367 108.143 58.2274 112.235 58.2274 112.235C56.1234 110.831 52.0287 113.055 54.3687 116.678C55.5767 118.547 58.1087 119.367 63.6074 117.686L76.3087 104.172L49.4247 87.3856Z" fill="#E11D25"/>
<path d="M180.786 177.99L195.291 170.295L169.278 150.708L143.263 170.295L157.766 177.99L78.9102 227.23L116.162 266.864C132.287 271.795 139.727 269.394 143.263 263.904C150.121 253.279 138.121 246.76 131.949 250.872C131.949 250.872 141.889 238.878 152.18 252.248C158.845 260.912 153.993 278.79 138.379 290.495L169.278 323.36L200.173 290.495C184.56 278.79 179.709 260.912 186.369 252.248C196.658 238.878 206.605 250.872 206.605 250.872C200.432 246.76 188.423 253.279 195.291 263.904C198.827 269.394 206.261 271.795 222.386 266.864L259.646 227.23L180.786 177.99Z" fill="#E11D25"/>
</svg>
