<svg width="340" height="474" viewBox="0 0 340 474" fill="none" xmlns="http://www.w3.org/2000/svg">
<path d="M23.6198 473.381C11.1198 473.381 0.953125 463.212 0.953125 450.714V23.1822C0.953125 10.6835 11.1198 0.515523 23.6198 0.515523H316.44C328.937 0.515523 339.106 10.6835 339.106 23.1822V450.714C339.106 463.212 328.937 473.381 316.44 473.381H23.6198Z" fill="#849393"/>
<path d="M316.441 3.18186H272.268L268.236 14.2712L263.866 3.18186H23.6211C12.5744 3.18186 3.62109 12.1365 3.62109 23.1819V450.714C3.62109 461.758 12.5744 470.714 23.6211 470.714H67.8571L71.8238 459.803L76.1225 470.714H316.441C327.485 470.714 336.441 461.758 336.441 450.714V23.1819C336.441 12.1365 327.485 3.18186 316.441 3.18186Z" fill="white"/>
<path d="M35.9037 19.4149H54.3251C57.9571 20.1776 59.7717 21.4976 59.7717 23.3803V31.1803C59.7717 31.8523 59.8397 32.7269 59.973 33.8029L59.7717 34.2056C59.9063 35.1029 59.973 35.8643 59.973 36.4923C59.973 39.1816 59.413 41.0203 58.293 42.0056V42.1389C59.413 43.2149 59.973 44.8069 59.973 46.9136C59.973 48.0336 59.9063 49.3109 59.7717 50.7456C59.9063 53.0776 59.973 55.1616 59.973 56.9976C59.973 61.5709 59.5464 63.8576 58.6957 63.8576C57.7997 65.1123 56.141 65.7402 53.721 65.7402H37.7864C33.8411 65.7402 31.869 64.3949 31.869 61.7056V52.427C31.9144 52.1576 32.0477 52.0243 32.273 52.0243H40.0717C40.2957 52.0683 40.409 52.203 40.409 52.427V52.6283C40.409 57.8283 40.8104 60.427 41.6184 60.427C42.0224 60.695 42.4024 60.8309 42.7611 60.8309H49.5517C50.4477 60.2936 50.8971 59.9136 50.8971 59.6883V47.3163C50.8971 46.2869 50.1344 45.7709 48.6104 45.7709H44.7784C43.9704 45.7709 42.5144 44.9096 40.409 43.1856C40.229 43.1856 39.421 42.5443 37.9877 41.263L38.3917 41.1309H47.469C49.753 40.9963 50.8971 40.5456 50.8971 39.7816V25.6723C50.4931 24.7736 49.9771 24.3216 49.3504 24.3216H43.2997C41.9543 24.3216 40.9904 24.703 40.409 25.4656C40.5424 27.1696 40.6104 28.4469 40.6104 29.2976V30.2402C40.6104 30.4642 40.4744 30.5762 40.2064 30.5762H37.3824C36.889 30.5762 36.193 30.6416 35.2984 30.7762C35.0744 30.6416 34.8944 30.5762 34.7597 30.5762C34.0877 30.7082 33.4597 30.7762 32.8771 30.7762C32.2051 30.7762 31.8237 30.5976 31.7344 30.2402V23.9189C31.7344 23.7843 31.7784 23.7163 31.869 23.7163C31.869 23.6283 31.8237 23.5829 31.7344 23.5829C31.7344 21.7909 32.6757 20.5136 34.5584 19.7509L35.9037 19.4149Z" fill="#E11D25"/>
<path d="M304.157 454.659H285.734C282.103 453.897 280.289 452.574 280.289 450.691V442.894C280.289 442.219 280.221 441.347 280.086 440.271L280.289 439.867C280.153 438.97 280.086 438.209 280.086 437.582C280.086 434.891 280.647 433.052 281.767 432.068V431.933C280.647 430.858 280.086 429.266 280.086 427.159C280.086 426.039 280.153 424.761 280.289 423.326C280.153 420.995 280.086 418.912 280.086 417.074C280.086 412.503 280.513 410.217 281.363 410.217C282.261 408.962 283.918 408.334 286.339 408.334H302.274C306.218 408.334 308.191 409.678 308.191 412.367V421.646C308.146 421.915 308.013 422.05 307.787 422.05H299.989C299.765 422.003 299.651 421.87 299.651 421.646V421.443C299.651 416.246 299.25 413.646 298.442 413.646C298.038 413.375 297.658 413.243 297.299 413.243H290.507C289.611 413.779 289.163 414.159 289.163 414.386V426.755C289.163 427.787 289.926 428.303 291.45 428.303H295.281C296.087 428.303 297.546 429.165 299.651 430.886C299.831 430.886 300.638 431.527 302.073 432.81L301.669 432.94H292.591C290.306 433.076 289.163 433.527 289.163 434.293V448.402C289.567 449.3 290.083 449.751 290.71 449.751H296.759C298.106 449.751 299.07 449.37 299.651 448.607C299.518 446.904 299.45 445.626 299.45 444.774V443.834C299.45 443.61 299.585 443.498 299.854 443.498H302.678C303.171 443.498 303.866 443.43 304.762 443.295C304.986 443.43 305.166 443.498 305.299 443.498C305.971 443.362 306.601 443.295 307.182 443.295C307.855 443.295 308.237 443.474 308.325 443.834V450.154C308.325 450.29 308.281 450.355 308.191 450.355C308.191 450.446 308.237 450.49 308.325 450.49C308.325 452.282 307.385 453.561 305.502 454.323L304.157 454.659Z" fill="#E11D25"/>
<path d="M289.875 386.686L284.932 389.31L293.801 395.987L302.67 389.31L297.726 386.686L324.61 369.899L311.91 356.386C306.412 354.706 303.875 355.525 302.67 357.397C300.331 361.019 304.422 363.241 306.527 361.839C306.527 361.839 303.138 365.927 299.631 361.37C297.359 358.418 299.012 352.321 304.334 348.331L293.801 337.126L283.267 348.331C288.591 352.321 290.246 358.418 287.972 361.37C284.466 365.927 281.074 361.839 281.074 361.839C283.179 363.241 287.271 361.019 284.932 357.397C283.725 355.525 281.192 354.706 275.694 356.386L262.992 369.899L289.875 386.686Z" fill="#E11D25"/>
<path d="M50.1826 87.3856L55.1266 84.763L46.2572 78.0856L37.3893 84.763L42.3332 87.3856L15.4492 104.175L28.1492 117.686C33.6466 119.367 36.1839 118.547 37.3893 116.678C39.7266 113.055 35.6359 110.834 33.5306 112.235C33.5306 112.235 36.9199 108.143 40.4279 112.703C42.6999 115.656 41.0466 121.752 35.7239 125.743L46.2572 136.948L56.7919 125.743C51.4679 121.752 49.8132 115.656 52.0852 112.703C55.5932 108.143 58.9839 112.235 58.9839 112.235C56.8799 110.834 52.7866 113.055 55.1266 116.678C56.3332 118.547 58.8653 119.367 64.3639 117.686L77.0665 104.175L50.1826 87.3856Z" fill="#E11D25"/>
<path d="M181.54 177.99L196.045 170.295L170.032 150.708L144.019 170.295L158.521 177.99L79.6641 227.23L116.916 266.864C133.041 271.795 140.481 269.394 144.019 263.904C150.875 253.279 138.875 246.76 132.703 250.872C132.703 250.872 142.643 238.878 152.933 252.248C159.599 260.912 154.748 278.79 139.135 290.495L170.032 323.36L200.927 290.495C185.313 278.79 180.464 260.912 187.124 252.248C197.413 238.878 207.359 250.872 207.359 250.872C201.187 246.76 189.179 253.279 196.045 263.904C199.581 269.394 207.016 271.795 223.14 266.864L260.401 227.23L181.54 177.99Z" fill="#E11D25"/>
</svg>
