<svg width="339" height="474" viewBox="0 0 339 474" fill="none" xmlns="http://www.w3.org/2000/svg">
<path d="M23.3737 473.641C10.8737 473.641 0.707031 463.467 0.707031 450.974V23.4365C0.707031 10.9379 10.8737 0.769852 23.3737 0.769852H316.194C328.692 0.769852 338.86 10.9379 338.86 23.4365V450.974C338.86 463.467 328.692 473.641 316.194 473.641H23.3737Z" fill="#849393"/>
<path d="M316.195 3.43712H272.024L267.99 14.5278L263.623 3.43712H23.375C12.3283 3.43712 3.375 12.3918 3.375 23.4371V450.975C3.375 462.014 12.3283 470.975 23.375 470.975H67.6124L71.579 460.054L75.8777 470.975H316.195C327.24 470.975 336.195 462.014 336.195 450.975V23.4371C336.195 12.3918 327.24 3.43712 316.195 3.43712Z" fill="white"/>
<path d="M39.8611 26.4605V35.8058C39.8611 37.6431 42.5584 39.1005 47.9491 40.1765C47.9491 40.4458 49.0638 40.8498 51.2931 41.3858L51.6291 40.7818V26.1911C51.0918 24.9364 50.2664 24.3071 49.1544 24.3071H42.0691C40.5971 24.3071 39.8611 25.0271 39.8611 26.4605ZM35.1544 19.6698H56.3344C59.025 20.3418 60.3677 21.6871 60.3677 23.7031V61.9618C59.649 64.6498 58.305 65.9951 56.3344 65.9951H35.1544C32.4651 65.3218 31.1211 63.9765 31.1211 61.9618V49.7911L31.3891 49.1858C36.4957 51.0684 39.3184 52.3231 39.8611 52.9511V59.1365C39.8611 60.6151 40.5971 61.3551 42.0691 61.3551H49.4197C50.8917 61.3551 51.6291 60.6151 51.6291 59.1365V48.9178C51.6291 47.0338 48.9384 45.5791 43.5584 44.5471C35.2664 42.1711 31.1211 39.6831 31.1211 37.0844V23.7031C31.7931 21.0138 33.1384 19.6698 35.1544 19.6698Z" fill="#E11D25"/>
<path d="M299.707 448.12V438.774C299.707 436.934 297.013 435.48 291.619 434.4C291.619 434.134 290.505 433.734 288.278 433.2L287.942 433.8V448.387C288.475 449.64 289.302 450.28 290.415 450.28H297.502C298.97 450.28 299.707 449.56 299.707 448.12ZM304.414 454.92H283.234C280.546 454.24 279.199 452.893 279.199 450.88V412.627C279.918 409.934 281.262 408.587 283.234 408.587H304.414C307.103 409.267 308.447 410.6 308.447 412.627V424.787L308.179 425.4C303.073 423.52 300.249 422.253 299.707 421.627V415.44C299.707 413.96 298.97 413.227 297.502 413.227H290.147C288.677 413.227 287.942 413.96 287.942 415.44V425.667C287.942 427.547 290.63 429 296.01 430.04C304.302 432.414 308.447 434.893 308.447 437.507V450.88C307.775 453.574 306.431 454.92 304.414 454.92Z" fill="#E11D25"/>
<path d="M289.629 386.947L284.686 389.56L293.555 396.24L302.422 389.56L297.479 386.947L324.362 370.16L311.662 356.64C306.165 354.96 303.629 355.773 302.422 357.653C300.083 361.28 304.175 363.493 306.282 362.093C306.282 362.093 302.891 366.187 299.383 361.627C297.113 358.667 298.766 352.573 304.086 348.587L293.555 337.387L283.022 348.587C288.345 352.573 289.998 358.667 287.727 361.627C284.219 366.187 280.826 362.093 280.826 362.093C282.933 363.493 287.025 361.28 284.686 357.653C283.479 355.773 280.946 354.96 275.449 356.64L262.746 370.16L289.629 386.947Z" fill="#E11D25"/>
<path d="M49.9378 87.6408L54.8805 85.0195L46.0138 78.3422L37.1432 85.0195L42.0885 87.6408L15.2031 104.429L27.9045 117.941C33.4018 119.623 35.9378 118.803 37.1432 116.933C39.4818 113.31 35.3912 111.087 33.2872 112.49C33.2872 112.49 36.6751 108.399 40.1831 112.959C42.4565 115.913 40.8032 122.007 35.4792 125.998L46.0138 137.202L56.5471 125.998C51.2218 122.007 49.5685 115.913 51.8418 112.959C55.3498 108.399 58.7405 112.49 58.7405 112.49C56.6365 111.087 52.5418 113.31 54.8805 116.933C56.0885 118.803 58.6205 119.623 64.1205 117.941L76.8205 104.429L49.9378 87.6408Z" fill="#E11D25"/>
<path d="M181.297 178.245L195.802 170.548L169.789 150.964L143.773 170.548L158.275 178.245L79.418 227.483L116.671 267.12C132.797 272.053 140.237 269.653 143.773 264.16C150.63 253.533 138.63 247.016 132.458 251.128C132.458 251.128 142.398 239.133 152.69 252.507C159.354 261.173 154.502 279.04 138.89 290.747L169.789 323.613L200.682 290.747C185.07 279.04 180.218 261.173 186.879 252.507C197.169 239.133 207.114 251.128 207.114 251.128C200.942 247.016 188.934 253.533 195.802 264.16C199.338 269.653 206.77 272.053 222.895 267.12L260.155 227.483L181.297 178.245Z" fill="#E11D25"/>
</svg>
