<svg width="339" height="474" viewBox="0 0 339 474" fill="none" xmlns="http://www.w3.org/2000/svg">
<path d="M23.1315 473.381C10.6315 473.381 0.464844 463.212 0.464844 450.714V23.1822C0.464844 10.6835 10.6315 0.515523 23.1315 0.515523H315.946C328.453 0.515523 338.613 10.6835 338.613 23.1822V450.714C338.613 463.212 328.453 473.381 315.946 473.381H23.1315Z" fill="#849393"/>
<path d="M315.943 3.18186H271.77L267.743 14.2712L263.37 3.18186H23.1289C12.0809 3.18186 3.12891 12.1365 3.12891 23.1819V450.714C3.12891 461.758 12.0809 470.714 23.1289 470.714H67.3702L71.3302 459.803L75.6236 470.714H315.943C326.997 470.714 335.943 461.758 335.943 450.714V23.1819C335.943 12.1365 326.997 3.18186 315.943 3.18186Z" fill="white"/>
<path d="M30.8047 19.4149H59.2501C59.5568 19.4149 59.7568 20.1096 59.8501 21.4976C59.8501 22.5736 59.7835 23.7616 59.6501 25.0616C59.7835 27.8416 59.8501 30.6656 59.8501 33.5336V33.7349C59.8501 33.9602 59.7168 34.0709 59.4501 34.0709H58.7034C54.0501 32.2349 51.3967 31.1123 50.7701 30.7083V25.1949C50.7701 24.6149 50.5967 24.279 50.2367 24.1883H41.4275C40.2621 24.1883 39.6128 24.7709 39.4781 25.9349V36.8963C39.4781 37.7923 40.2847 38.3749 41.8993 38.6429H55.8901C58.3968 39.9429 59.6501 41.1976 59.6501 42.4096H59.8501C59.9435 45.3669 59.9835 47.7203 59.9835 49.4696V53.0309C59.9835 55.1389 59.9435 58.1403 59.8501 62.0416C58.9968 64.5069 57.3434 65.7402 54.8767 65.7402H36.654C32.5287 65.7402 30.4688 63.8576 30.4688 60.091V52.4936C30.5127 52.2243 30.626 52.0896 30.8047 52.0896H42.1008C42.3248 52.1363 42.4367 52.2696 42.4367 52.4936C41.2701 52.763 40.3288 53.2336 39.6128 53.9069C39.6128 54.5789 39.5675 55.519 39.4781 56.7296C39.4781 59.5536 39.9488 60.9669 40.8901 60.9669H48.4901C50.0101 60.9669 50.7701 60.3149 50.7701 59.0163V45.9042C50.7701 44.2482 49.9434 43.4176 48.2901 43.4176H36.7888C32.5755 43.4176 30.4688 41.7136 30.4688 38.3069V19.7509C30.5127 19.5269 30.626 19.4149 30.8047 19.4149Z" fill="#E11D25"/>
<path d="M308.267 454.659H279.827C279.52 454.659 279.32 453.964 279.227 452.574C279.227 451.498 279.294 450.31 279.427 449.011C279.294 446.233 279.227 443.407 279.227 440.539V440.337C279.227 440.113 279.36 440.001 279.627 440.001H280.374C285.027 441.839 287.68 442.959 288.307 443.362V448.875C288.307 449.459 288.48 449.795 288.84 449.886H297.654C298.814 449.886 299.467 449.303 299.6 448.137V437.178C299.6 436.279 298.787 435.698 297.174 435.43H283.2C280.68 434.129 279.427 432.875 279.427 431.665H279.227C279.134 428.706 279.094 426.352 279.094 424.604V421.042C279.094 418.933 279.134 415.93 279.227 412.031C280.08 409.566 281.734 408.334 284.2 408.334H302.427C306.547 408.334 308.614 410.217 308.614 413.982V421.579C308.56 421.847 308.454 421.982 308.267 421.982H296.974C296.747 421.938 296.64 421.803 296.64 421.579C297.8 421.31 298.747 420.839 299.467 420.167C299.467 419.495 299.507 418.553 299.6 417.345C299.6 414.519 299.134 413.107 298.187 413.107H290.587C289.067 413.107 288.307 413.755 288.307 415.058V428.167C288.307 429.826 289.134 430.657 290.787 430.657H302.294C306.507 430.657 308.614 432.361 308.614 435.766V454.323C308.56 454.547 308.454 454.659 308.267 454.659Z" fill="#E11D25"/>
<path d="M289.384 386.686L284.437 389.31L293.304 395.987L302.184 389.31L297.237 386.686L324.117 369.899L311.424 356.386C305.917 354.706 303.384 355.525 302.184 357.397C299.837 361.019 303.931 363.241 306.037 361.839C306.037 361.839 302.651 365.927 299.144 361.37C296.864 358.418 298.517 352.321 303.837 348.331L293.304 337.126L282.771 348.331C288.104 352.321 289.757 358.418 287.477 361.37C283.971 365.927 280.584 361.839 280.584 361.839C282.691 363.241 286.784 361.019 284.437 357.397C283.237 355.525 280.704 354.706 275.197 356.386L262.504 369.899L289.384 386.686Z" fill="#E11D25"/>
<path d="M49.6904 87.3856L54.637 84.763L45.7703 78.0856L36.897 84.763L41.841 87.3856L14.957 104.175L27.657 117.686C33.1544 119.367 35.6917 118.547 36.897 116.678C39.2343 113.055 35.1423 110.834 33.0383 112.235C33.0383 112.235 36.4277 108.143 39.9357 112.703C42.2077 115.656 40.5543 121.752 35.2316 125.743L45.7703 136.948L56.3036 125.743C50.9703 121.752 49.317 115.656 51.597 112.703C55.1037 108.143 58.4904 112.235 58.4904 112.235C56.3837 110.834 52.2903 113.055 54.637 116.678C55.837 118.547 58.3703 119.367 63.877 117.686L76.5703 104.175L49.6904 87.3856Z" fill="#E11D25"/>
<path d="M181.052 177.99L195.559 170.295L169.545 150.708L143.532 170.295L158.025 177.99L79.1719 227.23L116.425 266.864C132.559 271.795 139.999 269.394 143.532 263.904C150.385 253.279 138.385 246.76 132.212 250.872C132.212 250.872 142.159 238.878 152.439 252.248C159.105 260.912 154.252 278.79 138.639 290.495L169.545 323.36L200.439 290.495C184.825 278.79 179.972 260.912 186.639 252.248C196.919 238.878 206.865 250.872 206.865 250.872C200.692 246.76 188.692 253.279 195.559 263.904C199.092 269.394 206.532 271.795 222.652 266.864L259.905 227.23L181.052 177.99Z" fill="#E11D25"/>
</svg>
