<svg width="339" height="474" viewBox="0 0 339 474" fill="none" xmlns="http://www.w3.org/2000/svg">
<path d="M23.1315 473.641C10.6315 473.641 0.464844 463.467 0.464844 450.974V23.4365C0.464844 10.9365 10.6315 0.769852 23.1315 0.769852H315.946C328.453 0.769852 338.613 10.9365 338.613 23.4365V450.974C338.613 463.467 328.453 473.641 315.946 473.641H23.1315Z" fill="#849393"/>
<path d="M315.943 3.43712H271.77L267.743 14.5264L263.37 3.43712H23.1289C12.0809 3.43712 3.12891 12.3905 3.12891 23.4371V450.975C3.12891 462.014 12.0809 470.975 23.1289 470.975H67.3702L71.3302 460.054L75.6236 470.975H315.943C326.997 470.975 335.943 462.014 335.943 450.975V23.4371C335.943 12.3905 326.997 3.43712 315.943 3.43712Z" fill="white"/>
<path d="M60.7967 35.8062C60.7967 35.5355 60.6768 35.4022 60.4501 35.4022C59.2901 38.2262 58.5034 40.4448 58.1034 42.0595C57.9167 42.0595 57.6101 42.9555 57.1568 44.7488C56.8901 44.7488 56.5834 45.7568 56.2234 47.7728C54.3301 51.1808 53.3967 53.6448 53.3967 55.1688C53.2101 55.1688 52.6501 56.4915 51.7168 59.1368C51.4501 59.1822 51.3168 59.3155 51.3168 59.5395L51.5168 59.9422L50.9034 60.8848C50.9567 61.1088 51.0901 61.2208 51.3168 61.2208H58.3034C59.4634 61.2208 60.3034 60.7288 60.7967 59.7422V35.8062ZM53.7967 39.7728C54.1967 39.1448 55.6367 35.3355 58.1034 28.3435L59.4501 25.3848V25.1822C59.4501 24.7782 58.7568 24.5782 57.3568 24.5782H52.0501C50.2635 24.5782 49.1834 25.0261 48.8234 25.9208L49.0234 26.3248V46.6301C49.0234 47.8848 48.9568 49.4115 48.8234 51.2021C48.9568 51.4261 49.0234 51.6742 49.0234 51.9422C49.4234 51.9422 51.0234 47.8848 53.7967 39.7728ZM69.9301 28.2075V61.8248C69.4367 64.6061 68.2367 65.9941 66.3034 65.9941H43.31C41.294 65.9941 40.1047 64.5381 39.7474 61.6248V23.8382C39.7474 21.5515 41.1354 20.1635 43.9141 19.6688C44.0047 19.6688 44.0501 19.7142 44.0501 19.8048L45.3967 19.6688H64.2234C66.7701 19.6688 68.4767 20.4088 69.3301 21.8875C69.7301 23.2781 69.9301 25.3848 69.9301 28.2075ZM36.454 65.7261V65.9941H21.1914V65.7261C23.2074 64.6061 24.2168 63.5741 24.2168 62.6328V26.5941L23.9474 25.1155H23.2754L21.1914 25.3848V25.1155C21.2354 24.8462 25.2007 22.2915 33.0914 17.4502L33.3594 18.0555V62.2968C33.3594 63.4635 34.3914 64.6061 36.454 65.7261Z" fill="#E11D25"/>
<path d="M278.278 438.775C278.278 439.042 278.398 439.175 278.625 439.175C279.785 436.361 280.571 434.135 280.971 432.521C281.158 432.521 281.465 431.628 281.918 429.842C282.185 429.842 282.491 428.828 282.851 426.815C284.745 423.401 285.678 420.935 285.678 419.415C285.865 419.415 286.425 418.095 287.358 415.442C287.625 415.401 287.758 415.268 287.758 415.042L287.558 414.642L288.171 413.695C288.118 413.468 287.985 413.361 287.758 413.361H280.771C279.611 413.361 278.771 413.855 278.278 414.842V438.775ZM285.278 434.815C284.878 435.442 283.438 439.242 280.971 446.242L279.625 449.201V449.401C279.625 449.801 280.331 450.001 281.718 450.001H287.025C288.811 450.001 289.891 449.561 290.251 448.668L290.051 448.255V427.948C290.051 426.695 290.118 425.175 290.251 423.375C290.118 423.161 290.051 422.908 290.051 422.642C289.651 422.642 288.051 426.695 285.278 434.815ZM269.145 446.375V412.761C269.638 409.975 270.838 408.588 272.771 408.588H295.771C297.785 408.588 298.971 410.042 299.331 412.961V450.748C299.331 453.028 297.945 454.415 295.158 454.908C295.065 454.908 295.025 454.868 295.025 454.775L293.678 454.908H274.851C272.305 454.908 270.598 454.175 269.745 452.695C269.345 451.308 269.145 449.201 269.145 446.375ZM302.625 408.855V408.588H317.891V408.855C315.865 409.975 314.865 411.015 314.865 411.948V447.988L315.131 449.468H315.798L317.891 449.201V449.468C317.838 449.735 313.878 452.295 305.985 457.135L305.718 456.521V412.281C305.718 411.121 304.678 409.975 302.625 408.855Z" fill="#E11D25"/>
<path d="M289.384 386.947L284.437 389.56L293.304 396.24L302.184 389.56L297.237 386.947L324.117 370.147L311.424 356.64C305.917 354.96 303.384 355.773 302.184 357.653C299.837 361.267 303.931 363.493 306.037 362.093C306.037 362.093 302.651 366.187 299.144 361.627C296.864 358.667 298.517 352.573 303.837 348.587L293.304 337.373L282.771 348.587C288.104 352.573 289.757 358.667 287.477 361.627C283.971 366.187 280.584 362.093 280.584 362.093C282.691 363.493 286.784 361.267 284.437 357.653C283.237 355.773 280.704 354.96 275.197 356.64L262.504 370.147L289.384 386.947Z" fill="#E11D25"/>
<path d="M49.6904 87.6408L54.637 85.0181L45.7703 78.3408L36.897 85.0181L41.841 87.6408L14.957 104.429L27.657 117.941C33.1544 119.622 35.6917 118.803 36.897 116.931C39.2343 113.309 35.1423 111.087 33.0383 112.489C33.0383 112.489 36.4277 108.399 39.9357 112.958C42.2077 115.911 40.5543 122.007 35.2316 125.997L45.7703 137.202L56.3036 125.997C50.9703 122.007 49.317 115.911 51.597 112.958C55.1037 108.399 58.4904 112.489 58.4904 112.489C56.3837 111.087 52.2903 113.309 54.637 116.931C55.837 118.803 58.3703 119.622 63.877 117.941L76.5703 104.429L49.6904 87.6408Z" fill="#E11D25"/>
<path d="M181.052 178.244L195.559 170.548L169.545 150.963L143.532 170.548L158.025 178.244L79.1719 227.483L116.425 267.12C132.559 272.053 139.999 269.653 143.532 264.16C150.385 253.533 138.385 247.015 132.212 251.128C132.212 251.128 142.159 239.132 152.439 252.507C159.105 261.16 154.252 279.04 138.639 290.747L169.545 323.613L200.439 290.747C184.825 279.04 179.972 261.16 186.639 252.507C196.919 239.132 206.865 251.128 206.865 251.128C200.692 247.015 188.692 253.533 195.559 264.16C199.092 269.653 206.532 272.053 222.652 267.12L259.905 227.483L181.052 178.244Z" fill="#E11D25"/>
</svg>
