<svg width="340" height="473" viewBox="0 0 340 473" fill="none" xmlns="http://www.w3.org/2000/svg">
<path d="M23.6198 472.914C11.1198 472.914 0.953125 462.745 0.953125 450.247V22.7208C0.953125 10.2141 11.1198 0.0541297 23.6198 0.0541297H316.44C328.937 0.0541297 339.106 10.2141 339.106 22.7208V450.247C339.106 462.745 328.937 472.914 316.44 472.914H23.6198Z" fill="#849393"/>
<path d="M316.441 2.72047H272.268L268.236 13.8004L263.866 2.72047H23.6211C12.5744 2.72047 3.62109 11.6671 3.62109 22.7205V450.247C3.62109 461.291 12.5744 470.247 23.6211 470.247H67.8571L71.8238 459.335L76.1225 470.247H316.441C327.485 470.247 336.441 461.291 336.441 450.247V22.7205C336.441 11.6671 327.485 2.72047 316.441 2.72047Z" fill="white"/>
<path d="M45.8197 34.0799L41.4504 49.0667L41.7864 49.4H50.1917L50.7957 48.7333C47.9264 38.96 46.2677 34.0799 45.8197 34.0799ZM40.173 19.08H52.073V19.4133C51.041 20.5866 50.5264 21.6133 50.5264 22.5066V22.84C57.5637 47.8133 61.709 61.5333 62.9663 64L64.5117 65V65.6133H53.3504V65.2667L54.829 62.7867C53.3944 56.9601 52.3637 54.04 51.737 54.04H40.173C39.4997 54.5866 38.581 57.4934 37.4157 62.7867L38.9624 65.2667V65.6133H27.7344V65C29.257 65 31.2304 59.9999 33.6504 50.0133C39.253 32.1733 42.0544 22.8 42.0544 21.9066L40.173 19.4133V19.08Z" fill="#E11D25"/>
<path d="M294.238 439.065L298.608 424.07L298.272 423.734H289.867L289.263 424.406C292.132 434.178 293.791 439.065 294.238 439.065ZM299.886 454.057H287.984V453.721C289.016 452.554 289.531 451.525 289.531 450.629V450.293C282.495 425.325 278.35 411.609 277.092 409.143L275.547 408.135V407.53H286.708V407.866L285.23 410.354C286.664 416.181 287.694 419.095 288.32 419.095H299.886C300.558 418.557 301.476 415.642 302.642 410.354L301.096 407.866V407.53H312.324V408.135C310.802 408.135 308.828 413.133 306.408 423.13C300.804 440.969 298.003 450.335 298.003 451.234L299.886 453.721V454.057Z" fill="#E11D25"/>
<path d="M289.875 386.219L284.932 388.843L293.801 395.521L302.67 388.843L297.726 386.219L324.61 369.431L311.91 355.919C306.412 354.239 303.875 355.058 302.67 356.928C300.331 360.551 304.422 362.772 306.527 361.371C306.527 361.371 303.138 365.462 299.631 360.903C297.359 357.95 299.012 351.854 304.334 347.863L293.801 336.658L283.267 347.863C288.591 351.854 290.246 357.95 287.972 360.903C284.466 365.462 281.074 361.371 281.074 361.371C283.179 362.772 287.271 360.551 284.932 356.928C283.725 355.058 281.192 354.239 275.694 355.919L262.992 369.431L289.875 386.219Z" fill="#E11D25"/>
<path d="M50.1826 86.9206L55.1266 84.2939L46.2572 77.6138L37.3893 84.2939L42.3332 86.9206L15.4492 103.707L28.1492 117.214C33.6466 118.894 36.1839 118.08 37.3893 116.214C39.7266 112.587 35.6359 110.361 33.5306 111.761C33.5306 111.761 36.9199 107.68 40.4279 112.24C42.6999 115.187 41.0466 121.28 35.7239 125.28L46.2572 136.48L56.7919 125.28C51.4679 121.28 49.8132 115.187 52.0852 112.24C55.5932 107.68 58.9839 111.761 58.9839 111.761C56.8799 110.361 52.7866 112.587 55.1266 116.214C56.3332 118.08 58.8653 118.894 64.3639 117.214L77.0665 103.707L50.1826 86.9206Z" fill="#E11D25"/>
<path d="M181.54 177.52L196.045 169.827L170.032 150.24L144.019 169.827L158.521 177.52L79.6641 226.762L116.916 266.399C133.041 271.328 140.481 268.926 144.019 263.438C150.875 252.812 138.875 246.294 132.703 250.407C132.703 250.407 142.643 238.411 152.933 251.782C159.599 260.444 154.748 278.322 139.135 290.028L170.032 322.894L200.927 290.028C185.313 278.322 180.464 260.444 187.124 251.782C197.413 238.411 207.359 250.407 207.359 250.407C201.187 246.294 189.179 252.812 196.045 263.438C199.581 268.926 207.016 271.328 223.14 266.399L260.401 226.762L181.54 177.52Z" fill="#E11D25"/>
<path d="M230.363 279.904C217.499 283.664 213.971 289.78 170.029 336.516C126.089 289.78 122.561 283.664 109.696 279.904C88.0294 273.57 77.316 297.904 77.316 297.904C77.316 297.904 98.696 311.237 106.363 299.57C114.029 287.904 133.029 297.904 122.696 307.57C112.363 317.237 112.363 349.904 112.363 349.904C112.363 349.904 123.029 322.904 134.029 316.57C145.029 310.237 147.696 334.544 135.029 336.724C135.029 336.724 155.071 342.446 170.029 360.982C184.989 342.446 205.029 336.724 205.029 336.724C192.363 334.544 195.029 310.237 206.029 316.57C217.029 322.904 227.696 349.904 227.696 349.904C227.696 349.904 227.696 317.237 217.363 307.57C207.029 297.904 226.029 287.904 233.696 299.57C241.363 311.237 262.744 297.904 262.744 297.904C262.744 297.904 252.029 273.57 230.363 279.904ZM242.061 268.945C278.189 286.74 278.728 258.7 278.728 258.7C247.993 248.454 242.061 268.945 242.061 268.945ZM97.9987 268.945C61.8707 286.74 61.332 258.7 61.332 258.7C92.0667 248.454 97.9987 268.945 97.9987 268.945Z" fill="#100F0D"/>
<path d="M101.031 174.121C108.725 177.494 112.467 185.441 114.114 194.254L139.787 178.214L139.845 178.174L126.689 171.201L170.035 138.561L213.383 171.201L200.222 178.174L200.25 178.201L225.951 194.24C227.598 185.44 231.341 177.494 239.031 174.121C239.031 174.121 227.031 165.121 216.365 170.121C216.365 170.121 213.365 145.121 236.365 138.787C236.365 138.787 210.698 132.121 193.698 140.454C193.698 140.454 187.166 122.414 170.031 107.054C152.898 122.414 146.365 140.454 146.365 140.454C129.365 132.121 103.698 138.787 103.698 138.787C126.698 145.121 123.698 170.121 123.698 170.121C113.031 165.121 101.031 174.121 101.031 174.121Z" fill="#100F0D"/>
</svg>
