<svg width="339" height="474" viewBox="0 0 339 474" fill="none" xmlns="http://www.w3.org/2000/svg">
<path d="M23.0846 473.146C10.5846 473.146 0.417969 462.977 0.417969 450.48V22.9464C0.417969 10.4531 10.5846 0.279781 23.0846 0.279781H315.906C328.403 0.279781 338.573 10.4531 338.573 22.9464V450.48C338.573 462.977 328.403 473.146 315.906 473.146H23.0846Z" fill="#849393"/>
<path d="M315.907 2.94612H271.734L267.701 14.0395L263.333 2.94612H23.0859C12.0393 2.94612 3.08594 11.9061 3.08594 22.9461V450.479C3.08594 461.525 12.0393 470.479 23.0859 470.479H67.322L71.2899 459.569L75.5873 470.479H315.907C326.951 470.479 335.907 461.525 335.907 450.479V22.9461C335.907 11.9061 326.951 2.94612 315.907 2.94612Z" fill="white"/>
<path d="M45.2859 34.3065L40.9165 49.3065L41.2512 49.6398H49.6552L50.2592 48.9732C47.3926 39.1998 45.7339 34.3065 45.2859 34.3065ZM39.6379 19.3199H51.5379V19.6533C50.5072 20.8133 49.9912 21.8532 49.9912 22.7465V23.0798C57.0272 48.0532 61.1739 61.7599 62.4312 64.2266L63.9752 65.2398V65.8398H52.8139V65.5065L54.2939 63.0132C52.8592 57.1865 51.8299 54.2798 51.2019 54.2798H39.6379C38.9659 54.8132 38.0459 57.7332 36.8819 63.0132L38.4259 65.5065V65.8398H27.1992V65.2398C28.7232 65.2398 30.6939 60.2398 33.1165 50.2398C38.7179 32.3998 41.5206 23.0399 41.5206 22.1332L39.6379 19.6533V19.3199Z" fill="#100F0D"/>
<path d="M293.701 439.299L298.073 424.304L297.737 423.968H289.332L288.728 424.639C291.596 434.412 293.254 439.299 293.701 439.299ZM299.35 454.291H287.449V453.955C288.48 452.788 288.996 451.758 288.996 450.862V450.527C281.96 425.559 277.813 411.843 276.557 409.378L275.012 408.368V407.764H286.173V408.1L284.693 410.587C286.129 416.415 287.158 419.33 287.785 419.33H299.35C300.022 418.791 300.941 415.876 302.106 410.587L300.561 408.1V407.764H311.789V408.368C310.265 408.368 308.293 413.366 305.872 423.363C300.269 441.202 297.468 450.57 297.468 451.468L299.35 453.955V454.291Z" fill="#100F0D"/>
<path d="M169.499 276.604L162.296 283.475C162.296 283.475 160.401 298.619 152.339 307.773L169.499 323.292L186.659 307.773C178.592 298.619 176.697 283.475 176.697 283.475L169.499 276.604ZM251.955 282.383C255.743 214.96 213.883 203.56 204.015 225.801C198.765 237.632 206.955 254.851 215.945 257.524C226.921 260.781 225.715 249.633 225.715 249.633C225.715 249.633 223.111 253.071 219.719 252.551C213.035 251.524 216.633 240.375 223.66 240.375C230.695 240.375 239.953 245.86 242.184 267.808C245.439 299.887 210.797 302.744 189.715 284.265C181.449 277.021 174.094 267.469 169.499 260.921C164.902 267.469 157.544 277.021 149.279 284.265C128.196 302.744 93.5548 299.887 96.8095 267.808C99.0441 245.86 108.303 240.375 115.33 240.375C122.362 240.375 125.959 251.524 119.275 252.551C115.887 253.071 113.275 249.633 113.275 249.633C113.275 249.633 112.076 260.781 123.044 257.524C132.039 254.851 140.227 237.632 134.984 225.801C125.115 203.56 83.2508 214.96 87.0388 282.383C87.0388 282.383 75.7601 269.028 75.7228 250.66C75.6815 228.201 84.4695 204.027 119.959 180.88C140.556 167.453 158.263 156.853 169.499 150.32C180.732 156.853 198.437 167.453 219.031 180.88C254.521 204.027 263.312 228.201 263.267 250.66C263.236 269.028 251.955 282.383 251.955 282.383Z" fill="#100F0D"/>
<path d="M209.159 327.137C220.826 345.804 235.492 333.137 235.492 333.137C224.492 332.471 220.826 318.471 230.492 312.804C233.634 310.963 233.808 306.937 232.628 302.346C228.356 304.084 223.571 305.028 218.438 305.028C208.82 305.028 198.886 301.917 190.23 296.322C191.191 298.262 192.326 300.097 193.654 301.605L199.742 308.518L169.492 335.871L139.244 308.518L145.331 301.605C146.659 300.097 147.795 298.262 148.755 296.322C140.099 301.917 130.164 305.028 120.547 305.028C115.415 305.028 110.63 304.084 106.358 302.346C105.176 306.937 105.352 310.963 108.492 312.804C118.159 318.471 114.492 332.471 103.492 333.137C103.492 333.137 118.159 345.804 129.826 327.137C141.492 308.471 146.159 341.471 135.826 341.471C125.492 341.471 111.492 360.471 111.492 360.471C111.492 360.471 141.159 372.137 147.492 349.804C153.826 327.471 165.826 353.173 147.492 366.321C147.492 366.321 156.14 365.992 169.492 376.913C182.844 365.992 191.492 366.321 191.492 366.321C173.159 353.173 185.159 327.471 191.492 349.804C197.826 372.137 227.492 360.471 227.492 360.471C227.492 360.471 213.492 341.471 203.159 341.471C192.826 341.471 197.492 308.471 209.159 327.137Z" fill="#E11D25"/>
<path d="M169.494 118.84C145.938 139.813 111.715 152.8 111.715 152.8C117.94 155.227 122.711 160.2 126.299 165.693C142.116 155.64 155.605 147.6 164.804 142.24L169.494 139.52L174.183 142.24C183.382 147.6 196.871 155.64 212.69 165.693C216.276 160.2 221.047 155.227 227.272 152.8C227.272 152.8 193.05 139.813 169.494 118.84Z" fill="#E11D25"/>
<path d="M91.6389 295.809C95.0443 301.799 95.5056 306.321 90.9349 312C86.0362 318.084 68.9656 323.185 64.5709 308.067C60.1776 292.947 81.6856 290.629 78.5523 300.615C76.2456 307.972 83.9629 309.145 87.5402 306.805C91.6522 304.119 90.5056 296.676 89.8496 293.692L91.6389 295.809Z" fill="#100F0D"/>
<path d="M249.14 293.692C248.484 296.676 247.337 304.119 251.449 306.805C255.028 309.145 262.745 307.972 260.437 300.615C257.305 290.629 278.812 292.947 274.418 308.067C270.025 323.185 252.953 318.084 248.054 312C243.484 306.321 243.945 301.799 247.352 295.809L249.14 293.692Z" fill="#100F0D"/>
</svg>
