<svg width="339" height="474" viewBox="0 0 339 474" fill="none" xmlns="http://www.w3.org/2000/svg">
<path d="M22.7641 473.607C10.2643 473.607 0.0976562 463.438 0.0976562 450.941V23.4101C0.0976562 10.9101 10.2643 0.742085 22.7641 0.742085H315.584C328.083 0.742085 338.251 10.9101 338.251 23.4101V450.941C338.251 463.438 328.083 473.607 315.584 473.607H22.7641Z" fill="#849393"/>
<path d="M315.585 3.4094H271.415L267.38 14.4988L263.013 3.4094H22.7654C11.7188 3.4094 2.76562 12.3641 2.76562 23.4108V450.941C2.76562 461.985 11.7188 470.941 22.7654 470.941H67.0027L70.9694 460.029L75.268 470.941H315.585C326.631 470.941 335.585 461.985 335.585 450.941V23.4108C335.585 12.3641 326.631 3.4094 315.585 3.4094Z" fill="white"/>
<path d="M35.0148 19.6411H54.6468C57.6935 19.6411 59.2175 21.9958 59.2175 26.7011V31.6105C59.2175 36.3611 57.8948 39.5225 55.2508 41.0891C46.6441 48.8011 41.2228 54.0225 38.9801 56.7558V60.4545C39.0255 60.8585 39.2255 61.0585 39.5841 61.0585H45.4361C53.0095 61.0585 58.2095 57.8998 61.0321 51.5798H61.7068C59.9575 61.1718 58.8135 65.9678 58.2775 65.9678H30.7095C30.3055 65.9678 30.1055 65.7652 30.1055 65.3625V56.7558C30.1055 54.1118 34.2961 49.5171 42.6788 42.9718C47.7881 38.4011 50.3428 35.5318 50.3428 34.3652C50.5668 33.6052 50.6788 32.6865 50.6788 31.6105V27.3064C50.6788 25.6491 49.8508 24.8185 48.1921 24.8185H42.0748C40.5948 24.8185 39.6761 25.3345 39.3161 26.3652V30.3318C39.3161 31.0945 36.4468 32.4398 30.7095 34.3652L30.3735 33.7611V25.1545C30.3735 21.4798 31.9201 19.6411 35.0148 19.6411Z" fill="#100F0D"/>
<path d="M303.334 454.887H283.701C280.651 454.887 279.129 452.532 279.129 447.827V442.917C279.129 438.167 280.451 435.007 283.094 433.439C291.701 425.728 297.126 420.507 299.365 417.772V414.075C299.321 413.671 299.121 413.471 298.761 413.471H292.913C285.337 413.471 280.137 416.629 277.313 422.949H276.641C278.389 413.357 279.531 408.561 280.069 408.561H307.637C308.039 408.561 308.241 408.763 308.241 409.165V417.772C308.241 420.417 304.05 425.012 295.667 431.556C290.558 436.128 288.003 438.996 288.003 440.163C287.779 440.923 287.667 441.843 287.667 442.917V447.221C287.667 448.879 288.498 449.709 290.154 449.709H296.274C297.753 449.709 298.673 449.195 299.029 448.163V444.196C299.029 443.433 301.899 442.088 307.637 440.163L307.971 440.767V449.373C307.971 453.048 306.425 454.887 303.334 454.887Z" fill="#100F0D"/>
<path d="M292.946 353.215L295.399 350.871C295.399 350.871 296.045 345.71 298.795 342.588L292.946 337.299L287.094 342.588C289.845 345.71 290.49 350.871 290.49 350.871L292.946 353.215ZM264.834 351.246C263.542 374.231 277.813 378.119 281.178 370.535C282.965 366.501 280.175 360.632 277.107 359.72C273.367 358.61 273.777 362.411 273.777 362.411C273.777 362.411 274.667 361.239 275.823 361.416C278.102 361.766 276.875 365.567 274.477 365.567C272.082 365.567 268.925 363.696 268.165 356.212C267.055 345.278 278.865 344.304 286.05 350.603C288.87 353.074 291.378 356.33 292.946 358.562C294.514 356.33 297.022 353.074 299.839 350.603C307.025 344.304 318.834 345.278 317.725 356.212C316.965 363.696 313.807 365.567 311.413 365.567C309.017 365.567 307.787 361.766 310.066 361.416C311.222 361.239 312.113 362.411 312.113 362.411C312.113 362.411 312.522 358.61 308.782 359.72C305.717 360.632 302.925 366.501 304.711 370.535C308.077 378.119 322.347 374.231 321.055 351.246C321.055 351.246 324.902 355.799 324.915 362.059C324.927 369.716 321.933 377.959 309.834 385.85C302.813 390.428 296.777 394.042 292.946 396.27C289.113 394.042 283.079 390.428 276.058 385.85C263.957 377.959 260.959 369.716 260.977 362.059C260.987 355.799 264.834 351.246 264.834 351.246Z" fill="#100F0D"/>
<path d="M45.4017 121.313L42.9457 123.657C42.9457 123.657 42.3004 128.818 39.5497 131.94L45.4017 137.23L51.2497 131.94C48.5031 128.818 47.8577 123.657 47.8577 123.657L45.4017 121.313ZM73.5111 123.284C74.8031 100.298 60.5311 96.4105 57.1697 103.993C55.3804 108.028 58.1697 113.897 61.2377 114.808C64.9791 115.918 64.5684 112.118 64.5684 112.118C64.5684 112.118 63.6777 113.29 62.5217 113.113C60.2431 112.762 61.4697 108.963 63.8671 108.963C66.2631 108.963 69.4191 110.832 70.1804 118.316C71.2924 129.25 59.4791 130.225 52.2951 123.925C49.4737 121.456 46.9697 118.198 45.4017 115.968C43.8337 118.198 41.3257 121.456 38.5084 123.925C31.3204 130.225 19.5111 129.25 20.6204 118.316C21.3804 110.832 24.5364 108.963 26.9324 108.963C29.3311 108.963 30.5577 112.762 28.2791 113.113C27.1231 113.29 26.2324 112.118 26.2324 112.118C26.2324 112.118 25.8231 115.918 29.5631 114.808C32.6311 113.897 35.4217 108.028 33.6337 103.993C30.2684 96.4105 15.9977 100.298 17.2897 123.284C17.2897 123.284 13.4431 118.73 13.4297 112.47C13.4164 104.812 16.4124 96.5705 28.5111 88.6798C35.5337 84.0998 41.5711 80.4865 45.4017 78.2585C49.2324 80.4865 55.2684 84.0998 62.2897 88.6798C74.3884 96.5705 77.3857 104.812 77.3697 112.47C77.3577 118.73 73.5111 123.284 73.5111 123.284Z" fill="#100F0D"/>
<path d="M168.776 277.289L161.572 284.16C161.572 284.16 159.677 299.304 151.615 308.458L168.776 323.976L185.935 308.458C177.869 299.304 175.973 284.16 175.973 284.16L168.776 277.289ZM251.232 283.068C255.017 215.645 213.159 204.241 203.291 226.485C198.041 238.316 206.232 255.534 215.221 258.208C226.197 261.466 224.992 250.317 224.992 250.317C224.992 250.317 222.388 253.754 218.995 253.236C212.312 252.208 215.908 241.06 222.937 241.06C229.971 241.06 239.229 246.544 241.46 268.493C244.716 300.572 210.072 303.428 188.992 284.95C180.727 277.705 173.369 268.153 168.776 261.606C164.177 268.153 156.82 277.705 148.555 284.95C127.473 303.428 92.8308 300.572 96.0855 268.493C98.3202 246.544 107.577 241.06 114.607 241.06C121.637 241.06 125.235 252.208 118.552 253.236C115.164 253.754 112.552 250.317 112.552 250.317C112.552 250.317 111.351 261.466 122.32 258.208C131.315 255.534 139.503 238.316 134.26 226.485C124.391 204.241 82.5255 215.645 86.3148 283.068C86.3148 283.068 75.0362 269.712 75.0002 251.345C74.9575 228.886 83.7442 204.71 119.235 181.566C139.833 168.134 157.539 157.534 168.776 151C180.008 157.534 197.713 168.134 218.307 181.566C253.796 204.71 262.588 228.886 262.544 251.345C262.513 269.712 251.232 283.068 251.232 283.068Z" fill="#100F0D"/>
</svg>
