<svg width="339" height="474" viewBox="0 0 339 474" fill="none" xmlns="http://www.w3.org/2000/svg">
<path d="M23.0846 473.76C10.5846 473.76 0.417969 463.586 0.417969 451.093V23.5586C0.417969 11.0613 10.5846 0.891923 23.0846 0.891923H315.906C328.403 0.891923 338.573 11.0613 338.573 23.5586V451.093C338.573 463.586 328.403 473.76 315.906 473.76H23.0846Z" fill="#849393"/>
<path d="M315.907 3.55919H271.734L267.701 14.6485L263.333 3.55919H23.0859C12.0393 3.55919 3.08594 12.5152 3.08594 23.5592V451.094C3.08594 462.134 12.0393 471.094 23.0859 471.094H67.322L71.2899 460.174L75.5873 471.094H315.907C326.951 471.094 335.907 462.134 335.907 451.094V23.5592C335.907 12.5152 326.951 3.55919 315.907 3.55919Z" fill="white"/>
<path d="M40.2752 47.6945V58.9225C40.2752 60.3132 40.8592 61.0065 42.0259 61.0065H48.8139C49.9805 61.0065 50.5646 60.3132 50.5646 58.9225V47.6945C50.5646 46.9332 49.9805 46.4172 48.8139 46.1479C48.5899 46.1479 47.4472 46.2145 45.3872 46.3505C45.2072 46.3505 44.0846 46.2826 42.0259 46.1479C40.8592 46.4172 40.2752 46.9332 40.2752 47.6945ZM40.2752 26.5826V40.0972C40.7232 40.8612 41.3059 41.2412 42.0259 41.2412H48.8139C49.5325 41.2412 50.1139 40.8612 50.5646 40.0972V26.5826C50.5646 25.3279 49.5539 24.6985 47.5379 24.6985H43.9085C41.6219 24.6985 40.4779 25.1479 40.4779 26.0452C40.3432 26.0452 40.2752 26.2252 40.2752 26.5826ZM35.5019 19.7919H55.2699C56.5259 19.7919 57.7339 20.4879 58.9005 21.8759C59.2592 22.3692 59.5072 23.6239 59.6392 25.6412L59.4392 26.0452C59.4392 26.3586 59.5072 27.3012 59.6392 28.8679C59.5072 31.0665 59.4392 32.3425 59.4392 32.7012L59.6392 33.9772C59.6392 34.1132 59.5725 34.3145 59.4392 34.5839C59.5725 35.4799 59.6392 36.2439 59.6392 36.8692C59.6392 39.5585 59.0805 41.3972 57.9605 42.3826V42.5172C59.0805 43.5919 59.6392 45.1852 59.6392 47.2905C59.6392 48.4132 59.5725 49.6892 59.4392 51.1239C59.5725 53.4545 59.6392 55.5385 59.6392 57.3759C59.6392 62.0839 59.2125 64.4359 58.3632 64.4359C57.6445 65.5572 56.1659 66.1172 53.9259 66.1172H36.8486C34.0232 66.1172 32.1846 64.9732 31.3352 62.6892C31.2446 59.4612 31.1992 57.5559 31.1992 56.9719C31.1992 55.4052 31.2446 53.4545 31.3352 51.1239C31.2446 49.6439 31.1992 48.2559 31.1992 46.9545C31.1992 45.1625 31.7592 43.6839 32.8792 42.5172V42.3826C31.7592 41.4866 31.1992 39.4479 31.1992 36.2639C31.1992 35.9519 31.2446 35.4572 31.3352 34.7852L31.1992 33.9772C31.1992 33.8892 31.2446 33.3972 31.3352 32.4985C31.2446 30.6172 31.1992 29.3399 31.1992 28.6679L31.3352 26.0452C31.3352 25.9106 31.2886 25.8425 31.1992 25.8425C31.1992 22.7065 32.1392 20.8012 34.0232 20.1292C34.9179 19.9052 35.4139 19.7919 35.5019 19.7919Z" fill="#100F0D"/>
<path d="M298.712 427.132V415.906C298.712 414.519 298.129 413.825 296.962 413.825H290.173C289.006 413.825 288.424 414.519 288.424 415.906V427.132C288.424 427.892 289.006 428.413 290.173 428.679C290.397 428.679 291.54 428.612 293.601 428.479C293.781 428.479 294.902 428.546 296.962 428.679C298.129 428.413 298.712 427.892 298.712 427.132ZM298.712 448.239V434.732C298.264 433.972 297.681 433.585 296.962 433.585H290.173C289.456 433.585 288.873 433.972 288.424 434.732V448.239C288.424 449.506 289.433 450.132 291.449 450.132H295.081C297.365 450.132 298.509 449.679 298.509 448.785C298.644 448.785 298.712 448.599 298.712 448.239ZM303.485 455.039H283.717C282.464 455.039 281.253 454.345 280.086 452.945C279.729 452.452 279.481 451.199 279.348 449.185L279.549 448.785C279.549 448.466 279.481 447.532 279.348 445.959C279.481 443.759 279.549 442.479 279.549 442.132L279.348 440.852C279.348 440.719 279.416 440.506 279.549 440.239C279.416 439.345 279.348 438.585 279.348 437.959C279.348 435.266 279.908 433.425 281.028 432.439V432.306C279.908 431.239 279.348 429.639 279.348 427.532C279.348 426.413 279.416 425.132 279.549 423.706C279.416 421.372 279.348 419.292 279.348 417.452C279.348 412.746 279.774 410.385 280.625 410.385C281.342 409.266 282.821 408.706 285.062 408.706H302.14C304.965 408.706 306.804 409.852 307.653 412.145C307.744 415.372 307.788 417.266 307.788 417.852C307.788 419.425 307.744 421.372 307.653 423.706C307.744 425.185 307.788 426.572 307.788 427.866C307.788 429.666 307.228 431.145 306.108 432.306V432.439C307.228 433.345 307.788 435.385 307.788 438.559C307.788 438.879 307.744 439.372 307.653 440.039L307.788 440.852C307.788 440.932 307.744 441.425 307.653 442.332C307.744 444.213 307.788 445.492 307.788 446.159L307.653 448.785C307.653 448.919 307.698 448.985 307.788 448.985C307.788 452.119 306.848 454.025 304.965 454.706C304.069 454.919 303.576 455.039 303.485 455.039Z" fill="#100F0D"/>
<path d="M293.265 353.36L295.72 351.027C295.72 351.027 296.365 345.854 299.116 342.734L293.265 337.454L287.416 342.734C290.164 345.854 290.809 351.027 290.809 351.027L293.265 353.36ZM265.154 351.4C263.862 374.387 278.134 378.267 281.497 370.68C283.285 366.654 280.496 360.787 277.428 359.867C273.688 358.76 274.097 362.56 274.097 362.56C274.097 362.56 274.988 361.387 276.144 361.56C278.422 361.92 277.196 365.72 274.798 365.72C272.402 365.72 269.246 363.84 268.485 356.36C267.374 345.427 279.186 344.454 286.37 350.747C289.192 353.227 291.697 356.48 293.265 358.707C294.833 356.48 297.341 353.227 300.158 350.747C307.345 344.454 319.154 345.427 318.045 356.36C317.285 363.84 314.129 365.72 311.733 365.72C309.336 365.72 308.108 361.92 310.386 361.56C311.542 361.387 312.433 362.56 312.433 362.56C312.433 362.56 312.842 358.76 309.102 359.867C306.036 360.787 303.245 366.654 305.032 370.68C308.397 378.267 322.668 374.387 321.376 351.4C321.376 351.4 325.222 355.947 325.236 362.214C325.249 369.867 322.253 378.107 310.154 386C303.133 390.574 297.096 394.187 293.265 396.414C289.433 394.187 283.398 390.574 276.377 386C264.277 378.107 261.28 369.867 261.297 362.214C261.308 355.947 265.154 351.4 265.154 351.4Z" fill="#100F0D"/>
<path d="M45.7221 121.464L43.266 123.807C43.266 123.807 42.6207 128.969 39.8701 132.089L45.7221 137.38L51.5714 132.089C48.8234 128.969 48.1781 123.807 48.1781 123.807L45.7221 121.464ZM73.8314 123.433C75.1234 100.448 60.8527 96.5599 57.49 104.143C55.7007 108.177 58.4901 114.047 61.5581 114.959C65.2994 116.069 64.8887 112.268 64.8887 112.268C64.8887 112.268 63.9981 113.44 62.8421 113.263C60.5634 112.913 61.7901 109.112 64.1887 109.112C66.5834 109.112 69.7407 110.981 70.5007 118.467C71.6114 129.401 59.8007 130.375 52.6154 124.076C49.7954 121.605 47.2901 118.349 45.7221 116.117C44.1541 118.349 41.646 121.605 38.8287 124.076C31.6407 130.375 19.8314 129.401 20.9407 118.467C21.7007 110.981 24.858 109.112 27.2527 109.112C29.6514 109.112 30.8781 112.913 28.5994 113.263C27.4434 113.44 26.5527 112.268 26.5527 112.268C26.5527 112.268 26.1434 116.069 29.8834 114.959C32.9514 114.047 35.7434 108.177 33.954 104.143C30.5887 96.5599 16.3181 100.448 17.6101 123.433C17.6101 123.433 13.7634 118.88 13.75 112.62C13.738 104.963 16.7327 96.7199 28.8314 88.8292C35.8554 84.2505 41.8914 80.6372 45.7221 78.4092C49.5527 80.6372 55.5887 84.2505 62.61 88.8292C74.7074 96.7199 77.7047 104.963 77.69 112.62C77.678 118.88 73.8314 123.433 73.8314 123.433Z" fill="#100F0D"/>
<path d="M169.499 277.213L162.296 284.08C162.296 284.08 160.401 299.226 152.339 308.386L169.499 323.906L186.659 308.386C178.592 299.226 176.697 284.08 176.697 284.08L169.499 277.213ZM251.955 283C255.743 215.572 213.883 204.166 204.015 226.412C198.765 238.242 206.955 255.466 215.945 258.133C226.921 261.386 225.715 250.244 225.715 250.244C225.715 250.244 223.111 253.68 219.719 253.16C213.035 252.134 216.633 240.985 223.66 240.985C230.695 240.985 239.953 246.47 242.184 268.413C245.439 300.493 210.797 303.36 189.715 284.88C181.449 277.626 174.094 268.08 169.499 261.533C164.902 268.08 157.544 277.626 149.279 284.88C128.196 303.36 93.5548 300.493 96.8095 268.413C99.0441 246.47 108.303 240.985 115.33 240.985C122.362 240.985 125.959 252.134 119.275 253.16C115.887 253.68 113.275 250.244 113.275 250.244C113.275 250.244 112.076 261.386 123.044 258.133C132.039 255.466 140.227 238.242 134.984 226.412C125.115 204.166 83.2508 215.572 87.0388 283C87.0388 283 75.7601 269.64 75.7228 251.27C75.6815 228.812 84.4695 204.637 119.959 181.492C140.556 168.06 158.263 157.461 169.499 150.925C180.732 157.461 198.437 168.06 219.031 181.492C254.521 204.637 263.312 228.812 263.267 251.27C263.236 269.64 251.955 283 251.955 283Z" fill="#100F0D"/>
</svg>
