<svg width="339" height="474" viewBox="0 0 339 474" fill="none" xmlns="http://www.w3.org/2000/svg">
<path d="M23.4049 473.76C10.9049 473.76 0.738281 463.586 0.738281 451.093V23.5599C0.738281 11.0599 10.9049 0.893257 23.4049 0.893257H316.225C328.722 0.893257 338.892 11.0599 338.892 23.5599V451.093C338.892 463.586 328.722 473.76 316.225 473.76H23.4049Z" fill="#849393"/>
<path d="M316.226 3.56052H272.053L268.021 14.6485L263.652 3.56052H23.4062C12.3596 3.56052 3.40625 12.5139 3.40625 23.5605V451.094C3.40625 462.134 12.3596 471.094 23.4062 471.094H67.6409L71.6089 460.174L75.9076 471.094H316.226C327.27 471.094 336.226 462.134 336.226 451.094V23.5605C336.226 12.5139 327.27 3.56052 316.226 3.56052Z" fill="white"/>
<path d="M39.8898 26.5839V35.9279C39.8898 37.7665 42.5857 39.2239 47.9777 40.2999C47.9777 40.5679 49.0911 40.9719 51.3204 41.5092L51.6564 40.9039V26.3132C51.1204 25.0599 50.2964 24.4305 49.1831 24.4305H42.0964C40.6258 24.4305 39.8898 25.1479 39.8898 26.5839ZM35.1844 19.7919H56.3618C59.0524 20.4639 60.3978 21.8092 60.3978 23.8252V62.0839C59.6791 64.7732 58.3351 66.1172 56.3618 66.1172H35.1844C32.4938 65.4452 31.1484 64.0999 31.1484 62.0839V49.9146L31.4178 49.3079C36.5244 51.1905 39.3484 52.4465 39.8898 53.0732V59.2585C39.8898 60.7385 40.6258 61.4772 42.0964 61.4772H49.4497C50.9204 61.4772 51.6564 60.7385 51.6564 59.2585V49.0385C51.6564 47.1559 48.9671 45.6999 43.5871 44.6692C35.2951 42.2945 31.1484 39.8052 31.1484 37.2052V23.8252C31.8218 21.1372 33.1671 19.7919 35.1844 19.7919Z" fill="#100F0D"/>
<path d="M299.738 448.239V438.892C299.738 437.066 297.041 435.599 291.649 434.532C291.649 434.266 290.534 433.852 288.306 433.319L287.97 433.919V448.519C288.506 449.772 289.332 450.399 290.445 450.399H297.53C299.001 450.399 299.738 449.679 299.738 448.239ZM304.444 455.039H283.264C280.576 454.359 279.23 453.012 279.23 450.999V412.746C279.949 410.052 281.293 408.706 283.264 408.706H304.444C307.134 409.385 308.477 410.732 308.477 412.746V424.919L308.209 425.519C303.102 423.639 300.28 422.385 299.738 421.759V415.572C299.738 414.092 299.001 413.345 297.53 413.345H290.178C288.706 413.345 287.97 414.092 287.97 415.572V425.785C287.97 427.666 290.66 429.132 296.04 430.159C304.332 432.532 308.477 435.025 308.477 437.625V450.999C307.805 453.692 306.461 455.039 304.444 455.039Z" fill="#100F0D"/>
<path d="M293.585 353.36L296.04 351.027C296.04 351.027 296.687 345.854 299.436 342.734L293.585 337.454L287.736 342.734C290.484 345.854 291.131 351.027 291.131 351.027L293.585 353.36ZM265.475 351.4C264.184 374.387 278.455 378.267 281.817 370.68C283.605 366.654 280.816 360.787 277.749 359.867C274.008 358.76 274.417 362.56 274.417 362.56C274.417 362.56 275.308 361.387 276.465 361.56C278.744 361.92 277.517 365.72 275.119 365.72C272.723 365.72 269.567 363.84 268.805 356.36C267.695 345.427 279.507 344.454 286.692 350.747C289.512 353.227 292.019 356.48 293.585 358.707C295.153 356.48 297.661 353.227 300.479 350.747C307.665 344.454 319.475 345.427 318.365 356.36C317.605 363.84 314.449 365.72 312.053 365.72C309.656 365.72 308.428 361.92 310.707 361.56C311.863 361.387 312.753 362.56 312.753 362.56C312.753 362.56 313.163 358.76 309.423 359.867C306.357 360.787 303.565 366.654 305.353 370.68C308.717 378.267 322.988 374.387 321.696 351.4C321.696 351.4 325.543 355.947 325.556 362.214C325.569 369.867 322.575 378.107 310.475 386C303.453 390.574 297.416 394.187 293.585 396.414C289.753 394.187 283.719 390.574 276.697 386C264.597 378.107 261.6 369.867 261.617 362.214C261.629 355.947 265.475 351.4 265.475 351.4Z" fill="#100F0D"/>
<path d="M46.0397 121.464L43.5837 123.807C43.5837 123.807 42.9384 128.969 40.1904 132.089L46.0397 137.38L51.8904 132.089C49.1411 128.969 48.4958 123.807 48.4958 123.807L46.0397 121.464ZM74.1504 123.433C75.4424 100.448 61.1717 96.5599 57.8077 104.143C56.0197 108.177 58.809 114.047 61.8757 114.959C65.6184 116.069 65.2064 112.268 65.2064 112.268C65.2064 112.268 64.3171 113.44 63.1611 113.263C60.8824 112.913 62.109 109.112 64.5064 109.112C66.9037 109.112 70.0597 110.981 70.8197 118.467C71.9304 129.401 60.1197 130.375 52.9331 124.076C50.1144 121.605 47.6077 118.349 46.0397 116.117C44.4717 118.349 41.9651 121.605 39.1464 124.076C31.9597 130.375 20.1491 129.401 21.2584 118.467C22.0211 110.981 25.177 109.112 27.573 109.112C29.969 109.112 31.1957 112.913 28.917 113.263C27.7624 113.44 26.8717 112.268 26.8717 112.268C26.8717 112.268 26.4637 116.069 30.2024 114.959C33.2691 114.047 36.061 108.177 34.273 104.143C30.909 96.5599 16.6357 100.448 17.9277 123.433C17.9277 123.433 14.0824 118.88 14.0704 112.62C14.0557 104.963 17.0517 96.7199 29.1504 88.8292C36.173 84.2505 42.209 80.6372 46.0397 78.4092C49.8704 80.6372 55.9077 84.2505 62.9277 88.8292C75.0264 96.7199 78.025 104.963 78.009 112.62C77.997 118.88 74.1504 123.433 74.1504 123.433Z" fill="#100F0D"/>
<path d="M169.819 277.213L162.616 284.08C162.616 284.08 160.722 299.226 152.659 308.386L169.819 323.906L186.979 308.386C178.914 299.226 177.019 284.08 177.019 284.08L169.819 277.213ZM252.275 283C256.063 215.572 214.203 204.166 204.335 226.412C199.086 238.242 207.275 255.466 216.266 258.133C227.243 261.386 226.035 250.244 226.035 250.244C226.035 250.244 223.431 253.68 220.039 253.16C213.356 252.134 216.954 240.985 223.98 240.985C231.016 240.985 240.274 246.47 242.504 268.413C245.759 300.493 211.118 303.36 190.035 284.88C181.77 277.626 174.415 268.08 169.819 261.533C165.222 268.08 157.864 277.626 149.599 284.88C128.518 303.36 93.8751 300.493 97.1311 268.413C99.3645 246.47 108.623 240.985 115.65 240.985C122.682 240.985 126.279 252.134 119.595 253.16C116.207 253.68 113.595 250.244 113.595 250.244C113.595 250.244 112.396 261.386 123.364 258.133C132.36 255.466 140.547 238.242 135.306 226.412C125.435 204.166 83.5712 215.572 87.3605 283C87.3605 283 76.0818 269.64 76.0431 251.27C76.0018 228.812 84.7898 204.637 120.279 181.492C140.876 168.06 158.584 157.461 169.819 150.925C181.052 157.461 198.758 168.06 219.352 181.492C254.842 204.637 263.634 228.812 263.587 251.27C263.557 269.64 252.275 283 252.275 283Z" fill="#100F0D"/>
</svg>
