<svg width="339" height="474" viewBox="0 0 339 474" fill="none" xmlns="http://www.w3.org/2000/svg">
<path d="M22.7253 473.146C10.2253 473.146 0.0585938 462.977 0.0585938 450.48V22.9464C0.0585938 10.4531 10.2253 0.279781 22.7253 0.279781H315.545C328.039 0.279781 338.212 10.4531 338.212 22.9464V450.48C338.212 462.977 328.039 473.146 315.545 473.146H22.7253Z" fill="#849393"/>
<path d="M315.546 2.94612H271.373L267.346 14.0395L262.973 2.94612H22.7266C11.6799 2.94612 2.72656 11.9061 2.72656 22.9461V450.479C2.72656 461.525 11.6799 470.479 22.7266 470.479H66.9599L70.9332 459.569L75.2266 470.479H315.546C326.586 470.479 335.546 461.525 335.546 450.479V22.9461C335.546 11.9061 326.586 2.94612 315.546 2.94612Z" fill="white"/>
<path d="M224.784 418.909C224.784 376.167 252.091 339.817 290.211 326.316V48.2798H113.251C113.384 50.3998 113.491 52.5333 113.491 54.6933C113.491 97.4399 86.1708 133.787 48.0508 147.293V425.146H224.997C224.877 423.082 224.784 421.007 224.784 418.909Z" fill="#F1EAD7"/>
<path d="M39.1086 26.1067V58.9868C39.1086 60.4668 39.8285 61.2001 41.2725 61.2001H46.9445V60.5868C43.9752 56.2134 42.4885 53.6801 42.4885 53.0001H50.3979L51.0112 52.3334V25.7734C50.4645 24.4667 49.6379 23.8268 48.5046 23.8268H41.2725C39.8285 23.8268 39.1086 24.5867 39.1086 26.1067ZM34.402 19.1868H55.718C58.398 19.8534 59.7445 21.2 59.7445 23.2133V61.7467C59.7445 62.3733 59.2379 63.5334 58.1979 65.24C58.6112 66.9867 60.4913 69.1601 63.8513 71.7601H64.4513V72.4268H58.5445C55.3579 72.4268 52.5312 70.24 50.0646 65.84H34.402C31.7126 65.1734 30.3672 63.8 30.3672 61.7467V23.2133C31.0392 20.52 32.3846 19.1868 34.402 19.1868Z" fill="#100F0D"/>
<path d="M299.159 447.496V414.627C299.159 413.144 298.439 412.404 296.999 412.404H291.319V413.015C294.293 417.398 295.773 419.927 295.773 420.606H287.866L287.266 421.279V447.838C287.799 449.138 288.639 449.787 289.759 449.787H296.999C298.439 449.787 299.159 449.023 299.159 447.496ZM303.866 454.426H282.559C279.866 453.754 278.519 452.408 278.519 450.392V411.866C278.519 411.238 279.039 410.072 280.066 408.368C279.666 406.622 277.772 404.447 274.412 401.848H273.812V401.176H279.733C282.906 401.176 285.733 403.371 288.199 407.764H303.866C306.559 408.436 307.906 409.804 307.906 411.866V450.392C307.226 453.082 305.879 454.426 303.866 454.426Z" fill="#100F0D"/>
<path d="M292.907 352.753L295.36 350.41C295.36 350.41 296.014 345.249 298.76 342.128L292.907 336.837L287.054 342.128C289.8 345.249 290.454 350.41 290.454 350.41L292.907 352.753ZM264.8 350.784C263.507 373.769 277.774 377.657 281.134 370.074C282.934 366.04 280.134 360.17 277.067 359.258C273.334 358.148 273.734 361.949 273.734 361.949C273.734 361.949 274.627 360.777 275.787 360.954C278.067 361.305 276.84 365.105 274.44 365.105C272.04 365.105 268.894 363.236 268.134 355.75C267.014 344.816 278.827 343.842 286.014 350.141C288.84 352.612 291.334 355.868 292.907 358.1C294.48 355.868 296.987 352.612 299.8 350.141C306.987 343.842 318.8 344.816 317.694 355.75C316.934 363.236 313.774 365.105 311.374 365.105C308.974 365.105 307.747 361.305 310.027 360.954C311.187 360.777 312.08 361.949 312.08 361.949C312.08 361.949 312.48 358.148 308.747 359.258C305.68 360.17 302.894 366.04 304.68 370.074C308.04 377.657 322.307 373.769 321.014 350.784C321.014 350.784 324.867 355.337 324.88 361.597C324.894 369.254 321.894 377.497 309.8 385.388C302.774 389.968 296.734 393.581 292.907 395.808C289.08 393.581 283.04 389.968 276.014 385.388C263.92 377.497 260.92 369.254 260.934 361.597C260.947 355.337 264.8 350.784 264.8 350.784Z" fill="#100F0D"/>
<path d="M45.3573 120.854L42.9053 123.2C42.9053 123.2 42.2586 128.36 39.5106 131.48L45.3573 136.773L51.2106 131.48C48.4639 128.36 47.8106 123.2 47.8106 123.2L45.3573 120.854ZM73.4773 122.827C74.7573 99.8402 60.4906 95.9468 57.1306 103.533C55.344 107.56 58.1306 113.44 61.1973 114.347C64.944 115.453 64.5306 111.654 64.5306 111.654C64.5306 111.654 63.6373 112.827 62.4773 112.654C60.1973 112.307 61.424 108.507 63.824 108.507C66.224 108.507 69.3839 110.374 70.1439 117.854C71.2506 128.787 59.4374 129.76 52.2507 123.467C49.4374 121 46.9307 117.733 45.3573 115.507C43.7933 117.733 41.2854 121 38.468 123.467C31.28 129.76 19.4693 128.787 20.58 117.854C21.3413 110.374 24.4973 108.507 26.8933 108.507C29.2906 108.507 30.5173 112.307 28.2386 112.654C27.0826 112.827 26.192 111.654 26.192 111.654C26.192 111.654 25.784 115.453 29.524 114.347C32.5893 113.44 35.3813 107.56 33.5933 103.533C30.2293 95.9468 15.9573 99.8402 17.248 122.827C17.248 122.827 13.404 118.267 13.3907 112.013C13.376 104.347 16.372 96.1067 28.4706 88.2134C35.4933 83.6401 41.5293 80.0268 45.3573 77.8001C49.1973 80.0268 55.224 83.6401 62.2507 88.2134C74.344 96.1067 77.344 104.347 77.3306 112.013C77.3173 118.267 73.4773 122.827 73.4773 122.827Z" fill="#100F0D"/>
<path d="M175.105 154.76L175.039 154.627C174.732 154.013 174.479 153.493 173.799 153.373L173.652 153.347L173.639 153.187C173.492 152.027 173.812 150.973 174.532 150.16C175.319 149.28 176.519 148.76 177.772 148.76C178.665 148.76 179.519 149.013 180.239 149.507L180.332 149.56V149.68C180.332 153.053 178.612 154.76 175.239 154.76H175.105ZM140.132 159.613C138.812 159.613 137.559 159.08 136.785 158.187C136.105 157.4 135.825 156.373 135.985 155.227L135.999 155.16L136.052 155.107C136.812 154.36 137.665 153.987 138.599 153.987C140.785 153.987 142.652 155.987 143.359 157.973L143.399 158.08L143.332 158.173C142.612 159.093 141.452 159.613 140.132 159.613Z" fill="#EC1D27"/>
<path d="M153.41 215.213C153.49 211.493 152.49 208.107 151.517 204.813C151.224 203.813 150.944 202.867 150.69 201.893C149.877 198.827 149.317 195.52 150.637 192.133L150.677 192.027L150.784 192C151.064 191.933 151.33 191.907 151.57 191.907C152.224 191.907 152.637 192.147 153.037 192.373C153.397 192.587 153.73 192.787 154.277 192.787C154.49 192.787 154.717 192.76 154.97 192.707L155.29 192.627L155.224 192.947C154.557 196.08 154.717 198.573 155.197 201.773C155.877 201.813 156.544 201.84 157.197 201.84C161.637 201.84 165.197 200.88 168.624 199.947C169.797 199.627 170.997 199.307 172.224 199.013C171.984 197.053 171.624 196.213 171.237 195.32C170.864 194.44 170.477 193.533 170.157 191.547L170.13 191.373L170.29 191.307C170.69 191.16 171.05 190.96 171.424 190.733C172.21 190.293 173.01 189.827 174.277 189.827C174.597 189.827 174.93 189.853 175.277 189.92L175.397 189.933L175.437 190.067C176.157 192.627 177.21 194.933 178.157 196.893C178.637 196.933 179.104 196.947 179.557 196.947C181.197 196.947 182.73 196.693 184.237 196.2L184.704 196.04L184.49 196.48C184.464 196.547 184.41 196.627 184.344 196.747C184.09 197.2 183.504 198.253 183.757 198.72C183.837 198.867 184.024 198.96 184.317 198.973L184.757 199L184.45 199.32C182.877 200.987 180.877 202.467 178.344 203.827C175.09 205.587 171.397 206.933 167.824 208.24C164.837 209.32 162.024 210.36 159.477 211.587C157.024 212.773 155.157 214.013 153.77 215.373L153.397 215.733L153.41 215.213Z" fill="#9E1B20"/>
<path d="M154.853 198.867C154.706 196.907 154.773 195.08 155.226 192.947L155.293 192.627L154.972 192.707C154.719 192.76 154.492 192.787 154.279 192.787C153.732 192.787 153.399 192.587 153.039 192.373C152.639 192.147 152.226 191.907 151.572 191.907C151.332 191.907 151.066 191.933 150.786 192L150.679 192.027L150.639 192.133C149.532 194.973 149.759 197.773 150.333 200.413C151.746 199.787 153.266 199.253 154.853 198.867ZM170.159 191.547L170.133 191.373L170.293 191.307C170.693 191.16 171.053 190.96 171.426 190.733C172.213 190.293 173.012 189.827 174.279 189.827C174.599 189.827 174.932 189.853 175.279 189.92L175.399 189.933L175.439 190.067C176.159 192.627 177.213 194.933 178.159 196.893C178.639 196.933 179.106 196.947 179.559 196.947C181.199 196.947 182.732 196.693 184.239 196.2L184.706 196.04L184.493 196.48C184.466 196.547 184.412 196.627 184.346 196.747C184.092 197.2 183.506 198.253 183.759 198.72C183.839 198.867 184.026 198.96 184.319 198.973L184.759 199L184.453 199.32C182.946 200.92 181.053 202.333 178.653 203.653C176.453 201.827 173.759 200.36 170.733 199.387C171.226 199.267 171.719 199.133 172.226 199.013C171.986 197.053 171.626 196.213 171.239 195.32C170.866 194.44 170.479 193.533 170.159 191.547Z" fill="#5F1316"/>
<path d="M207.694 127.506C208.534 128.666 209.067 130.133 209.587 131.546C210.307 133.533 211.054 135.573 212.641 136.706C212.174 132.746 210.454 127.506 207.881 127.506C207.814 127.506 207.761 127.506 207.694 127.506ZM215.334 150.186C216.134 150.186 216.601 149.839 216.721 149.173C216.921 147.946 215.921 146.173 215.041 145.746C214.614 146.226 214.761 146.706 214.974 147.426C215.201 148.133 215.467 149.013 215.241 150.173C215.281 150.186 215.307 150.186 215.334 150.186ZM192.147 134.52C190.894 139.653 186.721 141.066 182.294 142.573C179.587 143.506 176.774 144.453 174.681 146.346C168.707 151.746 167.667 157.293 165.934 166.506L165.761 167.453C168.294 166.373 171.134 165.519 174.121 164.613C185.027 161.306 196.294 157.879 193.161 143.439L193.134 143.279L193.281 143.213C193.574 143.066 193.867 142.919 194.174 142.773C196.947 141.426 199.574 140.146 199.454 136.053C198.467 136.56 197.721 137.28 196.934 138.053C195.547 139.413 194.094 140.813 191.281 140.813H191.067V140.613C191.041 139.373 191.667 138.786 192.267 138.226C192.974 137.546 193.654 136.906 193.174 135.079C193.054 134.693 192.787 134.52 192.307 134.52C192.254 134.52 192.201 134.52 192.147 134.52ZM114.761 145.066C114.547 148.333 116.667 149.226 118.907 150.16C119.881 150.56 120.881 150.973 121.681 151.599L121.761 151.666V151.76C122.054 166.08 132.254 167.586 143.054 169.186C146.281 169.653 149.601 170.146 152.667 170.999C150.641 160.546 144.294 148.173 125.734 147.786H125.654L125.601 147.746C124.907 147.173 124.414 146.4 123.947 145.653C123.187 144.453 122.467 143.333 120.987 142.946C120.401 144.679 121.547 145.639 122.467 146.413C123.001 146.866 123.454 147.253 123.467 147.72C123.467 147.973 123.347 148.213 123.081 148.439L123.041 148.479L122.974 148.493C122.587 148.546 122.214 148.56 121.867 148.56C119.707 148.56 118.507 147.586 117.347 146.653C116.561 146.013 115.814 145.399 114.761 145.066ZM133.601 196.253C137.841 198.36 144.334 199.546 148.241 200.266L148.894 200.386L148.934 200.493C149.161 201 149.361 201.573 149.521 202.186C150.387 205.48 150.147 209.839 149.934 214.066C149.747 217.519 149.561 221.079 149.961 224.039C150.494 227.815 151.894 230.047 154.401 231.066C156.841 232.05 159.347 232.55 161.854 232.55C169.014 232.55 176.054 228.529 181.147 221.52C187.054 213.386 188.987 202.986 186.201 194.36L186.147 194.213L186.281 194.12C187.147 193.56 188.201 193.173 189.214 192.799C191.414 192.013 193.494 191.253 193.854 188.773C193.267 187.786 192.401 187.106 191.467 186.399C190.561 185.706 189.627 184.986 189.001 183.96L188.921 183.813L189.041 183.693C189.561 183.16 190.174 182.706 190.774 182.253C192.214 181.186 193.587 180.16 193.827 177.986C185.027 183.986 169.281 190.333 154.987 190.333C146.614 190.333 139.774 188.199 134.667 184.013L134.481 183.853L134.667 183.693C135.254 183.16 136.281 182.599 137.374 181.999C139.361 180.919 141.601 179.679 141.721 178.413C141.761 177.986 141.547 177.573 141.081 177.16C139.721 178.48 137.894 179.359 136.121 180.213C133.894 181.279 131.601 182.386 130.267 184.373C132.587 184.733 133.774 186.24 134.921 187.693C135.161 187.986 135.401 188.293 135.654 188.586L135.747 188.693L135.681 188.813C135.507 189.213 135.321 189.586 135.134 189.973C134.241 191.759 133.387 193.453 133.601 196.253ZM94.1073 320.073C91.6806 320.606 90.2939 322.419 89.7472 325.741C92.2406 324.573 93.6806 322.714 94.1073 320.073ZM85.4406 332.573C83.6139 337.715 81.1072 347.486 83.8139 357.145C84.0939 354.787 84.2139 352.289 84.3472 349.664C84.6539 343.705 84.9606 337.551 87.0673 332.573H85.4406ZM147.734 427.717C145.721 427.717 143.707 427.609 141.747 427.397C136.841 426.861 131.867 425.643 126.974 423.778C100.654 413.773 79.2272 386.478 76.0139 358.878C72.9739 332.69 87.1206 315.61 100.801 299.09C102.667 296.838 104.601 294.507 106.414 292.223C119.174 276.214 129.454 259.71 115.387 234.002C115.294 235.555 116.067 237.257 116.934 239.195C117.921 241.397 119.041 243.892 118.974 246.598L118.961 246.89L118.681 246.789C117.094 246.199 115.374 245.357 113.561 244.461C109.281 242.353 103.961 239.73 96.7739 238.79C93.4939 238.357 90.1073 238.242 86.8406 238.132C79.0939 237.868 71.7873 237.622 66.6673 233.329C64.3073 231.362 62.6006 228.714 61.4406 225.238C60.5206 225.55 60.534 226.53 60.654 227.769C60.7207 228.566 60.7873 229.253 60.2273 229.371C60.0673 229.379 59.9473 229.381 59.8273 229.381C50.4673 229.381 43.2913 221.673 40.338 214.039C37.1727 205.853 38.582 197.693 44.0166 192.746C48.0673 189.066 57.8806 186.026 65.0406 185.026C67.5606 184.68 70.0006 184.413 72.4806 184.12L72.6406 184.106C85.3473 182.679 96.3206 181.439 101.841 171.199L102.187 170.573L102.241 171.279C102.574 175.479 103.147 180.253 104.827 184.039C106.094 181.159 105.427 178.639 104.721 175.973C104.387 174.693 104.041 173.386 103.921 172.013C102.414 156.213 103.734 139.813 107.627 125.853C111.921 110.426 119.147 98.3861 128.521 91.0128C133.521 87.0928 139.134 84.4662 145.214 83.2262C148.214 82.6262 151.227 82.3061 154.161 82.3061C164.574 82.3061 172.614 86.1329 176.814 93.0929L176.841 93.1328V93.1728C177.627 100.599 175.894 106.906 171.827 111.426C167.561 116.186 160.881 118.799 153.054 118.799C150.267 118.799 147.387 118.466 144.521 117.813L144.414 117.786L144.374 117.679C142.694 113.639 143.027 109.093 145.214 105.826C147.174 102.893 150.361 101.279 154.201 101.279C154.707 101.279 155.227 101.306 155.734 101.36L155.854 101.373L155.907 101.466C156.814 103.146 156.401 104.053 155.907 105.12C155.681 105.626 155.414 106.186 155.281 106.906C157.867 106.599 159.347 105.586 159.561 103.946C159.827 101.919 158.054 99.5995 156.347 98.9728C155.534 98.6661 154.654 98.5196 153.721 98.5196C149.347 98.5196 144.321 101.906 141.774 106.586C140.441 109.013 138.707 113.839 141.947 118.879C143.427 121.186 146.921 122.453 151.787 122.453C154.147 122.453 156.694 122.16 159.161 121.586C166.894 119.786 173.027 115.413 176.454 109.239C179.361 103.999 180.001 97.9728 178.201 92.7061C175.387 84.5061 167.614 79.7995 156.881 79.7995C155.174 79.7995 153.387 79.9195 151.561 80.1595L151.454 79.7461L151.747 79.6395C162.241 75.5061 168.561 73.0128 178.521 73.0128C180.947 73.0128 183.534 73.1595 186.414 73.4662C192.761 74.1462 198.267 77.1862 203.587 80.1328C208.747 82.9862 213.627 85.6794 218.534 85.6794C222.147 85.6794 225.494 84.2129 228.787 81.1862L228.947 81.0395L229.094 81.2128C232.547 85.4128 233.307 89.9061 231.281 94.2128C227.867 101.439 217.174 106.879 206.374 106.879C201.121 106.879 196.441 105.559 192.734 103.066C194.867 105.733 200.787 108.68 206.627 109.026H206.721L206.774 109.106C210.401 113.439 213.454 118.88 216.694 126.76C217.987 129.893 219.214 133.173 220.387 136.346C222.787 142.746 225.267 149.36 228.414 155.16C234.814 163.346 242.854 170.839 251.641 176.799C257.307 180.653 263.294 183.906 269.454 186.439C271.134 187.133 273.387 187.92 275.761 188.76C284.401 191.8 296.241 195.946 297.467 201.226C298.534 205.786 297.507 210.24 294.481 214.093C289.894 219.933 281.094 223.897 272.574 223.971L272.281 223.974C271.321 223.974 270.334 223.915 269.347 223.795L269.107 223.766L269.174 223.532C269.281 223.136 269.494 222.701 269.707 222.241C270.107 221.426 270.507 220.573 270.254 220.079C270.134 219.866 269.881 219.719 269.481 219.639C264.081 229.138 253.561 235.761 243.827 235.761C240.507 235.761 237.347 235.015 234.414 233.538L234.334 233.501L234.307 233.418C233.627 231.443 233.534 229.72 233.441 228.197C233.361 226.537 233.281 225.08 232.534 223.542C225.361 269.893 195.201 310.554 153.721 329.764L153.467 329.448C156.867 324.965 161.147 320.579 165.681 315.934C178.134 303.171 192.254 288.707 189.681 268.935C188.667 261.165 183.507 256.707 175.521 256.707C169.267 256.707 162.454 259.593 158.174 264.058C155.174 267.188 153.681 270.791 153.841 274.479C153.987 278.149 159.121 283.651 162.027 284.043C162.627 284.126 163.227 284.166 163.787 284.166C169.987 284.166 172.801 279.297 172.801 274.767C172.801 272.011 171.641 269.042 169.081 269.042C167.681 269.042 166.054 269.969 164.347 271.726C164.547 271.978 164.801 272.09 165.201 272.09C165.654 272.09 166.201 271.938 166.787 271.771C167.441 271.589 168.121 271.399 168.761 271.399C169.547 271.399 170.121 271.685 170.534 272.276L170.561 272.32L170.574 272.367C170.974 275.215 170.441 277.569 169.054 279.173C167.827 280.582 166.001 281.355 163.907 281.355C161.041 281.355 157.707 279.734 156.907 276.635C156.121 273.55 156.974 270.267 159.387 267.143C163.201 262.218 170.041 258.781 176.001 258.781C182.347 258.781 186.467 262.717 187.307 269.582C189.814 290.369 173.361 306.247 155.921 323.061C140.241 338.182 124.027 353.817 122.454 373.518C121.894 380.447 122.881 386.846 125.227 391.537C129.561 400.241 138.627 409.537 151.067 409.534C153.027 409.534 155.041 409.308 157.067 408.86C162.494 407.658 164.721 403.398 163.881 395.838L163.854 395.629L164.067 395.606C164.587 395.551 165.094 395.522 165.587 395.522C169.867 395.522 172.974 397.718 174.347 401.699C176.641 408.33 173.601 417.843 167.707 422.471C161.894 427.035 152.694 427.717 147.734 427.717Z" fill="#98D320"/>
<path d="M184.52 288.105C169.586 302.445 150.893 316.099 134.08 333.313C105.266 362.834 125.226 391.537 125.226 391.537C122.88 386.846 121.893 380.447 122.453 373.518C124.026 353.817 140.24 338.182 155.92 323.061C167.813 311.591 179.253 300.557 184.52 288.105ZM138.266 169.786C143.92 169.786 147.173 170.2 149.346 170.226C147.266 169.813 145.146 169.493 143.053 169.186C132.253 167.586 122.053 166.08 121.76 151.76V151.666L121.68 151.599C120.88 150.973 119.88 150.56 118.906 150.16C118.12 149.826 117.346 149.506 116.693 149.079C114.853 160.359 130.453 169.786 138.266 169.786ZM121.866 148.56C122.213 148.56 122.586 148.546 122.973 148.493L123.04 148.479L123.08 148.439C123.346 148.213 123.466 147.973 123.466 147.72C123.453 147.253 123 146.866 122.466 146.413C122.173 146.173 121.866 145.92 121.6 145.626C118.826 146 117.346 146.653 117.346 146.653C118.506 147.586 119.706 148.56 121.866 148.56ZM208.933 232.661C209.173 230.105 208.466 226.618 205.92 231.965C204.386 235.17 208.706 235.217 208.933 232.661ZM203.826 244.749C205.68 240.332 203.826 238.705 200.8 243.121C196.093 249.998 201.96 249.165 203.826 244.749ZM123.8 145.426C123.84 145.506 123.893 145.573 123.946 145.653C124.413 146.4 124.906 147.173 125.6 147.746L125.653 147.786H125.733C141.946 148.12 148.826 157.6 151.666 166.96C150.226 157.146 141.453 147.759 132.573 146.079C129.08 145.399 126.133 145.293 123.8 145.426ZM104 181.813C102.946 178.479 102.506 174.693 102.24 171.279L102.186 170.573L101.84 171.199C99.5063 175.546 96.173 178.266 92.1463 180.079C96.213 179.506 100.893 179.559 104 181.813ZM215.04 145.746C214.613 146.226 214.76 146.706 214.973 147.426C215.2 148.133 215.466 149.013 215.24 150.173C215.28 150.186 215.306 150.186 215.333 150.186C216.133 150.186 216.6 149.839 216.72 149.173C216.92 147.946 215.92 146.173 215.04 145.746ZM212.64 136.706C212.173 132.746 210.453 127.506 207.88 127.506C207.813 127.506 207.76 127.506 207.693 127.506C208.533 128.666 209.066 130.133 209.586 131.546C210.306 133.533 211.053 135.573 212.64 136.706ZM199.453 136.053C198.466 136.56 197.72 137.28 196.933 138.053C195.546 139.413 194.093 140.813 191.28 140.813H191.066V140.613C191.04 139.373 191.666 138.786 192.266 138.226C192.973 137.546 193.653 136.906 193.173 135.079C193.053 134.693 192.786 134.52 192.306 134.52C192.253 134.52 192.2 134.52 192.146 134.52C190.893 139.653 186.72 141.066 182.293 142.573C179.586 143.506 176.773 144.453 174.68 146.346C168.706 151.746 167.666 157.293 165.933 166.506L165.76 167.453C168.293 166.373 171.133 165.519 174.12 164.613C185.026 161.306 196.293 157.879 193.16 143.439L193.133 143.279L193.28 143.213C193.573 143.066 193.866 142.919 194.173 142.773C196.946 141.426 199.573 140.146 199.453 136.053ZM294.48 214.093C289.893 219.933 281.093 223.897 272.573 223.971L272.28 223.974C271.32 223.974 270.333 223.915 269.346 223.795L269.106 223.766L269.173 223.532C269.28 223.136 269.493 222.701 269.706 222.241C270.106 221.426 270.506 220.573 270.253 220.079C270.133 219.866 269.88 219.719 269.48 219.639C264.08 229.138 253.56 235.761 243.826 235.761C240.506 235.761 237.346 235.015 234.413 233.538L234.333 233.501L234.306 233.418C233.626 231.443 233.533 229.72 233.44 228.197C233.36 226.537 233.28 225.08 232.533 223.542C225.36 269.893 195.2 310.554 153.72 329.764L153.466 329.448C156.866 324.965 161.146 320.579 165.68 315.934C174.653 306.738 184.493 296.658 188.32 284.346C197.266 275.246 204.533 265.73 208.706 254.745C220.093 224.757 211.026 224.99 210.56 214.533C210.253 207.599 213.626 201.693 219.24 201.879C214.64 196.493 205.133 196.213 198.24 211.92C189.88 230.954 175.213 230.202 172.026 229.795C175.413 227.913 178.533 225.11 181.146 221.52C187.053 213.386 188.986 202.986 186.2 194.36L186.146 194.213L186.28 194.12C187.146 193.56 188.2 193.173 189.213 192.799C191.413 192.013 193.493 191.253 193.853 188.773C193.266 187.786 192.4 187.106 191.466 186.399C190.56 185.706 189.626 184.986 189 183.96L188.92 183.813L189.04 183.693C189.56 183.16 190.173 182.706 190.773 182.253C192.213 181.186 193.586 180.16 193.826 177.986C190.933 179.96 187.293 181.959 183.2 183.773C182.973 180.973 175.76 176.346 167.906 176.346C157.8 176.346 163.813 163.253 167.213 147.066C168.96 138.746 172.706 134.826 179.76 128.639C189.173 120.386 187.96 105.92 184.12 101.386C180.293 96.8529 183.773 93.7061 193.186 95.1061C202.6 96.5061 208.013 98.0661 219.52 95.9728C227.213 94.5728 229.6 86.9328 229.4 81.5995C232.586 85.6928 233.24 90.0394 231.28 94.2128C227.866 101.439 217.173 106.879 206.373 106.879C201.12 106.879 196.44 105.559 192.733 103.066C194.866 105.733 200.786 108.68 206.626 109.026H206.72L206.773 109.106C210.4 113.439 213.453 118.88 216.693 126.76C217.986 129.893 219.213 133.173 220.386 136.346C222.786 142.746 225.266 149.36 228.413 155.16C234.813 163.346 242.853 170.839 251.64 176.799C257.306 180.653 263.293 183.906 269.453 186.439C271.133 187.133 273.386 187.92 275.76 188.76C281.853 190.906 289.533 193.6 293.96 196.853C295.173 198.306 296.346 199.746 297.426 201.106C297.44 201.146 297.453 201.186 297.466 201.226C298.533 205.786 297.506 210.24 294.48 214.093ZM168.746 395.99C170.293 403.223 170.026 410.85 166.173 413.741C159.653 418.622 145.24 422.109 115.96 408.627C102.773 402.558 90.1997 389.087 80.3597 376.113C88.4797 397.205 106.2 415.878 126.973 423.778C131.866 425.643 136.84 426.861 141.746 427.397C143.706 427.609 145.72 427.717 147.733 427.717C152.693 427.717 161.893 427.035 167.706 422.471C173.6 417.843 176.64 408.33 174.346 401.699C173.346 398.783 171.4 396.83 168.746 395.99ZM40.337 214.039C37.549 206.826 38.313 199.64 42.2463 194.653C45.0396 203.786 51.6396 215.319 57.613 214.533C66.4396 213.359 68.3063 210.346 77.8397 217.079C87.3596 223.826 100.84 221.736 103.4 216.16C105.96 210.573 103.4 198.719 105.493 195.239C107.586 191.746 113.4 206.399 119.906 218.479C125.226 228.371 129.453 248.065 121.026 266.488C123.346 257.209 122.36 246.734 115.386 234.002C115.293 235.555 116.066 237.257 116.933 239.195C117.92 241.397 119.04 243.892 118.973 246.598L118.96 246.89L118.68 246.789C117.093 246.199 115.373 245.357 113.56 244.461C109.28 242.353 103.96 239.73 96.773 238.79C93.493 238.357 90.1063 238.242 86.8396 238.132C79.093 237.868 71.7863 237.622 66.6663 233.329C64.3063 231.362 62.5997 228.714 61.4397 225.238C60.5197 225.55 60.5331 226.53 60.6531 227.769C60.7197 228.566 60.7864 229.253 60.2264 229.371C60.0664 229.379 59.9464 229.381 59.8264 229.381C50.4664 229.381 43.2904 221.673 40.337 214.039Z" fill="#44B33B"/>
<path d="M197.343 105.386C200.063 106.373 203.117 106.879 206.37 106.879C217.17 106.879 227.863 101.439 231.277 94.2128C232.85 90.8794 232.743 87.4395 231.023 84.1061C230.17 93.7995 224.81 98.4795 216.717 101.906C206.837 106.093 192.73 103.066 192.73 103.066L197.343 105.386ZM154.437 324.488C148.957 327.092 143.037 330.993 135.597 340.17C122.637 356.157 122.143 369.599 122.41 374.051C122.423 373.874 122.437 373.694 122.45 373.518C123.983 354.435 139.237 339.168 154.437 324.488ZM96.77 238.79C103.957 239.73 109.277 242.353 113.557 244.461C115.37 245.357 117.09 246.199 118.677 246.789L118.957 246.89L118.97 246.598C119.01 244.97 118.623 243.417 118.09 241.96H117.117C117.117 241.96 107.93 238.24 100.957 235.916C93.9834 233.59 88.1701 234.868 77.1301 233.36C66.0901 231.848 61.4367 225.238 61.4367 225.238C62.5967 228.714 64.3034 231.362 66.6634 233.329C71.7834 237.622 79.09 237.868 86.8367 238.132C90.1034 238.242 93.49 238.357 96.77 238.79ZM123.623 246.142C122.277 240.429 116.637 235.917 116.223 235.598C121.223 245.294 122.73 253.677 121.943 261.217C123.33 257.059 124.717 250.758 123.623 246.142ZM297.463 201.226C296.237 195.946 284.397 191.8 275.757 188.76C273.383 187.92 271.13 187.133 269.45 186.439C263.29 183.906 257.303 180.653 251.637 176.799C242.85 170.839 234.81 163.346 228.41 155.16C225.263 149.36 222.783 142.746 220.383 136.346C219.21 133.173 217.983 129.893 216.69 126.76C213.45 118.88 210.397 113.439 206.77 109.106L206.717 109.026H206.623C205.743 108.973 204.863 108.853 203.997 108.693C205.943 111.48 209.303 116.693 211.717 122.706C215.33 131.653 217.53 139.679 221.957 150.599C226.37 161.533 232.29 170.479 249.85 180.479C266.53 189.973 294.583 195.813 295.383 204.16C293.73 212.48 282.117 219.133 277.97 219.986C272.397 221.16 269.837 216.733 269.837 216.733C269.837 216.733 266.81 222.084 258.677 227.082C250.543 232.08 245.317 232.427 238.69 229.755C232.063 227.082 232.757 216.973 232.757 216.973C232.757 216.973 229.97 226.035 225.317 237.89C220.677 249.746 215.45 264.275 207.303 278.105C199.17 291.938 185.81 304.373 173.143 314.717C168.29 318.677 163.983 320.46 159.623 322.249C157.383 324.656 155.29 327.04 153.463 329.448L153.717 329.764C195.197 310.554 225.357 269.893 232.53 223.542C233.277 225.08 233.357 226.537 233.437 228.197C233.53 229.72 233.623 231.443 234.303 233.418L234.33 233.501L234.41 233.538C237.343 235.015 240.503 235.761 243.823 235.761C253.557 235.761 264.077 229.138 269.477 219.639C269.877 219.719 270.13 219.866 270.25 220.079C270.503 220.573 270.103 221.426 269.703 222.241C269.49 222.701 269.277 223.136 269.17 223.532L269.103 223.766L269.343 223.795C270.33 223.915 271.317 223.974 272.277 223.974L272.57 223.971C281.09 223.897 289.89 219.933 294.477 214.093C297.503 210.24 298.53 205.786 297.463 201.226ZM174.343 401.699C173.73 399.909 172.757 398.482 171.49 397.451C176.237 406.723 170.21 416.781 163.61 420.134C156.277 423.853 143.263 424.783 125.023 418.857C113.277 415.042 102.423 407.102 96.1568 401.915C104.717 411.593 115.37 419.367 126.97 423.778C131.863 425.643 136.837 426.861 141.743 427.397C143.703 427.609 145.717 427.717 147.73 427.717C152.69 427.717 161.89 427.035 167.703 422.471C173.597 417.843 176.637 408.33 174.343 401.699ZM61.4367 225.238C60.5167 225.55 60.5301 226.53 60.6501 227.769C60.7168 228.566 60.7834 229.253 60.2234 229.371C60.0634 229.379 59.9434 229.381 59.8234 229.381C50.4634 229.381 43.2874 221.673 40.3341 214.039C39.6354 212.226 39.1714 210.426 38.9141 208.653C40.3874 211.92 42.6155 215.119 45.9835 217.546C56.9168 225.454 61.4367 225.238 61.4367 225.238Z" fill="#F9EB34"/>
<path d="M169.491 163.054C168.051 161.054 169.358 158.734 170.504 156.667C170.944 155.88 171.358 155.134 171.558 154.494L171.651 154.214L171.878 154.387C172.318 154.694 172.691 155.067 173.064 155.427C173.864 156.214 174.624 156.96 175.958 157.134C179.238 156.48 182.171 153.627 182.451 150.774C182.638 148.827 181.531 147.28 179.344 146.387L178.984 146.24L179.304 146.014C182.998 143.4 185.824 143.334 190.944 143.2L191.438 143.187L191.478 143.36C192.424 147.56 191.998 150.974 190.198 153.787C186.544 159.507 177.878 161.374 170.238 163.014L169.571 163.16L169.491 163.054ZM147.438 167.2C139.784 166.734 131.091 166.2 126.784 161.214C124.624 158.707 123.758 155.387 124.131 151.054L124.144 150.867H124.318C126.811 150.72 128.358 150.64 129.918 150.64C131.478 150.64 133.024 150.72 135.504 150.867H135.584L135.638 150.92C136.038 151.334 136.211 151.72 136.184 152.094C136.144 152.72 135.571 153.16 134.971 153.64C134.358 154.12 133.731 154.614 133.611 155.294C133.451 156.587 134.024 158.094 135.198 159.414C136.624 161.027 138.651 162.08 140.344 162.08C141.478 162.08 142.971 161.614 143.664 159.374L143.718 159.187L143.904 159.24C147.104 159.974 148.144 162.88 149.144 165.68C149.304 166.134 149.464 166.587 149.638 167.04L149.758 167.347C149.758 167.347 148.118 167.24 147.438 167.2ZM179.211 194.347C178.958 193.054 178.358 192.134 177.731 191.16C177.531 190.854 177.331 190.547 177.144 190.227L177.078 190.107L177.158 190C178.171 188.68 179.784 187.947 181.344 187.254C182.944 186.547 184.598 185.8 185.518 184.427L185.598 184.307L185.731 184.334C187.118 184.574 187.691 185.614 188.238 186.614C188.678 187.427 189.104 188.2 189.958 188.534L190.278 188.654L190.024 188.88C186.958 191.587 183.518 193.414 179.478 194.507L179.264 194.56L179.211 194.347ZM145.918 197.294C143.918 197 142.024 196.547 140.184 196.107C138.891 195.787 137.531 195.467 136.158 195.2L135.971 195.174L135.984 194.974C136.144 193.04 136.584 191.24 137.398 189.347L137.438 189.227L137.558 189.214C137.878 189.187 138.198 189.16 138.504 189.16C140.238 189.16 141.438 189.734 142.584 190.28C143.758 190.827 144.851 191.347 146.504 191.347C146.758 191.347 147.038 191.334 147.331 191.307L147.464 191.294L147.531 191.414C148.411 193.12 147.744 194.227 147.038 195.414C146.718 195.947 146.384 196.494 146.158 197.16L146.091 197.32L145.918 197.294ZM157.718 199.387L157.664 199.334C156.771 198.454 156.838 196.68 156.891 194.974C156.918 194.28 156.944 193.56 156.904 192.92L156.891 192.667L157.131 192.694C157.584 192.747 158.064 192.774 158.558 192.774C160.131 192.774 161.651 192.507 162.998 192.267C164.091 192.067 165.131 191.88 166.011 191.88C167.038 191.88 167.744 192.134 168.264 192.68C169.011 193.467 169.304 194.88 169.171 197.094V197.267L168.998 197.294C167.718 197.52 166.518 197.867 165.344 198.187C163.224 198.787 161.038 199.4 158.278 199.4L157.718 199.387Z" fill="#F3F9CB"/>
<path d="M191.437 143.187L190.943 143.2C185.823 143.333 182.997 143.4 179.304 146.013L178.984 146.24L179.343 146.387C180.357 146.8 181.117 147.346 181.65 148.026C181.997 147.813 182.33 147.626 182.664 147.466C189.29 144.333 189.877 147.693 189.877 149.56C189.877 151.413 188.824 156.413 182.09 159.56C181.597 159.786 181.29 159.973 181.13 160.133C184.957 158.733 188.277 156.787 190.197 153.787C191.997 150.973 192.423 147.56 191.477 143.36L191.437 143.187ZM188.784 189.906C189.21 189.573 189.61 189.24 190.024 188.88L190.277 188.653L189.957 188.533C189.104 188.2 188.677 187.426 188.237 186.613C187.69 185.613 187.117 184.573 185.73 184.333L185.597 184.306L185.517 184.426C184.597 185.8 182.943 186.547 181.343 187.253C179.783 187.947 178.17 188.68 177.157 190L177.077 190.106L177.143 190.226C177.33 190.546 177.53 190.853 177.73 191.16C178.024 190.706 184.064 187.56 185.917 187.56C186.904 187.56 187.97 188.68 188.784 189.906ZM168.864 161.026C170.077 159.466 171.61 157.56 173.29 155.653C173.21 155.573 173.13 155.506 173.064 155.426C172.69 155.066 172.317 154.693 171.877 154.387L171.65 154.213L171.557 154.493C171.357 155.133 170.944 155.88 170.504 156.666C169.717 158.066 168.877 159.586 168.864 161.026ZM149.757 167.346L149.637 167.04C149.464 166.586 149.303 166.133 149.143 165.68C148.143 162.88 147.104 159.973 143.904 159.24L143.717 159.187L143.664 159.373C143.517 159.853 143.33 160.253 143.117 160.587C143.464 160.947 143.797 161.306 144.077 161.64C146.863 165.013 146.41 166.88 141.637 166.533C141.104 166.493 140.797 166.546 140.664 166.666C142.917 166.92 145.224 167.053 147.437 167.2C148.117 167.24 149.757 167.346 149.757 167.346ZM166.01 191.88C165.13 191.88 164.09 192.066 162.997 192.266C161.65 192.506 160.13 192.773 158.557 192.773C158.064 192.773 157.584 192.746 157.13 192.693L156.89 192.666L156.904 192.92C156.93 193.24 156.93 193.6 156.917 193.96C157.757 193.92 166.197 193.373 167.21 193.373C168.103 193.373 168.73 195.826 168.037 197.493C168.357 197.413 168.677 197.36 168.997 197.293L169.17 197.266V197.093C169.304 194.88 169.01 193.466 168.264 192.68C167.744 192.133 167.037 191.88 166.01 191.88ZM129.557 152.587C131.05 152.76 132.69 153.346 134.343 154.16C134.543 153.973 134.757 153.813 134.97 153.64C135.57 153.16 136.144 152.72 136.184 152.093C136.21 151.72 136.037 151.333 135.637 150.92L135.584 150.866H135.504C133.024 150.72 131.477 150.64 129.917 150.64C128.357 150.64 126.81 150.72 124.317 150.866H124.143L124.13 151.053C123.93 153.373 124.09 155.386 124.61 157.16C124.837 155.026 125.97 152.16 129.557 152.587ZM147.037 195.413C146.717 195.946 146.384 196.493 146.157 197.16L146.09 197.32L145.917 197.293C144.997 197.16 144.09 196.986 143.197 196.8C143.224 196.773 143.237 196.76 143.264 196.746C145.01 195.706 147.45 193.026 145.01 192.56C143.317 192.24 139.504 190.56 137.304 189.573C137.344 189.493 137.357 189.413 137.397 189.346L137.437 189.226L137.557 189.213C137.877 189.186 138.197 189.16 138.504 189.16C140.237 189.16 141.437 189.733 142.584 190.28C143.757 190.826 144.85 191.346 146.504 191.346C146.757 191.346 147.037 191.333 147.33 191.306L147.464 191.293L147.53 191.413C148.41 193.12 147.744 194.226 147.037 195.413Z" fill="#CCE87D"/>
<path d="M161.371 230.045C158.305 230.045 155.571 229.072 153.491 227.233C152.371 226.246 151.705 225.121 151.491 223.886C150.825 219.813 155.358 215.373 160.185 213.093C162.305 212.093 164.425 211.533 166.185 211.52H166.371L166.385 211.72C166.465 213.36 165.691 214.133 164.931 214.88C164.345 215.453 163.798 216.013 163.638 216.946C166.038 215.706 168.598 213.533 171.278 211.24C173.851 209.053 176.505 206.786 179.358 205.013C180.545 204.266 181.705 203.653 182.825 203.173L183.038 203.08L183.105 203.293C184.891 208.426 183.851 214.106 180.171 219.28C175.678 225.621 167.945 230.045 161.371 230.045Z" fill="#EF2A9F"/>
<path d="M176.799 217.666C171.053 224.99 164.426 226.908 158.493 225.861C154.693 225.192 152.839 222.02 153.226 218.493C154.893 216.32 157.493 214.36 160.186 213.093C162.306 212.093 164.426 211.533 166.186 211.52H166.373L166.386 211.72C166.386 211.786 166.386 211.84 166.386 211.893C165.773 212.493 164.839 213.293 163.546 214.36C159.546 217.666 160.066 220.8 163.906 219.066C167.146 217.586 171.146 213.786 174.519 208.533C176.079 207.266 177.679 206.053 179.359 205.013C179.506 204.92 179.653 204.826 179.799 204.746C181.226 206.573 180.666 212.746 176.799 217.666Z" fill="#F24FAF"/>
<path d="M85.2937 332.362C85.987 332.362 86.6937 332.362 87.387 332.362C84.107 339.797 85.0003 350.076 83.8937 358.157C80.8937 348.68 83.067 338.584 85.2937 332.362ZM94.3603 319.81C93.9203 323.096 92.0802 324.977 89.4802 326.086C89.9336 322.822 91.187 320.361 94.3603 319.81ZM124.334 151.066C129.32 150.786 130.52 150.786 135.494 151.066C137.24 152.906 133.747 153.413 133.4 155.253C132.8 160.173 141.907 165.813 143.867 159.44C147.454 160.266 148.214 163.92 149.44 167.106C137.867 166.346 123.04 166.36 124.334 151.066ZM136.2 155.253C138.814 152.72 142.134 155.173 143.174 158.04C141.12 160.68 135.614 159.373 136.2 155.253ZM125.734 147.586C123.96 146.106 123.547 143.266 120.854 142.706C119.494 146.2 124.52 146.88 122.947 148.28C118.387 148.893 117.72 145.613 114.574 144.8C114.054 149.96 118.947 149.72 121.547 151.76C121.934 170.8 139.8 167.493 152.934 171.293C150.507 158.28 142.76 147.933 125.734 147.586ZM189.88 188.733C187.04 191.226 183.64 193.173 179.427 194.293C179.067 192.56 178.107 191.44 177.334 190.12C179.36 187.493 183.827 187.306 185.694 184.546C188.08 184.946 187.88 187.933 189.88 188.733ZM184.307 199.186C182.614 200.96 180.534 202.413 178.24 203.64C172.36 206.813 165.067 208.64 159.4 211.4C157.16 212.48 155.174 213.706 153.627 215.213C153.72 210.333 151.974 205.973 150.894 201.84C150.027 198.546 149.587 195.4 150.84 192.213C152.974 191.706 152.894 193.413 155.027 192.906C154.36 196.013 154.48 198.466 155.027 201.973C162.254 202.453 166.974 200.44 172.454 199.186C171.987 195.093 171.027 195.613 170.36 191.506C171.867 190.933 172.747 189.706 175.24 190.12C175.947 192.666 176.974 194.893 178.027 197.093C180.574 197.306 182.574 196.973 184.307 196.386C184.107 196.826 182.574 199.08 184.307 199.186ZM153.627 227.076C152.494 226.08 151.894 224.982 151.707 223.853C151.054 219.906 155.494 215.546 160.28 213.28C162.307 212.32 164.4 211.746 166.187 211.733C166.32 214.666 163.534 214.666 163.387 217.306C168.174 214.986 173.427 208.946 179.467 205.186C180.587 204.493 181.734 203.866 182.907 203.36C188.56 219.56 164.454 236.637 153.627 227.076ZM157.107 192.906C163.627 193.666 169.44 188.6 168.974 197.093C165.214 197.76 162.334 199.293 157.814 199.186C156.64 198.026 157.254 195.08 157.107 192.906ZM145.96 197.093C142.52 196.573 139.507 195.626 136.2 195C136.374 192.853 136.894 191.053 137.587 189.426C142 188.96 142.974 191.946 147.347 191.506C148.56 193.84 146.72 194.92 145.96 197.093ZM194.067 177.573C180.56 186.96 150.72 196.92 134.8 183.84C136.854 182.013 144.467 179.653 141.08 176.866C137.96 180.026 132.267 180.613 129.92 184.546C132.867 184.84 134 186.973 135.494 188.733C134.48 190.96 133.107 192.84 133.4 196.386C137.854 198.64 144.827 199.853 148.747 200.573C148.974 201.093 149.16 201.653 149.32 202.24C150.867 208.186 148.84 217.466 149.76 224.069C150.227 227.43 151.454 230.094 154.32 231.258C173.827 239.16 192.854 214.24 186.4 194.293C189.054 192.546 193.56 192.626 194.067 188.733C192.894 186.653 190.4 185.88 189.187 183.84C191.027 181.96 193.934 181.146 194.067 177.573ZM169.667 162.92C167.76 160.293 171.027 156.866 171.76 154.56C173.107 155.533 173.907 157.066 175.934 157.346C181.814 156.186 185.814 148.786 179.427 146.186C183.147 143.56 185.96 143.533 191.28 143.4C194.507 157.813 180.72 160.546 169.667 162.92ZM180.12 149.68C180.12 152.933 178.494 154.56 175.24 154.56C174.934 153.933 174.627 153.306 173.84 153.16C173.414 149.653 177.454 147.88 180.12 149.68ZM191.28 140.613C191.227 138 194.28 138.506 193.374 135.026C193.214 134.493 192.787 134.226 191.974 134.333C190.04 142.706 180.04 141.24 174.547 146.186C168.227 151.88 167.4 157.626 165.48 167.813C177.294 162.613 197.44 162.173 193.374 143.4C196.454 141.84 199.947 140.693 199.64 135.733C196.6 137.106 195.68 140.6 191.28 140.613ZM212.894 137.12C209.667 135.253 209.6 130.186 207.32 127.36C210.494 126.533 212.48 132.88 212.894 137.12ZM214.987 150.373C215.614 147.826 213.747 146.666 214.987 145.493C216.6 146.053 218.44 150.706 214.987 150.373ZM272.574 223.764C271.48 223.777 270.414 223.714 269.374 223.589C269.774 222.102 271.774 219.786 269.374 219.4C262.947 230.833 247.494 239.898 234.507 233.352C233.027 229.089 234.347 226.182 232.414 222.892C225.507 268.876 195.654 310.118 153.627 329.574C166.694 312.404 193.387 295.78 189.88 268.913C187.027 246.978 152.907 257.473 153.627 274.49C153.787 278.254 158.974 283.842 162 284.253C177.827 286.378 174.84 260.382 164.094 271.701C165.147 273.61 168.787 270.15 170.36 272.398C171.92 283.576 158.76 282.972 157.107 276.584C153.587 262.926 184.56 248.632 187.094 269.609C191.907 309.413 125.547 332.328 122.254 373.498C121.774 379.336 122.294 386.136 125.04 391.63C129.587 400.757 140.507 412.741 157.107 409.064C162.547 407.86 164.947 403.569 164.094 395.813C178.32 394.274 177.454 414.552 167.574 422.308C161.307 427.225 150.187 428.101 141.774 427.19C136.774 426.644 131.84 425.41 127.04 423.584C101.147 413.738 79.467 386.694 76.227 358.854C72.7737 329.058 91.9069 310.758 106.574 292.356C119.88 275.668 129.507 258.882 115.267 233.352C114.48 236.949 118.907 241.329 118.76 246.593C113.427 244.634 107.094 239.928 96.8003 238.582C85.827 237.138 74.0403 239.236 66.8003 233.172C64.587 231.316 62.787 228.7 61.587 224.982C59.3204 225.477 61.1337 228.965 60.187 229.168C43.6617 229.542 31.4096 204.493 44.1563 192.906C48.2403 189.186 58.0403 186.213 65.067 185.24C67.6003 184.893 70.0937 184.6 72.4937 184.333C85.5203 182.866 96.427 181.68 102.027 171.293C102.427 176.24 103.107 180.906 104.814 184.546C107.094 179.986 104.52 176.306 104.12 171.986C101.2 141.2 108.734 106.826 128.654 91.1731C133.454 87.3997 138.987 84.7198 145.254 83.4265C156.574 81.1331 170.32 82.7598 176.627 93.1998C178.787 113.426 162.067 121.613 144.56 117.6C141.307 109.746 145.76 100.533 155.72 101.56C157.067 104.026 155.387 104.68 155.027 107.146C162.654 106.413 159.574 99.9464 156.414 98.7731C148.107 95.6931 135 108.48 141.774 119C144.414 123.093 152.547 123.333 159.2 121.786C175.52 118 182.134 103.586 178.387 92.6397C175.534 84.3064 166.68 77.9997 151.534 79.9464C164.547 74.8264 171.374 72.0797 186.4 73.6797C203.187 75.4664 214.76 94.3597 228.934 81.3464C242.88 98.253 208.467 114.826 191.974 102.266C193.4 105.266 200.254 108.866 206.614 109.24C210.787 114.226 213.827 120.346 216.494 126.84C220.4 136.306 223.52 146.586 228.227 155.253C234.307 163.04 242.187 170.64 251.52 176.973C256.987 180.706 262.96 183.986 269.374 186.64C277.134 189.826 295.72 194.68 297.267 201.28C300.36 214.48 285.254 223.652 272.574 223.764ZM300.747 203.36C300.32 194.013 288.347 191.44 280.534 188.733C271.48 185.586 260.587 181.853 252.187 175.986C251.627 175.6 251.08 175.186 250.547 174.773C234.56 162.52 225.987 144.8 218.307 126.093C216.014 120.52 213.814 114.866 211.507 109.24C230 109.213 241.76 90.1064 230.32 77.8664C225.774 78.5064 224.16 82.7331 219.174 83.4265C211.667 84.4931 200.387 73.7731 190.574 71.5865C176.054 68.3465 159.787 73.6531 148.054 79.2531C142.52 81.8931 137.774 82.8531 133.4 85.5198C131.32 86.7998 129.334 88.1998 127.454 89.6931C107.307 105.693 98.5869 133.786 100.64 165.72C97.7203 179.333 85.4536 181.373 72.3336 182.8C60.307 184.106 47.5602 184.893 40.6696 193.6C30.7816 206.093 38.4043 223.129 51.827 229.865C54.867 231.392 58.107 230.756 61.587 231.957C62.8004 232.376 63.947 233.01 65.0537 233.736C67.8804 235.594 70.4669 238.045 73.4403 238.93C87.9203 243.246 115.494 237.997 119.454 255.662C121.267 263.728 112.72 280.102 109.707 284.952C108.254 287.272 106.654 289.454 104.974 291.546C95.8936 302.814 84.2802 311.254 79.0136 323.298C59.9202 366.98 88.8803 411.316 126.334 425.473C132.92 427.964 139.76 429.518 146.654 429.978C147.467 429.866 147.894 430.132 148.054 430.676C148.28 430.676 148.52 430.676 148.747 430.676C163.88 428.745 180.04 421.409 178.72 405.577C178.16 398.696 170.934 389.545 163.387 393.025C157.587 395.701 163.427 400.886 159.2 404.88C154.774 409.064 140.92 404.476 136.2 400.694C113.667 382.642 132.534 347.906 148.747 335.85C160.08 327.418 173.014 323.422 182.907 315.626C206.014 297.441 224.014 266.61 233.814 235.444C243.48 240.305 251.427 238.436 259.614 233.352C263.04 231.217 265.467 226.768 268.68 225.681C269.84 225.282 271.187 225.129 272.587 225.102C276.507 225.012 280.987 225.849 284.014 224.982C292.054 222.676 301.16 212.306 300.747 203.36Z" fill="#231F20"/>
</svg>
