<svg width="339" height="474" viewBox="0 0 339 474" fill="none" xmlns="http://www.w3.org/2000/svg">
<path d="M23.0534 473.607C10.5467 473.607 0.386719 463.438 0.386719 450.941V23.4088C0.386719 10.9101 10.5467 0.742085 23.0534 0.742085H315.867C328.36 0.742085 338.533 10.9101 338.533 23.4088V450.941C338.533 463.438 328.36 473.607 315.867 473.607H23.0534Z" fill="#849393"/>
<path d="M315.864 3.4094H271.691L267.664 14.4988L263.291 3.4094H23.0508C11.9974 3.4094 3.05078 12.3641 3.05078 23.4094V450.941C3.05078 461.985 11.9974 470.941 23.0508 470.941H67.2773L71.2508 460.029L75.544 470.941H315.864C326.904 470.941 335.864 461.985 335.864 450.941V23.4094C335.864 12.3641 326.904 3.4094 315.864 3.4094Z" fill="white"/>
<path d="M39.6651 44.3852V55.4784C39.6651 59.2438 40.3584 61.1265 41.7318 61.1265H42.0651C44.4784 60.9918 46.4785 60.9238 48.0918 60.9238H49.6918C50.4918 60.5212 50.8918 59.9158 50.8918 59.1091V45.9985C50.8918 44.3852 49.6917 43.5784 47.2784 43.5784H41.0651C40.3584 43.5784 39.8918 43.8465 39.6651 44.3852ZM54.9318 19.6411C57.3851 19.6411 58.9451 20.6291 59.5717 22.5998C59.7051 22.8251 59.7717 23.1838 59.7717 23.6758V32.3492L59.9717 34.2998C59.7051 34.4345 59.5051 34.5011 59.3585 34.5011C54.2118 32.4838 51.3851 31.2971 50.8918 30.9371V28.4492C50.8918 25.8945 50.3585 24.6171 49.2918 24.6171C47.0651 24.4825 45.3184 24.4158 44.0784 24.4158H43.0784C40.7984 24.4158 39.6651 25.1784 39.6651 26.7011V26.8358C39.6651 26.9705 39.7318 27.0385 39.8651 27.0385C39.7318 28.3825 39.6651 29.3905 39.6651 30.0638V35.5091C39.6651 37.6611 39.8918 38.7371 40.3318 38.7371H49.9185C54.6918 38.7371 57.5185 39.1398 58.3585 39.9465C59.4385 40.4851 59.9717 43.3092 59.9717 48.4185V49.8305C59.9717 51.0865 59.9051 54.0451 59.7717 58.7051C59.9051 60.1851 59.9717 61.4625 59.9717 62.5385C59.2517 64.8238 57.6384 65.9678 55.1318 65.9678H36.0384C33.2117 65.9678 31.5052 64.9584 30.9185 62.9424V27.9118C30.9185 26.7918 30.8785 25.4918 30.7852 24.0118C30.7852 21.8171 32.0651 20.3598 34.6251 19.6411H54.9318Z" fill="#100F0D"/>
<path d="M299.239 430.144V419.051C299.239 415.285 298.559 413.403 297.172 413.403H296.839C294.439 413.536 292.425 413.604 290.825 413.604H289.212C288.412 414.007 288.012 414.613 288.012 415.419V428.529C288.012 430.144 289.212 430.951 291.625 430.951H297.839C298.559 430.951 299.025 430.681 299.239 430.144ZM283.985 454.887C281.519 454.887 279.972 453.9 279.345 451.928C279.212 451.703 279.145 451.345 279.145 450.853V442.179L278.945 440.229C279.212 440.095 279.412 440.028 279.545 440.028C284.705 442.044 287.519 443.232 288.012 443.591V446.08C288.012 448.635 288.545 449.911 289.625 449.911C291.852 450.045 293.585 450.113 294.839 450.113H295.839C298.105 450.113 299.239 449.351 299.239 447.827V447.692C299.239 447.559 299.172 447.491 299.039 447.491C299.172 446.145 299.239 445.137 299.239 444.465V439.02C299.239 436.867 299.025 435.792 298.572 435.792H288.985C284.212 435.792 281.399 435.388 280.545 434.583C279.479 434.043 278.945 431.22 278.945 426.109V424.697C278.945 423.441 279.012 420.483 279.145 415.823C279.012 414.344 278.945 413.067 278.945 411.991C279.652 409.704 281.265 408.561 283.785 408.561H302.879C305.705 408.561 307.399 409.569 307.985 411.587V446.616C307.985 447.736 308.025 449.037 308.119 450.517C308.119 452.712 306.839 454.168 304.292 454.887H283.985Z" fill="#100F0D"/>
<path d="M293.227 353.215L295.681 350.871C295.681 350.871 296.334 345.71 299.081 342.588L293.227 337.299L287.374 342.588C290.121 345.71 290.774 350.871 290.774 350.871L293.227 353.215ZM265.121 351.246C263.827 374.231 278.094 378.119 281.454 370.535C283.254 366.501 280.454 360.632 277.387 359.72C273.654 358.61 274.054 362.411 274.054 362.411C274.054 362.411 274.947 361.239 276.107 361.416C278.387 361.766 277.161 365.567 274.761 365.567C272.361 365.567 269.214 363.696 268.454 356.212C267.334 345.278 279.147 344.304 286.334 350.603C289.161 353.074 291.667 356.33 293.227 358.562C294.801 356.33 297.307 353.074 300.121 350.603C307.307 344.304 319.121 345.278 318.014 356.212C317.254 363.696 314.094 365.567 311.694 365.567C309.294 365.567 308.067 361.766 310.347 361.416C311.507 361.239 312.401 362.411 312.401 362.411C312.401 362.411 312.801 358.61 309.067 359.72C306.001 360.632 303.214 366.501 305.001 370.535C308.361 378.119 322.627 374.231 321.334 351.246C321.334 351.246 325.187 355.799 325.201 362.059C325.214 369.716 322.214 377.959 310.121 385.85C303.094 390.428 297.054 394.042 293.227 396.27C289.401 394.042 283.361 390.428 276.334 385.85C264.241 377.959 261.241 369.716 261.254 362.059C261.267 355.799 265.121 351.246 265.121 351.246Z" fill="#100F0D"/>
<path d="M45.6788 121.313L43.2256 123.657C43.2256 123.657 42.5855 128.818 39.8388 131.94L45.6788 137.23L51.5322 131.94C48.7855 128.818 48.1322 123.657 48.1322 123.657L45.6788 121.313ZM73.7989 123.284C75.0789 100.298 60.8123 96.4105 57.4523 103.993C55.6656 108.028 58.4523 113.897 61.5189 114.808C65.2656 115.918 64.8523 112.118 64.8523 112.118C64.8523 112.118 63.9589 113.29 62.7989 113.113C60.5189 112.762 61.7455 108.963 64.1455 108.963C66.5455 108.963 69.7055 110.832 70.4655 118.316C71.5722 129.25 59.7588 130.225 52.5722 123.925C49.7588 121.456 47.2522 118.198 45.6788 115.968C44.1188 118.198 41.6123 121.456 38.7856 123.925C31.5989 130.225 19.7855 129.25 20.9055 118.316C21.6655 110.832 24.8255 108.963 27.2122 108.963C29.6122 108.963 30.8389 112.762 28.5589 113.113C27.3989 113.29 26.5189 112.118 26.5189 112.118C26.5189 112.118 26.1055 115.918 29.8388 114.808C32.9055 113.897 35.7056 108.028 33.9189 103.993C30.5456 96.4105 16.2788 100.298 17.5722 123.284C17.5722 123.284 13.7189 118.73 13.7189 112.47C13.6923 104.812 16.6922 96.5705 28.7989 88.6798C35.8122 84.0998 41.8522 80.4865 45.6788 78.2585C49.5188 80.4865 55.5455 84.0998 62.5722 88.6798C74.6655 96.5705 77.6656 104.812 77.6523 112.47C77.6389 118.73 73.7989 123.284 73.7989 123.284Z" fill="#100F0D"/>
<path d="M169.453 277.065L162.253 283.936C162.253 283.936 160.36 299.08 152.293 308.235L169.453 323.752L186.613 308.235C178.56 299.08 176.653 283.936 176.653 283.936L169.453 277.065ZM251.92 282.844C255.707 215.421 213.84 204.017 203.973 226.261C198.72 238.092 206.92 255.311 215.907 257.984C226.88 261.243 225.68 250.093 225.68 250.093C225.68 250.093 223.066 253.531 219.68 253.012C213 251.984 216.6 240.836 223.627 240.836C230.653 240.836 239.92 246.32 242.146 268.269C245.4 300.348 210.76 303.204 189.68 284.727C181.413 277.481 174.053 267.929 169.453 261.383C164.867 267.929 157.507 277.481 149.24 284.727C128.16 303.204 93.5199 300.348 96.7732 268.269C98.9999 246.32 108.267 240.836 115.293 240.836C122.32 240.836 125.92 251.984 119.24 253.012C115.853 253.531 113.24 250.093 113.24 250.093C113.24 250.093 112.04 261.243 123 257.984C132 255.311 140.186 238.092 134.946 226.261C125.08 204.017 83.2132 215.421 86.9999 282.844C86.9999 282.844 75.7198 269.488 75.6798 251.121C75.6398 228.663 84.4266 204.487 119.92 181.343C140.52 167.911 158.227 157.311 169.453 150.776C180.693 157.311 198.4 167.911 218.987 181.343C254.48 204.487 263.28 228.663 263.227 251.121C263.2 269.488 251.92 282.844 251.92 282.844Z" fill="#100F0D"/>
</svg>
