<svg width="339" height="474" viewBox="0 0 339 474" fill="none" xmlns="http://www.w3.org/2000/svg">
<path d="M23.4049 473.146C10.9049 473.146 0.738281 462.977 0.738281 450.48V22.9464C0.738281 10.4531 10.9049 0.279781 23.4049 0.279781H316.225C328.722 0.279781 338.892 10.4531 338.892 22.9464V450.48C338.892 462.977 328.722 473.146 316.225 473.146H23.4049Z" fill="#849393"/>
<path d="M316.226 2.94612H272.053L268.021 14.0395L263.652 2.94612H23.4062C12.3596 2.94612 3.40625 11.9061 3.40625 22.9461V450.479C3.40625 461.525 12.3596 470.479 23.4062 470.479H67.6409L71.6089 459.569L75.9076 470.479H316.226C327.27 470.479 336.226 461.525 336.226 450.479V22.9461C336.226 11.9061 327.27 2.94612 316.226 2.94612Z" fill="white"/>
<path d="M225.464 418.909C225.464 376.167 252.774 339.817 290.892 326.316V48.2798H113.933C114.072 50.3998 114.165 52.5333 114.165 54.6933C114.165 97.4399 86.8543 133.787 48.7383 147.293V425.146H225.681C225.552 423.082 225.464 421.007 225.464 418.909Z" fill="#F1EAD7"/>
<path d="M39.7556 19.1869H51.5889V19.4536C50.5583 20.6536 50.0423 21.6935 50.0423 22.5468V46.0135C50.0423 47.9335 50.1543 50.6268 50.3783 54.0801C50.3783 57.0801 48.3023 60.2802 44.1463 63.6936C41.6676 64.9069 39.173 65.5068 36.6623 65.5068L35.1836 65.2402V64.9068C39.2623 62.2535 41.3023 58.8535 41.3023 54.6801V22.5468C41.3023 21.6935 40.7863 20.6536 39.7556 19.4536V19.1869Z" fill="#100F0D"/>
<path d="M299.872 454.426H288.039V454.156C289.071 452.947 289.584 451.916 289.584 451.064V427.598C289.584 425.671 289.474 422.98 289.25 419.53C289.25 416.528 291.327 413.322 295.48 409.916C297.96 408.704 300.455 408.1 302.966 408.1L304.444 408.368V408.704C300.366 411.351 298.327 414.756 298.327 418.926V451.064C298.327 451.916 298.843 452.947 299.872 454.156V454.426Z" fill="#100F0D"/>
<path d="M293.585 352.753L296.04 350.41C296.04 350.41 296.687 345.249 299.436 342.128L293.585 336.837L287.736 342.128C290.484 345.249 291.131 350.41 291.131 350.41L293.585 352.753ZM265.475 350.784C264.184 373.769 278.455 377.657 281.817 370.074C283.605 366.04 280.816 360.17 277.749 359.258C274.008 358.148 274.417 361.949 274.417 361.949C274.417 361.949 275.308 360.777 276.465 360.954C278.744 361.305 277.517 365.105 275.119 365.105C272.723 365.105 269.567 363.236 268.805 355.75C267.695 344.816 279.507 343.842 286.692 350.141C289.512 352.612 292.019 355.868 293.585 358.1C295.153 355.868 297.661 352.612 300.479 350.141C307.665 343.842 319.475 344.816 318.365 355.75C317.605 363.236 314.449 365.105 312.053 365.105C309.656 365.105 308.428 361.305 310.707 360.954C311.863 360.777 312.753 361.949 312.753 361.949C312.753 361.949 313.163 358.148 309.423 359.258C306.357 360.17 303.565 366.04 305.353 370.074C308.717 377.657 322.988 373.769 321.696 350.784C321.696 350.784 325.543 355.337 325.556 361.597C325.569 369.254 322.575 377.497 310.475 385.388C303.453 389.968 297.416 393.581 293.585 395.808C289.753 393.581 283.719 389.968 276.697 385.388C264.597 377.497 261.6 369.254 261.617 361.597C261.629 355.337 265.475 350.784 265.475 350.784Z" fill="#100F0D"/>
<path d="M46.0397 120.854L43.5837 123.2C43.5837 123.2 42.9384 128.36 40.1904 131.48L46.0397 136.773L51.8904 131.48C49.1411 128.36 48.4958 123.2 48.4958 123.2L46.0397 120.854ZM74.1504 122.827C75.4424 99.8402 61.1717 95.9468 57.8077 103.533C56.0197 107.56 58.809 113.44 61.8757 114.347C65.6184 115.453 65.2064 111.654 65.2064 111.654C65.2064 111.654 64.3171 112.827 63.1611 112.654C60.8824 112.307 62.109 108.507 64.5064 108.507C66.9037 108.507 70.0597 110.374 70.8197 117.854C71.9304 128.787 60.1197 129.76 52.9331 123.467C50.1144 121 47.6077 117.733 46.0397 115.507C44.4717 117.733 41.9651 121 39.1464 123.467C31.9597 129.76 20.1491 128.787 21.2584 117.854C22.0211 110.374 25.177 108.507 27.573 108.507C29.969 108.507 31.1957 112.307 28.917 112.654C27.7624 112.827 26.8717 111.654 26.8717 111.654C26.8717 111.654 26.4637 115.453 30.2024 114.347C33.2691 113.44 36.061 107.56 34.273 103.533C30.909 95.9468 16.6357 99.8402 17.9277 122.827C17.9277 122.827 14.0824 118.267 14.0704 112.013C14.0557 104.347 17.0517 96.1067 29.1504 88.2134C36.173 83.6401 42.209 80.0268 46.0397 77.8001C49.8704 80.0268 55.9077 83.6401 62.9277 88.2134C75.0264 96.1067 78.025 104.347 78.009 112.013C77.997 118.267 74.1504 122.827 74.1504 122.827Z" fill="#100F0D"/>
<path d="M122.295 245.483C109.323 242.883 99.608 237.006 93.4186 228.012L93.3359 227.891L93.3679 227.748C94.7999 221.587 97.2226 216.307 99.5653 211.214C100.872 208.374 102.223 205.427 103.381 202.374L103.617 201.76L103.973 202.32C104.961 203.867 105.927 205.4 106.885 206.92C113.588 217.6 119.919 227.674 130.559 235.555L130.823 235.751L130.631 236.018C129.533 237.54 128.227 238.879 126.964 240.174C125.424 241.751 123.833 243.379 122.644 245.33L122.524 245.528L122.295 245.483ZM170.727 252.647C170.073 251.43 169.384 250.216 168.716 249.042C166.764 245.606 164.745 242.054 163.369 237.928L163.208 237.444L163.717 237.491C164.464 237.56 165.237 237.595 166.013 237.595C180.924 237.594 199.139 224.862 209.423 212.28L209.505 212.187L209.636 212.16C209.768 212.147 209.892 212.134 210.007 212.134C210.887 212.134 211.215 212.64 211.335 213.067C211.979 219.307 211.868 224.087 211.76 228.71C211.665 232.792 211.576 236.646 212.013 241.124L212.033 241.346L211.839 241.45C200.001 247.812 186.659 251.532 171.047 252.822L170.829 252.84L170.727 252.647ZM152.901 271.468C150.013 270.374 147.935 268.36 146.101 266.583C145.532 266.031 144.927 265.45 144.297 264.886C143.033 265.494 141.639 266.266 140.597 267.383L140.183 267.83L140.031 267.239C139.195 263.972 140.708 260.568 142.172 257.275C142.868 255.706 143.528 254.224 143.932 252.779L144.237 251.622L144.641 252.323C147.609 257.454 150.964 263.691 153.337 271.054L153.549 271.714L152.901 271.468ZM156.841 317.028C128.783 317.028 107.528 302.55 101.371 279.242L101.245 278.767L101.732 278.826C104.388 279.142 106.535 280.842 108.807 282.64C111.251 284.575 113.776 286.575 117.052 286.818L117.292 286.835L117.349 287.07C117.721 288.551 117.991 290.156 118.252 291.708C118.549 293.468 118.855 295.286 119.307 296.915C123.016 298.698 127.825 300.712 132.391 300.712C134.807 300.712 136.923 300.128 138.683 298.975C138.604 296.536 138.216 295.006 137.427 294.026L136.951 293.434L137.708 293.483C139.915 293.63 142.073 293.784 144.195 293.936C151.119 294.435 157.657 294.906 164.153 294.906C173.78 294.906 182.075 293.822 190.256 291.496C192.556 290.846 194.964 289.828 197.513 288.751C199.061 288.098 200.661 287.422 202.232 286.838C206.584 285.22 210.769 283.548 214.141 280.895L215.117 280.127L214.657 281.28C211.288 289.728 202.963 298.498 189.204 308.09L188.729 308.422L188.659 307.552C188.443 304.862 188.239 302.314 186.367 301.514C183.551 302.868 180.36 303.895 177.272 304.888C174.347 305.83 171.323 306.803 168.647 308.047C168.355 309.652 168.796 311.084 169.187 312.351C169.615 313.742 169.984 314.942 169.3 315.998L169.216 316.126L169.067 316.146C164.949 316.731 160.839 317.028 156.848 317.028C156.847 317.028 156.844 317.028 156.841 317.028Z" fill="#2A5124"/>
<path d="M121.032 241.8C110.42 239.324 102.328 234.42 96.9375 227.2C98.3228 221.904 100.492 217.186 102.594 212.6C103.14 211.413 103.695 210.213 104.243 208.973C110.527 218.986 116.522 228.456 126.076 236.285C125.584 236.813 125.079 237.333 124.579 237.845C123.427 239.024 122.167 240.314 121.032 241.8ZM172.707 249.325C172.343 248.674 171.976 248.03 171.618 247.398C170.418 245.288 169.192 243.132 168.132 240.852C181.96 239.873 197.819 229.622 208.401 218.466C208.579 222.212 208.503 225.461 208.428 228.633C208.346 232.198 208.266 235.596 208.528 239.42C198.028 244.758 186.272 248.01 172.707 249.325ZM144.55 261.145L142.635 262.068C143.188 260.652 143.806 259.204 144.452 257.733C145.476 259.7 146.498 261.718 147.506 263.786L144.55 261.145ZM116.384 298.849C112.524 295.048 109.398 290.592 107.132 285.565C109.23 287.221 111.566 288.976 114.526 289.758C114.683 290.582 114.826 291.429 114.967 292.261C115.276 294.102 115.596 296.008 116.094 297.805L116.384 298.849ZM156.842 313.694C140.558 313.694 126.714 308.576 117.131 299.566L117.862 299.918C121.862 301.84 127.126 304.045 132.391 304.045C135.468 304.045 138.199 303.277 140.511 301.761L142.073 300.737L142.014 298.869C141.994 298.245 141.956 297.661 141.896 297.113C142.586 297.162 143.274 297.212 143.956 297.261C150.94 297.764 157.536 298.238 164.154 298.238C174.096 298.238 182.68 297.114 191.168 294.701C193.661 293.996 196.161 292.94 198.807 291.822C200.32 291.184 201.88 290.525 203.395 289.961C204.306 289.622 205.211 289.281 206.107 288.926C202.551 293.266 197.607 297.781 191.209 302.54C190.644 300.822 189.624 299.281 187.679 298.449L186.287 297.853L184.923 298.509C182.311 299.765 179.231 300.756 176.251 301.714C173.231 302.688 170.106 303.692 167.243 305.024L165.678 305.75L165.368 307.449C164.944 309.773 165.508 311.728 165.955 313.181C162.882 313.521 159.828 313.694 156.848 313.694H156.842Z" fill="#98D320"/>
<path d="M229.47 179.067C230.194 181.693 233.27 185.56 236.541 187.24C235.632 183.52 233.364 180.893 229.47 179.067ZM149.54 200.627C148.226 202.707 147.289 205.973 146.682 210.547L146.572 211.36C145.845 216.813 144.865 224.131 147.29 226.996C147.004 222.199 147.877 217.227 148.653 212.813C149.457 208.24 150.22 203.907 149.54 200.627ZM103.926 198.8C103.236 200.493 101.781 203.187 100.106 206.307C96.1983 213.573 90.8476 223.527 91.3556 227.784C91.8543 231.924 100.584 240.449 105.181 242.861C108.626 244.667 112.538 245.489 116.324 246.285C118.752 246.796 121.261 247.323 123.597 248.105C125.681 245.925 127.517 243.418 129.296 240.992C130.556 239.271 131.858 237.495 133.246 235.836L131.373 233.857C121.766 223.716 111.832 213.227 105.468 199.467C105.112 199.413 104.872 199.227 104.673 199.08C104.452 198.92 104.293 198.8 103.992 198.8C103.97 198.8 103.949 198.8 103.926 198.8ZM159.548 237.2C162.262 239.873 163.806 243.741 165.304 247.485C166.414 250.268 167.561 253.142 169.174 255.466C183.456 253.471 201.152 250.968 213.374 242.957C215.29 231.643 214.513 216.693 211.485 206.347C209.454 207.693 208.061 209.707 206.592 211.827C205.577 213.28 204.526 214.8 203.248 216.067C196.345 222.899 183.964 230.603 173.14 234.801C171.16 235.569 169.069 235.595 167.045 235.621C164.404 235.655 161.902 235.687 159.548 237.2ZM240.029 269.583C240.446 269.747 240.725 270.035 240.976 270.296C241.326 270.656 241.602 270.943 242.198 270.943C242.384 270.943 242.596 270.915 242.828 270.859C243.412 270.182 243.424 268.835 243.356 267.463C243.162 267.447 242.978 267.44 242.804 267.44C241.064 267.44 240.177 268.123 240.029 269.583ZM145.32 267.682C147.034 271.331 152.121 274.3 156.66 274.299C157.05 274.299 157.433 274.276 157.804 274.233C155.824 270.955 154.172 267.289 152.572 263.739C150.249 258.585 147.85 253.263 144.43 249.104C143.922 250.174 143.373 251.258 142.796 252.398L142.576 252.827C139.601 258.656 136.238 265.251 136.657 272.095C138.214 271.763 139.204 270.871 140.246 269.931C141.477 268.82 142.75 267.672 144.99 267.491L145.222 267.472L145.32 267.682ZM248.512 276.856C248.746 276.913 248.96 276.943 249.146 276.943C249.746 276.943 250.024 276.656 250.374 276.295C250.625 276.035 250.904 275.749 251.316 275.584C251.145 274.143 250.348 273.471 248.821 273.471C248.714 273.471 248.604 273.472 248.49 273.479C248.181 273.835 247.993 274.463 247.993 275.156C247.993 275.865 248.19 276.507 248.512 276.856ZM238.646 278.08C238.384 280.217 239.325 281.012 240.266 281.428C240.476 281.232 240.704 281.061 240.925 280.895C241.733 280.289 242.433 279.763 242.06 278.085C241.246 277.836 240.776 277.705 240.342 277.705C239.913 277.705 239.448 277.833 238.646 278.08ZM263.048 278.92C261.878 280.178 261.136 282.513 261.436 284.083C261.55 284.68 261.802 285.108 262.184 285.361C262.242 285.239 262.304 285.109 262.368 284.975C263.292 283.047 264.67 280.171 263.048 278.92ZM259.122 290.917C257.89 292.801 249.994 304.709 243.093 311.121C250.412 307.289 256.221 300.653 259.99 291.785C259.873 291.36 259.534 291.133 259.122 290.917ZM98.809 274.377C101.204 286.101 106.564 301.361 118.534 308.867C120.286 309.967 122.129 310.409 124.08 310.877C125.48 311.215 126.93 311.563 128.48 312.173C128.696 312.255 128.818 312.492 129.074 313.02C129.252 313.391 129.584 314.08 129.818 314.175C138.321 317.664 147.592 319.508 156.624 319.508C162.026 319.508 167.409 318.856 172.63 317.571C172.405 316.488 172.114 315.453 171.832 314.449C171.37 312.812 170.897 311.121 170.688 309.185L170.649 308.835L171.001 308.816C174.434 308.645 178.036 307.272 180.929 306.168C182.528 305.557 183.91 305.029 184.954 304.823L185.222 304.769L185.326 305.021C185.712 305.945 185.994 306.979 186.268 307.977C186.661 309.416 187.068 310.897 187.774 312.019C199.878 303.699 213.501 294.24 219.257 277.361C218.758 277.205 218.27 277.128 217.773 277.128C215.89 277.128 214.21 278.269 212.434 279.477C211.398 280.184 210.326 280.912 209.153 281.459C203.356 284.156 195.189 287.255 190.449 288.8C182.542 291.387 173.264 292.698 162.868 292.698C155.637 292.698 147.818 292.081 138.97 290.812C137.988 290.539 137.385 289.957 136.804 289.393C136.313 288.921 135.85 288.474 135.201 288.226C134.048 290.786 134.422 292.502 134.854 294.476C135.077 295.494 135.305 296.544 135.358 297.803L135.37 298.089L135.088 298.143C134.402 298.276 133.644 298.343 132.834 298.343C129.574 298.343 125.824 297.281 122.256 296.135L122.076 296.076L122.032 295.891C121.805 294.887 121.438 293.987 121.084 293.116C120.312 291.217 119.514 289.255 119.984 286.049C115.614 284.681 112.145 282.383 108.477 279.952C105.525 277.995 102.474 275.973 98.809 274.377ZM168.824 346.883C141.873 346.883 118.21 338.087 105.301 323.315C105.36 323.527 105.473 323.744 105.62 324.021C105.738 324.249 105.87 324.5 105.998 324.8L106.082 324.992L105.941 325.151C105.78 325.332 105.534 325.511 105.19 325.696L105.02 325.788L104.856 325.687C95.1596 319.648 85.9156 313.464 79.365 304.215C79.1596 303.928 78.9583 303.634 78.7556 303.338C72.673 294.342 65.3049 276.061 64.0329 263.189C62.2903 245.557 70.1983 233.159 77.8476 221.173C79.9463 217.88 82.1183 214.467 84.0676 211C86.4983 206.667 88.8543 202.094 91.1329 197.654C97.0116 186.227 102.564 175.44 109.452 168.267C113.449 164.107 124.326 155.52 132.441 155.52C134.794 155.52 136.725 156.253 138.181 157.707C138.897 158.413 139.504 159.307 139.988 160.36L140.1 160.613L139.885 160.773C134.94 164.467 132.342 170.6 130.357 176.827C131.612 175.533 132.766 173.413 133.974 171.2C135.804 167.853 137.873 164.067 140.81 162.24C141.28 161.773 141.73 161.547 142.184 161.547C142.886 161.547 143.417 162.08 143.93 162.6C144.276 162.947 144.632 163.307 145.017 163.48C146.677 162.8 147.864 161.693 149.12 160.507C150.834 158.893 152.608 157.227 155.641 156.84L156.2 156.76L155.996 157.294C154.764 160.44 153.201 171.893 156.308 174.08C158.329 172.147 159.928 169.64 161.476 167.227C164.757 162.107 168.149 156.813 175.626 156.813C175.868 156.813 176.116 156.827 176.368 156.84H176.434L176.494 156.867C182.573 159.72 183.86 166.32 185.102 172.72C186.173 178.214 187.28 183.907 191.426 187.213C191.974 183.373 192.801 179.973 193.601 176.68C194.953 171.107 196.229 165.853 196.013 159.173L196.001 158.827L196.474 158.84C198.201 158.84 199.137 158.067 200.125 157.24C201.158 156.387 202.228 155.507 204.185 155.507H204.604L204.668 155.747C204.825 156.333 204.99 156.96 205.164 157.627C206.729 163.574 208.86 171.694 212.386 176.654C213.572 175.227 213.881 171.347 214.157 167.894C214.257 166.654 214.352 165.467 214.481 164.373C214.82 161.52 215.325 160.08 216.17 159.547C216.588 159.293 217.029 159.16 217.478 159.16C219.16 159.16 220.677 160.933 222.433 162.973C224.384 165.253 226.593 167.84 229.193 167.84L229.508 167.827L230.77 169.507C235.924 176.32 240.792 182.76 244.429 190.773C246.341 195 247.726 199.24 248.666 203.76L248.713 203.987L248.514 204.107C246.324 205.467 244.121 206.093 241.58 206.093C240.132 206.093 238.746 205.893 237.406 205.693C236.128 205.507 234.918 205.333 233.709 205.333C231.438 205.333 229.642 205.973 227.89 207.413C223.318 211.173 222.296 217.787 225.082 225.577C228.006 233.751 235.173 242.205 242.102 242.205C242.394 242.205 242.686 242.189 242.97 242.157C248.898 241.504 251.094 235.989 251.174 231.047C251.272 224.975 248.226 218.24 242.96 217.493C242.585 217.44 242.214 217.413 241.854 217.413C239.325 217.413 237.088 218.773 235.718 221.147C234.437 223.365 234.2 226.056 235.142 227.689C235.729 228.704 236.73 229.241 238.038 229.241C238.67 229.241 239.376 229.117 240.137 228.873C240.917 227.705 240.088 226.8 238.744 225.564C237.828 224.722 236.962 223.925 237.376 223.024L237.406 222.957L237.462 222.911C237.942 222.495 238.314 222.107 238.642 221.763C239.542 220.827 240.192 220.147 241.87 220.147C242.025 220.147 242.189 220.147 242.361 220.16C242.969 220.2 248.258 223.961 248.653 225.049C250.812 230.955 247.604 237.46 244.47 238.796C243.414 239.248 242.324 239.476 241.23 239.476C234.621 239.476 228.89 231.172 226.854 223.36C225.393 217.747 225.5 210.827 230.184 208.2C231.35 207.547 232.79 207.254 234.714 207.254C236.205 207.254 237.809 207.427 239.36 207.613C240.87 207.787 242.433 207.973 243.845 207.973C247.237 207.973 249.142 206.867 250.026 204.387L250.184 203.947L250.549 204.24C259.516 211.467 273.564 237.283 268.482 252.207C266.156 259.043 260.278 262.615 251.014 262.823L250.866 262.826L250.765 262.72C248.817 260.695 247.697 254.482 249.221 250.904C249.993 249.088 251.354 248.131 253.157 248.131C253.333 248.131 253.517 248.139 253.705 248.157L253.954 248.183L254.001 248.428C254.109 249.008 254.589 249.246 255.145 249.52L255.284 249.588L255.329 249.743C255.894 252.018 254.856 252.791 253.938 253.472C253.217 254.009 252.59 254.475 252.662 255.679C252.917 255.917 253.27 256.035 253.741 256.035C255.088 256.035 256.986 255.033 258.021 254.307C258.426 249.58 257.109 246.738 253.636 244.848C248.16 246.474 245.664 250.277 246.006 256.472C246.321 262.143 249.165 265.267 254.01 265.267H254.012C260.822 265.265 270.369 258.644 272.013 250.424C272.269 249.139 271.974 247.868 271.661 246.526C271.293 244.944 270.876 243.152 271.348 241.083L271.556 240.168L271.97 241.008C282.352 261.995 273.894 292.636 263.261 305.363C252.756 317.939 234.814 328.023 225.176 333.44L224.733 332.968C225.061 332.464 225.398 331.968 225.734 331.472C226.512 330.327 227.306 329.155 227.984 327.877C214.533 339.805 192.585 346.883 168.824 346.883Z" fill="#FACB0C"/>
<path d="M85.4594 311.323C91.1354 316.911 97.8755 321.34 104.855 325.687L105.019 325.788L105.19 325.696C105.534 325.511 105.779 325.332 105.941 325.151L106.082 324.992L105.998 324.8C105.87 324.5 105.738 324.249 105.619 324.021C105.473 323.744 105.359 323.527 105.301 323.315C105.477 323.518 105.663 323.714 105.845 323.915C104.631 320.086 106.561 317.6 106.561 317.6C100.727 319.335 90.7608 314.361 85.4594 311.323ZM78.3381 287.379C84.0554 299.527 84.7821 287.6 80.7821 281.379C76.7821 275.156 74.7821 279.823 78.3381 287.379ZM263.047 278.92C261.878 280.178 261.135 282.513 261.435 284.083C261.55 284.68 261.802 285.108 262.183 285.361C262.242 285.239 262.303 285.109 262.367 284.975C263.291 283.047 264.67 280.171 263.047 278.92ZM259.99 291.785C259.873 291.36 259.534 291.133 259.122 290.917C257.89 292.801 249.994 304.709 243.093 311.121C250.411 307.289 256.221 300.653 259.99 291.785ZM242.562 299.379C244.784 295.823 240.784 295.6 237.896 298.933C234.1 303.312 240.34 302.933 242.562 299.379ZM234.562 308.489C232.613 310.635 234.562 312.045 236.339 310.933C238.117 309.823 236.784 306.044 234.562 308.489ZM235.229 252.933C234.562 248.489 230.339 250.489 230.339 255.6C230.339 260.712 235.896 257.379 235.229 252.933ZM240.266 281.428C240.475 281.232 240.703 281.061 240.925 280.895C241.733 280.289 242.433 279.763 242.059 278.085C241.246 277.836 240.775 277.705 240.342 277.705C239.913 277.705 239.448 277.833 238.646 278.08C238.384 280.217 239.325 281.012 240.266 281.428ZM240.029 269.583C240.446 269.747 240.725 270.035 240.975 270.296C241.326 270.656 241.602 270.943 242.198 270.943C242.383 270.943 242.595 270.915 242.827 270.859C243.411 270.182 243.423 268.835 243.355 267.463C243.162 267.447 242.978 267.44 242.803 267.44C241.063 267.44 240.177 268.123 240.029 269.583ZM247.993 275.156C247.993 275.865 248.19 276.507 248.511 276.856C248.746 276.913 248.96 276.943 249.146 276.943C249.746 276.943 250.023 276.656 250.374 276.295C250.625 276.035 250.903 275.749 251.315 275.584C251.145 274.143 250.347 273.471 248.821 273.471C248.714 273.471 248.604 273.472 248.49 273.479C248.181 273.835 247.993 274.463 247.993 275.156ZM211.485 206.347C209.454 207.693 208.061 209.707 206.591 211.827C205.577 213.28 204.526 214.8 203.247 216.067C196.345 222.899 183.963 230.603 173.139 234.801C171.159 235.569 169.069 235.595 167.045 235.621C164.403 235.655 161.902 235.687 159.547 237.2C162.262 239.873 163.806 243.741 165.303 247.485C166.414 250.268 167.561 253.142 169.174 255.466C183.455 253.471 201.151 250.968 213.374 242.957C215.29 231.643 214.513 216.693 211.485 206.347ZM229.47 179.067C230.194 181.693 233.27 185.56 236.541 187.24C235.631 183.52 233.363 180.893 229.47 179.067ZM263.261 305.363C252.755 317.939 234.814 328.023 225.175 333.44L224.733 332.968C225.061 332.464 225.398 331.968 225.734 331.472C226.511 330.327 227.306 329.155 227.983 327.877C214.533 339.805 192.585 346.883 168.823 346.883C149.561 346.883 131.979 342.387 118.802 334.429C122.041 334.801 125.727 334.465 129.449 335.6C184.783 352.489 176.783 306.489 176.783 306.489C178.383 305.879 183.91 305.029 184.954 304.823L185.222 304.769L185.326 305.021C185.711 305.945 185.994 306.979 186.267 307.977C186.661 309.416 187.067 310.897 187.774 312.019C199.878 303.699 213.501 294.24 219.257 277.361C218.758 277.205 218.27 277.128 217.773 277.128C215.89 277.128 214.21 278.269 212.434 279.477C211.398 280.184 210.326 280.912 209.153 281.459C203.355 284.156 195.189 287.255 190.449 288.8C182.542 291.387 167.671 296.712 164.561 290.045C169.894 284.489 161.671 264.489 154.782 252.267C147.894 240.045 147.227 227.6 155.449 229.823C163.671 232.044 180.562 229.379 195.229 210.933C201.872 202.573 198.939 190.253 193.743 179.267C192.585 182.613 191.79 185.693 191.437 187.16C191.985 183.347 192.805 179.96 193.601 176.68C194.953 171.107 196.229 165.853 196.013 159.173L196.001 158.827L196.474 158.84C198.201 158.84 199.137 158.067 200.125 157.24C201.158 156.387 202.228 155.507 204.185 155.507H204.603L204.667 155.747C204.825 156.333 204.99 156.96 205.163 157.627C206.729 163.574 208.859 171.694 212.386 176.654C213.571 175.227 213.881 171.347 214.157 167.894C214.257 166.654 214.351 165.467 214.481 164.373C214.819 161.52 215.325 160.08 216.17 159.547C216.587 159.293 217.029 159.16 217.478 159.16C219.159 159.16 220.677 160.933 222.433 162.973C224.383 165.253 226.593 167.84 229.193 167.84L229.507 167.827L230.77 169.507C235.923 176.32 240.792 182.76 244.429 190.773C246.341 195 247.726 199.24 248.666 203.76L248.713 203.987L248.514 204.107C246.323 205.467 244.121 206.093 241.58 206.093C240.132 206.093 238.746 205.893 237.406 205.693C236.127 205.507 234.918 205.333 233.709 205.333C231.438 205.333 229.642 205.973 227.89 207.413C223.318 211.173 222.295 217.787 225.082 225.577C228.006 233.751 235.173 242.205 242.102 242.205C242.394 242.205 242.686 242.189 242.97 242.157C248.898 241.504 251.094 235.989 251.174 231.047C251.271 224.975 248.226 218.24 242.959 217.493C242.585 217.44 242.214 217.413 241.854 217.413C239.325 217.413 237.088 218.773 235.718 221.147C234.437 223.365 234.199 226.056 235.142 227.689C235.729 228.704 236.73 229.241 238.038 229.241C238.67 229.241 239.375 229.117 240.137 228.873C240.917 227.705 240.087 226.8 238.743 225.564C237.827 224.722 236.962 223.925 237.375 223.024L237.406 222.957L237.462 222.911C237.942 222.495 238.314 222.107 238.642 221.763C239.542 220.827 240.191 220.147 241.87 220.147C242.025 220.147 242.189 220.147 242.361 220.16C242.969 220.2 248.258 223.961 248.653 225.049C250.811 230.955 247.603 237.46 244.47 238.796C243.414 239.248 242.323 239.476 241.23 239.476C234.621 239.476 228.89 231.172 226.854 223.36C225.393 217.747 225.499 210.827 230.183 208.2C231.35 207.547 232.79 207.254 234.714 207.254C236.205 207.254 237.809 207.427 239.359 207.613C240.87 207.787 242.433 207.973 243.845 207.973C247.237 207.973 249.142 206.867 250.026 204.387L250.183 203.947L250.549 204.24C259.515 211.467 273.563 237.283 268.482 252.207C266.155 259.043 260.278 262.615 251.014 262.823L250.866 262.826L250.765 262.72C248.817 260.695 247.697 254.482 249.221 250.904C249.993 249.088 251.354 248.131 253.157 248.131C253.333 248.131 253.517 248.139 253.705 248.157L253.954 248.183L254.001 248.428C254.109 249.008 254.589 249.246 255.145 249.52L255.283 249.588L255.329 249.743C255.894 252.018 254.855 252.791 253.938 253.472C253.217 254.009 252.59 254.475 252.662 255.679C252.917 255.917 253.27 256.035 253.741 256.035C255.087 256.035 256.986 255.033 258.021 254.307C258.426 249.58 257.109 246.738 253.635 244.848C248.159 246.474 245.663 250.277 246.006 256.472C246.321 262.143 249.165 265.267 254.01 265.267H254.011C260.822 265.265 270.369 258.644 272.013 250.424C272.269 249.139 271.974 247.868 271.661 246.526C271.293 244.944 270.875 243.152 271.347 241.083L271.555 240.168L271.97 241.008C282.351 261.995 273.894 292.636 263.261 305.363ZM136.338 242.045C140.269 236.339 143.619 226.586 145.773 219.254C145.809 218.254 145.886 217.227 145.987 216.213C143.602 220.333 138.951 224.295 130.115 220.933C114.338 214.933 105.467 199.467 105.467 199.467C111.831 213.227 121.766 223.716 131.373 233.857L133.246 235.836C131.858 237.495 130.555 239.271 129.295 240.992C127.517 243.418 125.681 245.925 123.597 248.105C121.261 247.323 118.751 246.796 116.323 246.285C112.538 245.489 108.626 244.667 105.181 242.861C101.79 241.081 96.1501 235.973 93.2248 231.755C93.2275 231.777 93.2248 231.801 93.2275 231.823C93.6728 236.267 105.449 249.823 114.115 253.379C122.782 256.933 129.449 252.045 136.338 242.045ZM133.974 171.2C133.589 171.907 133.206 172.6 132.826 173.267C134.667 171.84 137.917 169.8 143.227 167.827C149.402 165.52 153.055 168.814 154.87 171.427C153.883 167.187 155.038 159.734 155.995 157.294L156.199 156.76L155.641 156.84C152.607 157.227 150.834 158.893 149.119 160.507C147.863 161.693 146.677 162.8 145.017 163.48C144.631 163.307 144.275 162.947 143.93 162.6C143.417 162.08 142.886 161.547 142.183 161.547C141.73 161.547 141.279 161.773 140.81 162.24C137.873 164.067 135.803 167.853 133.974 171.2ZM191.422 187.213C190.907 186.8 190.438 186.347 190.011 185.867C191.222 188.04 191.229 188.04 191.229 188.04C191.229 188.04 191.295 187.747 191.422 187.213ZM189.673 206.04C192.562 199.6 191.227 192.04 186.783 197.6C182.374 203.107 186.783 212.493 189.673 206.04ZM78.3381 269.379C77.6714 266.267 75.6714 265.6 75.4488 268.489C75.1634 272.203 79.0048 272.489 78.3381 269.379ZM170.338 161.6C176.659 159.627 183.327 173.267 186.917 180.227C186.106 177.853 185.598 175.267 185.102 172.72C183.859 166.32 182.573 159.72 176.494 156.867L176.434 156.84H176.367C176.115 156.827 175.867 156.813 175.626 156.813C168.149 156.813 164.757 162.107 161.475 167.227C161.071 167.867 160.662 168.493 160.243 169.133C162.899 166.173 166.591 162.773 170.338 161.6ZM127.459 156.413C129.178 155.853 130.862 155.52 132.441 155.52C134.794 155.52 136.725 156.253 138.181 157.707C138.897 158.413 139.503 159.307 139.987 160.36L140.099 160.613L139.885 160.773C135.446 164.093 132.902 169.374 130.99 174.92C130.85 175.067 130.782 175.16 130.782 175.16C133.178 165.934 130.666 159.813 127.459 156.413Z" fill="#F25C19"/>
<path d="M244.43 190.773C241.731 184.827 238.353 179.747 234.685 174.733C234.93 175.187 235.195 175.653 235.507 176.16C242.645 187.747 244.871 202.533 245.269 205.573C246.379 205.253 247.449 204.773 248.515 204.107L248.714 203.987L248.667 203.76C247.727 199.24 246.342 195 244.43 190.773ZM271.557 240.168L271.349 241.083C270.877 243.152 271.294 244.944 271.662 246.526C271.975 247.868 272.27 249.139 272.014 250.424C271.853 251.232 271.613 252.023 271.307 252.795C273.051 260.857 273.43 268.221 272.174 273.656C268.841 288.073 262.923 299.907 250.59 311.24C238.257 322.573 230.563 325.379 230.563 325.379L231.451 320.712C231.451 320.712 229.674 322.933 207.674 334.933C190.071 344.535 157.39 344.748 145.027 344.448C152.502 346.042 160.506 346.883 168.825 346.883C192.586 346.883 214.534 339.805 227.985 327.877C227.307 329.155 226.513 330.327 225.735 331.472C225.399 331.968 225.062 332.464 224.734 332.968L225.177 333.44C234.815 328.023 252.757 317.939 263.262 305.363C273.895 292.636 282.353 261.995 271.971 241.008L271.557 240.168ZM269.542 245.945C266.13 234.455 260.279 222.291 252.674 212.654C250.929 210.44 249.269 208 248.422 206.72C249.139 206.147 249.671 205.387 250.027 204.387L250.185 203.947L250.55 204.24C258.359 210.533 270.019 230.927 269.542 245.945Z" fill="#F9EB34"/>
<path d="M159.944 106.014C158.232 106.014 156.384 105.84 154.297 105.507L153.867 105.44L154.047 105.04C156.767 99.0269 163.184 96.6536 169.388 94.3603C171.221 93.6803 173.119 92.9869 174.883 92.2003C175.013 92.1603 175.095 92.1602 175.167 92.1469C175.265 92.1335 175.341 92.1336 175.412 92.1336C176.523 92.1336 176.623 93.1869 176.684 93.8135L176.717 94.1603L176.365 94.1736C174.539 94.2536 174.204 95.7069 173.869 98.0802C173.747 98.9602 173.619 99.867 173.329 100.627L173.301 100.707L173.237 100.76C171.691 102.107 170.321 103.094 168.931 103.854C166.255 105.32 163.4 106.014 159.944 106.014ZM166.091 138.707C164.401 136.614 162.081 134.187 159.128 134.187C158.265 134.187 157.377 134.4 156.489 134.8L155.433 135.294L156.073 134.32C157.571 132.04 160.355 130.867 164.348 130.84L164.627 130.827L164.679 131.107C164.965 132.627 165.397 134.04 165.815 135.414C166.112 136.387 166.419 137.387 166.675 138.427L166.091 138.707ZM190.013 149.2C189.136 140.827 188.76 131.44 195.474 126.24L195.711 126.054L195.918 126.267C198.076 128.507 200.608 130.467 203.057 132.347C204.617 133.56 206.229 134.8 207.739 136.107C208.857 135.587 209.635 134.734 210.456 133.827C211.723 132.427 213.034 130.974 215.662 130.84L215.997 130.814L216.012 131.16C216.219 136.214 213.689 141.8 209.243 146.08L208.955 146.347L208.733 146.014C207.951 144.84 205.813 143.96 203.748 143.12C201.889 142.36 200.135 141.654 199.413 140.707C198.881 140 198.286 139.654 197.64 139.654C194.992 139.654 191.741 145.347 190.667 149.254L190.013 149.2ZM178.217 104.56C178.935 105.44 179 106.88 179.063 108.294C179.164 110.547 179.336 111.974 180.777 112.16C181.067 110.867 180.859 106.747 179.727 105.067C179.435 104.64 179.113 104.414 178.768 104.414C178.599 104.414 178.415 104.467 178.217 104.56ZM179.881 126.307C179.223 128.414 179.468 129.627 179.773 131.147C179.839 131.467 179.905 131.8 179.968 132.16C180.781 132.107 181.259 131.6 181.391 130.68C181.617 129.08 180.735 126.92 179.881 126.307ZM175.367 149.734C176.628 145.667 175.457 140.987 174.324 136.467C173.017 131.254 171.664 125.854 173.963 121.2C171.431 117.68 168.997 113.627 166.315 108.494C166.229 108.334 166.141 108.16 166.055 108L165.937 107.774L166.125 107.6C167.369 106.454 168.604 105.347 170.005 104.414C171.533 103.387 173.075 102.68 174.705 102.24C175.087 98.0802 176.972 95.5469 178.775 93.6135L179.089 93.2802L179.311 93.6802C186.944 107.747 188.053 130.934 186.684 146.534L186.644 146.974L186.229 146.814C185.457 146.507 184.745 146.36 184.049 146.36C182.371 146.36 181.069 147.254 179.691 148.187C178.512 148.987 177.295 149.814 175.757 150.16L175.196 150.28L175.367 149.734ZM172.707 149.96C171.128 145.867 169.883 141.68 168.681 137.627C165.448 126.747 162.393 116.467 153.409 109.24C153.216 109.08 153.021 108.92 152.819 108.774L152.303 108.4L152.912 108.187C153.593 107.96 154.453 107.854 155.539 107.854C157.229 107.854 159.236 108.12 161.36 108.4C162.571 108.56 163.823 108.72 165.049 108.84L165.297 108.867L165.345 109.107C166.295 114.04 168.752 117.387 171.268 120.294L171.369 120.414L171.347 120.56C170.596 125.454 171.593 130.52 172.559 135.414C173.588 140.654 174.563 145.6 173.339 149.92L173.068 150.894L172.707 149.96ZM145.609 161.507C144.444 161.507 142.328 160.067 139.323 157.24C138.113 156.107 137.139 155.107 136.777 154.734C133.919 151.76 132.349 149.147 131.685 146.24C131.504 145.427 131.397 144.64 131.357 143.854L131.328 143.254L131.855 143.547C133.623 144.534 135.339 146 137 147.414C140.156 150.107 143.419 152.88 147.399 152.88H147.401C147.636 152.88 147.876 152.88 148.115 152.854C148.312 152.307 148.281 152.054 148.215 151.934C148.104 151.72 147.749 151.654 147.373 151.574C146.908 151.48 146.379 151.374 146.107 150.947C145.919 150.64 145.895 150.254 146.028 149.747L146.081 149.547L146.287 149.507C151.693 148.44 156.604 145.867 160.112 142.267L160.237 142.147L160.412 142.174C164.019 142.84 166.24 144.96 167.937 146.947L168.371 147.454L167.704 147.507C162.484 147.827 157.796 151.414 152.831 155.214C151.855 155.96 150.872 156.707 149.881 157.44C148.403 158.534 147.391 159.76 146.723 160.574C146.2 161.214 145.985 161.48 145.708 161.507H145.609ZM156.713 167.974C154.732 163.574 156.272 158.534 158.375 155.28C160.556 151.894 163.567 149.88 166.428 149.88C168.315 149.88 171.043 150.774 173.312 155.014L173.575 155.507H173.02C167.252 155.52 164.935 158.867 162.479 162.414C161.012 164.534 159.495 166.734 157.191 168.12L156.867 168.32L156.713 167.974ZM212.099 169.4C210.192 167.307 209.084 163.974 208.015 160.747C206.187 155.24 204.462 150.054 199.168 150.054C198.878 150.054 198.577 150.067 198.267 150.094C198.784 150.734 199.489 151.187 200.229 151.68C200.804 152.054 201.4 152.44 201.908 152.934L202.168 153.174L201.903 153.414C199.961 155.187 198.213 156.08 196.708 156.08C195.117 156.08 193.897 155.067 193.272 153.24C192.105 149.827 193.248 144.32 196.807 141.574L196.971 141.44L197.157 141.534C201.291 143.547 206.987 146.987 210.652 151.88C213.556 155.774 214.72 159.947 214.108 164.294C213.872 165.934 213.383 167.614 212.651 169.307L212.446 169.774L212.099 169.4ZM190.028 181.934C189.209 179.494 188.524 176.867 187.86 174.334C185.691 166.027 183.445 157.44 176.213 154.134L175.895 153.987L176.056 153.68C177.724 150.467 179.675 148.907 182.021 148.907C185.915 148.907 189.985 153.36 193.257 156.947L193.308 157L193.329 157.067C195.064 162.68 193.791 166.974 192.443 171.507C191.496 174.694 190.517 177.987 190.679 181.814L190.028 181.934Z" fill="#95CD28"/>
<path d="M172.559 135.414C171.593 130.52 170.596 125.454 171.347 120.56L171.369 120.414L171.268 120.294C168.752 117.387 166.295 114.04 165.345 109.107L165.297 108.867L165.049 108.84C163.823 108.72 162.571 108.56 161.36 108.4C159.236 108.12 157.229 107.854 155.539 107.854C154.453 107.854 153.593 107.96 152.912 108.187L152.303 108.4L152.819 108.774C153.021 108.92 153.216 109.08 153.409 109.24C162.393 116.467 165.448 126.747 168.681 137.627C169.883 141.68 171.128 145.867 172.707 149.96L173.068 150.894L173.339 149.92C174.563 145.6 173.588 140.654 172.559 135.414ZM156.489 134.8C157.377 134.4 158.265 134.187 159.128 134.187C162.081 134.187 164.401 136.614 166.091 138.707L166.675 138.427C166.419 137.387 166.112 136.387 165.815 135.414C165.397 134.04 164.965 132.627 164.679 131.107L164.627 130.827L164.348 130.84C164.32 130.84 164.297 130.84 164.269 130.84C163.248 131.68 161.001 132.947 156.073 134.32L155.433 135.294L156.489 134.8ZM180.887 127.76C181.276 128.654 181.523 129.747 181.391 130.68C181.259 131.6 180.781 132.107 179.968 132.16C179.905 131.8 179.839 131.467 179.773 131.147C179.652 130.547 179.544 130 179.495 129.414C177.055 131.84 174.333 132.28 173.051 130.694C173.36 132.614 173.845 134.547 174.324 136.467C175.457 140.987 176.628 145.667 175.367 149.734L175.196 150.28L175.757 150.16C176.397 150.014 176.977 149.787 177.527 149.52C177.547 149.467 177.561 149.414 177.561 149.374C177.561 149.28 177.963 149.107 178.579 148.92C178.957 148.68 179.327 148.427 179.691 148.187C181.069 147.254 182.371 146.36 184.049 146.36C184.745 146.36 185.457 146.507 186.229 146.814L186.644 146.974L186.684 146.534C187.611 135.987 187.399 121.96 184.804 109.64C184.665 111.92 184.448 114.76 184.116 118.267C183.727 122.374 182.457 125.534 180.887 127.76ZM195.473 126.24C188.76 131.44 189.136 140.827 190.013 149.2L190.667 149.254C191.741 145.347 194.992 139.654 197.64 139.654C198.285 139.654 198.881 140 199.413 140.707C200.135 141.654 201.889 142.36 203.748 143.12C205.813 143.96 207.951 144.84 208.733 146.014L208.955 146.347L209.243 146.08C213.308 142.16 215.765 137.16 215.997 132.467C213.449 137.307 208.508 141.947 206.895 140.16C204.895 137.934 203.228 137.374 198.449 136.16C193.672 134.934 195.711 126.054 195.711 126.054L195.473 126.24ZM186.005 156.934C182.656 155.094 181.519 150.987 181.54 148.934C179.407 149.134 177.608 150.694 176.056 153.68L175.895 153.987L176.213 154.134C183.445 157.44 185.691 166.027 187.86 174.334C188.524 176.867 189.209 179.494 190.028 181.934L190.679 181.814C190.581 179.547 190.891 177.48 191.352 175.494C190.939 167.294 189.428 158.814 186.005 156.934ZM212.445 169.774L212.651 169.307C213.383 167.614 213.872 165.934 214.108 164.294C214.228 163.44 214.277 162.6 214.261 161.76C213.52 163.254 212.379 163.16 211.339 159.494C209.449 152.827 204.672 149.494 200.116 147.934C195.561 146.374 196.971 141.44 196.971 141.44C196.971 141.44 196.469 141.894 195.807 142.494C193.047 145.427 192.224 150.174 193.272 153.24C193.897 155.067 195.117 156.08 196.708 156.08C198.213 156.08 199.961 155.187 201.903 153.414L202.168 153.174L201.908 152.934C201.4 152.44 200.804 152.054 200.229 151.68C199.489 151.187 198.784 150.734 198.267 150.094C198.577 150.067 198.877 150.054 199.168 150.054C204.461 150.054 206.187 155.24 208.015 160.747C209.084 163.974 210.192 167.307 212.099 169.4L212.445 169.774ZM196.623 141.734C196.835 141.547 196.971 141.44 196.971 141.44L196.807 141.574C196.743 141.627 196.685 141.68 196.623 141.734ZM173.575 155.507L173.312 155.014C171.091 150.867 168.435 149.92 166.552 149.894C167.413 150.747 167.976 152.054 166.115 153.6C163.096 156.12 158.72 161.454 156.516 167.48C156.58 167.64 156.639 167.814 156.713 167.974L156.867 168.32L157.191 168.12C159.495 166.734 161.012 164.534 162.479 162.414C164.935 158.867 167.252 155.52 173.02 155.507H173.575ZM152.831 155.214C151.855 155.96 150.872 156.707 149.881 157.44C148.403 158.534 147.391 159.76 146.723 160.574C146.2 161.214 145.985 161.48 145.708 161.507H145.609C144.444 161.507 142.328 160.067 139.323 157.24C138.113 156.107 137.139 155.107 136.777 154.734C133.919 151.76 132.349 149.147 131.685 146.24C131.528 145.534 131.437 144.854 131.387 144.16C133.943 148.147 138.303 154.174 141.893 155.267C147.337 156.934 148.448 155.934 152.227 151.934C156.004 147.934 161.337 146.16 164.337 146.707C165.705 146.96 165.844 145.88 165.595 144.614C166.481 145.347 167.241 146.147 167.912 146.92C167.835 147.24 167.76 147.454 167.704 147.507C162.484 147.827 157.796 151.414 152.831 155.214Z" fill="#5C9D31"/>
<path d="M200.508 150.907C198.008 154.774 192.549 152.907 192.549 152.907C192.549 152.907 193.841 155.694 194.549 156.574C195.257 157.44 195.3 156.987 196.8 157.44C198.3 157.907 199.3 156.16 199.549 156.027C199.8 155.907 203.633 154.2 203.8 154.24C203.967 154.28 200.508 150.907 200.508 150.907ZM153.589 152.494C149.756 155.907 146.673 158.24 142.507 157.494C138.34 156.734 131.84 147.827 131.84 147.827C132.589 151.734 136.007 154.734 136.007 154.734C136.007 154.734 140.673 158.907 140.923 159.16C141.173 159.4 143.84 161.734 144.173 161.907C144.507 162.067 145.589 162.4 145.589 162.4C145.589 162.4 148.673 159.734 150.673 157.4C152.673 155.067 166.84 147.987 166.84 147.987C164.84 147.734 157.423 149.067 153.589 152.494ZM170.423 151.16C170.507 151.574 170.173 152.987 169.756 152.987C169.34 152.987 168.089 152.734 162.84 159.16C157.589 165.574 155.923 169.654 155.923 169.654C155.923 169.654 158.256 170.4 158.507 170.24C158.756 170.067 159.923 168.574 160.173 168.32C160.423 168.067 162.089 165.067 163.84 161.907C165.589 158.734 170.84 157.654 170.84 157.654L175.341 154.907C175.341 154.907 173.091 150.907 173.071 150.894C173.048 150.867 170.34 150.734 170.423 151.16ZM189.424 172.4C189.424 172.067 187.175 162.907 184.508 158.827C181.841 154.734 176.091 154.827 176.091 154.827L177.508 156.734C177.508 156.734 179.841 158.4 180.508 158.987C181.175 159.574 182.841 161.734 184.257 165.4C185.675 169.067 187.675 180.24 187.757 180.494C187.841 180.734 191.091 184.32 191.091 184.32L194.257 165.494C193.008 169.734 189.675 173.987 189.675 173.987C189.675 173.987 189.424 172.734 189.424 172.4ZM211.674 164.32C210.341 163.494 205.257 154.494 205.257 154.494C205.257 154.494 208.341 165.654 208.341 166.574C208.341 167.494 210.924 170.067 210.924 170.067L212.448 169.774C215.139 165.227 214.841 158.734 214.841 158.734C214.674 162.4 213.008 165.16 211.674 164.32ZM217.174 130.32L216.09 129.24C216.09 129.24 211.257 141.987 208.841 142.654C206.424 143.32 200.341 141.16 200.341 141.16L209.257 147.32C209.257 147.32 215.09 142.654 216.341 138.067C217.59 133.494 217.174 130.32 217.174 130.32ZM182.175 117.734C180.508 104.067 176.091 95.7336 176.091 95.7336L178.591 92.4003L180.424 93.6537C180.424 93.6537 185.008 105.16 186.257 113.907C187.508 122.654 187.757 142.734 187.757 142.734L186.841 147.987L182.675 147.24C182.675 147.24 183.841 131.4 182.175 117.734Z" fill="#F9EB34"/>
<path d="M93.6912 227.823C95.9125 218.267 100.451 211.027 103.691 202.494C111.565 214.814 118.138 226.77 130.358 235.823C127.938 239.183 124.544 241.57 122.358 245.156C109.583 242.596 99.9445 236.91 93.6912 227.823ZM123.691 248.49C127.404 244.65 130.224 239.918 133.691 235.823C123.224 224.736 112.477 213.934 105.691 199.16C104.838 199.134 104.771 198.307 103.691 198.494C101.545 203.934 90.2778 221.56 91.0245 227.823C91.5365 232.09 100.325 240.69 105.025 243.156C110.81 246.19 117.718 246.443 123.691 248.49ZM144.25 252.87C144.284 252.743 144.318 252.616 144.352 252.49C147.691 258.263 150.798 264.27 153.018 271.156C150.238 270.103 148.278 268.23 146.331 266.343C145.686 265.716 145.031 265.09 144.352 264.49C142.844 265.203 141.424 266.003 140.352 267.156C139.158 262.496 142.976 257.41 144.25 252.87ZM145.019 267.823C147.031 272.11 153.37 275.363 158.351 274.49C153.25 266.256 150.491 255.683 144.352 248.49C143.778 249.723 143.131 250.996 142.471 252.296C139.358 258.403 135.764 265.27 136.352 272.49C140.224 271.91 140.912 268.156 145.019 267.823ZM146.352 210.494C146.924 206.174 147.884 202.227 149.684 199.827C151.604 206.467 146.758 217.494 147.686 227.823C144.203 225.256 145.564 216.44 146.352 210.494ZM179.686 132.507C179.319 130.174 178.644 128.854 179.686 125.84C181.459 126.347 183.292 132.627 179.686 132.507ZM177.686 104.507C181.006 102.04 181.644 110.96 181.019 112.507C177.346 112.4 179.804 106.16 177.686 104.507ZM209.679 212.494C210.453 212.387 210.865 212.64 211.013 213.16C212.205 224.79 210.746 231.596 211.679 241.156C198.459 248.263 184.424 251.383 171.018 252.49C168.458 247.716 165.518 243.323 163.684 237.823C179.606 239.29 199.353 225.123 209.679 212.494ZM213.679 243.156C215.679 231.51 214.853 216.334 211.679 205.827C207.859 208.134 206.159 212.707 203.013 215.827C195.826 222.943 183.179 230.55 173.019 234.49C168.504 236.243 163.438 234.023 159.018 237.156C163.991 241.743 165.044 250.243 169.018 255.823C184.912 253.603 201.766 251.023 213.679 243.156ZM189.012 307.816C188.779 304.943 188.619 301.99 186.352 301.15C180.819 303.843 173.939 305.183 168.351 307.816C167.611 311.31 170.224 313.956 169.018 315.816C136.938 320.37 109.065 307.07 101.691 279.156C107.126 279.804 110.631 286.676 117.025 287.15C117.825 290.35 118.138 294.036 119.025 297.15C124.384 299.736 132.951 303.29 139.019 299.15C138.964 296.983 138.678 295.05 137.686 293.816C156.518 295.056 171.986 297.036 190.346 291.816C194.112 290.751 198.279 288.663 202.346 287.15C206.633 285.556 210.906 283.863 214.346 281.156C210.166 291.638 198.966 300.876 189.012 307.816ZM209.013 281.156C203.239 283.843 195.172 286.91 190.346 288.483C173.412 294.023 153.898 292.616 139.019 290.483C137.292 289.996 136.764 288.296 135.024 287.816C133.024 291.976 134.864 294.023 135.024 297.816C131.218 298.55 126.171 297.043 122.358 295.816C121.618 292.556 119.558 290.616 120.358 285.816C112.131 283.336 106.985 277.41 98.3578 273.823C101.246 288.436 107.438 302.304 118.358 309.15C121.405 311.063 124.631 311.016 128.358 312.483C128.618 312.584 129.104 314.243 129.691 314.483C141.031 319.138 156.424 321.99 173.019 317.816C172.439 314.836 171.364 312.356 171.018 309.15C176.399 308.883 182.132 305.723 185.019 305.15C185.999 307.503 186.292 310.543 187.686 312.483C200.986 303.343 214.066 293.983 219.679 277.156C215.599 275.616 212.805 279.39 209.013 281.156ZM229.013 178.494C233.046 180.24 236.066 183 237.013 187.827C233.198 186.214 229.399 181.36 229.013 178.494ZM240.346 281.823C238.906 281.256 237.986 280.176 238.346 277.823C240.293 277.223 240.392 277.223 242.339 277.823C243.026 280.503 241.305 280.783 240.346 281.823ZM239.679 269.823C239.766 267.69 241.186 266.89 243.672 267.156C243.766 268.796 243.779 270.37 243.006 271.156C240.879 271.723 240.946 270.103 239.679 269.823ZM248.339 277.156C247.432 276.304 247.432 274.01 248.339 273.156C250.512 272.983 251.552 273.943 251.672 275.823C250.406 276.103 250.466 277.723 248.339 277.156ZM260.339 291.816C256.379 301.19 249.864 308.676 241.006 312.483C248.864 306.263 259.006 290.483 259.006 290.483C259.599 290.783 260.198 291.07 260.339 291.816ZM262.339 285.816C260.059 284.918 261.084 280.296 263.006 278.49C265.478 279.963 263.246 283.83 262.339 285.816ZM263.006 305.15C253.126 316.976 236.993 326.418 225.013 333.15C226.413 330.996 227.971 328.996 229.013 326.483C199.653 354.316 131.118 353.39 105.025 322.483C104.698 323.396 105.231 323.85 105.691 324.93C105.537 325.103 105.292 325.263 105.031 325.403C94.8698 319.076 85.9764 312.976 79.6378 304.023C79.4311 303.736 79.2311 303.443 79.0311 303.15C72.7645 293.883 65.6111 275.776 64.3645 263.156C62.1578 240.836 75.2778 227.336 84.3578 211.16C92.8645 196.014 100.091 178.494 109.691 168.507C115.431 162.534 131.143 151.174 137.944 157.947C138.618 158.614 139.203 159.454 139.686 160.507C134.476 164.4 131.838 170.867 129.691 177.827C133.391 175.307 135.784 165.72 141.019 162.507C142.804 160.707 143.558 163.347 145.019 163.84C149.191 162.227 150.571 157.827 155.684 157.174C154.391 160.48 152.731 172.534 156.351 174.507C162.991 168.307 164.838 156.654 176.352 157.174C187.632 162.467 181.939 180.8 191.679 187.827C193.099 177.227 196.698 170.054 196.346 159.174C200.213 159.254 200.471 155.734 204.346 155.84C205.939 161.774 208.239 171.64 212.346 177.16C214.319 175.534 214.266 169.014 214.811 164.414C215.079 162.16 215.486 160.374 216.346 159.84C220.186 157.44 223.686 168.374 229.346 168.174C234.793 175.4 240.226 182.32 244.126 190.907C245.892 194.814 247.346 199.054 248.339 203.827C240.119 208.894 234.286 201.734 227.679 207.16C215.531 217.134 230.779 243.836 243.006 242.49C255.459 241.116 253.172 218.614 243.006 217.16C233.246 215.76 230.613 232.39 240.346 229.156C242.279 226.503 236.933 224.79 237.679 223.163C239.585 221.52 239.779 220.32 242.339 220.494C242.712 220.52 247.971 224.15 248.339 225.163C250.446 230.923 247.232 237.256 244.339 238.49C231.726 243.883 219.925 214.32 230.346 208.494C236.085 205.28 247.599 212.187 250.339 204.494C263.632 215.214 284.879 261.73 251.006 262.49C248.332 259.71 247.079 247.83 253.672 248.49C253.811 249.236 254.412 249.53 255.006 249.823C255.959 253.663 252.046 252.643 252.339 255.823C253.666 257.323 257.159 255.35 258.339 254.49C258.792 249.596 257.506 246.523 253.672 244.49C247.471 246.276 245.352 250.696 245.672 256.49C246.626 273.61 269.698 263.703 272.339 250.49C272.924 247.556 270.826 244.87 271.672 241.156C282.026 262.09 273.559 292.516 263.006 305.15ZM132.011 146.174C131.844 145.427 131.731 144.654 131.691 143.84C136.991 146.8 141.579 153.88 148.352 153.174C149.598 150.147 145.703 152.267 146.352 149.84C151.444 148.827 156.518 146.44 160.351 142.507C163.724 143.134 165.844 145.014 167.684 147.174C161.31 147.574 155.684 152.76 149.684 157.174C147.271 158.947 146.044 161.147 145.686 161.174C144.384 161.254 141.671 159 139.551 157C138.459 155.974 137.524 155.027 137.019 154.507C134.583 151.974 132.738 149.347 132.011 146.174ZM156.351 134.507C157.851 132.227 160.604 131.2 164.351 131.174C164.844 133.787 165.738 136 166.351 138.507C164.31 135.96 160.976 132.387 156.351 134.507ZM173.019 155.174C163.491 155.2 162.976 164.24 157.018 167.84C152.591 158.014 166.004 142.067 173.019 155.174ZM153.618 108.987C153.424 108.827 153.224 108.667 153.018 108.507C155.583 107.654 160.416 108.734 165.018 109.174C165.951 114.014 168.331 117.414 171.018 120.507C169.458 130.694 175.359 141.56 173.019 149.84C167.238 134.854 166.078 119 153.618 108.987ZM175.019 92.507C175.091 92.4937 175.166 92.4803 175.226 92.4803C176.166 92.3603 176.279 93.0803 176.352 93.8403C173.159 93.987 173.939 98.0937 173.019 100.507C171.624 101.72 170.25 102.747 168.771 103.56C165.158 105.547 160.931 106.254 154.351 105.174C157.81 97.5203 167.318 95.9203 175.019 92.507ZM186.352 146.507C181.531 144.6 179.652 148.947 175.686 149.84C178.452 140.907 169.916 129.734 174.352 121.174C171.476 117.187 168.964 112.84 166.611 108.334C166.524 108.174 166.438 108.014 166.351 107.84C167.564 106.734 168.798 105.627 170.191 104.694C171.591 103.747 173.152 102.974 175.019 102.507C175.319 98.587 176.978 96.027 179.019 93.8403C186.772 108.12 187.632 131.934 186.352 146.507ZM193.012 157.174C195.966 166.72 189.959 172.667 190.346 181.827C186.832 171.347 185.959 158.227 176.352 153.84C181.192 144.507 187.672 151.32 193.012 157.174ZM195.679 126.507C199.279 130.24 203.773 133.08 207.679 136.507C210.819 135.2 211.453 131.387 215.679 131.174C215.913 136.854 212.766 142.227 209.013 145.84C207.446 143.467 201.113 142.387 199.679 140.507C196.478 136.294 191.686 144.28 190.346 149.174C189.452 140.64 189.145 131.574 195.679 126.507ZM210.386 152.08C212.999 155.587 214.425 159.654 213.779 164.254C213.553 165.827 213.085 167.467 212.346 169.174C207.113 163.44 208.091 148.2 197.679 149.84C198.591 151.36 200.425 151.974 201.679 153.174C192.339 161.667 190.553 146.84 197.013 141.84C202.179 144.36 207.179 147.8 210.386 152.08ZM279.672 261.156C278.091 239.243 266.091 222.69 257.006 207.827C253.246 201.667 248.864 195.947 245.786 190.04C245.512 189.534 245.251 189.014 245.006 188.494C238.251 174.374 232.478 162.467 215.679 155.84C214.899 153.707 213.179 152.507 211.871 150.894C211.192 150.054 210.619 149.094 210.346 147.84C220.031 138.174 218.393 130.427 217.679 125.84C214.198 128.134 211.299 131.014 207.679 133.174C203.819 130.374 200.273 127.254 196.346 124.507C193.266 125.214 190.986 130.24 189.012 129.84C188.918 114.734 186.886 100.187 179.686 90.507C178.126 90.6137 176.572 90.7471 175.046 90.9204C163.618 92.2938 153.484 96.3337 150.351 107.84C151.083 108.56 151.791 109.294 152.476 110.04C157.304 115.334 161.083 121.667 163.684 129.174C159.858 127.867 154.691 130.707 153.684 137.174C157.791 135.387 163.031 136.774 163.684 140.507C157.424 139.227 151.778 147 145.998 148.827C145.011 149.134 144.019 149.28 143.019 149.174C137.126 148.534 136.671 140.974 129.691 139.84C129.852 142.28 130.151 144.547 130.604 146.534C131.186 149.08 131.991 151.16 133.024 152.507C122.891 155.094 114.858 160.48 108.338 167.08C107.658 167.76 107.005 168.467 106.358 169.174C100.519 175.587 92.6978 187.08 88.3578 195.827C85.7245 201.147 84.2845 206.88 81.0311 211.827C78.2778 216.014 74.4045 220.92 71.6978 225.83C67.8045 232.87 62.8045 240.85 61.6978 247.156C60.1111 256.17 61.8845 270.63 63.6978 277.823C65.4511 284.756 70.9711 294.323 75.0311 300.483C76.0578 302.05 77.0711 303.536 78.0791 304.963C85.1258 314.95 91.9312 321.756 103.691 328.483C106.058 329.83 108.285 331.096 110.358 332.483C117.451 337.21 127.824 343.183 137.686 345.81C187.379 359.063 233.319 337.43 260.339 311.816C271.679 301.063 281.379 284.89 279.672 261.156Z" fill="#100F0D"/>
</svg>
