<svg width="339" height="474" viewBox="0 0 339 474" fill="none" xmlns="http://www.w3.org/2000/svg">
<path d="M22.7253 473.76C10.2253 473.76 0.0585938 463.586 0.0585938 451.093V23.5599C0.0585938 11.0599 10.2253 0.893257 22.7253 0.893257H315.545C328.039 0.893257 338.212 11.0599 338.212 23.5599V451.093C338.212 463.586 328.039 473.76 315.545 473.76H22.7253Z" fill="#849393"/>
<path d="M315.546 3.56052H271.373L267.346 14.6485L262.973 3.56052H22.7266C11.6799 3.56052 2.72656 12.5139 2.72656 23.5605V451.094C2.72656 462.134 11.6799 471.094 22.7266 471.094H66.9599L70.9332 460.174L75.2266 471.094H315.546C326.586 471.094 335.546 462.134 335.546 451.094V23.5605C335.546 12.5139 326.586 3.56052 315.546 3.56052Z" fill="white"/>
<path d="M60.3865 35.9279C60.3865 35.6585 60.2798 35.5252 60.0531 35.5252C58.8931 38.3492 58.1064 40.5679 57.7064 42.1826C57.5197 42.1826 57.2131 43.0785 56.7598 44.8705C56.4931 44.8705 56.173 45.8799 55.813 47.8959C53.933 51.3039 52.9997 53.7679 52.9997 55.2919C52.8131 55.2919 52.253 56.6145 51.3064 59.2585C51.0397 59.3052 50.9064 59.4385 50.9064 59.6625L51.1064 60.0652L50.5064 61.0079C50.5464 61.2319 50.6797 61.3439 50.9064 61.3439H57.9064C59.0664 61.3439 59.8931 60.8519 60.3865 59.8639V35.9279ZM53.3997 39.8959C53.7997 39.2679 55.2397 35.4585 57.7064 28.4665L59.0397 25.5079V25.3052C59.0397 24.9012 58.3464 24.6999 56.9598 24.6999H51.6531C49.8531 24.6999 48.7731 25.1479 48.4264 26.0439L48.6264 26.4479V46.7519C48.6264 48.0079 48.5598 49.5332 48.4264 51.3252C48.5598 51.5492 48.6264 51.7972 48.6264 52.0652C49.0264 52.0652 50.6131 48.0079 53.3997 39.8959ZM69.5331 28.3305V61.9479C69.0397 64.7292 67.8264 66.1172 65.9064 66.1172H42.9091C40.8918 66.1172 39.7024 64.6612 39.3451 61.7479V23.9612C39.3451 21.6745 40.7344 20.2865 43.513 19.7919C43.6024 19.7919 43.6478 19.8372 43.6478 19.9265L44.9865 19.7919H63.813C66.373 19.7919 68.0797 20.5305 68.9331 22.0105C69.3331 23.4012 69.5331 25.5079 69.5331 28.3305ZM36.0517 65.8492V66.1172H20.7891V65.8492C22.8051 64.7292 23.8145 63.6959 23.8145 62.7545V26.7172L23.5451 25.2385H22.873L20.7891 25.5079V25.2385C20.8331 24.9692 24.7997 22.4145 32.6904 17.5732L32.9585 18.1786V62.4185C32.9585 63.5852 33.989 64.7292 36.0517 65.8492Z" fill="#100F0D"/>
<path d="M277.877 438.894C277.877 439.174 277.997 439.308 278.21 439.308C279.384 436.481 280.17 434.268 280.57 432.641C280.744 432.641 281.064 431.748 281.504 429.961C281.784 429.961 282.091 428.947 282.451 426.934C284.331 423.521 285.277 421.054 285.277 419.534C285.45 419.534 286.01 418.214 286.957 415.574C287.224 415.521 287.357 415.387 287.357 415.161L287.157 414.761L287.757 413.827C287.717 413.601 287.584 413.481 287.357 413.481H280.37C279.197 413.481 278.37 413.974 277.877 414.961V438.894ZM284.864 434.934C284.464 435.561 283.037 439.374 280.57 446.361L279.224 449.321V449.521C279.224 449.934 279.917 450.134 281.304 450.134H286.624C288.41 450.134 289.491 449.681 289.851 448.787L289.651 448.387V428.081C289.651 426.827 289.717 425.294 289.851 423.508C289.717 423.281 289.651 423.027 289.651 422.761C289.237 422.761 287.65 426.827 284.864 434.934ZM268.73 446.494V412.881C269.224 410.094 270.437 408.708 272.37 408.708H295.357C297.37 408.708 298.571 410.174 298.917 413.081V450.868C298.917 453.161 297.53 454.548 294.757 455.041C294.664 455.041 294.624 454.987 294.624 454.908L293.277 455.041H274.451C271.891 455.041 270.197 454.294 269.344 452.814C268.93 451.427 268.73 449.321 268.73 446.494ZM302.21 408.974V408.708H317.477V408.974C315.464 410.094 314.451 411.134 314.451 412.068V448.108L314.717 449.587H315.397L317.477 449.321V449.587C317.437 449.854 313.464 452.414 305.584 457.254L305.304 456.654V412.414C305.304 411.241 304.277 410.094 302.21 408.974Z" fill="#100F0D"/>
<path d="M292.907 353.36L295.36 351.027C295.36 351.027 296.014 345.854 298.76 342.734L292.907 337.454L287.054 342.734C289.8 345.854 290.454 351.027 290.454 351.027L292.907 353.36ZM264.8 351.4C263.507 374.387 277.774 378.267 281.134 370.68C282.934 366.654 280.134 360.787 277.067 359.867C273.334 358.76 273.734 362.56 273.734 362.56C273.734 362.56 274.627 361.387 275.787 361.56C278.067 361.92 276.84 365.72 274.44 365.72C272.04 365.72 268.894 363.84 268.134 356.36C267.014 345.427 278.827 344.454 286.014 350.747C288.84 353.227 291.334 356.48 292.907 358.707C294.48 356.48 296.987 353.227 299.8 350.747C306.987 344.454 318.8 345.427 317.694 356.36C316.934 363.84 313.774 365.72 311.374 365.72C308.974 365.72 307.747 361.92 310.027 361.56C311.187 361.387 312.08 362.56 312.08 362.56C312.08 362.56 312.48 358.76 308.747 359.867C305.68 360.787 302.894 366.654 304.68 370.68C308.04 378.267 322.307 374.387 321.014 351.4C321.014 351.4 324.867 355.947 324.88 362.214C324.894 369.867 321.894 378.107 309.8 386C302.774 390.574 296.734 394.187 292.907 396.414C289.08 394.187 283.04 390.574 276.014 386C263.92 378.107 260.92 369.867 260.934 362.214C260.947 355.947 264.8 351.4 264.8 351.4Z" fill="#100F0D"/>
<path d="M45.3573 121.464L42.9053 123.807C42.9053 123.807 42.2586 128.969 39.5106 132.089L45.3573 137.38L51.2106 132.089C48.4639 128.969 47.8106 123.807 47.8106 123.807L45.3573 121.464ZM73.4773 123.433C74.7573 100.448 60.4906 96.5599 57.1306 104.143C55.344 108.177 58.1306 114.047 61.1973 114.959C64.944 116.069 64.5306 112.268 64.5306 112.268C64.5306 112.268 63.6373 113.44 62.4773 113.263C60.1973 112.913 61.424 109.112 63.824 109.112C66.224 109.112 69.3839 110.981 70.1439 118.467C71.2506 129.401 59.4374 130.375 52.2507 124.076C49.4374 121.605 46.9307 118.349 45.3573 116.117C43.7933 118.349 41.2854 121.605 38.468 124.076C31.28 130.375 19.4693 129.401 20.58 118.467C21.3413 110.981 24.4973 109.112 26.8933 109.112C29.2906 109.112 30.5173 112.913 28.2386 113.263C27.0826 113.44 26.192 112.268 26.192 112.268C26.192 112.268 25.784 116.069 29.524 114.959C32.5893 114.047 35.3813 108.177 33.5933 104.143C30.2293 96.5599 15.9573 100.448 17.248 123.433C17.248 123.433 13.404 118.88 13.3907 112.62C13.376 104.963 16.372 96.7199 28.4706 88.8292C35.4933 84.2505 41.5293 80.6372 45.3573 78.4092C49.1973 80.6372 55.224 84.2505 62.2507 88.8292C74.344 96.7199 77.344 104.963 77.3306 112.62C77.3173 118.88 73.4773 123.433 73.4773 123.433Z" fill="#100F0D"/>
<path d="M169.133 277.213L161.933 284.08C161.933 284.08 160.039 299.226 151.973 308.386L169.133 323.906L186.293 308.386C178.226 299.226 176.333 284.08 176.333 284.08L169.133 277.213ZM251.599 283C255.386 215.572 213.52 204.166 203.653 226.412C198.4 238.242 206.6 255.466 215.586 258.133C226.56 261.386 225.359 250.244 225.359 250.244C225.359 250.244 222.746 253.68 219.359 253.16C212.679 252.134 216.279 240.985 223.306 240.985C230.333 240.985 239.599 246.47 241.826 268.413C245.079 300.493 210.44 303.36 189.36 284.88C181.093 277.626 173.733 268.08 169.133 261.533C164.546 268.08 157.186 277.626 148.92 284.88C127.84 303.36 93.1995 300.493 96.4529 268.413C98.6795 246.47 107.946 240.985 114.973 240.985C121.999 240.985 125.6 252.134 118.92 253.16C115.533 253.68 112.92 250.244 112.92 250.244C112.92 250.244 111.719 261.386 122.679 258.133C131.679 255.466 139.866 238.242 134.626 226.412C124.76 204.166 82.8928 215.572 86.6794 283C86.6794 283 75.3995 269.64 75.3595 251.27C75.3195 228.812 84.1061 204.637 119.599 181.492C140.199 168.06 157.906 157.461 169.133 150.925C180.373 157.461 198.079 168.06 218.666 181.492C254.159 204.637 262.946 228.812 262.906 251.27C262.879 269.64 251.599 283 251.599 283Z" fill="#100F0D"/>
</svg>
