<svg width="339" height="474" viewBox="0 0 339 474" fill="none" xmlns="http://www.w3.org/2000/svg">
<path d="M22.7641 473.76C10.2643 473.76 0.0976562 463.586 0.0976562 451.093V23.5586C0.0976562 11.0613 10.2643 0.891923 22.7641 0.891923H315.584C328.083 0.891923 338.251 11.0613 338.251 23.5586V451.093C338.251 463.586 328.083 473.76 315.584 473.76H22.7641Z" fill="#849393"/>
<path d="M315.585 3.55919H271.415L267.38 14.6485L263.013 3.55919H22.7654C11.7188 3.55919 2.76562 12.5152 2.76562 23.5592V451.094C2.76562 462.134 11.7188 471.094 22.7654 471.094H67.0027L70.9694 460.174L75.268 471.094H315.585C326.631 471.094 335.585 462.134 335.585 451.094V23.5592C335.585 12.5152 326.631 3.55919 315.585 3.55919Z" fill="white"/>
<path d="M35.2641 19.7919H64.5121C64.7828 19.8372 64.9161 19.9492 64.9161 20.1292C62.5401 21.4279 61.3535 22.7505 61.3535 24.0945C59.3348 28.7559 57.9001 32.7012 57.0508 35.9279C56.8241 36.0639 55.8841 38.5505 54.2255 43.3919C53.5975 44.3785 52.7695 46.6412 51.7388 50.1826L49.7201 55.2252L46.8975 63.4945V64.2345C47.4801 65.1319 48.2201 65.5799 49.1161 65.5799V65.7812C48.8921 65.7812 48.7801 65.8932 48.7801 66.1172L46.8975 65.9159H34.5255V65.7812C34.5255 65.6452 35.3321 65.1985 36.9468 64.4359C37.5748 63.3612 40.5775 55.7185 45.9575 41.5092C45.9575 40.9265 47.8401 35.5479 51.6028 25.3719C51.1988 25.2825 50.9988 25.1705 50.9988 25.0359C47.8161 25.1705 45.5068 25.2385 44.0748 25.2385H41.0481C36.9681 25.2385 34.1655 27.1652 32.6441 31.0199L32.2415 31.2225L32.1055 30.8185V29.8759C32.3295 29.6985 32.7535 28.0172 33.3841 24.8345C34.2335 21.4719 34.8628 19.7919 35.2641 19.7919Z" fill="#100F0D"/>
<path d="M303.082 455.039H273.834C273.566 454.985 273.43 454.879 273.43 454.706C275.804 453.399 276.992 452.079 276.992 450.732C279.011 446.066 280.446 442.132 281.298 438.892C281.522 438.759 282.462 436.279 284.12 431.439C284.748 430.452 285.579 428.185 286.607 424.639L288.626 419.599L291.448 411.332V410.599C290.867 409.692 290.128 409.252 289.23 409.252V409.052C289.456 409.052 289.566 408.932 289.566 408.706L291.448 408.906H303.82V409.052C303.82 409.185 303.014 409.625 301.399 410.385C300.771 411.466 297.768 419.106 292.391 433.319C292.391 433.906 290.508 439.279 286.743 449.452C287.146 449.546 287.347 449.652 287.347 449.785C290.531 449.652 292.839 449.585 294.274 449.585H297.298C301.378 449.585 304.18 447.666 305.703 443.812L306.107 443.612L306.24 444.012V444.945C306.016 445.132 305.591 446.812 304.964 449.999C304.112 453.359 303.484 455.039 303.082 455.039Z" fill="#100F0D"/>
<path d="M292.946 353.36L295.399 351.027C295.399 351.027 296.045 345.854 298.795 342.734L292.946 337.454L287.094 342.734C289.845 345.854 290.49 351.027 290.49 351.027L292.946 353.36ZM264.834 351.4C263.542 374.387 277.813 378.267 281.178 370.68C282.965 366.654 280.175 360.787 277.107 359.867C273.367 358.76 273.777 362.56 273.777 362.56C273.777 362.56 274.667 361.387 275.823 361.56C278.102 361.92 276.875 365.72 274.477 365.72C272.082 365.72 268.925 363.84 268.165 356.36C267.055 345.427 278.865 344.454 286.05 350.747C288.87 353.227 291.378 356.48 292.946 358.707C294.514 356.48 297.022 353.227 299.839 350.747C307.025 344.454 318.834 345.427 317.725 356.36C316.965 363.84 313.807 365.72 311.413 365.72C309.017 365.72 307.787 361.92 310.066 361.56C311.222 361.387 312.113 362.56 312.113 362.56C312.113 362.56 312.522 358.76 308.782 359.867C305.717 360.787 302.925 366.654 304.711 370.68C308.077 378.267 322.347 374.387 321.055 351.4C321.055 351.4 324.902 355.947 324.915 362.214C324.927 369.867 321.933 378.107 309.834 386C302.813 390.574 296.777 394.187 292.946 396.414C289.113 394.187 283.079 390.574 276.058 386C263.957 378.107 260.959 369.867 260.977 362.214C260.987 355.947 264.834 351.4 264.834 351.4Z" fill="#100F0D"/>
<path d="M45.4017 121.464L42.9457 123.807C42.9457 123.807 42.3004 128.969 39.5497 132.089L45.4017 137.38L51.2497 132.089C48.5031 128.969 47.8577 123.807 47.8577 123.807L45.4017 121.464ZM73.5111 123.433C74.8031 100.448 60.5311 96.5599 57.1697 104.143C55.3804 108.177 58.1697 114.047 61.2377 114.959C64.9791 116.069 64.5684 112.268 64.5684 112.268C64.5684 112.268 63.6777 113.44 62.5217 113.263C60.2431 112.913 61.4697 109.112 63.8671 109.112C66.2631 109.112 69.4191 110.981 70.1804 118.467C71.2924 129.401 59.4791 130.375 52.2951 124.076C49.4737 121.605 46.9697 118.349 45.4017 116.117C43.8337 118.349 41.3257 121.605 38.5084 124.076C31.3204 130.375 19.5111 129.401 20.6204 118.467C21.3804 110.981 24.5364 109.112 26.9324 109.112C29.3311 109.112 30.5577 112.913 28.2791 113.263C27.1231 113.44 26.2324 112.268 26.2324 112.268C26.2324 112.268 25.8231 116.069 29.5631 114.959C32.6311 114.047 35.4217 108.177 33.6337 104.143C30.2684 96.5599 15.9977 100.448 17.2897 123.433C17.2897 123.433 13.4431 118.88 13.4297 112.62C13.4164 104.963 16.4124 96.7199 28.5111 88.8292C35.5337 84.2505 41.5711 80.6372 45.4017 78.4092C49.2324 80.6372 55.2684 84.2505 62.2897 88.8292C74.3884 96.7199 77.3857 104.963 77.3697 112.62C77.3577 118.88 73.5111 123.433 73.5111 123.433Z" fill="#100F0D"/>
<path d="M169.179 277.213L161.974 284.08C161.974 284.08 160.08 299.226 152.017 308.386L169.179 323.906L186.337 308.386C178.272 299.226 176.376 284.08 176.376 284.08L169.179 277.213ZM251.634 283C255.42 215.572 213.561 204.166 203.693 226.412C198.444 238.242 206.634 255.466 215.624 258.133C226.6 261.386 225.394 250.244 225.394 250.244C225.394 250.244 222.79 253.68 219.397 253.16C212.714 252.134 216.31 240.985 223.34 240.985C230.373 240.985 239.632 246.47 241.862 268.413C245.118 300.493 210.474 303.36 189.394 284.88C181.129 277.626 173.772 268.08 169.179 261.533C164.58 268.08 157.222 277.626 148.957 284.88C127.876 303.36 93.2332 300.493 96.4878 268.413C98.7225 246.47 107.98 240.985 115.009 240.985C122.04 240.985 125.637 252.134 118.954 253.16C115.566 253.68 112.954 250.244 112.954 250.244C112.954 250.244 111.753 261.386 122.722 258.133C131.717 255.466 139.905 238.242 134.662 226.412C124.793 204.166 82.9278 215.572 86.7172 283C86.7172 283 75.4385 269.64 75.4025 251.27C75.3598 228.812 84.1465 204.637 119.637 181.492C140.236 168.06 157.941 157.461 169.179 150.925C180.411 157.461 198.116 168.06 218.709 181.492C254.198 204.637 262.99 228.812 262.946 251.27C262.916 269.64 251.634 283 251.634 283Z" fill="#100F0D"/>
</svg>
