<svg width="339" height="474" viewBox="0 0 339 474" fill="none" xmlns="http://www.w3.org/2000/svg">
<path d="M23.0846 473.607C10.5846 473.607 0.417969 463.438 0.417969 450.941V23.4101C0.417969 10.9101 10.5846 0.742085 23.0846 0.742085H315.906C328.403 0.742085 338.573 10.9101 338.573 23.4101V450.941C338.573 463.438 328.403 473.607 315.906 473.607H23.0846Z" fill="#849393"/>
<path d="M315.907 3.4094H271.734L267.701 14.4988L263.333 3.4094H23.0859C12.0393 3.4094 3.08594 12.3641 3.08594 23.4108V450.941C3.08594 461.985 12.0393 470.941 23.0859 470.941H67.322L71.2899 460.029L75.5873 470.941H315.907C326.951 470.941 335.907 461.985 335.907 450.941V23.4108C335.907 12.3641 326.951 3.4094 315.907 3.4094Z" fill="white"/>
<path d="M35.3686 19.6411H53.7912C57.4205 20.4051 59.2365 21.7264 59.2365 23.6091V31.4078C59.2365 32.0811 59.3045 32.9545 59.4392 34.0292L59.2365 34.4331C59.3712 35.3318 59.4392 36.0918 59.4392 36.7198C59.4392 39.4105 58.8766 41.2491 57.7566 42.2331V42.3678C58.8766 43.4438 59.4392 45.0345 59.4392 47.1411C59.4392 48.2611 59.3712 49.5398 59.2365 50.9731C59.3712 53.3051 59.4392 55.3892 59.4392 57.2265C59.4392 61.7985 59.0125 64.0838 58.1605 64.0838C57.2645 65.3398 55.6059 65.9678 53.1872 65.9678H37.2512C33.3059 65.9678 31.3352 64.6238 31.3352 61.9331V52.6545C31.3792 52.3865 31.5126 52.2505 31.7392 52.2505H39.5352C39.7592 52.2971 39.8739 52.4305 39.8739 52.6545V52.8572C39.8739 58.0558 40.2752 60.6545 41.0832 60.6545C41.4859 60.9238 41.8659 61.0585 42.2259 61.0585H49.0179C49.9139 60.5225 50.3605 60.1412 50.3605 59.9158V47.5451C50.3605 46.5144 49.5979 45.9985 48.0752 45.9985H44.2445C43.4365 45.9985 41.9779 45.1371 39.8739 43.4145C39.6939 43.4145 38.8872 42.7732 37.4525 41.4905L37.8566 41.3598H46.9339C49.2179 41.2252 50.3605 40.7744 50.3605 40.0091V25.8998C49.9579 25.0011 49.4419 24.5505 48.8139 24.5505H42.7646C41.4179 24.5505 40.4552 24.9305 39.8739 25.6945C40.0072 27.3971 40.0752 28.6758 40.0752 29.5265V30.4678C40.0752 30.6918 39.9392 30.8038 39.6712 30.8038H36.8486C36.3539 30.8038 35.6579 30.8705 34.7619 31.0051C34.5379 30.8705 34.3592 30.8038 34.2259 30.8038C33.5539 30.9371 32.9232 31.0051 32.3432 31.0051C31.6712 31.0051 31.2886 30.8264 31.1992 30.4678V24.1465C31.1992 24.0118 31.2446 23.9451 31.3352 23.9451C31.3352 23.8558 31.2886 23.8105 31.1992 23.8105C31.1992 22.0198 32.1392 20.7411 34.0232 19.9784L35.3686 19.6411Z" fill="#100F0D"/>
<path d="M303.621 454.887H285.197C281.568 454.124 279.752 452.803 279.752 450.919V443.121C279.752 442.448 279.685 441.575 279.551 440.499L279.752 440.095C279.617 439.196 279.551 438.436 279.551 437.808C279.551 435.119 280.112 433.28 281.232 432.296V432.16C280.112 431.084 279.551 429.493 279.551 427.387C279.551 426.267 279.617 424.988 279.752 423.555C279.617 421.223 279.551 419.139 279.551 417.303C279.551 412.731 279.976 410.444 280.828 410.444C281.725 409.189 283.383 408.561 285.804 408.561H301.739C305.683 408.561 307.655 409.905 307.655 412.595V421.873C307.611 422.141 307.476 422.277 307.251 422.277H299.453C299.229 422.232 299.116 422.097 299.116 421.873V421.672C299.116 416.472 298.713 413.873 297.907 413.873C297.503 413.604 297.123 413.471 296.763 413.471H289.972C289.076 414.007 288.628 414.387 288.628 414.613V426.983C288.628 428.015 289.391 428.529 290.915 428.529H294.745C295.552 428.529 297.011 429.392 299.116 431.115C299.296 431.115 300.101 431.755 301.536 433.037L301.133 433.169H292.056C289.771 433.304 288.628 433.753 288.628 434.52V448.629C289.031 449.528 289.547 449.977 290.175 449.977H296.224C297.571 449.977 298.533 449.597 299.116 448.835C298.981 447.132 298.915 445.853 298.915 445.003V444.061C298.915 443.837 299.049 443.725 299.317 443.725H302.141C302.636 443.725 303.331 443.657 304.227 443.524C304.451 443.657 304.631 443.725 304.763 443.725C305.436 443.591 306.065 443.524 306.645 443.524C307.319 443.524 307.7 443.701 307.789 444.061V450.381C307.789 450.517 307.745 450.584 307.655 450.584C307.655 450.673 307.7 450.717 307.789 450.717C307.789 452.509 306.849 453.788 304.967 454.551L303.621 454.887Z" fill="#100F0D"/>
<path d="M293.265 353.215L295.72 350.871C295.72 350.871 296.365 345.71 299.116 342.588L293.265 337.299L287.416 342.588C290.164 345.71 290.809 350.871 290.809 350.871L293.265 353.215ZM265.154 351.246C263.862 374.231 278.134 378.119 281.497 370.535C283.285 366.501 280.496 360.632 277.428 359.72C273.688 358.61 274.097 362.411 274.097 362.411C274.097 362.411 274.988 361.239 276.144 361.416C278.422 361.766 277.196 365.567 274.798 365.567C272.402 365.567 269.246 363.696 268.485 356.212C267.374 345.278 279.186 344.304 286.37 350.603C289.192 353.074 291.697 356.33 293.265 358.562C294.833 356.33 297.341 353.074 300.158 350.603C307.345 344.304 319.154 345.278 318.045 356.212C317.285 363.696 314.129 365.567 311.733 365.567C309.336 365.567 308.108 361.766 310.386 361.416C311.542 361.239 312.433 362.411 312.433 362.411C312.433 362.411 312.842 358.61 309.102 359.72C306.036 360.632 303.245 366.501 305.032 370.535C308.397 378.119 322.668 374.231 321.376 351.246C321.376 351.246 325.222 355.799 325.236 362.059C325.249 369.716 322.253 377.959 310.154 385.85C303.133 390.428 297.096 394.042 293.265 396.27C289.433 394.042 283.398 390.428 276.377 385.85C264.277 377.959 261.28 369.716 261.297 362.059C261.308 355.799 265.154 351.246 265.154 351.246Z" fill="#100F0D"/>
<path d="M45.7221 121.313L43.266 123.657C43.266 123.657 42.6207 128.818 39.8701 131.94L45.7221 137.23L51.5714 131.94C48.8234 128.818 48.1781 123.657 48.1781 123.657L45.7221 121.313ZM73.8314 123.284C75.1234 100.298 60.8527 96.4105 57.49 103.993C55.7007 108.028 58.4901 113.897 61.5581 114.808C65.2994 115.918 64.8887 112.118 64.8887 112.118C64.8887 112.118 63.9981 113.29 62.8421 113.113C60.5634 112.762 61.7901 108.963 64.1887 108.963C66.5834 108.963 69.7407 110.832 70.5007 118.316C71.6114 129.25 59.8007 130.225 52.6154 123.925C49.7954 121.456 47.2901 118.198 45.7221 115.968C44.1541 118.198 41.646 121.456 38.8287 123.925C31.6407 130.225 19.8314 129.25 20.9407 118.316C21.7007 110.832 24.858 108.963 27.2527 108.963C29.6514 108.963 30.8781 112.762 28.5994 113.113C27.4434 113.29 26.5527 112.118 26.5527 112.118C26.5527 112.118 26.1434 115.918 29.8834 114.808C32.9514 113.897 35.7434 108.028 33.954 103.993C30.5887 96.4105 16.3181 100.298 17.6101 123.284C17.6101 123.284 13.7634 118.73 13.75 112.47C13.738 104.812 16.7327 96.5705 28.8314 88.6798C35.8554 84.0998 41.8914 80.4865 45.7221 78.2585C49.5527 80.4865 55.5887 84.0998 62.61 88.6798C74.7074 96.5705 77.7047 104.812 77.69 112.47C77.678 118.73 73.8314 123.284 73.8314 123.284Z" fill="#100F0D"/>
<path d="M169.499 277.065L162.296 283.936C162.296 283.936 160.401 299.08 152.339 308.235L169.499 323.752L186.659 308.235C178.592 299.08 176.697 283.936 176.697 283.936L169.499 277.065ZM251.955 282.844C255.743 215.421 213.883 204.017 204.015 226.261C198.765 238.092 206.955 255.311 215.945 257.984C226.921 261.243 225.715 250.093 225.715 250.093C225.715 250.093 223.111 253.531 219.719 253.012C213.035 251.984 216.633 240.836 223.66 240.836C230.695 240.836 239.953 246.32 242.184 268.269C245.439 300.348 210.797 303.204 189.715 284.727C181.449 277.481 174.094 267.929 169.499 261.383C164.902 267.929 157.544 277.481 149.279 284.727C128.196 303.204 93.5548 300.348 96.8095 268.269C99.0441 246.32 108.303 240.836 115.33 240.836C122.362 240.836 125.959 251.984 119.275 253.012C115.887 253.531 113.275 250.093 113.275 250.093C113.275 250.093 112.076 261.243 123.044 257.984C132.039 255.311 140.227 238.092 134.984 226.261C125.115 204.017 83.2508 215.421 87.0388 282.844C87.0388 282.844 75.7601 269.488 75.7228 251.121C75.6815 228.663 84.4695 204.487 119.959 181.343C140.556 167.911 158.263 157.311 169.499 150.776C180.732 157.311 198.437 167.911 219.031 181.343C254.521 204.487 263.312 228.663 263.267 251.121C263.236 269.488 251.955 282.844 251.955 282.844Z" fill="#100F0D"/>
</svg>
