<svg width="339" height="474" viewBox="0 0 339 474" fill="none" xmlns="http://www.w3.org/2000/svg">
<path d="M23.4049 473.607C10.9049 473.607 0.738281 463.438 0.738281 450.941V23.4101C0.738281 10.9101 10.9049 0.742085 23.4049 0.742085H316.225C328.722 0.742085 338.892 10.9101 338.892 23.4101V450.941C338.892 463.438 328.722 473.607 316.225 473.607H23.4049Z" fill="#849393"/>
<path d="M316.226 3.4094H272.053L268.021 14.4988L263.652 3.4094H23.4062C12.3596 3.4094 3.40625 12.3641 3.40625 23.4108V450.941C3.40625 461.985 12.3596 470.941 23.4062 470.941H67.6409L71.6089 460.029L75.9076 470.941H316.226C327.27 470.941 336.226 461.985 336.226 450.941V23.4108C336.226 12.3641 327.27 3.4094 316.226 3.4094Z" fill="white"/>
<path d="M38.3021 51.0398H45.4288C45.8328 51.0398 46.0341 50.8398 46.0341 50.4358V35.1731C42.8514 40.5531 40.2741 45.8424 38.3021 51.0398ZM46.3701 19.6411H56.3208V19.9118C55.2902 21.1211 54.7755 22.1518 54.7755 23.0038V50.4358C54.8195 50.8398 55.0208 51.0398 55.3795 51.0398H58.2034C58.2034 51.8931 57.0608 54.2678 54.7755 58.1678V62.5371C54.7755 63.4358 55.2902 64.4878 56.3208 65.6985V65.9678H44.4875V65.6985C45.5195 64.4878 46.0341 63.4358 46.0341 62.5371V58.1678C46.0341 57.7638 45.8328 57.5638 45.4288 57.5638H28.0155L27.4102 57.2945C39.5128 32.1945 45.8328 19.6411 46.3701 19.6411Z" fill="#100F0D"/>
<path d="M301.324 423.488H294.198C293.795 423.488 293.593 423.689 293.593 424.092V439.356C296.777 433.975 299.352 428.687 301.324 423.488ZM293.255 454.887H283.306V454.617C284.337 453.408 284.852 452.376 284.852 451.525V424.092C284.807 423.689 284.607 423.488 284.249 423.488H281.422C281.422 422.636 282.566 420.26 284.852 416.361V411.991C284.852 411.092 284.337 410.04 283.306 408.829V408.561H295.139V408.829C294.109 410.04 293.593 411.092 293.593 411.991V416.361C293.593 416.764 293.795 416.965 294.198 416.965H311.613L312.217 417.235C300.115 442.335 293.795 454.887 293.255 454.887Z" fill="#100F0D"/>
<path d="M293.585 353.215L296.04 350.871C296.04 350.871 296.687 345.71 299.436 342.588L293.585 337.299L287.736 342.588C290.484 345.71 291.131 350.871 291.131 350.871L293.585 353.215ZM265.475 351.246C264.184 374.231 278.455 378.119 281.817 370.535C283.605 366.501 280.816 360.632 277.749 359.72C274.008 358.61 274.417 362.411 274.417 362.411C274.417 362.411 275.308 361.239 276.465 361.416C278.744 361.766 277.517 365.567 275.119 365.567C272.723 365.567 269.567 363.696 268.805 356.212C267.695 345.278 279.507 344.304 286.692 350.603C289.512 353.074 292.019 356.33 293.585 358.562C295.153 356.33 297.661 353.074 300.479 350.603C307.665 344.304 319.475 345.278 318.365 356.212C317.605 363.696 314.449 365.567 312.053 365.567C309.656 365.567 308.428 361.766 310.707 361.416C311.863 361.239 312.753 362.411 312.753 362.411C312.753 362.411 313.163 358.61 309.423 359.72C306.357 360.632 303.565 366.501 305.353 370.535C308.717 378.119 322.988 374.231 321.696 351.246C321.696 351.246 325.543 355.799 325.556 362.059C325.569 369.716 322.575 377.959 310.475 385.85C303.453 390.428 297.416 394.042 293.585 396.27C289.753 394.042 283.719 390.428 276.697 385.85C264.597 377.959 261.6 369.716 261.617 362.059C261.629 355.799 265.475 351.246 265.475 351.246Z" fill="#100F0D"/>
<path d="M46.0397 121.313L43.5837 123.657C43.5837 123.657 42.9384 128.818 40.1904 131.94L46.0397 137.23L51.8904 131.94C49.1411 128.818 48.4958 123.657 48.4958 123.657L46.0397 121.313ZM74.1504 123.284C75.4424 100.298 61.1717 96.4105 57.8077 103.993C56.0197 108.028 58.809 113.897 61.8757 114.808C65.6184 115.918 65.2064 112.118 65.2064 112.118C65.2064 112.118 64.3171 113.29 63.1611 113.113C60.8824 112.762 62.109 108.963 64.5064 108.963C66.9037 108.963 70.0597 110.832 70.8197 118.316C71.9304 129.25 60.1197 130.225 52.9331 123.925C50.1144 121.456 47.6077 118.198 46.0397 115.968C44.4717 118.198 41.9651 121.456 39.1464 123.925C31.9597 130.225 20.1491 129.25 21.2584 118.316C22.0211 110.832 25.177 108.963 27.573 108.963C29.969 108.963 31.1957 112.762 28.917 113.113C27.7624 113.29 26.8717 112.118 26.8717 112.118C26.8717 112.118 26.4637 115.918 30.2024 114.808C33.2691 113.897 36.061 108.028 34.273 103.993C30.909 96.4105 16.6357 100.298 17.9277 123.284C17.9277 123.284 14.0824 118.73 14.0704 112.47C14.0557 104.812 17.0517 96.5705 29.1504 88.6798C36.173 84.0998 42.209 80.4865 46.0397 78.2585C49.8704 80.4865 55.9077 84.0998 62.9277 88.6798C75.0264 96.5705 78.025 104.812 78.009 112.47C77.997 118.73 74.1504 123.284 74.1504 123.284Z" fill="#100F0D"/>
<path d="M169.819 277.065L162.616 283.936C162.616 283.936 160.722 299.08 152.659 308.235L169.819 323.752L186.979 308.235C178.914 299.08 177.019 283.936 177.019 283.936L169.819 277.065ZM252.275 282.844C256.063 215.421 214.203 204.017 204.335 226.261C199.086 238.092 207.275 255.311 216.266 257.984C227.243 261.243 226.035 250.093 226.035 250.093C226.035 250.093 223.431 253.531 220.039 253.012C213.356 251.984 216.954 240.836 223.98 240.836C231.016 240.836 240.274 246.32 242.504 268.269C245.759 300.348 211.118 303.204 190.035 284.727C181.77 277.481 174.415 267.929 169.819 261.383C165.222 267.929 157.864 277.481 149.599 284.727C128.518 303.204 93.8751 300.348 97.1311 268.269C99.3645 246.32 108.623 240.836 115.65 240.836C122.682 240.836 126.279 251.984 119.595 253.012C116.207 253.531 113.595 250.093 113.595 250.093C113.595 250.093 112.396 261.243 123.364 257.984C132.36 255.311 140.547 238.092 135.306 226.261C125.435 204.017 83.5712 215.421 87.3605 282.844C87.3605 282.844 76.0818 269.488 76.0431 251.121C76.0018 228.663 84.7898 204.487 120.279 181.343C140.876 167.911 158.584 157.311 169.819 150.776C181.052 157.311 198.758 167.911 219.352 181.343C254.842 204.487 263.634 228.663 263.587 251.121C263.557 269.488 252.275 282.844 252.275 282.844Z" fill="#100F0D"/>
</svg>
