<svg width="339" height="474" viewBox="0 0 339 474" fill="none" xmlns="http://www.w3.org/2000/svg">
<path d="M22.7253 473.607C10.2253 473.607 0.0585938 463.438 0.0585938 450.941V23.4088C0.0585938 10.9101 10.2253 0.742085 22.7253 0.742085H315.545C328.039 0.742085 338.212 10.9101 338.212 23.4088V450.941C338.212 463.438 328.039 473.607 315.545 473.607H22.7253Z" fill="#849393"/>
<path d="M315.546 3.4094H271.373L267.346 14.4988L262.973 3.4094H22.7266C11.6799 3.4094 2.72656 12.3641 2.72656 23.4094V450.941C2.72656 461.985 11.6799 470.941 22.7266 470.941H66.9599L70.9332 460.029L75.2266 470.941H315.546C326.586 470.941 335.546 461.985 335.546 450.941V23.4094C335.546 12.3641 326.586 3.4094 315.546 3.4094Z" fill="white"/>
<path d="M30.4038 19.6411H58.8397C59.1597 19.6411 59.3598 20.3372 59.4531 21.7265C59.4531 22.8025 59.3865 23.9905 59.2531 25.2891C59.3865 28.0691 59.4531 30.8931 59.4531 33.7611V33.9638C59.4531 34.1878 59.3197 34.2998 59.0397 34.2998H58.3064C53.6397 32.4625 50.9997 31.3411 50.373 30.9371V25.4238C50.373 24.8425 50.1864 24.5065 49.8397 24.4158H41.0264C39.8611 24.4158 39.2104 24.9985 39.0771 26.1638V37.1238C39.0771 38.0212 39.8825 38.6025 41.4971 38.8718H55.4797C57.9864 40.1718 59.2531 41.4264 59.2531 42.6371H59.4531C59.5331 45.5944 59.5865 47.9478 59.5865 49.6958V53.2598C59.5865 55.3665 59.5331 58.3691 59.4531 62.2691C58.5998 64.7345 56.933 65.9678 54.4797 65.9678H36.2517C32.1277 65.9678 30.0664 64.0838 30.0664 60.3198V52.7225C30.1104 52.4531 30.2238 52.3185 30.4038 52.3185H41.6984C41.9224 52.3638 42.0344 52.4985 42.0344 52.7225C40.8677 52.9905 39.9264 53.4611 39.2104 54.1344C39.2104 54.8064 39.1651 55.7478 39.0771 56.9572C39.0771 59.7812 39.5464 61.1945 40.4878 61.1945H48.0797C49.613 61.1945 50.373 60.5438 50.373 59.2438V46.1331C50.373 44.4745 49.5464 43.6451 47.8797 43.6451H36.3865C32.1731 43.6451 30.0664 41.9424 30.0664 38.5344V19.9784C30.1104 19.7544 30.2238 19.6411 30.4038 19.6411Z" fill="#100F0D"/>
<path d="M307.865 454.887H279.425C279.118 454.887 278.905 454.192 278.825 452.803C278.825 451.727 278.891 450.537 279.025 449.239C278.891 446.46 278.825 443.635 278.825 440.767V440.565C278.825 440.34 278.958 440.229 279.225 440.229H279.958C284.625 442.067 287.265 443.188 287.891 443.591V449.104C287.891 449.687 288.078 450.023 288.438 450.113H297.238C298.411 450.113 299.051 449.529 299.198 448.364V437.405C299.198 436.508 298.385 435.925 296.771 435.657H282.785C280.278 434.357 279.025 433.103 279.025 431.892H278.825C278.731 428.933 278.691 426.58 278.691 424.832V421.269C278.691 419.161 278.731 416.159 278.825 412.259C279.678 409.793 281.331 408.561 283.798 408.561H302.011C306.145 408.561 308.198 410.444 308.198 414.209V421.805C308.158 422.076 308.051 422.209 307.865 422.209H296.571C296.345 422.165 296.238 422.029 296.238 421.805C297.398 421.537 298.345 421.067 299.051 420.395C299.051 419.723 299.105 418.781 299.198 417.572C299.198 414.747 298.718 413.335 297.785 413.335H290.185C288.665 413.335 287.891 413.984 287.891 415.285V428.396C287.891 430.053 288.731 430.884 290.385 430.884H301.878C306.091 430.884 308.198 432.587 308.198 435.993V454.551C308.158 454.775 308.051 454.887 307.865 454.887Z" fill="#100F0D"/>
<path d="M292.907 353.215L295.36 350.871C295.36 350.871 296.014 345.71 298.76 342.588L292.907 337.299L287.054 342.588C289.8 345.71 290.454 350.871 290.454 350.871L292.907 353.215ZM264.8 351.246C263.507 374.231 277.774 378.119 281.134 370.535C282.934 366.501 280.134 360.632 277.067 359.72C273.334 358.61 273.734 362.411 273.734 362.411C273.734 362.411 274.627 361.239 275.787 361.416C278.067 361.766 276.84 365.567 274.44 365.567C272.04 365.567 268.894 363.696 268.134 356.212C267.014 345.278 278.827 344.304 286.014 350.603C288.84 353.074 291.334 356.33 292.907 358.562C294.48 356.33 296.987 353.074 299.8 350.603C306.987 344.304 318.8 345.278 317.694 356.212C316.934 363.696 313.774 365.567 311.374 365.567C308.974 365.567 307.747 361.766 310.027 361.416C311.187 361.239 312.08 362.411 312.08 362.411C312.08 362.411 312.48 358.61 308.747 359.72C305.68 360.632 302.894 366.501 304.68 370.535C308.04 378.119 322.307 374.231 321.014 351.246C321.014 351.246 324.867 355.799 324.88 362.059C324.894 369.716 321.894 377.959 309.8 385.85C302.774 390.428 296.734 394.042 292.907 396.27C289.08 394.042 283.04 390.428 276.014 385.85C263.92 377.959 260.92 369.716 260.934 362.059C260.947 355.799 264.8 351.246 264.8 351.246Z" fill="#100F0D"/>
<path d="M45.3573 121.313L42.9053 123.657C42.9053 123.657 42.2586 128.818 39.5106 131.94L45.3573 137.23L51.2106 131.94C48.4639 128.818 47.8106 123.657 47.8106 123.657L45.3573 121.313ZM73.4773 123.284C74.7573 100.298 60.4906 96.4105 57.1306 103.993C55.344 108.028 58.1306 113.897 61.1973 114.808C64.944 115.918 64.5306 112.118 64.5306 112.118C64.5306 112.118 63.6373 113.29 62.4773 113.113C60.1973 112.762 61.424 108.963 63.824 108.963C66.224 108.963 69.3839 110.832 70.1439 118.316C71.2506 129.25 59.4374 130.225 52.2507 123.925C49.4374 121.456 46.9307 118.198 45.3573 115.968C43.7933 118.198 41.2854 121.456 38.468 123.925C31.28 130.225 19.4693 129.25 20.58 118.316C21.3413 110.832 24.4973 108.963 26.8933 108.963C29.2906 108.963 30.5173 112.762 28.2386 113.113C27.0826 113.29 26.192 112.118 26.192 112.118C26.192 112.118 25.784 115.918 29.524 114.808C32.5893 113.897 35.3813 108.028 33.5933 103.993C30.2293 96.4105 15.9573 100.298 17.248 123.284C17.248 123.284 13.404 118.73 13.3907 112.47C13.376 104.812 16.372 96.5705 28.4706 88.6798C35.4933 84.0998 41.5293 80.4865 45.3573 78.2585C49.1973 80.4865 55.224 84.0998 62.2507 88.6798C74.344 96.5705 77.344 104.812 77.3306 112.47C77.3173 118.73 73.4773 123.284 73.4773 123.284Z" fill="#100F0D"/>
<path d="M169.133 277.065L161.933 283.936C161.933 283.936 160.039 299.08 151.973 308.235L169.133 323.752L186.293 308.235C178.226 299.08 176.333 283.936 176.333 283.936L169.133 277.065ZM251.599 282.844C255.386 215.421 213.52 204.017 203.653 226.261C198.4 238.092 206.6 255.311 215.586 257.984C226.56 261.243 225.359 250.093 225.359 250.093C225.359 250.093 222.746 253.531 219.359 253.012C212.679 251.984 216.279 240.836 223.306 240.836C230.333 240.836 239.599 246.32 241.826 268.269C245.079 300.348 210.44 303.204 189.36 284.727C181.093 277.481 173.733 267.929 169.133 261.383C164.546 267.929 157.186 277.481 148.92 284.727C127.84 303.204 93.1995 300.348 96.4529 268.269C98.6795 246.32 107.946 240.836 114.973 240.836C121.999 240.836 125.6 251.984 118.92 253.012C115.533 253.531 112.92 250.093 112.92 250.093C112.92 250.093 111.719 261.243 122.679 257.984C131.679 255.311 139.866 238.092 134.626 226.261C124.76 204.017 82.8928 215.421 86.6794 282.844C86.6794 282.844 75.3995 269.488 75.3595 251.121C75.3195 228.663 84.1061 204.487 119.599 181.343C140.199 167.911 157.906 157.311 169.133 150.776C180.373 157.311 198.079 167.911 218.666 181.343C254.159 204.487 262.946 228.663 262.906 251.121C262.879 269.488 251.599 282.844 251.599 282.844Z" fill="#100F0D"/>
</svg>
