<svg width="339" height="474" viewBox="0 0 339 474" fill="none" xmlns="http://www.w3.org/2000/svg">
<path d="M23.0456 473.359C10.5456 473.359 0.378906 463.186 0.378906 450.693V23.1595C0.378906 10.6595 10.5456 0.492867 23.0456 0.492867H315.866C328.359 0.492867 338.532 10.6595 338.532 23.1595V450.693C338.532 463.186 328.359 473.359 315.866 473.359H23.0456Z" fill="#849393"/>
<path d="M315.867 3.16013H271.694L267.667 14.2495L263.294 3.16013H23.0469C12.0002 3.16013 3.04688 12.1135 3.04688 23.1601V450.693C3.04688 461.733 12.0002 470.693 23.0469 470.693H67.2802L71.2536 459.774L75.5469 470.693H315.867C326.907 470.693 335.867 461.733 335.867 450.693V23.1601C335.867 12.1135 326.907 3.16013 315.867 3.16013Z" fill="white"/>
<path d="M60.7066 35.5275C60.7066 35.2581 60.6 35.1248 60.3733 35.1248C59.2133 37.9488 58.4267 40.1675 58.0267 41.7822C57.84 41.7822 57.5333 42.6782 57.0799 44.4715C56.8133 44.4715 56.4933 45.4795 56.1333 47.4955C54.2533 50.9035 53.3201 53.3675 53.3201 54.8915C53.1334 54.8915 52.5734 56.2141 51.6267 58.8595C51.36 58.9048 51.2267 59.0381 51.2267 59.2621L51.4267 59.6648L50.8267 60.6075C50.8667 60.8315 51 60.9435 51.2267 60.9435H58.2267C59.3867 60.9435 60.2133 60.4515 60.7066 59.4648V35.5275ZM53.7201 39.4955C54.1201 38.8675 55.56 35.0581 58.0267 28.0661L59.36 25.1075V24.9048C59.36 24.5008 58.6666 24.3008 57.2799 24.3008H51.9733C50.1733 24.3008 49.1066 24.7488 48.7466 25.6435L48.9466 26.0475V46.3528C48.9466 47.6075 48.8799 49.1341 48.7466 50.9248C48.8799 51.1488 48.9466 51.3968 48.9466 51.6648C49.3466 51.6648 50.9334 47.6075 53.7201 39.4955ZM69.8534 27.9301V61.5475C69.36 64.3288 68.1467 65.7168 66.2267 65.7168H43.2293C41.212 65.7168 40.024 64.2608 39.6654 61.3475V23.5608C39.6654 21.2741 41.0547 19.8861 43.8333 19.3915C43.9227 19.3915 43.9693 19.4368 43.9693 19.5275L45.312 19.3915H64.1333C66.6933 19.3915 68.4 20.1315 69.2534 21.6102C69.6534 23.0008 69.8534 25.1075 69.8534 27.9301ZM36.372 65.4488V65.7168H21.1094V65.4488C23.1267 64.3288 24.1359 63.2968 24.1359 62.3555V26.3168L23.8654 24.8382H23.1947L21.1094 25.1075V24.8382C21.1534 24.5688 25.12 22.0142 33.0107 17.1728L33.2786 17.7782V62.0195C33.2786 63.1861 34.3093 64.3288 36.372 65.4488Z" fill="#100F0D"/>
<path d="M278.201 438.507C278.201 438.774 278.321 438.907 278.535 438.907C279.708 436.081 280.495 433.867 280.895 432.241C281.068 432.241 281.388 431.347 281.828 429.56C282.108 429.56 282.415 428.547 282.775 426.534C284.655 423.12 285.601 420.667 285.601 419.134C285.775 419.134 286.335 417.814 287.281 415.174C287.548 415.12 287.681 414.987 287.681 414.76L287.481 414.36L288.081 413.427C288.041 413.2 287.908 413.081 287.681 413.081H280.695C279.521 413.081 278.695 413.574 278.201 414.56V438.507ZM285.188 434.534C284.788 435.16 283.361 438.974 280.895 445.96L279.548 448.92V449.12C279.548 449.534 280.241 449.734 281.628 449.734H286.948C288.735 449.734 289.815 449.28 290.175 448.387L289.975 447.987V427.68C289.975 426.427 290.041 424.894 290.175 423.107C290.041 422.881 289.975 422.627 289.975 422.36C289.561 422.36 287.975 426.427 285.188 434.534ZM269.055 446.094V412.48C269.548 409.694 270.761 408.307 272.695 408.307H295.681C297.695 408.307 298.895 409.774 299.241 412.68V450.467C299.241 452.76 297.855 454.147 295.081 454.641C294.988 454.641 294.948 454.587 294.948 454.507L293.601 454.641H274.775C272.215 454.641 270.521 453.894 269.668 452.414C269.255 451.027 269.055 448.92 269.055 446.094ZM302.535 408.574V408.307H317.801V408.574C315.788 409.694 314.775 410.734 314.775 411.667V447.707L315.041 449.187H315.721L317.801 448.92V449.187C317.761 449.454 313.788 452.014 305.908 456.854L305.628 456.254V412.014C305.628 410.841 304.601 409.694 302.535 408.574Z" fill="#100F0D"/>
<path d="M72.868 103.879C66.0814 98.152 60.2413 99.5534 56.4813 103.515C54.2413 105.884 55.7747 111.097 58.4813 110.045C58.4813 110.045 54.7213 112.676 52.0813 108.468C49.4547 104.259 51.6013 102.753 55.2413 99.876C73.5747 85.384 59.628 78.1347 45.6813 78.132C31.736 78.1347 17.7921 85.384 36.1281 99.876C39.7694 102.753 41.9147 104.259 39.2841 108.468C36.6534 112.676 32.8827 110.045 32.8827 110.045C35.6014 111.097 37.1267 105.884 34.8827 103.515C31.1294 99.5534 25.2853 98.152 18.5093 103.879C13.4906 108.121 13.5987 115.772 17.3227 120.943C24.3067 130.639 37.8266 125.855 45.6813 116.739C53.548 125.855 67.0547 130.639 74.0413 120.943C77.7747 115.772 77.8814 108.121 72.868 103.879ZM48.1347 123.285C48.1347 123.285 48.788 128.447 51.5347 131.569L45.6813 136.861L39.8347 131.569C42.584 128.447 43.2294 123.285 43.2294 123.285L45.6813 120.943L48.1347 123.285Z" fill="#100F0D"/>
<path d="M266.053 370.146C272.826 375.879 278.666 374.479 282.426 370.519C284.666 368.146 283.146 362.933 280.426 363.986C280.426 363.986 284.199 361.346 286.826 365.559C289.453 369.773 287.306 371.279 283.666 374.146C265.333 388.64 279.279 395.893 293.226 395.893C307.173 395.893 321.119 388.64 302.786 374.146C299.146 371.279 296.999 369.773 299.626 365.559C302.253 361.346 306.026 363.986 306.026 363.986C303.306 362.933 301.786 368.146 304.026 370.519C307.786 374.479 313.626 375.879 320.399 370.146C325.426 365.906 325.319 358.253 321.586 353.079C314.599 343.386 301.079 348.173 293.226 357.293C285.373 348.173 271.853 343.386 264.866 353.079C261.146 358.253 261.039 365.906 266.053 370.146ZM290.773 350.746C290.773 350.746 290.119 345.586 287.373 342.453L293.226 337.173L299.079 342.453C296.333 345.586 295.679 350.746 295.679 350.746L293.226 353.079L290.773 350.746Z" fill="#100F0D"/>
<path d="M249.174 226.408C229.294 209.607 212.147 213.72 201.147 225.338C194.56 232.285 199.027 247.582 207.014 244.496C207.014 244.496 195.947 252.213 188.227 239.866C180.521 227.52 186.814 223.104 197.494 214.662C251.281 172.157 210.374 150.892 169.454 150.884C128.547 150.892 87.6405 172.157 141.427 214.662C152.107 223.104 158.4 227.52 150.68 239.866C142.974 252.213 131.907 244.496 131.907 244.496C139.88 247.582 144.36 232.285 137.774 225.338C126.76 213.72 109.627 209.607 89.7471 226.408C75.0271 238.852 75.3471 261.293 86.2671 276.453C106.76 304.906 146.414 290.866 169.454 264.133C192.507 290.866 232.161 304.906 252.654 276.453C263.574 261.293 263.88 238.852 249.174 226.408ZM176.654 283.333C176.654 283.333 178.56 298.466 186.614 307.626L169.454 323.146L152.294 307.626C160.361 298.466 162.254 283.333 162.254 283.333L169.454 276.453L176.654 283.333Z" fill="#100F0D"/>
</svg>
