<svg width="339" height="474" viewBox="0 0 339 474" fill="none" xmlns="http://www.w3.org/2000/svg">
<path d="M23.2956 473.483C10.7956 473.483 0.628906 463.314 0.628906 450.817V23.286C0.628906 10.786 10.7956 0.619376 23.2956 0.619376H316.116C328.613 0.619376 338.782 10.786 338.782 23.286V450.817C338.782 463.314 328.613 473.483 316.116 473.483H23.2956Z" fill="#849393"/>
<path d="M316.113 3.28572H271.94L267.908 14.3737L263.538 3.28572H23.293C12.2463 3.28572 3.29297 12.2391 3.29297 23.2857V450.816C3.29297 461.86 12.2463 470.816 23.293 470.816H67.5276L71.4956 459.906L75.7943 470.816H316.113C327.157 470.816 336.113 461.86 336.113 450.816V23.2857C336.113 12.2391 327.157 3.28572 316.113 3.28572Z" fill="white"/>
<path d="M38.1941 50.9171H45.3195C45.7235 50.9171 45.9248 50.7157 45.9248 50.3117V35.0491C42.7421 40.4291 40.1648 45.7184 38.1941 50.9171ZM46.2608 19.5184H56.2115V19.7878C55.1808 20.9971 54.6661 22.0278 54.6661 22.8798V50.3117C54.7101 50.7157 54.9115 50.9171 55.2701 50.9171H58.0941C58.0941 51.7691 56.9515 54.1438 54.6661 58.0438V62.4144C54.6661 63.3117 55.1808 64.3637 56.2115 65.5757V65.8438H44.3781V65.5757C45.4101 64.3637 45.9248 63.3117 45.9248 62.4144V58.0438C45.9248 57.6398 45.7235 57.4397 45.3195 57.4397H27.9061L27.3008 57.1704C39.4034 32.0704 45.7235 19.5184 46.2608 19.5184Z" fill="#100F0D"/>
<path d="M301.211 423.363H294.085C293.682 423.363 293.479 423.564 293.479 423.968V439.231C296.663 433.851 299.239 428.562 301.211 423.363ZM293.142 454.762H283.193V454.492C284.223 453.283 284.739 452.251 284.739 451.4V423.968C284.695 423.564 284.494 423.363 284.135 423.363H281.309C281.309 422.511 282.453 420.136 284.739 416.236V411.866C284.739 410.968 284.223 409.916 283.193 408.704V408.436H295.026V408.704C293.995 409.916 293.479 410.968 293.479 411.866V416.236C293.479 416.639 293.682 416.84 294.085 416.84H311.499L312.103 417.11C300.002 442.21 293.682 454.762 293.142 454.762Z" fill="#100F0D"/>
<path d="M73.1076 104.005C66.3302 98.2783 60.485 99.6796 56.733 103.64C54.4876 106.01 56.0143 111.224 58.7316 110.172C58.7316 110.172 54.9609 112.802 52.3316 108.593C49.7009 104.385 51.8463 102.88 55.4863 100.002C73.8236 85.5103 59.8783 78.2597 45.9303 78.257C31.981 78.2597 18.0369 85.5103 36.3729 100.002C40.0156 102.88 42.1596 104.385 39.5289 108.593C36.8996 112.802 33.1289 110.172 33.1289 110.172C35.8476 111.224 37.3716 106.01 35.1289 103.64C31.3743 99.6796 25.5303 98.2783 18.7543 104.005C13.7369 108.248 13.8449 115.898 17.5689 121.069C24.5529 130.765 38.073 125.98 45.9303 116.864C53.7876 125.98 67.3063 130.765 74.2929 121.069C78.0156 115.898 78.1236 108.248 73.1076 104.005ZM48.3863 123.412C48.3863 123.412 49.0316 128.573 51.781 131.694L45.9303 136.986L40.081 131.694C42.829 128.573 43.4742 123.412 43.4742 123.412L45.9303 121.069L48.3863 123.412Z" fill="#100F0D"/>
<path d="M266.296 370.275C273.074 376.002 278.918 374.601 282.671 370.639C284.916 368.27 283.39 363.057 280.672 364.109C280.672 364.109 284.443 361.478 287.072 365.687C289.702 369.895 287.558 371.401 283.916 374.278C265.579 388.77 279.524 396.021 293.472 396.023C307.422 396.021 321.366 388.77 303.03 374.278C299.388 371.401 297.243 369.895 299.872 365.687C302.504 361.478 306.275 364.109 306.275 364.109C303.555 363.057 302.031 368.27 304.275 370.639C308.028 374.601 313.872 376.002 320.648 370.275C325.667 366.033 325.559 358.382 321.834 353.211C314.851 343.515 301.331 348.301 293.472 357.417C285.616 348.301 272.096 343.515 265.111 353.211C261.388 358.382 261.28 366.033 266.296 370.275ZM291.017 350.869C291.017 350.869 290.371 345.707 287.623 342.585L293.472 337.294L299.323 342.585C296.573 345.707 295.927 350.869 295.927 350.869L293.472 353.211L291.017 350.869Z" fill="#100F0D"/>
<path d="M249.421 226.532C229.545 209.732 212.397 213.846 201.389 225.465C194.805 232.411 199.281 247.707 207.255 244.622C207.255 244.622 196.195 252.337 188.479 239.993C180.765 227.645 187.059 223.23 197.738 214.788C251.522 172.283 210.617 151.018 169.707 151.01C128.791 151.018 87.8899 172.283 141.674 214.788C152.357 223.23 158.646 227.645 150.931 239.993C143.217 252.337 132.157 244.622 132.157 244.622C140.131 247.707 144.603 232.411 138.023 225.465C127.011 213.846 109.87 209.732 89.9953 226.532C75.2739 238.976 75.5913 261.417 86.5153 276.585C107.002 305.027 146.658 290.992 169.707 264.252C192.75 290.992 232.41 305.027 252.897 276.585C263.819 261.417 264.133 238.976 249.421 226.532ZM176.907 283.452C176.907 283.452 178.802 298.596 186.867 307.755L169.707 323.272L152.547 307.755C160.61 298.596 162.505 283.452 162.505 283.452L169.707 276.585L176.907 283.452Z" fill="#100F0D"/>
</svg>
