<svg width="339" height="474" viewBox="0 0 339 474" fill="none" xmlns="http://www.w3.org/2000/svg">
<path d="M22.7832 473.359C10.2839 473.359 0.117188 463.186 0.117188 450.693V23.1595C0.117188 10.6595 10.2839 0.492867 22.7832 0.492867H315.605C328.102 0.492867 338.271 10.6595 338.271 23.1595V450.693C338.271 463.186 328.102 473.359 315.605 473.359H22.7832Z" fill="#849393"/>
<path d="M315.606 3.16013H271.433L267.399 14.2495L263.031 3.16013H22.7845C11.7378 3.16013 2.78516 12.1135 2.78516 23.1601V450.693C2.78516 461.733 11.7378 470.693 22.7845 470.693H67.0205L70.9885 459.774L75.2858 470.693H315.606C326.65 470.693 335.606 461.733 335.606 450.693V23.1601C335.606 12.1135 326.65 3.16013 315.606 3.16013Z" fill="white"/>
<path d="M35.285 19.3915H64.533C64.8023 19.4368 64.937 19.5488 64.937 19.7275C62.5597 21.0288 61.3743 22.3501 61.3743 23.6941C59.3557 28.3581 57.921 32.3008 57.0703 35.5275C56.845 35.6621 55.9037 38.1501 54.2463 42.9915C53.6183 43.9768 52.789 46.2422 51.7583 49.7822L49.741 54.8248L46.9183 63.0941V63.8341C47.501 64.7315 48.2397 65.1795 49.137 65.1795V65.3808C48.9117 65.3808 48.7997 65.4928 48.7997 65.7168L46.9183 65.5155H34.5463V65.3808C34.5463 65.2462 35.353 64.7995 36.9663 64.0355C37.5943 62.9608 40.5983 55.3182 45.977 41.1088C45.977 40.5275 47.8597 35.1475 51.6237 24.9715C51.221 24.8835 51.0183 24.7702 51.0183 24.6368C47.8357 24.7702 45.5277 24.8382 44.0943 24.8382H41.0677C36.989 24.8382 34.1863 26.7661 32.665 30.6208L32.261 30.8208L32.125 30.4168V29.4768C32.349 29.2982 32.7757 27.6181 33.4037 24.4341C34.2543 21.0728 34.8837 19.3915 35.285 19.3915Z" fill="#100F0D"/>
<path d="M303.101 454.639H273.853C273.584 454.585 273.449 454.478 273.449 454.305C275.825 452.999 277.012 451.678 277.012 450.332C279.031 445.665 280.465 441.732 281.316 438.505C281.541 438.358 282.481 435.879 284.14 431.039C284.768 430.052 285.597 427.785 286.627 424.239L288.645 419.199L291.468 410.932V410.199C290.887 409.292 290.147 408.852 289.249 408.852V408.652C289.475 408.652 289.585 408.532 289.585 408.305L291.468 408.505H303.84V408.652C303.84 408.785 303.033 409.225 301.419 409.985C300.791 411.065 297.788 418.705 292.409 432.918C292.409 433.505 290.527 438.879 286.763 449.052C287.167 449.145 287.367 449.252 287.367 449.385C290.551 449.252 292.859 449.185 294.292 449.185H297.317C301.397 449.185 304.2 447.265 305.723 443.412L306.125 443.212L306.26 443.612V444.545C306.036 444.732 305.611 446.412 304.983 449.599C304.132 452.958 303.503 454.639 303.101 454.639Z" fill="#100F0D"/>
<path d="M72.5971 103.879C65.8197 98.152 59.9744 99.5534 56.2224 103.515C53.9771 105.884 55.5024 111.097 58.2211 110.045C58.2211 110.045 54.4491 112.676 51.8211 108.468C49.1904 104.259 51.3344 102.753 54.9757 99.876C73.3131 85.384 59.3677 78.1347 45.4197 78.132C31.4704 78.1347 17.5264 85.384 35.8624 99.876C39.5037 102.753 41.6491 104.259 39.0184 108.468C36.3891 112.676 32.6171 110.045 32.6171 110.045C35.3357 111.097 36.8611 105.884 34.6171 103.515C30.8637 99.5534 25.0197 98.152 18.2437 103.879C13.2251 108.121 13.3331 115.772 17.0571 120.943C24.0424 130.639 37.5611 125.855 45.4197 116.739C53.2771 125.855 66.7957 130.639 73.7811 120.943C77.5037 115.772 77.6117 108.121 72.5971 103.879ZM47.8757 123.285C47.8757 123.285 48.5211 128.447 51.2704 131.569L45.4197 136.861L39.5691 131.569C42.3184 128.447 42.9637 123.285 42.9637 123.285L45.4197 120.943L47.8757 123.285Z" fill="#100F0D"/>
<path d="M265.787 370.146C272.565 375.879 278.41 374.479 282.163 370.519C284.407 368.146 282.882 362.933 280.165 363.986C280.165 363.986 283.935 361.346 286.563 365.559C289.194 369.773 287.05 371.279 283.409 374.146C265.07 388.64 279.015 395.893 292.965 395.893C306.914 395.893 320.858 388.64 302.522 374.146C298.881 371.279 296.734 369.773 299.365 365.559C301.997 361.346 305.767 363.986 305.767 363.986C303.047 362.933 301.523 368.146 303.767 370.519C307.521 374.479 313.365 375.879 320.141 370.146C325.159 365.906 325.051 358.253 321.326 353.079C314.342 343.386 300.823 348.173 292.965 357.293C285.109 348.173 271.589 343.386 264.603 353.079C260.881 358.253 260.773 365.906 265.787 370.146ZM290.509 350.746C290.509 350.746 289.863 345.586 287.114 342.453L292.965 337.173L298.815 342.453C296.065 345.586 295.419 350.746 295.419 350.746L292.965 353.079L290.509 350.746Z" fill="#100F0D"/>
<path d="M248.909 226.408C229.033 209.607 211.885 213.72 200.877 225.338C194.292 232.285 198.769 247.582 206.744 244.496C206.744 244.496 195.682 252.213 187.968 239.866C180.253 227.52 186.548 223.104 197.225 214.662C251.009 172.157 210.105 150.892 169.196 150.884C128.278 150.892 87.3784 172.157 141.162 214.662C151.844 223.104 158.134 227.52 150.42 239.866C142.705 252.213 131.645 244.496 131.645 244.496C139.618 247.582 144.092 232.285 137.51 225.338C126.5 213.72 109.358 209.607 89.4837 226.408C74.7624 238.852 75.0797 261.293 86.0024 276.453C106.49 304.906 146.146 290.866 169.196 264.133C192.237 290.866 231.897 304.906 252.385 276.453C263.308 261.293 263.62 238.852 248.909 226.408ZM176.394 283.333C176.394 283.333 178.289 298.466 186.356 307.626L169.196 323.146L152.036 307.626C160.098 298.466 161.993 283.333 161.993 283.333L169.196 276.453L176.394 283.333Z" fill="#100F0D"/>
</svg>
