<svg width="339" height="474" viewBox="0 0 339 474" fill="none" xmlns="http://www.w3.org/2000/svg">
<path d="M22.7832 473.483C10.2839 473.483 0.117188 463.314 0.117188 450.817V23.286C0.117188 10.786 10.2839 0.619376 22.7832 0.619376H315.605C328.102 0.619376 338.271 10.786 338.271 23.286V450.817C338.271 463.314 328.102 473.483 315.605 473.483H22.7832Z" fill="#849393"/>
<path d="M315.606 3.28572H271.433L267.399 14.3737L263.031 3.28572H22.7845C11.7378 3.28572 2.78516 12.2391 2.78516 23.2857V450.816C2.78516 461.86 11.7378 470.816 22.7845 470.816H67.0205L70.9885 459.906L75.2858 470.816H315.606C326.65 470.816 335.606 461.86 335.606 450.816V23.2857C335.606 12.2391 326.65 3.28572 315.606 3.28572Z" fill="white"/>
<path d="M35.0343 19.5184H54.6677C57.7157 19.5184 59.2383 21.8717 59.2383 26.5784V31.4864C59.2383 36.2384 57.9157 39.3984 55.273 40.9664C46.6663 48.6771 41.2423 53.8984 39.0023 56.6331V60.3304C39.045 60.7344 39.2463 60.9344 39.6063 60.9344H45.4557C53.0303 60.9344 58.2303 57.7757 61.0543 51.4557H61.7263C59.9783 61.0477 58.8357 65.8438 58.297 65.8438H30.7303C30.3277 65.8438 30.125 65.641 30.125 65.2397V56.6331C30.125 53.9877 34.317 49.3931 42.6997 42.8491C47.809 38.2771 50.3637 35.4091 50.3637 34.2424C50.5877 33.4811 50.6997 32.5624 50.6997 31.4864V27.1837C50.6997 25.5264 49.8703 24.6944 48.213 24.6944H42.0943C40.6143 24.6944 39.6957 25.2104 39.337 26.2424V30.2077C39.337 30.9717 36.4677 32.3157 30.7303 34.2424L30.3943 33.6384V25.0304C30.3943 21.3571 31.9423 19.5184 35.0343 19.5184Z" fill="#100F0D"/>
<path d="M303.352 454.762H283.72C280.671 454.762 279.148 452.408 279.148 447.702V442.794C279.148 438.042 280.471 434.882 283.114 433.314C291.722 425.603 297.144 420.382 299.385 417.647V413.95C299.34 413.546 299.14 413.346 298.78 413.346H292.931C285.356 413.346 280.156 416.504 277.333 422.824H276.66C278.408 413.232 279.552 408.436 280.088 408.436H307.656C308.059 408.436 308.26 408.638 308.26 409.04V417.647C308.26 420.292 304.069 424.887 295.687 431.431C290.577 436.003 288.023 438.871 288.023 440.038C287.799 440.799 287.687 441.718 287.687 442.794V447.096C287.687 448.754 288.516 449.584 290.174 449.584H296.292C297.772 449.584 298.691 449.07 299.05 448.038V444.072C299.05 443.308 301.919 441.964 307.656 440.038L307.992 440.642V449.25C307.992 452.923 306.444 454.762 303.352 454.762Z" fill="#100F0D"/>
<path d="M72.5971 104.005C65.8197 98.2783 59.9744 99.6796 56.2224 103.64C53.9771 106.01 55.5024 111.224 58.2211 110.172C58.2211 110.172 54.4491 112.802 51.8211 108.593C49.1904 104.385 51.3344 102.88 54.9757 100.002C73.3131 85.5103 59.3677 78.2597 45.4197 78.257C31.4704 78.2597 17.5264 85.5103 35.8624 100.002C39.5037 102.88 41.6491 104.385 39.0184 108.593C36.3891 112.802 32.6171 110.172 32.6171 110.172C35.3357 111.224 36.8611 106.01 34.6171 103.64C30.8637 99.6796 25.0197 98.2783 18.2437 104.005C13.2251 108.248 13.3331 115.898 17.0571 121.069C24.0424 130.765 37.5611 125.98 45.4197 116.864C53.2771 125.98 66.7957 130.765 73.7811 121.069C77.5037 115.898 77.6117 108.248 72.5971 104.005ZM47.8757 123.412C47.8757 123.412 48.5211 128.573 51.2704 131.694L45.4197 136.986L39.5691 131.694C42.3184 128.573 42.9637 123.412 42.9637 123.412L45.4197 121.069L47.8757 123.412Z" fill="#100F0D"/>
<path d="M265.787 370.275C272.565 376.002 278.41 374.601 282.163 370.639C284.407 368.27 282.882 363.057 280.165 364.109C280.165 364.109 283.935 361.478 286.563 365.687C289.194 369.895 287.05 371.401 283.409 374.278C265.07 388.77 279.015 396.021 292.965 396.023C306.914 396.021 320.858 388.77 302.522 374.278C298.881 371.401 296.734 369.895 299.365 365.687C301.997 361.478 305.767 364.109 305.767 364.109C303.047 363.057 301.523 368.27 303.767 370.639C307.521 374.601 313.365 376.002 320.141 370.275C325.159 366.033 325.051 358.382 321.326 353.211C314.342 343.515 300.823 348.301 292.965 357.417C285.109 348.301 271.589 343.515 264.603 353.211C260.881 358.382 260.773 366.033 265.787 370.275ZM290.509 350.869C290.509 350.869 289.863 345.707 287.114 342.585L292.965 337.294L298.815 342.585C296.065 345.707 295.419 350.869 295.419 350.869L292.965 353.211L290.509 350.869Z" fill="#100F0D"/>
<path d="M248.909 226.532C229.033 209.732 211.885 213.846 200.877 225.465C194.292 232.411 198.769 247.707 206.744 244.622C206.744 244.622 195.682 252.337 187.968 239.993C180.253 227.645 186.548 223.23 197.225 214.788C251.009 172.283 210.105 151.018 169.196 151.01C128.278 151.018 87.3784 172.283 141.162 214.788C151.844 223.23 158.134 227.645 150.42 239.993C142.705 252.337 131.645 244.622 131.645 244.622C139.618 247.707 144.092 232.411 137.51 225.465C126.5 213.846 109.358 209.732 89.4837 226.532C74.7624 238.976 75.0797 261.417 86.0024 276.585C106.49 305.027 146.146 290.992 169.196 264.252C192.237 290.992 231.897 305.027 252.385 276.585C263.308 261.417 263.62 238.976 248.909 226.532ZM176.394 283.452C176.394 283.452 178.289 298.596 186.356 307.755L169.196 323.272L152.036 307.755C160.098 298.596 161.993 283.452 161.993 283.452L169.196 276.585L176.394 283.452Z" fill="#100F0D"/>
</svg>
