<svg width="339" height="474" viewBox="0 0 339 474" fill="none" xmlns="http://www.w3.org/2000/svg">
<path d="M22.7995 473.483C10.3061 473.483 0.132812 463.314 0.132812 450.817V23.286C0.132812 10.786 10.3061 0.619376 22.7995 0.619376H315.626C328.12 0.619376 338.293 10.786 338.293 23.286V450.817C338.293 463.314 328.12 473.483 315.626 473.483H22.7995Z" fill="#849393"/>
<path d="M315.627 3.28572H271.454L267.414 14.3737L263.054 3.28572H22.8008C11.7608 3.28572 2.80078 12.2391 2.80078 23.2857V450.816C2.80078 461.86 11.7608 470.816 22.8008 470.816H67.0408L71.0008 459.906L75.3074 470.816H315.627C326.667 470.816 335.627 461.86 335.627 450.816V23.2857C335.627 12.2391 326.667 3.28572 315.627 3.28572Z" fill="white"/>
<path d="M39.427 44.2598V55.3544C39.427 59.1198 40.107 61.0024 41.4936 61.0024H41.827C44.227 60.8664 46.2402 60.7997 47.8402 60.7997H49.4402C50.2536 60.3984 50.6536 59.7917 50.6536 58.9837V45.8744C50.6536 44.2597 49.4402 43.4531 47.0402 43.4531H40.827C40.107 43.4531 39.6403 43.7238 39.427 44.2598ZM54.6802 19.5184C57.1469 19.5184 58.6936 20.5051 59.3203 22.4757C59.4536 22.6997 59.5203 23.0598 59.5203 23.5518V32.2264L59.7203 34.1744C59.4536 34.3091 59.2536 34.3771 59.1203 34.3771C53.9603 32.3598 51.147 31.1717 50.6536 30.8117V28.3251C50.6536 25.7704 50.1202 24.4944 49.0402 24.4944C46.8136 24.3597 45.0803 24.2917 43.827 24.2917H42.827C40.5603 24.2917 39.427 25.0544 39.427 26.5784V26.7131C39.427 26.8464 39.4936 26.9144 39.627 26.9144C39.4936 28.2571 39.427 29.2677 39.427 29.9397V35.3851C39.427 37.5358 39.6403 38.6117 40.0936 38.6117H49.6802C54.4535 38.6117 57.267 39.0157 58.1203 39.8224C59.187 40.3611 59.7203 43.1851 59.7203 48.2944V49.7051C59.7203 50.9637 59.6536 53.9211 59.5203 58.5811C59.6536 60.0597 59.7203 61.3384 59.7203 62.4144C59.0136 64.6997 57.4002 65.8438 54.8802 65.8438H35.787C32.9603 65.8438 31.2669 64.8357 30.6802 62.8171V27.7891C30.6802 26.6691 30.6402 25.3664 30.5469 23.8878C30.5469 21.6931 31.8269 20.2371 34.3736 19.5184H54.6802Z" fill="#100F0D"/>
<path d="M299.002 430.02V418.926C299.002 415.16 298.309 413.278 296.935 413.278H296.602C294.189 413.412 292.189 413.479 290.575 413.479H288.975C288.175 413.882 287.775 414.488 287.775 415.295V428.406C287.775 430.02 288.975 430.826 291.389 430.826H297.602C298.309 430.826 298.775 430.556 299.002 430.02ZM283.735 454.762C281.282 454.762 279.722 453.775 279.095 451.804C278.962 451.579 278.895 451.22 278.895 450.728V442.054L278.695 440.104C278.962 439.971 279.175 439.903 279.295 439.903C284.455 441.919 287.282 443.107 287.775 443.467V445.955C287.775 448.51 288.309 449.786 289.375 449.786C291.602 449.92 293.349 449.988 294.589 449.988H295.589C297.869 449.988 299.002 449.226 299.002 447.702V447.567C299.002 447.434 298.935 447.366 298.802 447.366C298.935 446.022 299.002 445.012 299.002 444.34V438.895C299.002 436.743 298.775 435.667 298.335 435.667H288.749C283.962 435.667 281.149 435.263 280.309 434.458C279.229 433.918 278.695 431.095 278.695 425.984V424.574C278.695 423.316 278.762 420.359 278.895 415.698C278.762 414.219 278.695 412.942 278.695 411.866C279.415 409.58 281.029 408.436 283.535 408.436H302.629C305.455 408.436 307.162 409.444 307.749 411.463V446.491C307.749 447.611 307.789 448.914 307.882 450.392C307.882 452.587 306.602 454.043 304.042 454.762H283.735Z" fill="#100F0D"/>
<path d="M72.6125 104.005C65.8392 98.2783 59.9992 99.6796 56.2392 103.64C53.9992 106.01 55.5192 111.224 58.2392 110.172C58.2392 110.172 54.4659 112.802 51.8392 108.593C49.2125 104.385 51.3592 102.88 54.9992 100.002C73.3326 85.5103 59.3859 78.2597 45.4392 78.257C31.4925 78.2597 17.5458 85.5103 35.8792 100.002C39.5192 102.88 41.6659 104.385 39.0392 108.593C36.4125 112.802 32.6392 110.172 32.6392 110.172C35.3592 111.224 36.8792 106.01 34.6392 103.64C30.8792 99.6796 25.0392 98.2783 18.2659 104.005C13.2392 108.248 13.3458 115.898 17.0792 121.069C24.0658 130.765 37.5859 125.98 45.4392 116.864C53.2925 125.98 66.8126 130.765 73.7992 121.069C77.5192 115.898 77.6258 108.248 72.6125 104.005ZM47.8926 123.412C47.8926 123.412 48.5459 128.573 51.2926 131.694L45.4392 136.986L39.5859 131.694C42.3326 128.573 42.9859 123.412 42.9859 123.412L45.4392 121.069L47.8926 123.412Z" fill="#100F0D"/>
<path d="M265.801 370.275C272.587 376.002 278.427 374.601 282.187 370.639C284.427 368.27 282.894 363.057 280.187 364.109C280.187 364.109 283.947 361.478 286.587 365.687C289.214 369.895 287.067 371.401 283.427 374.278C265.094 388.77 279.041 396.021 292.987 396.023C306.934 396.021 320.881 388.77 302.547 374.278C298.894 371.401 296.747 369.895 299.387 365.687C302.014 361.478 305.787 364.109 305.787 364.109C303.067 363.057 301.547 368.27 303.787 370.639C307.534 374.601 313.387 376.002 320.161 370.275C325.174 366.033 325.067 358.382 321.347 353.211C314.361 343.515 300.841 348.301 292.987 357.417C285.121 348.301 271.614 343.515 264.627 353.211C260.894 358.382 260.787 366.033 265.801 370.275ZM290.534 350.869C290.534 350.869 289.881 345.707 287.134 342.585L292.987 337.294L298.841 342.585C296.081 345.707 295.441 350.869 295.441 350.869L292.987 353.211L290.534 350.869Z" fill="#100F0D"/>
<path d="M248.933 226.532C229.053 209.732 211.906 213.846 200.893 225.465C194.306 232.411 198.786 247.707 206.76 244.622C206.76 244.622 195.706 252.337 187.986 239.993C180.266 227.645 186.56 223.23 197.24 214.788C251.026 172.283 210.12 151.018 169.213 151.01C128.293 151.018 87.3997 172.283 141.186 214.788C151.866 223.23 158.16 227.645 150.44 239.993C142.72 252.337 131.666 244.622 131.666 244.622C139.64 247.707 144.106 232.411 137.533 225.465C126.52 213.846 109.373 209.732 89.5063 226.532C74.7863 238.976 75.093 261.417 86.0263 276.585C106.506 305.027 146.16 290.992 169.213 264.252C192.253 290.992 231.92 305.027 252.4 276.585C263.333 261.417 263.64 238.976 248.933 226.532ZM176.413 283.452C176.413 283.452 178.306 298.596 186.373 307.755L169.213 323.272L152.053 307.755C160.12 298.596 162.013 283.452 162.013 283.452L169.213 276.585L176.413 283.452Z" fill="#100F0D"/>
</svg>
