<svg width="340" height="474" viewBox="0 0 340 474" fill="none" xmlns="http://www.w3.org/2000/svg">
<path d="M23.5378 473.359C11.0378 473.359 0.871094 463.186 0.871094 450.693V23.1595C0.871094 10.6595 11.0378 0.492867 23.5378 0.492867H316.359C328.856 0.492867 339.026 10.6595 339.026 23.1595V450.693C339.026 463.186 328.856 473.359 316.359 473.359H23.5378Z" fill="#849393"/>
<path d="M316.36 3.16013H272.187L268.154 14.2495L263.786 3.16013H23.5391C12.4924 3.16013 3.53906 12.1135 3.53906 23.1601V450.693C3.53906 461.733 12.4924 470.693 23.5391 470.693H67.775L71.7431 459.774L76.0404 470.693H316.36C327.404 470.693 336.36 461.733 336.36 450.693V23.1601C336.36 12.1135 327.404 3.16013 316.36 3.16013Z" fill="white"/>
<path d="M40.7297 47.2955V58.5235C40.7297 59.9128 41.311 60.6075 42.4777 60.6075H49.2684C50.4337 60.6075 51.0177 59.9128 51.0177 58.5235V47.2955C51.0177 46.5315 50.4337 46.0168 49.2684 45.7488C49.0444 45.7488 47.9017 45.8155 45.8404 45.9501C45.6604 45.9501 44.539 45.8822 42.4777 45.7488C41.311 46.0168 40.7297 46.5315 40.7297 47.2955ZM40.7297 26.1835V39.6955C41.1777 40.4595 41.7603 40.8395 42.4777 40.8395H49.2684C49.9857 40.8395 50.5684 40.4595 51.0177 39.6955V26.1835C51.0177 24.9275 50.0083 24.3008 47.991 24.3008H44.3617C42.0751 24.3008 40.9311 24.7488 40.9311 25.6435C40.7977 25.6435 40.7297 25.8235 40.7297 26.1835ZM35.9563 19.3915H55.723C56.9777 19.3915 58.1883 20.0862 59.355 21.4755C59.7123 21.9702 59.9603 23.2248 60.0937 25.2408L59.8924 25.6435C59.8924 25.9595 59.9603 26.8995 60.0937 28.4688C59.9603 30.6648 59.8924 31.9435 59.8924 32.3008L60.0937 33.5795C60.0937 33.7128 60.027 33.9155 59.8924 34.1835C60.027 35.0821 60.0937 35.8422 60.0937 36.4702C60.0937 39.1595 59.5323 40.9982 58.4137 41.9822V42.1181C59.5323 43.1941 60.0937 44.7848 60.0937 46.8915C60.0937 48.0115 60.027 49.2901 59.8924 50.7235C60.027 53.0555 60.0937 55.1382 60.0937 56.9755C60.0937 61.6835 59.667 64.0355 58.8163 64.0355C58.099 65.1568 56.6204 65.7168 54.379 65.7168H37.3017C34.4764 65.7168 32.639 64.5741 31.7883 62.2875C31.6963 59.0608 31.6523 57.1555 31.6523 56.5742C31.6523 55.0048 31.6963 53.0555 31.7883 50.7235C31.6963 49.2448 31.6523 47.8555 31.6523 46.5555C31.6523 44.7621 32.2137 43.2835 33.3337 42.1181V41.9822C32.2137 41.0862 31.6523 39.0475 31.6523 35.8635C31.6523 35.5515 31.6963 35.0581 31.7883 34.3848L31.6523 33.5795C31.6523 33.4888 31.6963 32.9955 31.7883 32.0995C31.6963 30.2168 31.6523 28.9381 31.6523 28.2661L31.7883 25.6435C31.7883 25.5102 31.743 25.4435 31.6523 25.4435C31.6523 22.3048 32.5937 20.4008 34.4764 19.7275C35.3724 19.5035 35.8657 19.3915 35.9563 19.3915Z" fill="#100F0D"/>
<path d="M299.165 426.732V415.505C299.165 414.118 298.582 413.425 297.415 413.425H290.626C289.46 413.425 288.877 414.118 288.877 415.505V426.732C288.877 427.492 289.46 428.012 290.626 428.278C290.85 428.278 291.993 428.212 294.054 428.079C294.234 428.079 295.355 428.145 297.415 428.278C298.582 428.012 299.165 427.492 299.165 426.732ZM299.165 447.839V434.332C298.717 433.572 298.134 433.185 297.415 433.185H290.626C289.909 433.185 289.326 433.572 288.877 434.332V447.839C288.877 449.105 289.886 449.732 291.902 449.732H295.533C297.818 449.732 298.962 449.278 298.962 448.385C299.097 448.385 299.165 448.199 299.165 447.839ZM303.938 454.639H284.17C282.917 454.639 281.706 453.945 280.539 452.545C280.182 452.052 279.934 450.799 279.801 448.785L280.002 448.385C280.002 448.065 279.934 447.132 279.801 445.558C279.934 443.358 280.002 442.079 280.002 441.732L279.801 440.452C279.801 440.318 279.867 440.105 280.002 439.839C279.867 438.945 279.801 438.185 279.801 437.558C279.801 434.865 280.361 433.025 281.481 432.039V431.905C280.361 430.839 279.801 429.239 279.801 427.132C279.801 426.012 279.867 424.732 280.002 423.305C279.867 420.972 279.801 418.892 279.801 417.052C279.801 412.345 280.227 409.985 281.078 409.985C281.795 408.865 283.274 408.305 285.515 408.305H302.593C305.417 408.305 307.255 409.452 308.106 411.745C308.195 414.972 308.241 416.865 308.241 417.452C308.241 419.025 308.195 420.972 308.106 423.305C308.195 424.785 308.241 426.172 308.241 427.465C308.241 429.265 307.681 430.745 306.561 431.905V432.039C307.681 432.945 308.241 434.985 308.241 438.158C308.241 438.478 308.195 438.972 308.106 439.639L308.241 440.452C308.241 440.532 308.195 441.025 308.106 441.932C308.195 443.812 308.241 445.092 308.241 445.758L308.106 448.385C308.106 448.518 308.151 448.585 308.241 448.585C308.241 451.718 307.301 453.625 305.417 454.305C304.522 454.518 304.027 454.639 303.938 454.639Z" fill="#100F0D"/>
<path d="M73.351 103.879C66.5736 98.152 60.7283 99.5534 56.9749 103.515C54.7309 105.884 56.2563 111.097 58.9736 110.045C58.9736 110.045 55.2029 112.676 52.5749 108.468C49.9443 104.259 52.0883 102.753 55.7296 99.876C74.067 85.384 60.1216 78.1347 46.1736 78.132C32.2243 78.1347 18.2803 85.384 36.6163 99.876C40.2576 102.753 42.4029 104.259 39.7723 108.468C37.1416 112.676 33.371 110.045 33.371 110.045C36.0896 111.097 37.615 105.884 35.371 103.515C31.6176 99.5534 25.7736 98.152 18.9976 103.879C13.979 108.121 14.087 115.772 17.811 120.943C24.7963 130.639 38.315 125.855 46.1736 116.739C54.0296 125.855 67.5496 130.639 74.535 120.943C78.2576 115.772 78.3656 108.121 73.351 103.879ZM48.6296 123.285C48.6296 123.285 49.275 128.447 52.0243 131.569L46.1736 136.861L40.323 131.569C43.0723 128.447 43.7176 123.285 43.7176 123.285L46.1736 120.943L48.6296 123.285Z" fill="#100F0D"/>
<path d="M266.541 370.146C273.318 375.879 279.164 374.479 282.917 370.519C285.161 368.146 283.636 362.933 280.917 363.986C280.917 363.986 284.689 361.346 287.317 365.559C289.948 369.773 287.804 371.279 284.162 374.146C265.824 388.64 279.769 395.893 293.718 395.893C307.668 395.893 321.612 388.64 303.276 374.146C299.634 371.279 297.488 369.773 300.118 365.559C302.75 361.346 306.521 363.986 306.521 363.986C303.801 362.933 302.277 368.146 304.521 370.519C308.274 374.479 314.118 375.879 320.894 370.146C325.913 365.906 325.805 358.253 322.08 353.079C315.096 343.386 301.577 348.173 293.718 357.293C285.861 348.173 272.342 343.386 265.357 353.079C261.634 358.253 261.526 365.906 266.541 370.146ZM291.262 350.746C291.262 350.746 290.617 345.586 287.868 342.453L293.718 337.173L299.569 342.453C296.818 345.586 296.173 350.746 296.173 350.746L293.718 353.079L291.262 350.746Z" fill="#100F0D"/>
<path d="M249.663 226.408C229.787 209.607 212.638 213.72 201.631 225.338C195.046 232.285 199.523 247.582 207.498 244.496C207.498 244.496 196.436 252.213 188.722 239.866C181.007 227.52 187.302 223.104 197.979 214.662C251.763 172.157 210.859 150.892 169.95 150.884C129.032 150.892 88.1323 172.157 141.916 214.662C152.598 223.104 158.888 227.52 151.174 239.866C143.459 252.213 132.399 244.496 132.399 244.496C140.372 247.582 144.846 232.285 138.264 225.338C127.252 213.72 110.112 209.607 90.2376 226.408C75.5163 238.852 75.8337 261.293 86.7563 276.453C107.244 304.906 146.9 290.866 169.95 264.133C192.991 290.866 232.651 304.906 253.138 276.453C264.062 261.293 264.374 238.852 249.663 226.408ZM177.148 283.333C177.148 283.333 179.043 298.466 187.11 307.626L169.95 323.146L152.79 307.626C160.852 298.466 162.747 283.333 162.747 283.333L169.95 276.453L177.148 283.333Z" fill="#100F0D"/>
</svg>
