<svg width="339" height="474" viewBox="0 0 339 474" fill="none" xmlns="http://www.w3.org/2000/svg">
<path d="M23.2956 473.359C10.7956 473.359 0.628906 463.186 0.628906 450.693V23.1595C0.628906 10.6595 10.7956 0.492867 23.2956 0.492867H316.116C328.613 0.492867 338.782 10.6595 338.782 23.1595V450.693C338.782 463.186 328.613 473.359 316.116 473.359H23.2956Z" fill="#849393"/>
<path d="M316.113 3.16013H271.94L267.908 14.2495L263.538 3.16013H23.293C12.2463 3.16013 3.29297 12.1135 3.29297 23.1601V450.693C3.29297 461.733 12.2463 470.693 23.293 470.693H67.5276L71.4956 459.774L75.7943 470.693H316.113C327.157 470.693 336.113 461.733 336.113 450.693V23.1601C336.113 12.1135 327.157 3.16013 316.113 3.16013Z" fill="white"/>
<path d="M39.7765 26.1835V35.5275C39.7765 37.3661 42.4725 38.8235 47.8645 39.8995C47.8645 40.1675 48.9778 40.5715 51.2072 41.1088L51.5432 40.5035V25.9142C51.0072 24.6595 50.1831 24.0301 49.0698 24.0301H41.9831C40.5125 24.0301 39.7765 24.7488 39.7765 26.1835ZM35.0712 19.3915H56.2498C58.9391 20.0635 60.2845 21.4101 60.2845 23.4248V61.6835C59.5658 64.3728 58.2218 65.7168 56.2498 65.7168H35.0712C32.3805 65.0448 31.0352 63.6995 31.0352 61.6835V49.5142L31.3045 48.9088C36.4112 50.7902 39.2352 52.0462 39.7765 52.6728V58.8595C39.7765 60.3381 40.5125 61.0782 41.9831 61.0782H49.3365C50.8071 61.0782 51.5432 60.3381 51.5432 58.8595V48.6382C51.5432 46.7555 48.8538 45.3008 43.4738 44.2688C35.1818 41.8941 31.0352 39.4062 31.0352 36.8048V23.4248C31.7085 20.7368 33.0538 19.3915 35.0712 19.3915Z" fill="#100F0D"/>
<path d="M299.625 447.839V438.505C299.625 436.665 296.928 435.199 291.536 434.132C291.536 433.865 290.421 433.452 288.193 432.918L287.859 433.518V448.118C288.393 449.372 289.219 449.999 290.332 449.999H297.417C298.888 449.999 299.625 449.278 299.625 447.839ZM304.331 454.639H283.151C280.463 453.958 279.117 452.612 279.117 450.599V412.345C279.836 409.652 281.18 408.305 283.151 408.305H304.331C307.021 408.985 308.364 410.332 308.364 412.345V424.518L308.096 425.118C302.989 423.239 300.167 421.985 299.625 421.358V415.172C299.625 413.692 298.888 412.945 297.417 412.945H290.065C288.593 412.945 287.859 413.692 287.859 415.172V425.385C287.859 427.265 290.547 428.732 295.927 429.758C304.219 432.132 308.364 434.625 308.364 437.225V450.599C307.693 453.292 306.348 454.639 304.331 454.639Z" fill="#100F0D"/>
<path d="M73.1076 103.879C66.3302 98.152 60.485 99.5534 56.733 103.515C54.4876 105.884 56.0143 111.097 58.7316 110.045C58.7316 110.045 54.9609 112.676 52.3316 108.468C49.7009 104.259 51.8463 102.753 55.4863 99.876C73.8236 85.384 59.8783 78.1347 45.9303 78.132C31.981 78.1347 18.0369 85.384 36.3729 99.876C40.0156 102.753 42.1596 104.259 39.5289 108.468C36.8996 112.676 33.1289 110.045 33.1289 110.045C35.8476 111.097 37.3716 105.884 35.1289 103.515C31.3743 99.5534 25.5303 98.152 18.7543 103.879C13.7369 108.121 13.8449 115.772 17.5689 120.943C24.5529 130.639 38.073 125.855 45.9303 116.739C53.7876 125.855 67.3063 130.639 74.2929 120.943C78.0156 115.772 78.1236 108.121 73.1076 103.879ZM48.3863 123.285C48.3863 123.285 49.0316 128.447 51.781 131.569L45.9303 136.861L40.081 131.569C42.829 128.447 43.4742 123.285 43.4742 123.285L45.9303 120.943L48.3863 123.285Z" fill="#100F0D"/>
<path d="M266.296 370.146C273.074 375.879 278.918 374.479 282.671 370.519C284.916 368.146 283.39 362.933 280.672 363.986C280.672 363.986 284.443 361.346 287.072 365.559C289.702 369.773 287.558 371.279 283.916 374.146C265.579 388.64 279.524 395.893 293.472 395.893C307.422 395.893 321.366 388.64 303.03 374.146C299.388 371.279 297.243 369.773 299.872 365.559C302.504 361.346 306.275 363.986 306.275 363.986C303.555 362.933 302.031 368.146 304.275 370.519C308.028 374.479 313.872 375.879 320.648 370.146C325.667 365.906 325.559 358.253 321.834 353.079C314.851 343.386 301.331 348.173 293.472 357.293C285.616 348.173 272.096 343.386 265.111 353.079C261.388 358.253 261.28 365.906 266.296 370.146ZM291.017 350.746C291.017 350.746 290.371 345.586 287.623 342.453L293.472 337.173L299.323 342.453C296.573 345.586 295.927 350.746 295.927 350.746L293.472 353.079L291.017 350.746Z" fill="#100F0D"/>
<path d="M249.421 226.408C229.545 209.607 212.397 213.72 201.389 225.338C194.805 232.285 199.281 247.582 207.255 244.496C207.255 244.496 196.195 252.213 188.479 239.866C180.765 227.52 187.059 223.104 197.738 214.662C251.522 172.157 210.617 150.892 169.707 150.884C128.791 150.892 87.8899 172.157 141.674 214.662C152.357 223.104 158.646 227.52 150.931 239.866C143.217 252.213 132.157 244.496 132.157 244.496C140.131 247.582 144.603 232.285 138.023 225.338C127.011 213.72 109.87 209.607 89.9953 226.408C75.2739 238.852 75.5913 261.293 86.5153 276.453C107.002 304.906 146.658 290.866 169.707 264.133C192.75 290.866 232.41 304.906 252.897 276.453C263.819 261.293 264.133 238.852 249.421 226.408ZM176.907 283.333C176.907 283.333 178.802 298.466 186.867 307.626L169.707 323.146L152.547 307.626C160.61 298.466 162.505 283.333 162.505 283.333L169.707 276.453L176.907 283.333Z" fill="#100F0D"/>
</svg>
