<svg width="340" height="474" viewBox="0 0 340 474" fill="none" xmlns="http://www.w3.org/2000/svg">
<path d="M23.5378 473.483C11.0378 473.483 0.871094 463.314 0.871094 450.817V23.286C0.871094 10.786 11.0378 0.619376 23.5378 0.619376H316.359C328.856 0.619376 339.026 10.786 339.026 23.286V450.817C339.026 463.314 328.856 473.483 316.359 473.483H23.5378Z" fill="#849393"/>
<path d="M316.36 3.28572H272.187L268.154 14.3737L263.786 3.28572H23.5391C12.4924 3.28572 3.53906 12.2391 3.53906 23.2857V450.816C3.53906 461.86 12.4924 470.816 23.5391 470.816H67.775L71.7431 459.906L76.0404 470.816H316.36C327.404 470.816 336.36 461.86 336.36 450.816V23.2857C336.36 12.2391 327.404 3.28572 316.36 3.28572Z" fill="white"/>
<path d="M35.8217 19.5184H54.2443C57.875 20.2811 59.691 21.6024 59.691 23.4851V31.2837C59.691 31.9571 59.7577 32.8304 59.8924 33.9064L59.691 34.3091C59.8243 35.2077 59.8924 35.9691 59.8924 36.5958C59.8924 39.2864 59.331 41.1251 58.211 42.1091V42.2451C59.331 43.3197 59.8924 44.9118 59.8924 47.0184C59.8924 48.1384 59.8243 49.4171 59.691 50.8504C59.8243 53.1824 59.8924 55.2651 59.8924 57.1024C59.8924 61.6744 59.4657 63.9611 58.615 63.9611C57.7177 65.2157 56.0604 65.8438 53.6404 65.8438H37.7044C33.759 65.8438 31.7883 64.4997 31.7883 61.809V52.5304C31.8323 52.2624 31.967 52.1277 32.1924 52.1277H39.9897C40.2137 52.1731 40.327 52.3064 40.327 52.5304V52.7331C40.327 57.9317 40.7297 60.5304 41.5363 60.5304C41.9403 60.8011 42.3203 60.9344 42.6803 60.9344H49.471C50.3657 60.3984 50.815 60.0184 50.815 59.7917V47.4211C50.815 46.3904 50.0524 45.8744 48.5297 45.8744H44.6964C43.8897 45.8744 42.4324 45.0131 40.327 43.2904C40.147 43.2904 39.3404 42.6491 37.907 41.3664L38.3097 41.2357H47.387C49.6724 41.1011 50.815 40.6504 50.815 39.8851V25.7757C50.4124 24.8771 49.8964 24.4264 49.2684 24.4264H43.2177C41.8724 24.4264 40.9097 24.8064 40.327 25.5704C40.4617 27.273 40.5297 28.5517 40.5297 29.4024V30.3438C40.5297 30.5678 40.3937 30.6798 40.1257 30.6798H37.3017C36.807 30.6798 36.1124 30.7477 35.2164 30.8811C34.9924 30.7477 34.8124 30.6798 34.679 30.6798C34.007 30.8131 33.3777 30.8811 32.7964 30.8811C32.1244 30.8811 31.743 30.7024 31.6523 30.3438V24.0238C31.6523 23.8878 31.6963 23.8211 31.7883 23.8211C31.7883 23.7318 31.743 23.6878 31.6523 23.6878C31.6523 21.8958 32.5937 20.6171 34.4764 19.8544L35.8217 19.5184Z" fill="#100F0D"/>
<path d="M304.075 454.762H285.651C282.021 453.999 280.205 452.678 280.205 450.795V442.996C280.205 442.323 280.139 441.45 280.004 440.374L280.205 439.971C280.071 439.072 280.004 438.311 280.004 437.684C280.004 434.994 280.565 433.155 281.685 432.171V432.035C280.565 430.96 280.004 429.368 280.004 427.262C280.004 426.142 280.071 424.863 280.205 423.43C280.071 421.098 280.004 419.015 280.004 417.178C280.004 412.606 280.429 410.319 281.281 410.319C282.179 409.064 283.836 408.436 286.256 408.436H302.192C306.136 408.436 308.108 409.78 308.108 412.471V421.75C308.064 422.018 307.929 422.152 307.704 422.152H299.907C299.683 422.107 299.569 421.972 299.569 421.75V421.547C299.569 416.348 299.167 413.75 298.36 413.75C297.956 413.479 297.576 413.346 297.216 413.346H290.424C289.529 413.882 289.081 414.262 289.081 414.488V426.859C289.081 427.89 289.844 428.406 291.367 428.406H295.197C296.005 428.406 297.464 429.267 299.569 430.99C299.749 430.99 300.555 431.631 301.989 432.914L301.585 433.044H292.509C290.224 433.179 289.081 433.63 289.081 434.395V448.504C289.484 449.403 290 449.854 290.628 449.854H296.677C298.024 449.854 298.987 449.472 299.569 448.71C299.435 447.007 299.367 445.728 299.367 444.878V443.936C299.367 443.712 299.503 443.6 299.771 443.6H302.595C303.088 443.6 303.784 443.532 304.68 443.399C304.904 443.532 305.084 443.6 305.216 443.6C305.889 443.467 306.519 443.399 307.099 443.399C307.772 443.399 308.153 443.578 308.243 443.936V450.256C308.243 450.392 308.197 450.459 308.108 450.459C308.108 450.548 308.153 450.592 308.243 450.592C308.243 452.384 307.303 453.663 305.419 454.426L304.075 454.762Z" fill="#100F0D"/>
<path d="M73.351 104.005C66.5736 98.2783 60.7283 99.6796 56.9749 103.64C54.7309 106.01 56.2563 111.224 58.9736 110.172C58.9736 110.172 55.2029 112.802 52.5749 108.593C49.9443 104.385 52.0883 102.88 55.7296 100.002C74.067 85.5103 60.1216 78.2597 46.1736 78.257C32.2243 78.2597 18.2803 85.5103 36.6163 100.002C40.2576 102.88 42.4029 104.385 39.7723 108.593C37.1416 112.802 33.371 110.172 33.371 110.172C36.0896 111.224 37.615 106.01 35.371 103.64C31.6176 99.6796 25.7736 98.2783 18.9976 104.005C13.979 108.248 14.087 115.898 17.811 121.069C24.7963 130.765 38.315 125.98 46.1736 116.864C54.0296 125.98 67.5496 130.765 74.535 121.069C78.2576 115.898 78.3656 108.248 73.351 104.005ZM48.6296 123.412C48.6296 123.412 49.275 128.573 52.0243 131.694L46.1736 136.986L40.323 131.694C43.0723 128.573 43.7176 123.412 43.7176 123.412L46.1736 121.069L48.6296 123.412Z" fill="#100F0D"/>
<path d="M266.541 370.275C273.318 376.002 279.164 374.601 282.917 370.639C285.161 368.27 283.636 363.057 280.917 364.109C280.917 364.109 284.689 361.478 287.317 365.687C289.948 369.895 287.804 371.401 284.162 374.278C265.824 388.77 279.769 396.021 293.718 396.023C307.668 396.021 321.612 388.77 303.276 374.278C299.634 371.401 297.488 369.895 300.118 365.687C302.75 361.478 306.521 364.109 306.521 364.109C303.801 363.057 302.277 368.27 304.521 370.639C308.274 374.601 314.118 376.002 320.894 370.275C325.913 366.033 325.805 358.382 322.08 353.211C315.096 343.515 301.577 348.301 293.718 357.417C285.861 348.301 272.342 343.515 265.357 353.211C261.634 358.382 261.526 366.033 266.541 370.275ZM291.262 350.869C291.262 350.869 290.617 345.707 287.868 342.585L293.718 337.294L299.569 342.585C296.818 345.707 296.173 350.869 296.173 350.869L293.718 353.211L291.262 350.869Z" fill="#100F0D"/>
<path d="M249.663 226.532C229.787 209.732 212.638 213.846 201.631 225.465C195.046 232.411 199.523 247.707 207.498 244.622C207.498 244.622 196.436 252.337 188.722 239.993C181.007 227.645 187.302 223.23 197.979 214.788C251.763 172.283 210.859 151.018 169.95 151.01C129.032 151.018 88.1323 172.283 141.916 214.788C152.598 223.23 158.888 227.645 151.174 239.993C143.459 252.337 132.399 244.622 132.399 244.622C140.372 247.707 144.846 232.411 138.264 225.465C127.252 213.846 110.112 209.732 90.2376 226.532C75.5163 238.976 75.8337 261.417 86.7563 276.585C107.244 305.027 146.9 290.992 169.95 264.252C192.991 290.992 232.651 305.027 253.138 276.585C264.062 261.417 264.374 238.976 249.663 226.532ZM177.148 283.452C177.148 283.452 179.043 298.596 187.11 307.755L169.95 323.272L152.79 307.755C160.852 298.596 162.747 283.452 162.747 283.452L169.95 276.585L177.148 283.452Z" fill="#100F0D"/>
</svg>
