<svg width="340" height="474" viewBox="0 0 340 474" fill="none" xmlns="http://www.w3.org/2000/svg">
<path d="M23.5378 473.4C11.0378 473.4 0.871094 463.231 0.871094 450.734V23.1991C0.871094 10.7058 11.0378 0.53245 23.5378 0.53245H316.359C328.856 0.53245 339.026 10.7058 339.026 23.1991V450.734C339.026 463.231 328.856 473.4 316.359 473.4H23.5378Z" fill="#849393"/>
<path d="M316.36 3.19977H272.187L268.154 14.2931L263.786 3.19977H23.5391C12.4924 3.19977 3.53906 12.1598 3.53906 23.1998V450.734C3.53906 461.778 12.4924 470.734 23.5391 470.734H67.775L71.7431 459.822L76.0404 470.734H316.36C327.404 470.734 336.36 461.778 336.36 450.734V23.1998C336.36 12.1598 327.404 3.19977 316.36 3.19977Z" fill="white"/>
<path d="M45.739 34.5594L41.3684 49.5594L41.7044 49.8928H50.1097L50.7137 49.2261C47.8457 39.4528 46.187 34.5594 45.739 34.5594ZM40.091 19.5727H51.991V19.9061C50.9604 21.0661 50.4457 22.1061 50.4457 22.9994V23.3327C57.4817 48.3061 61.6284 62.0127 62.8844 64.4794L64.4297 65.4928V66.0928H53.2684V65.7594L54.7484 63.2794C53.3124 57.4394 52.283 54.5327 51.655 54.5327H40.091C39.419 55.0661 38.499 57.986 37.335 63.2794L38.8803 65.7594V66.0928H27.6523V65.4928C29.1763 65.4928 31.1484 60.4928 33.5697 50.4928C39.1724 32.6528 41.9737 23.2928 41.9737 22.3861L40.091 19.9061V19.5727Z" fill="#100F0D"/>
<path d="M294.154 439.552L298.526 424.557L298.19 424.221H289.785L289.181 424.893C292.049 434.664 293.707 439.552 294.154 439.552ZM299.803 454.544H287.902V454.208C288.933 453.041 289.449 452.011 289.449 451.115V450.779C282.413 425.812 278.266 412.096 277.01 409.631L275.465 408.623V408.019H286.626V408.355L285.146 410.841C286.582 416.667 287.611 419.584 288.238 419.584H299.803C300.474 419.044 301.394 416.131 302.56 410.841L301.014 408.355V408.019H312.242V408.623C310.718 408.623 308.746 413.62 306.325 423.617C300.722 441.456 297.919 450.823 297.919 451.721L299.803 454.208V454.544Z" fill="#100F0D"/>
<path d="M73.351 103.92C66.5736 98.1997 60.7283 99.5996 56.9749 103.56C54.7309 105.92 56.2563 111.146 58.9736 110.093C58.9736 110.093 55.2029 112.72 52.5749 108.506C49.9443 104.306 52.0883 102.8 55.7296 99.9197C74.067 85.4263 60.1216 78.1729 46.1736 78.1729C32.2243 78.1729 18.2803 85.4263 36.6163 99.9197C40.2576 102.8 42.4029 104.306 39.7723 108.506C37.1416 112.72 33.371 110.093 33.371 110.093C36.0896 111.146 37.615 105.92 35.371 103.56C31.6176 99.5996 25.7736 98.1997 18.9976 103.92C13.979 108.16 14.087 115.813 17.811 120.986C24.7963 130.68 38.315 125.893 46.1736 116.786C54.0296 125.893 67.5496 130.68 74.535 120.986C78.2576 115.813 78.3656 108.16 73.351 103.92ZM48.6296 123.333C48.6296 123.333 49.275 128.493 52.0243 131.613L46.1736 136.906L40.323 131.613C43.0723 128.493 43.7176 123.333 43.7176 123.333L46.1736 120.986L48.6296 123.333Z" fill="#100F0D"/>
<path d="M266.541 370.193C273.318 375.918 279.164 374.518 282.917 370.557C285.161 368.187 283.636 362.973 280.917 364.026C280.917 364.026 284.689 361.396 287.317 365.604C289.948 369.812 287.804 371.317 284.162 374.194C265.824 388.687 279.769 395.937 293.718 395.939C307.668 395.937 321.612 388.687 303.276 374.194C299.634 371.317 297.488 369.812 300.118 365.604C302.75 361.396 306.521 364.026 306.521 364.026C303.801 362.973 302.277 368.187 304.521 370.557C308.274 374.518 314.118 375.918 320.894 370.193C325.913 365.95 325.805 358.299 322.08 353.127C315.096 343.431 301.577 348.215 293.718 357.333C285.861 348.215 272.342 343.431 265.357 353.127C261.634 358.299 261.526 365.95 266.541 370.193ZM291.262 350.786C291.262 350.786 290.617 345.625 287.868 342.502L293.718 337.21L299.569 342.502C296.818 345.625 296.173 350.786 296.173 350.786L293.718 353.127L291.262 350.786Z" fill="#100F0D"/>
<path d="M249.663 226.45C229.787 209.653 212.638 213.76 201.631 225.38C195.046 232.328 199.523 247.625 207.498 244.538C207.498 244.538 196.436 252.252 188.722 239.909C181.007 227.563 187.302 223.145 197.979 214.706C251.763 172.2 210.859 150.933 169.95 150.92C129.032 150.933 88.1323 172.2 141.916 214.706C152.598 223.145 158.888 227.563 151.174 239.909C143.459 252.252 132.399 244.538 132.399 244.538C140.372 247.625 144.846 232.328 138.264 225.38C127.252 213.76 110.112 209.653 90.2376 226.45C75.5163 238.893 75.8337 261.333 86.7563 276.502C107.244 304.945 146.9 290.909 169.95 264.169C192.991 290.909 232.651 304.945 253.138 276.502C264.062 261.333 264.374 238.893 249.663 226.45ZM177.148 283.369C177.148 283.369 179.043 298.513 187.11 307.672L169.95 323.19L152.79 307.672C160.852 298.513 162.747 283.369 162.747 283.369L169.95 276.502L177.148 283.369Z" fill="#100F0D"/>
<path d="M249.193 293.453C241.639 298.745 232.717 301.497 222.777 301.497C211.739 301.497 199.928 297.971 188.784 291.669C190.02 295.161 191.764 298.841 194.111 301.505L200.195 308.418L169.947 335.77L139.699 308.418L145.785 301.505C148.129 298.841 149.875 295.161 151.111 291.669C139.965 297.971 128.156 301.497 117.117 301.497C107.179 301.497 98.2532 298.745 90.7012 293.453C88.7226 293.101 86.8333 292.538 85.0586 291.723C86.8346 304.169 105.947 322.833 129.059 318.833C129.059 318.833 124.168 337.057 141.947 341.057C154.084 343.789 167.043 364.338 169.947 387.286V387.297C169.947 387.294 169.947 387.294 169.947 387.292C169.947 387.294 169.948 387.294 169.948 387.297V387.286C172.852 364.338 185.809 343.789 197.948 341.057C215.725 337.057 210.837 318.833 210.837 318.833C233.948 322.833 253.059 304.169 254.837 291.723C253.061 292.538 251.171 293.101 249.193 293.453Z" fill="#E11D25"/>
<path d="M169.952 141.586C183.241 141.6 197.726 143.666 209.481 148.68L209.546 148.613L169.949 109.013L130.352 148.613L130.418 148.68C142.173 143.666 156.661 141.6 169.952 141.586Z" fill="#E11D25"/>
</svg>
