<svg width="339" height="474" viewBox="0 0 339 474" fill="none" xmlns="http://www.w3.org/2000/svg">
<path d="M23.0456 473.483C10.5456 473.483 0.378906 463.314 0.378906 450.817V23.286C0.378906 10.786 10.5456 0.619376 23.0456 0.619376H315.866C328.359 0.619376 338.532 10.786 338.532 23.286V450.817C338.532 463.314 328.359 473.483 315.866 473.483H23.0456Z" fill="#849393"/>
<path d="M315.867 3.28572H271.694L267.667 14.3737L263.294 3.28572H23.0469C12.0002 3.28572 3.04688 12.2391 3.04688 23.2857V450.816C3.04688 461.86 12.0002 470.816 23.0469 470.816H67.2802L71.2536 459.906L75.5469 470.816H315.867C326.907 470.816 335.867 461.86 335.867 450.816V23.2857C335.867 12.2391 326.907 3.28572 315.867 3.28572Z" fill="white"/>
<path d="M30.724 19.5184H59.16C59.48 19.5184 59.68 20.2131 59.7733 21.6024C59.7733 22.6784 59.7066 23.8664 59.5733 25.1664C59.7066 27.9451 59.7733 30.7704 59.7733 33.6384V33.8397C59.7733 34.065 59.64 34.1757 59.36 34.1757H58.6267C53.96 32.3384 51.32 31.2171 50.6934 30.8131V25.301C50.6934 24.7184 50.5067 24.3824 50.16 24.2917H41.3466C40.1813 24.2917 39.5307 24.8744 39.3974 26.0397V36.9997C39.3974 37.8971 40.2027 38.4784 41.8173 38.7477H55.8C58.3067 40.0477 59.5733 41.3024 59.5733 42.5131H59.7733C59.8533 45.4718 59.9066 47.825 59.9066 49.573V53.1357C59.9066 55.2437 59.8533 58.2464 59.7733 62.1451C58.92 64.6117 57.2533 65.8438 54.8 65.8438H36.5733C32.448 65.8438 30.3867 63.9611 30.3867 60.1944V52.5984C30.4307 52.3291 30.544 52.1944 30.724 52.1944H42.0201C42.2441 52.2397 42.356 52.3744 42.356 52.5984C41.1893 52.8664 40.2481 53.3384 39.5307 54.0104C39.5307 54.6824 39.4854 55.6237 39.3974 56.8331C39.3974 59.6584 39.8666 61.0704 40.8079 61.0704H48.4C49.9333 61.0704 50.6934 60.4197 50.6934 59.1197V46.0091C50.6934 44.3517 49.8667 43.5211 48.2 43.5211H36.7066C32.4933 43.5211 30.3867 41.8171 30.3867 38.4117V19.8544C30.4307 19.6304 30.544 19.5184 30.724 19.5184Z" fill="#100F0D"/>
<path d="M308.189 454.762H279.749C279.442 454.762 279.229 454.067 279.149 452.678C279.149 451.602 279.216 450.414 279.349 449.114C279.216 446.335 279.149 443.51 279.149 440.642V440.44C279.149 440.215 279.282 440.104 279.549 440.104H280.282C284.949 441.942 287.589 443.063 288.216 443.467V448.979C288.216 449.562 288.402 449.898 288.762 449.988H297.562C298.736 449.988 299.389 449.406 299.522 448.24V437.28C299.522 436.383 298.709 435.802 297.096 435.532H283.109C280.602 434.232 279.349 432.978 279.349 431.767H279.149C279.056 428.808 279.016 426.455 279.016 424.707V421.144C279.016 419.036 279.056 416.034 279.149 412.135C280.002 409.668 281.656 408.436 284.122 408.436H302.336C306.469 408.436 308.522 410.319 308.522 414.084V421.682C308.482 421.951 308.376 422.084 308.189 422.084H296.896C296.669 422.04 296.562 421.906 296.562 421.682C297.722 421.414 298.669 420.942 299.389 420.27C299.389 419.598 299.429 418.656 299.522 417.447C299.522 414.622 299.042 413.21 298.109 413.21H290.509C288.989 413.21 288.216 413.86 288.216 415.16V428.271C288.216 429.928 289.056 430.759 290.709 430.759H302.202C306.416 430.759 308.522 432.463 308.522 435.868V454.426C308.482 454.65 308.376 454.762 308.189 454.762Z" fill="#100F0D"/>
<path d="M72.868 104.005C66.0814 98.2783 60.2413 99.6796 56.4813 103.64C54.2413 106.01 55.7747 111.224 58.4813 110.172C58.4813 110.172 54.7213 112.802 52.0813 108.593C49.4547 104.385 51.6013 102.88 55.2413 100.002C73.5747 85.5103 59.628 78.2597 45.6813 78.257C31.736 78.2597 17.7921 85.5103 36.1281 100.002C39.7694 102.88 41.9147 104.385 39.2841 108.593C36.6534 112.802 32.8827 110.172 32.8827 110.172C35.6014 111.224 37.1267 106.01 34.8827 103.64C31.1294 99.6796 25.2853 98.2783 18.5093 104.005C13.4906 108.248 13.5987 115.898 17.3227 121.069C24.3067 130.765 37.8266 125.98 45.6813 116.864C53.548 125.98 67.0547 130.765 74.0413 121.069C77.7747 115.898 77.8814 108.248 72.868 104.005ZM48.1347 123.412C48.1347 123.412 48.788 128.573 51.5347 131.694L45.6813 136.986L39.8347 131.694C42.584 128.573 43.2294 123.412 43.2294 123.412L45.6813 121.069L48.1347 123.412Z" fill="#100F0D"/>
<path d="M266.053 370.275C272.826 376.002 278.666 374.601 282.426 370.639C284.666 368.27 283.146 363.057 280.426 364.109C280.426 364.109 284.199 361.478 286.826 365.687C289.453 369.895 287.306 371.401 283.666 374.278C265.333 388.77 279.279 396.021 293.226 396.023C307.173 396.021 321.119 388.77 302.786 374.278C299.146 371.401 296.999 369.895 299.626 365.687C302.253 361.478 306.026 364.109 306.026 364.109C303.306 363.057 301.786 368.27 304.026 370.639C307.786 374.601 313.626 376.002 320.399 370.275C325.426 366.033 325.319 358.382 321.586 353.211C314.599 343.515 301.079 348.301 293.226 357.417C285.373 348.301 271.853 343.515 264.866 353.211C261.146 358.382 261.039 366.033 266.053 370.275ZM290.773 350.869C290.773 350.869 290.119 345.707 287.373 342.585L293.226 337.294L299.079 342.585C296.333 345.707 295.679 350.869 295.679 350.869L293.226 353.211L290.773 350.869Z" fill="#100F0D"/>
<path d="M249.174 226.532C229.294 209.732 212.147 213.846 201.147 225.465C194.56 232.411 199.027 247.707 207.014 244.622C207.014 244.622 195.947 252.337 188.227 239.993C180.521 227.645 186.814 223.23 197.494 214.788C251.281 172.283 210.374 151.018 169.454 151.01C128.547 151.018 87.6405 172.283 141.427 214.788C152.107 223.23 158.4 227.645 150.68 239.993C142.974 252.337 131.907 244.622 131.907 244.622C139.88 247.707 144.36 232.411 137.774 225.465C126.76 213.846 109.627 209.732 89.7471 226.532C75.0271 238.976 75.3471 261.417 86.2671 276.585C106.76 305.027 146.414 290.992 169.454 264.252C192.507 290.992 232.161 305.027 252.654 276.585C263.574 261.417 263.88 238.976 249.174 226.532ZM176.654 283.452C176.654 283.452 178.56 298.596 186.614 307.755L169.454 323.272L152.294 307.755C160.361 298.596 162.254 283.452 162.254 283.452L169.454 276.585L176.654 283.452Z" fill="#100F0D"/>
</svg>
