<svg width="339" height="473" viewBox="0 0 339 473" fill="none" xmlns="http://www.w3.org/2000/svg">
<path d="M22.8653 472.914C10.3659 472.914 0.199219 462.745 0.199219 450.247V22.7208C0.199219 10.2141 10.3659 0.0541297 22.8653 0.0541297H315.687C328.184 0.0541297 338.353 10.2141 338.353 22.7208V450.247C338.353 462.745 328.184 472.914 315.687 472.914H22.8653Z" fill="#849393"/>
<path d="M22.8666 470.247C11.8386 470.247 2.86719 461.275 2.86719 450.247V22.7205C2.86719 11.6805 11.8386 2.72047 22.8666 2.72047H315.688C326.716 2.72047 335.688 11.6805 335.688 22.7205V450.247C335.688 461.275 326.716 470.247 315.688 470.247H22.8666Z" fill="white"/>
<path d="M29.5312 443.58V29.3868H309.019V443.58H29.5312Z" fill="#E11D25"/>
<path d="M30.8659 442.247H307.687V30.7209H30.8659V442.247ZM310.354 444.914H28.1992V28.0542H310.354V444.914Z" fill="#100F0D"/>
<path d="M176.106 236.569L169.274 220.88L162.442 236.569L169.274 252.257L176.106 236.569ZM309.019 370.905C302.209 356.539 287.175 331.233 288.61 316.904C290.769 295.321 300.61 300.126 300.61 300.126C298.61 286.571 283.943 269.459 283.943 269.459C290.165 265.682 301.721 252.348 302.831 246.348C303.942 240.348 293.943 239.46 293.943 239.46C293.943 239.46 293.943 239.46 292.387 241.904C290.831 244.349 278.733 254.571 278.733 254.571C279.079 250.349 275.943 245.459 275.277 244.792C274.61 244.126 269.721 248.126 269.721 248.126C256.631 238.152 225.942 239.616 209.498 241.015C186.425 242.976 188.605 255.956 193.498 256.348C199.053 256.792 205.943 254.571 231.054 247.904C256.165 241.237 266.165 251.904 266.165 251.904C266.165 251.904 247.721 251.682 231.721 257.459C215.721 263.238 206.777 276.738 207.054 279.459C207.917 277.636 266.502 242.891 277.054 283.237C280.831 297.683 277.054 308.571 277.054 308.571C276.831 297.904 269.721 282.571 258.165 278.571C246.609 274.571 233.277 278.571 222.61 288.792C209.079 301.759 184.91 300.503 179.721 262.792C179.721 275.682 185.943 306.792 185.943 306.792C179.721 308.126 178.622 317.237 178.622 317.237C178.622 317.237 182.61 312.792 188.831 315.459C195.055 318.126 195.943 327.682 191.277 331.459C186.61 335.238 177.498 334.126 173.721 328.126C169.943 322.126 172.165 305.459 172.165 305.459C172.165 305.459 176.387 300.792 175.99 298.348C175.753 296.891 172.147 289.428 169.274 283.64C166.401 289.428 162.795 296.891 162.558 298.348C162.161 300.792 166.383 305.459 166.383 305.459C166.383 305.459 168.605 322.126 164.827 328.126C161.05 334.126 151.939 335.238 147.273 331.459C142.606 327.682 143.494 318.126 149.717 315.459C155.939 312.792 159.926 317.237 159.926 317.237C159.926 317.237 158.827 308.126 152.606 306.792C152.606 306.792 158.827 275.682 158.827 262.792C153.639 300.503 129.47 301.759 115.939 288.792C105.273 278.571 91.9392 274.571 80.3832 278.571C68.8272 282.571 61.7166 297.904 61.4939 308.571C61.4939 308.571 57.7166 297.683 61.4939 283.237C72.0459 242.891 130.631 277.636 131.494 279.459C131.773 276.738 122.827 263.238 106.827 257.459C90.8272 251.682 72.3833 251.904 72.3833 251.904C72.3833 251.904 82.3832 241.237 107.494 247.904C132.606 254.571 139.495 256.792 145.05 256.348C149.945 255.956 152.125 242.976 129.05 241.015C112.606 239.616 81.9166 238.152 68.8272 248.126C68.8272 248.126 63.9393 244.126 63.2726 244.792C62.6059 245.459 59.4699 250.349 59.8152 254.571C59.8152 254.571 47.7166 244.349 46.1606 241.904C44.6059 239.46 44.6059 239.46 44.6059 239.46C44.6059 239.46 34.6059 240.348 35.7166 246.348C36.8273 252.348 48.3833 265.682 54.6059 269.459C54.6059 269.459 39.9393 286.571 37.9393 300.126C37.9393 300.126 47.7793 295.321 49.9393 316.904C51.3726 331.232 36.3419 356.533 29.5312 370.901V102.24C36.3419 116.6 51.3726 141.907 49.9393 156.24C47.7793 177.813 37.9393 173.013 37.9393 173.013C39.9393 186.573 54.6059 203.68 54.6059 203.68C48.3833 207.453 36.8273 220.787 35.7166 226.791C34.6059 232.791 44.6059 233.68 44.6059 233.68C44.6059 233.68 44.6059 233.68 46.1606 231.235C47.7166 228.789 59.8152 218.573 59.8152 218.573C59.4699 222.789 62.6059 227.68 63.2726 228.347C63.9393 229.013 68.8272 225.013 68.8272 225.013C81.9166 234.984 112.606 233.524 129.05 232.124C152.125 230.161 149.945 217.187 145.05 216.787C139.495 216.347 132.606 218.573 107.494 225.235C82.3832 231.901 72.3833 221.24 72.3833 221.24C72.3833 221.24 90.8272 221.453 106.827 215.68C122.827 209.907 131.773 196.4 131.494 193.68C130.631 195.507 72.0459 230.248 61.4939 189.907C57.7166 175.453 61.4939 164.573 61.4939 164.573C61.7166 175.24 68.8272 190.573 80.3832 194.573C91.9392 198.573 105.273 194.573 115.939 184.347C129.47 171.373 153.639 172.64 158.827 210.347C158.827 197.453 152.606 166.347 152.606 166.347C158.827 165.013 159.926 155.907 159.926 155.907C159.926 155.907 155.939 160.347 149.717 157.68C143.494 155.013 142.606 145.453 147.273 141.68C151.939 137.907 161.05 139.013 164.827 145.013C168.605 151.013 166.383 167.68 166.383 167.68C166.383 167.68 162.161 172.347 162.558 174.787C162.795 176.254 166.401 183.707 169.274 189.493C172.147 183.707 175.753 176.254 175.99 174.787C176.387 172.347 172.165 167.68 172.165 167.68C172.165 167.68 169.943 151.013 173.721 145.013C177.498 139.013 186.61 137.907 191.277 141.68C195.943 145.453 195.055 155.013 188.831 157.68C182.61 160.347 178.622 155.907 178.622 155.907C178.622 155.907 179.721 165.013 185.943 166.347C185.943 166.347 179.721 197.453 179.721 210.347C184.91 172.64 209.079 171.373 222.61 184.347C233.277 194.573 246.609 198.573 258.165 194.573C269.721 190.573 276.831 175.24 277.054 164.573C277.054 164.573 280.831 175.453 277.054 189.907C266.502 230.248 207.917 195.507 207.054 193.68C206.777 196.4 215.721 209.907 231.721 215.68C247.721 221.453 266.165 221.24 266.165 221.24C266.165 221.24 256.165 231.901 231.054 225.235C205.943 218.573 199.053 216.347 193.498 216.787C188.605 217.187 186.425 230.161 209.498 232.124C225.942 233.524 256.631 234.984 269.721 225.013C269.721 225.013 274.61 229.013 275.277 228.347C275.943 227.68 279.079 222.789 278.733 218.573C278.733 218.573 290.831 228.789 292.387 231.235C293.943 233.68 293.943 233.68 293.943 233.68C293.943 233.68 303.942 232.791 302.831 226.791C301.721 220.787 290.165 207.453 283.943 203.68C283.943 203.68 298.61 186.573 300.61 173.013C300.61 173.013 290.769 177.813 288.61 156.24C287.175 141.907 302.209 116.6 309.019 102.227V370.905ZM289.721 37.6801C277.498 33.6801 265.277 39.0134 249.054 43.0134C232.831 47.0134 216.61 37.6801 216.61 37.6801C228.165 54.3467 240.61 57.4534 256.165 52.3467C271.719 47.24 279.943 49.24 288.165 62.3467C297.871 77.8267 296.165 110.12 296.165 110.12C310.831 85.9068 301.943 41.6801 289.721 37.6801ZM152.635 63.9334C146.302 63.5068 139.746 70.3334 137.581 79.9467C135.269 90.1867 138.829 99.7201 145.533 101.24C152.237 102.747 159.543 95.6667 161.855 85.4134C163.485 78.1867 162.187 71.3335 158.935 67.3868C153.714 66.5868 148.231 70.8534 145.086 77.6801C145.129 77.4801 145.157 77.2801 145.202 77.0668C146.475 71.4268 149.267 66.7601 152.635 63.9334ZM284.413 102.6C278.785 61.8801 236.522 41.4935 226.517 86.1202C223.962 97.5202 227.721 133.454 246.831 134.12C255.173 134.414 261.943 125.613 261.943 115.107C261.943 104.613 255.178 96.0935 246.831 96.0935C244.446 96.0935 242.198 96.8135 240.191 98.0535C240.095 96.1868 240.203 93.3867 240.863 89.2401C242.451 79.2401 249.721 69.2402 260.201 78.1202C270.683 87.0135 280.387 121.013 268.831 150.347C259.49 174.053 247.517 180.08 242.165 181.453C280.511 173.667 288.126 129.467 284.413 102.6ZM75.2726 33.9067C88.8286 38.5734 103.273 38.7867 117.202 33.6401C128.937 29.3067 140.162 34.5734 140.162 34.5734C140.162 34.5734 119.273 45.9068 115.939 68.7868C112.606 91.6802 121.921 108.373 132.587 113.933C132.587 113.933 115.273 121.907 121.05 133.907C126.827 145.907 145.495 138.12 151.05 125.24C151.05 125.24 140.606 131.68 135.495 131.24C130.383 130.787 128.162 125.907 133.05 121.013C137.939 116.12 141.717 115.24 141.717 115.24C141.717 115.24 128.829 102.573 125.05 90.3467C121.273 78.1201 123.05 57.0134 135.273 47.0134C146.133 38.1334 160.321 37.3335 169.274 53.0001C178.227 37.3335 192.415 38.1334 203.277 47.0134C215.498 57.0134 217.277 78.1201 213.498 90.3467C209.719 102.573 196.831 115.24 196.831 115.24C196.831 115.24 200.61 116.12 205.498 121.013C210.386 125.907 208.165 130.787 203.053 131.24C197.942 131.68 187.498 125.24 187.498 125.24C193.053 138.12 211.721 145.907 217.498 133.907C223.275 121.907 205.962 113.933 205.962 113.933C216.629 108.373 225.943 91.6802 222.61 68.7868C219.277 45.9068 198.386 34.5734 198.386 34.5734C198.386 34.5734 209.611 29.3067 221.347 33.6401C235.277 38.7867 249.719 38.5734 263.277 33.9067C266.359 32.8401 269.418 31.2135 272.266 29.3868H66.2832C69.1312 31.2135 72.1899 32.8401 75.2726 33.9067ZM50.3833 62.3467C58.6059 49.24 66.8286 47.24 82.3832 52.3467C97.9392 57.4534 110.383 54.3467 121.939 37.6801C121.939 37.6801 105.717 47.0134 89.4939 43.0134C73.2726 39.0134 61.0499 33.6801 48.8272 37.6801C36.6059 41.6801 27.7166 85.9068 42.3833 110.12C42.3833 110.12 40.6766 77.8267 50.3833 62.3467ZM114.939 169.907C128.773 163.907 145.717 171.84 145.717 171.84C143.273 162.453 125.17 146.24 107.273 149.013C85.7166 152.347 78.3472 135.24 78.3472 135.24C79.1979 175.013 104.101 174.6 114.939 169.907ZM161.494 129.68C162.606 129.907 165.05 126.12 169.273 125.68H169.274H169.277C173.498 126.12 175.943 129.907 177.054 129.68C178.165 129.453 179.943 125.907 177.054 118.787C175.345 114.587 171.847 106.72 169.274 101C166.701 106.72 163.203 114.587 161.494 118.787C158.606 125.907 160.383 129.453 161.494 129.68ZM193.017 101.24C199.719 99.7201 203.279 90.1867 200.97 79.9467C198.803 70.3334 192.247 63.5068 185.914 63.9334C189.282 66.7601 192.074 71.4268 193.346 77.0668C193.391 77.2801 193.419 77.4801 193.462 77.6801C190.317 70.8534 184.834 66.5868 179.613 67.3868C176.362 71.3335 175.063 78.1867 176.693 85.4134C179.005 95.6667 186.313 102.747 193.017 101.24ZM91.7166 96.0935C83.3713 96.0935 76.6059 104.613 76.6059 115.107C76.6059 125.613 83.3766 134.414 91.7166 134.12C110.827 133.454 114.587 97.5202 112.031 86.1202C102.026 41.4935 59.7646 61.8801 54.1366 102.6C50.4233 129.467 58.0366 173.667 96.3832 181.453C91.0312 180.08 79.0579 174.053 69.7166 150.347C58.1606 121.013 67.8646 87.0135 78.3472 78.1202C88.8272 69.2402 96.0966 79.2401 97.6846 89.2401C98.3446 93.3867 98.4526 96.1868 98.3579 98.0535C96.3512 96.8135 94.1019 96.0935 91.7166 96.0935ZM231.277 149.013C213.378 146.24 195.277 162.453 192.831 171.84C192.831 171.84 209.777 163.907 223.61 169.907C234.447 174.6 259.35 175.013 260.201 135.24C260.201 135.24 252.831 152.347 231.277 149.013ZM263.277 439.237C249.719 434.571 235.277 434.348 221.347 439.492C209.611 443.826 198.386 438.571 198.386 438.571C198.386 438.571 219.277 427.237 222.61 404.349C225.943 381.459 216.629 364.763 205.962 359.207C205.962 359.207 223.275 351.237 217.498 339.237C211.721 327.237 193.053 335.016 187.498 347.904C187.498 347.904 197.942 341.459 203.053 341.904C208.165 342.349 210.386 347.238 205.498 352.126C200.61 357.016 196.831 357.904 196.831 357.904C196.831 357.904 209.719 370.571 213.498 382.792C217.277 395.016 215.498 416.126 203.277 426.126C192.415 435.011 178.227 435.809 169.274 420.139C160.321 435.809 146.133 435.011 135.273 426.126C123.05 416.126 121.273 395.016 125.05 382.792C128.829 370.571 141.717 357.904 141.717 357.904C141.717 357.904 137.939 357.016 133.05 352.126C128.162 347.238 130.383 342.349 135.495 341.904C140.606 341.459 151.05 347.904 151.05 347.904C145.495 335.016 126.827 327.237 121.05 339.237C115.273 351.237 132.587 359.207 132.587 359.207C121.921 364.763 112.606 381.459 115.939 404.349C119.273 427.237 140.162 438.571 140.162 438.571C140.162 438.571 128.937 443.826 117.202 439.492C103.273 434.348 88.8286 434.571 75.2726 439.237C72.2873 440.264 69.3206 441.821 66.5513 443.58H271.997C269.227 441.821 266.261 440.264 263.277 439.237ZM48.8272 435.459C61.0499 439.459 73.2726 434.126 89.4939 430.126C105.717 426.126 121.939 435.459 121.939 435.459C110.383 418.792 97.9392 415.682 82.3832 420.792C66.8286 425.904 58.6059 423.904 50.3833 410.792C40.6766 395.312 42.3833 363.015 42.3833 363.015C27.7166 387.238 36.6059 431.459 48.8272 435.459ZM185.914 409.2C192.247 409.625 198.803 402.803 200.97 393.196C203.279 382.948 199.719 373.415 193.017 371.903C186.313 370.391 179.005 377.472 176.693 387.721C175.063 394.947 176.362 401.803 179.613 405.757C184.834 406.552 190.317 402.284 193.462 395.461C193.419 395.664 193.391 395.863 193.346 396.067C192.074 401.711 189.282 406.383 185.914 409.2ZM54.1366 370.539C59.7646 411.256 102.026 431.651 112.031 387.015C114.587 375.612 110.827 339.682 91.7166 339.015C83.3766 338.724 76.6059 347.527 76.6059 358.027C76.6059 368.527 83.3713 377.039 91.7166 377.039C94.1019 377.039 96.3512 376.324 98.3579 375.085C98.4526 376.949 98.3446 379.745 97.6846 383.904C96.0966 393.904 88.8272 403.904 78.3472 395.015C67.8646 386.126 58.1606 352.126 69.7166 322.792C79.0579 299.082 91.0312 293.053 96.3832 291.683C58.0366 299.468 50.4233 343.675 54.1366 370.539ZM107.273 324.126C125.17 326.894 143.273 310.679 145.717 301.292C145.717 301.292 128.773 309.237 114.939 303.237C104.101 298.536 79.1979 298.127 78.3472 337.904C78.3472 337.904 85.7166 320.792 107.273 324.126ZM177.054 343.459C175.943 343.238 173.498 347.015 169.277 347.459H169.274H169.273C165.05 347.015 162.606 343.238 161.494 343.459C160.383 343.682 158.606 347.238 161.494 354.348C163.203 358.555 166.701 366.417 169.274 372.139C171.847 366.417 175.345 358.555 177.054 354.348C179.943 347.238 178.165 343.682 177.054 343.459ZM223.61 303.237C209.777 309.237 192.831 301.292 192.831 301.292C195.277 310.679 213.378 326.894 231.277 324.126C252.831 320.792 260.201 337.904 260.201 337.904C259.35 298.127 234.447 298.536 223.61 303.237ZM145.533 371.903C138.829 373.415 135.269 382.948 137.581 393.196C139.746 402.803 146.302 409.625 152.635 409.2C149.267 406.383 146.475 401.711 145.202 396.067C145.157 395.863 145.129 395.664 145.086 395.461C148.231 402.284 153.714 406.552 158.935 405.757C162.187 401.803 163.485 394.947 161.855 387.721C159.543 377.472 152.237 370.391 145.533 371.903ZM288.165 410.792C279.943 423.904 271.719 425.904 256.165 420.792C240.61 415.682 228.165 418.792 216.61 435.459C216.61 435.459 232.831 426.126 249.054 430.126C265.277 434.126 277.498 439.459 289.721 435.459C301.943 431.459 310.831 387.238 296.165 363.015C296.165 363.015 297.871 395.312 288.165 410.792ZM240.191 375.085C240.095 376.949 240.203 379.745 240.863 383.904C242.451 393.904 249.721 403.904 260.201 395.015C270.683 386.126 280.387 352.126 268.831 322.792C259.49 299.082 247.517 293.053 242.165 291.683C280.511 299.468 288.126 343.675 284.413 370.539C278.785 411.256 236.522 431.651 226.517 387.015C223.962 375.612 227.721 339.682 246.831 339.015C255.173 338.724 261.943 347.527 261.943 358.027C261.943 368.527 255.178 377.039 246.831 377.039C244.446 377.039 242.198 376.324 240.191 375.085Z" fill="#100F0D"/>
</svg>
