<svg width="339" height="474" viewBox="0 0 339 474" fill="none" xmlns="http://www.w3.org/2000/svg">
<path d="M23.0534 473.76C10.5467 473.76 0.386719 463.586 0.386719 451.093V23.5586C0.386719 11.0613 10.5467 0.891923 23.0534 0.891923H315.867C328.36 0.891923 338.533 11.0613 338.533 23.5586V451.093C338.533 463.586 328.36 473.76 315.867 473.76H23.0534Z" fill="#849393"/>
<path d="M23.0508 471.094C12.0108 471.094 3.05078 462.12 3.05078 451.094V23.5592C3.05078 12.5312 12.0108 3.55919 23.0508 3.55919H315.864C326.891 3.55919 335.864 12.5312 335.864 23.5592V451.094C335.864 462.12 326.891 471.094 315.864 471.094H23.0508Z" fill="white"/>
<path d="M31.0534 443.093H307.867V31.5586H31.0534V443.093ZM310.533 445.76H28.3867V28.8919H310.533V445.76Z" fill="#E11D25"/>
<path d="M256.345 214.627C240.785 209.516 228.345 212.627 216.785 229.293C216.785 229.293 233.012 219.96 249.238 223.96C265.452 227.96 277.678 233.293 289.905 229.293C302.118 225.293 311.012 181.072 296.345 156.849C296.345 156.849 298.052 189.147 288.345 204.627C280.118 217.739 271.892 219.739 256.345 214.627Z" fill="#E11D25"/>
<path d="M231.452 357.041C213.558 354.281 195.452 370.494 193.012 379.881C193.012 379.881 209.958 371.934 223.785 377.934C234.625 382.641 259.532 383.041 260.385 343.267C260.385 343.267 253.012 360.374 231.452 357.041Z" fill="#E11D25"/>
<path d="M145.717 165.738C139.01 167.25 135.45 176.783 137.757 187.031C139.917 196.638 146.477 203.46 152.81 203.035C149.45 200.218 146.65 195.546 145.384 189.902C145.33 189.698 145.304 189.499 145.264 189.296C148.41 196.119 153.89 200.387 159.117 199.592C162.37 195.638 163.664 188.782 162.037 181.556C159.717 171.307 152.41 164.226 145.717 165.738Z" fill="#E11D25"/>
<path d="M284.587 310.626C278.961 269.919 236.707 249.52 226.694 294.159C224.147 305.559 227.907 341.492 247.014 342.159C255.347 342.452 262.121 333.639 262.121 323.146C262.121 312.639 255.36 304.132 247.014 304.132C244.627 304.132 242.374 304.839 240.374 306.079C240.28 304.226 240.387 301.426 241.04 297.266C242.627 287.266 249.907 277.266 260.387 286.159C270.867 295.052 280.574 329.039 269.014 358.372C259.667 382.092 247.694 388.119 242.347 389.492C280.694 381.706 288.307 337.492 284.587 310.626Z" fill="#E11D25"/>
<path d="M289.905 245.711C277.678 241.711 265.452 247.044 249.238 251.044C233.012 255.04 216.785 245.711 216.785 245.711C228.345 262.374 240.785 265.494 256.345 260.374C271.892 255.267 280.118 257.267 288.345 270.374C298.052 285.854 296.345 318.16 296.345 318.16C311.012 293.933 302.118 249.711 289.905 245.711Z" fill="#E11D25"/>
<path d="M121.225 133.072C115.452 145.072 132.771 153.041 132.771 153.041C122.105 158.597 112.785 175.293 116.118 198.184C119.452 221.072 140.345 232.405 140.345 232.405C140.345 232.405 129.118 237.66 117.385 233.326C103.452 228.182 89.0116 228.405 75.4516 233.072C72.4649 234.098 69.5048 235.656 66.7315 237.414H66.4648C69.3048 239.242 72.3716 240.872 75.4516 241.934C89.0116 246.601 103.452 246.822 117.385 241.68C129.118 237.345 140.345 242.601 140.345 242.601C140.345 242.601 119.452 253.933 116.118 276.826C112.785 299.706 122.105 316.413 132.771 321.96C132.771 321.96 115.452 329.933 121.225 341.933C127.012 353.933 145.678 346.16 151.225 333.266C151.225 333.266 140.785 339.706 135.678 339.266C130.558 338.826 128.345 333.933 133.225 329.04C138.118 324.16 141.892 323.266 141.892 323.266C141.892 323.266 129.012 310.6 125.225 298.373C121.452 286.16 123.225 265.04 135.452 255.04C146.305 246.161 160.505 245.36 169.452 261.026C178.412 245.36 192.598 246.161 203.452 255.04C215.678 265.04 217.451 286.16 213.678 298.373C209.891 310.6 197.011 323.266 197.011 323.266C197.011 323.266 200.785 324.16 205.678 329.04C210.558 333.933 208.345 338.826 203.225 339.266C198.118 339.706 187.678 333.266 187.678 333.266C193.225 346.16 211.905 353.933 217.678 341.933C223.451 329.933 206.145 321.96 206.145 321.96C216.811 316.413 226.118 299.706 222.785 276.826C219.452 253.933 198.558 242.601 198.558 242.601C198.558 242.601 209.785 237.345 221.532 241.68C235.452 246.822 249.892 246.601 263.452 241.934C266.545 240.872 269.598 239.242 272.438 237.414H272.171C269.411 235.656 266.438 234.098 263.452 233.072C249.892 228.405 235.452 228.182 221.532 233.326C209.785 237.66 198.558 232.405 198.558 232.405C198.558 232.405 219.452 221.072 222.785 198.184C226.118 175.293 216.811 158.597 206.145 153.041C206.145 153.041 223.451 145.072 217.678 133.072C211.905 121.072 193.225 128.85 187.678 141.738C187.678 141.738 198.118 135.293 203.225 135.738C208.345 136.184 210.558 141.072 205.678 145.96C200.785 150.85 197.011 151.738 197.011 151.738C197.011 151.738 209.891 164.405 213.678 176.626C217.451 188.85 215.678 209.96 203.452 219.96C192.598 228.845 178.412 229.644 169.452 213.973C160.505 229.644 146.305 228.845 135.452 219.96C123.225 209.96 121.452 188.85 125.225 176.626C129.012 164.405 141.892 151.738 141.892 151.738C141.892 151.738 138.118 150.85 133.225 145.96C128.345 141.072 130.558 136.184 135.678 135.738C140.785 135.293 151.225 141.738 151.225 141.738C145.678 128.85 127.012 121.072 121.225 133.072Z" fill="#E11D25"/>
<path d="M49.0114 229.293C61.2247 233.293 73.4514 227.96 89.6781 223.96C105.891 219.96 122.118 229.293 122.118 229.293C110.558 212.627 98.1182 209.516 82.5582 214.627C67.0115 219.739 58.7848 217.739 50.5582 204.627C40.8515 189.147 42.5582 156.849 42.5582 156.849C27.8915 181.072 36.7848 225.293 49.0114 229.293Z" fill="#E11D25"/>
<path d="M309.199 310.266C302.385 324.626 287.359 349.933 288.785 364.266C290.945 385.852 300.785 381.039 300.785 381.039C298.785 394.599 284.119 411.706 284.119 411.706C290.345 415.492 301.905 428.826 303.012 434.826C304.119 440.826 294.119 441.706 294.119 441.706C294.119 441.706 294.119 441.706 292.572 439.266C291.012 436.826 278.905 426.599 278.905 426.599C279.252 430.826 276.119 435.706 275.452 436.373C274.785 437.039 269.905 433.039 269.905 433.039C256.812 443.012 226.119 441.559 209.679 440.159C186.599 438.186 188.785 425.213 193.679 424.826C199.225 424.386 206.119 426.599 231.239 433.266C256.345 439.933 266.345 429.266 266.345 429.266C266.345 429.266 247.905 429.492 231.905 423.706C215.905 417.933 206.959 404.439 207.239 401.706C208.092 403.533 266.679 438.279 277.239 397.933C281.012 383.493 277.239 372.599 277.239 372.599C277.012 383.266 269.905 398.599 258.345 402.599C246.785 406.599 233.452 402.599 222.785 392.373C209.252 379.413 185.092 380.666 179.905 418.373C179.905 405.492 186.119 374.373 186.119 374.373C179.905 373.039 178.799 363.933 178.799 363.933C178.799 363.933 182.785 368.373 189.012 365.706C195.239 363.039 196.119 353.493 191.452 349.706C186.785 345.933 177.679 347.039 173.905 353.039C170.119 359.039 172.345 375.706 172.345 375.706C172.345 375.706 176.572 380.373 176.172 382.826C175.932 384.279 172.332 391.746 169.452 397.533C166.585 391.746 162.972 384.279 162.732 382.826C162.345 380.373 166.559 375.706 166.559 375.706C166.559 375.706 168.785 359.039 165.012 353.039C161.225 347.039 152.119 345.933 147.452 349.706C142.785 353.493 143.679 363.039 149.892 365.706C156.119 368.373 160.105 363.933 160.105 363.933C160.105 363.933 159.012 373.039 152.785 374.373C152.785 374.373 159.012 405.492 159.012 418.373C153.825 380.666 129.652 379.413 116.119 392.373C105.452 402.599 92.1187 406.599 80.5587 402.599C69.0121 398.599 61.892 383.266 61.6786 372.599C61.6786 372.599 57.892 383.493 61.6786 397.933C72.2253 438.279 130.812 403.533 131.679 401.706C131.945 404.439 123.012 417.933 107.012 423.706C91.012 429.492 72.5587 429.266 72.5587 429.266C72.5587 429.266 82.5586 439.933 107.679 433.266C132.785 426.599 139.679 424.386 145.225 424.826C150.119 425.213 152.305 438.186 129.225 440.159C112.785 441.559 82.092 443.012 69.012 433.039C69.012 433.039 64.1187 437.039 63.4521 436.373C62.7854 435.706 59.652 430.826 59.9987 426.599C59.9987 426.599 47.892 436.826 46.3453 439.266C44.7853 441.706 44.7854 441.706 44.7854 441.706C44.7854 441.706 34.7854 440.826 35.8921 434.826C37.0121 428.826 48.5587 415.492 54.7854 411.706C54.7854 411.706 40.1187 394.599 38.1187 381.039C38.1187 381.039 47.9587 385.852 50.1187 364.266C51.5587 349.946 36.5187 324.639 29.7188 310.266V444.426H162.692L169.452 428.919L176.212 444.426H309.199V310.266Z" fill="#E11D25"/>
<path d="M177.238 137.293C176.118 137.072 173.678 140.849 169.451 141.293C165.225 140.849 162.785 137.072 161.678 137.293C160.558 137.516 158.785 141.072 161.678 148.182C163.385 152.389 166.878 160.252 169.451 165.972C172.025 160.252 175.518 152.389 177.238 148.182C180.118 141.072 178.345 137.516 177.238 137.293Z" fill="#E11D25"/>
<path d="M186.093 203.035C192.427 203.46 198.987 196.638 201.147 187.031C203.453 176.783 199.893 167.25 193.2 165.738C186.493 164.226 179.187 171.307 176.88 181.556C175.24 188.782 176.547 195.638 179.787 199.592C185.013 200.387 190.493 196.119 193.64 189.296C193.6 189.499 193.573 189.698 193.52 189.902C192.253 195.546 189.467 200.218 186.093 203.035Z" fill="#E11D25"/>
<path d="M115.118 377.934C128.945 371.934 145.891 379.881 145.891 379.881C143.451 370.494 125.345 354.281 107.451 357.041C85.8913 360.374 78.5312 343.267 78.5312 343.267C79.3712 383.041 104.278 382.641 115.118 377.934Z" fill="#E11D25"/>
<path d="M54.3169 164.373C59.9436 205.09 102.21 225.485 112.21 180.849C114.77 169.446 111.01 133.516 91.8902 132.849C83.5569 132.558 76.7836 141.361 76.7836 151.861C76.7836 162.361 83.5435 170.873 91.8902 170.873C94.2769 170.873 96.5302 170.158 98.5302 168.92C98.6235 170.784 98.5168 173.58 97.8635 177.738C96.2768 187.738 89.0102 197.738 78.5302 188.849C68.0368 179.96 58.3435 145.96 69.8902 116.626C79.2369 92.9155 91.2102 86.8875 96.5569 85.5169C58.2102 93.3022 50.5969 137.509 54.3169 164.373Z" fill="#E11D25"/>
<path d="M115.118 97.0716C104.278 92.3703 79.3712 91.961 78.5312 131.738C78.5312 131.738 85.8913 114.626 107.451 117.96C125.345 120.728 143.451 104.513 145.891 95.1263C145.891 95.1263 128.945 103.072 115.118 97.0716Z" fill="#E11D25"/>
<path d="M91.8902 304.132C83.5435 304.132 76.7836 312.639 76.7836 323.146C76.7836 333.639 83.5569 342.452 91.8902 342.159C111.01 341.492 114.77 305.559 112.21 294.159C102.21 249.52 59.9436 269.919 54.3169 310.626C50.5969 337.492 58.2102 381.706 96.5569 389.492C91.2102 388.119 79.2369 382.092 69.8902 358.372C58.3435 329.039 68.0368 295.052 78.5302 286.159C89.0102 277.266 96.2768 287.266 97.8635 297.266C98.5168 301.426 98.6235 304.226 98.5302 306.079C96.5302 304.839 94.2769 304.132 91.8902 304.132Z" fill="#E11D25"/>
<path d="M176.212 30.2256L176.279 30.4042L169.452 46.0922L162.625 30.4042L162.705 30.2256H29.7188V164.735C36.5187 150.367 51.5587 125.066 50.1187 110.739C47.9587 89.1562 38.1187 93.9602 38.1187 93.9602C40.1187 80.4056 54.7854 63.2936 54.7854 63.2936C48.5587 59.5162 37.0121 46.1829 35.8921 40.1829C34.7854 34.1829 44.7854 33.2949 44.7854 33.2949C44.7854 33.2949 44.7853 33.2949 46.3453 35.7389C47.892 38.1842 59.9987 48.4056 59.9987 48.4056C59.652 44.1842 62.7854 39.2936 63.4521 38.6269C64.1187 37.9602 69.012 41.9602 69.012 41.9602C82.092 31.9869 112.785 33.4509 129.225 34.8496C152.305 36.8109 150.119 49.7909 145.225 50.1829C139.679 50.6269 132.785 48.4056 107.679 41.7389C82.5586 35.0722 72.5587 45.7389 72.5587 45.7389C72.5587 45.7389 91.012 45.5162 107.012 51.2936C123.012 57.0722 131.945 70.5722 131.679 73.2936C130.812 71.4709 72.2253 36.7256 61.6786 77.0722C57.892 91.5176 61.6786 102.406 61.6786 102.406C61.892 91.7389 69.0121 76.4056 80.5587 72.4056C92.1187 68.4056 105.452 72.4056 116.119 82.6269C129.652 95.5936 153.825 94.3376 159.012 56.6269C159.012 69.5162 152.785 100.627 152.785 100.627C159.012 101.96 160.105 111.072 160.105 111.072C160.105 111.072 156.119 106.627 149.892 109.294C143.679 111.96 142.785 121.516 147.452 125.294C152.119 129.072 161.225 127.96 165.012 121.96C168.785 115.96 166.559 99.2936 166.559 99.2936C166.559 99.2936 162.345 94.6269 162.732 92.1829C162.972 90.7256 166.585 83.2629 169.452 77.4749C172.332 83.2629 175.932 90.7256 176.172 92.1829C176.572 94.6269 172.345 99.2936 172.345 99.2936C172.345 99.2936 170.119 115.96 173.905 121.96C177.679 127.96 186.785 129.072 191.452 125.294C196.119 121.516 195.239 111.96 189.012 109.294C182.785 106.627 178.799 111.072 178.799 111.072C178.799 111.072 179.905 101.96 186.119 100.627C186.119 100.627 179.905 69.5162 179.905 56.6269C185.092 94.3376 209.252 95.5936 222.785 82.6269C233.452 72.4056 246.785 68.4056 258.345 72.4056C269.905 76.4056 277.012 91.7389 277.239 102.406C277.239 102.406 281.012 91.5176 277.239 77.0722C266.679 36.7256 208.092 71.4709 207.239 73.2936C206.959 70.5722 215.905 57.0722 231.905 51.2936C247.905 45.5162 266.345 45.7389 266.345 45.7389C266.345 45.7389 256.345 35.0722 231.239 41.7389C206.119 48.4056 199.225 50.6269 193.679 50.1829C188.785 49.7909 186.599 36.8109 209.679 34.8496C226.119 33.4509 256.812 31.9869 269.905 41.9602C269.905 41.9602 274.785 37.9602 275.452 38.6269C276.119 39.2936 279.252 44.1842 278.905 48.4056C278.905 48.4056 291.012 38.1842 292.572 35.7389C294.119 33.2949 294.119 33.2949 294.119 33.2949C294.119 33.2949 304.119 34.1829 303.012 40.1829C301.905 46.1829 290.345 59.5162 284.119 63.2936C284.119 63.2936 298.785 80.4056 300.785 93.9602C300.785 93.9602 290.945 89.1562 288.785 110.739C287.359 125.068 302.385 150.374 309.199 164.74V30.2256H176.212Z" fill="#E11D25"/>
<path d="M42.5582 318.16C42.5582 318.16 40.8515 285.854 50.5582 270.374C58.7848 257.267 67.0115 255.267 82.5582 260.374C98.1182 265.494 110.558 262.374 122.118 245.711C122.118 245.711 105.891 255.04 89.6781 251.044C73.4514 247.044 61.2247 241.711 49.0114 245.711C36.7848 249.711 27.8915 293.933 42.5582 318.16Z" fill="#E11D25"/>
<path d="M223.785 97.0716C209.958 103.072 193.012 95.1263 193.012 95.1263C195.452 104.513 213.558 120.728 231.452 117.96C253.012 114.626 260.385 131.738 260.385 131.738C259.532 91.961 234.625 92.3703 223.785 97.0716Z" fill="#E11D25"/>
<path d="M242.347 85.5169C247.694 86.8875 259.667 92.9155 269.014 116.626C280.574 145.96 270.867 179.96 260.387 188.849C249.907 197.738 242.627 187.738 241.04 177.738C240.387 173.58 240.28 170.784 240.374 168.92C242.374 170.158 244.627 170.873 247.014 170.873C255.36 170.873 262.121 162.361 262.121 151.861C262.121 141.361 255.347 132.558 247.014 132.849C227.907 133.516 224.147 169.446 226.694 180.849C236.707 225.485 278.961 205.09 284.587 164.373C288.307 137.509 280.694 93.3022 242.347 85.5169Z" fill="#E11D25"/>
<path d="M152.81 271.972C146.477 271.546 139.917 278.372 137.757 287.972C135.45 298.226 139.01 307.759 145.717 309.266C152.41 310.786 159.717 303.692 162.037 293.452C163.664 286.226 162.37 279.372 159.117 275.412C153.89 274.612 148.41 278.892 145.264 285.706C145.304 285.506 145.33 285.306 145.384 285.106C146.65 279.466 149.45 274.786 152.81 271.972Z" fill="#E11D25"/>
<path d="M161.678 337.707C162.785 337.934 165.225 334.16 169.451 333.707C173.678 334.16 176.118 337.934 177.238 337.707C178.345 337.494 180.118 333.934 177.238 326.827C175.518 322.614 172.025 314.747 169.451 309.04C166.878 314.747 163.385 322.614 161.678 326.827C158.785 333.934 160.558 337.494 161.678 337.707Z" fill="#E11D25"/>
<path d="M193.2 309.266C199.893 307.759 203.453 298.226 201.147 287.972C198.987 278.372 192.427 271.546 186.093 271.972C189.467 274.786 192.253 279.466 193.52 285.106C193.573 285.306 193.6 285.506 193.64 285.706C190.493 278.892 185.013 274.612 179.787 275.412C176.547 279.372 175.24 286.226 176.88 293.452C179.187 303.692 186.493 310.786 193.2 309.266Z" fill="#E11D25"/>
</svg>
