<svg width="339" height="474" viewBox="0 0 339 474" fill="none" xmlns="http://www.w3.org/2000/svg">
<path d="M22.7641 473.146C10.2643 473.146 0.0976562 462.977 0.0976562 450.48V22.9464C0.0976562 10.4531 10.2643 0.279781 22.7641 0.279781H315.584C328.083 0.279781 338.251 10.4531 338.251 22.9464V450.48C338.251 462.977 328.083 473.146 315.584 473.146H22.7641Z" fill="#849393"/>
<path d="M22.7654 470.479C11.737 470.479 2.76562 461.509 2.76562 450.479V22.9461C2.76562 11.9195 11.737 2.94612 22.7654 2.94612H315.585C326.615 2.94612 335.585 11.9195 335.585 22.9461V450.479C335.585 461.509 326.615 470.479 315.585 470.479H22.7654Z" fill="white"/>
<path d="M30.7643 442.48H307.584V30.9465H30.7643V442.48ZM310.251 445.146H28.0977V28.2798H310.251V445.146Z" fill="#100F0D"/>
<path d="M256.062 214.014C240.508 208.907 228.062 212.014 216.508 228.683C216.508 228.683 232.729 219.347 248.95 223.35C265.174 227.35 277.396 232.683 289.617 228.683C301.841 224.683 310.729 180.467 296.062 156.24C296.062 156.24 297.768 188.534 288.062 204.014C279.841 217.134 271.617 219.134 256.062 214.014Z" fill="#100F0D"/>
<path d="M231.176 356.433C213.277 353.668 195.176 369.881 192.73 379.269C192.73 379.269 209.676 371.324 223.509 377.324C234.345 382.025 259.249 382.433 260.1 342.657C260.1 342.657 252.73 359.766 231.176 356.433Z" fill="#100F0D"/>
<path d="M145.431 165.12C138.728 166.64 135.168 176.173 137.477 186.413C139.644 196.026 146.199 202.853 152.532 202.426C149.165 199.613 146.373 194.933 145.1 189.293C145.056 189.08 145.027 188.893 144.985 188.68C148.129 195.506 153.613 199.773 158.835 198.986C162.084 195.026 163.384 188.173 161.753 180.946C159.441 170.693 152.135 163.613 145.431 165.12Z" fill="#100F0D"/>
<path d="M284.312 310.023C278.685 269.304 236.421 248.911 226.417 293.546C223.861 304.95 227.62 340.879 246.732 341.546C255.073 341.838 261.844 333.032 261.844 322.532C261.844 312.032 255.078 303.523 246.732 303.523C244.346 303.523 242.098 304.236 240.09 305.475C239.994 303.611 240.104 300.814 240.762 296.658C242.352 286.658 249.62 276.658 260.101 285.546C270.584 294.436 280.286 328.434 268.732 357.767C259.39 381.48 247.417 387.507 242.065 388.879C280.412 381.092 288.026 336.887 284.312 310.023Z" fill="#100F0D"/>
<path d="M289.617 245.1C277.396 241.1 265.174 246.433 248.95 250.433C232.729 254.433 216.508 245.1 216.508 245.1C228.062 261.766 240.508 264.878 256.062 259.766C271.617 254.657 279.841 256.657 288.062 269.766C297.768 285.246 296.062 317.545 296.062 317.545C310.729 293.324 301.841 249.1 289.617 245.1Z" fill="#100F0D"/>
<path d="M120.948 132.467C115.169 144.466 132.484 152.427 132.484 152.427C121.817 157.987 112.502 174.68 115.836 197.573C119.169 220.466 140.06 231.794 140.06 231.794C140.06 231.794 128.833 237.049 117.098 232.716C103.169 227.572 88.7264 227.794 75.169 232.461C72.185 233.488 69.2184 235.045 66.4477 236.804H66.1797C69.0277 238.632 72.085 240.261 75.169 241.324C88.7264 245.99 103.169 246.212 117.098 241.069C128.833 236.734 140.06 241.99 140.06 241.99C140.06 241.99 119.169 253.321 115.836 276.212C112.502 299.1 121.817 315.799 132.484 321.353C132.484 321.353 115.169 329.324 120.948 341.324C126.724 353.324 145.393 345.545 150.948 332.657C150.948 332.657 140.502 339.1 135.393 338.657C130.281 338.212 128.06 333.324 132.948 328.433C137.836 323.545 141.614 322.657 141.614 322.657C141.614 322.657 128.726 309.99 124.948 297.766C121.169 285.545 122.948 264.433 135.169 254.433C146.028 245.55 160.218 244.749 169.172 260.42C178.125 244.749 192.312 245.55 203.174 254.433C215.396 264.433 217.174 285.545 213.396 297.766C209.617 309.99 196.729 322.657 196.729 322.657C196.729 322.657 200.508 323.545 205.396 328.433C210.284 333.324 208.062 338.212 202.95 338.657C197.838 339.1 187.396 332.657 187.396 332.657C192.95 345.545 211.617 353.324 217.396 341.324C223.172 329.324 205.858 321.353 205.858 321.353C216.525 315.799 225.841 299.1 222.508 276.212C219.174 253.321 198.284 241.99 198.284 241.99C198.284 241.99 209.508 236.734 221.245 241.069C235.174 246.212 249.617 245.99 263.174 241.324C266.257 240.261 269.314 238.632 272.164 236.804H271.893C269.125 235.045 266.158 233.488 263.174 232.461C249.617 227.794 235.174 227.572 221.245 232.716C209.508 237.049 198.284 231.794 198.284 231.794C198.284 231.794 219.174 220.466 222.508 197.573C225.841 174.68 216.525 157.987 205.858 152.427C205.858 152.427 223.172 144.466 217.396 132.467C211.617 120.467 192.95 128.24 187.396 141.133C187.396 141.133 197.838 134.68 202.95 135.133C208.062 135.573 210.284 140.466 205.396 145.346C200.508 150.24 196.729 151.133 196.729 151.133C196.729 151.133 209.617 163.8 213.396 176.013C217.174 188.24 215.396 209.346 203.174 219.346C192.312 228.234 178.125 229.033 169.172 213.36C160.218 229.033 146.028 228.234 135.169 219.346C122.948 209.346 121.169 188.24 124.948 176.013C128.726 163.8 141.614 151.133 141.614 151.133C141.614 151.133 137.836 150.24 132.948 145.346C128.06 140.466 130.281 135.573 135.393 135.133C140.502 134.68 150.948 141.133 150.948 141.133C145.393 128.24 126.724 120.467 120.948 132.467Z" fill="#100F0D"/>
<path d="M48.7254 228.683C60.9494 232.683 73.1707 227.35 89.392 223.35C105.616 219.347 121.837 228.683 121.837 228.683C110.283 212.014 97.8374 208.907 82.2827 214.014C66.728 219.134 58.504 217.134 50.2827 204.014C40.5747 188.534 42.2827 156.24 42.2827 156.24C27.6161 180.467 36.504 224.683 48.7254 228.683Z" fill="#100F0D"/>
<path d="M308.916 309.655C302.107 324.023 287.074 349.327 288.508 363.657C290.667 385.239 300.508 380.434 300.508 380.434C298.508 393.991 283.842 411.1 283.842 411.1C290.063 414.879 301.618 428.212 302.73 434.212C303.839 440.212 293.842 441.1 293.842 441.1C293.842 441.1 293.842 441.1 292.284 438.657C290.73 436.212 278.631 425.991 278.631 425.991C278.976 430.212 275.842 435.1 275.175 435.767C274.508 436.434 269.618 432.434 269.618 432.434C256.528 442.408 225.839 440.944 209.396 439.546C186.323 437.583 188.503 424.603 193.396 424.212C198.951 423.77 205.842 425.991 230.951 432.657C256.063 439.324 266.063 428.657 266.063 428.657C266.063 428.657 247.618 428.879 231.618 423.1C215.618 417.324 206.675 403.824 206.951 401.1C207.815 402.926 266.399 437.668 276.951 397.324C280.73 382.879 276.951 371.991 276.951 371.991C276.73 382.657 269.618 397.991 258.063 401.991C246.506 405.991 233.175 401.991 222.508 391.767C208.976 378.802 184.807 380.059 179.618 417.767C179.618 404.879 185.842 373.767 185.842 373.767C179.618 372.434 178.519 363.324 178.519 363.324C178.519 363.324 182.508 367.767 188.73 365.1C194.954 362.434 195.842 352.879 191.175 349.1C186.508 345.324 177.396 346.434 173.618 352.434C169.842 358.434 172.063 375.1 172.063 375.1C172.063 375.1 176.284 379.767 175.888 382.212C175.651 383.671 172.044 391.132 169.172 396.92C166.298 391.132 162.692 383.671 162.456 382.212C162.058 379.767 166.282 375.1 166.282 375.1C166.282 375.1 168.503 358.434 164.724 352.434C160.948 346.434 151.836 345.324 147.17 349.1C142.503 352.879 143.391 362.434 149.615 365.1C155.836 367.767 159.823 363.324 159.823 363.324C159.823 363.324 158.724 372.434 152.503 373.767C152.503 373.767 158.724 404.879 158.724 417.767C153.536 380.059 129.367 378.802 115.836 391.767C105.17 401.991 91.8364 405.991 80.2817 401.991C68.7244 397.991 61.615 382.657 61.391 371.991C61.391 371.991 57.615 382.879 61.391 397.324C71.943 437.668 130.528 402.926 131.391 401.1C131.67 403.824 122.724 417.324 106.724 423.1C90.7243 428.879 72.2817 428.657 72.2817 428.657C72.2817 428.657 82.2817 439.324 107.391 432.657C132.503 425.991 139.394 423.77 144.948 424.212C149.842 424.603 152.022 437.583 128.948 439.546C112.503 440.944 81.815 442.408 68.7243 432.434C68.7243 432.434 63.8364 436.434 63.1697 435.767C62.503 435.1 59.367 430.212 59.7137 425.991C59.7137 425.991 47.615 436.212 46.0577 438.657C44.503 441.1 44.503 441.1 44.503 441.1C44.503 441.1 34.503 440.212 35.615 434.212C36.7244 428.212 48.2817 414.879 54.503 411.1C54.503 411.1 39.8364 393.991 37.8364 380.434C37.8364 380.434 47.6777 385.239 49.8364 363.657C51.271 349.329 36.2404 324.028 29.4297 309.662V443.813H162.416L169.172 428.304L175.927 443.813H308.916V309.655Z" fill="#100F0D"/>
<path d="M176.951 136.68C175.842 136.467 173.397 140.24 169.175 140.68C169.173 140.68 169.173 140.68 169.173 140.68C169.17 140.68 169.17 140.68 169.17 140.68C164.949 140.24 162.503 136.467 161.391 136.68C160.282 136.907 158.503 140.467 161.391 147.574C163.102 151.774 166.599 159.64 169.173 165.36C171.746 159.64 175.243 151.774 176.951 147.574C179.842 140.467 178.063 136.907 176.951 136.68Z" fill="#100F0D"/>
<path d="M185.812 202.426C192.145 202.853 198.703 196.026 200.869 186.413C203.18 176.173 199.62 166.64 192.917 165.12C186.213 163.613 178.904 170.693 176.593 180.946C174.964 188.173 176.263 195.026 179.513 198.986C184.735 199.773 190.216 195.506 193.361 188.68C193.32 188.893 193.292 189.08 193.245 189.293C191.973 194.933 189.183 199.613 185.812 202.426Z" fill="#100F0D"/>
<path d="M114.837 377.324C128.67 371.324 145.615 379.269 145.615 379.269C143.17 369.881 125.069 353.668 107.17 356.433C85.6154 359.766 78.2461 342.657 78.2461 342.657C79.0968 382.433 103.998 382.025 114.837 377.324Z" fill="#100F0D"/>
<path d="M54.0331 163.76C59.6611 204.48 101.924 224.874 111.929 180.24C114.484 168.84 110.724 132.906 91.6144 132.24C83.2731 131.946 76.5024 140.746 76.5024 151.253C76.5024 161.746 83.2677 170.266 91.6144 170.266C93.9997 170.266 96.2477 169.546 98.2544 168.306C98.3491 170.173 98.2424 172.973 97.5811 177.133C95.9944 187.133 88.7237 197.133 78.2451 188.24C67.7624 179.346 58.0571 145.346 69.6144 116.013C78.9557 92.3064 90.9291 86.2797 96.2811 84.9064C57.9344 92.6931 50.3197 136.893 54.0331 163.76Z" fill="#100F0D"/>
<path d="M114.837 96.4661C103.998 91.7595 79.0968 91.3461 78.2461 131.133C78.2461 131.133 85.6154 114.013 107.17 117.346C125.069 120.119 143.17 103.906 145.615 94.5195C145.615 94.5195 128.67 102.466 114.837 96.4661Z" fill="#100F0D"/>
<path d="M91.6144 303.523C83.2677 303.523 76.5024 312.032 76.5024 322.532C76.5024 333.032 83.2731 341.838 91.6144 341.546C110.724 340.879 114.484 304.95 111.929 293.546C101.924 248.911 59.6611 269.304 54.0331 310.023C50.3197 336.887 57.9344 381.092 96.2811 388.879C90.9291 387.507 78.9557 381.48 69.6144 357.767C58.0571 328.434 67.7624 294.436 78.2451 285.546C88.7237 276.658 95.9944 286.658 97.5811 296.658C98.2424 300.814 98.3491 303.611 98.2544 305.475C96.2477 304.236 93.9997 303.523 91.6144 303.523Z" fill="#100F0D"/>
<path d="M175.927 29.6128L176.003 29.7862L169.172 45.4794L162.339 29.7862L162.416 29.6128H29.4297V164.12C36.2404 149.76 51.271 124.453 49.8364 110.133C47.6777 88.5462 37.8364 93.3461 37.8364 93.3461C39.8364 79.7994 54.503 62.6794 54.503 62.6794C48.2817 58.9061 36.7244 45.5728 35.615 39.5728C34.503 33.5728 44.503 32.6794 44.503 32.6794C44.503 32.6794 44.503 32.6795 46.0577 35.1328C47.615 37.5728 59.7137 47.7995 59.7137 47.7995C59.367 43.5728 62.503 38.6794 63.1697 38.0128C63.8364 37.3461 68.7243 41.3461 68.7243 41.3461C81.815 31.3728 112.503 32.8395 128.948 34.2395C152.022 36.1995 149.842 49.1728 144.948 49.5728C139.394 50.0128 132.503 47.7995 107.391 41.1328C82.2817 34.4662 72.2817 45.1328 72.2817 45.1328C72.2817 45.1328 90.7243 44.9061 106.724 50.6794C122.724 56.4661 131.67 69.9594 131.391 72.6794C130.528 70.8528 71.943 36.1195 61.391 76.4662C57.615 90.9062 61.391 101.799 61.391 101.799C61.615 91.1328 68.7244 75.7995 80.2817 71.7995C91.8364 67.7995 105.17 71.7994 115.836 82.0128C129.367 94.9861 153.536 93.7194 158.724 56.0128C158.724 68.9061 152.503 100.013 152.503 100.013C158.724 101.346 159.823 110.466 159.823 110.466C159.823 110.466 155.836 106.013 149.615 108.679C143.391 111.346 142.503 120.906 147.17 124.679C151.836 128.466 160.948 127.346 164.724 121.346C168.503 115.346 166.282 98.6794 166.282 98.6794C166.282 98.6794 162.058 94.0128 162.456 91.5728C162.692 90.1195 166.298 82.6528 169.172 76.8662C172.044 82.6528 175.651 90.1195 175.888 91.5728C176.284 94.0128 172.063 98.6794 172.063 98.6794C172.063 98.6794 169.842 115.346 173.618 121.346C177.396 127.346 186.508 128.466 191.175 124.679C195.842 120.906 194.954 111.346 188.73 108.679C182.508 106.013 178.519 110.466 178.519 110.466C178.519 110.466 179.618 101.346 185.842 100.013C185.842 100.013 179.618 68.9061 179.618 56.0128C184.807 93.7194 208.976 94.9861 222.508 82.0128C233.175 71.7994 246.506 67.7995 258.063 71.7995C269.618 75.7995 276.73 91.1328 276.951 101.799C276.951 101.799 280.73 90.9062 276.951 76.4662C266.399 36.1195 207.815 70.8528 206.951 72.6794C206.675 69.9594 215.618 56.4661 231.618 50.6794C247.618 44.9061 266.063 45.1328 266.063 45.1328C266.063 45.1328 256.063 34.4662 230.951 41.1328C205.842 47.7995 198.951 50.0128 193.396 49.5728C188.503 49.1728 186.323 36.1995 209.396 34.2395C225.839 32.8395 256.528 31.3728 269.618 41.3461C269.618 41.3461 274.508 37.3461 275.175 38.0128C275.842 38.6794 278.976 43.5728 278.631 47.7995C278.631 47.7995 290.73 37.5728 292.284 35.1328C293.842 32.6795 293.842 32.6794 293.842 32.6794C293.842 32.6794 303.839 33.5728 302.73 39.5728C301.618 45.5728 290.063 58.9061 283.842 62.6794C283.842 62.6794 298.508 79.7994 300.508 93.3461C300.508 93.3461 290.667 88.5462 288.508 110.133C287.074 124.453 302.107 149.759 308.916 164.133V29.6128H175.927Z" fill="#100F0D"/>
<path d="M42.2827 317.545C42.2827 317.545 40.5747 285.246 50.2827 269.766C58.504 256.657 66.728 254.657 82.2827 259.766C97.8374 264.878 110.283 261.766 121.837 245.1C121.837 245.1 105.616 254.433 89.392 250.433C73.1707 246.433 60.9494 241.1 48.7254 245.1C36.504 249.1 27.6161 293.324 42.2827 317.545Z" fill="#100F0D"/>
<path d="M223.509 96.4661C209.676 102.466 192.73 94.5195 192.73 94.5195C195.176 103.906 213.277 120.119 231.176 117.346C252.73 114.013 260.1 131.133 260.1 131.133C259.249 91.3461 234.345 91.7595 223.509 96.4661Z" fill="#100F0D"/>
<path d="M242.065 84.9064C247.417 86.2797 259.39 92.3064 268.732 116.013C280.286 145.346 270.584 179.346 260.101 188.24C249.62 197.133 242.352 187.133 240.762 177.133C240.104 172.973 239.994 170.173 240.09 168.306C242.098 169.546 244.346 170.266 246.732 170.266C255.078 170.266 261.844 161.746 261.844 151.253C261.844 140.746 255.073 131.946 246.732 132.24C227.62 132.906 223.861 168.84 226.417 180.24C236.421 224.874 278.685 204.48 284.312 163.76C288.026 136.893 280.412 92.6931 242.065 84.9064Z" fill="#100F0D"/>
<path d="M152.532 271.362C146.199 270.934 139.644 277.759 137.477 287.363C135.168 297.614 138.728 307.147 145.431 308.658C152.135 310.171 159.441 303.087 161.753 292.84C163.384 285.614 162.084 278.756 158.835 274.804C153.613 274.01 148.129 278.278 144.985 285.1C145.027 284.898 145.056 284.696 145.1 284.494C146.373 278.851 149.165 274.179 152.532 271.362Z" fill="#100F0D"/>
<path d="M161.391 337.1C162.503 337.324 164.949 333.545 169.17 333.1C169.17 333.1 169.17 333.1 169.173 333.1C169.173 333.1 169.173 333.1 169.175 333.1C173.397 333.545 175.842 337.324 176.951 337.1C178.063 336.878 179.842 333.324 176.951 326.212C175.243 322.006 171.746 314.141 169.173 308.422C166.599 314.141 163.102 322.006 161.391 326.212C158.503 333.324 160.282 336.878 161.391 337.1Z" fill="#100F0D"/>
<path d="M192.917 308.658C199.62 307.147 203.18 297.614 200.869 287.363C198.703 277.759 192.145 270.934 185.812 271.362C189.183 274.179 191.973 278.851 193.245 284.494C193.292 284.696 193.32 284.898 193.361 285.1C190.216 278.278 184.735 274.01 179.513 274.804C176.263 278.756 174.964 285.614 176.593 292.84C178.904 303.087 186.213 310.171 192.917 308.658Z" fill="#100F0D"/>
</svg>
