<svg width="339" height="474" viewBox="0 0 339 474" fill="none" xmlns="http://www.w3.org/2000/svg">
<path d="M22.7878 473.651C10.2878 473.651 0.121094 463.479 0.121094 450.984V23.4528C0.121094 10.9528 10.2878 0.786133 22.7878 0.786133H315.605C328.105 0.786133 338.272 10.9528 338.272 23.4528V450.984C338.272 463.479 328.105 473.651 315.605 473.651H22.7878Z" fill="#849393"/>
<path d="M315.607 3.45312H271.435L267.404 14.5417L263.034 3.45312H22.7891C11.7422 3.45312 2.78906 12.4063 2.78906 23.4531V450.984C2.78906 462.026 11.7422 470.984 22.7891 470.984H67.0234L70.9922 460.078L75.2891 470.984H315.607C326.654 470.984 335.607 462.026 335.607 450.984V23.4531C335.607 12.4063 326.654 3.45312 315.607 3.45312Z" fill="white"/>
<path d="M35.2865 19.6875H64.5313C64.8021 19.7344 64.9375 19.8437 64.9375 20.0208C62.5573 21.3229 61.375 22.6458 61.375 23.9896C59.3542 28.651 57.9219 32.5937 57.0677 35.8229C56.8438 35.9583 55.901 38.4479 54.2448 43.2865C53.6198 44.2708 52.7865 46.5365 51.7552 50.0781L49.7396 55.1198L46.9167 63.3906V64.1302C47.5 65.026 48.2396 65.474 49.1354 65.474V65.6771C48.9115 65.6771 48.7969 65.7865 48.7969 66.0104L46.9167 65.8125H34.5469V65.6771C34.5469 65.5417 35.3542 65.0938 36.9635 64.3333C37.5937 63.2552 40.599 55.6146 45.974 41.4063C45.974 40.8229 47.8594 35.4427 51.625 25.2656C51.2187 25.1771 51.0156 25.0677 51.0156 24.9323C47.8333 25.0677 45.526 25.1354 44.0938 25.1354H41.0677C36.9896 25.1354 34.1875 27.0625 32.6615 30.9167L32.2604 31.1146L32.125 30.7135V29.7708C32.349 29.5937 32.776 27.9115 33.401 24.7292C34.2552 21.3698 34.8802 19.6875 35.2865 19.6875Z" fill="#E11D25"/>
<path d="M303.104 454.933H273.854C273.583 454.891 273.453 454.777 273.453 454.6C275.828 453.292 277.016 451.975 277.016 450.626C279.031 445.959 280.469 442.027 281.318 438.803C281.542 438.667 282.484 436.173 284.141 431.334C284.771 430.35 285.599 428.079 286.63 424.548L288.646 419.495L291.469 411.225V410.495C290.885 409.589 290.146 409.146 289.25 409.146V408.949C289.474 408.949 289.589 408.829 289.589 408.6L291.469 408.813H303.844V408.949C303.844 409.079 303.036 409.521 301.422 410.292C300.792 411.36 297.792 419.001 292.411 433.214C292.411 433.803 290.526 439.173 286.766 449.35C287.167 449.443 287.37 449.558 287.37 449.683C290.552 449.558 292.859 449.48 294.292 449.48H297.318C301.401 449.48 304.203 447.558 305.724 443.709L306.125 443.506L306.26 443.907V444.839C306.036 445.027 305.615 446.709 304.984 449.891C304.135 453.256 303.505 454.933 303.104 454.933Z" fill="#E11D25"/>
<path d="M264.856 388C263.564 363.958 277.835 359.896 281.199 367.828C282.986 372.042 280.194 378.188 277.132 379.135C273.387 380.292 273.798 376.318 273.798 376.318C273.798 376.318 274.689 377.547 275.845 377.359C278.126 377 276.897 373.016 274.501 373.016C272.106 373.016 268.949 374.974 268.189 382.802C267.074 394.24 278.887 395.255 286.074 388.667C288.892 386.078 291.397 382.682 292.965 380.349C294.533 382.682 297.043 386.078 299.861 388.667C307.048 395.255 318.856 394.24 317.746 382.802C316.986 374.974 313.829 373.016 311.434 373.016C309.038 373.016 307.809 377 310.09 377.359C311.246 377.547 312.137 376.318 312.137 376.318C312.137 376.318 312.543 380.292 308.803 379.135C305.736 378.188 302.944 372.042 304.736 367.828C308.1 359.896 322.371 363.958 321.079 388C321.079 388 324.923 383.229 324.939 376.682C324.949 368.682 321.954 360.068 309.856 351.813C302.835 347.026 296.798 343.24 292.965 340.922C289.137 343.24 283.1 347.026 276.079 351.813C263.981 360.068 260.981 368.682 260.996 376.682C261.012 383.229 264.856 388 264.856 388Z" fill="#E11D25"/>
<path d="M73.5313 86.625C74.823 110.656 60.5521 114.719 57.1876 106.792C55.4011 102.578 58.1928 96.4375 61.2553 95.4844C65.0001 94.3229 64.5886 98.2969 64.5886 98.2969C64.5886 98.2969 63.698 97.0729 62.5417 97.2552C60.2657 97.625 61.4896 101.599 63.8855 101.599C66.2865 101.599 69.4428 99.6406 70.2032 91.8177C71.3126 80.3802 59.5001 79.3646 52.3126 85.9531C49.4949 88.5365 46.9896 91.9375 45.4219 94.2708C43.8542 91.9375 41.3438 88.5365 38.5261 85.9531C31.3386 79.3646 19.5313 80.3802 20.6407 91.8177C21.4011 99.6406 24.5574 101.599 26.9532 101.599C29.349 101.599 30.5782 97.625 28.2969 97.2552C27.1459 97.0729 26.2553 98.2969 26.2553 98.2969C26.2553 98.2969 25.8438 94.3229 29.5834 95.4844C32.6511 96.4375 35.4428 102.578 33.6511 106.792C30.2917 114.719 16.0157 110.656 17.3074 86.625C17.3074 86.625 13.4636 91.3854 13.4532 97.9323C13.4376 105.937 16.4324 114.557 28.5313 122.807C35.5521 127.594 41.5886 131.375 45.4219 133.703C49.2501 131.375 55.2865 127.594 62.3074 122.807C74.4063 114.557 77.4063 105.937 77.3907 97.9323C77.3803 91.3854 73.5313 86.625 73.5313 86.625Z" fill="#E11D25"/>
<path d="M251.651 175.224C255.443 245.724 213.583 257.641 203.714 234.385C198.464 222.016 206.651 204.01 215.646 201.219C226.62 197.812 225.412 209.463 225.412 209.463C225.412 209.463 222.807 205.875 219.417 206.417C212.735 207.495 216.333 219.146 223.36 219.146C230.396 219.146 239.651 213.411 241.88 190.463C245.136 156.917 210.495 153.932 189.412 173.255C181.146 180.828 173.792 190.812 169.198 197.661C164.599 190.812 157.245 180.828 148.979 173.255C127.896 153.932 93.2554 156.917 96.5106 190.463C98.7449 213.411 108 219.146 115.026 219.146C122.057 219.146 125.656 207.495 118.974 206.417C115.583 205.875 112.974 209.463 112.974 209.463C112.974 209.463 111.776 197.812 122.745 201.219C131.74 204.01 139.927 222.016 134.677 234.385C124.813 257.641 82.9481 245.724 86.7397 175.224C86.7397 175.224 75.4585 189.187 75.422 208.391C75.3804 231.875 84.1668 257.161 119.656 281.349C140.255 295.401 157.964 306.479 169.198 313.318C180.432 306.479 198.136 295.401 218.729 281.349C254.219 257.161 263.011 231.875 262.964 208.391C262.932 189.187 251.651 175.224 251.651 175.224Z" fill="#E11D25"/>
</svg>
