<svg width="339" height="474" viewBox="0 0 339 474" fill="none" xmlns="http://www.w3.org/2000/svg">
<path d="M22.7878 473.432C10.2878 473.432 0.121094 463.26 0.121094 450.765V23.2341C0.121094 10.734 10.2878 0.567383 22.7878 0.567383H315.605C328.105 0.567383 338.272 10.734 338.272 23.2341V450.765C338.272 463.26 328.105 473.432 315.605 473.432H22.7878Z" fill="#849393"/>
<path d="M315.607 3.23438H271.435L267.404 14.3229L263.034 3.23438H22.7891C11.7422 3.23438 2.78906 12.1875 2.78906 23.2344V450.766C2.78906 461.807 11.7422 470.766 22.7891 470.766H67.0234L70.9922 459.854L75.2891 470.766H315.607C326.654 470.766 335.607 461.807 335.607 450.766V23.2344C335.607 12.1875 326.654 3.23438 315.607 3.23438Z" fill="white"/>
<path d="M35.0313 19.4688H54.6667C57.7135 19.4688 59.2396 21.8177 59.2396 26.526V31.4323C59.2396 36.1875 57.9167 39.349 55.2708 40.9167C46.6667 48.625 41.2396 53.849 39 56.5833V60.2813C39.0417 60.6823 39.2448 60.8854 39.6042 60.8854H45.4531C53.0313 60.8854 58.2292 57.724 61.0521 51.401H61.724C59.9792 60.9948 58.8333 65.7917 58.2969 65.7917H30.7292C30.3281 65.7917 30.125 65.5885 30.125 65.1875V56.5833C30.125 53.9375 34.3177 49.3438 42.6979 42.7969C47.8073 38.224 50.3646 35.3594 50.3646 34.1927C50.5885 33.4271 50.6979 32.5104 50.6979 31.4323V27.1302C50.6979 25.474 49.8698 24.6458 48.2135 24.6458H42.0938C40.6146 24.6458 39.6927 25.1615 39.3385 26.1927V30.1563C39.3385 30.9167 36.4687 32.2656 30.7292 34.1927L30.3958 33.5833V24.9792C30.3958 21.3073 31.9427 19.4688 35.0313 19.4688Z" fill="#E11D25"/>
<path d="M303.357 454.709H283.721C280.674 454.709 279.154 452.36 279.154 447.651V442.745C279.154 437.99 280.477 434.828 283.117 433.261C291.727 425.552 297.148 420.328 299.388 417.594V413.901C299.346 413.495 299.143 413.297 298.784 413.297H292.935C285.362 413.297 280.159 416.453 277.336 422.771H276.664C278.414 413.183 279.555 408.386 280.091 408.386H307.659C308.065 408.386 308.263 408.589 308.263 408.99V417.594C308.263 420.24 304.076 424.839 295.69 431.381C290.581 435.953 288.029 438.818 288.029 439.985C287.805 440.75 287.69 441.667 287.69 442.745V447.047C287.69 448.703 288.518 449.532 290.18 449.532H296.294C297.773 449.532 298.695 449.021 299.055 447.985V444.021C299.055 443.256 301.924 441.912 307.659 439.985L307.997 440.589V449.198C307.997 452.87 306.451 454.709 303.357 454.709Z" fill="#E11D25"/>
<path d="M264.856 387.771C263.564 363.74 277.835 359.677 281.199 367.604C282.986 371.823 280.194 377.964 277.132 378.912C273.387 380.073 273.798 376.099 273.798 376.099C273.798 376.099 274.689 377.323 275.845 377.141C278.126 376.771 276.897 372.802 274.501 372.802C272.106 372.802 268.949 374.756 268.189 382.578C267.074 394.016 278.887 395.032 286.074 388.448C288.892 385.86 291.397 382.459 292.965 380.125C294.533 382.459 297.043 385.86 299.861 388.448C307.048 395.032 318.856 394.016 317.746 382.578C316.986 374.756 313.829 372.802 311.434 372.802C309.038 372.802 307.809 376.771 310.09 377.141C311.246 377.323 312.137 376.099 312.137 376.099C312.137 376.099 312.543 380.073 308.803 378.912C305.736 377.964 302.944 371.823 304.736 367.604C308.1 359.677 322.371 363.74 321.079 387.771C321.079 387.771 324.923 383.016 324.939 376.469C324.949 368.464 321.954 359.844 309.856 351.594C302.835 346.802 296.798 343.026 292.965 340.698C289.137 343.026 283.1 346.802 276.079 351.594C263.981 359.844 260.981 368.464 260.996 376.469C261.012 383.016 264.856 387.771 264.856 387.771Z" fill="#E11D25"/>
<path d="M73.5313 86.4062C74.823 110.437 60.5521 114.5 57.1876 106.573C55.4011 102.354 58.1928 96.2187 61.2553 95.2656C65.0001 94.1042 64.5886 98.0781 64.5886 98.0781C64.5886 98.0781 63.698 96.8542 62.5417 97.0365C60.2657 97.4062 61.4896 101.375 63.8855 101.375C66.2865 101.375 69.4428 99.4219 70.2032 91.599C71.3126 80.1615 59.5001 79.1458 52.3126 85.7344C49.4949 88.3125 46.9896 91.7187 45.4219 94.0521C43.8542 91.7187 41.3438 88.3125 38.5261 85.7344C31.3386 79.1458 19.5313 80.1615 20.6407 91.599C21.4011 99.4219 24.5574 101.375 26.9532 101.375C29.349 101.375 30.5782 97.4062 28.2969 97.0365C27.1459 96.8542 26.2553 98.0781 26.2553 98.0781C26.2553 98.0781 25.8438 94.1042 29.5834 95.2656C32.6511 96.2187 35.4428 102.354 33.6511 106.573C30.2917 114.5 16.0157 110.437 17.3074 86.4062C17.3074 86.4062 13.4636 91.1615 13.4532 97.7083C13.4376 105.714 16.4324 114.333 28.5313 122.583C35.5521 127.375 41.5886 131.151 45.4219 133.479C49.2501 131.151 55.2865 127.375 62.3074 122.583C74.4063 114.333 77.4063 105.714 77.3907 97.7083C77.3803 91.1615 73.5313 86.4062 73.5313 86.4062Z" fill="#E11D25"/>
<path d="M251.651 175.005C255.443 245.505 213.583 257.417 203.714 234.161C198.464 221.797 206.651 203.786 215.646 201C226.62 197.594 225.412 209.245 225.412 209.245C225.412 209.245 222.807 205.656 219.417 206.193C212.735 207.276 216.333 218.927 223.36 218.927C230.396 218.927 239.651 213.193 241.88 190.24C245.136 156.693 210.495 153.713 189.412 173.031C181.146 180.609 173.792 190.594 169.198 197.437C164.599 190.594 157.245 180.609 148.979 173.031C127.896 153.713 93.2554 156.693 96.5106 190.24C98.7449 213.193 108 218.927 115.026 218.927C122.057 218.927 125.656 207.276 118.974 206.193C115.583 205.656 112.974 209.245 112.974 209.245C112.974 209.245 111.776 197.594 122.745 201C131.74 203.786 139.927 221.797 134.677 234.161C124.813 257.417 82.9481 245.505 86.7397 175.005C86.7397 175.005 75.4585 188.969 75.422 208.172C75.3804 231.651 84.1668 256.932 119.656 281.135C140.255 295.182 157.964 306.266 169.198 313.094C180.432 306.266 198.136 295.182 218.729 281.135C254.219 256.932 263.011 231.651 262.964 208.172C262.932 188.969 251.651 175.005 251.651 175.005Z" fill="#E11D25"/>
</svg>
