<svg width="340" height="474" viewBox="0 0 340 474" fill="none" xmlns="http://www.w3.org/2000/svg">
<path d="M23.5378 473.651C11.0378 473.651 0.871094 463.479 0.871094 450.984V23.4528C0.871094 10.958 11.0378 0.786133 23.5378 0.786133H316.361C328.861 0.786133 339.027 10.958 339.027 23.4528V450.984C339.027 463.479 328.861 473.651 316.361 473.651H23.5378Z" fill="#849393"/>
<path d="M316.362 3.45312H272.19L268.154 14.5417L263.789 3.45312H23.5391C12.4922 3.45312 3.53906 12.4115 3.53906 23.4531V450.984C3.53906 462.026 12.4922 470.984 23.5391 470.984H67.7786L71.7474 460.078L76.0443 470.984H316.362C327.409 470.984 336.362 462.026 336.362 450.984V23.4531C336.362 12.4115 327.409 3.45312 316.362 3.45312Z" fill="white"/>
<path d="M40.7305 47.5885V58.8177C40.7305 60.2083 41.3138 60.901 42.4805 60.901H49.2669C50.4336 60.901 51.0169 60.2083 51.0169 58.8177V47.5885C51.0169 46.8281 50.4336 46.3125 49.2669 46.0417C49.043 46.0417 47.9023 46.1094 45.8398 46.2448C45.6628 46.2448 44.5378 46.1771 42.4805 46.0417C41.3138 46.3125 40.7305 46.8281 40.7305 47.5885ZM40.7305 26.474V39.9896C41.1784 40.7552 41.7617 41.1354 42.4805 41.1354H49.2669C49.9857 41.1354 50.569 40.7552 51.0169 39.9896V26.474C51.0169 25.224 50.0117 24.5938 47.9909 24.5938H44.3607C42.0742 24.5938 40.9336 25.0417 40.9336 25.9375C40.7982 25.9375 40.7305 26.1198 40.7305 26.474ZM35.9596 19.6875H55.7253C56.9805 19.6875 58.1888 20.3802 59.3555 21.7708C59.7148 22.2656 59.9596 23.5208 60.0951 25.5365L59.8919 25.9375C59.8919 26.25 59.9596 27.1927 60.0951 28.7604C59.9596 30.9635 59.8919 32.2396 59.8919 32.5938L60.0951 33.8698C60.0951 34.0104 60.0273 34.2083 59.8919 34.4792C60.0273 35.375 60.0951 36.1406 60.0951 36.7656C60.0951 39.4531 59.5326 41.2917 58.4128 42.276V42.4115C59.5326 43.4844 60.0951 45.0781 60.0951 47.1875C60.0951 48.3073 60.0273 49.5833 59.8919 51.0208C60.0273 53.349 60.0951 55.4323 60.0951 57.2708C60.0951 61.9792 59.668 64.3281 58.819 64.3281C58.1003 65.4531 56.6211 66.0104 54.3815 66.0104H37.3034C34.4753 66.0104 32.6419 64.8698 31.7878 62.5833C31.6992 59.3542 31.6523 57.4531 31.6523 56.8646C31.6523 55.3021 31.6992 53.349 31.7878 51.0208C31.6992 49.5365 31.6523 48.151 31.6523 46.849C31.6523 45.0573 32.2148 43.5781 33.3346 42.4115V42.276C32.2148 41.3802 31.6523 39.3437 31.6523 36.1563C31.6523 35.849 31.6992 35.3542 31.7878 34.6823L31.6523 33.8698C31.6523 33.7865 31.6992 33.2917 31.7878 32.3958C31.6992 30.5104 31.6523 29.2344 31.6523 28.5625L31.7878 25.9375C31.7878 25.8073 31.7461 25.7396 31.6523 25.7396C31.6523 22.599 32.5951 20.6927 34.4753 20.026C35.3711 19.8021 35.8659 19.6875 35.9596 19.6875Z" fill="#E11D25"/>
<path d="M299.169 427.027V415.803C299.169 414.412 298.586 413.719 297.419 413.719H290.633C289.466 413.719 288.883 414.412 288.883 415.803V427.027C288.883 427.787 289.466 428.308 290.633 428.574C290.857 428.574 291.997 428.506 294.06 428.376C294.237 428.376 295.362 428.443 297.419 428.574C298.586 428.308 299.169 427.787 299.169 427.027ZM299.169 448.136V434.626C298.721 433.865 298.138 433.48 297.419 433.48H290.633C289.914 433.48 289.331 433.865 288.883 434.626V448.136C288.883 449.402 289.888 450.027 291.909 450.027H295.539C297.82 450.027 298.966 449.574 298.966 448.683C299.102 448.683 299.169 448.495 299.169 448.136ZM303.94 454.933H284.174C282.919 454.933 281.711 454.24 280.544 452.839C280.185 452.35 279.94 451.094 279.805 449.079L280.008 448.683C280.008 448.36 279.94 447.428 279.805 445.855C279.94 443.652 280.008 442.376 280.008 442.027L279.805 440.745C279.805 440.615 279.872 440.412 280.008 440.136C279.872 439.24 279.805 438.48 279.805 437.855C279.805 435.162 280.362 433.318 281.487 432.334V432.199C280.362 431.136 279.805 429.532 279.805 427.428C279.805 426.308 279.872 425.027 280.008 423.6C279.872 421.266 279.805 419.188 279.805 417.35C279.805 412.641 280.232 410.282 281.081 410.282C281.799 409.162 283.279 408.6 285.518 408.6H302.596C305.419 408.6 307.258 409.745 308.112 412.042C308.201 415.266 308.247 417.173 308.247 417.745C308.247 419.318 308.201 421.266 308.112 423.6C308.201 425.079 308.247 426.469 308.247 427.777C308.247 429.558 307.685 431.042 306.565 432.199V432.334C307.685 433.24 308.247 435.282 308.247 438.454C308.247 438.777 308.201 439.266 308.112 439.933L308.247 440.745C308.247 440.839 308.201 441.334 308.112 442.225C308.201 444.11 308.247 445.386 308.247 446.053L308.112 448.683C308.112 448.813 308.154 448.881 308.247 448.881C308.247 452.016 307.305 453.923 305.419 454.6C304.529 454.813 304.034 454.933 303.94 454.933Z" fill="#E11D25"/>
<path d="M265.609 388C264.318 363.958 278.589 359.896 281.953 367.828C283.74 372.042 280.948 378.188 277.88 379.135C274.141 380.292 274.552 376.318 274.552 376.318C274.552 376.318 275.443 377.547 276.599 377.359C278.875 376.984 277.651 373.016 275.25 373.016C272.859 373.016 269.698 374.974 268.938 382.802C267.828 394.24 279.641 395.255 286.823 388.667C289.646 386.078 292.151 382.682 293.719 380.349C295.287 382.682 297.797 386.078 300.615 388.667C307.802 395.255 319.609 394.24 318.5 382.802C317.74 374.974 314.583 373.016 312.188 373.016C309.792 373.016 308.563 376.984 310.844 377.359C311.995 377.547 312.885 376.318 312.885 376.318C312.885 376.318 313.297 380.292 309.557 379.135C306.49 378.188 303.698 372.042 305.49 367.828C308.854 359.896 323.125 363.958 321.828 388C321.828 388 325.677 383.229 325.693 376.682C325.703 368.682 322.708 360.068 310.609 351.813C303.589 347.026 297.552 343.24 293.719 340.922C289.885 343.24 283.854 347.026 276.833 351.813C264.734 360.068 261.734 368.682 261.75 376.682C261.76 383.229 265.609 388 265.609 388Z" fill="#E11D25"/>
<path d="M74.2865 86.625C75.5782 110.656 61.3073 114.719 57.9427 106.792C56.1563 102.578 58.9479 96.4375 62.0104 95.4844C65.7552 94.3229 65.3438 98.2969 65.3438 98.2969C65.3438 98.2969 64.4532 97.0729 63.2969 97.2552C61.0209 97.625 62.2448 101.599 64.6407 101.599C67.0365 101.599 70.1927 99.6406 70.9584 91.8177C72.0677 80.3802 60.2552 79.3646 53.0677 85.9531C50.25 88.5312 47.7448 91.9375 46.1771 94.2708C44.6094 91.9375 42.099 88.5312 39.2813 85.9531C32.0938 79.3646 20.2865 80.3802 21.3959 91.8177C22.1563 99.6406 25.3125 101.599 27.7084 101.599C30.1042 101.599 31.3334 97.625 29.0521 97.2552C27.9011 97.0729 27.0104 98.2969 27.0104 98.2969C27.0104 98.2969 26.599 94.3229 30.3386 95.4844C33.4063 96.4375 36.1979 102.578 34.4063 106.792C31.0417 114.719 16.7709 110.656 18.0625 86.625C18.0625 86.625 14.2188 91.3854 14.2032 97.9271C14.1927 105.938 17.1875 114.552 29.2865 122.807C36.3073 127.594 42.3438 131.37 46.1771 133.698C50.0052 131.37 56.0417 127.594 63.0625 122.807C75.1615 114.552 78.1615 105.938 78.1459 97.9271C78.1354 91.3854 74.2865 86.625 74.2865 86.625Z" fill="#E11D25"/>
<path d="M252.409 175.224C256.195 245.724 214.341 257.641 204.472 234.38C199.222 222.016 207.409 204.01 216.404 201.219C227.378 197.812 226.169 209.469 226.169 209.469C226.169 209.469 223.565 205.875 220.175 206.417C213.492 207.495 217.086 219.146 224.117 219.146C231.149 219.146 240.409 213.411 242.638 190.463C245.893 156.917 211.253 153.932 190.169 173.255C181.904 180.828 174.55 190.812 169.956 197.661C165.357 190.812 157.998 180.828 149.737 173.255C128.654 153.932 94.0132 156.917 97.2632 190.463C99.4975 213.411 108.758 219.146 115.784 219.146C122.815 219.146 126.414 207.495 119.732 206.417C116.341 205.875 113.732 209.469 113.732 209.469C113.732 209.469 112.529 197.812 123.498 201.219C132.492 204.01 140.685 222.016 135.435 234.38C125.57 257.641 83.7059 245.724 87.4923 175.224C87.4923 175.224 76.2163 189.187 76.1798 208.385C76.1382 231.875 84.9246 257.161 120.414 281.349C141.013 295.401 158.716 306.479 169.956 313.307C181.19 306.479 198.893 295.401 219.487 281.349C254.977 257.161 263.768 231.875 263.722 208.385C263.69 189.187 252.409 175.224 252.409 175.224Z" fill="#E11D25"/>
</svg>
