<svg width="339" height="474" viewBox="0 0 339 474" fill="none" xmlns="http://www.w3.org/2000/svg">
<path d="M23.0495 473.651C10.5495 473.651 0.382812 463.479 0.382812 450.984V23.4528C0.382812 10.9528 10.5495 0.786133 23.0495 0.786133H315.867C328.362 0.786133 338.534 10.9528 338.534 23.4528V450.984C338.534 463.479 328.362 473.651 315.867 473.651H23.0495Z" fill="#849393"/>
<path d="M315.865 3.45312H271.693L267.667 14.5417L263.292 3.45312H23.0469C12 3.45312 3.04688 12.4063 3.04688 23.4531V450.984C3.04688 462.026 12 470.984 23.0469 470.984H67.2813L71.2552 460.078L75.5469 470.984H315.865C326.906 470.984 335.865 462.026 335.865 450.984V23.4531C335.865 12.4063 326.906 3.45312 315.865 3.45312Z" fill="white"/>
<path d="M60.7083 35.8229C60.7083 35.5521 60.599 35.4167 60.375 35.4167C59.2135 38.2448 58.4271 40.4635 58.026 42.0781C57.8385 42.0781 57.5313 42.974 57.0781 44.7656C56.8125 44.7656 56.4948 45.776 56.1354 47.7917C54.2552 51.1979 53.3177 53.6615 53.3177 55.1875C53.1354 55.1875 52.5729 56.5104 51.6406 59.151C51.3594 59.1979 51.2292 59.3333 51.2292 59.5573L51.4271 59.9583L50.8281 60.901C50.8646 61.125 51 61.2396 51.2292 61.2396H58.2292C59.3854 61.2396 60.2135 60.7448 60.7083 59.7604V35.8229ZM53.7188 39.7917C54.1198 39.1615 55.5625 35.3542 58.026 28.3594L59.375 25.401V25.1979C59.375 24.7969 58.6667 24.5938 57.2813 24.5938H51.974C50.1719 24.5938 49.1042 25.0417 48.7448 25.9375L48.9479 26.3438V46.6458C48.9479 47.901 48.8802 49.4271 48.7448 51.2188C48.8802 51.4427 48.9479 51.6927 48.9479 51.9583C49.349 51.9583 50.9323 47.901 53.7188 39.7917ZM69.8542 28.224V61.8438C69.3594 64.625 68.1458 66.0104 66.2292 66.0104H43.2292C41.2135 66.0104 40.026 64.5573 39.6667 61.6406V23.8542C39.6667 21.5677 41.0573 20.1823 43.8333 19.6875C43.9219 19.6875 43.9688 19.7344 43.9688 19.8229L45.3125 19.6875H64.1458C66.6927 19.6875 68.401 20.4271 69.2552 21.9063C69.651 23.2969 69.8542 25.401 69.8542 28.224ZM36.375 65.7448V66.0104H21.1094V65.7448C23.1302 64.625 24.1354 63.5885 24.1354 62.651V26.6146L23.8646 25.1354H23.1927L21.1094 25.401V25.1354C21.1563 24.8646 25.1198 22.3073 33.0104 17.4688L33.2813 18.0729V62.3125C33.2813 63.4792 34.3125 64.625 36.375 65.7448Z" fill="#E11D25"/>
<path d="M278.201 438.803C278.201 439.068 278.32 439.199 278.534 439.199C279.711 436.376 280.497 434.162 280.898 432.548C281.07 432.548 281.388 431.641 281.841 429.855C282.107 429.855 282.414 428.839 282.773 426.829C284.654 423.412 285.602 420.959 285.602 419.428C285.773 419.428 286.336 418.11 287.284 415.469C287.549 415.412 287.685 415.282 287.685 415.053L287.482 414.652L288.081 413.719C288.044 413.495 287.909 413.376 287.685 413.376H280.695C279.523 413.376 278.695 413.865 278.201 414.855V438.803ZM285.201 434.829C284.789 435.454 283.362 439.266 280.898 446.256L279.549 449.214V449.412C279.549 449.829 280.242 450.027 281.628 450.027H286.951C288.737 450.027 289.815 449.574 290.174 448.683L289.977 448.282V427.975C289.977 426.719 290.044 425.188 290.174 423.402C290.044 423.173 289.977 422.923 289.977 422.652C289.565 422.652 287.977 426.719 285.201 434.829ZM269.055 446.386V412.777C269.549 410.001 270.763 408.6 272.695 408.6H295.685C297.711 408.6 298.898 410.068 299.258 412.975V450.761C299.258 453.053 297.857 454.443 295.081 454.933C294.987 454.933 294.951 454.881 294.951 454.803L293.602 454.933H274.773C272.216 454.933 270.523 454.188 269.669 452.709C269.258 451.318 269.055 449.214 269.055 446.386ZM302.549 408.881V408.6H317.805V408.881C315.789 410.001 314.773 411.027 314.773 411.975V448.001L315.044 449.48H315.721L317.805 449.214V449.48C317.763 449.761 313.789 452.308 305.909 457.146L305.643 456.548V412.308C305.643 411.136 304.602 410.001 302.549 408.881Z" fill="#E11D25"/>
<path d="M265.12 388C263.828 363.958 278.094 359.896 281.469 367.828C283.255 372.042 280.453 378.188 277.386 379.135C273.651 380.292 274.068 376.318 274.068 376.318C274.068 376.318 274.948 377.547 276.104 377.359C278.386 376.984 277.162 373.016 274.761 373.016C272.36 373.016 269.214 374.974 268.453 382.802C267.334 394.24 279.146 395.255 286.334 388.667C289.162 386.078 291.667 382.682 293.229 380.349C294.802 382.682 297.307 386.078 300.12 388.667C307.307 395.255 319.12 394.24 318.016 382.802C317.255 374.974 314.094 373.016 311.693 373.016C309.292 373.016 308.068 376.984 310.349 377.359C311.505 377.547 312.401 376.318 312.401 376.318C312.401 376.318 312.802 380.292 309.068 379.135C306 378.188 303.214 372.042 305 367.828C308.36 359.896 322.625 363.958 321.334 388C321.334 388 325.188 383.229 325.198 376.682C325.214 368.682 322.214 360.068 310.12 351.813C303.094 347.026 297.052 343.24 293.229 340.922C289.401 343.24 283.36 347.026 276.349 351.813C264.24 360.068 261.24 368.682 261.266 376.682C261.266 383.229 265.12 388 265.12 388Z" fill="#E11D25"/>
<path d="M73.8034 86.625C75.0951 110.656 60.8139 114.719 57.4545 106.792C55.668 102.578 58.4545 96.4375 61.5222 95.4844C65.267 94.3229 64.8555 98.2969 64.8555 98.2969C64.8555 98.2969 63.9597 97.0729 62.8034 97.2552C60.5326 97.625 61.7618 101.599 64.1472 101.599C66.5482 101.599 69.7097 99.6406 70.4701 91.8177C71.5743 80.3802 59.7618 79.3646 52.5743 85.9531C49.7618 88.5365 47.2566 91.9375 45.6837 94.2708C44.1212 91.9375 41.6107 88.5365 38.793 85.9531C31.6055 79.3646 19.7982 80.3802 20.9076 91.8177C21.668 99.6406 24.8243 101.599 27.2201 101.599C29.6159 101.599 30.8451 97.625 28.5639 97.2552C27.4076 97.0729 26.517 98.2969 26.517 98.2969C26.517 98.2969 26.1107 94.3229 29.8503 95.4844C32.918 96.4375 35.7045 102.578 33.918 106.792C30.5534 114.719 16.2826 110.656 17.5743 86.625C17.5743 86.625 13.7305 91.3854 13.7149 97.9323C13.6993 105.937 16.6993 114.552 28.7982 122.807C35.8191 127.594 41.8555 131.375 45.6837 133.698C49.5222 131.375 55.5482 127.594 62.5743 122.807C74.668 114.552 77.668 105.937 77.6524 97.9323C77.642 91.3854 73.8034 86.625 73.8034 86.625Z" fill="#E11D25"/>
<path d="M251.923 175.224C255.71 245.724 213.84 257.641 203.975 234.38C198.736 222.016 206.923 204.01 215.908 201.219C226.882 197.812 225.684 209.463 225.684 209.463C225.684 209.463 223.069 205.875 219.684 206.417C213.001 207.495 216.6 219.146 223.626 219.146C230.652 219.146 239.923 213.411 242.147 190.463C245.402 156.917 210.762 153.932 189.684 173.255C181.413 180.828 174.054 190.812 169.47 197.661C164.866 190.812 157.507 180.828 149.241 173.255C128.163 153.932 93.5223 156.917 96.7723 190.463C99.0015 213.411 108.267 219.146 115.293 219.146C122.319 219.146 125.923 207.495 119.241 206.417C115.856 205.875 113.241 209.463 113.241 209.463C113.241 209.463 112.043 197.812 123.001 201.219C132.001 204.01 140.189 222.016 134.949 234.38C125.08 257.641 83.215 245.724 87.0014 175.224C87.0014 175.224 75.7202 189.187 75.6837 208.391C75.6421 231.875 84.4285 257.161 119.923 281.349C140.522 295.401 158.231 306.479 169.47 313.307C180.694 306.479 198.402 295.401 219.001 281.349C254.481 257.161 263.283 231.875 263.231 208.391C263.199 189.187 251.923 175.224 251.923 175.224Z" fill="#E11D25"/>
</svg>
