<svg width="339" height="474" viewBox="0 0 339 474" fill="none" xmlns="http://www.w3.org/2000/svg">
<path d="M23.2917 473.151C10.7917 473.151 0.625 462.979 0.625 450.484V22.9479C0.625 10.4531 10.7917 0.28125 23.2917 0.28125H316.115C328.609 0.28125 338.781 10.4531 338.781 22.9479V450.484C338.781 462.979 328.609 473.151 316.115 473.151H23.2917Z" fill="#849393"/>
<path d="M316.116 2.94824H271.939L267.908 14.042L263.538 2.94824H23.293C12.2461 2.94824 3.29297 11.9066 3.29297 22.9482V450.485C3.29297 461.526 12.2461 470.485 23.293 470.485H67.5273L71.4961 459.573L75.7982 470.485H316.116C327.158 470.485 336.116 461.526 336.116 450.485V22.9482C336.116 11.9066 327.158 2.94824 316.116 2.94824Z" fill="white"/>
<path d="M225.354 418.911C225.354 376.172 252.661 339.823 290.781 326.318V48.2812H113.823C113.958 50.4115 114.052 52.5469 114.052 54.6927C114.052 97.4375 86.7448 133.786 48.625 147.292V425.151H225.568C225.438 423.083 225.354 421.01 225.354 418.911Z" fill="#F1EAD7"/>
<path d="M39.6419 19.1875H51.4753V19.4531C50.4492 20.6667 49.9284 21.6927 49.9284 22.5469V46.0156C49.9284 47.9323 50.043 50.625 50.2669 54.0781C50.2669 57.0781 48.1888 60.2917 44.0326 63.6927C41.5534 64.9063 39.0638 65.5052 36.5482 65.5052L35.0742 65.2396V64.9063C39.1523 62.2656 41.1888 58.8542 41.1888 54.6823V22.5469C41.1888 21.6927 40.6732 20.6667 39.6419 19.4531V19.1875Z" fill="#E11D25"/>
<path d="M299.763 454.427H287.93V454.162C288.961 452.948 289.477 451.917 289.477 451.068V427.599C289.477 425.672 289.362 422.985 289.138 419.532C289.138 416.532 291.216 413.323 295.372 409.917C297.852 408.709 300.346 408.104 302.857 408.104L304.336 408.37V408.709C300.258 411.354 298.216 414.761 298.216 418.927V451.068C298.216 451.917 298.732 452.948 299.763 454.162V454.427Z" fill="#E11D25"/>
<path d="M265.367 387.49C264.076 363.459 278.346 359.396 281.706 367.323C283.497 371.542 280.706 377.677 277.638 378.631C273.898 379.792 274.31 375.818 274.31 375.818C274.31 375.818 275.201 377.042 276.357 376.86C278.633 376.49 277.409 372.516 275.008 372.516C272.612 372.516 269.456 374.474 268.695 382.297C267.586 393.735 279.398 394.75 286.581 388.162C289.404 385.578 291.909 382.177 293.477 379.844C295.044 382.177 297.55 385.578 300.367 388.162C307.555 394.75 319.367 393.735 318.258 382.297C317.497 374.474 314.341 372.516 311.945 372.516C309.544 372.516 308.32 376.49 310.596 376.86C311.753 377.042 312.643 375.818 312.643 375.818C312.643 375.818 313.055 379.792 309.315 378.631C306.247 377.677 303.456 371.542 305.247 367.323C308.607 359.396 322.878 363.459 321.586 387.49C321.586 387.49 325.435 382.729 325.445 376.183C325.461 368.177 322.466 359.563 310.367 351.313C303.346 346.521 297.31 342.74 293.477 340.417C289.643 342.74 283.607 346.521 276.586 351.313C264.487 359.563 261.492 368.177 261.508 376.183C261.518 382.729 265.367 387.49 265.367 387.49Z" fill="#E11D25"/>
<path d="M74.0443 86.1198C75.336 110.161 61.0651 114.214 57.7005 106.292C55.9141 102.078 58.7005 95.9323 61.7683 94.9844C65.513 93.8281 65.0964 97.8021 65.0964 97.8021C65.0964 97.8021 64.211 96.5729 63.0547 96.7604C60.7735 97.1198 62.0026 101.094 64.3985 101.094C66.7943 101.094 69.9505 99.1458 70.711 91.3177C71.8203 79.8802 60.013 78.8646 52.8255 85.4531C50.0078 88.026 47.4974 91.4375 45.9297 93.7708C44.362 91.4375 41.8568 88.026 39.0391 85.4531C31.8516 78.8646 20.0391 79.8802 21.1485 91.3177C21.9141 99.1458 25.0703 101.094 27.4662 101.094C29.862 101.094 31.086 97.1198 28.8099 96.7604C27.6537 96.5729 26.763 97.8021 26.763 97.8021C26.763 97.8021 26.3568 93.8281 30.0964 94.9844C33.1589 95.9323 35.9558 102.078 34.1641 106.292C30.7995 114.214 16.5287 110.161 17.8203 86.1198C17.8203 86.1198 13.9766 90.8802 13.961 97.4271C13.9505 105.438 16.9453 114.052 29.0443 122.307C36.0651 127.094 42.1016 130.865 45.9297 133.198C49.763 130.865 55.7995 127.094 62.8203 122.307C74.9193 114.052 77.9193 105.438 77.9037 97.4271C77.888 90.8802 74.0443 86.1198 74.0443 86.1198Z" fill="#E11D25"/>
<path d="M187.193 174.88C185.635 174.88 184 174.385 182.422 173.922C181.193 173.547 179.922 173.172 178.693 173.026L178.542 173L178.458 172.88C178.245 172.563 178.099 172.229 178.016 171.839L177.969 171.641L178.13 171.505C178.906 170.88 179.354 169.932 179.354 168.932C179.354 167.094 177.859 165.599 176.021 165.599C174.922 165.599 173.932 166.12 173.297 167.016L173.203 167.146H173.036C172.578 167.146 172.453 166.906 172.417 166.802L172.391 166.719L172.406 166.641C173.031 162.771 175.182 160.641 178.464 160.641C181.516 160.641 185.224 162.563 187.911 165.521C190.198 168.052 191.318 170.854 191.068 173.385L191.052 173.531L190.938 173.615C189.854 174.469 188.63 174.88 187.193 174.88ZM145.615 184.411C143.224 184.411 141.224 183.667 139.833 182.255L139.688 182.104L140.078 181.042C142.641 174.042 145.286 166.786 154.031 165.693L154.26 165.667L154.365 165.865C154.687 166.479 154.964 166.932 155.198 167.333C155.953 168.599 156.328 169.229 156.401 171.349L156.417 171.745L156.016 171.682C155.854 171.667 155.698 171.641 155.552 171.625C155.177 171.531 154.87 171.495 154.573 171.495C152.734 171.495 151.24 172.984 151.24 174.828C151.24 176.667 152.734 178.161 154.573 178.161C154.792 178.161 155.016 178.135 155.234 178.094L155.781 177.984L155.62 178.505C154.641 181.771 150.151 184.411 145.615 184.411Z" fill="#98D320"/>
<path d="M188.126 201.692C188.449 201.692 187.564 201.255 187.704 201.135C187.803 201.052 187.986 200.291 187.986 200.161C187.986 199.864 188.772 199.385 188.595 199.385L189.111 199.333C189.684 199.333 190.184 199.906 190.184 200.562C190.184 200.896 190.048 201.187 189.798 201.401C189.527 201.625 189.142 201.744 188.652 201.744L188.126 201.692ZM162.402 211.015H165.699L165.73 211.307C165.944 213.119 164.465 213.375 163.382 213.562C163.189 213.599 162.996 213.64 162.809 213.682L162.402 213.76V211.015Z" fill="#E1F5F9"/>
<path d="M263.97 117.016C263.449 116.88 262.98 116.667 262.548 116.375C259.152 114.026 260.262 107.615 261.152 102.469C261.402 101.042 261.632 99.7083 261.72 98.6667L261.751 98.3594H267.632L267.704 98.5885C268.793 101.932 269.215 105.896 268.84 109.198C268.361 113.255 266.751 115.958 264.178 117L264.079 117.052L263.97 117.016ZM185.35 139.693C184.106 139.495 183.272 138.906 182.47 138.318C181.527 137.651 180.637 137.016 179.1 137.016C178.986 137.016 178.871 137.026 178.751 137.026L178.402 137.052V136.693C178.418 123.255 182.97 113.573 189.788 103.172L190.184 102.573L190.387 103.266C192.569 110.745 190.22 117.146 187.949 123.349C185.939 128.828 184.043 134 185.72 139.266L185.882 139.771L185.35 139.693ZM131.845 158.266C131.158 157.615 130.47 156.948 129.788 156.292C120.069 146.813 112.434 137.411 106.454 127.531L106.954 127.104C109.069 128.839 111.194 130.641 113.246 132.375C118.918 137.146 124.788 142.104 131.095 146.411C132.803 147.589 134.533 148.708 136.246 149.734L136.491 149.88L136.382 150.146C135.923 151.292 135.257 152.24 134.611 153.161C133.595 154.589 132.642 155.948 132.408 158.052L132.329 158.734L131.845 158.266ZM271.491 203.682C271.454 203.667 271.418 203.667 271.392 203.651L271.121 203.563L271.163 203.281C272.236 196.255 272.98 188.828 273.376 181.214C274.569 158.104 272.512 134.625 267.73 116.786L267.678 116.573L267.84 116.438C268.814 115.615 269.746 115.198 270.611 115.198C272.517 115.198 274.043 117.188 275.147 121.135C275.757 123.292 276.105 125.531 276.34 127.016L276.382 127.307C280.251 151.641 276.954 184.693 271.887 203.438L271.803 203.76L271.491 203.682ZM49.517 220.786C42.918 220.786 35.9492 215.693 35.7565 212.042C35.6732 210.495 35.918 209.411 36.5013 208.734C36.9701 208.188 37.668 207.906 38.5795 207.906C40.168 207.906 42.2982 208.745 44.5534 209.641L45.517 210.016C47.6367 210.839 50.0638 211.719 52.0899 211.719C52.3034 211.719 52.5117 211.708 52.7149 211.682L52.9701 211.667L53.0586 211.906C53.7878 213.865 54.392 218.318 53.017 220.214L52.9492 220.307L52.8399 220.333C51.793 220.641 50.6732 220.786 49.517 220.786ZM176.121 149.24C172.59 149.24 168.329 152.521 167.783 156.839C169.116 156.255 170.085 155.292 171.106 154.292C172.559 152.865 174.064 151.385 176.689 151.026L176.736 151.016L176.783 151.026C177.913 151.188 178.543 151.828 179.152 152.438C179.673 152.958 180.173 153.469 180.986 153.641C180.152 149.828 177.6 149.24 176.121 149.24ZM144.819 156.948C146.35 158.068 150.788 159.708 154.579 159.708C157.632 159.708 159.345 158.667 159.678 156.599C158.356 157.214 156.803 157.505 154.84 157.505C153.408 157.505 151.902 157.349 150.444 157.198C148.996 157.052 147.496 156.906 146.085 156.906C145.637 156.906 145.22 156.922 144.819 156.948ZM177.121 158.839C174.928 158.839 172.095 159.521 171.053 162.786C170.204 165.453 170.533 167.854 172.033 169.896C175.152 174.161 183.121 176.401 189.376 176.401C189.382 176.401 189.382 176.401 189.382 176.401C189.788 176.401 190.184 176.385 190.553 176.359C193.053 172.828 192.298 169.563 191.21 167.427C188.84 162.771 182.387 158.839 177.121 158.839ZM138.986 185.104C141.064 186.016 143.132 186.469 145.132 186.469C151.553 186.469 155.913 181.896 157.85 177.615C159.887 173.104 159.616 168.385 157.152 165.573C155.902 164.146 154.413 163.427 152.72 163.427C149.132 163.427 144.751 166.76 141.553 171.922C138.47 176.906 137.491 181.932 138.986 185.104ZM181.954 183.104C181.027 183.521 179.908 183.865 178.548 184.172C176.356 184.651 173.829 184.948 171.382 185.229C164.757 185.984 157.902 186.771 157.064 191.411C156.527 194.401 158.85 196.375 160.897 197.495C163.632 198.984 167.699 199.958 171.257 199.958C172.309 199.958 173.251 199.865 173.991 199.693C177.517 198.88 180.913 195.547 182.444 191.411C183.6 188.292 183.418 185.281 181.954 183.104ZM160.553 208.573C161.579 212.958 160.319 215.625 159.298 217.802C159.069 218.292 158.85 218.76 158.668 219.229C159.564 218.641 160.491 218.016 161.46 217.359C170.043 211.615 181.798 203.745 191.647 203.745C192.949 203.745 194.199 203.896 195.376 204.161C194.059 202.12 190.736 198.495 188.085 196.453C186.803 197.667 186.741 198.563 186.637 199.974C186.59 200.573 186.543 201.255 186.397 202.078L186.361 202.281L186.168 202.349C183.309 203.229 180.678 204.505 178.126 205.745C174.038 207.745 170.173 209.615 165.918 209.615C164.1 209.625 162.34 209.281 160.553 208.573ZM162.876 226.224C151.142 226.224 141.434 223 135.538 217.146C134.053 215.667 132.788 214 131.783 212.172C128.246 205.771 127.866 196.266 128.173 189.427C128.288 186.865 128.517 184.172 128.856 181.427C130.856 165.682 136.194 151.026 141.85 145.786C146.366 141.599 153.621 138.948 164.027 137.693C165.309 137.547 166.595 137.469 167.861 137.469C177.397 137.469 186.319 141.958 193.652 150.469C194.564 151.531 195.481 152.651 196.371 153.813C199.465 157.865 202.329 162.401 204.652 166.922C209.897 177.161 216.913 196.411 204.986 210.24C196.861 219.651 179.548 226.224 162.876 226.224ZM216.48 230.245C215.501 229.182 214.449 228.141 213.434 227.141C210.923 224.651 208.324 222.078 206.449 218.854L206.293 218.589L206.538 218.411C209.132 216.563 211.642 214.667 214.007 212.802C238.553 193.385 266.637 161.078 261.059 117.401L261.012 117.026H261.387C261.757 117.026 262.1 117.068 262.449 117.135C268.647 118.427 269.819 130.745 269.053 136.734C268.585 140.359 267.882 144.094 266.949 147.839C261.09 171.411 246.038 196.693 226.694 215.479C223.939 218.146 221.147 220.625 218.397 222.844C218.397 224.151 218.022 225.083 217.658 225.984C217.21 227.109 216.783 228.172 217.059 229.969L217.225 231.047L216.48 230.245ZM287.079 265.885C289.98 258.604 292.475 250.141 294.486 240.729C296.23 232.557 297.527 224.047 298.345 215.438C299.871 199.281 300.444 175.214 294.46 152.266C289.553 133.453 281.277 119.563 269.855 110.958L269.72 110.865V110.693C269.72 110.318 269.757 109.88 269.824 109.375C269.934 108.625 270.105 107.854 270.277 107.104C270.809 104.786 271.303 102.589 269.871 101.641L270.199 101.068C277.064 104.385 283.184 109.333 288.387 115.745C301.871 132.349 309.199 159.385 308.48 189.896C307.809 218.734 300.027 247.26 287.668 266.193L287.079 265.885ZM76.5118 282.245C69.4545 275.214 58.7461 262.422 51.7878 249.51C51.1107 248.245 50.4701 246.911 49.8815 245.547C47.0482 238.948 45.4336 231.479 45.0899 223.365L45.0742 222.984L45.4492 223.021C45.7513 223.047 46.0899 223.057 46.4805 223.057C46.9961 223.057 47.5326 223.036 48.0638 223.016C48.6107 222.995 49.1524 222.969 49.6732 222.969C50.8659 222.969 51.6732 223.089 52.293 223.359C52.5638 223.474 52.7878 223.609 52.9701 223.766L53.0795 223.865V224.01C53.5274 243.651 65.6159 264.375 74.668 278.255C75.4597 279.474 76.2461 280.661 77.0274 281.823L76.5118 282.245ZM201.382 245.234C202.397 245.677 203.34 246.479 204.262 247.26C205.397 248.224 206.47 249.13 207.434 249.13C207.559 249.13 207.684 249.115 207.803 249.083C209.762 243.568 207.23 237.755 203.632 235.234C203.501 236.479 204.246 237.583 205.09 238.849C206.361 240.734 207.934 243.078 207.059 246.76L206.98 247.083L206.658 247.01C206.09 246.88 205.465 246.495 204.809 246.094C203.928 245.552 203.022 244.995 202.204 244.995C201.902 244.995 201.632 245.073 201.382 245.234ZM184.204 254.38C188.757 256.458 193.902 258.807 193.751 266.255C198.835 264.885 199.314 257.484 199.704 251.505C199.85 249.281 199.986 247.167 200.34 245.573C200.158 245.521 199.986 245.5 199.84 245.5C199.543 245.5 199.309 245.594 199.116 245.786C198.251 246.661 198.288 249.396 198.319 252.042C198.371 256.479 198.434 261.51 194.751 261.677L194.481 261.688L194.413 261.427C193.069 256.26 188.376 253.906 184.585 253.906C184.402 253.906 184.215 253.911 184.027 253.922C179.887 254.167 177.033 256.958 176.397 261.391L176.345 261.766L175.975 261.667C170.96 260.255 168.413 256.266 168.397 249.813C167.632 250.12 167.059 250.641 166.465 251.188C165.522 252.047 164.543 252.938 162.751 253.016L162.444 253.031L162.402 252.729C161.731 247.734 163.309 244.948 164.835 242.245C165.027 241.901 165.225 241.557 165.413 241.203C163.668 241.839 162.642 243.432 162.074 244.734C160.366 248.661 160.731 254.24 162.184 256.88C162.59 256.573 162.876 256.115 163.173 255.635C163.741 254.719 164.382 253.682 166.022 253.682H166.178L166.324 253.807C167.251 254.927 168.074 256.172 168.871 257.37C171.064 260.667 173.132 263.781 177.225 264.948C177.6 264.156 177.923 263.245 178.262 262.281C179.319 259.297 180.512 255.917 183.928 254.38L184.069 254.318L184.204 254.38ZM181.793 291.828C181.866 291.849 181.944 291.859 182.027 291.859C182.481 291.859 183.064 291.547 183.678 291.214C184.533 290.755 185.501 290.234 186.616 290.234C187.137 290.234 187.637 290.349 188.126 290.583C187.647 289.573 186.777 289.01 185.642 289.01C184.132 289.01 182.329 290.057 181.793 291.828ZM139.382 329.135C137.569 329.135 135.746 328.865 133.975 328.323L133.668 328.229L133.751 327.917C135.621 321.141 138.329 314.557 141.199 307.589C145.163 297.969 149.257 288.021 151.079 277.286C151.512 274.719 151.783 272.12 152.038 269.599C152.71 263.078 153.35 256.906 156.652 251.271C155.6 251.823 155.199 253.063 154.777 254.365C154.491 255.245 154.194 256.161 153.678 256.875L153.324 257.359L153.1 256.802C152.501 255.318 152.642 253.755 152.777 252.25C152.949 250.375 153.126 248.438 151.96 246.464C151.517 246.875 151.626 247.99 151.731 249.068C151.809 249.911 151.897 250.781 151.731 251.432L151.595 251.979L151.178 251.594C147.382 248.042 143.402 245.828 139.34 245.01C131.621 243.458 123.189 242.484 114.267 241.453C95.4805 239.281 76.0586 237.036 61.7461 229.073C58.8034 227.438 56.1472 225.599 53.8607 223.599L53.6211 223.391L53.819 223.146C55.4701 221.052 56.8555 217.932 55.7774 215.479L55.4545 214.745L56.1992 215.042C58.7513 216.026 61.3555 217.068 64.0117 218.135C83.6576 225.974 105.923 234.865 131.251 234.865C138.918 234.865 146.559 234.026 153.965 232.365C154.6 232.068 155.152 231.62 155.762 230.911C156.053 230.583 156.324 230.24 156.59 229.901C156.975 229.406 157.376 228.901 157.835 228.448L157.918 228.359L159.106 228.276C171.512 227.375 190.257 226.016 199.163 217.12L199.356 216.922L199.585 217.068C213.335 226.104 222.73 245.474 224.095 267.615C224.418 272.786 224.293 278.089 223.725 283.38C222.194 297.781 211.059 317.786 204.298 324.245C201.736 326.693 199.512 327.88 197.501 327.88C193.668 327.88 191.272 323.578 188.731 319.021C188.204 318.073 187.673 317.115 187.116 316.172L186.861 315.745L187.356 315.672C193.777 314.74 200.413 312.745 201.6 305.177C196.173 311.854 185.626 315.885 173.059 316.016L172.475 316.021C166.069 316.021 159.829 314.979 154.871 313.083C154.673 313.438 154.616 313.729 154.689 313.974C154.856 314.542 155.762 314.927 156.725 315.333C158.048 315.896 159.543 316.531 159.731 317.958L159.751 318.115L159.647 318.224C155.996 322.302 148.507 329.135 139.382 329.135ZM76.267 357.974C50.142 330.505 21.6784 283.682 34.4284 216.625L34.4805 216.333L34.7722 216.349C37.8242 216.531 39.9753 217.469 41.3555 219.214C44.142 222.745 43.0742 228.875 42.0378 234.802C41.6315 237.135 41.2461 239.344 41.0847 241.375C39.6211 260.323 44.7722 286.74 56.3972 319.896C60.6003 331.88 66.0326 340.432 72.319 350.333C73.7878 352.641 75.3034 355.026 76.8399 357.516L77.0065 357.792L76.7722 357.948L76.5586 358.25L76.267 357.974Z" fill="#ED1D24"/>
<path d="M269.053 136.734C269.73 131.437 268.897 121.239 264.434 118.026C264.84 119.838 265.611 124.067 265.736 130.521C265.902 139.359 263.569 150.026 252.569 173.359C241.569 196.692 227.236 207.026 222.069 213.187C219.47 216.291 216.621 217.375 214.574 216.718C214.553 216.625 214.543 216.562 214.569 216.521C214.928 215.974 214.111 214.547 213.288 213.359C211.137 215.041 208.871 216.744 206.538 218.411L206.293 218.588L206.449 218.854C208.324 222.078 210.923 224.651 213.434 227.14C214.449 228.14 215.501 229.182 216.48 230.244L217.225 231.047L217.059 229.968C216.783 228.172 217.21 227.109 217.658 225.984C218.022 225.083 218.397 224.151 218.397 222.843C221.147 220.625 223.939 218.146 226.694 215.479C246.038 196.692 261.09 171.411 266.949 147.838C267.882 144.093 268.585 140.359 269.053 136.734ZM138.309 181.411C138.376 178.599 139.491 175.255 141.553 171.922C144.751 166.76 149.132 163.427 152.72 163.427C154.413 163.427 155.902 164.146 157.152 165.573C159.616 168.385 159.887 173.104 157.85 177.614C155.913 181.896 151.553 186.468 145.132 186.468C144.512 186.468 143.887 186.411 143.257 186.333C146.418 187.651 150.428 187.281 154.069 184.187C161.699 177.718 164.043 158.692 158.965 158.198C158.147 159.198 156.694 159.708 154.579 159.708C152.694 159.708 150.647 159.307 148.876 158.76C144.392 159.614 138.048 169.161 137.569 177.026C137.47 178.614 137.746 180.093 138.309 181.411ZM138.069 158.692C136.09 162.052 139.069 163.026 139.736 159.854C140.402 156.692 139.736 155.854 138.069 158.692ZM177.121 158.838C174.928 158.838 172.095 159.521 171.053 162.786C170.204 165.453 170.533 167.854 172.033 169.896C175.152 174.161 183.121 176.401 189.376 176.401C189.382 176.401 189.382 176.401 189.382 176.401C189.788 176.401 190.184 176.385 190.553 176.359C193.053 172.828 192.298 169.562 191.21 167.427C188.84 162.771 182.387 158.838 177.121 158.838ZM164.027 137.692C165.309 137.547 166.595 137.468 167.861 137.468C177.397 137.468 186.319 141.958 193.652 150.468C194.564 151.531 195.481 152.651 196.371 153.812C199.465 157.864 202.329 162.401 204.652 166.922C209.897 177.161 216.913 196.411 204.986 210.239C196.861 219.651 179.548 226.224 162.876 226.224C154.678 226.224 147.47 224.646 141.861 221.692C142.085 221.734 142.428 221.838 142.902 222.026C148.902 224.359 158.902 225.359 176.902 219.854C194.783 214.385 191.121 204 189.6 203.864C190.293 203.786 190.975 203.744 191.647 203.744C192.949 203.744 194.199 203.896 195.376 204.161C194.059 202.119 190.736 198.494 188.085 196.453C186.803 197.666 186.741 198.562 186.637 199.974C186.59 200.573 186.543 201.255 186.397 202.078L186.361 202.281L186.168 202.349C183.309 203.229 180.678 204.505 178.126 205.744C179.184 204.974 179.902 201.026 175.736 200.854C174.277 200.802 172.366 200.411 170.501 199.932C170.757 199.948 171.012 199.958 171.257 199.958C172.309 199.958 173.251 199.864 173.991 199.692C177.517 198.88 180.913 195.547 182.444 191.411C183.6 188.291 183.418 185.281 181.954 183.104C182.173 181.854 180.902 181.187 174.736 177.359C171.382 175.265 170.246 171.119 169.908 167.76C167.939 162.682 169.137 156.812 170.496 154.88C170.699 154.692 170.902 154.494 171.106 154.291C172.559 152.864 174.064 151.385 176.689 151.026L176.736 151.015L176.783 151.026C177.913 151.187 178.543 151.828 179.152 152.437C179.673 152.958 180.173 153.468 180.986 153.64C180.152 149.828 177.6 149.239 176.121 149.239C172.59 149.239 168.329 152.521 167.783 156.838C165.663 159 165.236 149.521 166.902 144.692C168.079 141.281 163.111 139.198 160.09 138.265C161.35 138.052 162.658 137.864 164.027 137.692ZM179.621 137.041C180.845 137.172 181.637 137.734 182.47 138.317C183.272 138.906 184.106 139.494 185.35 139.692L185.882 139.771L185.72 139.265C184.043 134 185.939 128.828 187.949 123.349C190.22 117.146 192.569 110.744 190.387 103.265L190.184 102.573L189.788 103.172C191.345 108 190.069 112.026 187.902 119.026C185.736 126.026 183.902 132.187 181.902 132.692C180.892 132.948 179.887 130.317 179.178 127.588C178.678 130.437 178.408 133.453 178.402 136.692C178.767 136.692 179.178 136.828 179.621 137.041ZM138.069 165.026C138.236 164.521 137.236 162.359 136.736 165.026C136.361 167.015 137.902 165.521 138.069 165.026ZM294.46 152.265C295.397 155.864 296.173 159.479 296.809 163.104C297.017 161.172 296.939 158.187 296.402 153.692C294.069 134.187 285.736 117.854 277.402 113.692C271.371 110.682 270.84 104.614 271.007 101.479C270.736 101.349 270.475 101.198 270.199 101.067L269.871 101.64C271.303 102.588 270.809 104.786 270.277 107.104C270.105 107.854 269.934 108.625 269.824 109.375C269.757 109.88 269.72 110.317 269.72 110.692V110.864L269.855 110.958C281.277 119.562 289.553 133.453 294.46 152.265ZM304.491 150.453C304.803 161.479 304.98 178.666 303.736 192.359C302.085 210.521 299.517 233.333 292.204 250.213C290.678 255.896 288.97 261.146 287.079 265.885L287.668 266.192C300.027 247.26 307.809 218.734 308.48 189.896C308.814 175.771 307.418 162.401 304.491 150.453ZM271.491 203.682L271.803 203.76L271.887 203.437C276.954 184.692 280.251 151.64 276.382 127.307L276.34 127.015C276.105 125.531 275.757 123.291 275.147 121.135C274.043 117.187 272.517 115.198 270.611 115.198C270.585 115.198 270.553 115.198 270.527 115.198C271.569 119.135 274.116 129.255 274.902 137.521C275.902 148.026 277.236 168.026 274.569 180.187C274.043 182.588 273.527 184.692 273.033 186.599C272.605 192.333 271.98 197.922 271.163 203.281L271.121 203.562L271.392 203.651C271.418 203.666 271.454 203.666 271.491 203.682ZM300.569 147.854C299.736 144.854 297.736 149.692 299.069 153.359C300.329 156.838 301.402 150.854 300.569 147.854ZM299.736 141.692C298.569 137.854 297.236 136.521 297.736 139.692C298.319 143.401 300.902 145.521 299.736 141.692ZM268.147 112.349C265.871 112.198 261.803 108.948 260.397 107.505C260.007 111.239 260.215 114.76 262.548 116.375C262.814 116.562 263.1 116.692 263.402 116.812L264.178 117C266.012 116.255 267.35 114.666 268.147 112.349ZM203.632 235.234C203.501 236.479 204.246 237.583 205.09 238.849C206.361 240.734 207.934 243.078 207.059 246.76L206.98 247.083L206.658 247.01C206.09 246.88 205.465 246.494 204.809 246.093C203.928 245.552 203.022 244.994 202.204 244.994C201.902 244.994 201.632 245.073 201.382 245.234C202.397 245.677 203.34 246.479 204.262 247.26C205.397 248.224 206.47 249.13 207.434 249.13C207.559 249.13 207.684 249.114 207.803 249.083C209.762 243.567 207.23 237.755 203.632 235.234ZM224.095 267.614C224.418 272.786 224.293 278.088 223.725 283.38C222.194 297.781 211.059 317.786 204.298 324.244C201.736 326.692 199.512 327.88 197.501 327.88C193.668 327.88 191.272 323.578 188.731 319.021C188.204 318.073 187.673 317.114 187.116 316.172L186.861 315.744L187.356 315.672C193.777 314.739 200.413 312.744 201.6 305.177C196.173 311.854 185.626 315.885 173.059 316.015L172.475 316.021C167.09 316.021 161.845 315.276 157.361 313.916C157.382 313.88 157.402 313.859 157.402 313.859C157.402 313.859 165.736 313.859 166.236 313.859C166.736 313.859 177.902 314.192 185.236 308.692C192.569 303.192 201.902 292.192 202.902 281.692C203.902 271.192 198.902 266.026 198.402 266.526C197.902 267.026 191.569 269.359 191.569 269.359C191.569 269.359 191.569 265.859 190.569 264.192C189.569 262.526 186.069 259.859 186.069 259.859C186.069 259.859 186.069 259.859 182.569 262.192C179.069 264.526 179.569 268.026 179.569 268.026C179.569 268.026 177.069 267.692 173.902 265.692C170.736 263.692 165.736 256.692 165.736 256.692L164.402 257.692L163.736 258.859L162.184 256.88C162.59 256.573 162.876 256.114 163.173 255.635C163.741 254.718 164.382 253.682 166.022 253.682H166.178L166.324 253.807C167.251 254.927 168.074 256.172 168.871 257.369C171.064 260.666 173.132 263.781 177.225 264.948C177.6 264.156 177.923 263.244 178.262 262.281C179.064 260.021 179.944 257.536 181.809 255.797L183.772 254.458C183.829 254.432 183.876 254.406 183.928 254.38L184.069 254.317L184.204 254.38C188.757 256.458 193.902 258.807 193.751 266.255C198.835 264.885 199.314 257.484 199.704 251.505C199.85 249.281 199.986 247.166 200.34 245.573C200.158 245.521 199.986 245.5 199.84 245.5C199.543 245.5 199.309 245.593 199.116 245.786C198.251 246.661 198.288 249.396 198.319 252.041C198.371 256.479 198.434 261.51 194.751 261.677L194.481 261.687L194.413 261.427C194.215 260.666 193.934 259.974 193.606 259.333C193.975 259.156 194.371 258.385 194.736 256.526C195.902 250.526 189.236 230.859 175.569 233.026C171.033 233.744 166.793 233.265 163.147 232.312C158.704 236.255 154.527 251.229 154.777 254.364C154.491 255.244 154.194 256.161 153.678 256.875L153.324 257.359L153.1 256.802C152.501 255.317 152.642 253.755 152.777 252.25C152.949 250.375 153.126 248.437 151.96 246.463C151.517 246.875 151.626 247.989 151.731 249.067C151.809 249.911 151.897 250.781 151.731 251.432L151.595 251.979L151.178 251.593C147.382 248.041 143.402 245.828 139.34 245.01C131.621 243.458 123.189 242.484 114.267 241.453C95.4805 239.281 76.0586 237.036 61.7461 229.073C58.9961 227.547 56.517 225.833 54.3347 223.989L53.9909 222.922C55.3451 221.119 56.4597 218.666 56.0795 216.505C57.1055 218.573 59.7722 222.119 66.569 225.192C76.9024 229.859 102.902 236.526 121.569 238.526C140.236 240.526 150.402 239.192 152.736 237.359C154.152 236.244 153.845 234.208 152.861 232.599C153.231 232.521 153.6 232.448 153.965 232.364C154.6 232.067 155.152 231.619 155.762 230.911C156.053 230.583 156.324 230.239 156.59 229.901C156.975 229.406 157.376 228.901 157.835 228.448L157.918 228.359L159.106 228.276C171.512 227.375 190.257 226.015 199.163 217.119L199.356 216.922L199.585 217.067C213.335 226.104 222.73 245.474 224.095 267.614ZM49.517 220.786C50.6732 220.786 51.793 220.64 52.8399 220.333L52.9492 220.307L53.0274 219.948L53.0847 220.104C53.543 219.411 53.767 218.401 53.8242 217.307L53.4909 217.828L53.8295 216.291C53.8138 215.666 53.7513 215.026 53.6628 214.427C52.6888 215.093 50.5013 215.958 45.7357 215.854C40.1472 215.734 37.0482 212.521 35.7722 210.786C35.7409 211.161 35.7305 211.573 35.7565 212.041C35.9492 215.692 42.918 220.786 49.517 220.786ZM49.694 223.224C50.5117 223.13 51.2878 223.083 51.8607 223.208C51.3034 223.047 50.6055 222.968 49.6732 222.968C49.1524 222.968 48.6107 222.994 48.0638 223.015C47.5326 223.036 46.9961 223.057 46.4805 223.057C46.0899 223.057 45.7513 223.047 45.4492 223.021L45.0742 222.984L45.0899 223.364C45.4336 231.479 47.0482 238.948 49.8815 245.547C50.4701 246.911 51.1107 248.244 51.7878 249.51C58.7461 262.422 69.4545 275.213 76.5118 282.244L77.0274 281.823C76.2461 280.661 75.4597 279.474 74.668 278.255C74.6628 278.244 74.6524 278.234 74.6472 278.229C67.7565 269.744 59.3503 257.312 55.4024 249.026C51.5274 240.896 50.1263 228.437 49.694 223.224ZM41.2774 257.547C40.7722 251.666 40.7097 246.271 41.0847 241.375C41.2461 239.343 41.6315 237.135 42.0378 234.802C43.0742 228.875 44.142 222.744 41.3555 219.213C40.3867 217.984 39.0326 217.172 37.2617 216.734C38.4649 218.922 40.4961 225.187 39.569 233.692C38.7982 240.729 39.4805 249.937 41.2774 257.547ZM170.658 258.119C171.137 258.771 171.689 259.343 172.314 259.838C171.725 259.265 171.163 258.672 170.658 258.119ZM129.788 156.291C130.47 156.948 131.158 157.614 131.845 158.265L132.329 158.734L132.408 158.052C132.642 155.948 133.595 154.588 134.611 153.161C135.257 152.239 135.923 151.291 136.382 150.146L136.491 149.88L136.246 149.734C135.21 149.119 134.168 148.453 133.126 147.771C131.658 150.786 129.356 151.666 123.069 149.026C122.876 148.948 122.678 148.838 122.486 148.744C124.777 151.265 127.21 153.771 129.788 156.291ZM35.7357 263.359C33.1732 251.114 35.7149 224.172 36.5117 216.562C35.9649 216.468 35.392 216.385 34.7722 216.349L34.4805 216.333L34.4284 216.625C21.6784 283.682 50.142 330.505 76.267 357.974L76.5586 358.25L76.7722 357.948L77.0065 357.791C68.6159 347.224 59.7357 334.026 51.7357 315.359C43.7357 296.692 38.7357 277.692 35.7357 263.359ZM154.731 255.333C154.439 256.114 154.184 256.901 153.954 257.698C154.34 256.922 154.626 256.119 154.731 255.333ZM176.486 260.906C176.418 261.083 176.382 261.25 176.397 261.39C176.423 261.224 176.454 261.067 176.486 260.906ZM139.382 329.135C137.569 329.135 135.746 328.864 133.975 328.323L133.668 328.229L133.751 327.916C133.939 327.234 134.142 326.557 134.345 325.88C137.366 325.64 140.595 325.224 143.402 324.526C149.444 323.01 154.345 317.698 156.382 315.187C156.496 315.239 156.606 315.286 156.725 315.333C158.048 315.896 159.543 316.531 159.731 317.958L159.751 318.114L159.647 318.224C155.996 322.302 148.507 329.135 139.382 329.135Z" fill="#601814"/>
<path d="M245.786 105.838C249 101.067 253.104 98.6924 258.708 98.359L259.063 98.3486V105.682L258.75 105.692C258.688 105.692 258.625 105.708 258.552 105.708C258.052 105.708 257.333 105.599 256.422 105.479C255.047 105.291 253.339 105.052 251.594 105.052C249.292 105.052 247.536 105.468 246.245 106.307L245.786 105.838ZM51.9688 210.333C50.8281 209.922 49.5156 209.651 48.2448 209.385C47.4375 209.229 46.599 209.052 45.8073 208.838C43.9896 208.359 42.7396 207.744 41.8594 206.922L41.6875 206.771L41.7813 206.547C42.7656 204.239 44.651 202.812 46.474 201.437C47.6615 200.547 48.8854 199.625 49.8229 198.479L50.0469 198.198L50.3073 198.437C51.4063 199.479 51.6927 201.119 51.7813 203.265C51.7969 203.682 51.8125 204.119 51.8229 204.562C51.8698 206.333 51.9219 208.161 52.401 209.932L52.5677 210.547L51.9688 210.333ZM282.427 170.041C282.786 170.854 283.083 171.718 283.375 172.573C284.052 174.562 284.698 176.453 286.073 177.614C286.891 177.026 287.521 176.265 288.182 175.437C288.823 174.651 289.49 173.828 290.359 173.198C290.276 172.692 290.198 172.187 290.12 171.682C289.484 167.505 288.833 163.213 286.432 160.812C286.49 163.828 285.12 165.906 283.672 168.093C283.26 168.718 282.839 169.359 282.427 170.041ZM297.057 215.401C295.51 205.744 292.583 194.651 283.568 194.651C281.563 194.651 279.302 195.213 276.859 196.333L276.323 196.573L276.391 195.984C278.411 178.375 282.62 141.718 275.776 120.922L275.74 120.802L276.292 120.468C284.464 128.948 290.068 139.437 293.417 152.531C298.047 170.666 298.094 192.599 297.719 215.359L297.057 215.401ZM225.073 254.781C224.333 252.396 223.297 249.932 222.286 247.552C219.453 240.843 216.521 233.906 219.078 226.573C220.354 222.911 223.958 219.255 227.313 216.161C228.74 214.838 230.271 213.505 231.755 212.198C235.38 209.026 239.13 205.734 241.802 202.468C253.938 187.666 262.443 169.864 267.792 148.041C268.495 145.172 269.146 142.239 269.724 139.291L270.38 139.307C271.62 145.838 273.448 166.708 272.729 181.172C272.401 187.708 271.599 192.307 270.354 194.838C268.844 197.906 264.964 200.599 260.854 203.437C255.068 207.437 249.083 211.588 248.391 217.385L248.354 217.682H243.026C242.891 218.958 242.667 220.255 242.37 221.531C240.797 228.271 237.161 234.052 233.651 239.646C230.682 244.375 227.609 249.265 225.708 254.791L225.375 255.755L225.073 254.781ZM87.8177 294.218C83.2656 288.411 79.3281 282.958 75.7813 277.531C63.9792 259.51 57.0156 242.416 55.0833 226.724L55 226.062L56.1406 226.718C57.6823 227.599 59.4271 228.599 61.401 229.672C70.7344 234.739 78.8333 238.015 86.151 239.692C94.5729 241.614 104.042 242.515 113.203 243.39C122.667 244.291 131.609 245.14 139.484 247.026C152.526 250.14 150.474 262.375 148.49 274.213C147.901 277.713 147.297 281.333 147.073 284.698L146.417 284.75C145.583 281.052 144.828 277.994 143.859 275.099C140.953 266.396 136.885 261.843 130.661 260.333C129.698 260.104 128.578 259.989 127.24 259.989C125.797 259.989 124.24 260.119 122.734 260.244C121.182 260.375 119.578 260.51 118.042 260.51C115.255 260.51 111.802 260.13 109.438 257.26C107.078 260.989 103.995 264.062 101.01 267.036C99.7135 268.323 98.375 269.656 97.1198 271.021C92.2865 276.26 87.8854 282.666 88.4115 293.994L88.4635 295.036L87.8177 294.218ZM85.1719 363.562C63.7969 341.088 46.2188 295.781 42.4219 253.38C41.8854 247.453 42.4635 243.297 43.0729 238.89C43.3177 237.125 43.5729 235.302 43.7552 233.317L44.4063 233.25C45.8021 237.666 47.3854 241.922 49.1198 245.896C56.9583 263.906 67.4531 275.854 78.5573 288.505C80.4427 290.651 82.3958 292.875 84.3333 295.125L84.6406 295.489L84.1979 295.656C79.3125 297.505 73.9271 301.994 73.7448 306.026L73.7396 306.234L73.5417 306.317C73.2344 306.448 72.901 306.51 72.5521 306.51C71.3542 306.51 70.0938 305.76 68.7552 304.963C67.3438 304.125 65.8854 303.255 64.4479 303.255C64.0208 303.255 63.6146 303.333 63.224 303.489C64.5208 305.739 64.625 308.146 64.7344 310.687C64.8281 312.802 64.9219 314.989 65.7292 317.224C66.4531 319.239 68.0052 320.656 69.651 322.156C71.1458 323.515 72.6875 324.927 73.5573 326.817L73.7188 327.208C75.6042 331.984 76.8177 337.021 77.9896 341.89C79.8125 349.468 81.5313 356.619 85.5469 362.916L85.6198 363.031C85.6458 363.073 85.6771 363.114 85.7031 363.161L85.1719 363.562Z" fill="#FACB0C"/>
<path d="M56.4024 300.026C55.0951 288.782 57.6836 272.625 62.3972 268.907C57.4909 262.167 52.9805 254.771 49.1211 245.896C47.3867 241.922 45.8034 237.667 44.4076 233.25L43.7565 233.318C43.5742 235.302 43.319 237.125 43.0742 238.891C42.4649 243.297 41.8867 247.453 42.4232 253.38C44.6107 277.828 51.3867 303.235 60.8295 324.677C58.694 314.771 57.0274 305.417 56.4024 300.026ZM133.736 252.36C143.012 255.693 147.303 263.12 148.954 271.412C150.704 260.505 151.501 249.896 139.486 247.026C131.611 245.141 122.668 244.292 113.204 243.391C104.043 242.516 94.5742 241.615 86.1524 239.693C78.8347 238.016 70.7357 234.74 61.4024 229.672C59.4284 228.599 57.6836 227.599 56.142 226.719L55.0013 226.063L55.0847 226.724C57.017 242.417 63.9805 259.511 75.7826 277.532C76.5013 278.636 77.2461 279.74 78.0013 280.849C74.5534 270.537 72.3451 258.511 75.069 253.693C79.4024 246.026 112.402 244.693 133.736 252.36ZM45.8086 208.839C46.6003 209.052 47.4388 209.229 48.2461 209.386C49.517 209.651 50.8295 209.922 51.9701 210.334L52.569 210.547L52.4024 209.933C51.9232 208.162 51.8711 206.334 51.8242 204.563C51.8138 204.12 51.7982 203.683 51.7826 203.266C51.694 201.12 51.4076 199.479 50.3086 198.438L50.1992 198.349C47.0899 201.959 45.4649 206.505 44.8503 208.547C45.1524 208.651 45.4701 208.745 45.8086 208.839ZM258.553 105.709C258.626 105.709 258.689 105.693 258.751 105.693L259.064 105.683V102.068C256.428 101.802 251.574 102.068 245.975 106.042L246.246 106.308C247.538 105.469 249.293 105.052 251.595 105.052C253.34 105.052 255.048 105.292 256.423 105.479C257.335 105.599 258.053 105.709 258.553 105.709ZM290.361 173.198C290.277 172.693 290.199 172.188 290.121 171.683C289.486 167.505 288.835 163.214 286.434 160.813C286.491 163.828 285.121 165.907 283.673 168.094C283.262 168.719 282.84 169.36 282.428 170.042C282.788 170.854 283.085 171.719 283.376 172.573C284.053 174.563 284.699 176.453 286.074 177.615C286.892 177.026 287.522 176.266 288.184 175.438C288.824 174.651 289.491 173.828 290.361 173.198ZM293.418 152.532C297.564 168.761 298.033 188.042 297.819 208.229C297.319 198.505 296.652 183.693 292.512 179.136C288.871 175.12 282.251 179.016 277.835 182.651C279.694 163.641 281.184 137.349 275.777 120.922L275.741 120.802L276.293 120.469C284.465 128.948 290.069 139.438 293.418 152.532ZM270.382 139.308C271.621 145.839 273.449 166.709 272.73 181.172C272.626 183.188 272.48 185.016 272.293 186.651C272.267 177.719 270.538 167.854 268.293 169.136C265.178 170.907 257.402 187.802 251.178 199.573C244.96 211.36 238.626 215.469 238.626 215.469C238.626 215.469 236.626 214.573 227.736 223.026C221.199 229.229 222.288 242.865 223.371 250.146C223.017 249.276 222.652 248.407 222.288 247.552C219.454 240.844 216.522 233.907 219.079 226.573C220.355 222.912 223.96 219.255 227.314 216.162C228.741 214.839 230.272 213.505 231.757 212.198C235.382 209.026 239.132 205.735 241.803 202.469C253.939 187.667 262.444 169.865 267.793 148.042C268.496 145.172 269.147 142.24 269.725 139.292L270.382 139.308Z" fill="#F25C19"/>
<path d="M203.167 160.265C201.047 158.172 199.094 155.771 197.355 153.161C196.313 151.573 195.334 149.906 194.438 148.187L194.355 148.026L194.438 147.864C195.011 146.812 196.172 146.427 197.297 146.041C198.245 145.718 199.141 145.427 199.636 144.76C199.287 144.479 198.933 144.333 198.553 144.333C197.85 144.333 197.105 144.786 196.323 145.265C195.438 145.812 194.527 146.359 193.521 146.359C193.475 146.359 193.428 146.359 193.381 146.359L193.068 146.349V146.026C193.037 142.744 194.271 139.718 195.573 136.521C196.006 135.453 196.448 134.375 196.85 133.265C193.162 134.922 192.626 139.812 192.402 144.708L192.376 145.265L191.902 144.984C183.834 140.281 187.016 131.239 190.094 122.494C192.48 115.718 194.948 108.708 192.433 103.505L192.084 102.771L192.844 103.052C195.193 103.88 197.402 105.229 199.407 107.052C205.193 112.349 209.042 121.375 209.969 131.838C210.912 142.468 208.615 152.812 203.678 160.213L203.454 160.547L203.167 160.265ZM126.631 186.333C116.594 182.744 108.813 174.614 104.714 163.427C100.704 152.494 100.6 139.88 104.422 127.932L104.631 127.281L105.016 127.838C106.219 129.573 107.402 131.333 108.584 133.093C114.438 141.786 120.495 150.771 128.938 157.093L129.042 157.161L129.068 157.291C129.579 159.906 130.527 166.401 128.365 170.187L128.126 170.599L127.818 170.239C127.266 169.588 126.756 168.88 126.261 168.198C124.542 165.828 122.912 163.562 119.454 163.093C120.308 164.187 121.297 165.172 122.261 166.119C124.105 167.948 126.011 169.838 127.053 172.573L127.126 172.771L126.98 172.922C126.448 173.479 125.719 173.562 125.146 173.562C124.907 173.562 124.657 173.547 124.407 173.521C124.167 173.505 123.928 173.494 123.688 173.494C122.876 173.494 122.277 173.651 121.891 174.401C123.287 174.521 126.323 174.838 128.214 175.718L128.417 175.812L128.407 176.041C128.313 177.651 128.204 179.531 127.99 181.317C127.771 183.229 127.469 184.802 127.058 186.119L126.954 186.453L126.631 186.333Z" fill="#431B24"/>
<path d="M128.408 176.041L128.418 175.812L128.215 175.718C127.017 175.161 125.355 174.828 123.944 174.625C125.178 178.187 124.934 181.812 120.017 183.104C122.09 184.411 124.293 185.505 126.632 186.333L126.954 186.453L127.059 186.119C127.47 184.802 127.772 183.229 127.991 181.317C128.204 179.531 128.314 177.651 128.408 176.041ZM129.043 157.161L128.939 157.093C120.496 150.771 114.439 141.786 108.585 133.093C107.402 131.333 106.22 129.573 105.017 127.838L104.632 127.281L104.423 127.932C103.715 130.146 103.142 132.385 102.699 134.64C106.272 139 110.298 144.349 112.845 148.468C118.069 156.906 122.402 161.239 118.293 161.239C114.178 161.239 116.736 163.802 119.845 167.573C120.913 168.88 122.475 171.104 123.507 173.505C123.569 173.494 123.626 173.494 123.689 173.494C123.928 173.494 124.168 173.505 124.408 173.521C124.658 173.547 124.908 173.562 125.147 173.562C125.72 173.562 126.449 173.479 126.98 172.922L127.126 172.771L127.053 172.573C126.012 169.838 124.105 167.948 122.262 166.119C121.298 165.172 120.309 164.187 119.454 163.093C122.913 163.562 124.543 165.828 126.262 168.198C126.757 168.88 127.267 169.588 127.819 170.239L128.126 170.599L128.366 170.187C130.527 166.401 129.579 159.906 129.069 157.291L129.043 157.161ZM194.803 147.375C194.668 147.521 194.543 147.682 194.439 147.864L194.355 148.026L194.439 148.187C195.335 149.906 196.314 151.573 197.355 153.161C197.46 153.307 197.569 153.453 197.673 153.614C196.595 151.521 195.616 149.427 194.803 147.375ZM209.97 131.838C209.043 121.375 205.194 112.349 199.408 107.052C197.402 105.229 195.194 103.88 192.845 103.052L192.1 102.786C192.1 102.802 192.1 102.812 192.105 102.828L192.434 103.505C194.949 108.708 192.48 115.718 190.095 122.494C187.017 131.239 183.835 140.281 191.902 144.984L192.376 145.265L192.402 144.708C192.47 143.255 192.564 141.786 192.762 140.411C192.215 137.146 192.439 134.172 193.845 131.802C197.736 125.239 198.512 124.573 199.512 121.692C200.512 118.802 203.845 123.802 203.069 127.573C202.293 131.359 206.845 126.802 207.069 126.026C207.168 125.666 208.595 128.562 210.038 132.802C210.017 132.479 209.996 132.161 209.97 131.838ZM193.069 146.349V146.026C193.059 145.041 193.173 144.078 193.361 143.119C193.642 144.146 193.98 145.187 194.366 146.239C194.09 146.317 193.814 146.359 193.522 146.359C193.475 146.359 193.428 146.359 193.382 146.359L193.069 146.349Z" fill="#2A1415"/>
<path d="M173.157 197.907C170.808 197.907 168.387 196.719 167.204 195C166.944 194.959 166.699 194.933 166.47 194.933C165.506 194.933 164.887 195.282 164.236 195.641C163.532 196.042 162.808 196.438 161.663 196.438C161.428 196.438 161.178 196.427 160.923 196.386C160.855 196.386 160.767 196.375 160.678 196.349L160.402 196.308V196.026C160.402 195.256 159.928 194.693 159.465 194.162C158.918 193.506 158.236 192.709 159.168 191.787C161.548 189.24 165.772 188.547 169.855 187.854C173.637 187.229 177.548 186.563 179.84 184.438L180.074 184.229L180.303 184.453C181.189 185.334 181.131 187.052 181.074 188.719C181.053 189.386 181.027 190.068 181.069 190.667L181.084 190.907L180.361 191.214C179.324 191.651 178.262 192.12 176.949 192.334C176.47 193.24 176.558 194 176.647 194.745C176.736 195.453 176.819 196.172 176.345 196.881L176.314 196.922L176.267 196.959C175.454 197.573 174.376 197.907 173.157 197.907Z" fill="#1F1C1F"/>
<path d="M181.073 188.719C181.052 189.386 181.026 190.068 181.068 190.667L181.083 190.907L180.359 191.214C179.323 191.651 178.26 192.12 176.948 192.334C176.469 193.24 176.557 194 176.646 194.745C176.734 195.453 176.818 196.172 176.344 196.881L176.313 196.922L176.266 196.959C175.453 197.573 174.375 197.907 173.156 197.907C171.651 197.907 170.125 197.412 168.906 196.615C171.203 196.854 172.901 196.854 172.901 196.854C172.901 196.854 171.734 194.521 173.068 193.188C173.948 192.308 174.974 188.802 174.849 186.865C176.807 186.349 178.573 185.615 179.839 184.438L180.073 184.229L180.302 184.453C181.188 185.334 181.13 187.052 181.073 188.719Z" fill="#151413"/>
<path d="M43.5685 230.526C43.5685 230.526 48.7352 245.859 54.9018 256.859C61.0685 267.859 79.9019 285.692 79.9019 285.692C79.9019 285.692 61.9018 263.192 54.2352 249.026C46.5685 234.859 47.0685 221.359 47.0685 221.359L44.7352 221.521L43.5685 230.526ZM37.7352 284.026C32.4018 267.526 30.5685 229.692 30.5685 229.692C30.5685 229.692 29.2352 247.526 30.2352 259.359C31.2352 271.192 36.4018 292.026 40.4018 302.526C44.4018 313.026 52.0685 331.359 57.5685 337.359C63.0685 343.359 78.9019 360.526 78.9019 360.526C78.9019 360.526 73.4018 353.026 62.0685 337.859C50.7352 322.692 43.0685 300.526 37.7352 284.026ZM147.069 250.526C149.569 252.692 152.069 259.026 152.069 259.026L153.1 256.802L152.902 248.359L151.402 244.026C151.402 244.026 138.069 242.359 126.569 241.192C115.069 240.026 101.569 238.692 88.4019 234.859C75.2352 231.026 68.4018 229.026 64.7352 227.359C61.0685 225.692 55.9018 220.692 55.9018 220.692L53.8237 217.307C53.8237 217.307 49.9018 218.359 44.0685 217.359C38.2352 216.359 37.2612 216.734 37.2612 216.734C37.2612 216.734 40.5685 217.359 43.2352 220.026C43.2352 220.026 45.2352 221.026 47.0685 221.359C48.9018 221.692 51.8602 223.208 51.8602 223.208L53.6206 223.39C53.6206 223.39 55.5685 225.859 57.4018 227.359C59.2352 228.859 74.5685 236.192 80.5685 238.026C86.5685 239.859 103.902 241.192 112.735 242.026C121.569 242.859 134.735 244.859 137.569 245.359C140.402 245.859 144.569 248.359 147.069 250.526ZM158.292 315.026C158.292 315.026 158.511 315.802 152.292 322.026C146.069 328.244 132.959 328.244 132.626 328.244C132.626 328.244 136.959 330.911 137.402 331.026C137.845 331.135 142.845 329.911 149.735 327.135C156.621 324.354 160.845 316.578 161.178 316.244C161.511 315.911 158.292 315.026 158.292 315.026ZM202.069 304.244C202.069 304.244 195.511 309.026 185.735 312.135C175.954 315.244 159.069 314.692 159.069 314.692L162.292 316.468C162.292 316.468 175.626 316.692 177.069 316.578C178.511 316.468 194.178 313.244 196.511 311.802C198.845 310.354 202.069 304.244 202.069 304.244ZM309.178 173.802C309.069 167.135 305.402 151.026 305.402 151.026L304.845 154.239C307.292 169.468 306.626 194.802 303.735 217.135C300.845 239.468 286.069 266.692 286.069 266.692L283.178 273.359C283.178 273.359 284.292 274.359 292.178 260.026C300.069 245.692 305.178 220.359 307.292 211.239C309.402 202.135 309.292 180.468 309.178 173.802ZM267.511 134.239C266.845 141.573 263.735 154.135 258.959 164.692C254.178 175.239 243.845 191.573 239.069 197.906C234.292 204.239 222.178 215.692 217.626 219.573C213.391 223.192 208.782 223.354 208.147 223.359C206.996 222.015 206.069 220.948 205.902 220.771C205.402 220.281 201.485 217.281 201.485 217.281L200.516 216.187C204.36 213 206.777 209.588 208.735 206.521C211.402 202.359 214.069 184.521 211.235 179.359C208.402 174.187 203.069 162.521 203.069 162.521C203.069 162.521 204.902 160.692 206.402 156.854C207.902 153.026 211.902 148.359 211.569 139.692C211.235 131.026 210.402 124.854 210.402 124.359C210.402 123.854 206.235 115.521 206.235 115.521C206.235 115.521 211.235 136.521 204.902 150.521C201.292 158.505 199.569 157.187 199.569 157.187C199.569 157.187 195.735 151.521 193.235 148.692C190.735 145.854 186.069 141.692 185.569 141.521C185.069 141.359 173.235 137.359 173.235 137.359C173.235 137.359 181.345 142.453 186.402 146.521C193.235 152.026 199.069 161.692 202.069 167.359C212.74 187.505 209.235 201.026 200.902 210.026C193.282 218.255 178.735 224.359 167.902 226.692C167.902 226.692 188.902 223.526 195.735 219.521C196.6 219.015 197.412 218.494 198.178 217.958C199.766 219.562 205.287 225.151 208.402 229.192C216.235 239.359 222.569 258.609 221.569 275.526C220.569 292.442 213.735 307.526 206.652 317.026C201.048 324.536 200.069 324.859 197.069 324.776C194.069 324.692 187.735 318.942 187.735 318.942C187.735 318.942 191.402 327.276 194.485 327.609C197.569 327.942 199.485 329.692 204.985 324.026C210.485 318.359 218.985 304.192 221.985 295.192C224.985 286.192 225.069 279.276 224.402 273.442C223.735 267.609 225.235 259.859 224.319 257.276C223.402 254.692 217.735 238.776 217.652 238.526C217.569 238.276 213.819 230.109 213.652 229.859C214.235 229.578 217.178 234.692 217.178 234.692C217.178 234.692 218.069 229.135 218.069 228.802C218.069 228.468 220.069 223.692 220.069 223.692C220.069 223.692 223.511 219.692 223.845 219.468C224.178 219.239 234.069 209.239 234.069 209.239C234.069 209.239 244.178 197.239 249.959 189.026C255.735 180.802 262.178 163.135 264.292 158.026C266.402 152.906 268.845 139.135 269.959 135.573C271.069 132.026 267.626 118.573 267.626 118.573C267.626 118.573 268.178 126.906 267.511 134.239ZM176.652 198.359C178.485 196.521 181.485 192.437 181.819 191.854C182.152 191.281 182.819 187.281 182.485 186.281C182.152 185.281 181.235 183.771 181.235 183.771L179.319 184.437C179.319 184.437 181.319 189.281 178.569 190.026C175.819 190.771 174.319 193.854 174.652 195.187C174.985 196.521 171.819 198.104 171.319 198.187C170.819 198.281 174.819 200.187 176.652 198.359ZM203.569 236.442C203.235 235.692 205.089 238.849 205.089 238.849C205.089 238.849 207.319 240.442 207.235 241.692C207.152 242.942 207.819 247.859 207.819 247.859L206.902 247.942L202.485 245.526C202.485 245.526 201.022 244.974 199.839 245.5C198.652 246.026 199.152 250.609 198.985 250.942C198.819 251.276 198.735 259.859 197.485 261.609C196.235 263.359 195.569 264.109 195.319 264.109C195.069 264.109 193.902 263.859 193.902 263.859L193.605 259.333C193.605 259.333 195.235 261.442 196.319 256.859C197.402 252.276 196.485 248.609 197.569 245.859C198.652 243.109 199.735 241.609 199.735 241.609C199.735 241.609 202.819 241.609 204.402 243.276C205.985 244.942 203.902 237.192 203.569 236.442Z" fill="#F9EB34"/>
<path d="M144.074 156.692C149.282 156.015 155.595 158.562 160.069 156.026C159.793 163.437 145.428 158.708 144.074 156.692ZM155.579 171.291C155.262 171.213 154.918 171.161 154.574 171.161C152.548 171.161 150.907 172.802 150.907 174.828C150.907 176.854 152.548 178.494 154.574 178.494C154.819 178.494 155.069 178.468 155.303 178.411C153.835 183.291 144.303 186.317 140.074 182.026C142.762 174.708 145.184 167.135 154.074 166.026C155.381 168.494 155.975 168.666 156.069 171.359C155.902 171.333 155.736 171.307 155.579 171.291ZM157.402 165.359C149.496 156.349 134.387 176.599 138.741 185.359C154.079 192.171 164.184 173.078 157.402 165.359ZM159.402 192.026C163.918 187.213 175.22 189.171 180.069 184.692C181.184 185.802 180.6 188.599 180.736 190.692C179.486 191.213 178.293 191.802 176.736 192.026C175.579 194 176.949 195.401 176.069 196.692C173.637 198.546 169.069 197.281 167.402 194.692C164.241 194.119 163.996 196.479 160.97 196.052C160.897 196.052 160.814 196.041 160.736 196.026C160.741 194.067 158.095 193.317 159.402 192.026ZM160.736 197.786C164.819 200.026 170.939 200.744 174.069 200.026C180.72 198.468 186.288 188.453 182.069 182.692C181.027 183.171 179.809 183.546 178.475 183.838C170.319 185.64 157.939 184.708 156.736 191.359C156.23 194.171 158.043 196.307 160.736 197.786ZM176.736 151.359C172.236 151.974 171.173 156.015 167.402 157.359C167.829 149.546 179.793 144.682 181.402 154.026C179.085 153.895 178.866 151.666 176.736 151.359ZM200.736 245.349C199.262 251.203 201.272 265.13 193.402 266.677C193.751 259.218 188.949 256.911 184.069 254.682C179.579 256.703 179.048 262.099 177.402 265.343C171.407 263.781 169.48 258.156 166.069 254.015C163.595 253.984 163.684 256.51 162.069 257.343C159.517 253.322 159.996 241.817 166.069 240.682C164.34 244.062 161.934 246.77 162.736 252.682C165.715 252.552 166.288 250.01 168.736 249.349C168.626 255.895 171.043 259.932 176.069 261.343C176.803 256.244 180.246 253.812 184.006 253.588C188.475 253.322 193.387 256.161 194.736 261.343C201.272 261.041 194.876 243.156 200.736 245.349ZM188.736 291.343C185.517 288.911 183.079 293.083 181.402 292.01C182.194 288.489 187.767 287.01 188.736 291.343ZM190.736 173.359C187.147 176.171 182.866 173.187 178.736 172.692C178.522 172.375 178.407 172.067 178.34 171.77C179.163 171.093 179.689 170.078 179.689 168.932C179.689 166.906 178.043 165.265 176.022 165.265C174.782 165.265 173.694 165.88 173.027 166.812C172.876 166.828 172.767 166.786 172.736 166.692C174.736 154.349 191.621 164.546 190.736 173.359ZM170.736 162.692C167.35 173.349 182.897 177.171 190.736 176.692C199.475 164.666 174.262 151.614 170.736 162.692ZM188.069 201.359C191.689 201.932 188.793 197.265 188.069 201.359ZM162.736 213.349C162.736 212.682 162.736 212.015 162.736 211.349C163.626 211.349 164.517 211.349 165.402 211.349C165.605 213.104 164.017 213.067 162.736 213.349ZM196.069 204.682C195.105 202.744 191.001 198.213 188.069 196.026C185.881 197.958 186.579 199.104 186.069 202.026C176.595 204.947 169.626 212.197 160.069 208.015C161.819 214.401 158.736 217.197 158.069 220.015C168.309 213.333 184.251 201.265 196.069 204.682ZM203.402 234.682C202.986 233.718 202.595 234.75 203.402 234.682ZM203.402 234.682C207.152 237.005 210.355 243.171 208.064 249.349C205.829 250.192 203.46 246.151 200.736 245.349C202.564 243.349 205.074 246.302 206.736 246.682C208.23 240.395 202.387 238.302 203.402 234.682ZM287.387 174.026C283.397 173.145 285.006 168.171 286.72 166.026C289.376 168.76 287.22 171.479 287.387 174.026ZM286.053 160.026C286.48 164.317 284.069 166.588 282.053 170.026C283.314 172.76 283.782 176.291 286.053 178.026C287.949 176.812 288.861 174.614 290.72 173.359C289.887 168.187 289.413 162.666 286.053 160.026ZM287.387 266.01C290.283 258.75 292.809 250.171 294.814 240.796C296.517 232.822 297.84 224.27 298.673 215.468C300.684 194.291 299.866 171.692 294.782 152.187C290.262 134.838 282.355 119.947 270.053 110.692C270.053 110.291 270.095 109.854 270.152 109.411C270.595 106.401 272.194 102.77 270.053 101.359C277.121 104.786 283.121 109.786 288.126 115.947C317.22 151.786 312.673 227.27 287.387 266.01ZM276.72 196.026C279.194 174.494 282.642 140.718 276.095 120.812C276.079 120.77 276.069 120.734 276.053 120.692C284.684 129.651 289.939 140.291 293.095 152.614C297.569 170.135 297.788 191.041 297.387 215.349C295.647 204.479 291.803 189.171 276.72 196.026ZM271.569 203.359C271.543 203.349 271.517 203.349 271.496 203.333C272.595 196.119 273.319 188.682 273.71 181.229C274.918 157.786 272.741 134.187 268.053 116.692C271.699 113.599 273.699 117.197 274.829 121.229C275.475 123.52 275.835 125.958 276.053 127.359C279.72 150.427 276.934 183.494 271.569 203.359ZM248.064 217.349H242.73C242.585 218.77 242.355 220.135 242.048 221.468C239.168 233.776 229.574 242.531 225.397 254.682C222.616 245.703 215.96 236.531 219.397 226.682C220.564 223.338 223.751 219.895 227.543 216.401C232.413 211.906 238.267 207.317 242.064 202.682C254.439 187.588 262.881 169.468 268.116 148.119C268.819 145.255 269.47 142.349 270.053 139.359C271.22 145.531 273.137 166.333 272.397 181.161C272.1 187.041 271.397 191.974 270.053 194.692C266.522 201.88 249.282 207.161 248.064 217.349ZM223.397 283.343C221.913 297.244 210.996 317.385 204.069 324.005C195.006 332.656 191.954 323.692 187.402 316.005C195.163 314.875 201.439 312.27 202.069 304.01C196.335 312.062 184.486 315.562 173.053 315.682C166.376 315.75 159.835 314.671 154.736 312.671C152.668 315.75 159.043 315.239 159.402 318.005C153.954 324.078 144.626 331.224 134.074 328.005C138.569 311.692 148.288 295.724 151.407 277.343C152.986 268.005 152.329 258.656 157.402 250.682C154.522 251.135 154.809 254.75 153.407 256.677C152.085 253.406 154.548 249.817 152.074 246.015C150.569 246.51 151.809 249.755 151.407 251.349C148.402 248.536 144.288 245.661 139.407 244.682C115.267 239.838 82.8867 240.447 61.9075 228.781C59.0742 227.208 56.4492 225.416 54.0794 223.349C55.621 221.401 57.2825 218.078 56.0794 215.349C82.6523 225.692 115.47 241.343 154.074 232.682C154.866 232.317 155.475 231.755 156.017 231.13C156.72 230.338 157.314 229.432 158.069 228.682C170.194 227.796 190.142 226.604 199.402 217.349C212.048 225.656 222.319 244.296 223.762 267.635C224.074 272.671 223.975 277.921 223.397 283.343ZM144.173 274.989C141.751 267.739 138.064 261.781 130.741 260.01C124.163 258.421 114.1 263.072 109.407 256.677C106.043 262.197 101.137 266.171 96.8762 270.796C91.7512 276.343 87.5637 282.817 88.0794 294.01C84.0481 288.869 79.9387 283.281 76.0637 277.349C66.1367 262.192 57.6419 244.755 55.4127 226.682C57.0533 227.625 59.0169 228.755 61.2408 229.963C67.9075 233.583 76.8658 237.911 86.0794 240.015C102.975 243.875 123.715 243.599 139.407 247.349C155.918 251.291 147.72 269.864 146.741 284.677C145.996 281.364 145.199 278.057 144.173 274.989ZM73.4127 306.01C70.5012 307.229 66.5742 301.328 62.746 303.343C65.3554 307.463 63.5794 312.255 65.4127 317.338C66.8554 321.338 71.496 323.114 73.2512 326.958C73.3085 327.083 73.3606 327.208 73.4127 327.338C78.1158 339.255 78.5481 352.557 85.2669 363.099C85.3137 363.177 85.3658 363.25 85.4127 363.328C63.0742 339.843 46.3814 293.843 42.7512 253.349C42.0064 245.072 43.4492 240.229 44.0846 233.349C45.5273 237.911 47.1054 242.114 48.8137 246.031C58.0221 267.177 70.8137 279.921 84.0794 295.343C79.2408 297.177 73.6054 301.75 73.4127 306.01ZM76.5064 357.744C43.3658 322.895 23.6054 275.302 34.7512 216.682C47.47 217.453 41.496 231.729 40.7512 241.349C38.9023 265.302 47.7929 296.369 56.0794 320.005C61.3033 334.885 68.5481 344.708 76.5533 357.692C76.5325 357.703 76.5221 357.724 76.5064 357.744ZM52.746 224.015C53.1835 242.958 64.1419 262.724 74.3867 278.437C75.1835 279.656 75.97 280.843 76.746 282.01C69.496 274.781 58.9804 262.156 52.0794 249.349C51.4127 248.104 50.7825 246.791 50.1887 245.416C47.5742 239.328 45.7877 231.968 45.4179 223.349C47.5794 223.541 50.5221 222.958 52.1627 223.661C52.3814 223.755 52.5794 223.869 52.746 224.015ZM45.3971 210.317C47.9335 211.307 50.5742 212.229 52.746 212.015C53.4387 213.895 54.0273 218.255 52.746 220.015C45.1835 222.187 36.2877 215.838 36.0846 212.015C36.0064 210.505 36.2512 209.531 36.7512 208.958C38.1731 207.291 41.6679 208.88 45.3971 210.317ZM50.0794 198.692C51.1419 199.692 51.3658 201.349 51.4492 203.281C51.5429 205.349 51.47 207.744 52.0794 210.015C50.1939 209.333 47.9179 209.052 45.8971 208.52C44.4075 208.119 43.0533 207.588 42.0846 206.682C43.6835 202.947 47.6939 201.625 50.0794 198.692ZM135.772 216.906C134.319 215.468 133.079 213.838 132.074 212.015C129.1 206.64 128.105 198.375 128.506 189.437C128.621 186.828 128.855 184.145 129.189 181.468C131.085 166.479 136.251 151.427 142.074 146.026C147.194 141.281 155.418 139.067 164.069 138.026C174.949 136.718 185.069 141.026 193.402 150.692C194.288 151.718 195.194 152.838 196.105 154.026C198.97 157.76 201.866 162.229 204.355 167.078C211.454 180.947 215.142 197.947 204.736 210.015C190.642 226.349 151.402 232.432 135.772 216.906ZM104.741 128.026C112.017 138.531 118.569 149.76 128.741 157.359C129.527 161.401 129.887 166.838 128.074 170.026C125.527 167.015 123.986 163 118.741 162.692C121.215 166.213 125.085 168.349 126.741 172.692C125.381 174.119 122.366 171.864 121.407 174.692C122.496 174.786 126.001 175.052 128.074 176.026C127.975 177.812 127.861 179.588 127.663 181.281C127.47 182.974 127.189 184.572 126.741 186.026C105.913 178.562 96.996 152.255 104.741 128.026ZM130.907 146.692C132.585 147.854 134.309 148.958 136.074 150.026C134.928 152.88 132.475 154.427 132.074 158.026C131.387 157.375 130.699 156.708 130.022 156.052C121.246 147.505 113.272 138.161 106.741 127.359C114.71 133.906 122.303 140.802 130.907 146.692ZM190.069 103.359C194.184 117.453 181.814 128.104 185.402 139.359C182.715 138.932 182.032 136.505 178.736 136.692C178.751 122.625 183.861 112.828 190.069 103.359ZM199.184 107.291C211.032 118.135 213.809 144.427 203.402 160.026C201.246 157.895 199.335 155.531 197.637 152.974C196.595 151.401 195.626 149.744 194.736 148.026C195.746 146.145 199.053 146.572 200.069 144.692C197.861 142.531 195.782 146.161 193.402 146.026C193.361 141.494 195.809 137.375 197.402 132.692C193.006 134.078 192.319 139.171 192.069 144.692C178.147 136.572 198.621 115.52 192.736 103.359C195.105 104.197 197.262 105.546 199.184 107.291ZM214.215 213.052C242.095 191.015 266.647 158.52 261.387 117.359C261.736 117.359 262.064 117.401 262.381 117.468C268.1 118.651 269.564 130.145 268.72 136.692C268.246 140.385 267.543 144.078 266.626 147.76C260.22 173.52 243.605 198.588 226.46 215.239C223.663 217.958 220.85 220.453 218.064 222.682C218.137 225.645 216.199 226.599 216.73 230.015C213.314 226.322 209.35 223.177 206.736 218.682C209.241 216.895 211.741 215.015 214.215 213.052ZM262.053 98.6923H267.387C268.366 101.708 268.907 105.682 268.506 109.161C268.1 112.614 266.782 115.588 264.053 116.692C263.548 116.562 263.116 116.359 262.736 116.093C258.574 113.229 261.647 103.349 262.053 98.6923ZM258.73 105.359C256.918 105.479 250.001 103.468 246.064 106.026C246.126 106.838 245.085 106.437 246.064 106.026C248.741 102.052 252.428 99.0673 258.73 98.6923V105.359ZM295.387 123.359C293.533 120.531 291.522 117.812 289.376 115.229C282.913 107.494 275.21 100.974 266.72 96.0412C258.246 91.1037 243.017 100.614 242.73 108.692C246.194 109.666 251.361 104.708 256.064 106.692C270.413 148.692 240.053 190.974 213.397 212.015C210.637 214.197 206.647 217.197 202.736 216.682C211.095 207.119 217.861 192.802 212.064 176.692C210.897 173.437 207.543 169.708 206.085 166.531C205.684 165.64 205.418 164.802 205.402 164.026C205.241 158 211.751 151.067 212.73 143.359C214.793 127.026 209.652 114.614 200.835 106.197C197.663 103.187 194.022 100.682 190.069 98.6923C182.647 109.187 176.454 120.828 176.736 136.026C162.574 133.197 145.741 137.255 137.407 148.026C135.303 147.291 133.548 146.317 131.939 145.171C128.407 142.682 125.605 139.385 121.407 136.026C118.46 133.682 108.647 124.067 105.407 124.692C102.043 125.349 99.9492 134.411 99.4127 139.359C96.8814 162.64 110.048 184.197 126.741 189.359C124.907 202.411 128.168 211.453 134.236 217.947C139.475 223.562 146.803 227.27 154.736 230.015C129.663 238.244 94.4804 228.671 73.4127 219.349C65.0012 215.625 53.7408 213.067 53.3867 203.171C53.2877 200.333 54.0794 196.906 56.0794 192.692C48.5064 193.838 44.4804 200.666 40.0846 204.682C38.4596 206.171 36.4752 206.718 35.0064 208.171C34.6731 208.52 34.3606 208.895 34.0846 209.349C31.5846 213.505 30.9075 224.369 30.0846 229.349C24.2096 265.005 36.3085 304.442 53.4127 334.005C64.595 353.312 82.3033 367.036 96.746 377.328H96.8554C96.9752 377.437 97.1158 377.515 97.2721 377.557C97.7669 377.671 91.9179 370.682 89.4127 367.328C88.2721 365.812 87.2877 364.145 86.4283 362.369C81.2304 351.739 80.2617 337.224 75.0273 326.708C73.1627 322.958 70.7512 319.708 67.4127 317.338C67.0429 313.937 68.4335 308.765 66.0794 307.343C69.5689 305.203 70.9752 310.869 74.0794 311.338C77.7617 291.27 92.9804 301.515 101.413 310.01C98.7721 303.979 93.3971 300.697 89.4127 296.01C89.9075 286.322 92.6523 277.463 98.1939 271.197C98.9856 270.302 99.8398 269.463 100.746 268.677C103.954 265.906 110.788 266.099 110.074 260.01C120.616 266.692 132.454 259.39 139.407 268.677C140.954 270.744 142.085 273.01 142.881 275.416C146.428 286.192 143.017 299.718 138.074 310.01C134.027 318.437 123.329 332.614 141.407 331.338C145.96 331.015 151.902 328.468 156.069 325.338C159.184 322.994 160.949 318.411 164.069 317.338C164.288 317.385 168.574 317.25 173.074 317.161C177.673 317.083 182.486 317.057 183.402 317.338C189.746 319.291 187.6 328.724 194.736 330.671C198.496 331.697 204.449 327.572 206.736 325.338C216.439 315.859 224.637 296.718 226.064 280.677C226.402 276.864 225.616 271.958 225.355 267.552C225.251 265.812 225.236 264.156 225.397 262.677C225.673 260.083 226.272 257.651 227.105 255.338C230.699 245.39 238.605 237.588 244.064 228.682C243.949 226.932 242.835 223.822 243.434 221.802C243.564 221.375 243.762 220.984 244.064 220.682C254.361 219.197 257.605 202.093 269.387 200.692C268.668 210.187 267.387 219.135 265.387 227.349C271.355 219.76 272.907 207.76 276.053 197.359C276.293 197.281 276.527 197.213 276.751 197.161C292.329 193.041 294.751 209.974 294.72 224.015C294.71 229.505 294.017 235.01 292.866 240.375C289.413 256.489 281.829 271.432 276.053 281.343C286.413 276.036 292.663 263.161 298.053 250.015C312.652 214.401 318.361 158.494 295.387 123.359Z" fill="#231F20"/>
</svg>
