<svg width="339" height="474" viewBox="0 0 339 474" fill="none" xmlns="http://www.w3.org/2000/svg">
<path d="M22.8034 473.432C10.3086 473.432 0.136719 463.26 0.136719 450.765V23.2341C0.136719 10.734 10.3086 0.567383 22.8034 0.567383H315.626C328.121 0.567383 338.293 10.734 338.293 23.2341V450.765C338.293 463.26 328.121 473.432 315.626 473.432H22.8034Z" fill="#849393"/>
<path d="M315.628 3.23438H271.456L267.414 14.3229L263.055 3.23438H22.8047C11.763 3.23438 2.80469 12.1875 2.80469 23.2344V450.766C2.80469 461.807 11.763 470.766 22.8047 470.766H67.0443L71.0026 459.854L75.3099 470.766H315.628C326.669 470.766 335.628 461.807 335.628 450.766V23.2344C335.628 12.1875 326.669 3.23438 315.628 3.23438Z" fill="white"/>
<path d="M39.4271 44.2083V55.3021C39.4271 59.0677 40.1042 60.9531 41.4948 60.9531H41.8281C44.2292 60.8177 46.2396 60.75 47.8385 60.75H49.4375C50.2552 60.349 50.651 59.7396 50.651 58.9323V45.8229C50.651 44.2083 49.4375 43.401 47.0417 43.401H40.8281C40.1042 43.401 39.6406 43.6719 39.4271 44.2083ZM54.6823 19.4688C57.1458 19.4688 58.6927 20.4531 59.3177 22.4219C59.4531 22.651 59.5208 23.0104 59.5208 23.5V32.1771L59.7188 34.125C59.4531 34.2552 59.2552 34.3229 59.1198 34.3229C53.9583 32.3073 51.1458 31.1198 50.651 30.7604V28.2708C50.651 25.7187 50.1198 24.4427 49.0417 24.4427C46.8125 24.3073 45.0781 24.2396 43.8281 24.2396H42.8281C40.5625 24.2396 39.4271 25.0052 39.4271 26.526V26.6615C39.4271 26.7969 39.4948 26.8594 39.625 26.8594C39.4948 28.2083 39.4271 29.2135 39.4271 29.8854V35.3333C39.4271 37.4844 39.6406 38.5625 40.0938 38.5625H49.6823C54.4531 38.5625 57.2656 38.9635 58.1198 39.7708C59.1875 40.3073 59.7188 43.1354 59.7188 48.2448V49.6563C59.7188 50.9115 59.651 53.8698 59.5208 58.5313C59.651 60.0104 59.7188 61.2865 59.7188 62.3594C59.0156 64.6458 57.401 65.7917 54.8802 65.7917H35.7865C32.9583 65.7917 31.2656 64.7865 30.6823 62.7656V27.7396C30.6823 26.6198 30.6406 25.3125 30.5469 23.8385C30.5469 21.6406 31.8281 20.1875 34.375 19.4688H54.6823Z" fill="#E11D25"/>
<path d="M299.003 429.969V418.875C299.003 415.11 298.31 413.229 296.935 413.229H296.602C294.19 413.36 292.19 413.427 290.576 413.427H288.977C288.174 413.828 287.773 414.438 287.773 415.245V428.354C287.773 429.969 288.977 430.776 291.388 430.776H297.602C298.31 430.776 298.773 430.506 299.003 429.969ZM283.737 454.709C281.284 454.709 279.721 453.724 279.096 451.75C278.961 451.526 278.898 451.172 278.898 450.677V442.006L278.695 440.052C278.961 439.917 279.174 439.854 279.294 439.854C284.456 441.87 287.284 443.058 287.773 443.417V445.907C287.773 448.459 288.31 449.735 289.378 449.735C291.602 449.87 293.352 449.938 294.591 449.938H295.591C297.867 449.938 299.003 449.177 299.003 447.651V447.516C299.003 447.381 298.935 447.313 298.805 447.313C298.935 445.969 299.003 444.964 299.003 444.292V438.844C299.003 436.693 298.773 435.615 298.336 435.615H288.747C283.961 435.615 281.148 435.214 280.31 434.407C279.232 433.865 278.695 431.042 278.695 425.933V424.521C278.695 423.266 278.763 420.308 278.898 415.646C278.763 414.167 278.695 412.891 278.695 411.813C279.414 409.526 281.029 408.386 283.534 408.386H302.628C305.456 408.386 307.164 409.396 307.747 411.412V446.438C307.747 447.563 307.789 448.86 307.883 450.344C307.883 452.537 306.602 453.99 304.044 454.709H283.737Z" fill="#E11D25"/>
<path d="M264.865 387.771C263.589 363.74 277.854 359.677 281.214 367.604C283 371.823 280.214 377.964 277.146 378.912C273.401 380.073 273.813 376.099 273.813 376.099C273.813 376.099 274.708 377.323 275.865 377.141C278.146 376.771 276.922 372.802 274.521 372.802C272.12 372.802 268.958 374.756 268.198 382.578C267.094 394.016 278.906 395.032 286.094 388.448C288.906 385.86 291.412 382.459 292.984 380.125C294.547 382.459 297.052 385.86 299.88 388.448C307.068 395.032 318.865 394.016 317.76 382.578C317 374.756 313.839 372.802 311.453 372.802C309.052 372.802 307.828 376.771 310.104 377.141C311.266 377.323 312.146 376.099 312.146 376.099C312.146 376.099 312.563 380.073 308.828 378.912C305.76 377.964 302.958 371.823 304.745 367.604C308.12 359.677 322.385 363.74 321.094 387.771C321.094 387.771 324.948 383.016 324.948 376.469C324.958 368.464 321.974 359.844 309.865 351.594C302.854 346.802 296.813 343.026 292.984 340.698C289.146 343.026 283.12 346.802 276.094 351.594C264 359.844 261 368.464 261.016 376.469C261.026 383.016 264.865 387.771 264.865 387.771Z" fill="#E11D25"/>
<path d="M73.5469 86.4062C74.8386 110.437 60.573 114.5 57.2136 106.573C55.4115 102.354 58.2136 96.2135 61.2813 95.2656C65.0157 94.1042 64.599 98.0781 64.599 98.0781C64.599 98.0781 63.7188 96.8542 62.5626 97.0365C60.2813 97.4062 61.5053 101.375 63.9063 101.375C66.3074 101.375 69.4532 99.4219 70.2136 91.599C71.3334 80.1615 59.5209 79.1458 52.3334 85.7344C49.5053 88.3125 47.0001 91.7187 45.4376 94.0521C43.8646 91.7187 41.3594 88.3125 38.5469 85.7344C31.3594 79.1458 19.5469 80.1615 20.6511 91.599C21.4115 99.4219 24.573 101.375 26.974 101.375C29.3751 101.375 30.599 97.4062 28.3178 97.0365C27.1615 96.8542 26.2657 98.0781 26.2657 98.0781C26.2657 98.0781 25.8646 94.1042 29.599 95.2656C32.6667 96.2135 35.4532 102.354 33.6667 106.573C30.3074 114.5 16.0417 110.437 17.3334 86.4062C17.3334 86.4062 13.4792 91.1615 13.4688 97.7083C13.4532 105.714 16.4532 114.333 28.5469 122.583C35.573 127.375 41.6146 131.151 45.4376 133.479C49.2657 131.151 55.3074 127.375 62.3334 122.583C74.4271 114.333 77.4271 105.714 77.4115 97.7083C77.4011 91.1615 73.5469 86.4062 73.5469 86.4062Z" fill="#E11D25"/>
<path d="M251.667 175.005C255.453 245.505 213.599 257.417 203.734 234.161C198.479 221.797 206.667 203.786 215.667 201C226.641 197.594 225.427 209.245 225.427 209.245C225.427 209.245 222.828 205.656 219.438 206.193C212.745 207.276 216.349 218.927 223.375 218.927C230.412 218.927 239.667 213.193 241.896 190.24C245.162 156.693 210.505 153.713 189.427 173.031C181.162 180.609 173.813 190.594 169.214 197.437C164.615 190.594 157.266 180.609 149 173.031C127.906 153.713 93.2657 156.693 96.5209 190.24C98.7605 213.193 108.016 218.927 115.042 218.927C122.078 218.927 125.682 207.276 118.984 206.193C115.599 205.656 112.984 209.245 112.984 209.245C112.984 209.245 111.787 197.594 122.761 201C131.761 203.786 139.948 221.797 134.693 234.161C124.828 257.417 82.9584 245.505 86.7605 175.005C86.7605 175.005 75.4793 188.969 75.4376 208.172C75.4012 231.651 84.1876 256.932 119.682 281.135C140.266 295.182 157.974 306.266 169.214 313.094C180.453 306.266 198.162 295.182 218.745 281.135C254.24 256.932 263.026 231.651 262.985 208.172C262.948 188.969 251.667 175.005 251.667 175.005Z" fill="#E11D25"/>
</svg>
