<svg width="339" height="474" viewBox="0 0 339 474" fill="none" xmlns="http://www.w3.org/2000/svg">
<path d="M23.0495 473.432C10.5495 473.432 0.382812 463.26 0.382812 450.765V23.2341C0.382812 10.734 10.5495 0.567383 23.0495 0.567383H315.867C328.362 0.567383 338.534 10.734 338.534 23.2341V450.765C338.534 463.26 328.362 473.432 315.867 473.432H23.0495Z" fill="#849393"/>
<path d="M315.865 3.23438H271.693L267.667 14.3229L263.292 3.23438H23.0469C12 3.23438 3.04688 12.1875 3.04688 23.2344V450.766C3.04688 461.807 12 470.766 23.0469 470.766H67.2813L71.2552 459.854L75.5469 470.766H315.865C326.906 470.766 335.865 461.807 335.865 450.766V23.2344C335.865 12.1875 326.906 3.23438 315.865 3.23438Z" fill="white"/>
<path d="M30.7253 19.4688H59.1628C59.4805 19.4688 59.6836 20.1615 59.7721 21.5521C59.7721 22.625 59.7096 23.8125 59.5742 25.1146C59.7096 27.8958 59.7721 30.7187 59.7721 33.5833V33.7865C59.7721 34.0104 59.6419 34.125 59.3763 34.125H58.6263C53.9596 32.2865 51.319 31.1667 50.694 30.7604V25.25C50.694 24.6667 50.5221 24.3281 50.1628 24.2396H41.3503C40.1836 24.2396 39.5326 24.8229 39.4023 25.9896V36.9479C39.4023 37.8437 40.2044 38.4271 41.819 38.6979H55.8034C58.319 39.9948 59.5742 41.25 59.5742 42.4635H59.7721C59.8555 45.4167 59.9076 47.7708 59.9076 49.5208V53.0833C59.9076 55.1927 59.8555 58.1927 59.7721 62.0938C58.9232 64.5573 57.2565 65.7917 54.8034 65.7917H36.5742C32.4492 65.7917 30.3867 63.9115 30.3867 60.1458V52.5469C30.4336 52.276 30.5482 52.1406 30.7253 52.1406H42.0221C42.2461 52.1875 42.3607 52.3229 42.3607 52.5469C41.194 52.8125 40.2513 53.2865 39.5326 53.9583C39.5326 54.6302 39.4857 55.5729 39.4023 56.7813C39.4023 59.6042 39.8711 61.0208 40.8086 61.0208H48.4128C49.9336 61.0208 50.694 60.3698 50.694 59.0677V45.9583C50.694 44.3021 49.8659 43.4688 48.1992 43.4688H36.7096C32.4961 43.4688 30.3867 41.7656 30.3867 38.3594V19.8021C30.4336 19.5781 30.5482 19.4688 30.7253 19.4688Z" fill="#E11D25"/>
<path d="M308.188 454.709H279.745C279.437 454.709 279.229 454.016 279.146 452.625C279.146 451.552 279.214 450.36 279.349 449.063C279.214 446.287 279.146 443.459 279.146 440.589V440.391C279.146 440.162 279.281 440.052 279.547 440.052H280.281C284.948 441.891 287.589 443.011 288.229 443.417V448.927C288.229 449.511 288.401 449.849 288.76 449.938H297.563C298.734 449.938 299.385 449.354 299.521 448.188V437.229C299.521 436.334 298.708 435.75 297.094 435.479H283.104C280.599 434.183 279.349 432.927 279.349 431.714H279.146C279.052 428.756 279.016 426.407 279.016 424.657V421.094C279.016 418.985 279.052 415.985 279.146 412.084C280 409.62 281.651 408.386 284.12 408.386H302.333C306.469 408.386 308.521 410.266 308.521 414.032V421.631C308.479 421.901 308.375 422.032 308.188 422.032H296.896C296.667 421.99 296.563 421.854 296.563 421.631C297.719 421.36 298.667 420.891 299.385 420.219C299.385 419.547 299.427 418.604 299.521 417.396C299.521 414.573 299.042 413.157 298.104 413.157H290.505C288.984 413.157 288.229 413.808 288.229 415.11V428.219C288.229 429.875 289.052 430.709 290.708 430.709H302.198C306.411 430.709 308.521 432.412 308.521 435.818V454.375C308.479 454.599 308.375 454.709 308.188 454.709Z" fill="#E11D25"/>
<path d="M265.12 387.771C263.828 363.74 278.094 359.677 281.469 367.604C283.255 371.823 280.453 377.964 277.386 378.912C273.651 380.073 274.068 376.099 274.068 376.099C274.068 376.099 274.948 377.323 276.104 377.141C278.386 376.771 277.162 372.802 274.761 372.802C272.36 372.802 269.214 374.756 268.453 382.578C267.334 394.016 279.146 395.032 286.334 388.448C289.162 385.86 291.667 382.459 293.229 380.125C294.802 382.459 297.307 385.86 300.12 388.448C307.307 395.032 319.12 394.016 318.016 382.578C317.255 374.756 314.094 372.802 311.693 372.802C309.292 372.802 308.068 376.771 310.349 377.141C311.505 377.323 312.401 376.099 312.401 376.099C312.401 376.099 312.802 380.073 309.068 378.912C306 377.964 303.214 371.823 305 367.604C308.36 359.677 322.625 363.74 321.334 387.771C321.334 387.771 325.188 383.016 325.198 376.469C325.214 368.464 322.214 359.844 310.12 351.594C303.094 346.802 297.052 343.026 293.229 340.698C289.401 343.026 283.36 346.802 276.349 351.594C264.24 359.844 261.24 368.464 261.266 376.469C261.266 383.016 265.12 387.771 265.12 387.771Z" fill="#E11D25"/>
<path d="M73.8034 86.4062C75.0951 110.437 60.8139 114.5 57.4545 106.573C55.668 102.354 58.4545 96.2187 61.5222 95.2656C65.267 94.1042 64.8555 98.0781 64.8555 98.0781C64.8555 98.0781 63.9597 96.8542 62.8034 97.0365C60.5326 97.4062 61.7618 101.375 64.1472 101.375C66.5482 101.375 69.7097 99.4219 70.4701 91.599C71.5743 80.1615 59.7618 79.1458 52.5743 85.7344C49.7618 88.3125 47.2566 91.7187 45.6837 94.0521C44.1212 91.7187 41.6107 88.3125 38.793 85.7344C31.6055 79.1458 19.7982 80.1615 20.9076 91.599C21.668 99.4219 24.8243 101.375 27.2201 101.375C29.6159 101.375 30.8451 97.4062 28.5639 97.0365C27.4076 96.8542 26.517 98.0781 26.517 98.0781C26.517 98.0781 26.1107 94.1042 29.8503 95.2656C32.918 96.2187 35.7045 102.354 33.918 106.573C30.5534 114.5 16.2826 110.437 17.5743 86.4062C17.5743 86.4062 13.7305 91.1615 13.7149 97.7083C13.6993 105.714 16.6993 114.333 28.7982 122.583C35.8191 127.375 41.8555 131.151 45.6837 133.479C49.5222 131.151 55.5482 127.375 62.5743 122.583C74.668 114.333 77.668 105.714 77.6524 97.7083C77.642 91.1615 73.8034 86.4062 73.8034 86.4062Z" fill="#E11D25"/>
<path d="M251.923 175.005C255.71 245.505 213.84 257.417 203.975 234.161C198.736 221.797 206.923 203.786 215.908 201C226.882 197.594 225.684 209.245 225.684 209.245C225.684 209.245 223.069 205.656 219.684 206.193C213.001 207.276 216.6 218.927 223.626 218.927C230.652 218.927 239.923 213.193 242.147 190.24C245.402 156.693 210.762 153.713 189.684 173.031C181.413 180.609 174.054 190.594 169.47 197.437C164.866 190.594 157.507 180.609 149.241 173.031C128.163 153.713 93.5223 156.693 96.7723 190.24C99.0015 213.193 108.267 218.927 115.293 218.927C122.319 218.927 125.923 207.276 119.241 206.193C115.856 205.656 113.241 209.245 113.241 209.245C113.241 209.245 112.043 197.594 123.001 201C132.001 203.786 140.189 221.797 134.949 234.161C125.08 257.417 83.215 245.505 87.0014 175.005C87.0014 175.005 75.7202 188.969 75.6837 208.172C75.6421 231.651 84.4285 256.932 119.923 281.135C140.522 295.182 158.231 306.266 169.47 313.094C180.694 306.266 198.402 295.182 219.001 281.135C254.481 256.932 263.283 231.651 263.231 208.172C263.199 188.969 251.923 175.005 251.923 175.005Z" fill="#E11D25"/>
</svg>
