<svg width="339" height="474" viewBox="0 0 339 474" fill="none" xmlns="http://www.w3.org/2000/svg">
<path d="M23.2995 473.432C10.7995 473.432 0.632812 463.26 0.632812 450.765V23.2341C0.632812 10.734 10.7995 0.567383 23.2995 0.567383H316.117C328.617 0.567383 338.784 10.734 338.784 23.2341V450.765C338.784 463.26 328.617 473.432 316.117 473.432H23.2995Z" fill="#849393"/>
<path d="M316.115 3.23438H271.938L267.911 14.3229L263.536 3.23438H23.2969C12.25 3.23438 3.29688 12.1875 3.29688 23.2344V450.766C3.29688 461.807 12.25 470.766 23.2969 470.766H67.526L71.4948 459.854L75.7969 470.766H316.115C327.156 470.766 336.115 461.807 336.115 450.766V23.2344C336.115 12.1875 327.156 3.23438 316.115 3.23438Z" fill="white"/>
<path d="M38.1953 50.8649H45.3203C45.7266 50.8649 45.9245 50.6618 45.9245 50.2607V34.9951C42.7474 40.3753 40.1641 45.667 38.1953 50.8649ZM46.263 19.4639H56.2109V19.7347C55.1849 20.943 54.6693 21.9743 54.6693 22.8285V50.2607C54.7109 50.6618 54.9141 50.8649 55.2734 50.8649H58.0964C58.0964 51.7191 56.9557 54.0941 54.6693 57.9899V62.3597C54.6693 63.2607 55.1849 64.3128 56.2109 65.5212V65.792H44.3776V65.5212C45.4141 64.3128 45.9245 63.2607 45.9245 62.3597V57.9899C45.9245 57.5889 45.7266 57.3857 45.3203 57.3857H27.9089L27.3047 57.1201C39.4089 32.016 45.7266 19.4639 46.263 19.4639Z" fill="#E11D25"/>
<path d="M301.21 423.313H294.085C293.684 423.313 293.48 423.516 293.48 423.917V439.183C296.663 433.802 299.241 428.511 301.21 423.313ZM293.142 454.709H283.194V454.438C284.225 453.235 284.741 452.198 284.741 451.349V423.917C284.694 423.516 284.496 423.313 284.137 423.313H281.309C281.309 422.459 282.454 420.084 284.741 416.188V411.813C284.741 410.917 284.225 409.865 283.194 408.651V408.386H295.027V408.651C293.996 409.865 293.48 410.917 293.48 411.813V416.188C293.48 416.589 293.684 416.792 294.085 416.792H311.501L312.105 417.058C300.007 442.157 293.684 454.709 293.142 454.709Z" fill="#E11D25"/>
<path d="M265.367 387.771C264.076 363.739 278.346 359.677 281.706 367.604C283.497 371.817 280.706 377.963 277.643 378.911C273.898 380.073 274.31 376.099 274.31 376.099C274.31 376.099 275.201 377.323 276.357 377.14C278.638 376.771 277.409 372.802 275.013 372.802C272.617 372.802 269.461 374.755 268.695 382.578C267.586 394.015 279.398 395.031 286.586 388.448C289.404 385.859 291.909 382.458 293.477 380.125C295.044 382.458 297.55 385.859 300.367 388.448C307.555 395.031 319.367 394.015 318.258 382.578C317.497 374.755 314.341 372.802 311.945 372.802C309.544 372.802 308.32 376.771 310.596 377.14C311.753 377.323 312.643 376.099 312.643 376.099C312.643 376.099 313.055 380.073 309.315 378.911C306.247 377.963 303.456 371.817 305.247 367.604C308.607 359.677 322.878 363.739 321.586 387.771C321.586 387.771 325.435 383.015 325.451 376.468C325.461 368.463 322.466 359.843 310.367 351.588C303.346 346.802 297.31 343.026 293.477 340.692C289.643 343.026 283.607 346.802 276.586 351.588C264.487 359.843 261.492 368.463 261.508 376.468C261.523 383.015 265.367 387.771 265.367 387.771Z" fill="#E11D25"/>
<path d="M74.043 86.4012C75.3347 110.438 61.0639 114.5 57.6993 106.573C55.9128 102.354 58.6993 96.2137 61.767 95.2658C65.5118 94.1043 65.0951 98.0783 65.0951 98.0783C65.0951 98.0783 64.2097 96.8543 63.0534 97.0366C60.7722 97.4064 62.0014 101.375 64.3972 101.375C66.7982 101.375 69.9545 99.422 70.7097 91.5991C71.8191 80.1616 60.0118 79.146 52.8243 85.7293C50.0066 88.3126 47.4962 91.7189 45.9284 94.0522C44.3607 91.7189 41.8555 88.3126 39.0378 85.7293C31.8503 79.146 20.0378 80.1616 21.1472 91.5991C21.9128 99.422 25.0691 101.375 27.4649 101.375C29.8607 101.375 31.0847 97.4064 28.8087 97.0366C27.6524 96.8543 26.7618 98.0783 26.7618 98.0783C26.7618 98.0783 26.3555 94.1043 30.0951 95.2658C33.1576 96.2137 35.9545 102.354 34.1628 106.573C30.8034 114.5 16.5274 110.438 17.8191 86.4012C17.8191 86.4012 13.9753 91.1616 13.9649 97.7085C13.9493 105.714 16.9441 114.333 29.043 122.583C36.0639 127.37 42.1003 131.151 45.9284 133.479C49.7618 131.151 55.7982 127.37 62.8191 122.583C74.918 114.333 77.918 105.714 77.9024 97.7085C77.8868 91.1616 74.043 86.4012 74.043 86.4012Z" fill="#E11D25"/>
<path d="M252.164 175.005C255.956 245.505 214.091 257.417 204.222 234.161C198.977 221.797 207.164 203.786 216.154 201C227.133 197.594 225.925 209.245 225.925 209.245C225.925 209.245 223.32 205.656 219.93 206.193C213.248 207.271 216.846 218.927 223.867 218.927C230.909 218.927 240.164 213.193 242.393 190.24C245.649 156.693 211.008 153.713 189.925 173.031C181.659 180.604 174.305 190.588 169.706 197.437C165.112 190.588 157.753 180.604 149.487 173.031C128.409 153.713 93.7632 156.693 97.0236 190.24C99.2528 213.193 108.513 218.927 115.539 218.927C122.57 218.927 126.169 207.271 119.482 206.193C116.097 205.656 113.482 209.245 113.482 209.245C113.482 209.245 112.289 197.594 123.253 201C132.253 203.786 140.435 221.797 135.19 234.161C125.326 257.417 83.4611 245.505 87.2528 175.005C87.2528 175.005 75.9715 188.969 75.9298 208.167C75.8882 231.651 84.6798 256.932 120.169 281.135C140.763 295.182 158.477 306.26 169.706 313.088C180.94 306.26 198.649 295.182 219.242 281.135C254.732 256.932 263.524 231.651 263.477 208.167C263.445 188.969 252.164 175.005 252.164 175.005Z" fill="#E11D25"/>
</svg>
