<svg width="340" height="474" viewBox="0 0 340 474" fill="none" xmlns="http://www.w3.org/2000/svg">
<path d="M23.5378 473.432C11.0378 473.432 0.871094 463.26 0.871094 450.765V23.2341C0.871094 10.734 11.0378 0.567383 23.5378 0.567383H316.361C328.861 0.567383 339.027 10.734 339.027 23.2341V450.765C339.027 463.26 328.861 473.432 316.361 473.432H23.5378Z" fill="#849393"/>
<path d="M316.362 3.23438H272.19L268.154 14.3229L263.789 3.23438H23.5391C12.4922 3.23438 3.53906 12.1875 3.53906 23.2344V450.766C3.53906 461.807 12.4922 470.766 23.5391 470.766H67.7786L71.7474 459.854L76.0443 470.766H316.362C327.409 470.766 336.362 461.807 336.362 450.766V23.2344C336.362 12.1875 327.409 3.23438 316.362 3.23438Z" fill="white"/>
<path d="M35.8242 19.4688H54.2461C57.8763 20.2292 59.694 21.5521 59.694 23.4323V31.2344C59.694 31.9063 59.7565 32.7813 59.8919 33.8542L59.694 34.2604C59.8242 35.1563 59.8919 35.9167 59.8919 36.5417C59.8919 39.2344 59.3294 41.0729 58.2096 42.0573V42.1927C59.3294 43.2656 59.8919 44.8594 59.8919 46.9635C59.8919 48.0885 59.8242 49.3646 59.694 50.7969C59.8242 53.1302 59.8919 55.2135 59.8919 57.0521C59.8919 61.625 59.4648 63.9115 58.6159 63.9115C57.7201 65.1667 56.0638 65.7917 53.6419 65.7917H37.7044C33.7617 65.7917 31.7878 64.4479 31.7878 61.7552V52.4792C31.8346 52.2083 31.9701 52.0781 32.194 52.0781H39.9909C40.2148 52.1198 40.3294 52.2552 40.3294 52.4792V52.6823C40.3294 57.8802 40.7305 60.4792 41.5378 60.4792C41.9388 60.75 42.319 60.8854 42.6836 60.8854H49.4701C50.3659 60.3438 50.8138 59.9635 50.8138 59.7396V47.3698C50.8138 46.3385 50.0534 45.8229 48.5273 45.8229H44.6992C43.8919 45.8229 42.4336 44.9635 40.3294 43.2396C40.1471 43.2396 39.3398 42.599 37.9076 41.3177L38.3086 41.1823H47.3867C49.6732 41.0469 50.8138 40.599 50.8138 39.8333V25.724C50.4128 24.8229 49.8971 24.375 49.2669 24.375H43.2201C41.8711 24.375 40.9128 24.7552 40.3294 25.5156C40.4648 27.2187 40.5273 28.5 40.5273 29.349V30.2917C40.5273 30.5156 40.3971 30.6302 40.1263 30.6302H37.3034C36.8086 30.6302 36.1159 30.6927 35.2148 30.8281C34.9909 30.6927 34.8138 30.6302 34.6784 30.6302C34.0065 30.7604 33.3763 30.8281 32.7982 30.8281C32.1263 30.8281 31.7461 30.651 31.6523 30.2917V23.974C31.6523 23.8385 31.6992 23.7708 31.7878 23.7708C31.7878 23.6823 31.7461 23.6354 31.6523 23.6354C31.6523 21.8438 32.5951 20.5677 34.4753 19.8021L35.8242 19.4688Z" fill="#E11D25"/>
<path d="M304.076 454.709H285.654C282.023 453.948 280.206 452.625 280.206 450.745V442.948C280.206 442.271 280.143 441.401 280.008 440.323L280.206 439.917C280.076 439.021 280.008 438.261 280.008 437.636C280.008 434.943 280.57 433.104 281.69 432.12V431.985C280.57 430.912 280.008 429.318 280.008 427.209C280.008 426.089 280.076 424.813 280.206 423.381C280.076 421.047 280.008 418.964 280.008 417.125C280.008 412.552 280.43 410.266 281.284 410.266C282.18 409.016 283.841 408.386 286.258 408.386H302.195C306.138 408.386 308.112 409.729 308.112 412.417V421.698C308.065 421.969 307.93 422.099 307.706 422.099H299.909C299.685 422.058 299.57 421.922 299.57 421.698V421.495C299.57 416.297 299.169 413.698 298.362 413.698C297.961 413.427 297.581 413.297 297.216 413.297H290.424C289.529 413.828 289.086 414.209 289.086 414.438V426.808C289.086 427.839 289.846 428.354 291.367 428.354H295.201C296.008 428.354 297.466 429.214 299.57 430.938C299.753 430.938 300.555 431.578 301.992 432.86L301.586 432.995H292.513C290.227 433.131 289.086 433.578 289.086 434.344V448.453C289.487 449.354 290.003 449.802 290.633 449.802H296.68C298.029 449.802 298.987 449.422 299.57 448.657C299.435 446.959 299.367 445.677 299.367 444.828V443.886C299.367 443.662 299.508 443.547 299.773 443.547H302.596C303.091 443.547 303.789 443.479 304.685 443.349C304.909 443.479 305.086 443.547 305.216 443.547C305.893 443.417 306.523 443.349 307.102 443.349C307.773 443.349 308.154 443.526 308.247 443.886V450.203C308.247 450.344 308.201 450.407 308.112 450.407C308.112 450.495 308.154 450.542 308.247 450.542C308.247 452.334 307.305 453.615 305.419 454.375L304.076 454.709Z" fill="#E11D25"/>
<path d="M265.609 387.771C264.318 363.74 278.589 359.677 281.953 367.604C283.74 371.823 280.948 377.964 277.88 378.912C274.141 380.073 274.552 376.099 274.552 376.099C274.552 376.099 275.443 377.323 276.599 377.141C278.875 376.771 277.651 372.802 275.25 372.802C272.859 372.802 269.698 374.756 268.938 382.578C267.828 394.016 279.641 395.032 286.823 388.448C289.646 385.86 292.151 382.459 293.719 380.125C295.287 382.459 297.797 385.86 300.615 388.448C307.802 395.032 319.609 394.016 318.5 382.578C317.74 374.756 314.583 372.802 312.188 372.802C309.792 372.802 308.563 376.771 310.844 377.141C311.995 377.323 312.885 376.099 312.885 376.099C312.885 376.099 313.297 380.073 309.557 378.912C306.49 377.964 303.698 371.823 305.49 367.604C308.854 359.677 323.125 363.74 321.828 387.771C321.828 387.771 325.677 383.016 325.693 376.469C325.703 368.464 322.708 359.844 310.609 351.594C303.589 346.802 297.552 343.026 293.719 340.698C289.885 343.026 283.854 346.802 276.833 351.594C264.734 359.844 261.734 368.464 261.75 376.469C261.76 383.016 265.609 387.771 265.609 387.771Z" fill="#E11D25"/>
<path d="M74.2865 86.4062C75.5782 110.437 61.3073 114.5 57.9427 106.573C56.1563 102.354 58.9479 96.2187 62.0104 95.2656C65.7552 94.1042 65.3438 98.0781 65.3438 98.0781C65.3438 98.0781 64.4532 96.8542 63.2969 97.0365C61.0209 97.4062 62.2448 101.375 64.6407 101.375C67.0365 101.375 70.1927 99.4219 70.9584 91.599C72.0677 80.1615 60.2552 79.1458 53.0677 85.7344C50.25 88.3125 47.7448 91.7187 46.1771 94.0521C44.6094 91.7187 42.099 88.3125 39.2813 85.7344C32.0938 79.1458 20.2865 80.1615 21.3959 91.599C22.1563 99.4219 25.3125 101.375 27.7084 101.375C30.1042 101.375 31.3334 97.4062 29.0521 97.0365C27.9011 96.8542 27.0104 98.0781 27.0104 98.0781C27.0104 98.0781 26.599 94.1042 30.3386 95.2656C33.4063 96.2187 36.1979 102.354 34.4063 106.573C31.0417 114.5 16.7709 110.437 18.0625 86.4062C18.0625 86.4062 14.2188 91.1615 14.2032 97.7083C14.1927 105.714 17.1875 114.333 29.2865 122.583C36.3073 127.375 42.3438 131.151 46.1771 133.479C50.0052 131.151 56.0417 127.375 63.0625 122.583C75.1615 114.333 78.1615 105.714 78.1459 97.7083C78.1354 91.1615 74.2865 86.4062 74.2865 86.4062Z" fill="#E11D25"/>
<path d="M252.409 175.005C256.195 245.505 214.341 257.417 204.472 234.161C199.222 221.797 207.409 203.786 216.404 201C227.378 197.594 226.169 209.245 226.169 209.245C226.169 209.245 223.565 205.656 220.175 206.193C213.492 207.276 217.086 218.927 224.117 218.927C231.149 218.927 240.409 213.193 242.638 190.24C245.893 156.693 211.253 153.713 190.169 173.031C181.904 180.609 174.55 190.594 169.956 197.437C165.357 190.594 157.998 180.609 149.737 173.031C128.654 153.713 94.0132 156.693 97.2632 190.24C99.4975 213.193 108.758 218.927 115.784 218.927C122.815 218.927 126.414 207.276 119.732 206.193C116.341 205.656 113.732 209.245 113.732 209.245C113.732 209.245 112.529 197.594 123.498 201C132.492 203.786 140.685 221.797 135.435 234.161C125.57 257.417 83.7059 245.505 87.4923 175.005C87.4923 175.005 76.2163 188.969 76.1798 208.172C76.1382 231.651 84.9246 256.932 120.414 281.135C141.013 295.182 158.716 306.266 169.956 313.094C181.19 306.266 198.893 295.182 219.487 281.135C254.977 256.932 263.768 231.651 263.722 208.172C263.69 188.969 252.409 175.005 252.409 175.005Z" fill="#E11D25"/>
</svg>
