<svg width="340" height="474" viewBox="0 0 340 474" fill="none" xmlns="http://www.w3.org/2000/svg">
<path d="M23.5378 473.151C11.0378 473.151 0.871094 462.979 0.871094 450.484V22.9479C0.871094 10.4531 11.0378 0.28125 23.5378 0.28125H316.361C328.861 0.28125 339.027 10.4531 339.027 22.9479V450.484C339.027 462.979 328.861 473.151 316.361 473.151H23.5378Z" fill="#849393"/>
<path d="M316.362 2.94824H272.19L268.154 14.042L263.789 2.94824H23.5391C12.4922 2.94824 3.53906 11.9066 3.53906 22.9482V450.485C3.53906 461.526 12.4922 470.485 23.5391 470.485H67.7786L71.7474 459.573L76.0443 470.485H316.362C327.409 470.485 336.362 461.526 336.362 450.485V22.9482C336.362 11.9066 327.409 2.94824 316.362 2.94824Z" fill="white"/>
<path d="M45.7409 34.307L41.3711 49.307L41.7044 49.6403H50.1107L50.7148 48.9736C47.8451 39.1976 46.1888 34.307 45.7409 34.307ZM40.0898 19.3174H51.9909V19.6507C50.9596 20.8278 50.4492 21.8538 50.4492 22.7445V23.0778C57.4805 48.0518 61.6315 61.7601 62.8867 64.2288L64.4284 65.2393V65.8382H53.2669V65.5049L54.7513 63.0257C53.3138 57.1976 52.2826 54.2809 51.6576 54.2809H40.0898C39.418 54.8122 38.5013 57.7341 37.3346 63.0257L38.8815 65.5049V65.8382H27.6523V65.2393C29.1784 65.2393 31.1471 60.2393 33.569 50.2393C39.1732 32.4111 41.9753 23.0413 41.9753 22.1455L40.0898 19.6507V19.3174Z" fill="#E11D25"/>
<path d="M294.156 439.302L298.526 424.307L298.193 423.969H289.786L289.182 424.641C292.052 434.417 293.708 439.302 294.156 439.302ZM299.807 454.292H287.906V453.958C288.932 452.792 289.453 451.76 289.453 450.865V450.526C282.417 425.563 278.266 411.844 277.016 409.38L275.469 408.37V407.766H286.63V408.104L285.146 410.589C286.583 416.417 287.615 419.333 288.24 419.333H299.807C300.474 418.792 301.396 415.88 302.563 410.589L301.016 408.104V407.766H312.245V408.37C310.719 408.37 308.75 413.37 306.328 423.365C300.724 441.203 297.922 450.573 297.922 451.469L299.807 453.958V454.292Z" fill="#E11D25"/>
<path d="M265.609 387.49C264.318 363.459 278.589 359.396 281.953 367.323C283.74 371.537 280.948 377.677 277.88 378.631C274.141 379.792 274.552 375.818 274.552 375.818C274.552 375.818 275.443 377.042 276.599 376.86C278.875 376.49 277.651 372.516 275.25 372.516C272.859 372.516 269.698 374.474 268.938 382.297C267.828 393.735 279.641 394.75 286.823 388.162C289.646 385.578 292.151 382.177 293.719 379.844C295.292 382.177 297.797 385.578 300.615 388.162C307.802 394.75 319.609 393.735 318.5 382.297C317.74 374.474 314.583 372.516 312.188 372.516C309.792 372.516 308.563 376.49 310.844 376.86C311.995 377.042 312.885 375.818 312.885 375.818C312.885 375.818 313.297 379.792 309.557 378.631C306.49 377.677 303.698 371.537 305.49 367.323C308.854 359.396 323.125 363.459 321.828 387.49C321.828 387.49 325.677 382.729 325.693 376.183C325.703 368.177 322.708 359.563 310.609 351.308C303.589 346.521 297.552 342.74 293.719 340.417C289.885 342.74 283.854 346.521 276.833 351.308C264.734 359.563 261.734 368.177 261.75 376.183C261.76 382.729 265.609 387.49 265.609 387.49Z" fill="#E11D25"/>
<path d="M74.2865 86.1198C75.5782 110.161 61.3073 114.214 57.9427 106.292C56.1563 102.078 58.9479 95.9323 62.0104 94.9844C65.7552 93.8281 65.3438 97.8021 65.3438 97.8021C65.3438 97.8021 64.4532 96.5729 63.2969 96.7448C61.0209 97.1198 62.2448 101.094 64.6407 101.094C67.0365 101.094 70.1927 99.1354 70.9584 91.3177C72.0677 79.8802 60.2552 78.8646 53.0677 85.4531C50.25 88.026 47.7448 91.4375 46.1771 93.7708C44.6094 91.4375 42.099 88.026 39.2813 85.4531C32.0938 78.8646 20.2865 79.8802 21.3959 91.3177C22.1563 99.1354 25.3125 101.094 27.7084 101.094C30.1042 101.094 31.3334 97.1198 29.0521 96.7448C27.9011 96.5729 27.0104 97.8021 27.0104 97.8021C27.0104 97.8021 26.599 93.8281 30.3386 94.9844C33.4063 95.9323 36.1979 102.078 34.4063 106.292C31.0417 114.214 16.7709 110.161 18.0625 86.1198C18.0625 86.1198 14.2188 90.8802 14.2032 97.4271C14.1927 105.427 17.1875 114.052 29.2865 122.307C36.3073 127.094 42.3438 130.865 46.1771 133.198C50.0052 130.865 56.0417 127.094 63.0625 122.307C75.1615 114.052 78.1615 105.427 78.1459 97.4271C78.1354 90.8802 74.2865 86.1198 74.2865 86.1198Z" fill="#E11D25"/>
<path d="M120.414 280.849C141.013 294.901 158.716 305.98 169.956 312.808C181.19 305.98 198.893 294.901 219.487 280.849C254.977 256.651 263.768 231.37 263.722 207.881C263.695 188.683 252.414 174.719 252.414 174.719C256.195 245.219 214.341 257.136 204.472 233.881C199.222 221.521 207.414 203.506 216.404 200.719C227.378 197.308 226.175 208.959 226.175 208.959C226.175 208.959 223.57 205.375 220.175 205.907C213.492 206.985 217.086 218.641 224.117 218.641C231.149 218.641 240.409 212.907 242.643 189.959C245.899 156.412 211.253 153.427 190.175 172.745C181.909 180.318 174.55 190.308 169.956 197.162C165.357 190.308 157.998 180.318 149.737 172.745C128.654 153.427 94.0132 156.412 97.2632 189.959C99.4975 212.907 108.758 218.641 115.789 218.641C122.815 218.641 126.414 206.985 119.732 205.907C116.347 205.375 113.732 208.959 113.732 208.959C113.732 208.959 112.529 197.308 123.498 200.719C132.492 203.506 140.685 221.521 135.435 233.881C125.57 257.136 83.7059 245.219 87.4923 174.719C87.4923 174.719 76.2163 188.683 76.1798 207.881C76.1382 231.37 84.9246 256.651 120.414 280.849Z" fill="#E11D25"/>
<path d="M169.954 181.229C174.007 176.026 178.746 170.562 183.866 165.864C190.746 159.562 198.939 155.119 207.392 152.948L200.621 139.026L181.35 136.802C181.35 136.802 180.173 131.026 186.397 131.026C192.621 131.026 195.079 130.718 184.173 120.359C178.085 114.573 172.725 86.9215 169.949 70.0518C167.173 86.9215 161.814 114.573 155.73 120.359C144.824 130.718 147.283 131.026 153.507 131.026C159.73 131.026 158.548 136.802 158.548 136.802L139.283 139.026L132.512 152.948C140.96 155.104 149.158 159.562 156.038 165.864C161.152 170.562 165.902 176.026 169.954 181.229Z" fill="#100F0D"/>
<path d="M254.297 263.88C227.927 288.635 210.953 296.208 210.953 296.208C242.818 290.812 253.391 275.224 260.281 269.13C270.047 260.489 282.182 268.192 281.339 277.802C280.458 287.859 268.823 284.229 270.88 283.026C274.927 280.666 273.417 271.224 264.307 275.781C255.938 279.963 271.417 301.505 286.427 285.651C301.432 269.802 279.25 240.458 254.297 263.88Z" fill="#100F0D"/>
<path d="M53.471 285.651C68.4762 301.505 83.9606 279.963 75.5908 275.781C66.4866 271.224 64.971 280.666 69.0178 283.026C71.0751 284.229 59.4397 287.859 58.5595 277.802C57.7158 268.192 69.8512 260.489 79.6168 269.13C86.5126 275.224 97.0803 290.812 128.95 296.208C128.95 296.208 111.971 288.635 85.6012 263.88C60.6428 240.458 38.4658 269.802 53.471 285.651Z" fill="#100F0D"/>
<path d="M174.802 320.786L169.953 323.734L165.104 320.786C157.885 316.401 147.995 310.255 136.391 302.703C133.281 303.812 131.281 304.302 131.281 304.302L139.281 320.75L158.547 322.969C158.547 322.969 159.729 328.75 153.505 328.75C147.281 328.75 144.823 329.057 155.729 339.417C161.813 345.198 167.172 372.859 169.948 389.724C172.724 372.859 178.083 345.198 184.172 339.417C195.078 329.057 192.62 328.75 186.396 328.75C180.172 328.75 181.349 322.969 181.349 322.969L200.62 320.75L208.62 304.302C208.62 304.302 206.62 303.813 203.51 302.708C191.917 310.25 182.026 316.396 174.802 320.786Z" fill="#100F0D"/>
</svg>
