<svg width="339" height="474" viewBox="0 0 339 474" fill="none" xmlns="http://www.w3.org/2000/svg">
<path d="M22.8034 473.151C10.3086 473.151 0.136719 462.979 0.136719 450.484V22.9479C0.136719 10.4531 10.3086 0.28125 22.8034 0.28125H315.626C328.121 0.28125 338.293 10.4531 338.293 22.9479V450.484C338.293 462.979 328.121 473.151 315.626 473.151H22.8034Z" fill="#849393"/>
<path d="M315.628 2.94824H271.456L267.414 14.042L263.055 2.94824H22.8047C11.763 2.94824 2.80469 11.9066 2.80469 22.9482V450.485C2.80469 461.526 11.763 470.485 22.8047 470.485H67.0443L71.0026 459.573L75.3099 470.485H315.628C326.669 470.485 335.628 461.526 335.628 450.485V22.9482C335.628 11.9066 326.669 2.94824 315.628 2.94824Z" fill="white"/>
<path d="M224.866 418.911C224.866 376.172 252.173 339.823 290.293 326.318V48.2812H113.335C113.47 50.4115 113.564 52.5469 113.564 54.6927C113.564 97.4375 86.2565 133.786 48.1367 147.292V425.151H225.079C224.949 423.083 224.866 421.01 224.866 418.911Z" fill="#F1EAD7"/>
<path d="M27.625 19.1875H39.3854V19.4531C38.3594 20.6667 37.8385 21.6927 37.8385 22.5469V39.3594H38.1719C45.8385 28.6927 49.6823 22.7865 49.6823 21.6667V20.6667L48.7344 19.4531V19.1875H62.1042V19.7865C59.7344 19.7865 55.0781 25.6823 48.1354 37.4688C47.0938 38.3177 46.5885 39.2656 46.5885 40.2917C47.5625 41.5052 52.349 49.0781 60.9063 63.026C62.3854 64.2813 63.5052 64.9063 64.2656 64.9063V65.5052H57.7448C53.9323 65.5052 50.1042 61.6823 46.2396 54.0156C44.3594 50.7865 42.9063 48.5885 41.8802 47.4271H41.599C39.0937 50.2917 37.8385 52.2656 37.8385 53.3333V62.0781C37.8385 62.974 38.3594 64.026 39.3854 65.2396V65.5052H27.625V65.2396C28.6146 64.026 29.1042 62.974 29.1042 62.0781V22.5469C29.1042 21.6927 28.6146 20.6667 27.625 19.4531V19.1875Z" fill="#E11D25"/>
<path d="M310.805 454.427H299.044V454.162C300.07 452.948 300.591 451.917 300.591 451.068V434.256H300.242C292.576 444.927 288.747 450.818 288.747 451.943V452.948L289.695 454.162V454.427H276.31V453.823C278.685 453.823 283.352 447.927 290.294 436.141C291.32 435.287 291.841 434.349 291.841 433.318C290.857 432.104 286.081 424.532 277.523 410.589C276.044 409.334 274.924 408.709 274.164 408.709V408.104H280.685C284.497 408.104 288.32 411.938 292.174 419.599C294.055 422.828 295.523 425.021 296.549 426.188H296.815C299.32 423.323 300.591 421.349 300.591 420.271V411.532C300.591 410.636 300.07 409.584 299.044 408.37V408.104H310.805V408.37C309.815 409.584 309.32 410.636 309.32 411.532V451.068C309.32 451.917 309.815 452.948 310.805 454.162V454.427Z" fill="#E11D25"/>
<path d="M264.865 387.49C263.589 363.459 277.854 359.396 281.214 367.323C283 371.542 280.214 377.677 277.146 378.631C273.401 379.792 273.813 375.818 273.813 375.818C273.813 375.818 274.708 377.042 275.865 376.86C278.146 376.49 276.922 372.516 274.521 372.516C272.12 372.516 268.958 374.474 268.198 382.297C267.094 393.735 278.906 394.75 286.094 388.162C288.906 385.578 291.412 382.177 292.984 379.844C294.547 382.177 297.052 385.578 299.88 388.162C307.068 394.75 318.865 393.735 317.76 382.297C317 374.474 313.839 372.516 311.453 372.516C309.052 372.516 307.828 376.49 310.104 376.86C311.266 377.042 312.146 375.818 312.146 375.818C312.146 375.818 312.563 379.792 308.828 378.631C305.76 377.677 302.958 371.542 304.745 367.323C308.12 359.396 322.385 363.459 321.094 387.49C321.094 387.49 324.948 382.729 324.948 376.183C324.958 368.177 321.974 359.563 309.865 351.313C302.854 346.521 296.813 342.74 292.984 340.417C289.146 342.74 283.12 346.521 276.094 351.313C264 359.563 261 368.177 261.016 376.183C261.026 382.729 264.865 387.49 264.865 387.49Z" fill="#E11D25"/>
<path d="M73.5469 86.1198C74.8386 110.161 60.573 114.214 57.2136 106.292C55.4115 102.078 58.2136 95.9323 61.2813 94.9844C65.0157 93.8281 64.599 97.8021 64.599 97.8021C64.599 97.8021 63.7188 96.5729 62.5626 96.7604C60.2813 97.1198 61.5053 101.094 63.9063 101.094C66.3074 101.094 69.4532 99.1458 70.2136 91.3177C71.3334 79.8802 59.5209 78.8646 52.3334 85.4531C49.5053 88.026 47.0001 91.4375 45.4376 93.7708C43.8646 91.4375 41.3594 88.026 38.5469 85.4531C31.3594 78.8646 19.5469 79.8802 20.6511 91.3177C21.4115 99.1458 24.573 101.094 26.974 101.094C29.3751 101.094 30.599 97.1198 28.3178 96.7604C27.1615 96.5729 26.2657 97.8021 26.2657 97.8021C26.2657 97.8021 25.8646 93.8281 29.599 94.9844C32.6667 95.9323 35.4532 102.078 33.6667 106.292C30.3074 114.214 16.0417 110.161 17.3334 86.1198C17.3334 86.1198 13.4792 90.8802 13.4688 97.4271C13.4532 105.438 16.4532 114.052 28.5469 122.307C35.573 127.094 41.6146 130.865 45.4376 133.198C49.2657 130.865 55.3074 127.094 62.3334 122.307C74.4271 114.052 77.4271 105.438 77.4115 97.4271C77.4011 90.8802 73.5469 86.1198 73.5469 86.1198Z" fill="#E11D25"/>
<path d="M220.867 95.4007C220.055 95.4007 219.388 94.6403 218.695 93.8382C218.174 93.2393 217.628 92.6247 217.044 92.3851C216.081 92.4372 215.628 93.0257 215.164 93.6403C214.669 94.2809 214.174 94.932 213.096 95.0413H213.018L212.961 94.9997C211.951 94.2653 211.414 93.0778 210.898 91.9215C210.378 90.7705 209.883 89.682 208.961 89.0153L208.523 88.682L209.07 88.6403C220.841 87.7705 227.977 85.0518 236.32 80.6663L236.43 80.6143L236.523 80.682C237.935 81.6143 238.721 83.1715 238.617 84.8538C238.44 87.5465 236.138 88.0153 233.909 88.4788C231.591 88.9476 229.201 89.4372 228.602 92.2288L228.523 92.6247L228.258 92.307C227.591 91.4945 226.815 91.0778 225.935 91.0778C224.164 91.0778 222.294 92.8538 221.935 94.8799L221.924 94.9476L221.867 94.9997C221.549 95.2653 221.201 95.4007 220.867 95.4007ZM215.549 104.229C214.737 101.359 214.737 98.3174 215.549 95.4528L215.602 95.2913L215.763 95.307C217.685 95.5309 218.815 96.5205 219.924 97.4788C220.107 97.6403 220.284 97.8122 220.471 97.958C222.362 97.7445 223.07 96.359 223.815 94.8955C223.951 94.6143 224.081 94.3486 224.232 94.0778L224.32 93.9215L224.482 93.984C225.43 94.3747 226.336 94.5622 227.19 94.5622C229.471 94.5622 231.294 93.1872 232.232 90.7705L232.32 90.5205L232.534 90.682C232.815 90.9059 233.148 91.0934 233.456 91.2913C234.055 91.6507 234.669 92.0257 235.122 92.5882C236.43 91.7705 237.471 90.708 238.242 89.4111L238.336 89.2549L238.497 89.333C239.107 89.6403 239.789 89.9736 239.935 90.8122L239.951 90.8538L239.935 90.9059C238.003 97.2393 232.029 98.6663 226.258 100.041C222.43 100.958 218.456 101.906 215.883 104.317L215.643 104.547L215.549 104.229ZM203.591 158.375C203.055 158.375 202.711 158.187 202.378 158C202.07 157.838 201.789 157.682 201.352 157.682C201.268 157.682 201.19 157.692 201.096 157.692L200.867 157.718L200.883 157.479C200.935 156.505 201.258 155.786 201.565 155.093C201.867 154.401 202.164 153.734 202.216 152.828L202.232 152.531L202.497 152.651C204.055 153.349 204.003 155.573 203.951 157.718L203.935 158.349L203.763 158.359C203.695 158.375 203.643 158.375 203.591 158.375ZM28.2422 182.88C27.9505 181.625 28.2422 180.948 28.5234 180.307C28.7213 179.854 28.9088 179.437 28.9088 178.828L28.8984 178.588L29.1484 178.64C29.987 178.828 30.9609 178.922 32.1068 178.922C34.3359 178.922 36.7734 178.562 39.1484 178.229C41.2318 177.932 43.1901 177.651 44.763 177.651C46.5338 177.651 47.6015 178.015 48.1224 178.771C48.6432 179.547 48.5911 180.666 47.9505 182.239L47.8984 182.359H47.7734C44.737 182.521 42.2318 182.521 39.789 182.521C36.1901 182.521 32.8047 182.521 28.4557 183.026L28.2838 183.052L28.2422 182.88ZM42.9765 206.437C41.6276 206.437 41.1068 205.588 40.6276 204.828C40.3515 204.359 40.0807 203.932 39.6536 203.666L39.5078 203.562L39.5911 203.401C40.0963 202.375 40.5234 202.172 41.1484 202.172C41.2682 202.172 41.4036 202.187 41.5651 202.187C41.7213 202.198 41.9088 202.213 42.1224 202.213C42.6536 202.213 43.164 202.135 43.7109 201.974L44.0182 201.88L43.9609 202.187C43.8307 203.052 44.0703 203.625 44.2838 204.119C44.4297 204.494 44.5755 204.838 44.5338 205.229C44.4974 205.588 44.2838 205.932 43.8984 206.307L43.8568 206.349L43.8047 206.359C43.5078 206.411 43.2318 206.437 42.9765 206.437ZM47.0443 225.021C43.737 224.073 43.5755 220.573 43.4297 217.494C43.362 216.015 43.2943 214.614 42.9088 213.562L42.7474 213.119L43.1745 213.307C45.3099 214.239 45.6015 216.958 45.8984 219.599C46.1068 221.521 46.3203 223.515 47.2578 224.703L47.6432 225.187L47.0443 225.021ZM43.8047 230.109C41.7734 230.109 40.0182 229.703 38.987 228.989L38.8411 228.89L38.9245 228.734C39.2161 228.172 39.737 227.88 40.2578 227.593C40.8672 227.25 41.4557 226.922 41.5651 226.135L41.6172 225.802L41.8828 225.994C42.8568 226.692 43.737 227.015 44.6276 227.015C45.5495 227.015 46.388 226.682 47.3776 226.291C48.5755 225.812 49.9349 225.265 51.763 225.265C51.9765 225.265 52.2161 225.276 52.4401 225.291L52.6693 225.307L52.6276 225.526C52.1484 228.536 47.8307 230.109 43.8047 230.109Z" fill="#E1F5F9"/>
<path d="M127.762 231.453C124.137 231.453 121.684 230.938 119.574 229.734C118.616 229.177 117.746 228.49 116.949 227.63L116.814 227.495L116.949 227.354C117.949 226.281 119.189 225.776 120.866 225.776C121.652 225.776 122.496 225.885 123.309 225.99C124.137 226.094 124.986 226.203 125.829 226.203C126.522 226.203 127.137 226.125 127.71 225.969C130.694 225.109 133.137 224.375 135.413 223.667C151.934 218.505 163.522 213.161 171.855 206.854C172.257 206.563 172.616 206.281 172.96 206L173.027 205.948L173.121 205.958C174.121 206.146 174.866 206.573 175.59 207C176.283 207.401 176.934 207.786 177.788 207.958L178.043 208.016L177.934 208.24C175.746 212.813 171.267 215.161 166.934 217.427C164.35 218.771 161.694 220.161 159.564 222.016C159.772 222.026 160.001 222.026 160.215 222.026C164.079 222.026 167.84 219.427 171.163 217.146C172.496 216.214 173.762 215.349 174.986 214.651L175.439 214.401L175.267 214.896C174.949 215.854 174.564 216.984 174.147 218.078C171.387 225.271 167.72 229.698 157.105 231.026C156.199 231.135 155.137 231.208 153.855 231.245C153.309 231.26 152.736 231.266 152.147 231.266C150.309 231.266 148.361 231.208 146.283 231.146C144.137 231.083 141.908 231.016 139.746 231.016C139.309 231.016 138.866 231.021 138.428 231.026C136.47 231.052 134.642 231.156 132.882 231.255C131.069 231.359 129.376 231.453 127.772 231.453H127.762ZM135.746 263.688C133.652 263.62 129.923 261.047 126.309 258.563C125.121 257.74 123.986 256.964 122.986 256.323C122.413 255.969 121.882 255.594 121.439 255.276C120.215 254.385 119.105 253.453 118.027 252.547C114.866 249.911 112.147 247.63 108.215 247.63C107.855 247.63 107.48 247.651 107.105 247.693L106.84 247.719L106.897 247.453C107.803 243.047 107.684 238.922 107.548 234.146C107.454 231.031 107.376 227.807 107.564 224.151L107.574 223.849L107.84 223.979C111.199 225.568 114.241 227.536 117.189 229.443L118.496 230.286C122.934 233.135 127.387 235.818 133.137 237.297L133.309 237.339L133.283 237.51C133.199 238.516 132.267 238.651 131.439 238.771C130.855 238.859 130.309 238.938 130.069 239.276C129.934 239.448 129.897 239.688 129.934 240.005C130.564 240.198 131.23 240.292 131.897 240.292C134.746 240.292 137.507 238.594 140.428 236.797C142.772 235.359 145.189 233.875 147.71 233.297C149.934 232.786 152.173 232.677 153.882 232.641C154.616 232.62 155.361 232.615 156.095 232.609C160.496 232.573 164.642 232.536 168.309 229.995L168.694 229.724L168.616 230.193C168.189 232.703 167.72 234.87 167.215 237.167C166.548 240.24 165.866 243.417 165.283 247.521L165.267 247.583L165.23 247.635C162.6 250.266 159.855 252.318 156.574 254.094C153.215 255.922 149.59 257.266 146.48 258.339C144.736 258.948 143.069 260.047 141.47 261.115C139.47 262.438 137.59 263.688 135.866 263.688H135.746ZM120.402 375.005C116.376 374.594 114.319 372.177 112.319 369.839C110.814 368.073 109.267 366.25 106.866 365.354C106.496 365.208 106.105 365.094 105.71 365.005L105.47 364.953L105.574 364.724C108.84 358.13 108.027 351.5 107.095 343.823L107.069 343.63C106.684 346.286 106.387 349.042 106.079 351.724C105.533 356.615 104.975 361.677 103.949 366.182L103.908 366.359L103.72 366.339C95.3503 365.156 88.5326 361.755 82.293 355.62L82.2305 355.557V355.469C82.7096 347.052 84.9076 337.536 87.2305 327.453C89.6419 317.016 92.3607 305.182 93.5638 292.797C94.0169 288.141 93.9492 283.339 93.8971 278.693C93.8138 271.354 93.7201 263.76 95.5638 256.104L95.5742 256.031L95.6419 255.984C96.0013 255.75 96.3607 255.635 96.7617 255.635C97.4701 255.635 98.1888 256 98.9492 256.38C99.8659 256.849 100.908 257.38 102.163 257.38C102.454 257.38 102.746 257.349 103.053 257.292L103.283 257.245L103.293 257.479C103.6 267.052 104.309 276.323 105.387 285.031C106.803 296.49 108.788 306.26 111.283 314.083C111.882 315.974 112.684 317.849 113.507 319.839C114.6 322.443 115.736 325.135 116.402 327.828C116.48 328.146 116.548 328.453 116.616 328.771C117.564 333.417 117.897 337.891 118.199 342.214C118.454 345.667 118.71 349.24 119.283 352.781C120.496 360.083 121.496 367.266 120.616 374.828L120.6 375.026L120.402 375.005ZM228.027 217.281C228.173 218.052 228.309 218.828 228.439 219.615C229.079 223.292 229.736 227.089 231.564 229.609C231.652 226.182 230.934 219.625 228.027 217.281ZM201.402 257.141C201.882 262.042 203.215 266.24 204.522 270.307C205.257 272.599 206.001 274.969 206.6 277.438C207.293 280.292 207.668 283.505 208.043 286.615C208.548 290.99 209.027 295.135 210.319 298.141C212.043 287.021 207.908 275.474 203.908 264.297C203.017 261.823 202.173 259.464 201.402 257.141ZM184.71 281.531C185.402 286.615 187.293 294.641 189.454 300.224C189.439 300.057 189.428 299.896 189.428 299.724C189.017 293.927 188.522 286.755 184.71 281.531ZM191.283 323.917C192.522 323.672 193.017 321.891 193.069 320.375C193.121 318.359 192.47 316.104 191.283 315.724V323.917ZM129.564 415.443C132.267 396.432 138.72 379.49 145.548 361.557C151.652 345.542 157.96 328.979 161.413 310.693C162.387 305.589 163.105 300.464 163.548 295.469C164.069 289.708 164.137 283.615 164.199 277.167C164.319 267.161 164.439 256.813 166.35 247.766C166.507 247.021 166.684 246.24 166.897 245.443C169.694 234.396 172.241 226.078 175.163 218.479C176.507 214.932 177.986 211.427 179.574 208.078L179.626 207.948L179.762 207.958C179.908 207.974 180.053 207.974 180.199 207.974C184.803 207.974 189.105 203.453 190.215 197.469L190.241 197.318L190.387 197.307C193.496 196.813 196.668 195.625 199.47 194.589C201.387 193.865 203.215 193.188 204.788 192.813C204.121 192.693 203.454 192.625 202.788 192.625C200.293 192.625 198.053 193.479 195.47 194.469C193.814 195.094 191.934 195.813 189.803 196.359L189.361 196.469L189.574 196.068C191.283 192.828 194.428 191 197.48 189.229C199.803 187.865 202.199 186.479 203.908 184.469C199.829 185.318 196.975 187.495 194.199 189.599C192.626 190.786 191.017 192.026 189.173 193.016L188.59 193.333L188.908 192.734C192.642 185.906 201.069 179.375 212.017 174.828C220.652 171.24 230.043 169.266 238.47 169.266H238.803C239.335 169.266 239.882 169.281 240.413 169.292C241.387 169.333 242.402 169.349 243.616 169.349C244.283 169.349 244.908 169.349 245.507 169.349C246.053 169.333 246.564 169.333 247.027 169.333C249.574 169.333 250.814 169.438 251.001 170.068C251.147 170.531 250.626 171.104 249.293 172C248.616 172.469 247.72 173 246.564 173.641C245.428 175.922 243.866 177.828 242.361 179.682C239.866 182.734 237.283 185.896 236.616 190.854L236.59 191.026H236.293C235.402 191.026 234.293 190.786 233.017 190.495C231.376 190.135 229.522 189.719 227.6 189.719C225.84 189.719 224.293 190.068 222.908 190.786C224.309 191.198 226.163 191.229 228.121 191.255C231.079 191.292 234.163 191.318 236.507 192.651C239.694 194.469 243.402 201.026 246.668 206.828L247.59 208.469C249.319 211.531 250.72 213.88 251.897 215.375C257.574 222.521 264.574 229.547 271.975 236.984C284.866 249.953 298.215 263.365 303.923 277.411L304.069 277.755L303.694 277.682C301.908 277.318 300.121 277.13 298.387 277.13C292.413 277.13 286.855 279.318 281.866 283.635C279.053 286.073 276.975 288.922 274.96 291.677C271.163 296.865 267.882 301.344 261.069 301.344C260.803 301.344 260.533 301.339 260.267 301.323C259.387 301.281 258.548 301.177 257.694 301.016L257.59 300.995L257.548 300.891C256.746 298.87 256.829 295.943 256.908 293.12C257.001 289.859 257.079 286.495 255.814 284.594C254.626 289.01 254.986 296.922 256.59 300.063L256.642 300.182L256.564 300.281C253.147 304.224 250.616 307.818 248.59 311.578L248.283 312.156L248.215 311.505C247.736 306.724 247.257 302.031 246.788 297.411C244.616 275.896 242.548 255.536 241.027 234.354C239.668 247.938 241.293 261.427 242.866 274.49C243.507 279.865 244.173 285.427 244.616 290.802C244.96 295.255 244.829 299.62 244.694 304.245C244.59 307.859 244.48 311.604 244.616 315.469C244.746 319.448 245.215 323.859 245.694 328.526C245.96 331.089 246.241 333.74 246.47 336.391C247.293 345.99 247.642 356.885 243.923 364.896L243.855 365.052L243.694 365.005C241.507 364.391 238.746 364.052 235.934 364.052C233.053 364.052 227.626 364.432 223.855 366.969L223.616 367.135L223.548 366.849C223.147 365.089 223.626 362.224 224.137 359.188C224.428 357.443 224.72 355.641 224.84 354.073C223.095 356.323 222.736 359.203 222.387 362C222.163 363.875 221.923 365.813 221.267 367.542L221.241 367.599L220.522 368.135C215.105 372.156 209.522 376.313 205.23 381.599L204.855 382.057L204.923 379.734C205.772 351.042 206.496 326.26 201.548 302.859C200.23 296.604 197.975 290.479 195.803 284.552C193.652 278.688 191.428 272.63 190.189 266.604C189.934 265.359 189.72 264.094 189.548 262.844C188.616 255.88 188.788 249.625 188.96 243C189.079 238.318 189.199 233.479 188.923 228.24C186.72 232.865 186.866 240.313 187.283 249.484C187.522 254.833 188.267 260.479 189.548 266.74C190.96 273.63 192.866 280.448 194.71 287.042C196.949 295.021 199.257 303.271 200.6 311.453C205.137 338.677 203.189 369.057 201.309 398.438C201.069 402.141 200.829 405.828 200.616 409.484L200.59 409.771L200.335 409.656C192.908 406.313 185.522 404.49 177.736 404.073C176.564 404.005 175.35 403.974 174.147 403.974C161.361 403.974 149.361 407.438 133.814 412.328C133.189 412.609 132.814 413.193 132.428 413.807C131.855 414.708 131.257 415.641 129.762 415.672L129.522 415.677L129.564 415.443Z" fill="#ED1D24"/>
<path d="M107.549 234.145C107.685 238.921 107.805 243.046 106.898 247.453L106.841 247.718L107.107 247.692C107.482 247.651 107.857 247.63 108.216 247.63C112.148 247.63 114.867 249.911 118.029 252.546C119.107 253.453 120.216 254.385 121.44 255.276C121.883 255.593 122.414 255.968 122.987 256.322C123.987 256.963 125.122 257.739 126.31 258.562C129.924 261.046 133.654 263.619 135.747 263.687H135.867C137.591 263.687 139.471 262.437 141.471 261.114C143.07 260.046 144.737 258.947 146.482 258.338C149.591 257.265 153.216 255.921 156.576 254.093C159.857 252.317 162.602 250.265 165.232 247.635L165.268 247.583L165.284 247.52C165.867 243.416 166.549 240.239 167.216 237.166C167.721 234.869 168.19 232.703 168.617 230.192L168.695 229.723L168.31 229.994C164.643 232.536 160.497 232.572 156.096 232.609C155.362 232.614 154.617 232.619 153.883 232.64C152.174 232.677 149.935 232.786 147.711 233.296C145.497 233.807 143.362 235.015 141.284 236.281C142.576 236.302 144.242 236.265 146.576 236.13C150.284 235.921 157.31 234.76 162.096 233.864C161.841 235.63 160.31 238.375 155.242 242.13C145.576 249.296 139.242 253.296 131.242 251.296C123.242 249.296 120.909 245.963 114.737 240.796C111.497 238.078 109.044 233.416 107.456 229.604C107.471 231.166 107.508 232.671 107.549 234.145ZM127.763 231.453H127.773C129.378 231.453 131.07 231.359 132.883 231.255C134.643 231.156 136.471 231.052 138.43 231.026C138.867 231.02 139.31 231.015 139.747 231.015C141.909 231.015 144.138 231.083 146.284 231.145C148.362 231.208 150.31 231.265 152.148 231.265C152.737 231.265 153.31 231.26 153.857 231.244C155.138 231.208 156.201 231.135 157.107 231.026C167.721 229.697 171.388 225.27 174.148 218.078C174.565 216.984 174.951 215.854 175.268 214.895L175.44 214.401L174.987 214.651C173.763 215.348 172.497 216.213 171.164 217.145C167.841 219.427 164.081 222.026 160.216 222.026C160.003 222.026 159.773 222.026 159.565 222.015C161.695 220.161 164.352 218.77 166.935 217.427C171.268 215.161 175.747 212.812 177.935 208.239L178.044 208.015L177.789 207.958C176.935 207.786 176.284 207.401 175.591 207C174.867 206.572 174.122 206.145 173.122 205.958L173.029 205.947L172.961 206C172.789 206.135 172.617 206.265 172.44 206.401C171.935 208.348 171.096 210.895 169.909 212.625C167.737 215.802 163.404 218.291 149.576 223.463C138.284 227.682 122.685 228.015 117.31 227.994C118.018 228.682 118.747 229.255 119.576 229.734C121.685 230.937 124.138 231.453 127.763 231.453ZM120.404 375.005L120.602 375.026L120.617 374.828C121.497 367.265 120.497 360.083 119.284 352.781C119.018 351.088 118.815 349.39 118.643 347.697C118.482 351.927 117.909 356.953 116.404 362.963C112.909 376.963 110.909 365.296 109.576 345.796C108.242 326.296 101.737 306.296 102.242 320.296C102.737 334.296 100.404 344.963 97.5755 352.63C95.8568 357.286 92.7109 361.015 88.5078 360.687C93.0547 363.703 98.0286 365.536 103.721 366.338L103.909 366.359L103.951 366.182C104.977 361.677 105.534 356.614 106.081 351.723C106.388 349.041 106.685 346.286 107.07 343.63L107.096 343.822C108.029 351.5 108.841 358.13 105.576 364.723L105.471 364.953L105.711 365.005C106.107 365.093 106.497 365.208 106.867 365.354C109.268 366.25 110.815 368.072 112.32 369.838C114.32 372.177 116.378 374.593 120.404 375.005ZM180.737 247.796C181.107 262.838 185.404 260.296 184.909 250.13C184.404 239.963 180.576 240.963 180.737 247.796ZM179.07 267.796C179.07 273.583 181.404 269.796 181.242 266.13C181.07 262.463 179.07 262.796 179.07 267.796ZM276.737 254.296C275.576 251.963 274.909 251.796 275.404 253.963C276.148 257.161 277.909 256.63 276.737 254.296ZM177.737 404.072C185.523 404.489 192.909 406.312 200.336 409.656L200.591 409.77L200.617 409.484C200.831 405.828 201.07 402.14 201.31 398.437C201.591 393.942 201.883 389.421 202.148 384.895C198.867 392.921 190.055 385.041 191.737 367.63C193.576 348.63 191.404 322.13 187.909 301.963C184.404 281.796 178.404 305.296 179.737 329.13C181.07 352.963 169.242 379.796 168.909 374.13C168.576 368.463 173.07 358.963 160.737 363.296C148.404 367.63 135.07 403.13 129.565 415.442L129.523 415.677L129.763 415.671C131.258 415.64 131.857 414.708 132.43 413.807C132.815 413.192 133.19 412.609 133.815 412.328C149.362 407.437 161.362 403.973 174.148 403.973C175.352 403.973 176.565 404.005 177.737 404.072ZM228.029 217.281C228.174 218.052 228.31 218.828 228.44 219.614C229.081 223.291 229.737 227.088 231.565 229.609C231.654 226.182 230.935 219.625 228.029 217.281ZM203.909 264.296C203.018 261.822 202.174 259.463 201.404 257.14C201.883 262.041 203.216 266.239 204.523 270.307C205.258 272.598 206.003 274.968 206.602 277.437C207.294 280.291 207.669 283.505 208.044 286.614C208.549 290.989 209.029 295.135 210.32 298.14C212.044 287.02 207.909 275.473 203.909 264.296ZM264.628 300.869C264.336 299.229 263.951 297.333 263.404 295.13C259.242 278.13 252.242 267.296 250.07 264.63C248.591 262.807 251.711 278.583 255.148 292.635C255.284 295.619 255.773 298.463 256.591 300.062L256.643 300.182L256.565 300.281C253.148 304.223 250.617 307.817 248.591 311.578L248.284 312.156L248.216 311.505C247.737 306.723 247.258 302.031 246.789 297.411C244.617 275.895 242.549 255.536 241.029 234.354C239.669 247.937 241.294 261.427 242.867 274.489C243.508 279.864 244.174 285.427 244.617 290.802C244.961 295.255 244.831 299.619 244.695 304.244C244.591 307.859 244.482 311.604 244.617 315.468C244.747 319.447 245.216 323.859 245.695 328.526C245.961 331.088 246.242 333.739 246.471 336.39C247.294 345.989 247.643 356.885 243.924 364.895L243.857 365.052L243.695 365.005C241.508 364.39 238.747 364.052 235.935 364.052C233.055 364.052 227.628 364.432 223.857 366.968L223.617 367.135L223.549 366.848C223.148 365.088 223.628 362.223 224.138 359.187C224.43 357.442 224.721 355.64 224.841 354.072C223.096 356.322 222.737 359.203 222.388 362C222.164 363.875 221.924 365.812 221.268 367.541L221.242 367.598L220.523 368.135C215.107 372.156 209.523 376.312 205.232 381.598L204.857 382.057L204.924 379.734C205.773 351.041 206.497 326.26 201.549 302.859C201.378 302.01 201.174 301.161 200.961 300.312C199.591 277.427 198.669 247.723 202.242 240.463C207.737 229.296 216.404 206.468 215.242 199.625C214.07 192.802 193.737 194.802 190.404 203.291C187.096 211.718 179.534 212.453 178.602 211.651C176.07 216.135 172.737 222.468 172.508 225.901C173.362 223.312 174.242 220.854 175.164 218.479C176.508 214.932 177.987 211.427 179.576 208.078L179.628 207.947L179.763 207.958C179.909 207.973 180.055 207.973 180.201 207.973C184.805 207.973 189.107 203.453 190.216 197.468L190.242 197.317L190.388 197.307C193.497 196.812 196.669 195.625 199.471 194.588C201.388 193.864 203.216 193.187 204.789 192.812C204.122 192.692 203.456 192.625 202.789 192.625C200.294 192.625 198.055 193.479 195.471 194.468C193.815 195.093 191.935 195.812 189.805 196.359L189.362 196.468L189.576 196.067C191.284 192.828 194.43 191 197.482 189.229C199.805 187.864 202.201 186.479 203.909 184.468C199.831 185.317 196.977 187.494 194.201 189.598C192.909 190.588 191.565 191.588 190.107 192.468C194.003 188.052 202.815 179.333 214.404 175.802C230.242 170.958 237.909 170.625 244.576 171.468C245.935 171.64 247.216 172.041 248.404 172.572C247.883 172.895 247.284 173.239 246.565 173.64C245.43 175.921 243.867 177.828 242.362 179.682C239.867 182.734 237.284 185.895 236.617 190.854L236.591 191.026H236.294C235.404 191.026 234.294 190.786 233.018 190.494C231.378 190.135 229.523 189.718 227.602 189.718C225.841 189.718 224.294 190.067 222.909 190.786C224.31 191.197 226.164 191.229 228.122 191.255C231.081 191.291 234.164 191.317 236.508 192.651C239.695 194.468 243.404 201.026 246.669 206.828L247.591 208.468C248.268 209.651 248.883 210.734 249.456 211.692C246.924 217.718 251.789 234.473 261.242 248.463C273.471 266.588 279.549 275.406 280.576 284.838C278.388 286.984 276.654 289.359 274.961 291.677C271.898 295.864 269.164 299.593 264.628 300.869ZM283.242 263.296C284.404 265.13 285.07 268.796 281.576 265.296C278.07 261.796 279.695 257.729 283.242 263.296Z" fill="#601814"/>
<path d="M82.9323 241.61C81.8281 240.068 81.7604 236.349 81.6927 232.412C81.6667 230.995 81.6406 229.532 81.5625 228.172L81.5469 227.839L81.8385 227.974C86.2396 229.969 85.0781 234.464 83.9479 238.808C83.7083 239.756 83.4687 240.657 83.2917 241.532L83.1979 241.979L82.9323 241.61ZM102.974 254.995C100.229 253.219 100.828 249.62 101.469 245.808C101.88 243.25 102.333 240.61 101.682 238.552C99.5729 241.052 99.5208 243.537 99.4531 246.396C99.401 248.412 99.349 250.495 98.6146 252.886L98.5469 253.078L98.3594 253.016C93.4531 251.453 89.0781 249.042 84.974 245.646L84.8802 245.573L84.8958 245.453C87.0156 234.474 88.651 218.896 87.5625 208.839L87.5313 208.589L87.8021 208.625C92.7604 209.479 92.2813 214.36 91.8958 218.282C91.7344 219.948 91.5729 221.532 91.8646 222.532C93.8542 221.318 93.9844 218.12 94.1042 215.016C94.1354 214.282 94.1719 213.532 94.2292 212.813L94.2656 212.292L94.5729 212.709C95.6927 214.104 97.2656 215.104 98.9323 216.162C101.651 217.896 104.479 219.683 105.281 223.453C105.531 224.604 105.266 225.823 105 227.006C104.828 227.823 104.641 228.667 104.625 229.495C104.563 232 104.708 234.766 104.854 237.443C105.188 243.802 105.547 250.381 103.266 254.917L103.172 255.115L102.974 254.995Z" fill="#FACB0C"/>
<path d="M81.6927 232.412C81.7604 236.349 81.8281 240.068 82.9323 241.61L83.1979 241.979L83.2917 241.532C83.2917 241.532 83.7344 238.521 83.401 234.521C83.1875 231.875 82.2813 229.334 81.6927 227.912L81.5469 227.839L81.5625 228.172C81.6406 229.532 81.6667 230.995 81.6927 232.412ZM103.266 254.917L103.172 255.115L102.974 254.995C100.229 253.219 100.828 249.62 101.469 245.808C101.88 243.25 102.333 240.61 101.682 238.552C99.5729 241.052 99.5208 243.537 99.4531 246.396C99.401 248.412 99.349 250.495 98.6146 252.886L98.5469 253.078L98.3594 253.016C93.4531 251.453 89.0781 249.042 84.974 245.646L84.8802 245.573L84.8958 245.453C85.651 241.552 86.3333 237.073 86.8646 232.464C87.7865 234.052 89.8542 236.131 94.5052 237.412C100.76 239.131 103.438 237.115 104.708 234.61C104.745 235.558 104.802 236.506 104.854 237.443C105.188 243.802 105.547 250.381 103.266 254.917Z" fill="#F25C19"/>
<path d="M211.547 174.162C211.573 172.948 212.026 171.854 212.974 170.719C213.641 169.922 214.479 169.172 215.307 168.453C216.375 167.506 217.495 166.532 218.24 165.386C223.078 158.042 225.906 148.922 226.88 137.495L227.266 137.469C227.573 138.828 227.693 140.453 227.641 142.599C227.589 144.709 227.375 146.985 227.146 149.412C226.589 155.438 225.958 162.266 227.932 167.427L228.016 167.641L227.787 167.693C221.521 169.136 216.469 171.771 211.839 174.349L211.531 174.506L211.547 174.162ZM198.667 178.854C195.958 178.854 193.761 177.104 190.974 174.896L190.068 174.172C189.36 173.615 188.547 172.974 187.625 172.334L187.412 172.172L187.625 172.016C191.36 169.068 194.375 165.282 197.281 161.599C198.042 160.625 198.813 159.667 199.599 158.709L199.667 158.615L199.787 158.641C201.36 158.896 202.136 159.948 202.896 160.959C203.349 161.563 203.771 162.146 204.36 162.563C206.198 159.881 205.625 156.495 205.068 153.214C204.667 150.828 204.255 148.375 204.745 146.172C203.896 147.615 203.052 149.078 202.229 150.521C196.865 159.865 191.333 169.532 179.813 173.026L179.563 173.094L179.547 172.839C179.453 170.959 179.615 168.563 179.771 166.026C180.136 160.683 180.521 154.625 178.896 150.24L178.865 150.172L178.896 150.12C179.292 148.547 180.521 147.813 181.719 147.104C182.771 146.479 183.771 145.896 184.229 144.761C184.453 142.881 183.813 141.828 183.146 140.735C182.828 140.214 182.505 139.683 182.281 139.042C180.214 139.104 178.172 139.308 177.375 140.709C177.599 140.745 177.932 140.761 178.292 140.771C179.828 140.839 182.146 140.948 182.615 142.787L182.625 142.881L182.573 142.959C178.531 148.615 171.719 151.573 164.495 154.349L164.162 154.479L164.214 154.136C165.412 146.828 167.386 141.771 170.266 138.709C172.589 136.229 175.292 135.521 178.146 134.771C180.761 134.104 183.469 133.401 186.292 131.349C189.36 129.104 191.292 123.922 191.547 120.162C191.589 119.563 191.36 119.042 191.146 118.589C190.958 118.162 190.787 117.802 190.896 117.453C191.052 116.896 191.469 116.042 191.958 115.052C193.255 112.438 195.198 108.479 193.948 106.453C193.36 105.506 192.094 105.026 190.198 105.026C190.068 105.026 189.906 105.026 189.761 105.042C187.12 105.136 184.828 108.308 184.615 112.12C185.078 112.854 185.412 113.016 185.771 113.016C186 113.016 186.255 112.948 186.563 112.881C187 112.771 187.547 112.641 188.266 112.641C188.682 111.334 188.229 110.959 187.719 110.506C187.307 110.146 186.828 109.745 186.88 108.828L186.896 108.735L186.958 108.683C188.333 107.709 189.318 107.136 190.333 107.136C191.281 107.136 192.172 107.615 193.229 108.693L193.307 108.787L193.266 108.907C190.505 116.651 182.948 119.719 175.625 122.683C174.802 123.016 173.974 123.349 173.162 123.693L173.042 123.735L172.948 123.651C167.828 119.24 162.813 102.136 168.932 94.7087C170.292 93.042 172.531 91.3597 175.401 89.8649C181.052 86.8962 188.266 85.042 194.24 85.042C198.761 85.042 202.547 86.068 205.198 88.016C215.625 95.6826 214.078 108.479 212.281 123.318C212.172 124.214 212.068 125.104 211.958 126.016C212.682 126.162 213.375 126.24 214.026 126.24C218.547 126.24 221.026 122.651 223.667 118.854C226.479 114.802 229.401 110.615 235.052 109.974L235.813 109.896L235.188 110.334C231.745 112.802 229.386 116.495 227.12 120.068C224.547 124.136 221.88 128.318 217.547 130.802C217.922 130.922 218.292 130.974 218.667 130.974C219.948 130.974 221.172 130.318 222.479 129.625C224.016 128.802 225.745 127.881 227.88 127.881C228.188 127.881 228.479 127.896 228.787 127.933C228.438 126.881 227.948 126.24 226.771 126.24C226.479 126.24 226.146 126.282 225.787 126.36L225.318 126.479L225.573 126.068C226.36 124.802 227.12 123.469 227.854 122.172C230.136 118.146 232.479 113.974 236.292 111.349L236.563 111.162L236.599 111.469C237.813 118.745 233.162 130.719 227.198 135.651L227.162 135.693L227.094 135.709C226.547 135.761 226.026 135.787 225.479 135.787C223.985 135.787 222.693 135.563 221.453 135.334C220.958 135.24 220.469 135.146 219.948 135.068C220.094 137.282 221.693 138.016 223.386 138.787C223.761 138.959 224.146 139.136 224.505 139.334L224.615 139.386V139.521C223.745 149.641 218.802 161.479 211.985 169.683C210.026 172.042 207.974 174.042 205.865 175.651C203.016 177.839 200.719 178.854 198.667 178.854ZM39.3074 215.693C39.2293 215.693 39.1616 215.693 39.0783 215.693L38.9481 215.683L38.9064 215.547C38.5887 214.453 38.922 213.959 39.2137 213.521C39.4689 213.162 39.6824 212.854 39.5626 212.188L39.521 211.948L39.771 211.959C41.2553 212.052 41.7449 212.933 41.7189 213.651C41.6824 214.641 40.7606 215.693 39.3074 215.693ZM46.9324 218.282C46.2553 217.349 46.0262 216.24 46.2293 214.802L46.2554 214.625H46.4272C47.1356 214.625 47.6147 214.828 48.0679 215.042C48.5054 215.229 48.922 215.412 49.5053 215.412C49.7866 215.412 50.0679 215.375 50.3856 215.292L50.6668 215.229L50.6251 215.521C50.3751 217.506 48.5887 217.974 47.146 218.349L47.0158 218.386L46.9324 218.282ZM50.1199 222.839C49.172 222.839 48.3178 222.427 47.6147 221.625L47.4949 221.495L47.6147 221.36C49.1616 219.641 52.0418 216.453 54.8543 216.453C55.7085 216.453 56.5053 216.745 57.2293 217.334L57.3751 217.453L57.2554 217.615C55.7606 219.563 52.8543 222.839 50.1199 222.839ZM73.8387 226.808C73.3491 226.808 72.8283 226.756 72.3074 226.657C69.5887 226.141 67.0783 224.37 64.6512 222.651C62.922 221.427 61.2814 220.282 59.6929 219.683L59.7449 219.292C60.0939 219.256 60.4689 219.24 60.8387 219.24C62.1876 219.24 63.6251 219.469 65.2293 219.948C67.6147 220.667 70.0158 221.813 72.3335 222.912C74.2554 223.828 76.0679 224.693 77.8283 225.302L78.2397 225.448L77.8647 225.667C76.547 226.433 75.2397 226.808 73.8387 226.808ZM85.0522 227.021C83.7606 226.703 82.8387 225.995 81.9585 225.313C81.0783 224.631 80.2554 223.985 79.0522 223.688L78.8126 223.631L79.1043 222.969C79.547 221.959 79.9585 221 80.172 219.828C78.2293 220.693 76.1981 221.136 74.1356 221.136C71.4793 221.136 68.7189 220.438 65.6824 219.016L65.6408 218.985L65.6147 218.959C65.5731 218.922 65.521 218.865 65.4793 218.813C64.6929 217.933 65.1199 217.521 65.547 217.104C65.7606 216.907 66.0001 216.683 66.146 216.36C59.771 216.282 54.8126 214.709 50.0158 213.188C47.5731 212.412 45.0522 211.615 42.3856 211.026L42.172 210.974L42.2397 210.771C43.0522 208.078 44.4689 206.839 46.6824 206.839C46.9324 206.839 47.1876 206.854 47.4533 206.881C48.6512 207.016 49.9481 207.412 51.3074 207.828C53.0939 208.386 54.9481 208.959 56.7189 208.959C58.6512 208.959 60.2137 208.256 61.5054 206.813C60.9481 205.985 60.521 205.881 60.2137 205.881C59.8022 205.881 59.3595 206.104 58.8387 206.36C58.146 206.719 57.2814 207.162 56.1616 207.162C55.8022 207.162 55.4272 207.12 55.0522 207.016L54.7345 206.948L54.9481 206.693C55.8283 205.693 57.1199 205.016 58.7866 204.683C58.3856 204.016 57.8022 203.709 56.9585 203.709C55.7606 203.709 54.2658 204.349 52.6668 205.026C51.0001 205.745 49.2814 206.479 47.8126 206.479C47.7085 206.479 47.6147 206.469 47.5054 206.469C46.7606 206.412 46.1199 206.136 45.6147 205.625L45.547 205.563L45.5626 205.469C45.5731 205.36 45.5991 205.256 45.6251 205.162C46.2137 202.985 50.0679 201.016 57.0522 199.308C58.146 199.042 59.2397 198.896 60.3335 198.896C60.6824 198.896 61.0262 198.907 61.3751 198.948C65.4793 199.256 69.172 201.412 73.0679 203.709C73.9741 204.24 74.9064 204.787 75.8543 205.318C85.3856 210.641 87.146 214.667 85.2918 226.854L85.2658 227.073L85.0522 227.021Z" fill="#FDE9C6"/>
<path d="M54.8543 216.453C53.3074 216.453 51.7345 217.412 50.3856 218.573C50.8543 218.495 51.3751 218.401 51.9585 218.292C53.5314 218.026 54.0939 219.318 54.0262 221.068C55.3335 219.985 56.4793 218.625 57.2554 217.615L57.3751 217.453L57.2293 217.334C56.5053 216.745 55.7085 216.453 54.8543 216.453ZM80.5991 208.375C79.4689 212.881 76.0679 216.667 72.8387 214.521C67.5054 210.959 68.172 210.745 61.0679 211.412C53.9585 212.078 47.9585 211.625 45.0679 209.412C44.4533 208.948 43.9741 208.532 43.5626 208.198C43.0158 208.828 42.5731 209.683 42.2397 210.771L42.172 210.974L42.3856 211.026C45.0522 211.615 47.5731 212.412 50.0158 213.188C54.8126 214.709 59.771 216.282 66.146 216.36C66.0001 216.683 65.7606 216.907 65.547 217.104C65.1199 217.521 64.6929 217.933 65.4793 218.813C65.521 218.865 65.5731 218.922 65.6147 218.959L65.6408 218.985L65.6824 219.016C68.7189 220.438 71.4793 221.136 74.1356 221.136C76.1981 221.136 78.2293 220.693 80.172 219.828C79.9585 221 79.547 221.959 79.1043 222.969L78.8126 223.631L79.0522 223.688C80.2554 223.985 81.0783 224.631 81.9585 225.313C82.8387 225.995 83.7606 226.703 85.0522 227.021L85.2658 227.073L85.2918 226.854C86.7866 217.068 85.9324 212.547 80.5991 208.375ZM47.146 218.349C48.5887 217.974 50.3751 217.506 50.6251 215.521L50.6668 215.229L50.3856 215.292C50.0679 215.375 49.7866 215.412 49.5053 215.412C48.922 215.412 48.5054 215.229 48.0679 215.042C47.6147 214.828 47.1356 214.625 46.4272 214.625H46.2554L46.2293 214.802C46.0262 216.24 46.2553 217.349 46.9324 218.282L47.0158 218.386L47.146 218.349ZM231.214 116.651C229.985 118.412 228.906 120.308 227.854 122.172C227.12 123.469 226.36 124.802 225.573 126.068L225.318 126.479L225.787 126.36C226.146 126.282 226.479 126.24 226.771 126.24C227.641 126.24 228.146 126.599 228.479 127.198C231.24 123.292 233.505 118.292 233.505 118.292C233.505 118.292 232.12 116.907 231.214 116.651ZM49.7606 206.146C50.7085 205.865 51.7085 205.438 52.6668 205.026C54.2658 204.349 55.7606 203.709 56.9585 203.709C57.8022 203.709 58.3856 204.016 58.7866 204.683C57.1199 205.016 55.8283 205.693 54.9481 206.693L54.7345 206.948L55.0522 207.016C55.4272 207.12 55.8022 207.162 56.1616 207.162C57.2814 207.162 58.146 206.719 58.8387 206.36C59.3595 206.104 59.8022 205.881 60.2137 205.881C60.521 205.881 60.9481 205.985 61.5054 206.813C60.2137 208.256 58.6512 208.959 56.7189 208.959C57.6929 210.068 61.2918 210.078 63.9585 208.292C66.6251 206.521 62.8387 200.959 58.6251 202.078C54.4012 203.188 53.5053 204.292 45.6147 205.625L49.7606 206.146ZM39.771 211.959L39.521 211.948L39.5626 212.188C39.6824 212.854 39.4689 213.162 39.2137 213.521C38.922 213.959 38.5887 214.453 38.9064 215.547L38.9481 215.683L39.0783 215.693C39.1616 215.693 39.2293 215.693 39.3074 215.693C40.7606 215.693 41.6824 214.641 41.7189 213.651C41.7449 212.933 41.2553 212.052 39.771 211.959ZM73.8387 226.808C75.2397 226.808 76.547 226.433 77.8647 225.667L78.2397 225.448L77.8283 225.302C76.0679 224.693 74.2554 223.828 72.3335 222.912C70.0158 221.813 67.6147 220.667 65.2293 219.948C63.6251 219.469 62.1876 219.24 60.8387 219.24C60.4689 219.24 60.0939 219.256 59.7449 219.292L59.6929 219.683C61.2814 220.282 62.922 221.427 64.6512 222.651C67.0783 224.37 69.5887 226.141 72.3074 226.657C72.8283 226.756 73.3491 226.808 73.8387 226.808ZM168.615 116.719C169.839 119.787 171.386 122.308 172.948 123.651L173.042 123.735L173.162 123.693C173.974 123.349 174.802 123.016 175.625 122.683C182.948 119.719 190.505 116.651 193.266 108.907C193.266 108.839 193.266 108.802 193.266 108.735L193.229 108.693C192.172 107.615 191.281 107.136 190.333 107.136C190.615 108.599 189.896 110.349 188.386 112.162C188.36 112.308 188.318 112.469 188.266 112.641C188.162 112.641 188.052 112.641 187.958 112.651C186.042 114.761 183.068 116.907 179.292 118.745C175.427 120.615 171.573 118.907 168.615 116.719ZM205.865 175.651C207.974 174.042 210.026 172.042 211.985 169.683C218.802 161.479 223.745 149.641 224.615 139.521V139.386L224.505 139.334C224.146 139.136 223.761 138.959 223.386 138.787C221.693 138.016 220.094 137.282 219.948 135.068C220.469 135.146 220.958 135.24 221.453 135.334C221.521 135.349 221.599 135.36 221.667 135.375C221.787 134.188 222.839 132.573 225.068 130.959C226.042 130.266 227.042 129.162 227.985 127.881C227.948 127.881 227.922 127.881 227.88 127.881C225.745 127.881 224.016 128.802 222.479 129.625C221.651 130.172 220.985 130.469 220.412 130.615C219.839 130.828 219.255 130.974 218.667 130.974C218.292 130.974 217.922 130.922 217.547 130.802C216.625 131.412 209.719 126.349 212.281 123.318C214.078 108.479 215.625 95.6826 205.198 88.016C202.547 86.068 198.761 85.042 194.24 85.042C188.708 85.042 182.104 86.6253 176.667 89.2295C179.896 88.7868 183.563 88.9222 187.735 89.8545C205.505 93.8545 208.401 106.745 203.505 116.745C198.625 126.745 198.625 129.188 203.505 127.412C208.401 125.625 215.292 133.412 214.172 144.959C213.068 156.521 208.625 167.188 202.839 171.854C197.162 176.453 190.172 170.922 189.12 170.745C188.974 170.881 188.839 171 188.693 171.12C188.505 171.453 187.229 171.641 187.026 172.292C187.745 172.828 189.495 173.719 190.068 174.172L190.974 174.896C193.761 177.104 195.958 178.854 198.667 178.854C200.719 178.854 203.016 177.839 205.865 175.651ZM182.573 142.959L182.625 142.881L182.615 142.787C182.375 141.865 181.682 141.375 180.839 141.12C181.078 141.334 181.172 141.719 180.839 142.521C180.401 143.625 174.401 147.412 167.735 148.959C166.599 149.229 165.761 149.401 165.162 149.506C164.802 150.948 164.495 152.479 164.214 154.136L164.162 154.479L164.495 154.349C171.719 151.573 178.531 148.615 182.573 142.959ZM185.958 140.959C185.958 140.959 184.255 140.229 182.641 139.854C182.802 140.162 182.974 140.453 183.146 140.735C183.813 141.828 184.453 142.881 184.229 144.761C183.771 145.896 182.771 146.479 181.719 147.104C180.521 147.813 179.292 148.547 178.896 150.12L178.865 150.172L178.896 150.24C179.281 151.266 179.547 152.386 179.735 153.563C180.521 152.438 181.453 151.256 182.401 150.292C185.068 147.625 185.958 140.959 185.958 140.959ZM190.906 105.052C191.281 105.078 191.615 105.136 191.922 105.198C191.573 104.959 191.214 104.922 190.906 105.052ZM227.932 167.427L228.016 167.641L227.787 167.693C221.521 169.136 216.469 171.771 211.839 174.349L211.531 174.506L211.547 174.162C211.573 172.948 212.026 171.854 212.974 170.719C213.641 169.922 214.479 169.172 215.307 168.453C216.375 167.506 217.495 166.532 218.24 165.386C223.078 158.042 225.906 148.922 226.88 137.495L227.266 137.469C227.573 138.828 227.693 140.453 227.641 142.599C227.589 144.709 227.375 146.985 227.146 149.412C226.589 155.438 225.958 162.266 227.932 167.427Z" fill="#DE9890"/>
<path d="M176.898 132.214C176.763 131.682 176.617 131.172 176.482 130.682C175.883 128.521 175.362 126.651 176.232 124.104L176.268 123.974H176.414C181.471 123.854 184.471 121.573 187.362 119.375C187.685 119.146 188.362 118.641 188.362 118.641H188.43C188.721 118.651 188.935 118.76 189.096 118.948C189.482 119.411 189.388 120.24 189.284 121.12C189.216 121.734 189.148 122.385 189.268 122.771L189.336 122.974L189.138 123.026C187.003 123.651 185.138 124.292 183.935 125.599C183.711 126.948 183.977 127.786 184.242 128.667C184.388 129.12 184.534 129.599 184.617 130.146L184.643 130.318L184.471 130.359C183.549 130.589 182.711 130.906 181.909 131.214C180.497 131.745 179.029 132.307 177.096 132.375H176.924L176.898 132.214ZM241.138 167.786C240.362 167.786 239.591 167.771 238.805 167.76C238.018 167.745 237.216 167.719 236.404 167.693H236.201L236.216 167.479C236.336 165.479 237.831 164.839 239.258 164.229C239.747 164.016 240.258 163.786 240.695 163.505C240.164 163.229 239.654 163.094 239.164 163.094C237.924 163.094 236.898 163.974 235.815 164.922C234.628 165.948 233.404 167.016 231.747 167.026C228.44 166 229.003 161.266 229.378 158.135C229.482 157.318 229.565 156.615 229.549 156.172L229.534 156.078L229.602 156.026C234.284 151.521 240.471 148.375 246.44 145.318C247.737 144.667 249.029 144 250.32 143.333L250.456 143.255L250.565 143.375C251.268 144.214 251.523 145.745 251.763 147.531L251.841 148.12C252.164 150.615 252.523 153.427 253.898 155.385C256.31 158.828 260.591 160.641 267.763 161.292L268.31 161.349L267.857 161.667C261.763 165.839 253.268 167.786 241.138 167.786ZM40.9609 200.104C37.138 200.104 33.0443 197.135 30.7734 192.708C29.6432 190.479 29.0182 188.068 28.9089 185.505L28.8984 185.318L29.0807 185.307C29.8151 185.198 30.6016 185.094 31.4036 184.984C34.8411 184.505 38.7214 183.974 42.4141 183.974C44.7734 183.974 46.763 184.188 48.4818 184.641L48.6172 184.682L48.6276 184.813C48.8828 187.615 48.8151 190.135 48.4297 192.281C47.5078 197.255 44.7891 200.104 40.9609 200.104ZM179.055 203.984C177.857 203.984 176.174 203.693 174.935 202.292L174.898 202.255V202.214C174.107 199.12 177.31 194.411 179.669 193.318C180.201 193.068 180.831 192.932 181.471 192.932C183.148 192.932 184.711 193.786 185.549 195.161C186.482 196.719 186.388 198.76 185.258 200.922C184.362 202.641 181.643 203.984 179.055 203.984ZM137.107 235.917C135.549 235.917 133.841 235.464 132.362 235.016L132.122 234.943L132.258 234.729C132.987 233.406 134.789 233.229 136.44 233.229C137.096 233.229 137.789 233.255 138.456 233.286C139.122 233.318 139.805 233.349 140.44 233.349C140.935 233.349 141.362 233.333 141.737 233.292L142.216 233.245L141.909 233.62C140.654 235.188 139.138 235.917 137.107 235.917ZM142.977 362.979C141.32 361.906 139.815 360.635 138.362 359.411C134.565 356.203 130.643 352.891 123.549 352.891C122.763 352.891 121.951 352.932 121.107 353.01L120.883 353.031L120.898 352.802C121.174 345.073 120.201 337.349 117.763 327.76C116.602 323.219 115.201 318.63 113.857 314.193C111.044 304.917 108.138 295.323 106.898 284.844C105.096 269.714 105.096 260.786 106.898 249.458L106.935 249.214L107.164 249.307C111.482 250.974 115.987 253.427 120.549 256.594C122.31 257.807 124.122 259.167 125.951 260.635C126.685 261.224 127.352 261.823 128.003 262.401C129.909 264.099 131.549 265.563 133.789 265.953C134.404 266.063 135.055 266.12 135.695 266.12C141.242 266.12 147.122 262.172 152.32 258.693C154.096 257.5 155.773 256.37 157.388 255.438C159.414 254.255 161.003 253.573 162.378 253.297L162.602 253.25L162.617 253.484C163.456 270.245 156.951 281.573 150.055 293.563C148.909 295.578 147.711 297.651 146.565 299.745C152.643 293.604 157.336 285.193 160.898 274.089L161.284 274.13C162.685 286.62 162.268 298.495 160.018 310.427C157.602 323.333 153.294 335.026 149.122 346.333C147.148 351.693 145.107 357.24 143.284 362.875L143.201 363.12L142.977 362.979Z" fill="#CD1E25"/>
<path d="M137.104 235.917C139.135 235.917 140.651 235.188 141.906 233.62L142.214 233.245L141.734 233.292C141.359 233.333 140.932 233.349 140.438 233.349C139.802 233.349 139.12 233.318 138.453 233.286C137.786 233.255 137.094 233.229 136.438 233.229C134.786 233.229 132.984 233.406 132.255 234.729L132.12 234.943L132.359 235.016C133.839 235.464 135.547 235.917 137.104 235.917ZM42.1719 186.078C44.401 185.411 44.625 189.854 36.401 190.958C33.7083 191.333 31.4792 190.974 29.7188 190.146C30 191.026 30.349 191.88 30.7708 192.708C33.0417 197.135 37.1354 200.104 40.9583 200.104C44.7865 200.104 47.5052 197.255 48.4271 192.281C48.8125 190.135 48.8802 187.615 48.625 184.813L48.6146 184.682L48.4792 184.641C46.7604 184.188 44.7708 183.974 42.4115 183.974C41.1042 186.094 39.9583 186.745 42.1719 186.078ZM151.734 278.078C148.802 285.719 148.146 292.693 148.948 295.51C149.318 294.859 149.693 294.203 150.052 293.563C156.948 281.573 163.453 270.245 162.615 253.484L162.599 253.25L162.375 253.297C161 253.573 159.411 254.255 157.385 255.438C155.771 256.37 154.094 257.5 152.318 258.693C147.12 262.172 141.24 266.12 135.693 266.12C135.052 266.12 134.401 266.063 133.786 265.953C131.547 265.563 129.906 264.099 128 262.401C127.349 261.823 126.682 261.224 125.948 260.635C124.12 259.167 122.307 257.807 120.547 256.594C115.984 253.427 111.479 250.974 107.161 249.307L106.932 249.214L106.896 249.458C105.094 260.786 105.094 269.714 106.896 284.844C108.135 295.323 111.042 304.917 113.854 314.193C115.198 318.63 116.599 323.219 117.76 327.76C118.068 328.964 118.349 330.141 118.615 331.286C117.292 320.016 115.76 306.193 115.068 293.854C113.734 270.078 122.401 275.63 127.068 284.964C131.734 294.297 133.958 289.63 135.068 282.297C136.172 274.964 156.839 264.745 151.734 278.078ZM185.255 200.922C186.333 198.865 186.469 196.922 185.667 195.385C184.625 196.786 182.708 198.146 180.625 199.188C178.615 200.198 176.625 200.068 175 199.573C174.76 200.495 174.693 201.411 174.896 202.214V202.255L174.932 202.292C176.172 203.693 177.854 203.984 179.052 203.984C181.641 203.984 184.359 202.641 185.255 200.922ZM248.625 165.625C243.734 164.745 244.401 164.958 249.068 164.078C253.734 163.188 242.839 158.521 237.958 161.411C233.068 164.292 232.839 165.188 233.734 161.411C234.385 158.641 232.521 158.745 229.104 161.292C229.026 163.802 229.438 166.307 231.745 167.026C233.401 167.016 234.625 165.948 235.813 164.922C236.896 163.974 237.922 163.094 239.161 163.094C239.651 163.094 240.161 163.229 240.693 163.505C240.255 163.786 239.745 164.016 239.255 164.229C237.828 164.839 236.333 165.479 236.214 167.479L236.198 167.693H236.401C237.214 167.719 238.016 167.745 238.802 167.76C239.589 167.771 240.359 167.786 241.135 167.786C245.719 167.786 249.786 167.505 253.411 166.932C252.719 166.438 250.693 166.016 248.625 165.625ZM153.906 332.974C157.948 310.26 156.802 285.099 152.839 293.411C151.359 296.531 150.172 297.333 149.438 296.526C154.146 290.76 157.922 283.37 160.896 274.089L161.281 274.13C162.682 286.62 162.266 298.495 160.016 310.427C158.531 318.333 156.349 325.786 153.906 332.974Z" fill="#81171B"/>
<path d="M166.439 90.7861L166.293 90.6663L166.319 90.5049C167.043 88.5882 167.402 86.3486 167.772 83.9736C168.199 81.3851 168.626 78.708 169.564 76.1038C169.668 75.8382 169.772 75.5465 169.897 75.2653C172.772 68.3747 181.84 57.7861 189.282 52.5882C191.267 51.1872 192.986 50.3174 194.376 49.984C195.163 49.7861 196.173 49.6924 197.376 49.6924C198.933 49.6924 200.496 49.8538 201.642 49.9736H201.762C211.027 50.9059 220.907 57.4268 225.897 63.3851L226.173 63.7184L225.069 63.708C198.027 63.708 176.762 73.5466 166.72 90.708L166.626 90.8799L166.439 90.7861ZM169.137 91.5466C169.105 91.5205 169.095 91.4945 169.053 91.4528L168.949 91.3486L169.027 91.2132C178.881 75.2653 200.616 65.333 225.762 65.2809C226.642 65.2809 227.522 65.2809 228.413 65.307L228.496 65.3174L228.564 65.3747C231.439 68.4945 234.709 72.0153 235.933 77.4684L235.975 77.6247L234.361 78.4372C226.59 82.3591 218.564 86.4111 209.881 86.4111C209.387 86.4111 208.897 86.4007 208.402 86.3747C205.986 86.2393 203.881 85.2549 201.84 84.307C200.105 83.4945 198.319 82.6507 196.387 82.3747C195.428 82.2393 194.454 82.1716 193.496 82.1716C187.428 82.1716 182.308 84.9216 176.897 87.8382C175.959 88.333 175.017 88.8382 174.069 89.3486C172.814 89.9997 171.137 90.8382 169.376 91.5986L169.23 91.6663L169.137 91.5466ZM163.59 106.958C163.413 106.734 163.267 106.494 163.105 106.265C157.069 97.3174 156.23 84.8018 160.897 73.5986C164.84 64.1195 172.137 57.5309 180.376 55.984L180.454 55.9736L180.522 55.9997C180.949 56.2549 181.163 56.5309 181.173 56.8382C181.189 57.4528 180.387 57.9736 179.376 58.6403C178.626 59.1195 177.772 59.682 177.241 60.307C173.829 64.307 170.814 69.2809 168.506 74.682C165.402 81.9215 162.095 93.3747 163.949 106.812L163.59 106.958ZM214.881 122.786C215.548 120.093 215.668 116.708 215.803 113.119C215.897 110.828 215.975 108.453 216.215 106.146V106.067L216.282 106.015C218.616 104.172 222.814 103.041 227.267 101.838C230.694 100.922 234.23 99.9736 236.986 98.6507L237.095 98.6143L237.189 98.6663C237.683 98.9841 237.986 99.3851 238.095 99.8538C238.334 100.984 237.439 102.385 236.496 103.854C235.548 105.307 234.574 106.812 234.616 108.172V108.349L234.428 108.375C228.933 109.015 226.293 112.375 223.506 115.948C221.282 118.771 218.986 121.708 215.147 123.026L214.788 123.146L214.881 122.786Z" fill="#1F1C1F"/>
<path d="M205.239 61.8017C207.068 60.4684 207.068 56.8017 200.239 59.958C196.521 61.6923 203.401 63.135 205.239 61.8017ZM169.562 76.1038C168.625 78.708 168.198 81.385 167.771 83.9736C167.401 86.3486 167.042 88.5882 166.318 90.5048L166.292 90.6663L166.437 90.7861L166.625 90.8798L166.719 90.708C172.948 80.0778 183.479 72.2653 197.016 67.8538C194.906 68.4111 192.745 69.0517 190.573 69.8017C180 73.4007 173.76 73.1975 171.094 72.8017C170.625 73.6507 170.213 74.4788 169.896 75.2653C169.771 75.5465 169.667 75.8382 169.562 76.1038ZM210.734 61.8017C212.734 61.6246 214.573 60.135 211.239 60.135C207.922 60.135 208.734 61.958 210.734 61.8017ZM163.588 106.958L163.948 106.812C162.948 99.5725 163.453 92.9215 164.614 87.1871C162.88 88.7705 160.198 88.0934 157.974 86.135C157.531 93.4528 159.266 100.573 163.104 106.265C163.266 106.494 163.411 106.734 163.588 106.958ZM219.187 65.5205C196.864 67.135 178.016 76.6819 169.026 91.2132L168.948 91.3486L169.052 91.4528C169.094 91.4944 169.104 91.5205 169.135 91.5465L169.229 91.6663L169.375 91.5986C171.135 90.8382 172.812 89.9996 174.068 89.3486C175.016 88.8382 175.958 88.333 176.896 87.8382C182.307 84.9215 187.427 82.1715 193.495 82.1715C194.453 82.1715 195.427 82.2392 196.385 82.3746C198.318 82.6507 200.104 83.4944 201.838 84.3069C203.88 85.2548 205.984 86.2392 208.401 86.3746C208.896 86.4007 209.385 86.4111 209.88 86.4111C218.562 86.4111 226.588 82.359 234.359 78.4371L235.974 77.6246L235.932 77.4684C235.854 77.0934 235.76 76.7444 235.651 76.385C234.239 76.6403 232.667 76.8798 230.906 77.135C220.239 78.6142 219.198 69.1715 219.187 65.5205ZM236.495 103.854C235.547 105.307 234.573 106.812 234.614 108.172V108.349L234.427 108.375C228.932 109.015 226.292 112.375 223.505 115.948C221.281 118.77 218.984 121.708 215.146 123.026L214.786 123.145L214.88 122.786C215.547 120.093 215.667 116.708 215.802 113.119C215.896 110.828 215.974 108.453 216.213 106.145V106.067L216.281 106.015C218.614 104.172 222.812 103.041 227.266 101.838C230.693 100.922 234.229 99.9736 236.984 98.6507L237.094 98.6142L237.187 98.6663C237.682 98.984 237.984 99.385 238.094 99.8538C238.333 100.984 237.437 102.385 236.495 103.854Z" fill="#151413"/>
<path d="M165.069 154.718L169.908 153.349C169.908 153.349 178.319 147.76 178.652 147.588C178.986 147.427 182.439 144.625 182.616 144.588C182.772 144.547 182.736 141.547 182.736 141.385C182.736 141.213 181.283 140.093 181.283 140.093C181.283 140.093 180.986 142.958 179.069 144.88C177.147 146.802 174.616 148.015 170.147 149.505C165.694 151.015 164.267 153.479 164.283 153.76C164.319 154.718 165.069 154.718 165.069 154.718ZM215.309 168.453C218.866 165.119 223.574 151.135 224.574 146.135C225.574 141.135 225.48 135.786 225.48 135.786L227.017 136.041L224.574 146.135C224.574 146.135 224.574 155.958 224.069 159.802C223.574 163.625 225.069 170.958 225.069 170.958L230.574 168.625C230.574 168.625 228.241 163.468 228.241 162.958C228.241 162.468 228.402 150.802 228.069 147.802C227.736 144.802 228.574 136.291 228.574 136.291C228.574 136.291 231.402 132.135 234.241 127.958C237.069 123.802 236.402 117.135 236.402 117.802C236.402 118.468 232.736 126.135 228.908 130.468C225.069 134.802 221.454 135.333 221.454 135.333L221.736 137.135C221.069 149.958 213.241 164.625 206.241 172.468C199.241 180.291 190.975 174.896 190.975 174.896L197.241 179.958L203.736 178.135L208.241 175.468C208.241 175.468 211.736 171.802 215.309 168.453ZM228.413 65.307C230.934 67.3174 235.736 77.958 235.736 89.8018C235.736 101.625 235.574 104.291 230.736 106.135C225.908 107.958 223.668 118.854 223.668 118.854C229.105 107.744 235.053 109.974 235.053 109.974C235.053 109.974 237.402 103.958 237.736 103.135C238.069 102.291 240.069 99.6247 240.736 92.6247C241.402 85.6247 237.736 75.958 234.908 71.6247C232.069 67.2913 222.574 57.958 222.574 57.958C222.574 57.958 225.908 63.2913 228.413 65.307ZM173.736 202.468C173.736 202.468 177.241 206.359 178.736 207.135C180.241 207.906 182.574 206.802 183.908 205.468C185.241 204.135 185.736 201.958 186.908 199.291C188.069 196.625 186.736 193.468 186.736 193.468C186.736 193.468 186.736 195.291 183.908 199.291C181.069 203.291 173.736 202.468 173.736 202.468ZM233.017 190.494L238.402 192.625L238.908 188.958C238.908 188.958 240.574 183.802 240.736 183.291C240.908 182.802 247.069 174.958 247.908 173.958C248.736 172.958 253.241 168.625 253.241 168.625L253.413 166.932L247.027 169.333C247.027 169.333 244.736 172.958 244.241 173.468C243.736 173.958 240.241 177.135 237.574 180.802C234.908 184.468 233.017 190.494 233.017 190.494ZM281.574 280.463C275.897 285.067 277.908 283.297 274.069 288.297C270.241 293.297 267.574 299.297 263.574 299.797C259.574 300.297 255.736 297.963 255.736 297.963C255.736 297.963 256.402 297.463 253.241 299.63C250.069 301.797 246.736 308.63 246.736 308.63C246.736 308.63 245.402 298.13 244.616 290.802C243.814 283.474 241.574 260.463 241.574 260.463L242.574 282.13C242.574 282.13 240.574 311.63 242.736 326.963C244.908 342.297 241.574 362.297 241.574 362.297C241.574 362.297 241.574 362.297 234.908 362.13C228.241 361.963 225.908 364.297 225.069 363.13C224.241 361.963 224.574 355.463 224.574 355.463C224.574 355.463 221.069 363.13 221.069 363.963C221.069 364.797 219.908 365.63 214.908 369.63C209.908 373.63 205.23 381.599 205.23 381.599L221.241 367.599C221.241 367.599 227.069 366.963 233.069 365.463C239.069 363.963 245.402 366.963 245.402 366.963L246.574 363.463C246.574 363.463 248.736 348.13 247.908 336.797C247.069 325.463 246.574 317.963 246.574 317.297C246.574 316.63 248.241 313.963 248.241 313.963C248.241 313.963 254.402 303.797 257.069 302.63C259.736 301.463 269.736 301.13 271.069 299.297C272.402 297.463 276.413 291 280.069 286.797C287.908 277.797 300.069 276.963 300.069 276.963C300.069 276.963 290.402 273.297 281.574 280.463ZM158.069 401.963C141.402 405.13 130.069 414.963 129.564 415.442L129.402 416.963L132.574 415.297L136.574 413.13C136.574 413.13 145.736 409.797 146.241 409.797C146.736 409.797 162.069 404.797 174.147 403.974C186.23 403.151 191.574 407.63 194.736 409.297C197.908 410.963 201.574 411.463 202.069 411.297C202.574 411.13 202.574 406.63 202.574 406.63C202.574 406.63 197.574 403.963 188.574 401.797C179.574 399.63 174.736 398.797 158.069 401.963ZM118.574 369.963C117.069 371.463 114.402 369.463 110.402 365.963C106.402 362.463 106.574 357.963 106.574 357.963C106.574 357.963 106.402 349.963 106.402 350.63C106.402 351.297 103.908 361.463 98.7357 361.963C93.5742 362.463 84.5742 360.13 84.5742 360.13C84.5742 360.13 91.7357 364.63 92.4023 364.63C93.069 364.63 94.4023 365.463 94.9076 365.63C95.4023 365.797 99.5742 366.797 100.736 366.797C101.908 366.797 103.908 366.359 103.908 366.359L105.736 366.297C105.736 366.297 107.069 366.63 107.908 366.797C108.736 366.963 113.736 373.463 113.736 373.463C113.736 373.463 119.069 377.463 119.736 377.63C120.402 377.797 121.402 376.463 122.574 373.63C123.736 370.797 120.736 355.13 120.736 355.13C120.736 355.13 120.069 368.463 118.574 369.963ZM131.574 232.63C131.574 232.63 149.069 232.297 149.736 232.297C150.402 232.297 165.908 230.13 169.736 226.963C173.574 223.797 175.439 214.401 175.439 214.401C175.439 214.401 172.574 219.802 168.736 223.13C164.908 226.463 160.908 227.463 152.736 227.797C144.574 228.13 118.496 230.286 118.496 230.286L124.241 232.297L131.574 232.63ZM111.574 249.963L121.439 255.276C121.439 255.276 133.574 264.63 133.788 265.953C134.017 267.276 143.736 262.963 143.736 262.963C143.736 262.963 161.454 252.333 163.736 250.463C166.017 248.599 167.402 241.297 167.402 241.297C167.402 241.297 162.908 246.463 158.402 248.463C153.908 250.463 146.574 254.963 142.574 257.297C138.574 259.63 133.908 260.13 127.402 256.297C120.908 252.463 120.069 248.963 115.069 246.63C110.069 244.297 106.402 241.463 106.402 241.463L106.84 247.718L111.574 249.963ZM95.2409 254.297C96.2409 254.63 102.402 256.463 103.053 257.291C103.694 258.114 104.241 254.463 104.736 253.797C105.241 253.13 106.402 241.463 106.402 241.463C106.402 241.463 103.241 250.963 101.908 251.797C100.574 252.63 101.908 251.797 95.9076 248.63C89.9076 245.463 83.293 241.531 83.293 241.531L82.9336 241.609L82.7357 245.297C82.7357 245.297 87.7357 249.963 88.2409 250.13C88.7357 250.297 94.2409 253.963 95.2409 254.297ZM86.4023 230.63C85.9076 230.13 83.6523 228.521 81.694 227.911C79.7357 227.297 78.2409 228.463 77.7357 228.463C77.2409 228.463 70.4023 226.797 68.7357 226.297C67.069 225.797 58.5742 220.135 58.5742 220.135C58.5742 220.135 62.7357 222.135 69.4023 223.13C76.069 224.13 76.7357 222.625 76.2409 222.625C75.7357 222.625 70.4023 220.625 70.4023 220.625C70.4023 220.625 72.7357 220.958 76.2409 219.468C79.7357 217.958 81.2409 219.958 82.2409 221.135C83.2409 222.291 85.0273 227.739 85.0534 227.021C85.069 226.297 87.5742 227.13 87.5742 227.13C87.5742 227.13 86.9076 231.13 86.4023 230.63Z" fill="#F9EB34"/>
<path d="M184.412 280.817C189.104 286.677 189.281 295.359 189.745 301.484C187.292 295.666 185.068 286.234 184.412 280.817ZM191.078 324.145C191.078 321.26 191.078 318.369 191.078 315.479C193.761 315.786 194.214 323.979 191.078 324.145ZM201.078 255.489C205.36 268.979 212.948 284.427 210.412 298.817C207.88 293.666 208.12 284.52 206.412 277.484C204.641 270.14 201.531 264 201.078 255.489ZM231.745 230.156C229.104 227.01 228.693 221.651 227.745 216.828C231.162 218.984 231.959 226.479 231.745 230.156ZM281.735 283.484C273.427 290.671 271.281 301.677 260.281 301.125C259.479 301.083 258.641 300.989 257.735 300.817C255.974 296.364 258.563 287.552 255.735 284.151C254.453 288.333 254.683 296.75 256.401 300.151C253.412 303.604 250.667 307.296 248.412 311.484C245.615 283.484 242.922 258.651 241.078 232.156C238.589 252.192 242.906 271.901 244.412 290.817C245.042 298.817 244.104 306.765 244.412 315.479C244.625 321.677 245.625 329 246.266 336.406C247.162 346.656 247.349 357.067 243.745 364.812C238.495 363.338 229.026 363.25 223.745 366.807C223.094 363.916 224.88 357.739 225.078 353.479C221.625 357.291 222.771 363.01 221.078 367.474C215.349 371.739 209.563 375.953 205.078 381.474C205.948 351.864 206.802 326.713 201.745 302.817C199.104 290.296 192.865 278.599 190.386 266.567C190.136 265.317 189.922 264.072 189.745 262.817C188.12 250.625 189.854 240.364 189.078 227.489C186.412 232.281 186.683 240.687 187.078 249.489C187.349 255.406 188.198 261.145 189.349 266.776C192.495 282.099 197.948 296.609 200.412 311.484C205.505 342.125 202.386 376.901 200.412 409.474C192.573 405.942 185.094 404.265 177.745 403.869C163.162 403.073 149.078 407.317 133.761 412.14C132.068 412.885 132.146 415.416 129.761 415.474C134.948 379.031 154.386 348.953 161.615 310.734C162.547 305.796 163.281 300.724 163.745 295.484C165.078 280.536 163.438 262.505 166.547 247.807C166.709 247.026 166.896 246.25 167.078 245.489C169.521 235.916 172.078 227.067 175.349 218.546C176.683 215.041 178.136 211.588 179.745 208.161C184.959 208.468 189.318 203.385 190.412 197.494C196.104 196.599 201.854 193.453 205.745 192.828C200.104 191.307 196.349 194.479 189.745 196.161C192.813 190.333 200.547 189.171 204.412 184.161C197.625 185.375 194.281 190.026 189.078 192.828C192.933 185.786 201.683 179.333 212.094 175C220.479 171.52 229.933 169.411 238.802 169.468C239.334 169.468 239.88 169.479 240.412 169.494C247.865 169.77 253.839 168.718 249.188 171.838C248.495 172.291 247.589 172.838 246.412 173.494C243.401 179.599 237.495 182.802 236.412 190.828C233.401 190.906 227.563 187.838 222.412 190.828C225.839 192.145 232.375 190.531 236.412 192.828C239.839 194.77 243.906 202.375 247.412 208.562C249.016 211.385 250.495 213.906 251.745 215.494C267.599 235.463 294.865 255.645 303.735 277.484C295.214 275.744 287.865 278.187 281.735 283.484ZM121.094 352.812C121.412 343.963 120 335.76 117.948 327.713C114.412 313.812 108.933 300.364 107.094 284.817C105.401 270.546 105.214 261.307 107.094 249.489C111.771 251.307 116.292 253.885 120.427 256.76C122.318 258.057 124.12 259.416 125.828 260.791C128.693 263.099 130.683 265.609 133.761 266.151C141.771 267.567 150.563 259.645 157.479 255.609C159.266 254.572 160.922 253.791 162.412 253.489C163.427 273.64 153.615 286.213 145.745 300.817C152.933 294 157.693 284.76 161.078 274.151C162.615 287.833 161.854 299.609 159.828 310.39C156.266 329.364 148.802 345.224 143.094 362.812C136.599 358.625 132.865 351.692 121.094 352.812ZM120.427 374.807C113.438 374.093 112.547 367.27 106.948 365.166C106.573 365.026 106.172 364.906 105.761 364.812C109.281 357.697 108.104 350.645 107.094 342.145C105.854 350.01 105.453 358.724 103.761 366.14C94.4117 364.822 87.8127 360.765 82.4273 355.479C83.4117 338.307 91.4117 317.067 93.7606 292.817C94.9221 280.869 92.745 268.677 95.7606 256.151C97.745 254.822 99.6669 258.166 103.094 257.484C103.386 266.536 104.068 275.989 105.188 285.057C106.505 295.718 108.438 305.838 111.094 314.145C112.521 318.599 115.052 323.213 116.214 327.88C116.292 328.192 116.36 328.5 116.427 328.812C118.136 337.203 117.787 344.89 119.094 352.812C120.214 359.656 121.308 367.14 120.427 374.807ZM85.094 245.489C87.3752 233.651 88.8023 218.453 87.7606 208.828C94.8023 210.026 90.4794 219.625 91.7606 222.822C94.5627 221.401 94.1356 216.744 94.4273 212.828C97.4273 216.614 103.828 217.572 105.094 223.489C105.495 225.38 104.479 227.427 104.427 229.489C104.214 237.833 106.318 248.406 103.094 254.822C98.495 251.859 103.693 243.218 101.761 238.156C97.8023 242.557 100.255 246.906 98.4273 252.822C93.1981 251.156 88.8648 248.604 85.094 245.489ZM83.094 241.489C81.6252 239.442 82.0523 233.192 81.7606 228.156C86.9481 230.505 84.094 236.593 83.094 241.489ZM79.094 223.489C79.6252 222.239 80.2138 221.052 80.4273 219.494C75.5471 221.802 70.7086 221.145 65.7606 218.828C65.719 218.77 65.6669 218.734 65.6252 218.682C64.5315 217.468 66.0679 217.468 66.4273 216.161C56.7086 216.104 50.4377 212.599 42.4273 210.828C43.4273 207.531 45.2398 206.838 47.4273 207.078C51.7606 207.546 57.5992 211.666 61.7606 206.828C59.8544 203.838 58.6513 207.718 55.094 206.828C56.0263 205.76 57.4013 205.119 59.094 204.828C57.2554 201.067 51.2919 206.546 47.5211 206.265C46.8544 206.213 46.2554 205.984 45.7606 205.494C45.7711 205.401 45.8023 205.307 45.8284 205.213C46.5992 202.359 53.3596 200.411 57.094 199.494C58.5888 199.135 60.0002 199.026 61.3596 199.135C66.3752 199.52 70.719 202.666 75.7606 205.494C85.0263 210.666 86.9846 214.427 85.094 226.822C82.5992 226.213 81.5888 224.104 79.094 223.489ZM72.3492 226.458C67.7346 225.583 63.5888 220.932 59.7606 219.494C61.5315 219.307 63.3492 219.599 65.1721 220.145C69.4794 221.427 73.8284 224.125 77.7606 225.489C75.8804 226.593 74.0784 226.791 72.3492 226.458ZM47.7606 221.494C49.9325 219.093 53.8648 214.838 57.094 217.494C55.4013 219.708 50.8127 224.947 47.7606 221.494ZM46.4273 214.828C48.0002 214.812 48.4013 215.974 50.4273 215.494C50.1981 217.265 48.6825 217.744 47.094 218.161C46.5315 217.385 46.2138 216.375 46.4273 214.828ZM47.094 224.822C42.4117 223.484 44.3075 216.828 43.094 213.494C46.6513 215.041 44.8388 221.958 47.094 224.822ZM39.094 228.822C39.7086 227.651 41.5627 227.724 41.7606 226.156C45.7867 229.02 47.3856 225.125 52.4273 225.489C51.7086 229.963 42.2138 230.974 39.094 228.822ZM39.7606 203.494C40.7346 201.52 41.2554 202.921 43.7606 202.161C43.5211 203.708 44.4273 204.385 44.3336 205.198C44.3075 205.494 44.1461 205.802 43.7606 206.161C40.9742 206.718 41.1356 204.359 39.7606 203.494ZM39.094 215.494C38.5471 213.614 40.0419 213.76 39.7606 212.161C42.6513 212.349 41.6669 215.682 39.094 215.494ZM30.9481 192.614C29.9065 190.562 29.2138 188.161 29.1044 185.494C34.8023 184.76 42.6669 183.333 48.4273 184.828C48.6929 187.76 48.5992 190.213 48.2294 192.239C46.1356 203.562 35.3492 201.213 30.9481 192.614ZM29.1044 178.828C36.719 180.52 51.1617 173.76 47.7606 182.161C40.1721 182.531 35.6669 181.984 28.4377 182.828C27.9481 180.786 29.12 180.401 29.1044 178.828ZM107.761 224.156C111.589 225.974 114.948 228.244 118.386 230.453C122.802 233.286 127.318 236.005 133.094 237.489C132.933 239.333 129.334 237.734 129.761 240.156C135.813 242.109 141.469 234.932 147.745 233.489C149.802 233.026 151.854 232.885 153.88 232.838C159.068 232.713 164.094 233.166 168.412 230.156C167.412 236.104 166.094 240.385 165.078 247.489C162.334 250.244 159.531 252.265 156.479 253.916C153.427 255.578 150.136 256.864 146.412 258.151C142.375 259.552 138.771 263.583 135.761 263.484C133.026 263.401 127.068 258.677 123.094 256.151C122.563 255.817 122.052 255.463 121.563 255.109C116.469 251.416 113.172 246.859 107.094 247.489C108.599 240.171 107.281 233.385 107.761 224.156ZM141.761 233.489C139.386 236.453 136.214 235.974 132.427 234.822C133.709 232.546 138.531 233.817 141.761 233.489ZM127.761 226.156C130.308 225.427 132.896 224.666 135.469 223.859C148.88 219.666 162.266 214.359 171.974 207.015C172.349 206.734 172.719 206.437 173.078 206.161C174.959 206.494 175.922 207.77 177.745 208.161C174.24 215.531 164.771 216.958 159.078 222.161C164.974 222.927 170.386 217.468 175.078 214.828C174.709 215.932 174.349 217 173.959 218C171.255 225.057 167.693 229.5 157.078 230.822C156.12 230.947 155.026 231.01 153.854 231.046C149.401 231.156 143.667 230.75 138.427 230.822C130.573 230.937 124.427 232.281 119.683 229.557C118.761 229.031 117.906 228.359 117.094 227.489C119.985 224.38 124.094 227.203 127.761 226.156ZM179.745 193.494C182.896 192.041 188.094 195.041 185.078 200.828C183.745 203.375 177.854 205.291 175.078 202.161C174.349 199.239 177.412 194.573 179.745 193.494ZM189.078 122.838C187.026 123.437 185.016 124.093 183.745 125.505C183.36 127.666 184.198 128.599 184.412 130.171C181.906 130.77 180.104 132.078 177.078 132.171C176.375 129.255 175.375 127.229 176.412 124.171C182.068 124.041 185.104 121.307 188.412 118.838C189.896 118.921 188.693 121.666 189.078 122.838ZM201.078 157.494C201.188 155.614 202.308 154.718 202.412 152.828C203.959 153.52 203.787 155.895 203.745 158.161C202.547 158.255 202.334 157.349 201.078 157.494ZM190.188 174.015C189.438 173.411 188.625 172.786 187.745 172.161C192.479 168.437 195.948 163.479 199.745 158.828C202.24 159.229 202.641 161.718 204.412 162.828C208.255 157.573 202.683 149.812 205.625 144.401C205.625 144.385 205.625 144.375 205.615 144.375C198.683 155.546 193.651 168.625 179.745 172.828C179.453 167.078 181.521 156.734 179.078 150.161C179.813 147.333 183.386 147.359 184.412 144.838C184.771 141.812 183.078 140.838 182.412 138.838C180.042 138.906 177.839 139.145 177.078 140.838C177.839 141.187 181.839 140.505 182.412 142.838C178.349 148.546 171.479 151.453 164.412 154.161C165.349 148.494 166.974 142.52 170.412 138.838C174.735 134.213 180.36 135.906 186.412 131.505C189.495 129.265 191.479 124.093 191.745 120.171C191.828 118.974 190.906 118.104 191.078 117.505C191.865 114.77 199.24 104.494 189.745 104.838C187.078 104.932 184.615 108.067 184.412 112.171C185.573 114.041 186.162 112.802 188.412 112.838C189.334 110.135 186.974 110.734 187.078 108.838C189.469 107.135 190.865 106.562 193.078 108.838C190.042 117.349 181.24 120.104 173.078 123.505C168.104 119.213 163.104 102.093 169.078 94.8381C170.469 93.1454 172.735 91.4944 175.495 90.0413C184.214 85.4527 197.933 82.9215 205.078 88.1715C216.078 96.2548 213.615 110.255 211.745 126.171C223.386 128.77 223.308 111.494 235.078 110.171C227.563 115.531 225.469 126.333 217.078 130.838C221 132.52 223.761 127.307 229.078 128.171C228.683 126.786 228.042 125.64 225.745 126.171C229 120.974 231.412 114.958 236.412 111.505C237.651 118.984 232.839 130.718 227.078 135.505C224.078 135.828 222.078 135.161 219.745 134.838C219.802 137.895 222.375 138.427 224.412 139.505C223.547 149.734 218.615 161.375 211.828 169.546C209.933 171.838 207.896 173.854 205.745 175.494C198.334 181.161 195.625 178.291 190.188 174.015ZM163.281 106.145C151.334 88.4788 161.401 59.76 180.412 56.1715C182.386 57.3173 178.615 58.385 177.078 60.1715C173.813 64.0152 170.735 68.9319 168.318 74.5985C164.349 83.8798 162.136 95.135 163.745 106.838C163.589 106.614 163.427 106.385 163.281 106.145ZM189.401 52.7444C191.281 51.4267 193 50.5204 194.412 50.1715C196.625 49.6402 199.896 49.984 201.745 50.1715C210.896 51.0933 220.745 57.5465 225.745 63.5048C199.188 63.3485 177.094 72.5881 166.563 90.6142C166.547 90.5985 166.531 90.5881 166.505 90.5725C168 86.5621 167.974 81.1454 169.745 76.1715C169.854 75.9058 169.959 75.6246 170.078 75.3329C173.026 68.2913 182.308 57.6923 189.401 52.7444ZM228.412 65.5048C231.505 68.8538 234.563 72.2548 235.745 77.5048C227.172 81.8277 218.162 86.7079 208.412 86.1715C203.974 85.9319 200.641 82.7704 196.412 82.1715C187.839 80.9579 181.386 85.3069 173.974 89.161C172.453 89.9475 170.906 90.7183 169.292 91.411C169.266 91.385 169.24 91.3485 169.198 91.3173C179.495 74.6402 202.308 65.5204 225.761 65.4788C226.641 65.4788 227.521 65.4788 228.412 65.5048ZM238.412 84.8381C238.078 89.9996 229.641 86.4683 228.412 92.1715C225.933 89.1454 222.255 91.9735 221.745 94.8381C219.959 96.2913 218.787 92.8538 217.078 92.1715C214.948 92.2652 215.094 94.6402 213.078 94.8381C211.146 93.4371 211 90.2548 209.078 88.8381C220.589 87.984 227.771 85.385 236.412 80.8381C237.948 81.8642 238.495 83.4683 238.412 84.8381ZM239.745 90.8381C236.547 101.307 222.198 98.1194 215.745 104.171C214.933 101.349 214.933 98.3329 215.745 95.5048C217.948 95.76 219.078 97.0673 220.412 98.1715C222.854 97.9475 223.469 95.8954 224.412 94.1715C228.401 95.8017 231.255 93.8642 232.412 90.8381C233.292 91.5048 234.427 91.9319 235.078 92.8381C236.469 92.0152 237.589 90.9058 238.412 89.5048C239 89.8017 239.599 90.0933 239.745 90.8381ZM234.412 108.171C224.255 109.349 223.505 119.932 215.078 122.838C216.172 118.385 215.813 112.041 216.412 106.171C220.495 102.932 230.735 101.854 237.078 98.8381C240.042 100.708 234.334 104.828 234.412 108.171ZM227.745 167.494C221.599 168.906 216.599 171.468 211.745 174.161C211.771 172.864 212.334 171.802 213.136 170.838C214.651 169.015 217.068 167.546 218.412 165.494C223.505 157.76 226.146 148.437 227.078 137.505C227.401 138.974 227.479 140.708 227.438 142.599C227.255 150.135 224.985 160.281 227.745 167.494ZM229.745 156.161C235.401 150.718 243.136 147.333 250.412 143.505C251.068 144.281 251.318 145.786 251.563 147.562C251.906 150.171 252.229 153.349 253.735 155.494C256.547 159.505 261.745 160.948 267.735 161.494C260.281 166.614 250.042 167.76 238.813 167.562C238.016 167.546 237.214 167.52 236.412 167.494C236.589 164.786 239.412 164.718 241.078 163.494C237.052 161.052 235.495 166.786 231.745 166.828C227.802 165.588 229.828 158.213 229.745 156.161ZM291.735 253.489C288.735 249.692 284.469 247.151 281.068 243.489C276.521 238.583 272.026 232.77 267.068 227.489C262.281 222.385 255.974 217.854 252.412 212.828C251.198 211.119 250.136 209.375 249.12 207.588C245.896 201.921 243.266 196 239.078 190.828C239.255 187.015 241.802 183.291 244.412 180.161C246.36 177.812 248.547 174.479 250.828 172.213C251.349 171.682 251.88 171.213 252.412 170.828C258.214 166.614 267 166.958 271.735 161.494C264.521 158.468 254.172 157.651 252.906 147.359C252.709 145.682 252.735 143.744 253.068 141.505C241.865 141.854 235.709 150.802 229.078 153.494C230.104 149.708 229.255 146.437 229.266 142.614C229.266 141.229 229.386 139.76 229.745 138.171C230.521 134.77 234.172 132.255 235.745 128.838C238.016 123.864 240.026 116.041 239.745 112.171C239.651 110.864 240.198 106.906 236.412 108.171C239.136 105.562 239.667 100.77 242.412 98.1715C244.104 76.76 228.438 55.984 209.745 49.5048C205.078 47.8954 198.36 47.3069 193.745 48.1715C191.427 48.6142 189.813 50.3069 187.854 51.6662C187.198 52.1037 186.521 52.5204 185.745 52.8381C182.292 54.2652 178.401 54.0777 175.078 55.5048C168.12 58.5204 160.521 66.359 157.745 73.5048C154.771 81.1975 153.599 91.3329 157.078 99.5048C157.948 101.52 160.438 103.734 162.318 106.802C162.589 107.239 162.839 107.692 163.078 108.171C167.255 116.494 165.375 123.895 173.745 126.171C177.052 134.708 169.229 136.104 165.745 142.171C163.375 146.317 163.104 149.375 163.078 154.161C163.078 154.588 163.078 155.041 163.078 155.494C168.974 158.119 173.094 150.718 177.078 151.494C177.745 159.88 177.959 164.437 177.078 174.161C178.078 173.812 179 173.562 179.865 173.401C183.651 172.64 186.281 173.468 188.563 174.932C191.042 176.52 193.094 178.88 195.745 180.828C193.865 184.948 189.615 186.692 187.745 190.828C176.641 189.359 172.922 197.802 172.412 204.828C172.016 205.015 171.599 205.213 171.198 205.411C160.052 210.864 147.802 218.145 134.933 222.161C132.349 222.979 129.719 223.651 127.094 224.156C122.974 224.947 118.896 222.88 115.094 225.489C105.547 220.375 99.4273 211.828 89.7606 206.828C86.7867 206.307 85.3336 207.281 83.7606 208.161C76.8127 203.281 69.719 198.333 61.5054 197.625C57.0784 197.229 52.3336 198.067 47.094 200.828C48.1461 198.479 49.0159 195.614 49.5888 192.494C50.5627 187.333 50.7711 181.479 49.7606 176.161C41.5888 175.974 34.1877 176.588 27.1044 177.494C26.0263 181.77 27.1721 187.77 29.6825 193.052C31.8023 197.52 34.8804 201.479 38.4273 203.494C36.6825 206.437 38.9325 210.958 37.1044 215.494C38.1981 218.562 42.5992 218.744 42.4273 222.161C42.2659 225.786 36.8127 225.51 37.1044 228.822C37.6409 235.031 49.8284 231 55.094 228.156C56.9846 224.671 51.8804 223.51 55.7606 221.494C59.5211 219.531 63.8804 225.296 69.7606 227.489C70.5627 227.791 71.3075 228 72.0002 228.151C75.0002 228.807 77.1461 228.38 79.7606 229.489C76.2398 243.484 86.0784 249.645 94.4273 255.489C94.4013 255.546 94.3856 255.604 94.3596 255.656C89.5211 268.677 91.0679 284.531 89.7606 300.151C88.3336 317.156 82.8961 331.869 80.4273 345.479C79.7711 349.125 79.1044 354.031 79.7606 356.145C81.0002 360.119 93.6409 368.218 100.427 368.807C103.719 369.099 104.349 368.552 106.427 366.807C110.735 370.005 115.839 380.343 121.094 378.14C127.188 375.572 121.599 362.724 122.427 354.812C130.896 353.718 135.985 361.651 141.761 365.474C136.683 381.119 127.735 395.932 128.292 415.52C128.318 416.38 128.36 417.25 128.427 418.13C140.839 412.333 159.802 404.942 177.641 405.843C182.016 406.067 186.292 406.786 190.412 408.14C194.589 409.51 197.36 413.479 202.412 412.14C205.828 404.104 201.787 396.026 204.412 386.807C205.906 381.593 217.229 371.536 224.349 368.26C225.094 367.916 225.771 367.651 226.412 367.474C232.214 365.812 240.599 366.224 245.745 368.807C251.349 358.901 249.198 348.026 248.229 336.239C247.802 331.052 247.615 325.687 248.412 320.145C249.198 314.604 253.172 304.765 258.401 302.817C258.948 302.619 259.563 302.567 260.214 302.593C262.349 302.666 264.922 303.583 267.068 302.817C277.026 299.25 280.854 281.276 294.401 279.484C298.745 278.911 302.427 281.526 307.735 281.484V280.151C304.985 270.38 297.735 261.072 291.735 253.489Z" fill="#231F20"/>
</svg>
