<svg width="339" height="474" viewBox="0 0 339 474" fill="none" xmlns="http://www.w3.org/2000/svg">
<path d="M23.2917 473.651C10.7917 473.651 0.625 463.479 0.625 450.984V23.4528C0.625 10.958 10.7917 0.786133 23.2917 0.786133H316.115C328.609 0.786133 338.781 10.958 338.781 23.4528V450.984C338.781 463.479 328.609 473.651 316.115 473.651H23.2917Z" fill="#849393"/>
<path d="M316.116 3.45312H271.939L267.908 14.5417L263.538 3.45312H23.293C12.2461 3.45312 3.29297 12.4115 3.29297 23.4531V450.984C3.29297 462.026 12.2461 470.984 23.293 470.984H67.5273L71.4961 460.078L75.7982 470.984H316.116C327.158 470.984 336.116 462.026 336.116 450.984V23.4531C336.116 12.4115 327.158 3.45312 316.116 3.45312Z" fill="white"/>
<path d="M39.7786 26.474V35.8229C39.7786 37.6615 42.4766 39.1198 47.8672 40.1927C47.8672 40.4635 48.9818 40.8646 51.2109 41.4063L51.5443 40.8021V26.2083C51.013 24.9531 50.1849 24.3229 49.0755 24.3229H41.987C40.5182 24.3229 39.7786 25.0417 39.7786 26.474ZM35.0755 19.6875H56.2526C58.9401 20.3594 60.2891 21.7031 60.2891 23.7188V61.9792C59.5703 64.6667 58.2266 66.0156 56.2526 66.0156H35.0755C32.3828 65.3385 31.0391 63.9948 31.0391 61.9792V49.8073L31.3099 49.2031C36.4141 51.0833 39.237 52.3438 39.7786 52.9688V59.151C39.7786 60.6354 40.5182 61.3698 41.987 61.3698H49.3411C50.8099 61.3698 51.5443 60.6354 51.5443 59.151V48.9323C51.5443 47.0521 48.8568 45.5938 43.4766 44.5677C35.1849 42.1875 31.0391 39.6979 31.0391 37.099V23.7188C31.7109 21.0313 33.0547 19.6875 35.0755 19.6875Z" fill="#E11D25"/>
<path d="M299.626 448.146V438.803C299.626 436.959 296.928 435.506 291.538 434.428C291.538 434.162 290.423 433.745 288.194 433.214L287.861 433.829V448.412C288.397 449.667 289.22 450.292 290.335 450.292H297.418C298.892 450.292 299.626 449.574 299.626 448.146ZM304.335 454.933H283.152C280.465 454.266 279.121 452.923 279.121 450.891V412.641C279.84 409.949 281.184 408.615 283.152 408.615H304.335C307.022 409.282 308.366 410.626 308.366 412.641V424.813L308.1 425.412C302.991 423.532 300.168 422.282 299.626 421.652V415.469C299.626 413.985 298.892 413.24 297.418 413.24H290.069C288.595 413.24 287.861 413.985 287.861 415.469V425.683C287.861 427.574 290.548 429.027 295.928 430.053C304.22 432.428 308.366 434.923 308.366 437.521V450.891C307.694 453.589 306.35 454.933 304.335 454.933Z" fill="#E11D25"/>
<path d="M265.367 388C264.076 363.958 278.346 359.896 281.706 367.828C283.497 372.042 280.706 378.188 277.638 379.135C273.898 380.292 274.31 376.318 274.31 376.318C274.31 376.318 275.201 377.547 276.357 377.359C278.633 376.984 277.409 373.026 275.008 373.026C272.612 373.026 269.456 374.974 268.695 382.802C267.586 394.24 279.398 395.255 286.581 388.667C289.404 386.078 291.909 382.682 293.477 380.349C295.044 382.682 297.55 386.078 300.367 388.667C307.555 395.255 319.367 394.24 318.258 382.802C317.497 374.974 314.341 373.026 311.945 373.026C309.544 373.026 308.32 376.984 310.596 377.359C311.753 377.547 312.643 376.318 312.643 376.318C312.643 376.318 313.055 380.292 309.315 379.135C306.247 378.188 303.456 372.042 305.247 367.828C308.607 359.896 322.878 363.958 321.586 388C321.586 388 325.435 383.24 325.445 376.693C325.461 368.682 322.466 360.068 310.367 351.813C303.346 347.026 297.31 343.24 293.477 340.922C289.643 343.24 283.607 347.026 276.586 351.813C264.487 360.068 261.492 368.682 261.508 376.693C261.518 383.24 265.367 388 265.367 388Z" fill="#E11D25"/>
<path d="M74.0443 86.625C75.336 110.656 61.0651 114.719 57.7005 106.792C55.9141 102.578 58.7005 96.4375 61.7683 95.4844C65.513 94.3229 65.0964 98.2969 65.0964 98.2969C65.0964 98.2969 64.211 97.0729 63.0547 97.2552C60.7735 97.625 62.0026 101.599 64.3985 101.599C66.7943 101.599 69.9505 99.6406 70.711 91.8177C71.8203 80.3802 60.013 79.3646 52.8255 85.9531C50.0078 88.5312 47.4974 91.9375 45.9297 94.2708C44.362 91.9375 41.8568 88.5312 39.0391 85.9531C31.8516 79.3646 20.0391 80.3802 21.1485 91.8177C21.9141 99.6406 25.0703 101.599 27.4662 101.599C29.862 101.599 31.086 97.625 28.8099 97.2552C27.6537 97.0729 26.763 98.2969 26.763 98.2969C26.763 98.2969 26.3568 94.3229 30.0964 95.4844C33.1589 96.4375 35.9558 102.578 34.1641 106.792C30.7995 114.719 16.5287 110.656 17.8203 86.625C17.8203 86.625 13.9766 91.3854 13.961 97.9271C13.9505 105.938 16.9453 114.552 29.0443 122.807C36.0651 127.594 42.1016 131.37 45.9297 133.698C49.763 131.37 55.7995 127.594 62.8203 122.807C74.9193 114.552 77.9193 105.938 77.9037 97.9271C77.888 91.3854 74.0443 86.625 74.0443 86.625Z" fill="#E11D25"/>
<path d="M252.164 175.229C255.951 245.724 214.091 257.641 204.222 234.38C198.977 222.016 207.164 204.01 216.154 201.219C227.133 197.812 225.925 209.469 225.925 209.469C225.925 209.469 223.32 205.875 219.93 206.417C213.248 207.495 216.841 219.146 223.867 219.146C230.904 219.146 240.164 213.411 242.393 190.463C245.649 156.917 211.008 153.932 189.925 173.255C181.659 180.828 174.305 190.812 169.706 197.661C165.112 190.812 157.753 180.828 149.487 173.255C128.409 153.932 93.7632 156.917 97.0184 190.463C99.2528 213.411 108.513 219.146 115.539 219.146C122.57 219.146 126.169 207.495 119.482 206.417C116.097 205.875 113.482 209.469 113.482 209.469C113.482 209.469 112.284 197.812 123.253 201.219C132.248 204.01 140.435 222.016 135.19 234.38C125.326 257.641 83.4611 245.724 87.2475 175.229C87.2475 175.229 75.9715 189.193 75.9298 208.385C75.8882 231.875 84.6798 257.161 120.169 281.359C140.763 295.401 158.471 306.479 169.706 313.307C180.94 306.479 198.649 295.401 219.242 281.359C254.732 257.161 263.524 231.875 263.477 208.385C263.445 189.193 252.164 175.229 252.164 175.229Z" fill="#E11D25"/>
</svg>
