<svg width="339" height="474" viewBox="0 0 339 474" fill="none" xmlns="http://www.w3.org/2000/svg">
<path d="M23.0495 473.151C10.5495 473.151 0.382812 462.979 0.382812 450.484V22.9479C0.382812 10.4531 10.5495 0.28125 23.0495 0.28125H315.867C328.362 0.28125 338.534 10.4531 338.534 22.9479V450.484C338.534 462.979 328.362 473.151 315.867 473.151H23.0495Z" fill="#849393"/>
<path d="M315.865 2.94824H271.693L267.667 14.042L263.292 2.94824H23.0469C12 2.94824 3.04688 11.9066 3.04688 22.9482V450.485C3.04688 461.526 12 470.485 23.0469 470.485H67.2813L71.2552 459.573L75.5469 470.485H315.865C326.906 470.485 335.865 461.526 335.865 450.485V22.9482C335.865 11.9066 326.906 2.94824 315.865 2.94824Z" fill="white"/>
<path d="M225.105 418.911C225.105 376.172 252.413 339.823 290.533 326.318V48.2812H113.574C113.72 50.4115 113.814 52.5469 113.814 54.6927C113.814 97.4375 86.4961 133.786 48.3867 147.292V425.151H225.319C225.199 423.083 225.105 421.01 225.105 418.911Z" fill="#F1EAD7"/>
<path d="M39.4349 26.1198V58.9844C39.4349 60.4688 40.1536 61.1979 41.5964 61.1979H47.2839V60.599C44.3047 56.2135 42.8151 53.6823 42.8151 53H50.7214L51.3359 52.3333V25.7708C50.7891 24.4792 49.9609 23.8281 48.8307 23.8281H41.5964C40.1536 23.8281 39.4349 24.5885 39.4349 26.1198ZM34.7266 19.1875H56.0443C58.7214 19.8542 60.0703 21.1979 60.0703 23.2135V61.7448C60.0703 62.375 59.5651 63.5313 58.5234 65.2396C58.9349 66.9844 60.8151 69.1615 64.1745 71.7604H64.7734V72.4375H58.8672C55.6849 72.4375 52.8568 70.2396 50.388 65.8385H34.7266C32.0391 65.1719 30.6953 63.8125 30.6953 61.7448V23.2135C31.362 20.5313 32.7109 19.1875 34.7266 19.1875Z" fill="#E11D25"/>
<path d="M299.48 447.5V414.63C299.48 413.146 298.762 412.406 297.319 412.406H291.642V413.015C294.616 417.401 296.105 419.932 296.105 420.609H288.189L287.59 421.281V447.838C288.121 449.14 288.96 449.791 290.079 449.791H297.319C298.762 449.791 299.48 449.026 299.48 447.5ZM304.189 454.427H282.882C280.189 453.755 278.84 452.411 278.84 450.396V411.869C278.84 411.239 279.361 410.073 280.387 408.369C279.986 406.625 278.095 404.448 274.736 401.849H274.137V401.177H280.053C283.241 401.177 286.053 403.375 288.522 407.765H304.189C306.882 408.437 308.23 409.807 308.23 411.869V450.396C307.548 453.083 306.199 454.427 304.189 454.427Z" fill="#E11D25"/>
<path d="M265.12 387.49C263.828 363.459 278.094 359.396 281.469 367.323C283.255 371.542 280.453 377.677 277.386 378.631C273.651 379.792 274.052 375.818 274.052 375.818C274.052 375.818 274.948 377.042 276.104 376.86C278.386 376.49 277.162 372.516 274.761 372.516C272.36 372.516 269.214 374.474 268.453 382.297C267.334 393.735 279.146 394.75 286.334 388.162C289.162 385.578 291.667 382.177 293.229 379.844C294.802 382.177 297.307 385.578 300.12 388.162C307.307 394.75 319.12 393.735 318.016 382.297C317.255 374.474 314.094 372.516 311.693 372.516C309.292 372.516 308.068 376.49 310.349 376.86C311.505 377.042 312.401 375.818 312.401 375.818C312.401 375.818 312.802 379.792 309.068 378.631C306 377.677 303.214 371.542 305 367.323C308.36 359.396 322.625 363.459 321.334 387.49C321.334 387.49 325.188 382.729 325.198 376.183C325.214 368.177 322.214 359.563 310.12 351.313C303.094 346.521 297.052 342.74 293.229 340.417C289.401 342.74 283.36 346.521 276.349 351.313C264.24 359.563 261.24 368.177 261.266 376.183C261.266 382.729 265.12 387.49 265.12 387.49Z" fill="#E11D25"/>
<path d="M73.8034 86.1198C75.0795 110.161 60.8139 114.214 57.4545 106.292C55.668 102.078 58.4545 95.9323 61.5222 94.9844C65.267 93.8281 64.8555 97.8021 64.8555 97.8021C64.8555 97.8021 63.9597 96.5729 62.8034 96.7604C60.5222 97.1198 61.7462 101.094 64.1472 101.094C66.5482 101.094 69.7097 99.1458 70.4701 91.3177C71.5743 79.8802 59.7618 78.8646 52.5743 85.4531C49.7618 88.026 47.2566 91.4375 45.6837 93.7708C44.1212 91.4375 41.6107 88.026 38.793 85.4531C31.6055 78.8646 19.7982 79.8802 20.9076 91.3177C21.6628 99.1458 24.8191 101.094 27.2149 101.094C29.6159 101.094 30.8451 97.1198 28.5639 96.7604C27.4076 96.5729 26.517 97.8021 26.517 97.8021C26.517 97.8021 26.1055 93.8281 29.8503 94.9844C32.918 95.9323 35.7045 102.078 33.918 106.292C30.5534 114.214 16.2826 110.161 17.5743 86.1198C17.5743 86.1198 13.7305 90.8802 13.7149 97.4271C13.6993 105.438 16.6941 114.052 28.7982 122.307C35.8191 127.094 41.8555 130.865 45.6837 133.198C49.5222 130.865 55.5482 127.094 62.5743 122.307C74.668 114.052 77.668 105.438 77.6524 97.4271C77.642 90.8802 73.8034 86.1198 73.8034 86.1198Z" fill="#E11D25"/>
<path d="M156.772 102.718C154.985 102.718 153.23 102.078 151.829 100.906L151.72 100.812L152.189 99.2809L152.376 99.333C152.84 99.4528 153.308 99.5205 153.761 99.5205C156.079 99.5205 158.069 97.958 159.985 96.4372C161.241 95.4528 162.532 94.4372 163.881 93.8955L164.147 93.7861L164.163 94.0778C164.256 96.7184 163.496 98.958 161.959 100.547C160.616 101.948 158.772 102.718 156.772 102.718ZM143.267 103.104C140.293 103.104 137.147 100.896 136.532 98.3851C136.147 96.8018 136.855 95.4372 138.522 94.5726L138.761 94.4528L138.814 94.708C139.215 96.5622 140.454 97.5622 141.746 98.6143C143.043 99.6507 144.376 100.744 144.814 102.708L144.855 102.896L144.668 102.948C144.215 103.052 143.746 103.104 143.282 103.104H143.267ZM147.095 111.375C147.215 110.812 147.496 110.411 147.761 110.026C148.136 109.494 148.48 109 148.413 108.093V107.906L148.6 107.88C148.668 107.864 148.746 107.864 148.814 107.864C149.616 107.864 149.803 108.505 149.949 109.015C150.095 109.531 150.199 109.854 150.626 109.88L150.949 109.896L150.788 110.187C150.35 110.974 149.35 111.161 148.386 111.359C148.043 111.427 147.668 111.505 147.35 111.599L147.017 111.708L147.095 111.375Z" fill="#CD1E25"/>
<path d="M189.719 265.599C188.24 265.599 187.266 265.26 186.719 264.573C185.906 263.516 186.333 261.844 186.708 260.365C186.922 259.5 187.135 258.682 187.078 258.078C186.667 253.229 186.547 248.271 186.411 243.021C186.375 241.313 186.318 239.589 186.266 237.854C185.958 228.089 185.349 216.745 181.828 205.693C181.599 204.922 181.349 204.172 181.094 203.469L180.958 203.104L181.333 203.214C185.161 204.266 188.24 208.292 191.214 212.198C192.349 213.682 193.411 215.078 194.505 216.318C194.906 214.438 193.839 212.854 192.708 211.188C191.682 209.667 190.615 208.078 190.411 206.094L190.385 205.839L190.641 205.865C191.052 205.922 191.453 205.948 191.813 205.948C193.505 205.948 194.547 205.401 195 204.281L194.682 204.292C193.958 204.318 193.161 204.359 192.307 204.359C189.734 204.359 186.042 204.068 183.802 201.531L183.734 201.469L183.745 201.375C184.813 195.052 184.958 186.12 182.042 181.255C181.531 183.839 181.958 186.734 182.401 189.786C182.896 193.266 183.411 196.854 182.813 200.76L182.786 200.922L182.641 200.932C182.427 200.958 182.229 200.974 182.026 200.974C180.292 200.974 179.12 199.948 177.896 198.88C176.531 197.682 175.12 196.438 172.693 196.281L172.349 196.255L172.453 195.948C174.385 193.161 173.641 188.563 172.427 185.479L172.401 185.401L173.828 182.255C177.531 174.104 181.375 165.667 184.427 156.682L184.469 156.563L184.589 156.547C184.708 156.521 184.813 156.505 184.922 156.505C185.385 156.505 185.667 156.719 185.922 156.896C186.135 157.052 186.307 157.188 186.625 157.214H186.719L187.427 158.333C194.896 170.078 202.599 182.24 204.146 202.052C204.469 206.135 205.401 210.349 206.318 214.427C206.708 216.172 207.068 217.828 207.385 219.427C208.068 222.932 208.292 225.396 208.146 227.411C207.198 239.729 197.052 247.938 192.719 250.896L192.359 251.146L192.411 250.703C193.318 243.932 193.188 238.146 191.984 233.063C191.135 238.75 191.026 244.938 190.906 250.927C190.813 256.167 190.719 261.12 190.146 265.422L190.12 265.594L189.719 265.599ZM179.896 274.693V274.682C179.896 274.672 179.745 274.604 179.745 274.604V274.479C179.854 270.375 180.026 266.161 180.214 261.703C180.307 259.708 180.385 257.688 180.469 255.646C181.078 239.974 181.427 221.88 177.719 205.427C177.531 204.589 177.318 203.693 177.078 202.786L177.016 202.521L177.281 202.531C179.24 202.599 180.281 204.453 180.802 206C181.719 208.708 181.88 212.708 182.052 216.948C182.188 220.214 182.318 223.599 182.813 226.698C183 227.875 183.427 228.958 183.828 230C184.281 231.146 184.708 232.224 184.813 233.375C184.948 234.719 185.042 236.193 185.12 237.885C185.349 243.844 185.052 249.979 184.813 254.073C184.771 254.802 183.734 271.979 180.229 274.766L180.078 274.875L179.896 274.693ZM150.563 71.6146C144.172 71.6146 138.505 75.7448 134.599 83.2552C129.786 92.4688 128.563 105.333 131.479 116.026C132.026 118.052 133.401 120.453 134.719 122.771C135.229 123.667 135.708 124.505 136.135 125.318C136.292 125.615 136.453 125.922 136.615 126.214C138.771 130.135 141.375 133.719 143.88 137.172C147.349 141.974 150.625 146.505 152.682 151.682C153.469 150.651 154.12 149.786 154.734 148.932C162.839 137.802 172.505 120.12 172.495 99.1719C172.495 98.0521 172.469 97.0417 172.411 96.0938C171.667 80.3594 163.932 71.6667 150.615 71.6146L150.563 71.4115V71.6146ZM114.495 284.203C111.026 281.094 108.708 276.745 106.469 272.536C105.813 271.313 105.146 270.042 104.453 268.828L104.385 268.724L104.453 268.62C105.88 266.38 107.229 264.13 108.068 261.375C107.146 262.75 106 263.917 104.896 265.057C104 265.974 103.078 266.927 102.281 267.969L102.255 268.01L102.214 268.031C102.094 268.078 102 268.135 101.896 268.198L101.839 268.245L101.76 268.234C100.385 268.057 99.1042 267.62 97.8542 266.896C96.7708 266.276 95.8281 265.505 94.9063 264.766C93.7708 263.849 92.6146 262.901 91.2135 262.245L91 262.146L91.1198 261.953C102.563 243.984 106.651 225.313 110.615 207.255C112.802 197.281 114.865 187.839 118.078 178.922C120.104 173.281 122.411 168.385 125.12 163.974C128.531 158.375 132.104 152.802 135.094 151.281C135.292 149.76 136.052 148.813 136.786 147.896C137.615 146.839 138.401 145.854 138.411 144.068L138.427 143.589L138.76 143.932C141.589 146.802 143.76 150.385 145.865 153.865C147.214 156.094 148.599 158.385 150.161 160.469C147.958 152.948 143.401 146.828 138.599 140.359C132.266 131.839 125.719 123.042 125.078 110.76C124.104 91.5469 131.375 74.0417 144.495 63.9219L144.625 63.8281L144.745 63.9323C145.214 64.349 145.708 64.5469 146.281 64.5469C146.813 64.5469 147.375 64.3854 147.974 64.2135C148.667 64.0156 149.469 63.7865 150.333 63.7865C150.589 63.7865 150.839 63.8021 151.094 63.8385C151.068 63.4687 150.958 63.1719 150.76 62.9583C150.24 62.3854 149.104 62.3333 148.016 62.2917L147.531 62.2656L147.802 61.9583C148.693 60.9063 149.906 60.0937 151.438 59.5208C153.229 58.8542 155.427 58.5312 158.146 58.5312C158.521 58.5312 158.906 58.5469 159.292 58.5625H159.385L159.438 58.625C160.24 59.5729 161.188 60.4115 162.104 61.2135C164 62.8802 165.948 64.5885 166.813 67.3594L166.958 67.8281L166.521 67.5885C166.078 67.349 165.651 67.0781 165.229 66.8125C163.599 65.8021 162.052 64.8385 159.495 64.8385C159.214 64.8385 158.922 64.8542 158.615 64.8802C159.958 65.6146 161.292 66.2813 162.573 66.9479C169.188 70.3177 174.896 73.2552 177.828 79.9583C178.188 80.8021 178.521 81.7188 178.802 82.6927C181.839 93.1875 181.839 110.641 178.802 120.802C178.719 121.078 178.641 121.333 178.563 121.573C176.146 129.146 171.906 135.281 167.813 141.214C164.135 146.547 160.641 151.615 159.094 157.026C160.318 155.214 161.479 153.307 162.599 151.469C165.745 146.281 169.016 140.932 173.828 137.255L174.068 137.052L174.146 137.359C174.958 141.104 176.052 144.146 177.453 146.641L177.505 146.734L177.453 146.828C172.531 156.984 167.734 168.016 162.771 180.563C162.563 181.078 162.349 181.615 162.135 182.146L162.104 182.24L162 182.266C161.786 182.307 161.599 182.333 161.427 182.333C160.693 182.333 160.385 181.906 160.12 181.521C159.865 181.146 159.667 180.865 159.146 180.865C159 180.865 158.839 180.896 158.667 180.932C156.932 181.854 156.641 182.771 156.042 184.615C155.948 184.896 155.854 185.188 155.745 185.505L155.708 185.625L155.573 185.641C155.453 185.651 155.333 185.682 155.24 185.693L155.188 185.708L155.135 185.693C155.104 185.682 155.078 185.682 155.042 185.682C154.734 185.682 154.281 186 154.042 186.172C153.615 186.479 153.333 186.88 153.214 187.349L153.198 187.411L153.146 187.438C152.12 188.318 152.068 189.651 152.026 191.068C151.974 192.573 151.922 194.135 150.625 195.188L150.589 195.214L150.547 195.229C149.958 195.375 149.615 195.625 149.505 196C149.135 197.292 151.401 199.693 152.615 201C153.146 201.547 153.385 201.828 153.469 201.984L153.505 202.068L153.469 202.146C152.667 204 151.865 205.828 151.052 207.667L149.198 211.854C144.974 221.385 140.599 231.25 136.813 241.464L136.693 241.776L136.469 241.526C135.198 240.109 134.932 237.047 134.651 233.802C134.495 231.964 134.318 230.068 133.974 228.359C133.469 231.406 133.771 234.354 134.068 237.208C134.359 240.078 134.667 243.042 134.146 246.094C133.427 250.448 131.172 254.771 129.016 258.948C127.948 260.984 126.958 262.906 126.135 264.807C124.958 267.547 123.922 270.24 122.906 272.844C121.359 276.807 119.906 280.552 118.135 284.146L117.76 284.052C117.854 273.5 120.078 261.292 122.229 249.479C125.094 233.771 127.802 218.932 125.76 208.104L125.682 207.719L126.042 207.896C127.505 208.599 128.599 208.641 129.667 208.682C130.318 208.693 130.984 208.719 131.719 208.896C131.052 208.359 130.349 207.854 129.651 207.375C127.734 206 125.734 204.589 124.563 202.385C124.438 201.854 124.375 201.453 124.349 201.078C123.958 194.786 124.896 192.958 130.016 182.839C131.401 180.104 133.094 176.771 135.161 172.573C129.307 179.349 121.333 194.453 124.052 202.401C124.094 202.547 124.12 202.667 124.161 202.802C126.052 220.469 122.88 237.26 119.505 255.042C117.734 264.422 115.896 274.12 114.828 284.078L114.786 284.464L114.495 284.203ZM193.479 308.724C193.531 308.99 193.625 308.99 193.667 308.99C193.839 308.99 194.146 308.802 194.401 308.625C194.349 308.448 194.146 308.354 193.958 308.354C193.865 308.354 193.573 308.38 193.479 308.724ZM137.839 356.563C136.906 361.703 135.599 365.432 134.349 369.052C133.172 372.432 132.052 375.651 131.214 379.896C131.745 378.547 132.333 377.193 132.932 375.781C135.427 370.016 137.984 364.068 137.839 356.563ZM193.479 310.911C192.813 334.161 187.771 360.479 180.255 380.151C186.349 370.479 190.214 352.453 192.411 338.682C193.599 331.349 194.958 322.224 195.078 316.719C195.078 316.438 195.104 316.109 195.135 315.745C195.229 314.245 195.359 312.182 194.547 311.318C194.281 311.042 193.948 310.911 193.521 310.911C193.505 310.911 193.495 310.911 193.479 310.911ZM98.7188 427.401C96.7604 427.401 94.9583 427.016 93.2135 426.224L93.1042 426.177L93.0938 426.068C92.651 422.771 94.8281 421.281 96.9323 419.839C98.0937 419.047 99.1875 418.297 99.7865 417.276C102.094 413.307 103.906 404.099 105.094 398.005C105.854 394.172 106.625 389.755 107.495 384.495C109.839 370.12 112.375 351.24 114.427 332.693C114.625 330.891 114.479 328.969 114.349 327.109C114.172 324.823 114.026 322.661 114.427 320.682C115.307 316.391 117.188 312.203 119.078 308.313C119.521 307.391 119.974 306.479 120.427 305.583C121.401 303.62 122.318 301.76 123.104 299.974C123.865 298.214 124.589 296.427 125.281 294.703C127.333 289.594 129.266 284.776 132.469 280.599L132.906 280.026L132.813 280.745C132.307 285.13 131.958 289.865 131.589 294.88C131.12 301.208 130.589 308.339 129.641 316.172C132.255 310.167 132.505 302.115 132.786 293.615C133.042 286.281 133.281 278.698 135.094 272.01C136.984 265.021 140.599 257.677 144.078 250.578C145.802 247.078 147.589 243.464 149.104 239.979C150.24 237.37 151.438 234.828 152.615 232.37C153.896 229.635 155.229 226.813 156.438 223.984C157.094 222.453 157.615 220.786 158.135 219.188C159.385 215.292 160.682 211.255 163.828 208.589L163.948 208.479L164.068 208.573C165.479 209.615 166.068 211.292 165.948 213.828C165.865 215.641 165.411 217.708 164.984 219.693C164.667 221.172 164.333 222.688 164.146 224.089C162.104 239.891 162.292 250.557 162.828 268.057C162.839 269.099 162.865 270.333 162.88 271.693C163.016 279.87 163.214 293.557 167.359 295.203C168.307 295.578 169.198 295.771 170 295.771C174.052 295.771 175.531 290.922 176.719 287.026C176.932 286.359 177.12 285.719 177.318 285.135C177.469 284.729 177.615 284.339 177.76 283.979C178.802 281.573 179.984 279.641 181.135 277.776C182.865 274.969 184.495 272.318 185.078 268.698L185.094 268.646L185.12 268.604C185.865 267.698 187.12 267.667 188.427 267.63C189.984 267.594 191.589 267.552 192.411 266.021C191.495 256.542 195.188 249.203 202.531 245.88L202.813 245.755V246.057C202.932 256.083 203.198 265.87 203.453 275.339C203.719 285.266 204 295.526 204.104 305.948C204.135 309.75 204.161 312.964 204.146 316.057C204.146 317.901 204.135 319.75 204.135 321.604C204.016 344.141 203.906 367.448 214.786 385.943C215.651 387.422 216.865 388.776 218.135 390.208C219.042 391.219 219.974 392.266 220.828 393.406C222.052 395.047 223.708 397.641 224.135 401.292C225.828 403.339 227.896 405.089 229.896 406.781C231.042 407.755 232.229 408.766 233.333 409.823C234.255 409.62 235.135 409.516 235.948 409.516C240 409.516 242.266 412.042 244.255 414.276C245.625 415.813 246.932 417.266 248.667 417.854C249.172 418.026 249.708 418.109 250.281 418.109C251.042 418.109 251.786 417.958 252.573 417.802C253.385 417.641 254.229 417.474 255.12 417.474C256.385 417.474 257.531 417.813 258.719 418.536L258.839 418.62L258.802 418.771C257.708 422.156 253.292 422.583 250.375 422.87L249.958 422.906C249.042 423 247.948 423.047 246.625 423.047C245.453 423.047 244.198 423.01 242.984 422.974C241.734 422.943 240.453 422.906 239.229 422.906L238.172 422.911C224.625 422.911 212.974 416.708 202.401 409.911C204.052 413.224 207.495 414.839 210.839 416.406C213.839 417.813 216.932 419.266 218.771 421.927L218.922 422.125L218.693 422.224C215.839 423.479 213.026 424.089 210.078 424.089C205.068 424.089 200.469 422.276 196 420.521C192.385 419.099 188.641 417.63 184.771 417.188C183.198 416.854 181.651 416.682 180.266 416.682C178.745 416.682 177.411 416.885 176.318 417.281C175.651 417.526 175 417.932 174.255 418.563C173.693 418.885 173.359 419.276 172.984 419.693C171.719 421.141 170.161 422.938 160.281 422.938C159.547 422.938 158.771 422.927 157.948 422.906C156.12 422.865 154.229 422.656 152.385 422.458C150.307 422.229 148.135 421.995 146.052 421.995C145.349 421.995 144.693 422.021 144.052 422.073C143.625 422.104 143.161 422.156 142.651 422.24C140.104 422.651 137.771 423.651 135.521 424.615C132.771 425.792 130.188 426.901 127.438 426.901C126.198 426.901 125.042 426.682 123.88 426.229L123.76 426.182L123.745 426.057C123.505 422.979 125.771 422.344 127.708 421.896C126.641 417.964 129.229 414.016 131.948 409.839C133.333 407.734 134.76 405.557 135.771 403.292C136.333 402.036 136.719 400.635 137.104 399.281C137.479 397.922 137.865 396.516 138.438 395.292C138.984 394.109 139.719 393.063 140.438 392.052C141.24 390.906 142 389.823 142.427 388.641C142.906 387.323 143.026 385.818 143.146 384.229C143.255 382.807 143.375 381.339 143.76 379.984C144.307 378.068 144.932 376.229 145.521 374.453C147.188 369.443 148.771 364.693 148.521 359.38C145.479 372.521 141.427 384.771 136.135 396.792C133.984 401.677 131.495 406.26 129.078 410.693C127.411 413.771 125.682 416.953 124.135 420.13L124.078 420.234L123.958 420.24C119.427 420.464 115.135 422.25 110.984 423.974C106.771 425.734 102.771 427.401 98.7188 427.401Z" fill="#ED1D24"/>
<path d="M190.643 205.865L190.388 205.839L190.414 206.094C190.44 206.359 190.497 206.615 190.549 206.865C190.627 206.589 190.711 206.266 190.789 205.88C190.737 205.88 190.695 205.88 190.643 205.865ZM172.351 196.255L172.695 196.281C175.122 196.438 176.534 197.682 177.898 198.88C179.122 199.948 180.294 200.974 182.028 200.974C182.232 200.974 182.43 200.958 182.643 200.932L182.789 200.922L182.815 200.76C183.414 196.854 182.898 193.266 182.403 189.786C181.961 186.734 181.534 183.839 182.044 181.255C182.773 182.469 183.31 183.932 183.685 185.547C183.403 184.026 183.414 182.563 183.841 181.161C185.351 176.318 184.685 173.828 181.685 177.828C178.685 181.828 178.508 176.828 179.508 175.161C179.898 174.505 179.107 172.906 178.815 171.078C177.174 174.88 175.497 178.599 173.831 182.255L172.403 185.401L172.43 185.479C173.643 188.563 174.388 193.161 172.456 195.948L172.351 196.255ZM179.174 208.984C179.002 208.438 178.601 207.786 178.055 207.052C178.456 208.958 178.805 210.88 179.107 212.828C179.403 211.188 179.44 209.786 179.174 208.984ZM130.685 336.656C130.31 353.672 133.174 353.823 134.351 338.49C135.508 323.156 130.841 328.99 130.685 336.656ZM111.174 266.656C111.174 270.135 111.773 274.208 109.565 278.031C110.976 280.318 112.549 282.458 114.497 284.203L114.789 284.464L114.831 284.078C115.898 274.12 117.737 264.422 119.508 255.042C122.883 237.26 126.055 220.469 124.164 202.802C124.122 202.667 124.096 202.547 124.055 202.401C123.19 199.865 123.414 196.615 124.294 193.135L124.174 192.984C124.174 192.984 116.841 204.651 115.508 229.99C114.174 255.323 111.841 261.323 107.508 263.656C107.388 263.724 107.268 263.771 107.138 263.828C106.377 265.536 105.44 267.083 104.456 268.62L104.388 268.724L104.456 268.828C104.549 268.99 104.643 269.161 104.737 269.328C107.575 264.875 111.174 263.958 111.174 266.656ZM132.841 86.9844C132.841 86.9844 132.867 86.9844 132.924 87C133.002 86.7604 133.107 86.5469 133.2 86.3177C132.976 86.7448 132.841 86.9844 132.841 86.9844ZM138.841 320.323C138.107 328.469 139.508 328.323 140.841 320.99C142.174 313.656 139.174 316.656 138.841 320.323ZM183.831 186.214C184.805 190.974 184.508 196.839 183.747 201.375L183.737 201.469L183.805 201.531C185.685 203.651 188.565 204.198 190.961 204.318C191.044 202.521 190.695 200.146 189.174 197.495C186.95 193.589 184.653 189.76 183.831 186.214ZM97.8566 266.896C99.1066 267.62 100.388 268.057 101.763 268.234L101.841 268.245L101.898 268.198C102.002 268.135 102.096 268.078 102.216 268.031L102.258 268.01L102.284 267.969C103.081 266.927 104.002 265.974 104.898 265.057C105.122 264.823 105.362 264.583 105.591 264.349C102.122 265.036 99.3618 262.656 98.5076 262.656C98.0181 262.656 96.2837 263.479 94.3879 264.344C94.5649 264.484 94.7368 264.625 94.9087 264.766C95.8306 265.505 96.7733 266.276 97.8566 266.896ZM150.164 160.469C150.164 160.469 149.174 148.651 137.508 134.984C132.643 129.292 128.601 121.734 125.523 114.771C127.19 125.016 132.976 132.802 138.601 140.359C143.403 146.828 147.961 152.948 150.164 160.469ZM164.07 208.573L163.95 208.479L163.831 208.589C161.883 210.24 160.643 212.411 159.685 214.76C161.19 215.385 162.935 216.896 164.987 219.693C165.414 217.708 165.867 215.641 165.95 213.828C166.07 211.292 165.482 209.615 164.07 208.573ZM138.763 143.932L138.43 143.589L138.414 144.068C138.403 145.854 137.617 146.839 136.789 147.896C136.055 148.813 135.294 149.76 135.096 151.281C134.841 151.411 134.575 151.573 134.31 151.771C137.284 151.505 140.721 152.188 143.174 154.318C148.174 158.651 150.164 160.469 150.164 160.469C148.601 158.385 147.216 156.094 145.867 153.865C143.763 150.385 141.591 146.802 138.763 143.932ZM134.174 201.828C128.841 199.161 126.841 189.651 127.174 188.828C127.336 188.438 126.018 190.854 125.018 194.016L124.95 193.932C124.284 196.198 124.174 198.161 124.351 201.078C124.377 201.453 124.44 201.854 124.565 202.385C125.737 204.589 127.737 206 129.653 207.375C130.351 207.854 131.055 208.359 131.721 208.896C130.987 208.719 130.32 208.693 129.669 208.682C128.601 208.641 127.508 208.599 126.044 207.896L125.685 207.719L125.763 208.104C127.805 218.932 125.096 233.771 122.232 249.479C120.081 261.292 117.857 273.5 117.763 284.052L118.138 284.146C119.497 281.406 120.653 278.583 121.815 275.641C123.216 266.594 125.388 252.271 126.508 245.323C128.174 234.99 128.174 219.984 131.508 216.318C133.07 214.599 134.414 212.531 135.294 210.734C138.815 212.016 142.284 212.214 144.685 210.161C149.351 206.161 146.018 214.984 143.018 224.323C142.497 225.938 142.07 227.542 141.711 229.094C144.164 223.229 146.711 217.479 149.2 211.854L151.055 207.667C151.867 205.828 152.669 204 153.471 202.146L153.508 202.068L153.471 201.984C153.388 201.828 153.148 201.547 152.617 201C152.508 200.865 152.377 200.734 152.242 200.589C148.138 203.135 138.643 204.052 134.174 201.828ZM188.174 163.651C189.002 163.563 189.763 163.401 190.482 163.188C189.471 161.547 188.456 159.932 187.43 158.333L186.721 157.214H186.627C186.31 157.188 186.138 157.052 185.924 156.896C185.669 156.719 185.388 156.505 184.924 156.505C184.815 156.505 184.711 156.521 184.591 156.547L184.471 156.563L184.43 156.682C183.377 159.771 182.232 162.786 181.028 165.76C182.471 164.813 184.721 164.052 188.174 163.651ZM124.081 420.234L124.138 420.13C125.685 416.953 127.414 413.771 129.081 410.693C130.107 407.484 131.669 405.474 134.575 400.167C135.107 399.052 135.627 397.932 136.138 396.792C140.174 387.62 143.497 378.307 146.19 368.568C146.19 368.51 146.2 368.448 146.2 368.385C152.508 351.823 146.32 343.51 141.841 359.823C140.122 366.109 138.351 371.891 136.575 377.036C133.32 383.063 128.909 391.135 122.841 401.823C108.018 427.99 113.841 416.156 106.174 418.99C102.138 420.484 98.8045 420.865 96.7472 419.964C94.7108 421.365 92.6691 422.865 93.0962 426.068L93.1066 426.177L93.216 426.224C94.9608 427.016 96.7629 427.401 98.7212 427.401C102.773 427.401 106.773 425.734 110.987 423.974C115.138 422.25 119.43 420.464 123.961 420.24L124.081 420.234ZM163.403 230.667C160.32 234.99 155.815 244.828 149.508 255.656C141.174 269.99 142.508 281.99 138.174 289.656C135.987 293.521 134.653 296.797 132.497 300.802C132.164 306.578 131.497 311.896 129.643 316.172C130.174 311.755 130.575 307.573 130.909 303.62C128.924 306.958 126.268 310.885 122.174 315.99C118.976 320 116.43 324.286 114.44 328.406C114.534 329.849 114.575 331.307 114.43 332.693C112.867 346.76 111.044 361.016 109.216 373.359C116.258 356.833 122.294 334.677 125.841 325.323C129.508 315.656 133.508 314.99 136.508 312.323C139.508 309.656 142.841 303.323 148.174 283.323C151.19 272.057 157.044 258.578 162.482 248.766C162.523 242.719 162.773 237.016 163.403 230.667ZM194.549 311.318C194.284 311.042 193.95 310.911 193.523 310.911C193.508 310.911 193.497 310.911 193.482 310.911C192.815 334.161 187.773 360.479 180.258 380.151C186.351 370.479 190.216 352.453 192.414 338.682C193.601 331.349 194.961 322.224 195.081 316.719C195.081 316.438 195.107 316.109 195.138 315.745C195.232 314.245 195.362 312.182 194.549 311.318ZM193.482 308.724C193.534 308.99 193.627 308.99 193.669 308.99C193.841 308.99 194.148 308.802 194.403 308.625C194.351 308.448 194.148 308.354 193.961 308.354C193.867 308.354 193.575 308.38 193.482 308.724ZM249.31 418.01C249.627 418.068 249.935 418.109 250.284 418.109C251.044 418.109 251.789 417.958 252.575 417.802C253.388 417.641 254.232 417.474 255.122 417.474C256.388 417.474 257.534 417.813 258.721 418.536L258.841 418.62L258.805 418.771C257.711 422.156 253.294 422.583 250.377 422.87L249.961 422.906C249.044 423 247.95 423.047 246.627 423.047C245.456 423.047 244.2 423.01 242.987 422.974C241.737 422.943 240.456 422.906 239.232 422.906L238.174 422.911C224.627 422.911 212.976 416.708 202.403 409.911C203.377 411.849 204.95 413.203 206.763 414.307C205.403 413.557 203.987 412.833 202.351 412.156C193.575 408.516 193.685 417.026 202.497 422.859C200.284 422.198 198.122 421.354 196.002 420.521C192.388 419.099 188.643 417.63 184.773 417.188C183.2 416.854 181.653 416.682 180.268 416.682C178.747 416.682 177.414 416.885 176.32 417.281C175.653 417.526 175.002 417.932 174.258 418.563C173.695 418.885 173.362 419.276 172.987 419.693C171.721 421.141 170.164 422.938 160.284 422.938C159.549 422.938 158.773 422.927 157.95 422.906C156.122 422.865 154.232 422.656 152.388 422.458C150.31 422.229 148.138 421.995 146.055 421.995C145.351 421.995 144.695 422.021 144.055 422.073C143.627 422.104 143.164 422.156 142.653 422.24C140.107 422.651 137.773 423.651 135.523 424.615C132.773 425.792 130.19 426.901 127.44 426.901C126.2 426.901 125.044 426.682 123.883 426.229L123.763 426.182L123.747 426.057C123.508 422.979 125.773 422.344 127.711 421.896C127.268 420.286 127.456 418.672 128.002 417.042C128.028 420.214 129.336 422.396 133.508 420.156C140.351 416.49 149.174 415.156 155.508 418.49C161.174 421.474 164.721 423.51 170.055 421.755C171.284 420.115 170.294 418.167 167.508 414.323C164.018 409.49 174.508 381.49 170.018 389.823C165.508 398.156 162.351 392.49 170.841 376.156C179.351 359.823 178.174 327.656 173.841 306.49C173.627 305.406 173.43 304.401 173.242 303.464C171.336 301.651 170.174 298.484 169.508 295.745C169.669 295.76 169.841 295.771 170.002 295.771C174.055 295.771 175.534 290.922 176.721 287.026C176.935 286.359 177.122 285.719 177.32 285.135C177.471 284.729 177.617 284.339 177.763 283.979C178.805 281.573 179.987 279.641 181.138 277.776C182.867 274.969 184.497 272.318 185.081 268.698L185.096 268.646L185.122 268.604C185.867 267.698 187.122 267.667 188.43 267.63C189.987 267.594 191.591 267.552 192.414 266.021C191.497 256.542 195.19 249.203 202.534 245.88L202.815 245.755V246.057C202.935 256.083 203.2 265.87 203.456 275.339C203.721 285.266 204.002 295.526 204.107 305.948C204.138 309.75 204.164 312.964 204.148 316.057C204.148 317.901 204.138 319.75 204.138 321.604C204.028 343.505 203.924 366.125 213.898 384.354C214.549 400.615 218.482 410.031 223.685 411.823C229.018 413.656 231.174 414.49 240.685 417.99C243.43 419 246.388 418.797 249.31 418.01ZM139.351 76.625C142.601 73.3594 146.43 71.6146 150.565 71.6146V71.4115L150.617 71.6146C163.935 71.6667 171.669 80.3594 172.414 96.0938C172.471 97.0417 172.497 98.0521 172.497 99.1719C172.508 115.932 166.32 130.589 159.695 141.495C162.107 140.349 164.773 142 161.841 147.161C158.351 153.318 155.685 158.318 153.685 159.161C151.685 159.984 153.351 169.161 155.841 171.984C156.935 173.214 157.081 177.734 156.747 182.76C157.122 182.026 157.643 181.479 158.669 180.932C158.841 180.896 159.002 180.865 159.148 180.865C159.669 180.865 159.867 181.146 160.122 181.521C160.388 181.906 160.695 182.333 161.43 182.333C161.601 182.333 161.789 182.307 162.002 182.266L162.107 182.24L162.138 182.146C162.351 181.615 162.565 181.078 162.773 180.563C167.737 168.016 172.534 156.984 177.456 146.828L177.508 146.734L177.456 146.641C176.055 144.146 174.961 141.104 174.148 137.359L174.07 137.052L173.831 137.255C169.018 140.932 165.747 146.281 162.601 151.469C161.482 153.307 160.32 155.214 159.096 157.026C160.643 151.615 164.138 146.547 167.815 141.214C171.909 135.281 176.148 129.146 178.565 121.573C178.643 121.333 178.721 121.078 178.805 120.802C181.841 110.641 181.841 93.1875 178.805 82.6927C178.523 81.7188 178.19 80.8021 177.831 79.9583C174.898 73.2552 169.19 70.3177 162.575 66.9479C161.294 66.2813 159.961 65.6146 158.617 64.8802C158.924 64.8542 159.216 64.8385 159.497 64.8385C162.055 64.8385 163.601 65.8021 165.232 66.8125C165.653 67.0781 166.081 67.349 166.523 67.5885L166.961 67.8281L166.815 67.3594C165.95 64.5885 164.002 62.8802 162.107 61.2135C161.19 60.4115 160.242 59.5729 159.44 58.625L159.388 58.5625H159.294C158.909 58.5469 158.523 58.5312 158.148 58.5312C157.388 58.5312 156.685 58.5625 156.002 58.6146C156.148 59.8646 155.815 60.9844 155.351 61.3177C154.174 62.1615 152.685 60.9844 154.174 62.1615C154.987 62.7708 155.258 65.6823 155.018 68.2552C152.883 68.2292 150.43 68.4948 147.841 69.3177C144.898 70.2656 141.883 73.3177 139.351 76.625ZM210.841 416.406C209.976 416 209.096 415.589 208.242 415.141C210.508 416.432 212.773 417.776 215.815 419.089C214.294 418.036 212.549 417.208 210.841 416.406ZM157.174 399.99C158.508 391.323 155.174 390.656 153.174 396.323C148.685 409.089 155.841 408.656 157.174 399.99ZM203.508 210.495C206.351 220.828 207.685 233.49 202.508 230.49C197.351 227.49 199.508 219.318 197.351 227.49C195.591 234.135 194.601 240.672 192.841 238.646C193.148 242.302 193.018 246.286 192.414 250.703L192.362 251.146L192.721 250.896C197.055 247.938 207.2 239.729 208.148 227.411C208.294 225.396 208.07 222.932 207.388 219.427C207.07 217.828 206.711 216.172 206.32 214.427C205.403 210.349 204.471 206.135 204.148 202.052C203.773 197.333 203.055 193.042 202.07 189.094C201.857 195.854 201.924 204.693 203.508 210.495ZM152.174 409.656C152.508 407.323 149.841 405.516 148.685 409.089C147.388 413.063 151.841 411.99 152.174 409.656ZM186.721 264.573C187.268 265.26 188.242 265.599 189.721 265.599L190.122 265.594L190.148 265.422C190.721 261.12 190.815 256.167 190.909 250.927C191.002 245.99 191.107 240.922 191.617 236.099C191.591 236.005 191.549 235.922 191.508 235.823C188.841 227.99 188.508 226.99 186.508 234.49C186.414 234.875 186.31 235.24 186.19 235.594C186.216 236.354 186.242 237.109 186.268 237.854C186.32 239.589 186.377 241.313 186.414 243.021C186.549 248.271 186.669 253.229 187.081 258.078C187.138 258.682 186.924 259.5 186.711 260.365C186.336 261.844 185.909 263.516 186.721 264.573ZM185.138 238.385C185.336 244.182 185.055 250.094 184.815 254.073C184.773 254.802 183.737 271.979 180.232 274.766L180.081 274.875L179.898 274.693V274.682C179.898 274.672 179.747 274.604 179.747 274.604V274.479C179.857 270.375 180.028 266.161 180.216 261.703C180.31 259.708 180.388 257.688 180.471 255.646C180.627 251.495 180.773 247.167 180.831 242.75C182.07 242.635 183.721 241.411 185.138 238.385Z" fill="#601814"/>
<path d="M149.883 140.256C145.654 138.573 143.31 134.974 141.029 131.479C139.841 129.667 138.617 127.787 137.148 126.214L136.883 125.948L137.258 125.881C137.378 125.854 137.482 125.854 137.602 125.854C139.018 125.854 140.456 127.24 141.977 128.719C143.711 130.386 145.482 132.104 147.388 132.104C147.789 132.104 148.174 132.042 148.549 131.896L148.669 131.839L148.763 131.933C149.628 132.787 149.591 134.495 149.549 136.146C149.508 137.625 149.482 139.172 150.107 139.948L150.591 140.547L149.883 140.256ZM169.122 293.495C165.148 287 164.534 279.167 164.456 271.672C164.44 269.396 164.471 267.115 164.497 264.698C164.549 260.813 164.602 256.792 164.414 252.74C164.07 245.089 164.987 236.964 165.951 228.354C166.471 223.766 167.003 219.026 167.404 213.948C167.534 212.172 167.654 210.412 167.747 208.719L167.773 208.375L168.07 208.573C168.508 208.865 169.029 209.198 169.857 209.198H170.174L170.148 209.412C168.643 225.828 168.388 240.25 169.388 252.308C170.685 247.401 170.617 240.698 170.549 233.636C170.482 226.651 170.404 219.438 171.747 214.016L171.831 213.745L172.055 213.907C180.294 219.401 179.961 232.61 179.617 246.599C179.565 248.823 179.508 251.12 179.482 253.396C179.482 254.12 179.456 254.839 179.44 255.558C179.258 260.964 178.685 266.235 178.148 270.75C178.07 271.453 177.987 272.162 177.909 272.87C177.456 276.891 176.987 281.042 175.831 284.651C174.508 288.802 172.404 291.714 169.388 293.558L169.216 293.662L169.122 293.495Z" fill="#FACB0C"/>
<path d="M150.591 140.547L150.107 139.948C149.482 139.172 149.508 137.625 149.549 136.146C149.591 134.495 149.628 132.787 148.763 131.933L148.669 131.839L148.549 131.896C148.174 132.042 147.789 132.104 147.388 132.104C145.482 132.104 143.711 130.386 141.977 128.719C140.456 127.24 139.018 125.854 137.602 125.854C137.482 125.854 137.378 125.854 137.258 125.881L136.883 125.948L137.148 126.214C137.841 126.959 138.482 127.771 139.096 128.625C142.951 130.828 147.081 133.308 147.841 134.162C148.815 135.229 149.018 137.865 149.138 139.933C149.378 140.052 149.628 140.162 149.883 140.256L150.591 140.547ZM179.44 255.558C179.258 260.964 178.685 266.235 178.148 270.75C178.07 271.453 177.987 272.162 177.909 272.87C177.456 276.891 176.987 281.042 175.831 284.651C175.404 286.011 174.867 287.219 174.268 288.318C175.404 283.584 175.336 278.198 175.508 271.99C175.841 260.823 172.685 247.49 170.352 258.49C168.018 269.49 169.508 271.49 167.018 265.157C165.935 262.427 165.081 259.698 164.523 256.865C164.508 255.495 164.482 254.12 164.414 252.74C164.07 245.089 164.987 236.964 165.951 228.354C166.471 223.766 167.003 219.026 167.404 213.948C167.534 212.172 167.654 210.412 167.747 208.719L167.773 208.375L168.07 208.573C168.508 208.865 169.029 209.198 169.857 209.198H170.174L170.148 209.412C168.643 225.828 168.388 240.25 169.388 252.308C170.685 247.401 170.617 240.698 170.549 233.636C170.482 226.651 170.404 219.438 171.747 214.016L171.831 213.745L172.055 213.907C180.294 219.401 179.961 232.61 179.617 246.599C179.565 248.823 179.508 251.12 179.482 253.396C179.482 254.12 179.456 254.839 179.44 255.558Z" fill="#F25C19"/>
<path d="M172.628 193.547C172.841 192.547 172.961 191.214 172.841 190.318C172.737 189.427 172.07 187.984 172.07 187.984L169.628 188.427C169.174 188.984 168.737 191.547 169.294 192.651C169.841 193.76 172.404 194.547 172.628 193.547ZM154.737 200.88C155.508 201.651 156.961 203.318 157.841 203.427C158.737 203.547 159.737 203.318 159.841 201.651C159.961 199.984 159.628 199.76 159.294 198.88C158.961 197.984 157.294 196.094 157.294 196.094C156.284 196.094 155.258 196.104 154.747 196.495C154.857 195.854 154.773 195.24 154.122 194.625C153.841 194.146 153.523 193.906 153.174 193.906C152.685 193.906 152.258 194.411 151.841 194.896C151.643 195.12 151.44 195.359 151.242 195.531L151.19 195.615C150.987 195.932 150.773 196.318 150.805 196.745C150.805 196.828 150.815 196.906 150.831 196.984L150.841 197.052L150.883 197.094C151.044 197.229 151.174 197.375 151.32 197.521C151.977 198.188 152.654 198.865 153.951 198.932L154.138 198.948L154.148 198.76C154.216 198.318 154.352 197.906 154.482 197.505C154.841 198.88 153.961 200.094 154.737 200.88ZM104.669 278.964C105.096 278.964 105.523 278.948 105.977 278.922L106.216 278.906L106.164 278.672C105.977 277.99 105.841 277.25 105.711 276.531C105.31 274.448 104.909 272.297 103.414 271.234L103.216 271.094L103.107 271.313C102.378 272.911 102.268 274.224 102.174 275.49C102.096 276.344 102.044 277.156 101.773 277.995L101.737 278.109L101.815 278.198C102.362 278.729 103.242 278.964 104.669 278.964ZM106.414 286.635L106.43 286.74C106.669 289.354 108.935 289.938 111.107 290.505C111.602 290.63 112.096 290.76 112.565 290.911L112.867 291.005L112.831 290.698C112.815 290.599 112.831 290.51 112.831 290.427L112.841 290.333L112.763 290.266C112.19 289.74 111.643 289.156 111.096 288.484L110.43 287.771L110.414 287.734L110.378 287.703C110.19 287.542 110.018 287.365 109.841 287.193C109.201 286.573 108.602 285.984 107.831 285.984C107.404 285.984 106.961 286.177 106.497 286.568L106.414 286.635ZM104.43 280.073C104.122 280.01 103.815 279.943 103.471 279.943C102.898 279.943 102.378 280.141 101.841 280.563L101.747 280.635L101.763 280.745C101.883 281.661 102.148 282.349 102.378 282.953C102.773 283.979 103.07 284.719 102.44 285.969L102.362 286.146L102.534 286.234C103.148 286.536 103.602 286.677 103.961 286.677C104.404 286.677 104.669 286.474 104.951 286.26C105.31 285.984 105.711 285.677 106.643 285.589L106.924 285.563L106.815 285.307C106.336 284.276 106.471 283.708 106.643 282.932C106.789 282.255 106.977 281.417 106.831 280.036L106.789 279.734L106.534 279.88C106.138 280.099 105.763 280.203 105.362 280.203C105.044 280.203 104.747 280.141 104.43 280.073ZM167.456 190.625L167.378 190.505L167.242 190.547C164.055 191.281 162.987 194.172 162.174 197.094C162.081 197.411 162.003 197.734 161.909 198.052C161.201 200.625 160.482 203.281 158.508 204.563L158.138 204.813L158.576 204.932C158.669 204.958 158.763 204.974 158.883 205C159.831 205.188 160.565 205.229 161.232 205.24C162.576 205.292 163.388 205.333 164.456 206.854L164.815 206.708C164.534 204.318 165.628 202.161 166.695 200.078L166.747 199.984C168.258 197.052 169.805 194.026 167.456 190.625ZM232.685 39.2396C230.721 38.5052 229.174 37.3073 227.669 36.1458L227.258 35.8125L227.138 35.9479C226.669 36.4375 226.591 37.0521 226.883 37.7188C227.482 39.1198 229.695 40.5313 231.268 40.5313C232.07 40.5313 232.617 40.1615 232.805 39.4792L232.857 39.2917L232.685 39.2396ZM158.815 205.505C157.841 205.068 157.003 204.854 156.242 204.854C154.523 204.854 153.284 205.896 152.242 208.188C151.685 209.438 151.232 210.932 150.747 212.521C150.258 214.12 149.763 215.76 149.107 217.318C142.867 232.193 136.565 246.573 130.471 260.484C123.628 276.104 116.549 292.25 109.773 308.646C102.685 325.786 94.8568 343.438 87.2839 360.505C85.4974 364.552 83.6953 368.599 81.9089 372.641C74.5911 389.198 66.8307 406.958 59.7891 424.635L59.7109 424.823L59.8984 424.896C61.2318 425.396 62.4401 425.651 63.4818 425.651C67.362 425.651 68.6953 422.182 69.987 418.828C70.2578 418.141 70.5234 417.453 70.8151 416.786C73.4714 410.646 76.388 404.401 79.2005 398.359C82.3516 391.641 85.5911 384.693 88.4297 377.99C88.7734 377.146 89.138 376.297 89.4818 375.458C92.3359 368.49 95.2318 361.234 98.0286 354.219C102.831 342.182 107.805 329.729 112.815 318.135C113.695 316.083 114.857 314.099 115.977 312.182C116.773 310.813 117.602 309.401 118.336 307.953C118.773 307.089 119.148 306.271 119.471 305.464C122.19 298.813 124.898 292.328 127.523 286.057C129.831 280.563 131.987 275.375 134.138 270.135C137.576 261.771 141.32 253.167 144.961 244.844C150.44 232.292 156.122 219.307 160.815 206.802L160.867 206.651L160.737 206.563C160.055 206.12 159.404 205.771 158.815 205.505ZM177.695 211.172C177.576 209.266 177.44 207.292 177.096 205.573C176.867 204.438 176.534 203.453 176.122 202.641L176.096 202.589L176.044 202.563C175.883 202.479 175.711 202.427 175.534 202.427C175.07 202.427 174.685 202.719 174.336 202.974C174.122 203.135 173.909 203.292 173.789 203.292C173.685 203.292 173.576 203.094 173.482 202.734C173.763 201.307 173.471 200.453 173.19 199.615C172.961 198.958 172.747 198.333 172.815 197.411L172.831 197.229L172.643 197.198C172.471 197.188 172.294 197.172 172.138 197.172C170.388 197.172 168.841 198.281 167.987 200.146C167.164 201.958 167.201 204.068 168.055 205.411C168.711 206.411 169.737 206.932 171.07 206.948C170.987 209.188 173.232 211.427 175.388 213.599C176.294 214.495 177.148 215.359 177.789 216.172L178.138 216.625V216.12L178.164 216.094L178.148 216C177.898 214.479 177.789 212.802 177.695 211.172ZM110.096 285.984C110.591 286.516 111.055 287.021 111.43 287.714C112.029 288.328 112.643 288.938 113.268 289.542L113.352 289.62L113.456 289.589C113.591 289.547 113.763 289.526 113.951 289.526C114.138 289.526 114.352 289.547 114.602 289.583L114.815 289.62L114.831 289.396C114.898 287.859 114.258 286.313 113.044 285.036C111.909 283.859 110.414 283.099 109.258 283.099C109.003 283.099 108.773 283.13 108.565 283.198L108.388 283.26L108.44 283.443C108.747 284.542 109.44 285.276 110.096 285.984ZM214.898 79.2292C213.685 79.2292 213.096 78.599 212.482 77.9479C211.831 77.2396 211.164 76.5208 209.763 76.5208C209.602 76.5208 209.44 76.5313 209.258 76.5469L209.148 76.5625L209.096 76.6667C205.31 85.5885 201.404 94.7708 197.456 104.078C187.352 127.865 176.909 152.479 167.107 175.318C166.815 176.016 166.362 176.813 165.898 177.651C165.31 178.708 164.643 179.906 164.148 181.094C163.232 183.333 162.404 186.563 165.841 188.896L165.935 188.958L166.029 188.922C170.081 187.349 171.857 183.016 173.414 179.188C173.654 178.599 173.898 178.026 174.138 177.479C178.107 168.359 182.362 158.438 187.122 147.161C192.164 135.255 197.216 123.146 202.096 111.427C206.482 100.922 211.018 90.0521 215.471 79.4948L215.602 79.1875L215.268 79.2135C215.138 79.2292 215.018 79.2292 214.898 79.2292ZM136.31 100.641C137.617 102.708 139.841 103.932 142.268 103.932C143.685 103.932 145.096 103.495 146.388 102.667C145.201 99.3594 142.773 96.974 138.534 94.9323L138.497 94.9063L138.456 94.8646C138.055 94.2917 137.44 93.9323 136.789 93.5313C136.534 93.3854 136.284 93.2292 136.044 93.0521C134.841 95.7188 134.935 98.4792 136.31 100.641ZM147.388 108.135C146.216 109.625 145.122 111.026 144.841 113.292C145.362 113.547 145.977 113.667 146.747 113.667C147.31 113.667 147.909 113.615 148.482 113.547C149.055 113.495 149.669 113.427 150.258 113.427C151.497 113.427 152.404 113.708 153.138 114.333C153.643 109.906 151.404 108.307 149.029 106.625L148.685 106.375C148.284 107 147.831 107.573 147.388 108.135ZM152.576 99.3854L152.174 100.734C153.388 103.375 155.549 103.922 157.164 103.922C160.107 103.922 163.497 101.984 165.201 99.3073C166.404 97.4271 166.617 95.401 165.815 93.5885C165.378 93.5208 164.924 93.4792 164.482 93.4792C161.43 93.4792 158.805 95.2813 156.258 97.026C155.044 97.8646 153.789 98.7188 152.508 99.375L152.576 99.3854ZM132.43 111.469C130.789 105 131.805 90.5052 135.107 83.9844L135.164 83.9063C135.201 83.8125 135.258 83.7188 135.294 83.625C138.044 78.4688 142.763 75.0156 148.591 73.8802C149.935 73.625 151.258 73.4948 152.523 73.4948C165.456 73.4948 171.352 86.8125 171.352 99.1875C171.352 102.505 170.951 105.745 170.148 108.802C167.232 120 155.591 130.958 149.029 130.958C148.883 130.958 148.747 130.948 148.617 130.948C142.523 130.521 134.216 118.505 132.43 111.469ZM166.909 119.469L166.471 119.948C165.883 120.589 165.294 121.24 164.721 121.906C160.987 126.094 157.122 130.438 151.216 132.547L151.055 132.615L151.096 132.786C151.414 134.401 151.352 136.318 151.268 138.349C151.242 138.932 151.216 139.521 151.201 140.094C151.122 143.146 151.268 146.531 153.841 148.24L154.044 148.375L154.138 148.161C155.523 145.135 157.216 142.307 158.857 139.589C162.232 133.974 165.721 128.161 166.815 120.104L166.909 119.469ZM154.669 186.292L154.591 186.172L154.44 186.214C154.378 186.24 154.31 186.281 154.242 186.307C154.07 186.411 153.924 186.521 153.747 186.693C153.617 186.948 153.523 187.188 153.456 187.375C152.789 189.438 154.148 190.984 155.352 192.349C155.508 192.521 155.654 192.693 155.805 192.865L156.201 193.333L156.148 192.719C156.096 192.078 156.216 191.615 156.482 191.318C156.721 191.052 157.107 190.922 157.628 190.922C157.737 190.922 157.831 190.922 157.935 190.932L158.107 190.948L158.148 190.771C158.456 189.469 157.003 188.281 155.815 187.333C155.336 186.948 154.883 186.573 154.669 186.292ZM161.201 191.599H161.284C163.029 191.589 163.815 190.625 163.815 189.734C163.815 188.839 163.029 187.88 161.284 187.865H161.096L161.081 188.052C161.055 188.625 160.898 189.052 160.747 189.411C160.482 190.078 160.258 190.641 161.148 191.547L161.201 191.599ZM160.805 196.948L160.815 196.745C161.029 193.682 160.336 191.88 158.695 191.214L158.336 191.068L158.43 191.453C158.643 192.349 158.284 192.589 157.841 192.906C157.591 193.078 157.336 193.255 157.174 193.547C156.987 193.88 156.961 194.281 157.096 194.786L157.148 194.984L157.352 194.922C157.654 194.828 157.935 194.771 158.148 194.771C158.773 194.771 158.961 195.135 159.232 195.734C159.482 196.281 159.747 196.906 160.617 196.932L160.805 196.948ZM157.591 186.958C157.044 186.625 156.471 186.281 156.029 185.802L155.935 185.708L155.987 185.589C156.055 185.438 156.138 185.292 156.232 185.161C156.258 185.12 156.284 185.094 156.31 185.068C156.669 184.839 156.909 184.563 157.164 184.255C157.602 183.719 158.096 183.104 159.174 183.104C159.414 183.104 159.695 183.135 160.003 183.214L160.138 183.24L160.148 183.375C160.378 184.786 159.898 185.531 159.43 186.24C159.174 186.625 158.951 186.984 158.815 187.453L158.737 187.734L158.508 187.563C158.216 187.349 157.898 187.146 157.591 186.958Z" fill="#FDE9C6"/>
<path d="M104.736 284.656C103.923 285.276 103.283 285.338 102.762 285.047C102.71 285.328 102.616 285.625 102.439 285.968L102.361 286.146L102.533 286.234C103.147 286.536 103.6 286.677 103.96 286.677C104.402 286.677 104.668 286.474 104.949 286.26C105.267 286.01 105.642 285.734 106.413 285.619C106.454 285.323 106.522 284.989 106.574 284.651C106.402 284 106.507 283.526 106.642 282.932C106.507 282.588 106.507 282.041 106.574 281.51C106.309 282.536 105.772 283.859 104.736 284.656ZM169.626 188.427C169.173 188.984 168.736 191.547 169.293 192.651C169.84 193.744 172.283 194.505 172.6 193.599C172.616 192.349 172.616 190.76 172.6 189.317C172.361 188.625 172.069 187.984 172.069 187.984L169.626 188.427ZM159.84 201.651C159.855 201.547 159.855 201.437 159.855 201.349C158.949 201.453 157.897 200.932 155.173 199.093C154.96 198.948 154.746 198.786 154.548 198.625C154.48 199.531 154.173 200.317 154.736 200.88C155.507 201.651 156.96 203.317 157.84 203.427C158.736 203.547 159.736 203.317 159.84 201.651ZM136.96 91.4268C133.96 91.6507 134.96 94.7601 134.96 94.7601C134.975 95.0413 135.095 95.4528 135.257 95.9476C135.35 94.9841 135.6 94.0153 136.043 93.0518C136.283 93.2288 136.533 93.3851 136.788 93.5309C137.439 93.932 138.053 94.2913 138.454 94.8643L138.496 94.9059L138.533 94.932C142.257 96.7184 144.574 98.7861 145.897 101.494C146.319 100.531 146.507 99.1351 145.507 97.3174C143.736 94.0934 139.96 91.2132 136.96 91.4268ZM106.574 281.51C106.788 280.677 106.829 280.036 106.829 280.036C106.829 280.036 106.652 280.75 106.574 281.51ZM202.095 111.427C206.48 100.922 211.017 90.0518 215.47 79.4945L215.6 79.1872L215.267 79.2132C215.137 79.2288 215.017 79.2288 214.897 79.2288C213.684 79.2288 213.095 78.5986 212.48 77.9476C212.053 77.4945 211.642 77.0413 211.027 76.7705L212.069 79.5466C212.069 79.5466 203.293 99.9841 200.736 106.88C198.173 113.76 170.173 177.213 167.626 182.547C166.199 185.521 164.642 186.041 163.507 185.838C163.803 186.922 164.48 187.984 165.84 188.896L165.934 188.958L166.027 188.922C170.079 187.349 171.855 183.015 173.413 179.187C173.652 178.599 173.897 178.026 174.137 177.479C178.105 168.359 182.361 158.437 187.121 147.161C192.163 135.255 197.215 123.146 202.095 111.427ZM164.454 206.854L164.814 206.708C164.533 204.317 165.626 202.161 166.694 200.078L166.746 199.984C164.47 201.734 162.454 200.359 161.017 200.958C160.47 202.453 159.72 203.771 158.507 204.562L158.137 204.812L158.574 204.932C158.668 204.958 158.762 204.974 158.882 205C159.829 205.187 160.564 205.229 161.23 205.239C161.283 205.172 161.402 205.187 161.533 205.265C162.71 205.317 163.47 205.453 164.454 206.854ZM106.413 286.635L106.428 286.739C106.668 289.354 108.934 289.937 111.105 290.505C111.6 290.63 112.095 290.76 112.564 290.911L112.866 291.005L112.829 290.698C112.814 290.599 112.829 290.51 112.829 290.427L112.84 290.333L112.762 290.265C112.71 290.218 112.652 290.161 112.616 290.114C112.163 289.896 111.652 289.672 111.173 289.432C109.173 288.432 106.96 286.765 106.496 286.567L106.413 286.635ZM161.079 188.052C161.053 188.625 160.897 189.052 160.746 189.411C160.48 190.078 160.257 190.64 161.147 191.547L161.199 191.599H161.283C162.257 191.599 162.923 191.291 163.319 190.88C163.027 190.281 162.361 189.146 161.079 188.052ZM103.47 279.942C103.043 279.942 102.642 280.057 102.241 280.286C102.84 280.734 103.829 280.89 105.361 280.203C105.043 280.203 104.746 280.14 104.428 280.073C104.121 280.01 103.814 279.942 103.47 279.942ZM164.48 93.4788C161.428 93.4788 158.803 95.2809 156.257 97.0257C155.043 97.8643 153.788 98.7184 152.507 99.3747L152.574 99.3851L152.173 100.734C153.387 103.375 155.548 103.922 157.163 103.922C160.105 103.922 163.496 101.984 165.199 99.307C166.402 97.4268 166.616 95.4007 165.814 93.5882C165.376 93.5205 164.923 93.4788 164.48 93.4788ZM171.35 99.1872C171.35 102.505 170.949 105.744 170.147 108.802C167.23 120 155.59 130.958 149.027 130.958C148.882 130.958 148.746 130.948 148.616 130.948C148.293 130.922 147.986 130.864 147.668 130.786C149.309 128.828 152.283 124.864 152.96 123.76C153.84 122.317 151.736 120.427 148.173 120.984C144.626 121.547 142.736 117.88 145.293 118.317C147.84 118.76 150.84 117.984 153.069 118.76C154.803 119.375 153.428 116.146 151.855 113.64C152.335 113.786 152.762 114.015 153.137 114.333C153.616 110.119 151.616 108.468 149.376 106.864C149.309 106.146 149.189 105.349 148.84 104.427C147.626 101.093 148.736 92.5466 150.507 90.4268C152.293 88.3174 152.736 79.9841 147.173 79.3174C144.079 78.9476 139.975 79.682 136.59 81.5466C139.402 77.5466 143.59 74.8538 148.59 73.8799C149.934 73.6247 151.257 73.4945 152.522 73.4945C165.454 73.4945 171.35 86.8122 171.35 99.1872ZM110.095 285.984C110.574 286.5 111.027 286.994 111.387 287.656L113.267 289.541C113.267 289.541 113.309 289.567 113.387 289.609L113.454 289.588C113.59 289.547 113.762 289.526 113.949 289.526C114.137 289.526 114.35 289.547 114.6 289.583L114.814 289.619L114.829 289.396C114.829 289.39 114.829 289.38 114.829 289.369C114.814 288.906 114.59 287.843 113.173 286.765C112.053 285.906 110.652 284.291 109.71 283.13C109.548 283.109 109.402 283.099 109.257 283.099C109.001 283.099 108.772 283.13 108.564 283.198L108.507 283.213L108.48 283.573C108.814 284.599 109.47 285.307 110.095 285.984ZM105.293 275.765C106.507 277.989 102.387 278.01 101.736 278.109L101.814 278.198C102.361 278.729 103.241 278.963 104.668 278.963C105.095 278.963 105.522 278.948 105.975 278.922L106.215 278.906L106.163 278.672C105.975 277.989 105.84 277.25 105.71 276.531C105.309 274.448 104.908 272.297 103.413 271.234L103.215 271.093L103.105 271.312C102.84 271.911 102.642 272.468 102.507 273C103.522 273.692 104.684 274.661 105.293 275.765ZM157.293 196.093C157.189 196.093 157.069 196.093 156.96 196.104C157.121 196.119 157.241 196.119 157.293 196.093ZM159.652 205.922L156.241 204.854L157.402 208.093C157.402 208.093 155.96 212.88 152.736 220.093C149.507 227.323 140.402 245.099 136.736 253.656C133.069 262.213 120.736 291.656 117.173 298.765C113.626 305.875 100.507 338.875 96.7357 347.432C92.9596 355.989 81.1732 383.323 71.8398 404.432C65.5898 418.578 62.7357 423.39 60.3867 425.062C61.5221 425.448 62.5742 425.651 63.4805 425.651C67.3607 425.651 68.694 422.182 69.9857 418.828C70.2565 418.14 70.5221 417.453 70.8138 416.786C73.4701 410.646 76.3867 404.401 79.1992 398.359C82.3503 391.64 85.5898 384.692 88.4284 377.989C88.7721 377.146 89.1367 376.297 89.4805 375.458C92.3346 368.489 95.2305 361.234 98.0273 354.218C102.829 342.182 107.803 329.729 112.814 318.135C113.694 316.083 114.855 314.099 115.975 312.182C116.772 310.812 117.6 309.401 118.335 307.953C118.772 307.088 119.147 306.271 119.47 305.463C122.189 298.812 124.897 292.328 127.522 286.057C129.829 280.562 131.986 275.375 134.137 270.135C137.574 261.771 141.319 253.166 144.96 244.843C150.439 232.291 156.121 219.307 160.814 206.802L160.866 206.651L160.736 206.562C160.361 206.317 160.001 206.119 159.652 205.922ZM228.788 39.6924C229.6 40.1976 230.507 40.5309 231.267 40.5309C232.069 40.5309 232.616 40.1611 232.803 39.4788L232.855 39.2913L232.684 39.2393C231.616 38.8382 230.684 38.307 229.803 37.708C229.507 38.2913 229.163 38.984 228.788 39.6924ZM177.694 211.172C177.6 209.854 177.507 208.521 177.361 207.239C175.668 206.093 173.507 206.718 171.507 204.651C169.043 202.093 168.96 199.547 169.027 198.599C168.616 199.026 168.267 199.547 167.986 200.146C167.163 201.958 167.199 204.067 168.053 205.411C168.71 206.411 169.736 206.932 171.069 206.948C170.986 209.187 173.23 211.427 175.387 213.599C176.293 214.494 177.147 215.359 177.788 216.172L178.137 216.625V216.119L178.163 216.093L178.147 216C177.897 214.479 177.788 212.802 177.694 211.172ZM157.215 142.359C157.762 141.427 158.309 140.505 158.855 139.588C162.23 133.974 165.72 128.161 166.814 120.104L166.908 119.468L166.47 119.948C165.882 120.588 165.293 121.239 164.72 121.906C160.986 126.093 157.121 130.437 151.215 132.547L151.053 132.614L151.095 132.786C151.189 133.239 151.241 133.718 151.283 134.213C152.001 134.614 152.71 135.052 153.293 135.547C154.975 136.932 156.522 139.692 157.215 142.359ZM154.137 198.948L154.147 198.76C154.173 198.614 154.199 198.479 154.241 198.349C153.163 197.375 152.335 196.187 151.72 195.041C151.564 195.229 151.402 195.401 151.241 195.531L151.189 195.614C150.986 195.932 150.772 196.317 150.803 196.744C150.803 196.828 150.814 196.906 150.829 196.984L150.84 197.052L150.882 197.093C151.043 197.229 151.173 197.375 151.319 197.521C151.975 198.187 152.652 198.864 153.949 198.932L154.137 198.948ZM157.137 190.974C156.803 190.599 156.439 190.198 156.069 189.76C155.001 188.521 154.267 187.505 153.772 186.682C153.762 186.682 153.762 186.682 153.746 186.692C153.616 186.948 153.522 187.187 153.454 187.375C152.788 189.437 154.147 190.984 155.35 192.349C155.507 192.521 155.652 192.692 155.803 192.864L156.199 193.333L156.147 192.718C156.095 192.078 156.215 191.614 156.48 191.317C156.626 191.146 156.855 191.041 157.137 190.974ZM158.413 183.229C157.829 183.427 157.48 183.864 157.163 184.255C156.908 184.562 156.668 184.838 156.309 185.067C156.283 185.093 156.257 185.119 156.23 185.161C156.137 185.291 156.053 185.437 155.986 185.588L155.934 185.708L156.027 185.802C156.47 186.281 157.043 186.625 157.59 186.958C157.897 187.146 158.215 187.349 158.507 187.562L158.736 187.734L158.814 187.453C158.949 186.984 159.173 186.625 159.428 186.239C159.48 186.161 159.522 186.078 159.574 186C159.069 185.041 158.668 184 158.413 183.229ZM160.814 194.76C160.866 195.359 160.866 196.015 160.814 196.744L160.803 196.948L160.616 196.932C159.746 196.906 159.48 196.281 159.23 195.734C158.96 195.135 158.772 194.771 158.147 194.771C157.934 194.771 157.652 194.828 157.35 194.922L157.147 194.984L157.095 194.786C156.96 194.281 156.986 193.88 157.173 193.547C157.335 193.255 157.59 193.078 157.84 192.906C158.069 192.734 158.283 192.588 158.387 192.359C159.47 193.494 160.257 194.255 160.814 194.76Z" fill="#DE9890"/>
<path d="M216.59 76.9476C215.6 76.7861 214.908 76.3486 214.241 75.9216C213.413 75.4007 212.642 74.9059 211.35 74.9059C211.121 74.9059 210.882 74.9215 210.642 74.9476L210.293 74.9841L210.428 74.6663C211.788 71.4372 213.137 68.1872 214.48 64.932C217.897 56.708 221.428 48.1872 225.095 39.9997L225.147 39.8955H225.267C225.439 39.8799 225.6 39.8643 225.762 39.8643C227.694 39.8643 228.642 40.8538 229.574 41.8018C230.121 42.359 230.642 42.8955 231.361 43.2393L231.548 43.333L231.454 43.5049C231.257 43.932 231.027 44.359 230.814 44.7861C230.001 46.3747 229.163 48.0257 228.803 50.1195L228.772 50.2913H225.574C227.121 54.1872 225.59 57.2549 223.975 60.4945C222.908 62.6247 221.803 64.8382 221.48 67.4372L221.454 67.6143H217.642C220.053 71.4372 219.866 73.1455 216.772 76.8799L216.694 76.958L216.59 76.9476ZM226.413 284.036C227.215 275.51 228.642 267.083 230.173 258.166C232.335 245.494 234.564 232.401 235.069 218.052C235.668 201.479 236.199 185.229 236.23 168.614C236.257 145.531 235.23 127.692 233.079 114.104C232.496 110.401 231.387 107.041 230.309 103.786C228.027 96.8643 226.053 90.8799 230.402 84.6924C230.189 83.3851 229.507 82.5309 228.803 81.6403C228.053 80.7184 227.293 79.7601 227.095 78.2393C226.829 78.1715 226.574 78.1455 226.361 78.1455C225.454 78.1455 225.173 78.7445 224.855 79.4372C224.522 80.1611 224.147 80.9736 222.986 80.9736C222.866 80.9736 222.736 80.958 222.59 80.9476L222.522 80.932L222.48 80.8955C218.428 76.9476 220.772 72.1872 223.053 67.5726C223.533 66.6143 224.027 65.6247 224.428 64.6663C225.147 62.9997 225.934 61.333 226.684 59.7184C228.6 55.6143 230.574 51.3747 231.746 46.708L231.803 46.5049L231.986 46.5622C232.908 46.8122 233.564 47.4007 234.043 48.4111C234.319 49.0153 234.533 49.6924 234.72 50.359C235.043 51.4528 235.376 52.5882 236.079 53.2809L236.147 53.3486V53.4268C236.053 54.9476 235.387 55.8799 234.746 56.8018C234.189 57.5726 233.668 58.3174 233.48 59.4007C234.642 62.8643 237.001 66.8799 239.829 66.8799C240.283 66.8799 240.736 66.7705 241.189 66.5622L241.402 66.4684L241.47 66.6924C248.053 91.4788 251.23 118.718 250.923 147.666C250.496 188.213 243.079 232.5 229.507 275.75C228.6 278.619 227.694 281.437 226.803 284.119L226.413 284.036Z" fill="#E1F5F9"/>
<path d="M234.401 47.4274L231.734 44.5472C231.734 44.5472 228.292 51.4274 227.734 52.0941C227.172 52.7607 226.401 56.318 226.068 57.4274C225.734 58.5472 221.401 67.6514 220.505 69.9847C219.625 72.318 219.505 76.0941 219.505 76.0941C219.505 76.0941 221.292 81.6514 221.734 81.7607C222.172 81.8805 222.505 81.4274 224.172 78.9847C225.839 76.5472 226.401 73.8805 223.958 74.9847C221.505 76.0941 225.839 65.8805 228.734 61.6514C231.625 57.4274 234.401 47.4274 234.401 47.4274ZM235.531 204.573C235.385 209.052 235.24 213.547 235.068 218.052C234.88 223.37 234.453 228.511 233.896 233.526C237.078 228.485 240.453 223.11 243.948 217.532C247.292 199.198 249.469 181.052 250.401 163.495C245.359 178.401 240.198 192.854 235.531 204.573ZM236.214 169.599L250.318 123.188C249.188 104.599 246.531 86.8649 242.359 70.1982L230.563 104.547C231.547 107.563 232.531 110.683 233.078 114.104C235.229 127.693 236.255 145.532 236.229 168.615C236.229 168.948 236.214 169.266 236.214 169.599ZM221.479 67.4378C221.802 64.8389 222.906 62.6253 223.974 60.4951C225.589 57.2555 227.12 54.1878 225.573 50.292H228.771L228.802 50.1201C229.161 48.0264 230 46.3753 230.813 44.7868C231.026 44.3597 231.255 43.9326 231.453 43.5055L231.547 43.3337L231.359 43.2399C230.641 42.8962 230.12 42.3597 229.573 41.8024C229.214 41.4274 228.839 41.0524 228.427 40.7451C227.495 43.3857 224.88 50.641 221.958 57.6514C220.068 62.1722 218.771 65.3857 217.839 67.6149H221.453L221.479 67.4378ZM217.76 67.8024C220.052 71.4951 219.813 73.2139 216.771 76.8805L216.693 76.9587L216.589 76.9482C215.599 76.7868 214.906 76.3493 214.24 75.9222C213.839 75.667 213.438 75.4118 212.984 75.2295C214.229 73.7347 215.531 72.1357 215.958 71.5472C216.375 70.9743 216.922 69.7868 217.76 67.8024Z" fill="#86D5CA"/>
<path d="M165.935 188.958L167.404 189.547L171.07 185.984L175.841 175.651L185.841 151.76L198.404 123.317L216.294 80.6507L219.508 76.0934L221.508 69.9841L228.07 54.0934L231.737 44.5465L233.737 38.6507L231.508 37.8799L224.961 52.984L218.294 70.3174L213.961 77.4268L202.174 107.88C202.174 107.88 181.909 156.041 179.685 161.213C177.456 166.375 165.935 188.958 165.935 188.958ZM179.018 217.88C179.242 218.041 178.508 213.88 178.508 213.599C178.508 213.317 177.628 212.093 175.018 210.041C172.404 207.984 170.737 206.093 169.174 203.828C167.628 201.547 166.685 201.494 166.576 201.651C166.456 201.828 165.685 202.651 165.294 203.041C164.909 203.427 164.07 203.828 162.352 203.984C160.628 204.161 160.07 203.494 159.07 202.599C158.07 201.708 158.122 201.76 155.174 199.547C152.242 197.317 150.789 196.265 150.789 196.265L150.508 198.317C150.508 198.317 151.294 198.828 152.841 199.708C154.404 200.599 154.909 201.984 155.122 202.427C155.352 202.88 155.404 202.828 157.174 204.265C157.883 204.828 158.549 205.198 159.164 205.468L158.815 205.505L155.628 218.093L130.07 274.989L102.961 336.547C102.961 336.547 71.1745 411.213 67.4036 418.323C63.6276 425.432 59.8984 424.896 59.8984 424.896C63.5078 427.026 67.1745 425.88 67.1745 425.88L70.8151 416.786L86.9609 383.88L104.07 342.099C104.07 342.099 113.404 319.213 115.628 314.765C117.841 310.323 131.404 278.099 131.404 278.099L144.961 247.656L161.628 208.317L161.378 206.401C162.07 206.864 162.148 206.614 163.841 207.317C165.576 208.041 166.294 207.828 166.628 207.547C166.961 207.265 167.07 206.708 168.242 207.161C169.404 207.599 169.841 207.708 170.404 208.547C170.961 209.375 171.737 210.932 174.018 213.213C176.294 215.494 178.789 217.708 179.018 217.88ZM205.841 422.765C199.628 421.432 190.508 415.88 184.737 413.88C178.961 411.88 174.737 418.547 174.258 418.562L173.404 421.213C173.404 421.213 177.628 418.099 178.294 417.88C178.961 417.656 184.773 417.187 184.773 417.187C184.773 417.187 192.737 419.213 199.841 422.547C206.107 425.479 212.029 423.76 213.352 423.312C212.695 423.5 210.685 423.802 205.841 422.765ZM213.352 423.312C213.549 423.255 213.628 423.213 213.628 423.213C213.628 423.213 213.534 423.25 213.352 423.312ZM243.352 420.823C233.018 419.989 219.508 418.323 214.508 415.323C209.508 412.323 207.174 413.156 200.018 405.656C200.018 405.656 202.352 411.323 212.508 416.323C222.685 421.323 226.685 422.489 230.174 422.989C233.685 423.489 245.018 423.989 248.841 423.989C252.685 423.989 261.018 420.156 261.018 420.156C261.018 420.156 253.685 421.656 243.352 420.823ZM145.174 419.323C140.643 419.656 134.352 421.323 130.174 423.989C126.018 426.656 122.352 423.489 122.352 423.489L123.018 427.489C123.018 427.489 127.508 428.489 128.352 428.323C129.174 428.156 136.018 426.823 138.685 424.323C141.352 421.823 148.174 422.989 152.388 422.458C155.029 422.125 159.164 422.479 161.898 422.791C158.534 421.666 153.867 418.682 145.174 419.323ZM164.685 423.156C164.685 423.156 163.549 422.984 161.898 422.791C162.924 423.135 163.831 423.312 164.685 423.156ZM129.018 412.489C130.841 407.823 130.685 406.323 130.685 406.323C130.685 406.323 124.352 415.656 120.508 417.989C116.685 420.323 111.685 421.156 103.841 423.156C96.0182 425.156 93.3516 422.156 93.3516 422.156L93.1068 426.177C93.1068 426.177 94.1745 427.823 95.1745 428.156C96.1745 428.489 101.174 429.156 104.018 427.823C106.841 426.489 118.508 421.989 119.018 421.989C119.508 421.989 125.352 420.489 125.352 420.489C125.352 420.489 127.174 417.156 129.018 412.489ZM201.018 313.989C201.174 319.656 201.841 349.823 202.685 357.656C203.508 365.489 212.232 382.89 214.789 385.942C217.352 388.989 217.352 388.989 217.352 388.989C217.352 388.989 207.685 367.156 206.841 358.323C206.018 349.489 204.352 296.489 204.352 296.489L203.961 242.432C206.628 239.208 209.174 230.541 209.508 227.989C209.841 225.432 208.841 222.875 208.737 221.984C208.628 221.093 205.508 207.984 205.508 207.984C205.508 207.984 207.07 219.88 206.961 224.099C206.841 228.323 207.404 231.323 204.404 235.656C201.404 239.989 199.294 243.541 197.404 245.099C195.508 246.656 193.404 248.099 193.404 248.099L192.07 248.323L190.404 242.099C190.404 242.099 189.174 249.099 189.174 254.099C189.174 259.099 188.841 259.989 188.628 260.989C188.404 261.989 187.508 262.432 187.174 262.656C186.841 262.875 185.174 263.541 185.174 263.541V253.323C185.174 253.323 184.174 262.323 182.841 265.656C181.508 268.989 181.07 269.989 180.628 270.323C180.174 270.656 178.404 274.099 178.404 274.099C178.404 274.099 179.404 277.099 179.737 276.875C180.07 276.656 181.841 272.323 183.294 270.099C184.737 267.875 185.508 266.432 185.961 266.432C186.404 266.432 189.07 267.213 190.174 266.765C191.294 266.323 191.174 266.541 191.294 264.323C191.404 262.099 191.961 253.989 192.294 253.765C192.628 253.541 193.737 251.765 194.628 250.656C195.201 249.932 197.841 248.036 200.362 245.911C200.43 247.922 200.857 261.76 201.018 273.323C201.174 285.823 200.841 308.323 201.018 313.989ZM191.961 164.427C192.174 164.76 190.841 161.317 190.841 161.317L185.924 156.896L184.628 154.76L184.43 156.682C184.43 156.682 187.294 160.093 188.737 161.651C190.174 163.213 191.737 164.093 191.961 164.427ZM178.737 146.213C178.737 146.213 174.643 137.573 174.07 137.052C173.508 136.547 173.508 136.547 173.508 136.547L171.294 138.317C171.294 138.317 176.737 147.76 177.07 148.88C177.404 149.984 178.737 146.213 178.737 146.213ZM158.148 58.5309L159.628 57.8799L164.737 62.2132L171.294 70.2132C171.294 70.2132 176.628 77.4268 178.628 81.0934C180.628 84.7601 181.508 97.8799 181.508 104.427C181.508 110.984 176.294 129.76 175.737 130.651C175.174 131.547 172.404 136.547 168.961 140.317C165.508 144.093 159.961 154.547 159.961 154.547C159.961 154.547 162.174 146.88 166.628 140.547C171.07 134.213 173.628 127.984 176.07 121.213C178.508 114.427 178.508 100.427 177.737 92.7601C176.961 85.0934 175.174 77.7601 170.404 73.6507C165.628 69.5466 159.497 64.8382 159.497 64.8382L162.961 66.0934C164.508 66.0934 161.961 60.2132 158.148 58.5309Z" fill="#F9EB34"/>
<path d="M137.951 354.714C138.831 366.011 133.44 373.953 130.617 382.042C132.404 370.985 136.096 366.594 137.951 354.714ZM135.951 92.7451C136.841 93.4118 137.961 93.8545 138.617 94.7451C133.43 97.4535 139.43 104 144.617 102.745C143.763 98.9482 139.456 98.5889 138.617 94.7451C142.216 96.4795 145.268 98.7712 146.617 102.745C140.201 107.068 132.216 100.625 135.951 92.7451ZM148.617 108.078C150.164 107.881 149.362 110.016 150.617 110.078C150.055 111.068 148.471 111.042 147.284 111.412C147.576 110.146 148.721 109.735 148.617 108.078ZM153.284 114.745C154.029 109.563 151.19 107.948 148.617 106.078C147.19 108.427 144.987 110.016 144.617 113.412C147.232 114.802 150.935 112.318 153.284 114.745ZM151.404 140.104C151.456 137.532 151.721 134.865 151.284 132.745C158.164 130.282 162.174 124.959 166.617 120.078C166.602 120 166.602 119.948 166.576 119.881C166.695 119.948 166.841 120 166.961 120.016C166.867 120.042 166.763 120.068 166.617 120.078C164.987 132 158.216 138.787 153.951 148.078C151.565 146.495 151.32 143.386 151.404 140.104ZM137.284 126.078C140.523 125.532 144.216 133.802 148.617 132.078C150.19 133.615 148.565 138.36 149.951 140.078C143.602 137.547 141.591 130.667 137.284 126.078ZM132.617 111.412C130.961 104.896 131.987 90.5628 135.284 84.0785C135.352 83.9743 135.404 83.8545 135.471 83.7347C138.284 78.4691 143.055 75.1618 148.617 74.0785C163.789 71.1722 171.148 85.1878 171.148 99.1878C171.148 102.438 170.747 105.709 169.951 108.745C167.029 119.948 155.268 131.198 148.617 130.745C142.576 130.318 134.336 118.162 132.617 111.412ZM154.898 149.052C163.867 136.719 172.711 119.052 172.685 99.1722C172.685 98.1462 172.669 97.1201 172.617 96.0785C171.841 79.5472 163.414 71.4691 150.617 71.4118C143.695 71.3857 138.081 76.1462 134.414 83.1618C129.721 92.1618 128.232 104.881 131.284 116.078C132.055 118.907 134.404 122.479 135.951 125.412C136.107 125.719 136.284 126.016 136.44 126.318C141.591 135.651 149.107 142.959 152.617 152.078C153.378 151.104 154.138 150.104 154.898 149.052ZM163.951 94.0785C160.19 95.6149 157.003 100.787 152.32 99.5316C152.201 99.4951 152.081 99.4535 151.951 99.4118C156.471 97.3493 160.43 92.4014 165.951 93.4118C169.378 100.745 155.628 108.854 151.951 100.745C156.602 104.615 164.258 102.042 163.951 94.0785ZM193.284 308.724C193.456 307.881 194.617 308.047 194.617 308.724C194.029 309.131 193.414 309.526 193.284 308.724ZM195.284 316.724C195.174 321.901 193.977 330.24 192.617 338.714C190.456 352.209 186.268 372.297 179.414 381.756C187.294 361.917 192.617 334.537 193.284 310.724C196.07 310.453 195.32 314.823 195.284 316.724ZM249.951 422.709C246.685 423.037 242.44 422.667 238.617 422.709C224.378 422.849 212.43 416.162 201.951 409.375C204.763 416.334 214.617 416.271 218.617 422.042C215.602 423.37 212.773 423.891 210.081 423.891C201.029 423.891 193.44 417.974 184.805 416.99C182.003 416.396 178.721 416.193 176.258 417.094C175.456 417.381 174.763 417.86 174.122 418.407C171.617 419.855 173.174 423.084 157.951 422.709C153.388 422.594 148.549 421.49 144.044 421.875C143.565 421.907 143.081 421.969 142.617 422.042C135.711 423.167 130.388 428.547 123.951 426.042C123.721 423.151 125.789 422.542 127.951 422.042C126.174 416.177 132.883 410.209 135.951 403.375C137.096 400.828 137.508 397.797 138.617 395.375C139.763 392.891 141.805 390.985 142.617 388.709C143.534 386.157 143.148 382.855 143.951 380.042C146.201 372.214 149.44 365.849 148.617 358.047C145.471 372.016 141.19 384.802 135.951 396.709C132.294 405.021 127.711 412.349 123.951 420.042C112.763 420.589 103.201 430.521 93.2943 426.042C92.6172 421.063 98.2422 420.302 99.9609 417.375C102.201 413.526 103.924 405.047 105.294 398.042C106.096 393.938 106.898 389.37 107.695 384.526C110.378 368.115 112.867 348.516 114.628 332.714C115.055 328.74 113.883 324.328 114.628 320.724C115.497 316.526 117.336 312.355 119.268 308.401C120.685 305.474 122.148 302.667 123.284 300.058C126.284 293.209 128.336 286.318 132.617 280.724C131.44 290.964 131.107 302.834 129.284 317.391C134.961 306.235 131.284 286.901 135.284 272.063C138.107 261.62 144.695 250.552 149.284 240.063C151.711 234.521 154.336 229.417 156.617 224.063C158.857 218.828 159.565 212.469 163.951 208.735C165.456 209.854 165.857 211.683 165.747 213.828C165.602 216.959 164.388 220.761 163.951 224.063C161.935 239.709 162.096 250.354 162.617 268.063C162.643 269.104 162.669 270.334 162.685 271.693C162.815 280.214 163.044 293.703 167.284 295.391C174.508 298.256 175.924 289.875 177.508 285.203C177.654 284.787 177.805 284.401 177.951 284.058C180.576 277.948 184.31 274.74 185.284 268.729C186.841 266.834 191.055 269.084 192.617 266.063C191.685 256.573 195.471 249.297 202.617 246.063C202.857 266.636 203.695 285.636 203.909 305.948C203.935 309.282 203.951 312.641 203.951 316.058C203.909 340.657 202.831 365.995 214.617 386.042C216.122 388.594 218.617 390.787 220.669 393.526C222.268 395.667 223.591 398.136 223.951 401.375C226.654 404.662 230.216 407.11 233.284 410.042C242.268 407.969 243.654 416.37 248.617 418.042C251.935 419.162 254.565 416.209 258.617 418.709C257.508 422.136 252.747 422.427 249.951 422.709ZM89.2943 375.381C88.9505 376.224 88.6016 377.068 88.2422 377.917C82.8828 390.605 76.2578 403.693 70.6276 416.709C68.5339 421.537 67.6172 427.584 59.9609 424.709C66.8307 407.521 74.388 390.136 82.0964 372.724C91.5651 351.302 101.216 329.855 109.961 308.724C122.711 277.875 135.977 249.136 149.284 217.401C150.617 214.256 151.31 210.745 152.43 208.282C153.628 205.599 155.31 204.146 158.737 205.693C159.31 205.948 159.951 206.292 160.617 206.735C152.831 227.526 142.549 249.084 133.951 270.063C129.294 281.417 124.32 293.042 119.284 305.391C118.951 306.235 118.565 307.058 118.164 307.86C116.388 311.355 114.138 314.542 112.628 318.058C104.685 336.427 97.0443 356.49 89.2943 375.381ZM106.628 286.724C108.19 285.396 109.081 286.823 110.242 287.854C110.258 287.87 110.268 287.891 110.284 287.901C110.508 288.141 110.721 288.381 110.951 288.62C111.456 289.256 112.018 289.854 112.628 290.417C112.617 290.511 112.617 290.61 112.628 290.724C110.107 289.907 106.909 289.771 106.628 286.724ZM102.628 286.058C103.669 283.948 102.268 283.131 101.961 280.724C103.789 279.287 104.737 281.11 106.628 280.058C106.951 283.011 105.711 283.375 106.628 285.391C104.268 285.615 104.987 287.224 102.628 286.058ZM105.961 278.724C104.31 278.818 102.747 278.828 101.961 278.058C102.628 275.964 102.055 274.063 103.294 271.396C105.242 272.776 105.268 276.094 105.961 278.724ZM114.628 289.391C114.138 289.308 113.721 289.302 113.404 289.396C112.773 288.797 112.174 288.188 111.565 287.573C110.763 286 109.164 285.229 108.628 283.391C110.628 282.735 114.789 285.657 114.628 289.391ZM97.9505 266.724C95.5651 265.344 93.8568 263.271 91.2943 262.063C109.055 234.136 109.232 204.068 118.284 178.985C120.148 173.787 122.404 168.787 125.284 164.078C128.294 159.146 132.19 152.907 135.284 151.412C135.628 148.198 138.576 147.589 138.617 144.078C143.471 149 146.31 155.933 150.617 161.412C145.841 142.985 126.388 132.401 125.284 110.745C124.284 91.042 132.122 73.7087 144.617 64.0785C146.565 65.8389 148.456 63.4951 151.284 64.0785C151.388 62.2139 149.654 62.1618 147.951 62.0941C148.857 61.0264 150.07 60.2555 151.508 59.7087C153.628 58.9222 156.284 58.667 159.284 58.7607C161.737 61.641 165.352 63.3597 166.617 67.4118C164.19 66.068 162.31 64.1722 157.951 64.7451C166.617 69.4795 174.096 71.9482 177.643 80.042C178.018 80.8805 178.336 81.7868 178.617 82.7451C181.628 93.1618 181.628 110.683 178.617 120.745C178.534 121 178.456 121.266 178.362 121.521C173.591 136.495 161.362 146.256 158.617 158.078C163.565 151.016 167.164 142.615 173.951 137.412C174.711 140.865 175.763 144.042 177.284 146.745C172.003 157.615 167.164 168.922 162.591 180.479C162.378 181.016 162.164 181.532 161.951 182.068C159.898 182.573 160.669 180.24 158.617 180.735C156.497 181.865 156.388 183.026 155.549 185.453C155.43 185.469 155.31 185.479 155.201 185.506C154.805 185.36 154.174 185.828 153.867 186.042C153.44 186.349 153.164 186.802 153.018 187.292C150.789 189.198 152.898 193.068 150.508 195.026C146.669 196 152.977 201.401 153.284 202.068C152.497 203.922 151.685 205.745 150.867 207.589C145.961 218.693 140.961 229.709 136.617 241.396C134.565 239.099 135.216 232.235 133.951 227.396C132.523 233.896 135.018 239.693 133.951 246.063C132.883 252.469 128.482 258.854 125.951 264.729C123.018 271.584 120.909 278.084 117.961 284.058C118.174 259.818 129.576 227.282 125.951 208.068C128.737 209.412 130.19 208.401 132.617 209.401C130.003 207.026 126.471 205.563 124.737 202.292C124.654 201.881 124.576 201.469 124.534 201.052C124.055 193 125.643 192.521 135.951 171.401C129.961 177.641 121.003 194.12 123.867 202.469C123.898 202.599 123.935 202.719 123.961 202.854C126.867 229.953 117.669 255.62 114.628 284.058C110.174 280.063 107.685 274.104 104.628 268.729C106.268 266.151 107.841 263.5 108.628 260.063C106.977 263.183 104.19 265.151 102.122 267.849C102.003 267.901 101.898 267.964 101.789 268.037C100.268 267.844 99.0286 267.349 97.9505 266.724ZM209.284 76.7451C212.534 76.3857 212.107 79.7087 215.284 79.4118C205.883 101.719 196.497 124.469 186.951 147.078C182.643 157.24 178.32 167.36 173.951 177.401C172.232 181.36 170.565 186.948 165.951 188.735C162.935 186.683 163.216 183.881 164.336 181.172C165.216 179.042 166.617 176.959 167.284 175.401C180.909 143.625 195.773 108.506 209.284 76.7451ZM225.284 40.0941C228.669 39.8128 229.174 42.4118 231.284 43.4274C230.268 45.5212 229.055 47.4274 228.617 50.0941H225.284C228.07 56.5889 222.107 60.7087 221.284 67.4118H217.284C219.909 71.4691 219.695 73.0524 216.617 76.7451C214.32 76.3857 213.669 74.3753 210.617 74.7451C215.482 63.1722 220.19 51.4378 225.284 40.0941ZM227.284 36.0941C228.909 37.3493 230.508 38.641 232.617 39.4274C231.867 42.1201 225.31 38.1878 227.284 36.0941ZM233.857 48.5055C234.617 50.0785 234.763 52.266 235.951 53.4274C235.789 56.1462 233.685 56.9326 233.284 59.4274C234.711 63.693 237.721 68.3597 241.284 66.7451C248.138 92.5732 251.018 119.922 250.721 147.667C250.268 190.761 242.148 234.834 229.32 275.688C228.44 278.495 227.534 281.282 226.617 284.058C228.565 263.302 234.404 242.417 235.284 218.068C235.815 203.172 236.404 185.828 236.414 168.615C236.456 148.974 235.721 129.521 233.284 114.078C231.414 102.334 224.258 93.7347 230.617 84.7451C230.174 81.8545 227.617 81.0941 227.284 78.0785C223.909 77.1462 225.456 81.1462 222.617 80.7451C217.815 76.068 222.32 70.0941 224.617 64.7451C227.174 58.8024 230.294 53.2816 231.951 46.7607C232.909 47.016 233.471 47.6826 233.857 48.5055ZM170.617 192.735V189.401C172.669 188.386 172.669 193.761 170.617 192.735ZM172.617 197.401C172.471 199.547 173.789 200.229 173.284 202.735C173.721 204.735 174.711 202.094 175.951 202.735C176.388 203.573 176.685 204.547 176.898 205.615C177.534 208.787 177.414 212.735 177.951 216.026C177.951 216.042 177.951 216.042 177.951 216.052C175.737 213.24 170.951 209.896 171.284 206.735C167.628 206.896 166.898 203.042 168.174 200.24C168.961 198.506 170.508 197.162 172.617 197.401ZM155.951 197.401C159.857 197.188 159.534 202.735 157.43 202.401C157.284 202.24 157.096 202.094 156.883 202C156.867 201.985 156.841 201.974 156.815 201.959C156.789 201.959 156.789 201.948 156.773 201.948C156.763 201.933 156.747 201.922 156.737 201.907C156.711 201.881 156.685 201.854 156.654 201.813C156.654 201.813 156.534 201.667 156.523 201.651C156.284 201.282 156.055 200.922 155.763 200.573C155.628 200.401 155.414 200.308 155.19 200.282C154.987 198.865 156.201 198.865 155.951 197.401ZM158.617 187.401C157.831 186.813 156.841 186.401 156.174 185.667C156.232 185.532 156.294 185.401 156.388 185.282C156.404 185.256 156.43 185.229 156.44 185.214C157.565 184.563 157.669 182.896 159.951 183.401C160.284 185.506 159.003 186.016 158.617 187.401ZM160.617 196.735C158.898 196.683 159.909 193.881 157.284 194.735C157.164 194.229 157.216 193.896 157.352 193.641C157.773 192.896 158.987 192.948 158.617 191.401C160.362 192.104 160.805 194.104 160.617 196.735ZM161.284 188.068C164.388 188.078 164.388 191.386 161.284 191.401C160.029 190.136 161.216 189.735 161.284 188.068ZM153.951 198.735C152.456 198.651 151.841 197.709 151.018 196.948C151.003 196.881 151.003 196.813 150.987 196.735C150.977 196.375 151.174 196.026 151.362 195.719C151.362 195.719 151.362 195.709 151.378 195.693C152.232 194.959 153.018 193.172 153.951 194.735C155.268 195.985 154.164 197.172 153.951 198.735ZM153.643 187.438C153.721 187.24 153.805 187.016 153.935 186.787C154.055 186.683 154.19 186.573 154.352 186.479C154.388 186.453 154.44 186.427 154.508 186.412C155.242 187.412 158.362 189.016 157.951 190.735C156.508 190.615 155.841 191.282 155.951 192.735C154.685 191.256 152.935 189.651 153.643 187.438ZM164.617 206.735C162.961 204.386 161.841 205.412 158.924 204.802C158.831 204.787 158.721 204.761 158.617 204.735C160.898 203.24 161.534 200.094 162.362 197.146C163.19 194.198 164.216 191.438 167.284 190.735C169.602 194.094 168.055 197 166.523 200C165.43 202.136 164.32 204.308 164.617 206.735ZM164.617 252.729C164.081 241.136 166.43 228.808 167.602 213.974C167.737 212.266 167.857 210.521 167.951 208.735C168.497 209.094 169.029 209.427 169.951 209.401C168.737 222.599 167.961 238.735 169.284 253.396C172.404 243.646 169.174 225.162 171.951 214.068C181.388 220.375 179.44 236.875 179.284 253.396C179.284 254.136 179.258 254.87 179.232 255.604C179.07 260.74 178.523 265.802 177.951 270.729C177.388 275.469 176.987 280.375 175.643 284.589C174.471 288.24 172.602 291.36 169.284 293.391C165.497 287.183 164.737 279.756 164.654 271.667C164.602 265.641 164.909 259.25 164.617 252.729ZM184.617 254.063C184.284 259.896 182.924 272.37 180.096 274.61C180.096 274.604 180.096 274.594 180.096 274.589C180.055 274.542 180.003 274.511 179.951 274.485C180.096 268.521 180.414 262.188 180.669 255.657C181.31 239.256 181.576 221.589 177.909 205.386C177.721 204.506 177.508 203.615 177.284 202.735C179.216 202.802 180.174 204.787 180.617 206.068C182.232 210.813 181.497 219.573 182.617 226.729C183.003 229.203 184.404 231.214 184.617 233.396C184.747 234.854 184.841 236.36 184.924 237.896C185.138 243.417 184.909 249.219 184.617 254.063ZM186.617 157.412C186.831 157.735 187.029 158.068 187.232 158.386C194.805 170.318 202.404 182.282 203.951 202.068C204.404 207.907 206.148 214.094 207.19 219.469C207.763 222.412 208.122 225.12 207.951 227.396C207.19 237.354 200.107 245.61 192.617 250.729C193.508 244.016 193.471 237.761 191.951 232.063C190.138 242.933 191.216 255.881 189.951 265.396C184.003 265.526 187.482 260.427 187.284 258.063C186.737 251.61 186.695 244.808 186.471 237.849C186.148 227.276 185.43 216.334 182.018 205.625C181.789 204.896 181.549 204.146 181.284 203.401C186.549 204.854 190.43 212.12 194.617 216.735C195.773 212.881 191.055 210.412 190.617 206.068C193.164 206.386 194.773 205.787 195.284 204.068C192.081 204.188 186.815 204.625 183.951 201.401C185.122 194.427 185.055 185.375 181.951 180.735C180.602 186.318 183.805 193.104 182.617 200.735C178.617 201.256 177.685 196.412 172.721 196.078C172.685 196.078 172.643 196.068 172.617 196.068C174.508 193.318 173.961 188.828 172.617 185.401C176.841 176.078 181.174 166.854 184.617 156.745C185.695 156.563 185.763 157.375 186.617 157.412ZM257.951 414.709C255.685 414.151 252.654 416.563 250.617 416.042C245.508 414.735 243.232 404.891 235.284 408.042C229.773 403.474 225.523 398.74 221.805 393.105C219.258 389.25 216.935 384.969 214.617 380.042C206.497 362.776 206.164 337.907 205.951 317.391C205.909 313.584 205.883 309.756 205.841 305.938C205.643 284.297 205.471 262.823 204.617 245.396C204.388 240.657 210.242 232.766 210.617 227.396C210.789 224.813 209.284 222.162 208.711 219.282C208.685 219.104 208.643 218.922 208.617 218.735C207.242 209.865 207.138 200.839 204.617 191.401C202.362 182.907 199.654 173.078 195.951 166.078C194.685 163.667 190.711 160.719 188.362 157.667C187.44 156.479 186.773 155.266 186.617 154.078C186.414 152.615 187.174 150.282 188.294 147.651C190.232 143.172 193.268 137.881 194.617 134.745C202.654 116.162 211.352 95.6253 218.617 78.7451C220.055 80.1982 221.294 81.8389 221.951 84.0785C223.924 84.016 224.497 79.1357 226.617 81.4118C229.805 84.1878 225.378 88.5472 225.284 90.7451C225.055 96.0785 228.831 101.719 229.951 106.745C234.148 125.719 235.898 146.881 235.898 168.615C235.898 215.974 227.628 266.151 218.617 302.724C224.857 298.891 226.378 291.084 228.617 284.058C229.414 281.511 230.258 278.901 231.081 276.25C236.924 257.787 243.174 236.979 247.284 216.735C248.471 210.865 248.43 204.256 249.284 198.068C251.841 179.229 252.898 167.813 252.617 151.412C252.591 150.172 252.591 148.933 252.602 147.693C252.721 137.709 253.805 127.12 253.284 116.745C252.362 98.4118 246.909 79.9222 241.951 63.4274C240.107 60.8285 238.711 65.8128 237.284 63.4274C234.602 60.5889 235.388 56.641 238.617 54.7607C237.789 52.7607 236.362 50.5993 235.336 48.3337C234.07 45.5316 233.414 42.5472 235.284 39.4274C233.549 35.8285 230.471 33.5732 225.951 32.7607C209.763 69.016 194.31 106 178.617 142.745C176.164 141.865 177.174 137.521 174.617 136.745C176.43 132 178.32 127.078 179.867 121.985C181.867 115.412 183.294 108.547 183.284 101.412C183.268 93.318 181.404 86.0941 178.43 79.693C174.081 70.3493 167.388 62.7607 160.617 56.7607C157.284 56.8285 154.096 57.4535 151.096 58.5472C130.352 66.068 118.284 95.7868 124.617 120.078C126.029 125.469 129.737 131.907 133.284 136.745C134.711 138.683 136.482 140.229 136.617 141.412C137.388 147.719 127.414 155.933 123.284 163.412C121.336 166.948 119.471 171.349 117.961 175.401C117.549 176.506 117.164 177.573 116.789 178.599C109.294 199.375 110.164 203.506 105.961 220.735C102.138 236.396 94.8307 249.313 88.6276 262.729C91.1901 265.203 93.7474 266.74 96.6849 268.256C98.0182 268.943 99.4297 269.631 100.961 270.396C100.096 276.261 100.773 280.349 100.628 286.058C104.003 289.12 108.961 290.61 112.628 293.391C104.711 316.448 95.1641 338.23 85.9609 360.047C84.2682 364.089 82.5078 368.11 80.7214 372.115C73.0182 389.485 64.8307 406.677 57.9609 424.709C67.7891 432.834 71.0286 422.375 74.6276 414.042C79.7474 402.203 84.737 390.344 89.7214 378.542C93.5755 369.438 97.4141 360.37 101.294 351.381C105.018 342.735 108.747 333.631 111.961 327.391C111.951 327.355 111.961 327.334 111.961 327.308C111.961 327.328 111.961 327.355 111.977 327.375C111.977 327.375 111.961 327.381 111.961 327.391C111.336 343.224 109.987 352.453 107.961 369.381C107.482 373.334 106.789 378.589 105.883 384.235C104.018 395.802 101.19 409.016 97.2943 416.042C95.8307 418.677 90.7474 422.641 91.2943 425.375C91.362 425.761 91.4714 426.11 91.6172 426.438C94.8307 434.349 114.242 424.953 119.951 422.709C122.174 423.256 120.388 426.901 122.617 428.709C131.258 431.344 136.242 425.396 142.617 424.042C143.122 423.938 143.654 423.86 144.216 423.818C151.669 423.157 163.404 427.344 171.081 423.875C172.711 423.453 173.951 422.667 175.362 421.391C178.174 418.87 181.081 417.693 184.576 418.256C185.107 418.344 185.643 418.464 186.19 418.631C189.935 420.287 193.284 422.927 196.617 424.042C199.576 425.026 204.456 425.323 210.081 425.323C218.378 425.323 228.258 424.693 235.951 424.709C247.414 424.73 256.508 426.808 262.617 420.042V418.042C260.018 416.62 260.201 415.271 257.951 414.709Z" fill="#231F20"/>
</svg>
