<svg version="1.1" id="Layer_1" xmlns="http://www.w3.org/2000/svg" xmlns:xlink="http://www.w3.org/1999/xlink" x="0px" y="0px"
	 width="100%" viewBox="0 0 240 240" enable-background="new 0 0 240 240" xml:space="preserve">
<path fill="#FEFEFE" opacity="1.000000" stroke="none" 
	d="
M1.000000,90.000000 
	C1.000000,60.000004 1.000000,30.500011 1.000000,1.000008 
	C79.666649,1.000000 158.333344,1.028509 236.999786,0.903890 
	C240.424057,0.898466 241.101715,1.575549 241.096176,5.000096 
	C240.970993,82.333214 240.971024,159.666626 241.096161,236.999741 
	C241.101700,240.423920 240.424591,241.101715 236.999954,241.096176 
	C159.666824,240.970993 82.333420,240.970993 5.000299,241.096130 
	C1.576204,241.101669 0.892290,240.425568 0.902336,236.999863 
	C1.045527,188.166901 1.000000,139.333389 1.000000,90.000000 
z"/>
<path fill="#050505" opacity="1.000000" stroke="none" 
	d="
M54.714699,159.201218 
	C68.244888,148.680466 81.543381,138.379562 95.025757,127.816315 
	C98.904610,121.791451 104.529839,118.332268 110.420776,115.415024 
	C112.788864,114.242325 115.270065,116.120796 117.401344,117.366875 
	C135.084167,127.705421 153.084595,137.483047 170.837280,147.698868 
	C182.665329,154.505356 194.661407,161.019638 206.723572,168.115631 
	C208.386475,169.894714 207.822433,171.691422 207.797546,173.721207 
	C206.463379,178.255432 202.925537,180.882019 199.776337,183.650543 
	C180.533173,200.567383 161.121841,217.292755 141.836639,234.162079 
	C137.740677,237.744904 133.609268,237.956696 129.042099,235.344788 
	C118.939346,229.567139 108.814667,223.827805 98.348633,218.039001 
	C96.548790,218.042114 95.386383,217.455643 94.260033,216.097473 
	C89.028984,212.883774 83.990761,209.944809 78.608322,206.952469 
	C77.292221,206.487808 76.305389,206.105515 75.225189,205.237640 
	C71.464973,202.925385 67.937622,200.828094 64.077576,198.720428 
	C62.748802,198.794937 62.193947,198.017242 61.216301,197.353424 
	C51.192490,191.462097 41.431980,185.768677 31.318771,180.043442 
	C30.612219,179.620209 30.444365,179.160828 30.596268,178.279297 
	C33.077133,176.185257 35.424103,174.445389 37.902744,172.399353 
	C38.626942,171.204666 39.604748,170.878342 40.686859,170.187485 
	C44.164886,167.521179 47.442989,165.079880 50.866684,162.335999 
	C51.719589,160.565323 53.041916,159.914307 54.714699,159.201218 
z"/>
<path fill="#F9F9F9" opacity="1.000000" stroke="none" 
	d="
M207.208557,168.461319 
	C201.716797,167.222397 197.450775,163.923615 192.833664,161.340408 
	C166.846161,146.800629 140.907166,132.173111 115.043411,117.414680 
	C112.102753,115.736687 110.116470,115.774025 107.596069,117.987061 
	C103.848701,121.277481 99.794922,124.218964 95.540596,127.431465 
	C94.598190,125.950180 93.812111,124.469215 92.148834,123.170883 
	C91.698570,120.237640 93.676186,119.045532 95.391296,117.820724 
	C98.367561,115.695320 101.036705,113.129044 104.122345,111.212997 
	C109.137581,108.098740 111.041481,103.630157 111.432861,97.962990 
	C112.735451,79.101357 115.231750,60.346458 116.650871,41.493137 
	C116.788643,39.662895 117.084496,37.869045 117.620834,35.718395 
	C117.962700,34.401516 118.310074,33.479076 118.239441,32.126411 
	C118.207436,31.534657 118.200172,31.297203 118.212929,30.703514 
	C118.610878,28.485991 118.764053,26.592638 119.102890,24.360142 
	C119.400017,23.058233 119.688911,22.122156 119.646500,20.751053 
	C119.661774,18.543825 119.570107,16.707365 120.287018,14.566040 
	C120.780342,13.774565 121.190559,13.457526 122.066376,13.162305 
	C125.951019,12.954753 128.260590,15.720215 131.623749,16.913660 
	C132.610504,17.392111 133.249069,17.744822 134.234406,18.216042 
	C147.785919,26.287991 161.114990,34.017582 175.111450,41.307049 
	C184.028275,47.753544 193.868271,51.897530 202.819214,57.556694 
	C208.651733,61.244274 215.353607,63.497536 220.702484,68.650932 
	C221.335114,77.158356 219.166519,85.031975 218.202347,93.028755 
	C217.315353,100.385330 216.474930,107.751587 215.476074,115.530807 
	C213.417343,130.427658 211.466660,144.904755 209.225739,159.766205 
	C208.966537,160.989868 208.701584,161.777039 208.478943,162.990219 
	C208.276184,165.020523 208.368134,166.695923 207.208557,168.461319 
z"/>
<path fill="#050505" opacity="1.000000" stroke="none" 
	d="
M118.923630,33.636803 
	C116.588783,57.582878 114.275475,81.190376 112.040001,104.805244 
	C111.879128,106.504707 111.054939,107.472786 109.831543,108.425285 
	C103.941200,113.011322 98.086884,117.643639 92.089622,122.564590 
	C87.036690,126.641357 82.113930,130.413071 77.056023,134.486572 
	C75.930946,136.067963 74.975983,137.385651 73.050781,138.060532 
	C66.201897,143.135986 59.698341,148.173157 53.064686,153.516602 
	C52.415615,154.826416 51.374374,155.108643 50.251804,155.802582 
	C43.214931,160.674988 36.869938,165.928833 30.269867,171.439209 
	C28.907734,169.961517 30.231045,168.351334 30.025110,166.360947 
	C30.149155,164.349899 30.260817,162.697220 30.516125,160.657257 
	C30.906351,159.419067 31.009905,158.547226 31.065947,157.335632 
	C31.231077,155.361404 31.371481,153.716324 31.615217,151.673431 
	C31.808208,150.706787 31.966293,150.150955 32.075462,149.293457 
	C33.023689,142.970078 32.189743,136.735489 34.052170,130.399384 
	C34.172363,127.886497 33.679619,125.738487 34.608040,123.338058 
	C34.963177,122.559959 35.115295,122.123558 35.152710,121.351822 
	C35.198639,120.886398 35.359272,120.756302 35.797256,120.576813 
	C38.200378,120.026184 36.305698,118.499969 36.711945,117.276283 
	C36.577942,116.740768 36.555756,116.517838 36.651077,115.978592 
	C37.518482,113.045006 38.221409,110.424927 37.175705,107.370117 
	C37.168236,106.274292 37.225475,105.513359 37.483276,104.423950 
	C38.286827,102.633354 39.312683,101.250786 38.333885,99.255219 
	C38.108147,98.540970 38.091057,98.101883 38.205254,97.357605 
	C39.846905,95.454201 39.772583,93.532059 39.313538,91.268661 
	C39.165756,90.234581 39.163525,89.492867 39.310875,88.408325 
	C39.895779,87.318245 40.001457,86.491798 40.065796,85.336288 
	C40.100113,83.953667 40.109589,82.884193 40.259705,81.436523 
	C42.898262,75.907883 47.384506,72.271950 50.834621,67.422867 
	C51.592148,66.558739 52.114815,65.939644 52.921028,65.200043 
	C53.857777,64.253395 55.029461,64.084061 55.700798,62.875336 
	C71.886841,47.084152 87.989281,31.592625 104.392159,15.968761 
	C109.825249,15.070315 111.280731,9.511457 115.752228,7.313406 
	C117.284348,6.643488 118.355064,7.139304 119.677803,8.029121 
	C120.671822,9.035484 121.036697,9.972753 121.138214,11.400049 
	C121.086319,12.269352 120.976585,12.747278 120.631432,13.520176 
	C119.000687,15.843144 119.293579,18.064335 119.704529,20.638649 
	C119.683311,21.203104 119.650612,21.427156 119.506714,21.970333 
	C117.676086,24.908253 118.231544,27.722593 118.920593,30.759178 
	C119.224434,31.150904 119.294983,31.311815 119.261856,31.715027 
	C119.084038,32.403522 119.019371,32.851089 118.923630,33.636803 
z"/>
<path fill="#2D2D2D" opacity="1.000000" stroke="none" 
	d="
M219.978149,68.271713 
	C204.740250,59.790421 189.982605,51.457176 175.040924,42.869011 
	C174.386307,41.422787 174.456161,40.358978 176.158203,39.617332 
	C190.440536,46.873699 203.997406,54.329559 217.112778,62.540619 
	C218.722763,63.548573 221.087082,64.529198 221.284790,67.484802 
	C221.011017,68.040794 220.734711,68.230286 219.978149,68.271713 
z"/>
<path fill="#111111" opacity="1.000000" stroke="none" 
	d="
M206.915207,169.106506 
	C207.088501,167.139572 207.273743,165.542191 207.622070,163.576889 
	C207.872498,162.661209 207.982544,162.116898 208.060593,161.287598 
	C209.436508,146.203796 211.594238,131.500397 213.902008,116.402557 
	C215.905289,115.647713 216.028091,117.366356 216.876816,118.675797 
	C215.747238,129.938477 214.761856,140.911255 212.265289,151.682739 
	C211.793121,153.719940 212.262665,155.975403 212.186981,158.559662 
	C211.923706,159.419724 211.832245,159.863281 211.850723,160.653473 
	C211.784515,162.361862 211.660797,163.734787 211.351318,165.479797 
	C211.090469,166.382339 211.001221,166.910599 210.866272,167.702728 
	C209.997482,169.778305 209.177597,171.590515 208.158966,173.702362 
	C205.000076,173.090424 207.897568,170.841812 206.915207,169.106506 
z"/>
<path fill="#1B1B1B" opacity="1.000000" stroke="none" 
	d="
M217.137222,118.640350 
	C215.142700,119.093834 215.147598,117.455490 214.274200,116.201035 
	C215.949142,100.304893 217.884903,84.606674 219.659302,68.516052 
	C219.797226,68.085434 220.096542,68.047195 220.841599,67.930130 
	C224.764389,70.628136 222.530869,74.037788 222.202484,77.603859 
	C222.037476,78.428925 221.994522,78.872650 221.910431,79.648239 
	C221.781891,81.343681 221.693237,82.707146 221.415176,84.435242 
	C220.999832,85.761482 221.037796,86.795074 220.276596,87.902985 
	C219.168808,98.194450 218.230972,108.240005 217.137222,118.640350 
z"/>
<path fill="#1B1B1B" opacity="1.000000" stroke="none" 
	d="
M176.492035,39.407555 
	C175.884430,40.127434 175.247742,40.744106 174.945709,42.165192 
	C161.221405,34.998661 147.585907,27.383242 133.713593,19.501797 
	C133.555389,18.319420 133.847031,17.490818 134.795715,16.486691 
	C148.824478,23.822132 162.536606,31.473310 176.492035,39.407555 
z"/>
<path fill="#1B1B1B" opacity="1.000000" stroke="none" 
	d="
M120.419792,12.305231 
	C120.099113,11.070193 120.023712,10.041511 119.959251,8.625982 
	C124.685997,9.663424 128.800491,12.292802 133.237762,14.974344 
	C133.718338,16.335564 133.623383,17.377800 132.156006,18.206394 
	C128.925751,16.780388 126.242599,15.356951 123.304352,13.675175 
	C122.273705,13.064604 121.387733,13.003152 120.419792,12.305231 
z"/>
<path fill="#1B1B1B" opacity="1.000000" stroke="none" 
	d="
M115.655014,7.009014 
	C113.765961,10.480941 111.034462,13.465420 108.080673,16.250528 
	C107.174072,17.105364 106.230209,16.566267 105.012711,15.974780 
	C107.808052,12.369384 110.867989,8.836150 115.655014,7.009014 
z"/>
<path fill="#242424" opacity="1.000000" stroke="none" 
	d="
M50.750671,67.266090 
	C50.856392,68.277069 51.019253,69.964035 50.369061,70.379936 
	C46.220745,73.033478 44.627193,77.863396 40.716602,80.996582 
	C40.909878,74.415573 46.767872,71.687981 50.750671,67.266090 
z"/>
<path fill="#242424" opacity="1.000000" stroke="none" 
	d="
M37.020218,106.933212 
	C40.786213,110.141518 39.122837,113.068352 36.197372,116.020050 
	C35.901581,114.373764 36.218956,112.680817 36.471115,110.560959 
	C36.109787,109.264946 35.983688,108.393700 36.520851,107.214371 
	C36.668804,106.912788 36.929436,106.831207 37.020218,106.933212 
z"/>
<path fill="#242424" opacity="1.000000" stroke="none" 
	d="
M39.020588,91.329727 
	C41.951675,93.035233 41.987728,95.051117 38.704914,97.036591 
	C38.515423,95.262650 38.694305,93.472900 39.020588,91.329727 
z"/>
<path fill="#F9F9F9" opacity="1.000000" stroke="none" 
	d="
M72.850876,138.465134 
	C73.903870,137.022583 75.102303,135.946365 76.610809,134.829254 
	C75.601578,136.125290 78.028336,141.098434 72.850876,138.465134 
z"/>
<path fill="#F9F9F9" opacity="1.000000" stroke="none" 
	d="
M34.453537,123.085556 
	C34.672150,125.114998 34.533253,127.233627 34.168774,129.666931 
	C32.529060,127.679756 32.274857,125.403961 34.453537,123.085556 
z"/>
<path fill="#242424" opacity="1.000000" stroke="none" 
	d="
M37.996841,99.329849 
	C41.000214,100.527161 40.718170,102.220184 38.020760,104.052368 
	C37.745373,102.623520 37.806911,101.151588 37.996841,99.329849 
z"/>
<path fill="#F9F9F9" opacity="1.000000" stroke="none" 
	d="
M35.257355,116.145599 
	C35.584206,116.066719 35.789280,116.213745 35.904697,116.264709 
	C35.957973,116.625168 35.895836,116.934662 35.885693,117.714813 
	C36.848858,118.843674 36.815113,119.666023 36.045639,120.712036 
	C35.740566,120.860893 35.412506,121.043510 35.225258,121.030006 
	C33.550880,119.451721 33.516598,117.854347 35.257355,116.145599 
z"/>
<path fill="#686868" opacity="1.000000" stroke="none" 
	d="
M29.803749,166.266541 
	C31.572308,167.603607 29.805485,169.236099 30.013596,171.227112 
	C27.671421,170.071655 29.677401,168.223297 29.803749,166.266541 
z"/>
<path fill="#F9F9F9" opacity="1.000000" stroke="none" 
	d="
M94.076767,216.178238 
	C95.264130,216.359283 96.461052,216.895828 97.828156,217.718781 
	C95.808144,219.870789 94.781311,218.643402 94.076767,216.178238 
z"/>
<path fill="#F9F9F9" opacity="1.000000" stroke="none" 
	d="
M54.558525,158.980438 
	C53.844593,159.952469 52.742786,160.923569 51.326622,161.964050 
	C50.746826,159.652130 51.959511,158.799515 54.558525,158.980438 
z"/>
<path fill="#2D2D2D" opacity="1.000000" stroke="none" 
	d="
M131.753464,18.451080 
	C132.136200,17.495159 132.663483,16.786497 133.330933,15.641825 
	C133.922882,15.391141 134.374664,15.576467 134.969391,15.966372 
	C134.814331,17.015697 134.516342,17.860443 133.847565,18.970482 
	C132.950531,19.056629 132.424271,18.877487 131.753464,18.451080 
z"/>
<path fill="#444444" opacity="1.000000" stroke="none" 
	d="
M212.063995,160.827057 
	C211.404129,160.738800 210.614578,160.601837 210.460449,160.212982 
	C210.207169,159.574005 210.848984,159.211075 211.773468,159.022888 
	C212.124100,159.547836 212.171921,160.106506 212.063995,160.827057 
z"/>
<path fill="#686868" opacity="1.000000" stroke="none" 
	d="
M30.845524,157.264740 
	C32.351902,157.977600 31.595026,159.005447 30.917610,160.146881 
	C30.064070,159.366760 30.353987,158.444427 30.845524,157.264740 
z"/>
<path fill="#242424" opacity="1.000000" stroke="none" 
	d="
M39.890026,85.275566 
	C41.376820,86.016335 41.217495,86.991417 39.757179,88.009705 
	C39.536774,87.219666 39.613091,86.373825 39.890026,85.275566 
z"/>
<path fill="#F9F9F9" opacity="1.000000" stroke="none" 
	d="
M36.353149,107.015533 
	C36.688961,107.793282 36.709122,108.673775 36.567593,109.844162 
	C34.908333,109.296730 34.489868,108.327591 36.353149,107.015533 
z"/>
<path fill="#585858" opacity="1.000000" stroke="none" 
	d="
M220.279266,87.870728 
	C219.800858,87.020515 219.579895,85.904121 220.891983,84.878639 
	C221.895935,85.987968 221.400772,86.853134 220.279266,87.870728 
z"/>
<path fill="#F9F9F9" opacity="1.000000" stroke="none" 
	d="
M50.385212,156.006317 
	C50.781574,155.310608 51.542572,154.613937 52.619080,153.870056 
	C53.000668,155.345505 52.202751,156.003250 50.385212,156.006317 
z"/>
<path fill="#F9F9F9" opacity="1.000000" stroke="none" 
	d="
M75.057602,205.383118 
	C75.976540,205.456573 76.960754,205.890457 78.104538,206.611725 
	C77.062325,206.934479 75.741112,207.294495 75.057602,205.383118 
z"/>
<path fill="#242424" opacity="1.000000" stroke="none" 
	d="
M55.489655,62.678108 
	C56.038876,64.053360 55.391754,64.864273 53.569778,65.077972 
	C53.868011,64.313194 54.531464,63.546867 55.489655,62.678108 
z"/>
<path fill="#F9F9F9" opacity="1.000000" stroke="none" 
	d="
M40.535019,169.972595 
	C40.138508,170.628326 39.390232,171.294174 38.338184,172.026611 
	C38.015987,170.641632 38.792130,169.999100 40.535019,169.972595 
z"/>
<path fill="#585858" opacity="1.000000" stroke="none" 
	d="
M222.042709,79.830620 
	C221.140244,79.487732 221.215622,78.880630 221.850113,78.105820 
	C222.124390,78.550385 222.169632,79.115707 222.042709,79.830620 
z"/>
<path fill="#686868" opacity="1.000000" stroke="none" 
	d="
M31.872726,149.225861 
	C33.299892,149.657135 32.484230,150.382156 31.953751,151.181580 
	C31.690674,150.665070 31.662798,150.054535 31.872726,149.225861 
z"/>
<path fill="#F9F9F9" opacity="1.000000" stroke="none" 
	d="
M61.053612,197.515259 
	C61.763828,197.484787 62.574657,197.814072 63.565182,198.426712 
	C62.724014,198.919739 61.740204,199.014465 61.053612,197.515259 
z"/>
<path fill="#F9F9F9" opacity="1.000000" stroke="none" 
	d="
M30.450466,177.992477 
	C30.747507,178.393890 30.764854,178.862671 30.874134,179.671539 
	C29.592846,179.812561 28.591721,179.461884 30.450466,177.992477 
z"/>
<path fill="#444444" opacity="1.000000" stroke="none" 
	d="
M211.011429,167.747162 
	C209.742157,167.376480 210.094864,166.702606 210.933868,165.932785 
	C211.178864,166.410645 211.192169,166.969452 211.011429,167.747162 
z"/>
<path fill="#F7F7F7" opacity="1.000000" stroke="none" 
	d="
M141.963928,174.662033 
	C143.505463,178.283829 144.777161,181.604660 143.374603,185.669006 
	C143.112839,186.603195 142.849319,187.122650 142.320343,187.827240 
	C136.497635,193.068787 129.420868,194.025803 122.373878,194.520569 
	C116.251137,194.950455 110.072693,194.575363 103.918900,194.581543 
	C101.895515,194.583572 100.456459,194.121994 100.055122,191.718277 
	C98.631844,183.193756 96.843971,174.731552 97.481094,165.986130 
	C98.082298,157.733734 101.163216,153.272354 107.278542,152.285370 
	C114.114479,151.182083 121.160675,155.561539 123.702019,162.506882 
	C123.927536,163.123215 124.069778,163.770004 124.352783,164.759628 
	C127.452110,162.550919 128.265259,159.380478 128.646606,156.246552 
	C129.168289,151.959381 130.804276,153.219574 133.126038,155.209717 
	C134.930038,155.464737 135.675751,156.611343 136.729095,157.875000 
	C135.602005,159.749115 143.871017,160.168152 137.196854,162.607300 
	C135.606644,164.538330 132.802124,164.222076 131.787491,166.899689 
	C132.710037,168.509644 135.041962,168.392380 136.654831,169.897034 
	C136.851639,170.175568 136.997269,170.125626 136.920593,170.132019 
	C138.979340,170.991364 140.713837,172.326141 141.963928,174.662033 
z"/>
<path fill="#2D2D2D" opacity="1.000000" stroke="none" 
	d="
M136.855621,169.835190 
	C134.093582,169.365646 131.335526,168.555725 128.295029,167.662857 
	C130.403870,164.744186 133.282898,163.718567 136.560028,162.765854 
	C134.962433,165.014374 134.076126,167.232788 136.855621,169.835190 
z"/>
<path fill="#242424" opacity="1.000000" stroke="none" 
	d="
M142.300568,174.782135 
	C140.396561,173.573212 138.752319,172.157684 136.975983,170.440277 
	C139.879745,170.161163 142.507538,170.709641 142.300568,174.782135 
z"/>
<path fill="#2D2D2D" opacity="1.000000" stroke="none" 
	d="
M136.950729,157.731140 
	C135.857666,157.406174 134.788635,156.670258 133.578003,155.636154 
	C135.233459,154.896210 136.781540,154.898956 136.950729,157.731140 
z"/>
<path fill="#343434" opacity="1.000000" stroke="none" 
	d="
M142.437531,188.077118 
	C142.376389,187.511139 142.594696,186.952118 143.074249,186.226990 
	C144.329926,187.102310 143.571198,187.607773 142.437531,188.077118 
z"/>
<path fill="#0B0B0B" opacity="1.000000" stroke="none" 
	d="
M174.592758,118.879234 
	C170.817642,123.293602 167.979935,123.767906 163.825256,120.455841 
	C158.376099,116.111832 155.802032,110.353722 156.518707,103.340904 
	C156.835800,100.238091 157.461014,97.166763 158.139099,92.855675 
	C152.405029,97.059334 147.906082,96.221313 143.902145,91.691628 
	C139.112640,86.273209 137.641235,79.989746 139.159470,73.106071 
	C140.017715,69.214821 144.147141,67.615273 147.903976,69.187584 
	C151.498215,70.691841 153.614700,73.617867 155.481491,76.848068 
	C156.256439,78.188972 156.226486,80.094246 158.345932,80.972176 
	C159.370468,78.394905 158.243881,76.039604 158.117737,73.674042 
	C157.901443,69.617661 157.851303,65.391396 162.109589,63.198650 
	C165.411545,61.498352 170.016342,63.764732 173.089371,68.129745 
	C175.222839,71.160141 176.744675,74.417152 177.219025,78.177002 
	C178.335541,87.026817 175.868439,89.757904 166.414474,89.787483 
	C167.377106,92.448555 170.375565,91.621902 171.899933,93.758430 
	C170.527847,95.456512 168.976990,95.967712 167.324646,96.374130 
	C167.837738,98.058922 169.330978,98.447411 170.802826,99.363525 
	C171.844650,100.114449 172.229767,100.924164 172.513153,102.127365 
	C173.090454,103.718063 173.681656,104.971344 174.444199,106.526489 
	C174.729355,107.371391 174.932266,107.890587 175.099518,108.705750 
	C175.284821,111.232529 175.415512,113.487488 175.524765,116.119095 
	C175.694611,117.375633 174.935089,117.890305 174.592758,118.879234 
z"/>
<path fill="#060606" opacity="1.000000" stroke="none" 
	d="
M176.965973,102.623093 
	C175.814224,102.702705 175.377762,102.317276 175.171082,101.174576 
	C173.548920,98.966545 171.472946,97.402733 171.773285,94.325142 
	C171.990845,94.026932 172.092911,93.936417 172.125443,93.876465 
	C172.483658,93.829811 172.809311,93.853462 173.135040,93.854774 
	C175.890289,93.865921 179.204636,92.917236 181.261063,94.120178 
	C183.906036,95.667404 179.835831,98.635712 180.953644,101.548431 
	C179.862946,103.127235 178.500702,102.518089 176.965973,102.623093 
z"/>
<path fill="#292929" opacity="1.000000" stroke="none" 
	d="
M171.646179,94.033554 
	C171.847702,96.664574 175.153931,97.546478 175.081085,100.493011 
	C175.060745,100.848030 174.631683,100.930412 174.427368,100.853088 
	C173.242767,100.554581 172.234055,100.450401 170.992523,100.052780 
	C166.972748,98.999290 166.972748,98.999290 164.980042,93.976219 
	C167.562988,96.219566 169.255905,93.906967 171.646179,94.033554 
z"/>
<path fill="#101010" opacity="1.000000" stroke="none" 
	d="
M119.322105,30.639782 
	C115.121590,28.436182 116.756378,25.296360 118.630630,22.090668 
	C119.533844,22.334158 119.785698,22.821985 119.878975,23.688190 
	C119.745461,26.077768 119.617897,28.183670 119.322105,30.639782 
z"/>
<path fill="#101010" opacity="1.000000" stroke="none" 
	d="
M119.436554,21.230312 
	C118.025871,18.801472 117.000580,16.485140 119.472183,14.089008 
	C120.007210,13.850505 120.186501,13.699872 120.641953,13.766312 
	C120.826981,16.020205 120.735847,18.057028 120.493011,20.502583 
	C120.152374,21.055109 119.963440,21.198904 119.436554,21.230312 
z"/>
<path fill="#292929" opacity="1.000000" stroke="none" 
	d="
M176.497803,102.906975 
	C177.515015,100.259956 179.018723,101.785515 180.596344,101.977654 
	C181.035904,102.414665 181.179810,102.849922 181.245560,103.620125 
	C180.267090,104.775696 179.266891,104.991074 177.825668,104.191246 
	C177.120941,103.696098 176.733109,103.463959 176.497803,102.906975 
z"/>
<path fill="#060606" opacity="1.000000" stroke="none" 
	d="
M177.508591,104.276291 
	C178.482010,103.934990 179.455261,103.941734 180.797958,103.951775 
	C181.109070,104.917557 181.185760,106.678955 180.970886,106.715271 
	C179.352661,106.988770 178.562286,105.532501 177.508591,104.276291 
z"/>
<path fill="#B5B5B5" opacity="1.000000" stroke="none" 
	d="
M170.799835,100.329498 
	C171.840240,98.197021 172.913422,99.078079 174.102417,100.454193 
	C173.801895,101.111420 173.380722,101.447083 172.729401,102.123764 
	C171.968964,101.849144 171.438690,101.233505 170.799835,100.329498 
z"/>
<path fill="#2D2D2D" opacity="1.000000" stroke="none" 
	d="
M121.262802,13.850566 
	C120.737183,14.007236 120.556252,14.031090 120.101616,14.028040 
	C119.902092,13.577338 119.976265,13.153541 120.112473,12.414309 
	C121.154945,12.057032 122.191734,11.809448 122.963867,13.128242 
	C122.568680,13.517140 122.088089,13.617445 121.262802,13.850566 
z"/>
<path fill="#2D2D2D" opacity="1.000000" stroke="none" 
	d="
M119.077415,21.340668 
	C119.377319,21.072683 119.650246,21.004354 120.129349,20.912125 
	C120.317329,21.760273 120.293358,22.609230 120.071205,23.715027 
	C119.597275,23.508966 119.321526,23.046070 119.032501,22.296276 
	C119.019226,22.009377 119.056221,21.563412 119.077415,21.340668 
z"/>
<path fill="#2D2D2D" opacity="1.000000" stroke="none" 
	d="
M119.063675,33.832275 
	C118.052261,33.477055 118.092155,32.871132 118.909134,32.078094 
	C119.186882,32.535210 119.215569,33.113094 119.063675,33.832275 
z"/>
<path fill="#585858" opacity="1.000000" stroke="none" 
	d="
M207.883865,161.236404 
	C209.157562,161.601486 208.769852,162.309357 208.016724,163.118500 
	C207.750778,162.626480 207.716415,162.043991 207.883865,161.236404 
z"/>
<path fill="#B5B5B5" opacity="1.000000" stroke="none" 
	d="
M175.365356,108.852165 
	C174.898315,108.452065 174.642502,107.926552 174.501114,107.114700 
	C175.616135,107.116791 175.874023,107.781212 175.365356,108.852165 
z"/>
<path fill="#B5B5B5" opacity="1.000000" stroke="none" 
	d="
M174.807846,119.042267 
	C174.666779,118.389297 174.841614,117.624054 175.259888,116.677284 
	C176.057831,117.413361 175.756653,118.197548 174.807846,119.042267 
z"/>
<path fill="#F3F3F3" opacity="1.000000" stroke="none" 
	d="
M59.701244,112.315834 
	C61.252926,104.253250 62.544628,96.509338 63.842690,88.365112 
	C64.241470,85.271011 66.408714,84.387459 68.761703,83.211571 
	C69.639008,82.562698 70.243797,82.117661 70.959839,81.408844 
	C71.794365,79.590652 72.921272,78.446808 74.850266,77.694641 
	C79.634583,74.009972 84.074417,70.399109 89.742020,65.789734 
	C88.148628,75.395111 86.769081,83.711334 85.424988,92.463547 
	C86.073372,94.056793 86.175095,95.223564 85.317780,96.706085 
	C84.801582,97.522766 84.493370,98.037689 84.117340,98.846191 
	C81.888138,101.596764 80.610474,104.961884 77.008881,105.623497 
	C76.707504,105.439011 76.432289,105.596832 75.843399,106.112534 
	C74.421753,109.353012 72.350418,111.233467 69.512794,111.929901 
	C69.352089,111.684669 69.160240,111.793907 68.798470,112.187378 
	C67.872398,115.615631 65.093002,116.873520 62.759346,118.388702 
	C61.838135,118.986816 60.049004,119.208023 59.038052,118.053749 
	C57.422894,116.209648 58.253742,114.366882 59.701244,112.315834 
z"/>
<path fill="#111111" opacity="1.000000" stroke="none" 
	d="
M59.566200,112.013443 
	C60.956738,114.046455 57.296192,116.485130 59.705715,117.775497 
	C62.299641,119.164619 63.876545,115.898827 65.849525,114.594902 
	C66.667351,114.054405 67.339790,113.293930 68.353439,112.552551 
	C69.307716,115.103127 65.870193,118.870468 62.152340,119.630043 
	C60.358959,119.996429 58.073055,121.265198 57.452625,118.497070 
	C56.959961,116.298996 55.343990,113.287407 59.566200,112.013443 
z"/>
<path fill="#111111" opacity="1.000000" stroke="none" 
	d="
M77.106506,105.699158 
	C79.133316,103.313057 81.283936,101.344933 83.742035,99.258286 
	C83.865326,103.507080 81.521507,105.763725 77.106506,105.699158 
z"/>
<path fill="#111111" opacity="1.000000" stroke="none" 
	d="
M69.807541,111.914612 
	C71.374069,109.944641 73.204208,108.313866 75.282043,106.576752 
	C76.259323,109.364853 73.597984,112.184540 69.807541,111.914612 
z"/>
<path fill="#222222" opacity="1.000000" stroke="none" 
	d="
M68.650032,82.987709 
	C67.483688,84.530785 65.933167,86.053841 64.115837,87.770844 
	C63.290108,84.232246 63.671463,83.800789 68.650032,82.987709 
z"/>
<path fill="#222222" opacity="1.000000" stroke="none" 
	d="
M75.158981,77.294525 
	C74.023621,78.745438 72.852501,79.870049 71.376236,81.069870 
	C71.637115,76.888313 72.668518,75.825165 75.158981,77.294525 
z"/>
<path fill="#111111" opacity="1.000000" stroke="none" 
	d="
M85.492783,97.003769 
	C85.134644,95.853027 85.159508,94.698219 85.322403,93.221481 
	C86.678497,93.009880 87.761818,93.277527 87.888794,94.799225 
	C88.011749,96.272835 87.250427,96.910034 85.492783,97.003769 
z"/>
<path fill="#242424" opacity="1.000000" stroke="none" 
	d="
M36.020508,121.006638 
	C35.717350,120.093033 35.694130,119.325165 35.804298,118.371384 
	C39.493046,117.470146 37.967133,120.336960 37.798416,121.386879 
	C37.564941,122.839828 36.844986,121.236961 36.020508,121.006638 
z"/>
</svg>